<?xml version="1.0" encoding="utf-8"?>
<svg xmlns="http://www.w3.org/2000/svg" xmlns:xlink="http://www.w3.org/1999/xlink" width="800" height="400" viewBox="0 0 3200 1600">
<defs>
  <clipPath id="clip650">
    <rect x="0" y="0" width="3200" height="1600"/>
  </clipPath>
</defs>
<path clip-path="url(#clip650)" d="M0 1600 L3200 1600 L3200 0 L0 0  Z" fill="#ffffff" fill-rule="evenodd" fill-opacity="1"/>
<defs>
  <clipPath id="clip651">
    <rect x="640" y="0" width="2241" height="1600"/>
  </clipPath>
</defs>
<path clip-path="url(#clip650)" d="M62.9921 674.916 L3152.76 674.916 L3152.76 47.2441 L62.9921 47.2441  Z" fill="#ffffff" fill-rule="evenodd" fill-opacity="1"/>
<defs>
  <clipPath id="clip652">
    <rect x="62" y="47" width="3091" height="629"/>
  </clipPath>
</defs>
<polyline clip-path="url(#clip652)" style="stroke:#000000; stroke-linecap:round; stroke-linejoin:round; stroke-width:2; stroke-opacity:0.1; fill:none" points="266.884,674.916 266.884,47.2441 "/>
<polyline clip-path="url(#clip652)" style="stroke:#000000; stroke-linecap:round; stroke-linejoin:round; stroke-width:2; stroke-opacity:0.1; fill:none" points="945.866,674.916 945.866,47.2441 "/>
<polyline clip-path="url(#clip652)" style="stroke:#000000; stroke-linecap:round; stroke-linejoin:round; stroke-width:2; stroke-opacity:0.1; fill:none" points="1624.85,674.916 1624.85,47.2441 "/>
<polyline clip-path="url(#clip652)" style="stroke:#000000; stroke-linecap:round; stroke-linejoin:round; stroke-width:2; stroke-opacity:0.1; fill:none" points="2303.83,674.916 2303.83,47.2441 "/>
<polyline clip-path="url(#clip652)" style="stroke:#000000; stroke-linecap:round; stroke-linejoin:round; stroke-width:2; stroke-opacity:0.1; fill:none" points="2982.81,674.916 2982.81,47.2441 "/>
<polyline clip-path="url(#clip650)" style="stroke:#000000; stroke-linecap:round; stroke-linejoin:round; stroke-width:4; stroke-opacity:1; fill:none" points="62.9921,674.916 3152.76,674.916 "/>
<polyline clip-path="url(#clip650)" style="stroke:#000000; stroke-linecap:round; stroke-linejoin:round; stroke-width:4; stroke-opacity:1; fill:none" points="266.884,674.916 266.884,656.018 "/>
<polyline clip-path="url(#clip650)" style="stroke:#000000; stroke-linecap:round; stroke-linejoin:round; stroke-width:4; stroke-opacity:1; fill:none" points="945.866,674.916 945.866,656.018 "/>
<polyline clip-path="url(#clip650)" style="stroke:#000000; stroke-linecap:round; stroke-linejoin:round; stroke-width:4; stroke-opacity:1; fill:none" points="1624.85,674.916 1624.85,656.018 "/>
<polyline clip-path="url(#clip650)" style="stroke:#000000; stroke-linecap:round; stroke-linejoin:round; stroke-width:4; stroke-opacity:1; fill:none" points="2303.83,674.916 2303.83,656.018 "/>
<polyline clip-path="url(#clip650)" style="stroke:#000000; stroke-linecap:round; stroke-linejoin:round; stroke-width:4; stroke-opacity:1; fill:none" points="2982.81,674.916 2982.81,656.018 "/>
<path clip-path="url(#clip650)" d="M261.537 739.781 L277.856 739.781 L277.856 743.716 L255.912 743.716 L255.912 739.781 Q258.574 737.026 263.157 732.397 Q267.763 727.744 268.944 726.401 Q271.189 723.878 272.069 722.142 Q272.972 720.383 272.972 718.693 Q272.972 715.938 271.027 714.202 Q269.106 712.466 266.004 712.466 Q263.805 712.466 261.351 713.23 Q258.921 713.994 256.143 715.545 L256.143 710.823 Q258.967 709.688 261.421 709.11 Q263.875 708.531 265.912 708.531 Q271.282 708.531 274.476 711.216 Q277.671 713.901 277.671 718.392 Q277.671 720.522 276.861 722.443 Q276.074 724.341 273.967 726.934 Q273.388 727.605 270.287 730.823 Q267.185 734.017 261.537 739.781 Z" fill="#000000" fill-rule="nonzero" fill-opacity="1" /><path clip-path="url(#clip650)" d="M950.114 725.082 Q953.47 725.8 955.345 728.068 Q957.243 730.337 957.243 733.67 Q957.243 738.786 953.725 741.586 Q950.206 744.387 943.725 744.387 Q941.549 744.387 939.234 743.948 Q936.943 743.531 934.489 742.674 L934.489 738.161 Q936.433 739.295 938.748 739.874 Q941.063 740.452 943.586 740.452 Q947.984 740.452 950.276 738.716 Q952.591 736.98 952.591 733.67 Q952.591 730.614 950.438 728.901 Q948.308 727.165 944.489 727.165 L940.461 727.165 L940.461 723.323 L944.674 723.323 Q948.123 723.323 949.952 721.957 Q951.78 720.568 951.78 717.975 Q951.78 715.313 949.882 713.901 Q948.007 712.466 944.489 712.466 Q942.568 712.466 940.369 712.883 Q938.169 713.3 935.531 714.179 L935.531 710.013 Q938.193 709.272 940.507 708.901 Q942.845 708.531 944.906 708.531 Q950.23 708.531 953.331 710.962 Q956.433 713.369 956.433 717.489 Q956.433 720.36 954.79 722.35 Q953.146 724.318 950.114 725.082 Z" fill="#000000" fill-rule="nonzero" fill-opacity="1" /><path clip-path="url(#clip650)" d="M1627.86 713.23 L1616.05 731.679 L1627.86 731.679 L1627.86 713.23 M1626.63 709.156 L1632.51 709.156 L1632.51 731.679 L1637.44 731.679 L1637.44 735.568 L1632.51 735.568 L1632.51 743.716 L1627.86 743.716 L1627.86 735.568 L1612.26 735.568 L1612.26 731.054 L1626.63 709.156 Z" fill="#000000" fill-rule="nonzero" fill-opacity="1" /><path clip-path="url(#clip650)" d="M2294.11 709.156 L2312.47 709.156 L2312.47 713.091 L2298.39 713.091 L2298.39 721.563 Q2299.41 721.216 2300.43 721.054 Q2301.45 720.869 2302.47 720.869 Q2308.25 720.869 2311.63 724.04 Q2315.01 727.212 2315.01 732.628 Q2315.01 738.207 2311.54 741.309 Q2308.07 744.387 2301.75 744.387 Q2299.57 744.387 2297.3 744.017 Q2295.06 743.647 2292.65 742.906 L2292.65 738.207 Q2294.73 739.341 2296.96 739.897 Q2299.18 740.452 2301.66 740.452 Q2305.66 740.452 2308 738.346 Q2310.34 736.239 2310.34 732.628 Q2310.34 729.017 2308 726.911 Q2305.66 724.804 2301.66 724.804 Q2299.78 724.804 2297.91 725.221 Q2296.05 725.637 2294.11 726.517 L2294.11 709.156 Z" fill="#000000" fill-rule="nonzero" fill-opacity="1" /><path clip-path="url(#clip650)" d="M2983.22 724.573 Q2980.07 724.573 2978.22 726.725 Q2976.39 728.878 2976.39 732.628 Q2976.39 736.355 2978.22 738.531 Q2980.07 740.684 2983.22 740.684 Q2986.37 740.684 2988.2 738.531 Q2990.05 736.355 2990.05 732.628 Q2990.05 728.878 2988.2 726.725 Q2986.37 724.573 2983.22 724.573 M2992.5 709.92 L2992.5 714.179 Q2990.74 713.346 2988.94 712.906 Q2987.15 712.466 2985.39 712.466 Q2980.76 712.466 2978.31 715.591 Q2975.88 718.716 2975.53 725.036 Q2976.9 723.022 2978.96 721.957 Q2981.02 720.869 2983.5 720.869 Q2988.7 720.869 2991.71 724.04 Q2994.75 727.188 2994.75 732.628 Q2994.75 737.952 2991.6 741.17 Q2988.45 744.387 2983.22 744.387 Q2977.22 744.387 2974.05 739.804 Q2970.88 735.198 2970.88 726.471 Q2970.88 718.276 2974.77 713.415 Q2978.66 708.531 2985.21 708.531 Q2986.97 708.531 2988.75 708.878 Q2990.56 709.226 2992.5 709.92 Z" fill="#000000" fill-rule="nonzero" fill-opacity="1" /><path clip-path="url(#clip650)" d="M1573.81 800.704 Q1573.81 802.41 1572.69 803.505 Q1571.59 804.6 1570.17 804.6 Q1568.95 804.6 1568.31 803.892 Q1567.66 803.183 1567.66 802.282 Q1567.66 800.993 1568.66 799.931 Q1569.66 798.868 1571.11 798.642 Q1570.05 797.869 1568.34 797.869 Q1565.54 797.869 1563.06 800.027 Q1561.96 801.026 1560.77 802.861 Q1559.58 804.665 1559.35 805.438 L1557.26 814.037 Q1557.07 815.003 1555.88 819.641 Q1554.72 824.246 1554.62 824.439 Q1554.3 825.341 1553.59 825.824 Q1552.88 826.307 1552.17 826.307 Q1551.37 826.307 1550.82 825.824 Q1550.27 825.341 1550.27 824.504 Q1550.27 824.375 1550.37 823.892 Q1550.46 823.409 1550.63 822.732 Q1550.79 822.056 1550.85 821.67 L1554.68 806.436 Q1555.39 803.667 1555.55 802.797 Q1555.75 801.895 1555.75 800.897 Q1555.75 799.158 1555.2 798.514 Q1554.65 797.869 1553.69 797.869 Q1552.01 797.869 1550.92 799.866 Q1549.82 801.863 1548.89 805.728 Q1548.6 806.79 1548.4 807.016 Q1548.24 807.241 1547.76 807.241 Q1546.95 807.209 1546.95 806.565 Q1546.95 806.404 1547.21 805.373 Q1547.47 804.311 1547.95 802.765 Q1548.47 801.187 1549.02 800.188 Q1549.34 799.512 1549.63 799.061 Q1549.92 798.61 1550.5 797.902 Q1551.08 797.193 1551.95 796.807 Q1552.82 796.42 1553.88 796.42 Q1556.2 796.42 1557.84 797.837 Q1559.51 799.254 1559.9 801.477 Q1560.71 800.317 1561.7 799.319 Q1562.7 798.288 1564.54 797.354 Q1566.37 796.42 1568.34 796.42 Q1570.79 796.42 1572.3 797.676 Q1573.81 798.9 1573.81 800.704 Z" fill="#000000" fill-rule="nonzero" fill-opacity="1" /><path clip-path="url(#clip650)" d="M1583.52 842.056 L1583.52 776.098 L1593.47 776.098 L1593.47 777.612 L1587.93 777.612 L1587.93 840.542 L1593.47 840.542 L1593.47 842.056 L1583.52 842.056 Z" fill="#000000" fill-rule="nonzero" fill-opacity="1" /><path clip-path="url(#clip650)" d="M1646.82 825.567 L1638.18 825.373 Q1631.07 825.373 1628.68 825.567 L1628.68 823.538 Q1634.16 823.538 1634.16 821.541 Q1634.16 821.38 1633.97 820.607 L1630.49 810.526 L1614.19 810.526 L1611.13 819.158 Q1611 819.415 1611 820.156 Q1611 821.541 1612.32 822.539 Q1613.64 823.538 1615.96 823.538 L1615.96 825.567 L1608.36 825.373 L1601.66 825.567 L1601.66 823.538 Q1604.53 823.473 1606.37 822.475 Q1608.2 821.476 1609.04 819.093 L1622.69 779.673 Q1622.95 778.9 1623.24 778.643 Q1623.53 778.353 1624.27 778.353 Q1624.79 778.353 1625.08 778.546 Q1625.37 778.707 1625.46 778.932 Q1625.59 779.126 1625.79 779.673 L1640.02 820.897 Q1640.57 822.539 1641.63 823.054 Q1642.69 823.538 1645.66 823.538 L1646.82 823.538 L1646.82 825.567 M1629.75 808.497 L1622.31 787.048 L1614.9 808.497 L1629.75 808.497 M1628.43 772.523 Q1628.43 768.723 1624.27 768.723 Q1620.12 768.723 1620.12 772.523 Q1620.12 776.356 1624.27 776.356 Q1628.43 776.356 1628.43 772.523 M1630.62 772.459 Q1630.62 774.907 1628.78 776.646 Q1626.95 778.353 1624.21 778.353 Q1621.66 778.353 1619.8 776.646 Q1617.93 774.939 1617.93 772.459 Q1617.93 770.205 1619.73 768.466 Q1621.57 766.726 1624.34 766.726 Q1626.98 766.726 1628.78 768.433 Q1630.62 770.14 1630.62 772.459 Z" fill="#000000" fill-rule="nonzero" fill-opacity="1" /><path clip-path="url(#clip650)" d="M1650.65 840.542 L1656.19 840.542 L1656.19 777.612 L1650.65 777.612 L1650.65 776.098 L1660.6 776.098 L1660.6 842.056 L1650.65 842.056 L1650.65 840.542 Z" fill="#000000" fill-rule="nonzero" fill-opacity="1" /><polyline clip-path="url(#clip650)" style="stroke:#000000; stroke-linecap:round; stroke-linejoin:round; stroke-width:4; stroke-opacity:1; fill:none" points="62.9921,674.916 62.9921,47.2441 "/>
<path clip-path="url(#clip650)" d="M-69.5438 399.943 Q-68.8436 397.874 -66.552 395.932 Q-64.2603 393.959 -60.2499 391.986 L-47.2639 385.461 L-47.2639 392.368 L-59.4542 398.447 Q-64.2285 400.802 -65.7881 403.03 Q-67.3477 405.226 -67.3477 409.046 L-67.3477 416.048 L-47.2639 416.048 L-47.2639 422.477 L-94.7839 422.477 L-94.7839 407.964 Q-94.7839 399.815 -91.3782 395.805 Q-87.9726 391.795 -81.0976 391.795 Q-76.6098 391.795 -73.6497 393.895 Q-70.6897 395.964 -69.5438 399.943 M-89.5003 416.048 L-72.6312 416.048 L-72.6312 407.964 Q-72.6312 403.317 -74.7637 400.961 Q-76.9281 398.574 -81.0976 398.574 Q-85.2671 398.574 -87.3678 400.961 Q-89.5003 403.317 -89.5003 407.964 L-89.5003 416.048 Z" fill="#000000" fill-rule="nonzero" fill-opacity="1" /><path clip-path="url(#clip650)" d="M-89.5003 370.756 L-52.5474 370.756 L-52.5474 362.99 Q-52.5474 353.155 -57.0034 348.603 Q-61.4594 344.02 -71.0716 344.02 Q-80.6202 344.02 -85.0443 348.603 Q-89.5003 353.155 -89.5003 362.99 L-89.5003 370.756 M-94.7839 377.185 L-94.7839 363.976 Q-94.7839 350.163 -89.0229 343.702 Q-83.2938 337.241 -71.0716 337.241 Q-58.7858 337.241 -53.0248 343.734 Q-47.2639 350.227 -47.2639 363.976 L-47.2639 377.185 L-94.7839 377.185 Z" fill="#000000" fill-rule="nonzero" fill-opacity="1" /><path clip-path="url(#clip650)" d="M-94.7839 326.992 L-94.7839 299.683 L-89.373 299.683 L-89.373 320.562 L-75.3685 320.562 L-75.3685 301.72 L-69.9576 301.72 L-69.9576 320.562 L-47.2639 320.562 L-47.2639 326.992 L-94.7839 326.992 Z" fill="#000000" fill-rule="nonzero" fill-opacity="1" /><path clip-path="url(#clip652)" d="M232.935 672.202 L232.935 674.916 L266.884 674.916 L266.884 672.202 L232.935 672.202 L232.935 672.202  Z" fill="#009af9" fill-rule="evenodd" fill-opacity="1"/>
<polyline clip-path="url(#clip652)" style="stroke:#000000; stroke-linecap:round; stroke-linejoin:round; stroke-width:4; stroke-opacity:1; fill:none" points="232.935,672.202 232.935,674.916 266.884,674.916 266.884,672.202 232.935,672.202 "/>
<path clip-path="url(#clip652)" d="M266.884 659.616 L266.884 674.916 L300.833 674.916 L300.833 659.616 L266.884 659.616 L266.884 659.616  Z" fill="#009af9" fill-rule="evenodd" fill-opacity="1"/>
<polyline clip-path="url(#clip652)" style="stroke:#000000; stroke-linecap:round; stroke-linejoin:round; stroke-width:4; stroke-opacity:1; fill:none" points="266.884,659.616 266.884,674.916 300.833,674.916 300.833,659.616 266.884,659.616 "/>
<path clip-path="url(#clip652)" d="M300.833 629.016 L300.833 674.916 L334.782 674.916 L334.782 629.016 L300.833 629.016 L300.833 629.016  Z" fill="#009af9" fill-rule="evenodd" fill-opacity="1"/>
<polyline clip-path="url(#clip652)" style="stroke:#000000; stroke-linecap:round; stroke-linejoin:round; stroke-width:4; stroke-opacity:1; fill:none" points="300.833,629.016 300.833,674.916 334.782,674.916 334.782,629.016 300.833,629.016 "/>
<path clip-path="url(#clip652)" d="M334.782 564.484 L334.782 674.916 L368.731 674.916 L368.731 564.484 L334.782 564.484 L334.782 564.484  Z" fill="#009af9" fill-rule="evenodd" fill-opacity="1"/>
<polyline clip-path="url(#clip652)" style="stroke:#000000; stroke-linecap:round; stroke-linejoin:round; stroke-width:4; stroke-opacity:1; fill:none" points="334.782,564.484 334.782,674.916 368.731,674.916 368.731,564.484 334.782,564.484 "/>
<path clip-path="url(#clip652)" d="M368.731 452.942 L368.731 674.916 L402.68 674.916 L402.68 452.942 L368.731 452.942 L368.731 452.942  Z" fill="#009af9" fill-rule="evenodd" fill-opacity="1"/>
<polyline clip-path="url(#clip652)" style="stroke:#000000; stroke-linecap:round; stroke-linejoin:round; stroke-width:4; stroke-opacity:1; fill:none" points="368.731,452.942 368.731,674.916 402.68,674.916 402.68,452.942 368.731,452.942 "/>
<path clip-path="url(#clip652)" d="M402.68 336.464 L402.68 674.916 L436.629 674.916 L436.629 336.464 L402.68 336.464 L402.68 336.464  Z" fill="#009af9" fill-rule="evenodd" fill-opacity="1"/>
<polyline clip-path="url(#clip652)" style="stroke:#000000; stroke-linecap:round; stroke-linejoin:round; stroke-width:4; stroke-opacity:1; fill:none" points="402.68,336.464 402.68,674.916 436.629,674.916 436.629,336.464 402.68,336.464 "/>
<path clip-path="url(#clip652)" d="M436.629 195.679 L436.629 674.916 L470.578 674.916 L470.578 195.679 L436.629 195.679 L436.629 195.679  Z" fill="#009af9" fill-rule="evenodd" fill-opacity="1"/>
<polyline clip-path="url(#clip652)" style="stroke:#000000; stroke-linecap:round; stroke-linejoin:round; stroke-width:4; stroke-opacity:1; fill:none" points="436.629,195.679 436.629,674.916 470.578,674.916 470.578,195.679 436.629,195.679 "/>
<path clip-path="url(#clip652)" d="M470.578 112.886 L470.578 674.916 L504.528 674.916 L504.528 112.886 L470.578 112.886 L470.578 112.886  Z" fill="#009af9" fill-rule="evenodd" fill-opacity="1"/>
<polyline clip-path="url(#clip652)" style="stroke:#000000; stroke-linecap:round; stroke-linejoin:round; stroke-width:4; stroke-opacity:1; fill:none" points="470.578,112.886 470.578,674.916 504.528,674.916 504.528,112.886 470.578,112.886 "/>
<path clip-path="url(#clip652)" d="M504.528 123.991 L504.528 674.916 L538.477 674.916 L538.477 123.991 L504.528 123.991 L504.528 123.991  Z" fill="#009af9" fill-rule="evenodd" fill-opacity="1"/>
<polyline clip-path="url(#clip652)" style="stroke:#000000; stroke-linecap:round; stroke-linejoin:round; stroke-width:4; stroke-opacity:1; fill:none" points="504.528,123.991 504.528,674.916 538.477,674.916 538.477,123.991 504.528,123.991 "/>
<path clip-path="url(#clip652)" d="M538.477 223.935 L538.477 674.916 L572.426 674.916 L572.426 223.935 L538.477 223.935 L538.477 223.935  Z" fill="#009af9" fill-rule="evenodd" fill-opacity="1"/>
<polyline clip-path="url(#clip652)" style="stroke:#000000; stroke-linecap:round; stroke-linejoin:round; stroke-width:4; stroke-opacity:1; fill:none" points="538.477,223.935 538.477,674.916 572.426,674.916 572.426,223.935 538.477,223.935 "/>
<path clip-path="url(#clip652)" d="M572.426 351.518 L572.426 674.916 L606.375 674.916 L606.375 351.518 L572.426 351.518 L572.426 351.518  Z" fill="#009af9" fill-rule="evenodd" fill-opacity="1"/>
<polyline clip-path="url(#clip652)" style="stroke:#000000; stroke-linecap:round; stroke-linejoin:round; stroke-width:4; stroke-opacity:1; fill:none" points="572.426,351.518 572.426,674.916 606.375,674.916 606.375,351.518 572.426,351.518 "/>
<path clip-path="url(#clip652)" d="M606.375 477.496 L606.375 674.916 L640.324 674.916 L640.324 477.496 L606.375 477.496 L606.375 477.496  Z" fill="#009af9" fill-rule="evenodd" fill-opacity="1"/>
<polyline clip-path="url(#clip652)" style="stroke:#000000; stroke-linecap:round; stroke-linejoin:round; stroke-width:4; stroke-opacity:1; fill:none" points="606.375,477.496 606.375,674.916 640.324,674.916 640.324,477.496 606.375,477.496 "/>
<path clip-path="url(#clip652)" d="M640.324 578.18 L640.324 674.916 L674.273 674.916 L674.273 578.18 L640.324 578.18 L640.324 578.18  Z" fill="#009af9" fill-rule="evenodd" fill-opacity="1"/>
<polyline clip-path="url(#clip652)" style="stroke:#000000; stroke-linecap:round; stroke-linejoin:round; stroke-width:4; stroke-opacity:1; fill:none" points="640.324,578.18 640.324,674.916 674.273,674.916 674.273,578.18 640.324,578.18 "/>
<path clip-path="url(#clip652)" d="M674.273 636.419 L674.273 674.916 L708.222 674.916 L708.222 636.419 L674.273 636.419 L674.273 636.419  Z" fill="#009af9" fill-rule="evenodd" fill-opacity="1"/>
<polyline clip-path="url(#clip652)" style="stroke:#000000; stroke-linecap:round; stroke-linejoin:round; stroke-width:4; stroke-opacity:1; fill:none" points="674.273,636.419 674.273,674.916 708.222,674.916 708.222,636.419 674.273,636.419 "/>
<path clip-path="url(#clip652)" d="M708.222 662.577 L708.222 674.916 L742.171 674.916 L742.171 662.577 L708.222 662.577 L708.222 662.577  Z" fill="#009af9" fill-rule="evenodd" fill-opacity="1"/>
<polyline clip-path="url(#clip652)" style="stroke:#000000; stroke-linecap:round; stroke-linejoin:round; stroke-width:4; stroke-opacity:1; fill:none" points="708.222,662.577 708.222,674.916 742.171,674.916 742.171,662.577 708.222,662.577 "/>
<path clip-path="url(#clip652)" d="M742.171 673.189 L742.171 674.916 L776.121 674.916 L776.121 673.189 L742.171 673.189 L742.171 673.189  Z" fill="#009af9" fill-rule="evenodd" fill-opacity="1"/>
<polyline clip-path="url(#clip652)" style="stroke:#000000; stroke-linecap:round; stroke-linejoin:round; stroke-width:4; stroke-opacity:1; fill:none" points="742.171,673.189 742.171,674.916 776.121,674.916 776.121,673.189 742.171,673.189 "/>
<path clip-path="url(#clip652)" d="M776.121 674.669 L776.121 674.916 L810.07 674.916 L810.07 674.669 L776.121 674.669 L776.121 674.669  Z" fill="#009af9" fill-rule="evenodd" fill-opacity="1"/>
<polyline clip-path="url(#clip652)" style="stroke:#000000; stroke-linecap:round; stroke-linejoin:round; stroke-width:4; stroke-opacity:1; fill:none" points="776.121,674.669 776.121,674.916 810.07,674.916 810.07,674.669 776.121,674.669 "/>
<path clip-path="url(#clip652)" d="M810.07 674.916 L810.07 674.916 L844.019 674.916 L844.019 674.916 L810.07 674.916 L810.07 674.916  Z" fill="#009af9" fill-rule="evenodd" fill-opacity="1"/>
<polyline clip-path="url(#clip652)" style="stroke:#000000; stroke-linecap:round; stroke-linejoin:round; stroke-width:4; stroke-opacity:1; fill:none" points="810.07,674.916 810.07,674.916 844.019,674.916 810.07,674.916 "/>
<path clip-path="url(#clip652)" d="M844.019 674.916 L844.019 674.916 L877.968 674.916 L877.968 674.916 L844.019 674.916 L844.019 674.916  Z" fill="#009af9" fill-rule="evenodd" fill-opacity="1"/>
<polyline clip-path="url(#clip652)" style="stroke:#000000; stroke-linecap:round; stroke-linejoin:round; stroke-width:4; stroke-opacity:1; fill:none" points="844.019,674.916 844.019,674.916 877.968,674.916 844.019,674.916 "/>
<path clip-path="url(#clip652)" d="M877.968 674.916 L877.968 674.916 L911.917 674.916 L911.917 674.916 L877.968 674.916 L877.968 674.916  Z" fill="#009af9" fill-rule="evenodd" fill-opacity="1"/>
<polyline clip-path="url(#clip652)" style="stroke:#000000; stroke-linecap:round; stroke-linejoin:round; stroke-width:4; stroke-opacity:1; fill:none" points="877.968,674.916 877.968,674.916 911.917,674.916 877.968,674.916 "/>
<path clip-path="url(#clip652)" d="M911.917 674.916 L911.917 674.916 L945.866 674.916 L945.866 674.916 L911.917 674.916 L911.917 674.916  Z" fill="#009af9" fill-rule="evenodd" fill-opacity="1"/>
<polyline clip-path="url(#clip652)" style="stroke:#000000; stroke-linecap:round; stroke-linejoin:round; stroke-width:4; stroke-opacity:1; fill:none" points="911.917,674.916 911.917,674.916 945.866,674.916 911.917,674.916 "/>
<path clip-path="url(#clip652)" d="M945.866 674.916 L945.866 674.916 L979.815 674.916 L979.815 674.916 L945.866 674.916 L945.866 674.916  Z" fill="#009af9" fill-rule="evenodd" fill-opacity="1"/>
<polyline clip-path="url(#clip652)" style="stroke:#000000; stroke-linecap:round; stroke-linejoin:round; stroke-width:4; stroke-opacity:1; fill:none" points="945.866,674.916 945.866,674.916 979.815,674.916 945.866,674.916 "/>
<path clip-path="url(#clip652)" d="M979.815 674.916 L979.815 674.916 L1013.76 674.916 L1013.76 674.916 L979.815 674.916 L979.815 674.916  Z" fill="#009af9" fill-rule="evenodd" fill-opacity="1"/>
<polyline clip-path="url(#clip652)" style="stroke:#000000; stroke-linecap:round; stroke-linejoin:round; stroke-width:4; stroke-opacity:1; fill:none" points="979.815,674.916 979.815,674.916 1013.76,674.916 979.815,674.916 "/>
<path clip-path="url(#clip652)" d="M1013.76 674.916 L1013.76 674.916 L1047.71 674.916 L1047.71 674.916 L1013.76 674.916 L1013.76 674.916  Z" fill="#009af9" fill-rule="evenodd" fill-opacity="1"/>
<polyline clip-path="url(#clip652)" style="stroke:#000000; stroke-linecap:round; stroke-linejoin:round; stroke-width:4; stroke-opacity:1; fill:none" points="1013.76,674.916 1013.76,674.916 1047.71,674.916 1013.76,674.916 "/>
<path clip-path="url(#clip652)" d="M1047.71 674.916 L1047.71 674.916 L1081.66 674.916 L1081.66 674.916 L1047.71 674.916 L1047.71 674.916  Z" fill="#009af9" fill-rule="evenodd" fill-opacity="1"/>
<polyline clip-path="url(#clip652)" style="stroke:#000000; stroke-linecap:round; stroke-linejoin:round; stroke-width:4; stroke-opacity:1; fill:none" points="1047.71,674.916 1047.71,674.916 1081.66,674.916 1047.71,674.916 "/>
<path clip-path="url(#clip652)" d="M1081.66 674.916 L1081.66 674.916 L1115.61 674.916 L1115.61 674.916 L1081.66 674.916 L1081.66 674.916  Z" fill="#009af9" fill-rule="evenodd" fill-opacity="1"/>
<polyline clip-path="url(#clip652)" style="stroke:#000000; stroke-linecap:round; stroke-linejoin:round; stroke-width:4; stroke-opacity:1; fill:none" points="1081.66,674.916 1081.66,674.916 1115.61,674.916 1081.66,674.916 "/>
<path clip-path="url(#clip652)" d="M1115.61 674.916 L1115.61 674.916 L1149.56 674.916 L1149.56 674.916 L1115.61 674.916 L1115.61 674.916  Z" fill="#009af9" fill-rule="evenodd" fill-opacity="1"/>
<polyline clip-path="url(#clip652)" style="stroke:#000000; stroke-linecap:round; stroke-linejoin:round; stroke-width:4; stroke-opacity:1; fill:none" points="1115.61,674.916 1115.61,674.916 1149.56,674.916 1115.61,674.916 "/>
<path clip-path="url(#clip652)" d="M1149.56 674.916 L1149.56 674.916 L1183.51 674.916 L1183.51 674.916 L1149.56 674.916 L1149.56 674.916  Z" fill="#009af9" fill-rule="evenodd" fill-opacity="1"/>
<polyline clip-path="url(#clip652)" style="stroke:#000000; stroke-linecap:round; stroke-linejoin:round; stroke-width:4; stroke-opacity:1; fill:none" points="1149.56,674.916 1149.56,674.916 1183.51,674.916 1149.56,674.916 "/>
<path clip-path="url(#clip652)" d="M1183.51 674.916 L1183.51 674.916 L1217.46 674.916 L1217.46 674.916 L1183.51 674.916 L1183.51 674.916  Z" fill="#009af9" fill-rule="evenodd" fill-opacity="1"/>
<polyline clip-path="url(#clip652)" style="stroke:#000000; stroke-linecap:round; stroke-linejoin:round; stroke-width:4; stroke-opacity:1; fill:none" points="1183.51,674.916 1183.51,674.916 1217.46,674.916 1183.51,674.916 "/>
<path clip-path="url(#clip652)" d="M1217.46 674.916 L1217.46 674.916 L1251.41 674.916 L1251.41 674.916 L1217.46 674.916 L1217.46 674.916  Z" fill="#009af9" fill-rule="evenodd" fill-opacity="1"/>
<polyline clip-path="url(#clip652)" style="stroke:#000000; stroke-linecap:round; stroke-linejoin:round; stroke-width:4; stroke-opacity:1; fill:none" points="1217.46,674.916 1217.46,674.916 1251.41,674.916 1217.46,674.916 "/>
<path clip-path="url(#clip652)" d="M1251.41 673.312 L1251.41 674.916 L1285.36 674.916 L1285.36 673.312 L1251.41 673.312 L1251.41 673.312  Z" fill="#009af9" fill-rule="evenodd" fill-opacity="1"/>
<polyline clip-path="url(#clip652)" style="stroke:#000000; stroke-linecap:round; stroke-linejoin:round; stroke-width:4; stroke-opacity:1; fill:none" points="1251.41,673.312 1251.41,674.916 1285.36,674.916 1285.36,673.312 1251.41,673.312 "/>
<path clip-path="url(#clip652)" d="M1285.36 658.506 L1285.36 674.916 L1319.31 674.916 L1319.31 658.506 L1285.36 658.506 L1285.36 658.506  Z" fill="#009af9" fill-rule="evenodd" fill-opacity="1"/>
<polyline clip-path="url(#clip652)" style="stroke:#000000; stroke-linecap:round; stroke-linejoin:round; stroke-width:4; stroke-opacity:1; fill:none" points="1285.36,658.506 1285.36,674.916 1319.31,674.916 1319.31,658.506 1285.36,658.506 "/>
<path clip-path="url(#clip652)" d="M1319.31 610.014 L1319.31 674.916 L1353.26 674.916 L1353.26 610.014 L1319.31 610.014 L1319.31 610.014  Z" fill="#009af9" fill-rule="evenodd" fill-opacity="1"/>
<polyline clip-path="url(#clip652)" style="stroke:#000000; stroke-linecap:round; stroke-linejoin:round; stroke-width:4; stroke-opacity:1; fill:none" points="1319.31,610.014 1319.31,674.916 1353.26,674.916 1353.26,610.014 1319.31,610.014 "/>
<path clip-path="url(#clip652)" d="M1353.26 526.851 L1353.26 674.916 L1387.2 674.916 L1387.2 526.851 L1353.26 526.851 L1353.26 526.851  Z" fill="#009af9" fill-rule="evenodd" fill-opacity="1"/>
<polyline clip-path="url(#clip652)" style="stroke:#000000; stroke-linecap:round; stroke-linejoin:round; stroke-width:4; stroke-opacity:1; fill:none" points="1353.26,526.851 1353.26,674.916 1387.2,674.916 1387.2,526.851 1353.26,526.851 "/>
<path clip-path="url(#clip652)" d="M1387.2 401.489 L1387.2 674.916 L1421.15 674.916 L1421.15 401.489 L1387.2 401.489 L1387.2 401.489  Z" fill="#009af9" fill-rule="evenodd" fill-opacity="1"/>
<polyline clip-path="url(#clip652)" style="stroke:#000000; stroke-linecap:round; stroke-linejoin:round; stroke-width:4; stroke-opacity:1; fill:none" points="1387.2,401.489 1387.2,674.916 1421.15,674.916 1421.15,401.489 1387.2,401.489 "/>
<path clip-path="url(#clip652)" d="M1421.15 247.749 L1421.15 674.916 L1455.1 674.916 L1455.1 247.749 L1421.15 247.749 L1421.15 247.749  Z" fill="#009af9" fill-rule="evenodd" fill-opacity="1"/>
<polyline clip-path="url(#clip652)" style="stroke:#000000; stroke-linecap:round; stroke-linejoin:round; stroke-width:4; stroke-opacity:1; fill:none" points="1421.15,247.749 1421.15,674.916 1455.1,674.916 1455.1,247.749 1421.15,247.749 "/>
<path clip-path="url(#clip652)" d="M1455.1 116.711 L1455.1 674.916 L1489.05 674.916 L1489.05 116.711 L1455.1 116.711 L1455.1 116.711  Z" fill="#009af9" fill-rule="evenodd" fill-opacity="1"/>
<polyline clip-path="url(#clip652)" style="stroke:#000000; stroke-linecap:round; stroke-linejoin:round; stroke-width:4; stroke-opacity:1; fill:none" points="1455.1,116.711 1455.1,674.916 1489.05,674.916 1489.05,116.711 1455.1,116.711 "/>
<path clip-path="url(#clip652)" d="M1489.05 47.2441 L1489.05 674.916 L1523 674.916 L1523 47.2441 L1489.05 47.2441 L1489.05 47.2441  Z" fill="#009af9" fill-rule="evenodd" fill-opacity="1"/>
<polyline clip-path="url(#clip652)" style="stroke:#000000; stroke-linecap:round; stroke-linejoin:round; stroke-width:4; stroke-opacity:1; fill:none" points="1489.05,47.2441 1489.05,674.916 1523,674.916 1523,47.2441 1489.05,47.2441 "/>
<path clip-path="url(#clip652)" d="M1523 72.2917 L1523 674.916 L1556.95 674.916 L1556.95 72.2917 L1523 72.2917 L1523 72.2917  Z" fill="#009af9" fill-rule="evenodd" fill-opacity="1"/>
<polyline clip-path="url(#clip652)" style="stroke:#000000; stroke-linecap:round; stroke-linejoin:round; stroke-width:4; stroke-opacity:1; fill:none" points="1523,72.2917 1523,674.916 1556.95,674.916 1556.95,72.2917 1523,72.2917 "/>
<path clip-path="url(#clip652)" d="M1556.95 174.457 L1556.95 674.916 L1590.9 674.916 L1590.9 174.457 L1556.95 174.457 L1556.95 174.457  Z" fill="#009af9" fill-rule="evenodd" fill-opacity="1"/>
<polyline clip-path="url(#clip652)" style="stroke:#000000; stroke-linecap:round; stroke-linejoin:round; stroke-width:4; stroke-opacity:1; fill:none" points="1556.95,174.457 1556.95,674.916 1590.9,674.916 1590.9,174.457 1556.95,174.457 "/>
<path clip-path="url(#clip652)" d="M1590.9 339.179 L1590.9 674.916 L1624.85 674.916 L1624.85 339.179 L1590.9 339.179 L1590.9 339.179  Z" fill="#009af9" fill-rule="evenodd" fill-opacity="1"/>
<polyline clip-path="url(#clip652)" style="stroke:#000000; stroke-linecap:round; stroke-linejoin:round; stroke-width:4; stroke-opacity:1; fill:none" points="1590.9,339.179 1590.9,674.916 1624.85,674.916 1624.85,339.179 1590.9,339.179 "/>
<path clip-path="url(#clip652)" d="M1624.85 476.756 L1624.85 674.916 L1658.8 674.916 L1658.8 476.756 L1624.85 476.756 L1624.85 476.756  Z" fill="#009af9" fill-rule="evenodd" fill-opacity="1"/>
<polyline clip-path="url(#clip652)" style="stroke:#000000; stroke-linecap:round; stroke-linejoin:round; stroke-width:4; stroke-opacity:1; fill:none" points="1624.85,476.756 1624.85,674.916 1658.8,674.916 1658.8,476.756 1624.85,476.756 "/>
<path clip-path="url(#clip652)" d="M1658.8 573.738 L1658.8 674.916 L1692.75 674.916 L1692.75 573.738 L1658.8 573.738 L1658.8 573.738  Z" fill="#009af9" fill-rule="evenodd" fill-opacity="1"/>
<polyline clip-path="url(#clip652)" style="stroke:#000000; stroke-linecap:round; stroke-linejoin:round; stroke-width:4; stroke-opacity:1; fill:none" points="1658.8,573.738 1658.8,674.916 1692.75,674.916 1692.75,573.738 1658.8,573.738 "/>
<path clip-path="url(#clip652)" d="M1692.75 645.92 L1692.75 674.916 L1726.7 674.916 L1726.7 645.92 L1692.75 645.92 L1692.75 645.92  Z" fill="#009af9" fill-rule="evenodd" fill-opacity="1"/>
<polyline clip-path="url(#clip652)" style="stroke:#000000; stroke-linecap:round; stroke-linejoin:round; stroke-width:4; stroke-opacity:1; fill:none" points="1692.75,645.92 1692.75,674.916 1726.7,674.916 1726.7,645.92 1692.75,645.92 "/>
<path clip-path="url(#clip652)" d="M1726.7 663.071 L1726.7 674.916 L1760.65 674.916 L1760.65 663.071 L1726.7 663.071 L1726.7 663.071  Z" fill="#009af9" fill-rule="evenodd" fill-opacity="1"/>
<polyline clip-path="url(#clip652)" style="stroke:#000000; stroke-linecap:round; stroke-linejoin:round; stroke-width:4; stroke-opacity:1; fill:none" points="1726.7,663.071 1726.7,674.916 1760.65,674.916 1760.65,663.071 1726.7,663.071 "/>
<path clip-path="url(#clip652)" d="M1760.65 641.972 L1760.65 674.916 L1794.59 674.916 L1794.59 641.972 L1760.65 641.972 L1760.65 641.972  Z" fill="#009af9" fill-rule="evenodd" fill-opacity="1"/>
<polyline clip-path="url(#clip652)" style="stroke:#000000; stroke-linecap:round; stroke-linejoin:round; stroke-width:4; stroke-opacity:1; fill:none" points="1760.65,641.972 1760.65,674.916 1794.59,674.916 1794.59,641.972 1760.65,641.972 "/>
<path clip-path="url(#clip652)" d="M1794.59 587.434 L1794.59 674.916 L1828.54 674.916 L1828.54 587.434 L1794.59 587.434 L1794.59 587.434  Z" fill="#009af9" fill-rule="evenodd" fill-opacity="1"/>
<polyline clip-path="url(#clip652)" style="stroke:#000000; stroke-linecap:round; stroke-linejoin:round; stroke-width:4; stroke-opacity:1; fill:none" points="1794.59,587.434 1794.59,674.916 1828.54,674.916 1828.54,587.434 1794.59,587.434 "/>
<path clip-path="url(#clip652)" d="M1828.54 488.478 L1828.54 674.916 L1862.49 674.916 L1862.49 488.478 L1828.54 488.478 L1828.54 488.478  Z" fill="#009af9" fill-rule="evenodd" fill-opacity="1"/>
<polyline clip-path="url(#clip652)" style="stroke:#000000; stroke-linecap:round; stroke-linejoin:round; stroke-width:4; stroke-opacity:1; fill:none" points="1828.54,488.478 1828.54,674.916 1862.49,674.916 1862.49,488.478 1828.54,488.478 "/>
<path clip-path="url(#clip652)" d="M1862.49 389.768 L1862.49 674.916 L1896.44 674.916 L1896.44 389.768 L1862.49 389.768 L1862.49 389.768  Z" fill="#009af9" fill-rule="evenodd" fill-opacity="1"/>
<polyline clip-path="url(#clip652)" style="stroke:#000000; stroke-linecap:round; stroke-linejoin:round; stroke-width:4; stroke-opacity:1; fill:none" points="1862.49,389.768 1862.49,674.916 1896.44,674.916 1896.44,389.768 1862.49,389.768 "/>
<path clip-path="url(#clip652)" d="M1896.44 287.109 L1896.44 674.916 L1930.39 674.916 L1930.39 287.109 L1896.44 287.109 L1896.44 287.109  Z" fill="#009af9" fill-rule="evenodd" fill-opacity="1"/>
<polyline clip-path="url(#clip652)" style="stroke:#000000; stroke-linecap:round; stroke-linejoin:round; stroke-width:4; stroke-opacity:1; fill:none" points="1896.44,287.109 1896.44,674.916 1930.39,674.916 1930.39,287.109 1896.44,287.109 "/>
<path clip-path="url(#clip652)" d="M1930.39 238.001 L1930.39 674.916 L1964.34 674.916 L1964.34 238.001 L1930.39 238.001 L1930.39 238.001  Z" fill="#009af9" fill-rule="evenodd" fill-opacity="1"/>
<polyline clip-path="url(#clip652)" style="stroke:#000000; stroke-linecap:round; stroke-linejoin:round; stroke-width:4; stroke-opacity:1; fill:none" points="1930.39,238.001 1930.39,674.916 1964.34,674.916 1964.34,238.001 1930.39,238.001 "/>
<path clip-path="url(#clip652)" d="M1964.34 246.145 L1964.34 674.916 L1998.29 674.916 L1998.29 246.145 L1964.34 246.145 L1964.34 246.145  Z" fill="#009af9" fill-rule="evenodd" fill-opacity="1"/>
<polyline clip-path="url(#clip652)" style="stroke:#000000; stroke-linecap:round; stroke-linejoin:round; stroke-width:4; stroke-opacity:1; fill:none" points="1964.34,246.145 1964.34,674.916 1998.29,674.916 1998.29,246.145 1964.34,246.145 "/>
<path clip-path="url(#clip652)" d="M1998.29 313.884 L1998.29 674.916 L2032.24 674.916 L2032.24 313.884 L1998.29 313.884 L1998.29 313.884  Z" fill="#009af9" fill-rule="evenodd" fill-opacity="1"/>
<polyline clip-path="url(#clip652)" style="stroke:#000000; stroke-linecap:round; stroke-linejoin:round; stroke-width:4; stroke-opacity:1; fill:none" points="1998.29,313.884 1998.29,674.916 2032.24,674.916 2032.24,313.884 1998.29,313.884 "/>
<path clip-path="url(#clip652)" d="M2032.24 401.489 L2032.24 674.916 L2066.19 674.916 L2066.19 401.489 L2032.24 401.489 L2032.24 401.489  Z" fill="#009af9" fill-rule="evenodd" fill-opacity="1"/>
<polyline clip-path="url(#clip652)" style="stroke:#000000; stroke-linecap:round; stroke-linejoin:round; stroke-width:4; stroke-opacity:1; fill:none" points="2032.24,401.489 2032.24,674.916 2066.19,674.916 2066.19,401.489 2032.24,401.489 "/>
<path clip-path="url(#clip652)" d="M2066.19 498.102 L2066.19 674.916 L2100.14 674.916 L2100.14 498.102 L2066.19 498.102 L2066.19 498.102  Z" fill="#009af9" fill-rule="evenodd" fill-opacity="1"/>
<polyline clip-path="url(#clip652)" style="stroke:#000000; stroke-linecap:round; stroke-linejoin:round; stroke-width:4; stroke-opacity:1; fill:none" points="2066.19,498.102 2066.19,674.916 2100.14,674.916 2100.14,498.102 2066.19,498.102 "/>
<path clip-path="url(#clip652)" d="M2100.14 583.116 L2100.14 674.916 L2134.09 674.916 L2134.09 583.116 L2100.14 583.116 L2100.14 583.116  Z" fill="#009af9" fill-rule="evenodd" fill-opacity="1"/>
<polyline clip-path="url(#clip652)" style="stroke:#000000; stroke-linecap:round; stroke-linejoin:round; stroke-width:4; stroke-opacity:1; fill:none" points="2100.14,583.116 2100.14,674.916 2134.09,674.916 2134.09,583.116 2100.14,583.116 "/>
<path clip-path="url(#clip652)" d="M2134.09 645.55 L2134.09 674.916 L2168.03 674.916 L2168.03 645.55 L2134.09 645.55 L2134.09 645.55  Z" fill="#009af9" fill-rule="evenodd" fill-opacity="1"/>
<polyline clip-path="url(#clip652)" style="stroke:#000000; stroke-linecap:round; stroke-linejoin:round; stroke-width:4; stroke-opacity:1; fill:none" points="2134.09,645.55 2134.09,674.916 2168.03,674.916 2168.03,645.55 2134.09,645.55 "/>
<path clip-path="url(#clip652)" d="M2168.03 669.117 L2168.03 674.916 L2201.98 674.916 L2201.98 669.117 L2168.03 669.117 L2168.03 669.117  Z" fill="#009af9" fill-rule="evenodd" fill-opacity="1"/>
<polyline clip-path="url(#clip652)" style="stroke:#000000; stroke-linecap:round; stroke-linejoin:round; stroke-width:4; stroke-opacity:1; fill:none" points="2168.03,669.117 2168.03,674.916 2201.98,674.916 2201.98,669.117 2168.03,669.117 "/>
<path clip-path="url(#clip652)" d="M2201.98 674.669 L2201.98 674.916 L2235.93 674.916 L2235.93 674.669 L2201.98 674.669 L2201.98 674.669  Z" fill="#009af9" fill-rule="evenodd" fill-opacity="1"/>
<polyline clip-path="url(#clip652)" style="stroke:#000000; stroke-linecap:round; stroke-linejoin:round; stroke-width:4; stroke-opacity:1; fill:none" points="2201.98,674.669 2201.98,674.916 2235.93,674.916 2235.93,674.669 2201.98,674.669 "/>
<path clip-path="url(#clip652)" d="M2235.93 674.916 L2235.93 674.916 L2269.88 674.916 L2269.88 674.916 L2235.93 674.916 L2235.93 674.916  Z" fill="#009af9" fill-rule="evenodd" fill-opacity="1"/>
<polyline clip-path="url(#clip652)" style="stroke:#000000; stroke-linecap:round; stroke-linejoin:round; stroke-width:4; stroke-opacity:1; fill:none" points="2235.93,674.916 2235.93,674.916 2269.88,674.916 2235.93,674.916 "/>
<path clip-path="url(#clip652)" d="M2269.88 674.916 L2269.88 674.916 L2303.83 674.916 L2303.83 674.916 L2269.88 674.916 L2269.88 674.916  Z" fill="#009af9" fill-rule="evenodd" fill-opacity="1"/>
<polyline clip-path="url(#clip652)" style="stroke:#000000; stroke-linecap:round; stroke-linejoin:round; stroke-width:4; stroke-opacity:1; fill:none" points="2269.88,674.916 2269.88,674.916 2303.83,674.916 2269.88,674.916 "/>
<path clip-path="url(#clip652)" d="M2303.83 674.916 L2303.83 674.916 L2337.78 674.916 L2337.78 674.916 L2303.83 674.916 L2303.83 674.916  Z" fill="#009af9" fill-rule="evenodd" fill-opacity="1"/>
<polyline clip-path="url(#clip652)" style="stroke:#000000; stroke-linecap:round; stroke-linejoin:round; stroke-width:4; stroke-opacity:1; fill:none" points="2303.83,674.916 2303.83,674.916 2337.78,674.916 2303.83,674.916 "/>
<path clip-path="url(#clip652)" d="M2337.78 674.916 L2337.78 674.916 L2371.73 674.916 L2371.73 674.916 L2337.78 674.916 L2337.78 674.916  Z" fill="#009af9" fill-rule="evenodd" fill-opacity="1"/>
<polyline clip-path="url(#clip652)" style="stroke:#000000; stroke-linecap:round; stroke-linejoin:round; stroke-width:4; stroke-opacity:1; fill:none" points="2337.78,674.916 2337.78,674.916 2371.73,674.916 2337.78,674.916 "/>
<path clip-path="url(#clip652)" d="M2371.73 674.423 L2371.73 674.916 L2405.68 674.916 L2405.68 674.423 L2371.73 674.423 L2371.73 674.423  Z" fill="#009af9" fill-rule="evenodd" fill-opacity="1"/>
<polyline clip-path="url(#clip652)" style="stroke:#000000; stroke-linecap:round; stroke-linejoin:round; stroke-width:4; stroke-opacity:1; fill:none" points="2371.73,674.423 2371.73,674.916 2405.68,674.916 2405.68,674.423 2371.73,674.423 "/>
<path clip-path="url(#clip652)" d="M2405.68 654.31 L2405.68 674.916 L2439.63 674.916 L2439.63 654.31 L2405.68 654.31 L2405.68 654.31  Z" fill="#009af9" fill-rule="evenodd" fill-opacity="1"/>
<polyline clip-path="url(#clip652)" style="stroke:#000000; stroke-linecap:round; stroke-linejoin:round; stroke-width:4; stroke-opacity:1; fill:none" points="2405.68,654.31 2405.68,674.916 2439.63,674.916 2439.63,654.31 2405.68,654.31 "/>
<path clip-path="url(#clip652)" d="M2439.63 622.23 L2439.63 674.916 L2473.58 674.916 L2473.58 622.23 L2439.63 622.23 L2439.63 622.23  Z" fill="#009af9" fill-rule="evenodd" fill-opacity="1"/>
<polyline clip-path="url(#clip652)" style="stroke:#000000; stroke-linecap:round; stroke-linejoin:round; stroke-width:4; stroke-opacity:1; fill:none" points="2439.63,622.23 2439.63,674.916 2473.58,674.916 2473.58,622.23 2439.63,622.23 "/>
<path clip-path="url(#clip652)" d="M2473.58 596.565 L2473.58 674.916 L2507.53 674.916 L2507.53 596.565 L2473.58 596.565 L2473.58 596.565  Z" fill="#009af9" fill-rule="evenodd" fill-opacity="1"/>
<polyline clip-path="url(#clip652)" style="stroke:#000000; stroke-linecap:round; stroke-linejoin:round; stroke-width:4; stroke-opacity:1; fill:none" points="2473.58,596.565 2473.58,674.916 2507.53,674.916 2507.53,596.565 2473.58,596.565 "/>
<path clip-path="url(#clip652)" d="M2507.53 561.77 L2507.53 674.916 L2541.47 674.916 L2541.47 561.77 L2507.53 561.77 L2507.53 561.77  Z" fill="#009af9" fill-rule="evenodd" fill-opacity="1"/>
<polyline clip-path="url(#clip652)" style="stroke:#000000; stroke-linecap:round; stroke-linejoin:round; stroke-width:4; stroke-opacity:1; fill:none" points="2507.53,561.77 2507.53,674.916 2541.47,674.916 2541.47,561.77 2507.53,561.77 "/>
<path clip-path="url(#clip652)" d="M2541.47 542.028 L2541.47 674.916 L2575.42 674.916 L2575.42 542.028 L2541.47 542.028 L2541.47 542.028  Z" fill="#009af9" fill-rule="evenodd" fill-opacity="1"/>
<polyline clip-path="url(#clip652)" style="stroke:#000000; stroke-linecap:round; stroke-linejoin:round; stroke-width:4; stroke-opacity:1; fill:none" points="2541.47,542.028 2541.47,674.916 2575.42,674.916 2575.42,542.028 2541.47,542.028 "/>
<path clip-path="url(#clip652)" d="M2575.42 505.752 L2575.42 674.916 L2609.37 674.916 L2609.37 505.752 L2575.42 505.752 L2575.42 505.752  Z" fill="#009af9" fill-rule="evenodd" fill-opacity="1"/>
<polyline clip-path="url(#clip652)" style="stroke:#000000; stroke-linecap:round; stroke-linejoin:round; stroke-width:4; stroke-opacity:1; fill:none" points="2575.42,505.752 2575.42,674.916 2609.37,674.916 2609.37,505.752 2575.42,505.752 "/>
<path clip-path="url(#clip652)" d="M2609.37 533.761 L2609.37 674.916 L2643.32 674.916 L2643.32 533.761 L2609.37 533.761 L2609.37 533.761  Z" fill="#009af9" fill-rule="evenodd" fill-opacity="1"/>
<polyline clip-path="url(#clip652)" style="stroke:#000000; stroke-linecap:round; stroke-linejoin:round; stroke-width:4; stroke-opacity:1; fill:none" points="2609.37,533.761 2609.37,674.916 2643.32,674.916 2643.32,533.761 2609.37,533.761 "/>
<path clip-path="url(#clip652)" d="M2643.32 560.042 L2643.32 674.916 L2677.27 674.916 L2677.27 560.042 L2643.32 560.042 L2643.32 560.042  Z" fill="#009af9" fill-rule="evenodd" fill-opacity="1"/>
<polyline clip-path="url(#clip652)" style="stroke:#000000; stroke-linecap:round; stroke-linejoin:round; stroke-width:4; stroke-opacity:1; fill:none" points="2643.32,560.042 2643.32,674.916 2677.27,674.916 2677.27,560.042 2643.32,560.042 "/>
<path clip-path="url(#clip652)" d="M2677.27 591.753 L2677.27 674.916 L2711.22 674.916 L2711.22 591.753 L2677.27 591.753 L2677.27 591.753  Z" fill="#009af9" fill-rule="evenodd" fill-opacity="1"/>
<polyline clip-path="url(#clip652)" style="stroke:#000000; stroke-linecap:round; stroke-linejoin:round; stroke-width:4; stroke-opacity:1; fill:none" points="2677.27,591.753 2677.27,674.916 2711.22,674.916 2711.22,591.753 2677.27,591.753 "/>
<path clip-path="url(#clip652)" d="M2711.22 612.482 L2711.22 674.916 L2745.17 674.916 L2745.17 612.482 L2711.22 612.482 L2711.22 612.482  Z" fill="#009af9" fill-rule="evenodd" fill-opacity="1"/>
<polyline clip-path="url(#clip652)" style="stroke:#000000; stroke-linecap:round; stroke-linejoin:round; stroke-width:4; stroke-opacity:1; fill:none" points="2711.22,612.482 2711.22,674.916 2745.17,674.916 2745.17,612.482 2711.22,612.482 "/>
<path clip-path="url(#clip652)" d="M2745.17 610.878 L2745.17 674.916 L2779.12 674.916 L2779.12 610.878 L2745.17 610.878 L2745.17 610.878  Z" fill="#009af9" fill-rule="evenodd" fill-opacity="1"/>
<polyline clip-path="url(#clip652)" style="stroke:#000000; stroke-linecap:round; stroke-linejoin:round; stroke-width:4; stroke-opacity:1; fill:none" points="2745.17,610.878 2745.17,674.916 2779.12,674.916 2779.12,610.878 2745.17,610.878 "/>
<path clip-path="url(#clip652)" d="M2779.12 591.753 L2779.12 674.916 L2813.07 674.916 L2813.07 591.753 L2779.12 591.753 L2779.12 591.753  Z" fill="#009af9" fill-rule="evenodd" fill-opacity="1"/>
<polyline clip-path="url(#clip652)" style="stroke:#000000; stroke-linecap:round; stroke-linejoin:round; stroke-width:4; stroke-opacity:1; fill:none" points="2779.12,591.753 2779.12,674.916 2813.07,674.916 2813.07,591.753 2779.12,591.753 "/>
<path clip-path="url(#clip652)" d="M2813.07 533.884 L2813.07 674.916 L2847.02 674.916 L2847.02 533.884 L2813.07 533.884 L2813.07 533.884  Z" fill="#009af9" fill-rule="evenodd" fill-opacity="1"/>
<polyline clip-path="url(#clip652)" style="stroke:#000000; stroke-linecap:round; stroke-linejoin:round; stroke-width:4; stroke-opacity:1; fill:none" points="2813.07,533.884 2813.07,674.916 2847.02,674.916 2847.02,533.884 2813.07,533.884 "/>
<path clip-path="url(#clip652)" d="M2847.02 469.97 L2847.02 674.916 L2880.97 674.916 L2880.97 469.97 L2847.02 469.97 L2847.02 469.97  Z" fill="#009af9" fill-rule="evenodd" fill-opacity="1"/>
<polyline clip-path="url(#clip652)" style="stroke:#000000; stroke-linecap:round; stroke-linejoin:round; stroke-width:4; stroke-opacity:1; fill:none" points="2847.02,469.97 2847.02,674.916 2880.97,674.916 2880.97,469.97 2847.02,469.97 "/>
<path clip-path="url(#clip652)" d="M2880.97 428.388 L2880.97 674.916 L2914.92 674.916 L2914.92 428.388 L2880.97 428.388 L2880.97 428.388  Z" fill="#009af9" fill-rule="evenodd" fill-opacity="1"/>
<polyline clip-path="url(#clip652)" style="stroke:#000000; stroke-linecap:round; stroke-linejoin:round; stroke-width:4; stroke-opacity:1; fill:none" points="2880.97,428.388 2880.97,674.916 2914.92,674.916 2914.92,428.388 2880.97,428.388 "/>
<path clip-path="url(#clip652)" d="M2914.92 413.705 L2914.92 674.916 L2948.86 674.916 L2948.86 413.705 L2914.92 413.705 L2914.92 413.705  Z" fill="#009af9" fill-rule="evenodd" fill-opacity="1"/>
<polyline clip-path="url(#clip652)" style="stroke:#000000; stroke-linecap:round; stroke-linejoin:round; stroke-width:4; stroke-opacity:1; fill:none" points="2914.92,413.705 2914.92,674.916 2948.86,674.916 2948.86,413.705 2914.92,413.705 "/>
<path clip-path="url(#clip652)" d="M2948.86 434.804 L2948.86 674.916 L2982.81 674.916 L2982.81 434.804 L2948.86 434.804 L2948.86 434.804  Z" fill="#009af9" fill-rule="evenodd" fill-opacity="1"/>
<polyline clip-path="url(#clip652)" style="stroke:#000000; stroke-linecap:round; stroke-linejoin:round; stroke-width:4; stroke-opacity:1; fill:none" points="2948.86,434.804 2948.86,674.916 2982.81,674.916 2982.81,434.804 2948.86,434.804 "/>
<circle clip-path="url(#clip652)" style="fill:#009af9; stroke:none; fill-opacity:0" cx="249.909" cy="672.202" r="2"/>
<circle clip-path="url(#clip652)" style="fill:#009af9; stroke:none; fill-opacity:0" cx="283.858" cy="659.616" r="2"/>
<circle clip-path="url(#clip652)" style="fill:#009af9; stroke:none; fill-opacity:0" cx="317.807" cy="629.016" r="2"/>
<circle clip-path="url(#clip652)" style="fill:#009af9; stroke:none; fill-opacity:0" cx="351.757" cy="564.484" r="2"/>
<circle clip-path="url(#clip652)" style="fill:#009af9; stroke:none; fill-opacity:0" cx="385.706" cy="452.942" r="2"/>
<circle clip-path="url(#clip652)" style="fill:#009af9; stroke:none; fill-opacity:0" cx="419.655" cy="336.464" r="2"/>
<circle clip-path="url(#clip652)" style="fill:#009af9; stroke:none; fill-opacity:0" cx="453.604" cy="195.679" r="2"/>
<circle clip-path="url(#clip652)" style="fill:#009af9; stroke:none; fill-opacity:0" cx="487.553" cy="112.886" r="2"/>
<circle clip-path="url(#clip652)" style="fill:#009af9; stroke:none; fill-opacity:0" cx="521.502" cy="123.991" r="2"/>
<circle clip-path="url(#clip652)" style="fill:#009af9; stroke:none; fill-opacity:0" cx="555.451" cy="223.935" r="2"/>
<circle clip-path="url(#clip652)" style="fill:#009af9; stroke:none; fill-opacity:0" cx="589.4" cy="351.518" r="2"/>
<circle clip-path="url(#clip652)" style="fill:#009af9; stroke:none; fill-opacity:0" cx="623.35" cy="477.496" r="2"/>
<circle clip-path="url(#clip652)" style="fill:#009af9; stroke:none; fill-opacity:0" cx="657.299" cy="578.18" r="2"/>
<circle clip-path="url(#clip652)" style="fill:#009af9; stroke:none; fill-opacity:0" cx="691.248" cy="636.419" r="2"/>
<circle clip-path="url(#clip652)" style="fill:#009af9; stroke:none; fill-opacity:0" cx="725.197" cy="662.577" r="2"/>
<circle clip-path="url(#clip652)" style="fill:#009af9; stroke:none; fill-opacity:0" cx="759.146" cy="673.189" r="2"/>
<circle clip-path="url(#clip652)" style="fill:#009af9; stroke:none; fill-opacity:0" cx="793.095" cy="674.669" r="2"/>
<circle clip-path="url(#clip652)" style="fill:#009af9; stroke:none; fill-opacity:0" cx="827.044" cy="674.916" r="2"/>
<circle clip-path="url(#clip652)" style="fill:#009af9; stroke:none; fill-opacity:0" cx="860.993" cy="674.916" r="2"/>
<circle clip-path="url(#clip652)" style="fill:#009af9; stroke:none; fill-opacity:0" cx="894.942" cy="674.916" r="2"/>
<circle clip-path="url(#clip652)" style="fill:#009af9; stroke:none; fill-opacity:0" cx="928.892" cy="674.916" r="2"/>
<circle clip-path="url(#clip652)" style="fill:#009af9; stroke:none; fill-opacity:0" cx="962.841" cy="674.916" r="2"/>
<circle clip-path="url(#clip652)" style="fill:#009af9; stroke:none; fill-opacity:0" cx="996.79" cy="674.916" r="2"/>
<circle clip-path="url(#clip652)" style="fill:#009af9; stroke:none; fill-opacity:0" cx="1030.74" cy="674.916" r="2"/>
<circle clip-path="url(#clip652)" style="fill:#009af9; stroke:none; fill-opacity:0" cx="1064.69" cy="674.916" r="2"/>
<circle clip-path="url(#clip652)" style="fill:#009af9; stroke:none; fill-opacity:0" cx="1098.64" cy="674.916" r="2"/>
<circle clip-path="url(#clip652)" style="fill:#009af9; stroke:none; fill-opacity:0" cx="1132.59" cy="674.916" r="2"/>
<circle clip-path="url(#clip652)" style="fill:#009af9; stroke:none; fill-opacity:0" cx="1166.54" cy="674.916" r="2"/>
<circle clip-path="url(#clip652)" style="fill:#009af9; stroke:none; fill-opacity:0" cx="1200.48" cy="674.916" r="2"/>
<circle clip-path="url(#clip652)" style="fill:#009af9; stroke:none; fill-opacity:0" cx="1234.43" cy="674.916" r="2"/>
<circle clip-path="url(#clip652)" style="fill:#009af9; stroke:none; fill-opacity:0" cx="1268.38" cy="673.312" r="2"/>
<circle clip-path="url(#clip652)" style="fill:#009af9; stroke:none; fill-opacity:0" cx="1302.33" cy="658.506" r="2"/>
<circle clip-path="url(#clip652)" style="fill:#009af9; stroke:none; fill-opacity:0" cx="1336.28" cy="610.014" r="2"/>
<circle clip-path="url(#clip652)" style="fill:#009af9; stroke:none; fill-opacity:0" cx="1370.23" cy="526.851" r="2"/>
<circle clip-path="url(#clip652)" style="fill:#009af9; stroke:none; fill-opacity:0" cx="1404.18" cy="401.489" r="2"/>
<circle clip-path="url(#clip652)" style="fill:#009af9; stroke:none; fill-opacity:0" cx="1438.13" cy="247.749" r="2"/>
<circle clip-path="url(#clip652)" style="fill:#009af9; stroke:none; fill-opacity:0" cx="1472.08" cy="116.711" r="2"/>
<circle clip-path="url(#clip652)" style="fill:#009af9; stroke:none; fill-opacity:0" cx="1506.03" cy="47.2441" r="2"/>
<circle clip-path="url(#clip652)" style="fill:#009af9; stroke:none; fill-opacity:0" cx="1539.98" cy="72.2917" r="2"/>
<circle clip-path="url(#clip652)" style="fill:#009af9; stroke:none; fill-opacity:0" cx="1573.92" cy="174.457" r="2"/>
<circle clip-path="url(#clip652)" style="fill:#009af9; stroke:none; fill-opacity:0" cx="1607.87" cy="339.179" r="2"/>
<circle clip-path="url(#clip652)" style="fill:#009af9; stroke:none; fill-opacity:0" cx="1641.82" cy="476.756" r="2"/>
<circle clip-path="url(#clip652)" style="fill:#009af9; stroke:none; fill-opacity:0" cx="1675.77" cy="573.738" r="2"/>
<circle clip-path="url(#clip652)" style="fill:#009af9; stroke:none; fill-opacity:0" cx="1709.72" cy="645.92" r="2"/>
<circle clip-path="url(#clip652)" style="fill:#009af9; stroke:none; fill-opacity:0" cx="1743.67" cy="663.071" r="2"/>
<circle clip-path="url(#clip652)" style="fill:#009af9; stroke:none; fill-opacity:0" cx="1777.62" cy="641.972" r="2"/>
<circle clip-path="url(#clip652)" style="fill:#009af9; stroke:none; fill-opacity:0" cx="1811.57" cy="587.434" r="2"/>
<circle clip-path="url(#clip652)" style="fill:#009af9; stroke:none; fill-opacity:0" cx="1845.52" cy="488.478" r="2"/>
<circle clip-path="url(#clip652)" style="fill:#009af9; stroke:none; fill-opacity:0" cx="1879.47" cy="389.768" r="2"/>
<circle clip-path="url(#clip652)" style="fill:#009af9; stroke:none; fill-opacity:0" cx="1913.42" cy="287.109" r="2"/>
<circle clip-path="url(#clip652)" style="fill:#009af9; stroke:none; fill-opacity:0" cx="1947.37" cy="238.001" r="2"/>
<circle clip-path="url(#clip652)" style="fill:#009af9; stroke:none; fill-opacity:0" cx="1981.31" cy="246.145" r="2"/>
<circle clip-path="url(#clip652)" style="fill:#009af9; stroke:none; fill-opacity:0" cx="2015.26" cy="313.884" r="2"/>
<circle clip-path="url(#clip652)" style="fill:#009af9; stroke:none; fill-opacity:0" cx="2049.21" cy="401.489" r="2"/>
<circle clip-path="url(#clip652)" style="fill:#009af9; stroke:none; fill-opacity:0" cx="2083.16" cy="498.102" r="2"/>
<circle clip-path="url(#clip652)" style="fill:#009af9; stroke:none; fill-opacity:0" cx="2117.11" cy="583.116" r="2"/>
<circle clip-path="url(#clip652)" style="fill:#009af9; stroke:none; fill-opacity:0" cx="2151.06" cy="645.55" r="2"/>
<circle clip-path="url(#clip652)" style="fill:#009af9; stroke:none; fill-opacity:0" cx="2185.01" cy="669.117" r="2"/>
<circle clip-path="url(#clip652)" style="fill:#009af9; stroke:none; fill-opacity:0" cx="2218.96" cy="674.669" r="2"/>
<circle clip-path="url(#clip652)" style="fill:#009af9; stroke:none; fill-opacity:0" cx="2252.91" cy="674.916" r="2"/>
<circle clip-path="url(#clip652)" style="fill:#009af9; stroke:none; fill-opacity:0" cx="2286.86" cy="674.916" r="2"/>
<circle clip-path="url(#clip652)" style="fill:#009af9; stroke:none; fill-opacity:0" cx="2320.81" cy="674.916" r="2"/>
<circle clip-path="url(#clip652)" style="fill:#009af9; stroke:none; fill-opacity:0" cx="2354.75" cy="674.916" r="2"/>
<circle clip-path="url(#clip652)" style="fill:#009af9; stroke:none; fill-opacity:0" cx="2388.7" cy="674.423" r="2"/>
<circle clip-path="url(#clip652)" style="fill:#009af9; stroke:none; fill-opacity:0" cx="2422.65" cy="654.31" r="2"/>
<circle clip-path="url(#clip652)" style="fill:#009af9; stroke:none; fill-opacity:0" cx="2456.6" cy="622.23" r="2"/>
<circle clip-path="url(#clip652)" style="fill:#009af9; stroke:none; fill-opacity:0" cx="2490.55" cy="596.565" r="2"/>
<circle clip-path="url(#clip652)" style="fill:#009af9; stroke:none; fill-opacity:0" cx="2524.5" cy="561.77" r="2"/>
<circle clip-path="url(#clip652)" style="fill:#009af9; stroke:none; fill-opacity:0" cx="2558.45" cy="542.028" r="2"/>
<circle clip-path="url(#clip652)" style="fill:#009af9; stroke:none; fill-opacity:0" cx="2592.4" cy="505.752" r="2"/>
<circle clip-path="url(#clip652)" style="fill:#009af9; stroke:none; fill-opacity:0" cx="2626.35" cy="533.761" r="2"/>
<circle clip-path="url(#clip652)" style="fill:#009af9; stroke:none; fill-opacity:0" cx="2660.3" cy="560.042" r="2"/>
<circle clip-path="url(#clip652)" style="fill:#009af9; stroke:none; fill-opacity:0" cx="2694.25" cy="591.753" r="2"/>
<circle clip-path="url(#clip652)" style="fill:#009af9; stroke:none; fill-opacity:0" cx="2728.19" cy="612.482" r="2"/>
<circle clip-path="url(#clip652)" style="fill:#009af9; stroke:none; fill-opacity:0" cx="2762.14" cy="610.878" r="2"/>
<circle clip-path="url(#clip652)" style="fill:#009af9; stroke:none; fill-opacity:0" cx="2796.09" cy="591.753" r="2"/>
<circle clip-path="url(#clip652)" style="fill:#009af9; stroke:none; fill-opacity:0" cx="2830.04" cy="533.884" r="2"/>
<circle clip-path="url(#clip652)" style="fill:#009af9; stroke:none; fill-opacity:0" cx="2863.99" cy="469.97" r="2"/>
<circle clip-path="url(#clip652)" style="fill:#009af9; stroke:none; fill-opacity:0" cx="2897.94" cy="428.388" r="2"/>
<circle clip-path="url(#clip652)" style="fill:#009af9; stroke:none; fill-opacity:0" cx="2931.89" cy="413.705" r="2"/>
<circle clip-path="url(#clip652)" style="fill:#009af9; stroke:none; fill-opacity:0" cx="2965.84" cy="434.804" r="2"/>
<polyline clip-path="url(#clip652)" style="stroke:#e26f46; stroke-linecap:round; stroke-linejoin:round; stroke-width:12; stroke-opacity:1; fill:none" points="505.383,1302.59 505.383,-580.428 "/>
<polyline clip-path="url(#clip652)" style="stroke:#e26f46; stroke-linecap:round; stroke-linejoin:round; stroke-width:12; stroke-opacity:1; fill:none" points="1515.94,1302.59 1515.94,-580.428 "/>
<polyline clip-path="url(#clip652)" style="stroke:#e26f46; stroke-linecap:round; stroke-linejoin:round; stroke-width:12; stroke-opacity:1; fill:none" points="1966.15,1302.59 1966.15,-580.428 "/>
<polyline clip-path="url(#clip652)" style="stroke:#e26f46; stroke-linecap:round; stroke-linejoin:round; stroke-width:12; stroke-opacity:1; fill:none" points="2580.79,1302.59 2580.79,-580.428 "/>
<polyline clip-path="url(#clip652)" style="stroke:#e26f46; stroke-linecap:round; stroke-linejoin:round; stroke-width:12; stroke-opacity:1; fill:none" points="2900.08,1302.59 2900.08,-580.428 "/>
<path clip-path="url(#clip650)" d="M2545.42 223.686 L3049.76 223.686 L3049.76 68.1665 L2545.42 68.1665  Z" fill="#ffffff" fill-rule="evenodd" fill-opacity="1"/>
<polyline clip-path="url(#clip650)" style="stroke:#000000; stroke-linecap:round; stroke-linejoin:round; stroke-width:4; stroke-opacity:1; fill:none" points="2545.42,223.686 3049.76,223.686 3049.76,68.1665 2545.42,68.1665 2545.42,223.686 "/>
<path clip-path="url(#clip650)" d="M2579.75 140.742 L2785.73 140.742 L2785.73 99.2705 L2579.75 99.2705 L2579.75 140.742  Z" fill="#009af9" fill-rule="evenodd" fill-opacity="1"/>
<polyline clip-path="url(#clip650)" style="stroke:#000000; stroke-linecap:round; stroke-linejoin:round; stroke-width:4; stroke-opacity:1; fill:none" points="2579.75,140.742 2785.73,140.742 2785.73,99.2705 2579.75,99.2705 2579.75,140.742 "/>
<path clip-path="url(#clip650)" d="M2835.25 115.342 Q2834.53 114.926 2833.67 114.74 Q2832.84 114.532 2831.82 114.532 Q2828.21 114.532 2826.27 116.893 Q2824.35 119.231 2824.35 123.629 L2824.35 137.286 L2820.06 137.286 L2820.06 111.361 L2824.35 111.361 L2824.35 115.388 Q2825.69 113.027 2827.84 111.893 Q2829.99 110.736 2833.07 110.736 Q2833.51 110.736 2834.05 110.805 Q2834.58 110.851 2835.23 110.967 L2835.25 115.342 Z" fill="#000000" fill-rule="nonzero" fill-opacity="1" /><path clip-path="url(#clip650)" d="M2855.94 115.296 L2855.94 101.268 L2860.2 101.268 L2860.2 137.286 L2855.94 137.286 L2855.94 133.398 Q2854.6 135.712 2852.54 136.847 Q2850.5 137.958 2847.63 137.958 Q2842.93 137.958 2839.97 134.208 Q2837.03 130.458 2837.03 124.347 Q2837.03 118.236 2839.97 114.486 Q2842.93 110.736 2847.63 110.736 Q2850.5 110.736 2852.54 111.87 Q2854.6 112.981 2855.94 115.296 M2841.43 124.347 Q2841.43 129.046 2843.35 131.731 Q2845.3 134.393 2848.67 134.393 Q2852.05 134.393 2854 131.731 Q2855.94 129.046 2855.94 124.347 Q2855.94 119.648 2854 116.986 Q2852.05 114.301 2848.67 114.301 Q2845.3 114.301 2843.35 116.986 Q2841.43 119.648 2841.43 124.347 Z" fill="#000000" fill-rule="nonzero" fill-opacity="1" /><path clip-path="url(#clip650)" d="M2882.1 101.268 L2882.1 104.81 L2878.03 104.81 Q2875.73 104.81 2874.83 105.736 Q2873.95 106.662 2873.95 109.069 L2873.95 111.361 L2880.97 111.361 L2880.97 114.671 L2873.95 114.671 L2873.95 137.286 L2869.67 137.286 L2869.67 114.671 L2865.6 114.671 L2865.6 111.361 L2869.67 111.361 L2869.67 109.555 Q2869.67 105.226 2871.68 103.259 Q2873.7 101.268 2878.07 101.268 L2882.1 101.268 Z" fill="#000000" fill-rule="nonzero" fill-opacity="1" /><polyline clip-path="url(#clip650)" style="stroke:#e26f46; stroke-linecap:round; stroke-linejoin:round; stroke-width:12; stroke-opacity:1; fill:none" points="2579.75,171.846 2785.73,171.846 "/>
<path clip-path="url(#clip650)" d="M2835.25 167.182 Q2834.53 166.766 2833.67 166.58 Q2832.84 166.372 2831.82 166.372 Q2828.21 166.372 2826.27 168.733 Q2824.35 171.071 2824.35 175.469 L2824.35 189.126 L2820.06 189.126 L2820.06 163.201 L2824.35 163.201 L2824.35 167.228 Q2825.69 164.867 2827.84 163.733 Q2829.99 162.576 2833.07 162.576 Q2833.51 162.576 2834.05 162.645 Q2834.58 162.691 2835.23 162.807 L2835.25 167.182 Z" fill="#000000" fill-rule="nonzero" fill-opacity="1" /><path clip-path="url(#clip650)" d="M2841.13 185.191 L2848.77 185.191 L2848.77 158.826 L2840.46 160.492 L2840.46 156.233 L2848.72 154.566 L2853.4 154.566 L2853.4 185.191 L2861.04 185.191 L2861.04 189.126 L2841.13 189.126 L2841.13 185.191 Z" fill="#000000" fill-rule="nonzero" fill-opacity="1" /><path clip-path="url(#clip650)" d="M2870.97 183.247 L2875.85 183.247 L2875.85 187.228 L2872.05 194.636 L2869.07 194.636 L2870.97 187.228 L2870.97 183.247 Z" fill="#000000" fill-rule="nonzero" fill-opacity="1" /><path clip-path="url(#clip650)" d="M2915.04 167.182 Q2914.32 166.766 2913.47 166.58 Q2912.63 166.372 2911.61 166.372 Q2908 166.372 2906.06 168.733 Q2904.14 171.071 2904.14 175.469 L2904.14 189.126 L2899.85 189.126 L2899.85 163.201 L2904.14 163.201 L2904.14 167.228 Q2905.48 164.867 2907.63 163.733 Q2909.79 162.576 2912.86 162.576 Q2913.3 162.576 2913.84 162.645 Q2914.37 162.691 2915.02 162.807 L2915.04 167.182 Z" fill="#000000" fill-rule="nonzero" fill-opacity="1" /><path clip-path="url(#clip650)" d="M2924.14 185.191 L2940.46 185.191 L2940.46 189.126 L2918.51 189.126 L2918.51 185.191 Q2921.17 182.437 2925.76 177.807 Q2930.36 173.154 2931.54 171.812 Q2933.79 169.289 2934.67 167.553 Q2935.57 165.793 2935.57 164.103 Q2935.57 161.349 2933.63 159.613 Q2931.71 157.877 2928.6 157.877 Q2926.41 157.877 2923.95 158.641 Q2921.52 159.404 2918.74 160.955 L2918.74 156.233 Q2921.57 155.099 2924.02 154.52 Q2926.48 153.941 2928.51 153.941 Q2933.88 153.941 2937.08 156.627 Q2940.27 159.312 2940.27 163.803 Q2940.27 165.932 2939.46 167.853 Q2938.67 169.752 2936.57 172.344 Q2935.99 173.015 2932.89 176.233 Q2929.79 179.427 2924.14 185.191 Z" fill="#000000" fill-rule="nonzero" fill-opacity="1" /><path clip-path="url(#clip650)" d="M2950.76 183.247 L2955.64 183.247 L2955.64 187.228 L2951.85 194.636 L2948.86 194.636 L2950.76 187.228 L2950.76 183.247 Z" fill="#000000" fill-rule="nonzero" fill-opacity="1" /><path clip-path="url(#clip650)" d="M2980.41 183.247 L2985.29 183.247 L2985.29 189.126 L2980.41 189.126 L2980.41 183.247 Z" fill="#000000" fill-rule="nonzero" fill-opacity="1" /><path clip-path="url(#clip650)" d="M2995.48 183.247 L3000.36 183.247 L3000.36 189.126 L2995.48 189.126 L2995.48 183.247 Z" fill="#000000" fill-rule="nonzero" fill-opacity="1" /><path clip-path="url(#clip650)" d="M3010.55 183.247 L3015.43 183.247 L3015.43 189.126 L3010.55 189.126 L3010.55 183.247 Z" fill="#000000" fill-rule="nonzero" fill-opacity="1" /><path clip-path="url(#clip650)" d="M62.9921 1481.87 L3152.76 1481.87 L3152.76 854.202 L62.9921 854.202  Z" fill="#ffffff" fill-rule="evenodd" fill-opacity="1"/>
<defs>
  <clipPath id="clip653">
    <rect x="62" y="854" width="3091" height="629"/>
  </clipPath>
</defs>
<polyline clip-path="url(#clip653)" style="stroke:#000000; stroke-linecap:round; stroke-linejoin:round; stroke-width:2; stroke-opacity:0.1; fill:none" points="62.9921,1481.87 62.9921,854.202 "/>
<polyline clip-path="url(#clip653)" style="stroke:#000000; stroke-linecap:round; stroke-linejoin:round; stroke-width:2; stroke-opacity:0.1; fill:none" points="1046.49,1481.87 1046.49,854.202 "/>
<polyline clip-path="url(#clip653)" style="stroke:#000000; stroke-linecap:round; stroke-linejoin:round; stroke-width:2; stroke-opacity:0.1; fill:none" points="2030,1481.87 2030,854.202 "/>
<polyline clip-path="url(#clip653)" style="stroke:#000000; stroke-linecap:round; stroke-linejoin:round; stroke-width:2; stroke-opacity:0.1; fill:none" points="3013.5,1481.87 3013.5,854.202 "/>
<polyline clip-path="url(#clip650)" style="stroke:#000000; stroke-linecap:round; stroke-linejoin:round; stroke-width:4; stroke-opacity:1; fill:none" points="62.9921,1481.87 3152.76,1481.87 "/>
<polyline clip-path="url(#clip650)" style="stroke:#000000; stroke-linecap:round; stroke-linejoin:round; stroke-width:4; stroke-opacity:1; fill:none" points="62.9921,1481.87 62.9921,1462.98 "/>
<polyline clip-path="url(#clip650)" style="stroke:#000000; stroke-linecap:round; stroke-linejoin:round; stroke-width:4; stroke-opacity:1; fill:none" points="1046.49,1481.87 1046.49,1462.98 "/>
<polyline clip-path="url(#clip650)" style="stroke:#000000; stroke-linecap:round; stroke-linejoin:round; stroke-width:4; stroke-opacity:1; fill:none" points="2030,1481.87 2030,1462.98 "/>
<polyline clip-path="url(#clip650)" style="stroke:#000000; stroke-linecap:round; stroke-linejoin:round; stroke-width:4; stroke-opacity:1; fill:none" points="3013.5,1481.87 3013.5,1462.98 "/>
<path clip-path="url(#clip650)" d="M62.9921 1519.19 Q59.381 1519.19 57.5523 1522.76 Q55.7468 1526.3 55.7468 1533.43 Q55.7468 1540.54 57.5523 1544.1 Q59.381 1547.64 62.9921 1547.64 Q66.6264 1547.64 68.4319 1544.1 Q70.2606 1540.54 70.2606 1533.43 Q70.2606 1526.3 68.4319 1522.76 Q66.6264 1519.19 62.9921 1519.19 M62.9921 1515.49 Q68.8023 1515.49 71.8578 1520.1 Q74.9365 1524.68 74.9365 1533.43 Q74.9365 1542.16 71.8578 1546.76 Q68.8023 1551.35 62.9921 1551.35 Q57.182 1551.35 54.1033 1546.76 Q51.0477 1542.16 51.0477 1533.43 Q51.0477 1524.68 54.1033 1520.1 Q57.182 1515.49 62.9921 1515.49 Z" fill="#000000" fill-rule="nonzero" fill-opacity="1" /><path clip-path="url(#clip650)" d="M1036.88 1546.74 L1044.52 1546.74 L1044.52 1520.37 L1036.21 1522.04 L1036.21 1517.78 L1044.47 1516.11 L1049.14 1516.11 L1049.14 1546.74 L1056.78 1546.74 L1056.78 1550.67 L1036.88 1550.67 L1036.88 1546.74 Z" fill="#000000" fill-rule="nonzero" fill-opacity="1" /><path clip-path="url(#clip650)" d="M2024.65 1546.74 L2040.97 1546.74 L2040.97 1550.67 L2019.02 1550.67 L2019.02 1546.74 Q2021.69 1543.98 2026.27 1539.36 Q2030.88 1534.7 2032.06 1533.36 Q2034.3 1530.84 2035.18 1529.1 Q2036.08 1527.34 2036.08 1525.65 Q2036.08 1522.9 2034.14 1521.16 Q2032.22 1519.42 2029.12 1519.42 Q2026.92 1519.42 2024.46 1520.19 Q2022.03 1520.95 2019.26 1522.5 L2019.26 1517.78 Q2022.08 1516.65 2024.53 1516.07 Q2026.99 1515.49 2029.02 1515.49 Q2034.39 1515.49 2037.59 1518.17 Q2040.78 1520.86 2040.78 1525.35 Q2040.78 1527.48 2039.97 1529.4 Q2039.19 1531.3 2037.08 1533.89 Q2036.5 1534.56 2033.4 1537.78 Q2030.3 1540.98 2024.65 1546.74 Z" fill="#000000" fill-rule="nonzero" fill-opacity="1" /><path clip-path="url(#clip650)" d="M3017.75 1532.04 Q3021.1 1532.76 3022.98 1535.03 Q3024.88 1537.29 3024.88 1540.63 Q3024.88 1545.74 3021.36 1548.54 Q3017.84 1551.35 3011.36 1551.35 Q3009.18 1551.35 3006.87 1550.91 Q3004.58 1550.49 3002.12 1549.63 L3002.12 1545.12 Q3004.07 1546.25 3006.38 1546.83 Q3008.7 1547.41 3011.22 1547.41 Q3015.62 1547.41 3017.91 1545.67 Q3020.22 1543.94 3020.22 1540.63 Q3020.22 1537.57 3018.07 1535.86 Q3015.94 1534.12 3012.12 1534.12 L3008.09 1534.12 L3008.09 1530.28 L3012.31 1530.28 Q3015.76 1530.28 3017.58 1528.92 Q3019.41 1527.53 3019.41 1524.93 Q3019.41 1522.27 3017.52 1520.86 Q3015.64 1519.42 3012.12 1519.42 Q3010.2 1519.42 3008 1519.84 Q3005.8 1520.26 3003.16 1521.14 L3003.16 1516.97 Q3005.83 1516.23 3008.14 1515.86 Q3010.48 1515.49 3012.54 1515.49 Q3017.86 1515.49 3020.96 1517.92 Q3024.07 1520.33 3024.07 1524.45 Q3024.07 1527.32 3022.42 1529.31 Q3020.78 1531.28 3017.75 1532.04 Z" fill="#000000" fill-rule="nonzero" fill-opacity="1" /><path clip-path="url(#clip650)" d="M1619.81 1599.9 Q1619.81 1605.31 1618.07 1611.4 Q1616.37 1617.46 1613.66 1622.35 Q1610.96 1627.21 1607.41 1630.44 Q1603.87 1633.62 1600.49 1633.62 Q1598.33 1633.62 1596.72 1632.43 Q1595.14 1631.21 1594.27 1629.18 Q1593.4 1627.12 1592.99 1624.86 Q1592.57 1622.58 1592.57 1620.1 Q1592.57 1616.39 1593.37 1612.37 Q1594.18 1608.31 1595.53 1604.64 Q1596.88 1600.93 1598.78 1597.59 Q1600.68 1594.2 1602.78 1591.76 Q1604.9 1589.28 1607.28 1587.83 Q1609.67 1586.38 1611.89 1586.38 Q1613.5 1586.38 1614.79 1587.09 Q1616.11 1587.76 1616.95 1588.95 Q1617.78 1590.11 1618.36 1591.5 Q1618.98 1592.88 1619.27 1594.49 Q1619.55 1596.07 1619.68 1597.39 Q1619.81 1598.68 1619.81 1599.9 M1615.46 1595.81 Q1615.46 1594.17 1615.34 1592.95 Q1615.21 1591.69 1614.85 1590.44 Q1614.5 1589.18 1613.73 1588.5 Q1612.98 1587.83 1611.83 1587.83 Q1608.44 1587.83 1604.64 1594.75 Q1603.42 1596.91 1602.32 1599.84 Q1601.23 1602.77 1600.84 1604.16 Q1600.46 1605.54 1599.56 1608.95 L1613.34 1608.95 Q1615.46 1600.16 1615.46 1595.81 M1612.76 1611.05 L1599.04 1611.05 Q1596.91 1619.1 1596.91 1624.12 Q1596.91 1628.5 1597.82 1630.34 Q1598.75 1632.14 1600.49 1632.14 Q1602.49 1632.14 1604.35 1630.15 Q1606.22 1628.12 1608.12 1624.44 Q1610.63 1619.68 1612.76 1611.05 Z" fill="#000000" fill-rule="nonzero" fill-opacity="1" /><polyline clip-path="url(#clip650)" style="stroke:#000000; stroke-linecap:round; stroke-linejoin:round; stroke-width:4; stroke-opacity:1; fill:none" points="62.9921,1481.87 62.9921,854.202 "/>
<path clip-path="url(#clip650)" d="M-88.45 1210.26 L-64.8014 1218.98 L-64.8014 1201.51 L-88.45 1210.26 M-94.7839 1213.89 L-94.7839 1206.6 L-47.2639 1188.49 L-47.2639 1195.17 L-59.4542 1199.5 L-59.4542 1220.92 L-47.2639 1225.25 L-47.2639 1232.03 L-94.7839 1213.89 Z" fill="#000000" fill-rule="nonzero" fill-opacity="1" /><path clip-path="url(#clip650)" d="M-89.5003 1175.12 L-52.5474 1175.12 L-52.5474 1167.35 Q-52.5474 1157.52 -57.0034 1152.97 Q-61.4594 1148.38 -71.0716 1148.38 Q-80.6202 1148.38 -85.0443 1152.97 Q-89.5003 1157.52 -89.5003 1167.35 L-89.5003 1175.12 M-94.7839 1181.55 L-94.7839 1168.34 Q-94.7839 1154.53 -89.0229 1148.07 Q-83.2938 1141.6 -71.0716 1141.6 Q-58.7858 1141.6 -53.0248 1148.1 Q-47.2639 1154.59 -47.2639 1168.34 L-47.2639 1181.55 L-94.7839 1181.55 Z" fill="#000000" fill-rule="nonzero" fill-opacity="1" /><path clip-path="url(#clip650)" d="M-94.7839 1131.36 L-94.7839 1104.05 L-89.373 1104.05 L-89.373 1124.93 L-75.3685 1124.93 L-75.3685 1106.08 L-69.9576 1106.08 L-69.9576 1124.93 L-47.2639 1124.93 L-47.2639 1131.36 L-94.7839 1131.36 Z" fill="#000000" fill-rule="nonzero" fill-opacity="1" /><path clip-path="url(#clip653)" d="M1695.61 1481.62 L1695.61 1481.87 L1715.28 1481.87 L1715.28 1481.62 L1695.61 1481.62 L1695.61 1481.62  Z" fill="#3da44d" fill-rule="evenodd" fill-opacity="1"/>
<polyline clip-path="url(#clip653)" style="stroke:#000000; stroke-linecap:round; stroke-linejoin:round; stroke-width:4; stroke-opacity:1; fill:none" points="1695.61,1481.62 1695.61,1481.87 1715.28,1481.87 1715.28,1481.62 1695.61,1481.62 "/>
<path clip-path="url(#clip653)" d="M1715.28 1478.6 L1715.28 1481.87 L1734.95 1481.87 L1734.95 1478.6 L1715.28 1478.6 L1715.28 1478.6  Z" fill="#3da44d" fill-rule="evenodd" fill-opacity="1"/>
<polyline clip-path="url(#clip653)" style="stroke:#000000; stroke-linecap:round; stroke-linejoin:round; stroke-width:4; stroke-opacity:1; fill:none" points="1715.28,1478.6 1715.28,1481.87 1734.95,1481.87 1734.95,1478.6 1715.28,1478.6 "/>
<path clip-path="url(#clip653)" d="M1734.95 1469.77 L1734.95 1481.87 L1754.62 1481.87 L1754.62 1469.77 L1734.95 1469.77 L1734.95 1469.77  Z" fill="#3da44d" fill-rule="evenodd" fill-opacity="1"/>
<polyline clip-path="url(#clip653)" style="stroke:#000000; stroke-linecap:round; stroke-linejoin:round; stroke-width:4; stroke-opacity:1; fill:none" points="1734.95,1469.77 1734.95,1481.87 1754.62,1481.87 1754.62,1469.77 1734.95,1469.77 "/>
<path clip-path="url(#clip653)" d="M1754.62 1446.33 L1754.62 1481.87 L1774.29 1481.87 L1774.29 1446.33 L1754.62 1446.33 L1754.62 1446.33  Z" fill="#3da44d" fill-rule="evenodd" fill-opacity="1"/>
<polyline clip-path="url(#clip653)" style="stroke:#000000; stroke-linecap:round; stroke-linejoin:round; stroke-width:4; stroke-opacity:1; fill:none" points="1754.62,1446.33 1754.62,1481.87 1774.29,1481.87 1774.29,1446.33 1754.62,1446.33 "/>
<path clip-path="url(#clip653)" d="M1774.29 1406.25 L1774.29 1481.87 L1793.96 1481.87 L1793.96 1406.25 L1774.29 1406.25 L1774.29 1406.25  Z" fill="#3da44d" fill-rule="evenodd" fill-opacity="1"/>
<polyline clip-path="url(#clip653)" style="stroke:#000000; stroke-linecap:round; stroke-linejoin:round; stroke-width:4; stroke-opacity:1; fill:none" points="1774.29,1406.25 1774.29,1481.87 1793.96,1481.87 1793.96,1406.25 1774.29,1406.25 "/>
<path clip-path="url(#clip653)" d="M1793.96 1328.36 L1793.96 1481.87 L1813.63 1481.87 L1813.63 1328.36 L1793.96 1328.36 L1793.96 1328.36  Z" fill="#3da44d" fill-rule="evenodd" fill-opacity="1"/>
<polyline clip-path="url(#clip653)" style="stroke:#000000; stroke-linecap:round; stroke-linejoin:round; stroke-width:4; stroke-opacity:1; fill:none" points="1793.96,1328.36 1793.96,1481.87 1813.63,1481.87 1813.63,1328.36 1793.96,1328.36 "/>
<path clip-path="url(#clip653)" d="M1813.63 1240.64 L1813.63 1481.87 L1833.3 1481.87 L1833.3 1240.64 L1813.63 1240.64 L1813.63 1240.64  Z" fill="#3da44d" fill-rule="evenodd" fill-opacity="1"/>
<polyline clip-path="url(#clip653)" style="stroke:#000000; stroke-linecap:round; stroke-linejoin:round; stroke-width:4; stroke-opacity:1; fill:none" points="1813.63,1240.64 1813.63,1481.87 1833.3,1481.87 1833.3,1240.64 1813.63,1240.64 "/>
<path clip-path="url(#clip653)" d="M1833.3 1153.67 L1833.3 1481.87 L1852.97 1481.87 L1852.97 1153.67 L1833.3 1153.67 L1833.3 1153.67  Z" fill="#3da44d" fill-rule="evenodd" fill-opacity="1"/>
<polyline clip-path="url(#clip653)" style="stroke:#000000; stroke-linecap:round; stroke-linejoin:round; stroke-width:4; stroke-opacity:1; fill:none" points="1833.3,1153.67 1833.3,1481.87 1852.97,1481.87 1852.97,1153.67 1833.3,1153.67 "/>
<path clip-path="url(#clip653)" d="M1852.97 1033.18 L1852.97 1481.87 L1872.64 1481.87 L1872.64 1033.18 L1852.97 1033.18 L1852.97 1033.18  Z" fill="#3da44d" fill-rule="evenodd" fill-opacity="1"/>
<polyline clip-path="url(#clip653)" style="stroke:#000000; stroke-linecap:round; stroke-linejoin:round; stroke-width:4; stroke-opacity:1; fill:none" points="1852.97,1033.18 1852.97,1481.87 1872.64,1481.87 1872.64,1033.18 1852.97,1033.18 "/>
<path clip-path="url(#clip653)" d="M1872.64 961.083 L1872.64 1481.87 L1892.31 1481.87 L1892.31 961.083 L1872.64 961.083 L1872.64 961.083  Z" fill="#3da44d" fill-rule="evenodd" fill-opacity="1"/>
<polyline clip-path="url(#clip653)" style="stroke:#000000; stroke-linecap:round; stroke-linejoin:round; stroke-width:4; stroke-opacity:1; fill:none" points="1872.64,961.083 1872.64,1481.87 1892.31,1481.87 1892.31,961.083 1872.64,961.083 "/>
<path clip-path="url(#clip653)" d="M1892.31 885.208 L1892.31 1481.87 L1911.98 1481.87 L1911.98 885.208 L1892.31 885.208 L1892.31 885.208  Z" fill="#3da44d" fill-rule="evenodd" fill-opacity="1"/>
<polyline clip-path="url(#clip653)" style="stroke:#000000; stroke-linecap:round; stroke-linejoin:round; stroke-width:4; stroke-opacity:1; fill:none" points="1892.31,885.208 1892.31,1481.87 1911.98,1481.87 1911.98,885.208 1892.31,885.208 "/>
<path clip-path="url(#clip653)" d="M1911.98 868.319 L1911.98 1481.87 L1931.65 1481.87 L1931.65 868.319 L1911.98 868.319 L1911.98 868.319  Z" fill="#3da44d" fill-rule="evenodd" fill-opacity="1"/>
<polyline clip-path="url(#clip653)" style="stroke:#000000; stroke-linecap:round; stroke-linejoin:round; stroke-width:4; stroke-opacity:1; fill:none" points="1911.98,868.319 1911.98,1481.87 1931.65,1481.87 1931.65,868.319 1911.98,868.319 "/>
<path clip-path="url(#clip653)" d="M1931.65 854.202 L1931.65 1481.87 L1951.32 1481.87 L1951.32 854.202 L1931.65 854.202 L1931.65 854.202  Z" fill="#3da44d" fill-rule="evenodd" fill-opacity="1"/>
<polyline clip-path="url(#clip653)" style="stroke:#000000; stroke-linecap:round; stroke-linejoin:round; stroke-width:4; stroke-opacity:1; fill:none" points="1931.65,854.202 1931.65,1481.87 1951.32,1481.87 1951.32,854.202 1931.65,854.202 "/>
<path clip-path="url(#clip653)" d="M1951.32 870.84 L1951.32 1481.87 L1970.99 1481.87 L1970.99 870.84 L1951.32 870.84 L1951.32 870.84  Z" fill="#3da44d" fill-rule="evenodd" fill-opacity="1"/>
<polyline clip-path="url(#clip653)" style="stroke:#000000; stroke-linecap:round; stroke-linejoin:round; stroke-width:4; stroke-opacity:1; fill:none" points="1951.32,870.84 1951.32,1481.87 1970.99,1481.87 1970.99,870.84 1951.32,870.84 "/>
<path clip-path="url(#clip653)" d="M1970.99 929.321 L1970.99 1481.87 L1990.66 1481.87 L1990.66 929.321 L1970.99 929.321 L1970.99 929.321  Z" fill="#3da44d" fill-rule="evenodd" fill-opacity="1"/>
<polyline clip-path="url(#clip653)" style="stroke:#000000; stroke-linecap:round; stroke-linejoin:round; stroke-width:4; stroke-opacity:1; fill:none" points="1970.99,929.321 1970.99,1481.87 1990.66,1481.87 1990.66,929.321 1970.99,929.321 "/>
<path clip-path="url(#clip653)" d="M1990.66 986.291 L1990.66 1481.87 L2010.33 1481.87 L2010.33 986.291 L1990.66 986.291 L1990.66 986.291  Z" fill="#3da44d" fill-rule="evenodd" fill-opacity="1"/>
<polyline clip-path="url(#clip653)" style="stroke:#000000; stroke-linecap:round; stroke-linejoin:round; stroke-width:4; stroke-opacity:1; fill:none" points="1990.66,986.291 1990.66,1481.87 2010.33,1481.87 2010.33,986.291 1990.66,986.291 "/>
<path clip-path="url(#clip653)" d="M2010.33 1086.87 L2010.33 1481.87 L2030 1481.87 L2030 1086.87 L2010.33 1086.87 L2010.33 1086.87  Z" fill="#3da44d" fill-rule="evenodd" fill-opacity="1"/>
<polyline clip-path="url(#clip653)" style="stroke:#000000; stroke-linecap:round; stroke-linejoin:round; stroke-width:4; stroke-opacity:1; fill:none" points="2010.33,1086.87 2010.33,1481.87 2030,1481.87 2030,1086.87 2010.33,1086.87 "/>
<path clip-path="url(#clip653)" d="M2030 1169.3 L2030 1481.87 L2049.67 1481.87 L2049.67 1169.3 L2030 1169.3 L2030 1169.3  Z" fill="#3da44d" fill-rule="evenodd" fill-opacity="1"/>
<polyline clip-path="url(#clip653)" style="stroke:#000000; stroke-linecap:round; stroke-linejoin:round; stroke-width:4; stroke-opacity:1; fill:none" points="2030,1169.3 2030,1481.87 2049.67,1481.87 2049.67,1169.3 2030,1169.3 "/>
<path clip-path="url(#clip653)" d="M2049.67 1262.06 L2049.67 1481.87 L2069.34 1481.87 L2069.34 1262.06 L2049.67 1262.06 L2049.67 1262.06  Z" fill="#3da44d" fill-rule="evenodd" fill-opacity="1"/>
<polyline clip-path="url(#clip653)" style="stroke:#000000; stroke-linecap:round; stroke-linejoin:round; stroke-width:4; stroke-opacity:1; fill:none" points="2049.67,1262.06 2049.67,1481.87 2069.34,1481.87 2069.34,1262.06 2049.67,1262.06 "/>
<path clip-path="url(#clip653)" d="M2069.34 1334.41 L2069.34 1481.87 L2089.01 1481.87 L2089.01 1334.41 L2069.34 1334.41 L2069.34 1334.41  Z" fill="#3da44d" fill-rule="evenodd" fill-opacity="1"/>
<polyline clip-path="url(#clip653)" style="stroke:#000000; stroke-linecap:round; stroke-linejoin:round; stroke-width:4; stroke-opacity:1; fill:none" points="2069.34,1334.41 2069.34,1481.87 2089.01,1481.87 2089.01,1334.41 2069.34,1334.41 "/>
<path clip-path="url(#clip653)" d="M2089.01 1402.72 L2089.01 1481.87 L2108.68 1481.87 L2108.68 1402.72 L2089.01 1402.72 L2089.01 1402.72  Z" fill="#3da44d" fill-rule="evenodd" fill-opacity="1"/>
<polyline clip-path="url(#clip653)" style="stroke:#000000; stroke-linecap:round; stroke-linejoin:round; stroke-width:4; stroke-opacity:1; fill:none" points="2089.01,1402.72 2089.01,1481.87 2108.68,1481.87 2108.68,1402.72 2089.01,1402.72 "/>
<path clip-path="url(#clip653)" d="M2108.68 1443.05 L2108.68 1481.87 L2128.35 1481.87 L2128.35 1443.05 L2108.68 1443.05 L2108.68 1443.05  Z" fill="#3da44d" fill-rule="evenodd" fill-opacity="1"/>
<polyline clip-path="url(#clip653)" style="stroke:#000000; stroke-linecap:round; stroke-linejoin:round; stroke-width:4; stroke-opacity:1; fill:none" points="2108.68,1443.05 2108.68,1481.87 2128.35,1481.87 2128.35,1443.05 2108.68,1443.05 "/>
<path clip-path="url(#clip653)" d="M2128.35 1465.49 L2128.35 1481.87 L2148.02 1481.87 L2148.02 1465.49 L2128.35 1465.49 L2128.35 1465.49  Z" fill="#3da44d" fill-rule="evenodd" fill-opacity="1"/>
<polyline clip-path="url(#clip653)" style="stroke:#000000; stroke-linecap:round; stroke-linejoin:round; stroke-width:4; stroke-opacity:1; fill:none" points="2128.35,1465.49 2128.35,1481.87 2148.02,1481.87 2148.02,1465.49 2128.35,1465.49 "/>
<path clip-path="url(#clip653)" d="M2148.02 1477.34 L2148.02 1481.87 L2167.69 1481.87 L2167.69 1477.34 L2148.02 1477.34 L2148.02 1477.34  Z" fill="#3da44d" fill-rule="evenodd" fill-opacity="1"/>
<polyline clip-path="url(#clip653)" style="stroke:#000000; stroke-linecap:round; stroke-linejoin:round; stroke-width:4; stroke-opacity:1; fill:none" points="2148.02,1477.34 2148.02,1481.87 2167.69,1481.87 2167.69,1477.34 2148.02,1477.34 "/>
<path clip-path="url(#clip653)" d="M2167.69 1481.12 L2167.69 1481.87 L2187.36 1481.87 L2187.36 1481.12 L2167.69 1481.12 L2167.69 1481.12  Z" fill="#3da44d" fill-rule="evenodd" fill-opacity="1"/>
<polyline clip-path="url(#clip653)" style="stroke:#000000; stroke-linecap:round; stroke-linejoin:round; stroke-width:4; stroke-opacity:1; fill:none" points="2167.69,1481.12 2167.69,1481.87 2187.36,1481.87 2187.36,1481.12 2167.69,1481.12 "/>
<circle clip-path="url(#clip653)" style="fill:#3da44d; stroke:none; fill-opacity:0" cx="1705.44" cy="1481.62" r="2"/>
<circle clip-path="url(#clip653)" style="fill:#3da44d; stroke:none; fill-opacity:0" cx="1725.11" cy="1478.6" r="2"/>
<circle clip-path="url(#clip653)" style="fill:#3da44d; stroke:none; fill-opacity:0" cx="1744.78" cy="1469.77" r="2"/>
<circle clip-path="url(#clip653)" style="fill:#3da44d; stroke:none; fill-opacity:0" cx="1764.45" cy="1446.33" r="2"/>
<circle clip-path="url(#clip653)" style="fill:#3da44d; stroke:none; fill-opacity:0" cx="1784.12" cy="1406.25" r="2"/>
<circle clip-path="url(#clip653)" style="fill:#3da44d; stroke:none; fill-opacity:0" cx="1803.79" cy="1328.36" r="2"/>
<circle clip-path="url(#clip653)" style="fill:#3da44d; stroke:none; fill-opacity:0" cx="1823.46" cy="1240.64" r="2"/>
<circle clip-path="url(#clip653)" style="fill:#3da44d; stroke:none; fill-opacity:0" cx="1843.13" cy="1153.67" r="2"/>
<circle clip-path="url(#clip653)" style="fill:#3da44d; stroke:none; fill-opacity:0" cx="1862.8" cy="1033.18" r="2"/>
<circle clip-path="url(#clip653)" style="fill:#3da44d; stroke:none; fill-opacity:0" cx="1882.47" cy="961.083" r="2"/>
<circle clip-path="url(#clip653)" style="fill:#3da44d; stroke:none; fill-opacity:0" cx="1902.14" cy="885.208" r="2"/>
<circle clip-path="url(#clip653)" style="fill:#3da44d; stroke:none; fill-opacity:0" cx="1921.81" cy="868.319" r="2"/>
<circle clip-path="url(#clip653)" style="fill:#3da44d; stroke:none; fill-opacity:0" cx="1941.48" cy="854.202" r="2"/>
<circle clip-path="url(#clip653)" style="fill:#3da44d; stroke:none; fill-opacity:0" cx="1961.15" cy="870.84" r="2"/>
<circle clip-path="url(#clip653)" style="fill:#3da44d; stroke:none; fill-opacity:0" cx="1980.82" cy="929.321" r="2"/>
<circle clip-path="url(#clip653)" style="fill:#3da44d; stroke:none; fill-opacity:0" cx="2000.49" cy="986.291" r="2"/>
<circle clip-path="url(#clip653)" style="fill:#3da44d; stroke:none; fill-opacity:0" cx="2020.16" cy="1086.87" r="2"/>
<circle clip-path="url(#clip653)" style="fill:#3da44d; stroke:none; fill-opacity:0" cx="2039.83" cy="1169.3" r="2"/>
<circle clip-path="url(#clip653)" style="fill:#3da44d; stroke:none; fill-opacity:0" cx="2059.5" cy="1262.06" r="2"/>
<circle clip-path="url(#clip653)" style="fill:#3da44d; stroke:none; fill-opacity:0" cx="2079.17" cy="1334.41" r="2"/>
<circle clip-path="url(#clip653)" style="fill:#3da44d; stroke:none; fill-opacity:0" cx="2098.84" cy="1402.72" r="2"/>
<circle clip-path="url(#clip653)" style="fill:#3da44d; stroke:none; fill-opacity:0" cx="2118.51" cy="1443.05" r="2"/>
<circle clip-path="url(#clip653)" style="fill:#3da44d; stroke:none; fill-opacity:0" cx="2138.18" cy="1465.49" r="2"/>
<circle clip-path="url(#clip653)" style="fill:#3da44d; stroke:none; fill-opacity:0" cx="2157.85" cy="1477.34" r="2"/>
<circle clip-path="url(#clip653)" style="fill:#3da44d; stroke:none; fill-opacity:0" cx="2177.52" cy="1481.12" r="2"/>
<polyline clip-path="url(#clip653)" style="stroke:#e26f46; stroke-linecap:round; stroke-linejoin:round; stroke-width:12; stroke-opacity:1; fill:none" points="1941.48,2109.55 1941.48,226.53 "/>
<path clip-path="url(#clip650)" d="M2592.08 1030.64 L3049.76 1030.64 L3049.76 875.125 L2592.08 875.125  Z" fill="#ffffff" fill-rule="evenodd" fill-opacity="1"/>
<polyline clip-path="url(#clip650)" style="stroke:#000000; stroke-linecap:round; stroke-linejoin:round; stroke-width:4; stroke-opacity:1; fill:none" points="2592.08,1030.64 3049.76,1030.64 3049.76,875.125 2592.08,875.125 2592.08,1030.64 "/>
<path clip-path="url(#clip650)" d="M2626.42 947.701 L2832.4 947.701 L2832.4 906.229 L2626.42 906.229 L2626.42 947.701  Z" fill="#3da44d" fill-rule="evenodd" fill-opacity="1"/>
<polyline clip-path="url(#clip650)" style="stroke:#000000; stroke-linecap:round; stroke-linejoin:round; stroke-width:4; stroke-opacity:1; fill:none" points="2626.42,947.701 2832.4,947.701 2832.4,906.229 2626.42,906.229 2626.42,947.701 "/>
<path clip-path="url(#clip650)" d="M2880.13 931.212 Q2874.97 931.212 2872.98 932.393 Q2870.99 933.574 2870.99 936.421 Q2870.99 938.689 2872.47 940.032 Q2873.98 941.351 2876.54 941.351 Q2880.09 941.351 2882.22 938.851 Q2884.37 936.328 2884.37 932.162 L2884.37 931.212 L2880.13 931.212 M2888.63 929.453 L2888.63 944.245 L2884.37 944.245 L2884.37 940.31 Q2882.91 942.671 2880.73 943.805 Q2878.56 944.916 2875.41 944.916 Q2871.43 944.916 2869.07 942.694 Q2866.73 940.449 2866.73 936.699 Q2866.73 932.324 2869.65 930.101 Q2872.59 927.879 2878.4 927.879 L2884.37 927.879 L2884.37 927.463 Q2884.37 924.523 2882.42 922.925 Q2880.5 921.305 2877.01 921.305 Q2874.79 921.305 2872.68 921.838 Q2870.57 922.37 2868.63 923.435 L2868.63 919.5 Q2870.97 918.597 2873.17 918.157 Q2875.36 917.694 2877.45 917.694 Q2883.07 917.694 2885.85 920.611 Q2888.63 923.527 2888.63 929.453 Z" fill="#000000" fill-rule="nonzero" fill-opacity="1" /><path clip-path="url(#clip650)" d="M2914.46 922.254 L2914.46 908.227 L2918.72 908.227 L2918.72 944.245 L2914.46 944.245 L2914.46 940.356 Q2913.12 942.671 2911.06 943.805 Q2909.02 944.916 2906.15 944.916 Q2901.45 944.916 2898.49 941.166 Q2895.55 937.416 2895.55 931.305 Q2895.55 925.194 2898.49 921.444 Q2901.45 917.694 2906.15 917.694 Q2909.02 917.694 2911.06 918.828 Q2913.12 919.939 2914.46 922.254 M2899.95 931.305 Q2899.95 936.004 2901.87 938.689 Q2903.81 941.351 2907.19 941.351 Q2910.57 941.351 2912.52 938.689 Q2914.46 936.004 2914.46 931.305 Q2914.46 926.606 2912.52 923.944 Q2910.57 921.259 2907.19 921.259 Q2903.81 921.259 2901.87 923.944 Q2899.95 926.606 2899.95 931.305 Z" fill="#000000" fill-rule="nonzero" fill-opacity="1" /><path clip-path="url(#clip650)" d="M2940.62 908.227 L2940.62 911.768 L2936.54 911.768 Q2934.25 911.768 2933.35 912.694 Q2932.47 913.62 2932.47 916.027 L2932.47 918.319 L2939.48 918.319 L2939.48 921.629 L2932.47 921.629 L2932.47 944.245 L2928.19 944.245 L2928.19 921.629 L2924.11 921.629 L2924.11 918.319 L2928.19 918.319 L2928.19 916.513 Q2928.19 912.185 2930.2 910.217 Q2932.22 908.227 2936.59 908.227 L2940.62 908.227 Z" fill="#000000" fill-rule="nonzero" fill-opacity="1" /><polyline clip-path="url(#clip650)" style="stroke:#e26f46; stroke-linecap:round; stroke-linejoin:round; stroke-width:12; stroke-opacity:1; fill:none" points="2626.42,978.805 2832.4,978.805 "/>
<path clip-path="url(#clip650)" d="M2867.4 992.15 L2875.04 992.15 L2875.04 965.784 L2866.73 967.451 L2866.73 963.191 L2874.99 961.525 L2879.67 961.525 L2879.67 992.15 L2887.31 992.15 L2887.31 996.085 L2867.4 996.085 L2867.4 992.15 Z" fill="#000000" fill-rule="nonzero" fill-opacity="1" /><path clip-path="url(#clip650)" d="M2906.75 964.604 Q2903.14 964.604 2901.31 968.168 Q2899.51 971.71 2899.51 978.84 Q2899.51 985.946 2901.31 989.511 Q2903.14 993.052 2906.75 993.052 Q2910.39 993.052 2912.19 989.511 Q2914.02 985.946 2914.02 978.84 Q2914.02 971.71 2912.19 968.168 Q2910.39 964.604 2906.75 964.604 M2906.75 960.9 Q2912.56 960.9 2915.62 965.506 Q2918.7 970.09 2918.7 978.84 Q2918.7 987.566 2915.62 992.173 Q2912.56 996.756 2906.75 996.756 Q2900.94 996.756 2897.86 992.173 Q2894.81 987.566 2894.81 978.84 Q2894.81 970.09 2897.86 965.506 Q2900.94 960.9 2906.75 960.9 Z" fill="#000000" fill-rule="nonzero" fill-opacity="1" /><path clip-path="url(#clip650)" d="M2927.05 995.367 L2927.05 991.108 Q2928.81 991.941 2930.62 992.381 Q2932.42 992.821 2934.16 992.821 Q2938.79 992.821 2941.22 989.719 Q2943.67 986.594 2944.02 980.252 Q2942.68 982.242 2940.62 983.307 Q2938.56 984.372 2936.06 984.372 Q2930.87 984.372 2927.84 981.247 Q2924.83 978.099 2924.83 972.659 Q2924.83 967.335 2927.98 964.117 Q2931.13 960.9 2936.36 960.9 Q2942.35 960.9 2945.5 965.506 Q2948.67 970.09 2948.67 978.84 Q2948.67 987.011 2944.79 991.895 Q2940.92 996.756 2934.37 996.756 Q2932.61 996.756 2930.8 996.409 Q2929 996.062 2927.05 995.367 M2936.36 980.715 Q2939.51 980.715 2941.34 978.562 Q2943.19 976.409 2943.19 972.659 Q2943.19 968.932 2941.34 966.779 Q2939.51 964.604 2936.36 964.604 Q2933.21 964.604 2931.36 966.779 Q2929.53 968.932 2929.53 972.659 Q2929.53 976.409 2931.36 978.562 Q2933.21 980.715 2936.36 980.715 Z" fill="#000000" fill-rule="nonzero" fill-opacity="1" /><path clip-path="url(#clip650)" d="M2957.08 990.205 L2961.96 990.205 L2961.96 996.085 L2957.08 996.085 L2957.08 990.205 Z" fill="#000000" fill-rule="nonzero" fill-opacity="1" /><path clip-path="url(#clip650)" d="M2972.19 961.525 L2990.55 961.525 L2990.55 965.46 L2976.47 965.46 L2976.47 973.932 Q2977.49 973.585 2978.51 973.423 Q2979.53 973.238 2980.55 973.238 Q2986.34 973.238 2989.72 976.409 Q2993.1 979.58 2993.1 984.997 Q2993.1 990.576 2989.62 993.677 Q2986.15 996.756 2979.83 996.756 Q2977.66 996.756 2975.39 996.386 Q2973.14 996.015 2970.73 995.275 L2970.73 990.576 Q2972.82 991.71 2975.04 992.265 Q2977.26 992.821 2979.74 992.821 Q2983.74 992.821 2986.08 990.714 Q2988.42 988.608 2988.42 984.997 Q2988.42 981.386 2986.08 979.279 Q2983.74 977.173 2979.74 977.173 Q2977.86 977.173 2975.99 977.59 Q2974.14 978.006 2972.19 978.886 L2972.19 961.525 Z" fill="#000000" fill-rule="nonzero" fill-opacity="1" /><path clip-path="url(#clip650)" d="M3012.61 960.807 Q3012.61 959.349 3011.59 958.33 Q3010.57 957.312 3009.09 957.312 Q3007.59 957.312 3006.57 958.33 Q3005.57 959.326 3005.57 960.807 Q3005.57 962.312 3006.57 963.33 Q3007.59 964.326 3009.09 964.326 Q3010.57 964.326 3011.59 963.307 Q3012.61 962.289 3012.61 960.807 M3015.43 960.807 Q3015.43 963.469 3013.58 965.321 Q3011.75 967.173 3009.09 967.173 Q3006.43 967.173 3004.58 965.321 Q3002.75 963.469 3002.75 960.807 Q3002.75 958.145 3004.58 956.317 Q3006.43 954.465 3009.09 954.465 Q3011.75 954.465 3013.58 956.317 Q3015.43 958.145 3015.43 960.807 Z" fill="#000000" fill-rule="nonzero" fill-opacity="1" /></svg>
