<?xml version="1.0" encoding="utf-8"?>
<svg xmlns="http://www.w3.org/2000/svg" xmlns:xlink="http://www.w3.org/1999/xlink" width="800" height="400" viewBox="0 0 3200 1600">
<defs>
  <clipPath id="clip430">
    <rect x="0" y="0" width="3200" height="1600"/>
  </clipPath>
</defs>
<path clip-path="url(#clip430)" d="M0 1600 L3200 1600 L3200 0 L0 0  Z" fill="#ffffff" fill-rule="evenodd" fill-opacity="1"/>
<defs>
  <clipPath id="clip431">
    <rect x="640" y="0" width="2241" height="1600"/>
  </clipPath>
</defs>
<path clip-path="url(#clip430)" d="M62.9921 674.916 L3152.76 674.916 L3152.76 47.2441 L62.9921 47.2441  Z" fill="#ffffff" fill-rule="evenodd" fill-opacity="1"/>
<defs>
  <clipPath id="clip432">
    <rect x="62" y="47" width="3091" height="629"/>
  </clipPath>
</defs>
<polyline clip-path="url(#clip432)" style="stroke:#000000; stroke-linecap:round; stroke-linejoin:round; stroke-width:2; stroke-opacity:0.1; fill:none" points="300.005,674.916 300.005,47.2441 "/>
<polyline clip-path="url(#clip432)" style="stroke:#000000; stroke-linecap:round; stroke-linejoin:round; stroke-width:2; stroke-opacity:0.1; fill:none" points="970.707,674.916 970.707,47.2441 "/>
<polyline clip-path="url(#clip432)" style="stroke:#000000; stroke-linecap:round; stroke-linejoin:round; stroke-width:2; stroke-opacity:0.1; fill:none" points="1641.41,674.916 1641.41,47.2441 "/>
<polyline clip-path="url(#clip432)" style="stroke:#000000; stroke-linecap:round; stroke-linejoin:round; stroke-width:2; stroke-opacity:0.1; fill:none" points="2312.11,674.916 2312.11,47.2441 "/>
<polyline clip-path="url(#clip432)" style="stroke:#000000; stroke-linecap:round; stroke-linejoin:round; stroke-width:2; stroke-opacity:0.1; fill:none" points="2982.81,674.916 2982.81,47.2441 "/>
<polyline clip-path="url(#clip430)" style="stroke:#000000; stroke-linecap:round; stroke-linejoin:round; stroke-width:4; stroke-opacity:1; fill:none" points="62.9921,674.916 3152.76,674.916 "/>
<polyline clip-path="url(#clip430)" style="stroke:#000000; stroke-linecap:round; stroke-linejoin:round; stroke-width:4; stroke-opacity:1; fill:none" points="300.005,674.916 300.005,656.018 "/>
<polyline clip-path="url(#clip430)" style="stroke:#000000; stroke-linecap:round; stroke-linejoin:round; stroke-width:4; stroke-opacity:1; fill:none" points="970.707,674.916 970.707,656.018 "/>
<polyline clip-path="url(#clip430)" style="stroke:#000000; stroke-linecap:round; stroke-linejoin:round; stroke-width:4; stroke-opacity:1; fill:none" points="1641.41,674.916 1641.41,656.018 "/>
<polyline clip-path="url(#clip430)" style="stroke:#000000; stroke-linecap:round; stroke-linejoin:round; stroke-width:4; stroke-opacity:1; fill:none" points="2312.11,674.916 2312.11,656.018 "/>
<polyline clip-path="url(#clip430)" style="stroke:#000000; stroke-linecap:round; stroke-linejoin:round; stroke-width:4; stroke-opacity:1; fill:none" points="2982.81,674.916 2982.81,656.018 "/>
<path clip-path="url(#clip430)" d="M294.658 739.781 L310.977 739.781 L310.977 743.716 L289.033 743.716 L289.033 739.781 Q291.695 737.026 296.278 732.397 Q300.884 727.744 302.065 726.401 Q304.31 723.878 305.19 722.142 Q306.093 720.383 306.093 718.693 Q306.093 715.938 304.148 714.202 Q302.227 712.466 299.125 712.466 Q296.926 712.466 294.472 713.23 Q292.042 713.994 289.264 715.545 L289.264 710.823 Q292.088 709.688 294.542 709.11 Q296.996 708.531 299.033 708.531 Q304.403 708.531 307.597 711.216 Q310.792 713.901 310.792 718.392 Q310.792 720.522 309.982 722.443 Q309.195 724.341 307.088 726.934 Q306.509 727.605 303.408 730.823 Q300.306 734.017 294.658 739.781 Z" fill="#000000" fill-rule="nonzero" fill-opacity="1" /><path clip-path="url(#clip430)" d="M974.955 725.082 Q978.311 725.8 980.186 728.068 Q982.084 730.337 982.084 733.67 Q982.084 738.786 978.566 741.586 Q975.047 744.387 968.566 744.387 Q966.39 744.387 964.075 743.948 Q961.783 743.531 959.33 742.674 L959.33 738.161 Q961.274 739.295 963.589 739.874 Q965.904 740.452 968.427 740.452 Q972.825 740.452 975.117 738.716 Q977.431 736.98 977.431 733.67 Q977.431 730.614 975.279 728.901 Q973.149 727.165 969.33 727.165 L965.302 727.165 L965.302 723.323 L969.515 723.323 Q972.964 723.323 974.793 721.957 Q976.621 720.568 976.621 717.975 Q976.621 715.313 974.723 713.901 Q972.848 712.466 969.33 712.466 Q967.408 712.466 965.209 712.883 Q963.01 713.3 960.371 714.179 L960.371 710.013 Q963.033 709.272 965.348 708.901 Q967.686 708.531 969.746 708.531 Q975.07 708.531 978.172 710.962 Q981.274 713.369 981.274 717.489 Q981.274 720.36 979.631 722.35 Q977.987 724.318 974.955 725.082 Z" fill="#000000" fill-rule="nonzero" fill-opacity="1" /><path clip-path="url(#clip430)" d="M1644.42 713.23 L1632.61 731.679 L1644.42 731.679 L1644.42 713.23 M1643.19 709.156 L1649.07 709.156 L1649.07 731.679 L1654 731.679 L1654 735.568 L1649.07 735.568 L1649.07 743.716 L1644.42 743.716 L1644.42 735.568 L1628.82 735.568 L1628.82 731.054 L1643.19 709.156 Z" fill="#000000" fill-rule="nonzero" fill-opacity="1" /><path clip-path="url(#clip430)" d="M2302.39 709.156 L2320.75 709.156 L2320.75 713.091 L2306.67 713.091 L2306.67 721.563 Q2307.69 721.216 2308.71 721.054 Q2309.73 720.869 2310.75 720.869 Q2316.53 720.869 2319.91 724.04 Q2323.29 727.212 2323.29 732.628 Q2323.29 738.207 2319.82 741.309 Q2316.35 744.387 2310.03 744.387 Q2307.85 744.387 2305.58 744.017 Q2303.34 743.647 2300.93 742.906 L2300.93 738.207 Q2303.01 739.341 2305.24 739.897 Q2307.46 740.452 2309.94 740.452 Q2313.94 740.452 2316.28 738.346 Q2318.62 736.239 2318.62 732.628 Q2318.62 729.017 2316.28 726.911 Q2313.94 724.804 2309.94 724.804 Q2308.06 724.804 2306.19 725.221 Q2304.33 725.637 2302.39 726.517 L2302.39 709.156 Z" fill="#000000" fill-rule="nonzero" fill-opacity="1" /><path clip-path="url(#clip430)" d="M2983.22 724.573 Q2980.07 724.573 2978.22 726.725 Q2976.39 728.878 2976.39 732.628 Q2976.39 736.355 2978.22 738.531 Q2980.07 740.684 2983.22 740.684 Q2986.37 740.684 2988.2 738.531 Q2990.05 736.355 2990.05 732.628 Q2990.05 728.878 2988.2 726.725 Q2986.37 724.573 2983.22 724.573 M2992.5 709.92 L2992.5 714.179 Q2990.74 713.346 2988.94 712.906 Q2987.15 712.466 2985.39 712.466 Q2980.76 712.466 2978.31 715.591 Q2975.88 718.716 2975.53 725.036 Q2976.9 723.022 2978.96 721.957 Q2981.02 720.869 2983.5 720.869 Q2988.7 720.869 2991.71 724.04 Q2994.75 727.188 2994.75 732.628 Q2994.75 737.952 2991.6 741.17 Q2988.45 744.387 2983.22 744.387 Q2977.22 744.387 2974.05 739.804 Q2970.88 735.198 2970.88 726.471 Q2970.88 718.276 2974.77 713.415 Q2978.66 708.531 2985.21 708.531 Q2986.97 708.531 2988.75 708.878 Q2990.56 709.226 2992.5 709.92 Z" fill="#000000" fill-rule="nonzero" fill-opacity="1" /><path clip-path="url(#clip430)" d="M1573.81 800.704 Q1573.81 802.41 1572.69 803.505 Q1571.59 804.6 1570.17 804.6 Q1568.95 804.6 1568.31 803.892 Q1567.66 803.183 1567.66 802.282 Q1567.66 800.993 1568.66 799.931 Q1569.66 798.868 1571.11 798.642 Q1570.05 797.869 1568.34 797.869 Q1565.54 797.869 1563.06 800.027 Q1561.96 801.026 1560.77 802.861 Q1559.58 804.665 1559.35 805.438 L1557.26 814.037 Q1557.07 815.003 1555.88 819.641 Q1554.72 824.246 1554.62 824.439 Q1554.3 825.341 1553.59 825.824 Q1552.88 826.307 1552.17 826.307 Q1551.37 826.307 1550.82 825.824 Q1550.27 825.341 1550.27 824.504 Q1550.27 824.375 1550.37 823.892 Q1550.46 823.409 1550.63 822.732 Q1550.79 822.056 1550.85 821.67 L1554.68 806.436 Q1555.39 803.667 1555.55 802.797 Q1555.75 801.895 1555.75 800.897 Q1555.75 799.158 1555.2 798.514 Q1554.65 797.869 1553.69 797.869 Q1552.01 797.869 1550.92 799.866 Q1549.82 801.863 1548.89 805.728 Q1548.6 806.79 1548.4 807.016 Q1548.24 807.241 1547.76 807.241 Q1546.95 807.209 1546.95 806.565 Q1546.95 806.404 1547.21 805.373 Q1547.47 804.311 1547.95 802.765 Q1548.47 801.187 1549.02 800.188 Q1549.34 799.512 1549.63 799.061 Q1549.92 798.61 1550.5 797.902 Q1551.08 797.193 1551.95 796.807 Q1552.82 796.42 1553.88 796.42 Q1556.2 796.42 1557.84 797.837 Q1559.51 799.254 1559.9 801.477 Q1560.71 800.317 1561.7 799.319 Q1562.7 798.288 1564.54 797.354 Q1566.37 796.42 1568.34 796.42 Q1570.79 796.42 1572.3 797.676 Q1573.81 798.9 1573.81 800.704 Z" fill="#000000" fill-rule="nonzero" fill-opacity="1" /><path clip-path="url(#clip430)" d="M1583.52 842.056 L1583.52 776.098 L1593.47 776.098 L1593.47 777.612 L1587.93 777.612 L1587.93 840.542 L1593.47 840.542 L1593.47 842.056 L1583.52 842.056 Z" fill="#000000" fill-rule="nonzero" fill-opacity="1" /><path clip-path="url(#clip430)" d="M1646.82 825.567 L1638.18 825.373 Q1631.07 825.373 1628.68 825.567 L1628.68 823.538 Q1634.16 823.538 1634.16 821.541 Q1634.16 821.38 1633.97 820.607 L1630.49 810.526 L1614.19 810.526 L1611.13 819.158 Q1611 819.415 1611 820.156 Q1611 821.541 1612.32 822.539 Q1613.64 823.538 1615.96 823.538 L1615.96 825.567 L1608.36 825.373 L1601.66 825.567 L1601.66 823.538 Q1604.53 823.473 1606.37 822.475 Q1608.2 821.476 1609.04 819.093 L1622.69 779.673 Q1622.95 778.9 1623.24 778.643 Q1623.53 778.353 1624.27 778.353 Q1624.79 778.353 1625.08 778.546 Q1625.37 778.707 1625.46 778.932 Q1625.59 779.126 1625.79 779.673 L1640.02 820.897 Q1640.57 822.539 1641.63 823.054 Q1642.69 823.538 1645.66 823.538 L1646.82 823.538 L1646.82 825.567 M1629.75 808.497 L1622.31 787.048 L1614.9 808.497 L1629.75 808.497 M1628.43 772.523 Q1628.43 768.723 1624.27 768.723 Q1620.12 768.723 1620.12 772.523 Q1620.12 776.356 1624.27 776.356 Q1628.43 776.356 1628.43 772.523 M1630.62 772.459 Q1630.62 774.907 1628.78 776.646 Q1626.95 778.353 1624.21 778.353 Q1621.66 778.353 1619.8 776.646 Q1617.93 774.939 1617.93 772.459 Q1617.93 770.205 1619.73 768.466 Q1621.57 766.726 1624.34 766.726 Q1626.98 766.726 1628.78 768.433 Q1630.62 770.14 1630.62 772.459 Z" fill="#000000" fill-rule="nonzero" fill-opacity="1" /><path clip-path="url(#clip430)" d="M1650.65 840.542 L1656.19 840.542 L1656.19 777.612 L1650.65 777.612 L1650.65 776.098 L1660.6 776.098 L1660.6 842.056 L1650.65 842.056 L1650.65 840.542 Z" fill="#000000" fill-rule="nonzero" fill-opacity="1" /><polyline clip-path="url(#clip430)" style="stroke:#000000; stroke-linecap:round; stroke-linejoin:round; stroke-width:4; stroke-opacity:1; fill:none" points="62.9921,674.916 62.9921,47.2441 "/>
<path clip-path="url(#clip430)" d="M-69.5438 399.943 Q-68.8436 397.874 -66.552 395.932 Q-64.2603 393.959 -60.2499 391.986 L-47.2639 385.461 L-47.2639 392.368 L-59.4542 398.447 Q-64.2285 400.802 -65.7881 403.03 Q-67.3477 405.226 -67.3477 409.046 L-67.3477 416.048 L-47.2639 416.048 L-47.2639 422.477 L-94.7839 422.477 L-94.7839 407.964 Q-94.7839 399.815 -91.3782 395.805 Q-87.9726 391.795 -81.0976 391.795 Q-76.6098 391.795 -73.6497 393.895 Q-70.6897 395.964 -69.5438 399.943 M-89.5003 416.048 L-72.6312 416.048 L-72.6312 407.964 Q-72.6312 403.317 -74.7637 400.961 Q-76.9281 398.574 -81.0976 398.574 Q-85.2671 398.574 -87.3678 400.961 Q-89.5003 403.317 -89.5003 407.964 L-89.5003 416.048 Z" fill="#000000" fill-rule="nonzero" fill-opacity="1" /><path clip-path="url(#clip430)" d="M-89.5003 370.756 L-52.5474 370.756 L-52.5474 362.99 Q-52.5474 353.155 -57.0034 348.603 Q-61.4594 344.02 -71.0716 344.02 Q-80.6202 344.02 -85.0443 348.603 Q-89.5003 353.155 -89.5003 362.99 L-89.5003 370.756 M-94.7839 377.185 L-94.7839 363.976 Q-94.7839 350.163 -89.0229 343.702 Q-83.2938 337.241 -71.0716 337.241 Q-58.7858 337.241 -53.0248 343.734 Q-47.2639 350.227 -47.2639 363.976 L-47.2639 377.185 L-94.7839 377.185 Z" fill="#000000" fill-rule="nonzero" fill-opacity="1" /><path clip-path="url(#clip430)" d="M-94.7839 326.992 L-94.7839 299.683 L-89.373 299.683 L-89.373 320.562 L-75.3685 320.562 L-75.3685 301.72 L-69.9576 301.72 L-69.9576 320.562 L-47.2639 320.562 L-47.2639 326.992 L-94.7839 326.992 Z" fill="#000000" fill-rule="nonzero" fill-opacity="1" /><path clip-path="url(#clip432)" d="M232.935 674.418 L232.935 674.916 L266.47 674.916 L266.47 674.418 L232.935 674.418 L232.935 674.418  Z" fill="#009af9" fill-rule="evenodd" fill-opacity="1"/>
<polyline clip-path="url(#clip432)" style="stroke:#000000; stroke-linecap:round; stroke-linejoin:round; stroke-width:4; stroke-opacity:1; fill:none" points="232.935,674.418 232.935,674.916 266.47,674.916 266.47,674.418 232.935,674.418 "/>
<path clip-path="url(#clip432)" d="M266.47 672.801 L266.47 674.916 L300.005 674.916 L300.005 672.801 L266.47 672.801 L266.47 672.801  Z" fill="#009af9" fill-rule="evenodd" fill-opacity="1"/>
<polyline clip-path="url(#clip432)" style="stroke:#000000; stroke-linecap:round; stroke-linejoin:round; stroke-width:4; stroke-opacity:1; fill:none" points="266.47,672.801 266.47,674.916 300.005,674.916 300.005,672.801 266.47,672.801 "/>
<path clip-path="url(#clip432)" d="M300.005 658.615 L300.005 674.916 L333.54 674.916 L333.54 658.615 L300.005 658.615 L300.005 658.615  Z" fill="#009af9" fill-rule="evenodd" fill-opacity="1"/>
<polyline clip-path="url(#clip432)" style="stroke:#000000; stroke-linecap:round; stroke-linejoin:round; stroke-width:4; stroke-opacity:1; fill:none" points="300.005,658.615 300.005,674.916 333.54,674.916 333.54,658.615 300.005,658.615 "/>
<path clip-path="url(#clip432)" d="M333.54 627.131 L333.54 674.916 L367.075 674.916 L367.075 627.131 L333.54 627.131 L333.54 627.131  Z" fill="#009af9" fill-rule="evenodd" fill-opacity="1"/>
<polyline clip-path="url(#clip432)" style="stroke:#000000; stroke-linecap:round; stroke-linejoin:round; stroke-width:4; stroke-opacity:1; fill:none" points="333.54,627.131 333.54,674.916 367.075,674.916 367.075,627.131 333.54,627.131 "/>
<path clip-path="url(#clip432)" d="M367.075 563.792 L367.075 674.916 L400.61 674.916 L400.61 563.792 L367.075 563.792 L367.075 563.792  Z" fill="#009af9" fill-rule="evenodd" fill-opacity="1"/>
<polyline clip-path="url(#clip432)" style="stroke:#000000; stroke-linecap:round; stroke-linejoin:round; stroke-width:4; stroke-opacity:1; fill:none" points="367.075,563.792 367.075,674.916 400.61,674.916 400.61,563.792 367.075,563.792 "/>
<path clip-path="url(#clip432)" d="M400.61 465.858 L400.61 674.916 L434.145 674.916 L434.145 465.858 L400.61 465.858 L400.61 465.858  Z" fill="#009af9" fill-rule="evenodd" fill-opacity="1"/>
<polyline clip-path="url(#clip432)" style="stroke:#000000; stroke-linecap:round; stroke-linejoin:round; stroke-width:4; stroke-opacity:1; fill:none" points="400.61,465.858 400.61,674.916 434.145,674.916 434.145,465.858 400.61,465.858 "/>
<path clip-path="url(#clip432)" d="M434.145 304.834 L434.145 674.916 L467.68 674.916 L467.68 304.834 L434.145 304.834 L434.145 304.834  Z" fill="#009af9" fill-rule="evenodd" fill-opacity="1"/>
<polyline clip-path="url(#clip432)" style="stroke:#000000; stroke-linecap:round; stroke-linejoin:round; stroke-width:4; stroke-opacity:1; fill:none" points="434.145,304.834 434.145,674.916 467.68,674.916 467.68,304.834 434.145,304.834 "/>
<path clip-path="url(#clip432)" d="M467.68 196.945 L467.68 674.916 L501.215 674.916 L501.215 196.945 L467.68 196.945 L467.68 196.945  Z" fill="#009af9" fill-rule="evenodd" fill-opacity="1"/>
<polyline clip-path="url(#clip432)" style="stroke:#000000; stroke-linecap:round; stroke-linejoin:round; stroke-width:4; stroke-opacity:1; fill:none" points="467.68,196.945 467.68,674.916 501.215,674.916 501.215,196.945 467.68,196.945 "/>
<path clip-path="url(#clip432)" d="M501.215 123.028 L501.215 674.916 L534.751 674.916 L534.751 123.028 L501.215 123.028 L501.215 123.028  Z" fill="#009af9" fill-rule="evenodd" fill-opacity="1"/>
<polyline clip-path="url(#clip432)" style="stroke:#000000; stroke-linecap:round; stroke-linejoin:round; stroke-width:4; stroke-opacity:1; fill:none" points="501.215,123.028 501.215,674.916 534.751,674.916 534.751,123.028 501.215,123.028 "/>
<path clip-path="url(#clip432)" d="M534.751 119.792 L534.751 674.916 L568.286 674.916 L568.286 119.792 L534.751 119.792 L534.751 119.792  Z" fill="#009af9" fill-rule="evenodd" fill-opacity="1"/>
<polyline clip-path="url(#clip432)" style="stroke:#000000; stroke-linecap:round; stroke-linejoin:round; stroke-width:4; stroke-opacity:1; fill:none" points="534.751,119.792 534.751,674.916 568.286,674.916 568.286,119.792 534.751,119.792 "/>
<path clip-path="url(#clip432)" d="M568.286 189.354 L568.286 674.916 L601.821 674.916 L601.821 189.354 L568.286 189.354 L568.286 189.354  Z" fill="#009af9" fill-rule="evenodd" fill-opacity="1"/>
<polyline clip-path="url(#clip432)" style="stroke:#000000; stroke-linecap:round; stroke-linejoin:round; stroke-width:4; stroke-opacity:1; fill:none" points="568.286,189.354 568.286,674.916 601.821,674.916 601.821,189.354 568.286,189.354 "/>
<path clip-path="url(#clip432)" d="M601.821 350.378 L601.821 674.916 L635.356 674.916 L635.356 350.378 L601.821 350.378 L601.821 350.378  Z" fill="#009af9" fill-rule="evenodd" fill-opacity="1"/>
<polyline clip-path="url(#clip432)" style="stroke:#000000; stroke-linecap:round; stroke-linejoin:round; stroke-width:4; stroke-opacity:1; fill:none" points="601.821,350.378 601.821,674.916 635.356,674.916 635.356,350.378 601.821,350.378 "/>
<path clip-path="url(#clip432)" d="M635.356 484.151 L635.356 674.916 L668.891 674.916 L668.891 484.151 L635.356 484.151 L635.356 484.151  Z" fill="#009af9" fill-rule="evenodd" fill-opacity="1"/>
<polyline clip-path="url(#clip432)" style="stroke:#000000; stroke-linecap:round; stroke-linejoin:round; stroke-width:4; stroke-opacity:1; fill:none" points="635.356,484.151 635.356,674.916 668.891,674.916 668.891,484.151 635.356,484.151 "/>
<path clip-path="url(#clip432)" d="M668.891 583.453 L668.891 674.916 L702.426 674.916 L702.426 583.453 L668.891 583.453 L668.891 583.453  Z" fill="#009af9" fill-rule="evenodd" fill-opacity="1"/>
<polyline clip-path="url(#clip432)" style="stroke:#000000; stroke-linecap:round; stroke-linejoin:round; stroke-width:4; stroke-opacity:1; fill:none" points="668.891,583.453 668.891,674.916 702.426,674.916 702.426,583.453 668.891,583.453 "/>
<path clip-path="url(#clip432)" d="M702.426 633.104 L702.426 674.916 L735.961 674.916 L735.961 633.104 L702.426 633.104 L702.426 633.104  Z" fill="#009af9" fill-rule="evenodd" fill-opacity="1"/>
<polyline clip-path="url(#clip432)" style="stroke:#000000; stroke-linecap:round; stroke-linejoin:round; stroke-width:4; stroke-opacity:1; fill:none" points="702.426,633.104 702.426,674.916 735.961,674.916 735.961,633.104 702.426,633.104 "/>
<path clip-path="url(#clip432)" d="M735.961 664.214 L735.961 674.916 L769.496 674.916 L769.496 664.214 L735.961 664.214 L735.961 664.214  Z" fill="#009af9" fill-rule="evenodd" fill-opacity="1"/>
<polyline clip-path="url(#clip432)" style="stroke:#000000; stroke-linecap:round; stroke-linejoin:round; stroke-width:4; stroke-opacity:1; fill:none" points="735.961,664.214 735.961,674.916 769.496,674.916 769.496,664.214 735.961,664.214 "/>
<path clip-path="url(#clip432)" d="M769.496 672.303 L769.496 674.916 L803.031 674.916 L803.031 672.303 L769.496 672.303 L769.496 672.303  Z" fill="#009af9" fill-rule="evenodd" fill-opacity="1"/>
<polyline clip-path="url(#clip432)" style="stroke:#000000; stroke-linecap:round; stroke-linejoin:round; stroke-width:4; stroke-opacity:1; fill:none" points="769.496,672.303 769.496,674.916 803.031,674.916 803.031,672.303 769.496,672.303 "/>
<path clip-path="url(#clip432)" d="M803.031 674.916 L803.031 674.916 L836.567 674.916 L836.567 674.916 L803.031 674.916 L803.031 674.916  Z" fill="#009af9" fill-rule="evenodd" fill-opacity="1"/>
<polyline clip-path="url(#clip432)" style="stroke:#000000; stroke-linecap:round; stroke-linejoin:round; stroke-width:4; stroke-opacity:1; fill:none" points="803.031,674.916 803.031,674.916 836.567,674.916 803.031,674.916 "/>
<path clip-path="url(#clip432)" d="M836.567 674.916 L836.567 674.916 L870.102 674.916 L870.102 674.916 L836.567 674.916 L836.567 674.916  Z" fill="#009af9" fill-rule="evenodd" fill-opacity="1"/>
<polyline clip-path="url(#clip432)" style="stroke:#000000; stroke-linecap:round; stroke-linejoin:round; stroke-width:4; stroke-opacity:1; fill:none" points="836.567,674.916 836.567,674.916 870.102,674.916 836.567,674.916 "/>
<path clip-path="url(#clip432)" d="M870.102 674.916 L870.102 674.916 L903.637 674.916 L903.637 674.916 L870.102 674.916 L870.102 674.916  Z" fill="#009af9" fill-rule="evenodd" fill-opacity="1"/>
<polyline clip-path="url(#clip432)" style="stroke:#000000; stroke-linecap:round; stroke-linejoin:round; stroke-width:4; stroke-opacity:1; fill:none" points="870.102,674.916 870.102,674.916 903.637,674.916 870.102,674.916 "/>
<path clip-path="url(#clip432)" d="M903.637 674.916 L903.637 674.916 L937.172 674.916 L937.172 674.916 L903.637 674.916 L903.637 674.916  Z" fill="#009af9" fill-rule="evenodd" fill-opacity="1"/>
<polyline clip-path="url(#clip432)" style="stroke:#000000; stroke-linecap:round; stroke-linejoin:round; stroke-width:4; stroke-opacity:1; fill:none" points="903.637,674.916 903.637,674.916 937.172,674.916 903.637,674.916 "/>
<path clip-path="url(#clip432)" d="M937.172 674.916 L937.172 674.916 L970.707 674.916 L970.707 674.916 L937.172 674.916 L937.172 674.916  Z" fill="#009af9" fill-rule="evenodd" fill-opacity="1"/>
<polyline clip-path="url(#clip432)" style="stroke:#000000; stroke-linecap:round; stroke-linejoin:round; stroke-width:4; stroke-opacity:1; fill:none" points="937.172,674.916 937.172,674.916 970.707,674.916 937.172,674.916 "/>
<path clip-path="url(#clip432)" d="M970.707 674.916 L970.707 674.916 L1004.24 674.916 L1004.24 674.916 L970.707 674.916 L970.707 674.916  Z" fill="#009af9" fill-rule="evenodd" fill-opacity="1"/>
<polyline clip-path="url(#clip432)" style="stroke:#000000; stroke-linecap:round; stroke-linejoin:round; stroke-width:4; stroke-opacity:1; fill:none" points="970.707,674.916 970.707,674.916 1004.24,674.916 970.707,674.916 "/>
<path clip-path="url(#clip432)" d="M1004.24 674.916 L1004.24 674.916 L1037.78 674.916 L1037.78 674.916 L1004.24 674.916 L1004.24 674.916  Z" fill="#009af9" fill-rule="evenodd" fill-opacity="1"/>
<polyline clip-path="url(#clip432)" style="stroke:#000000; stroke-linecap:round; stroke-linejoin:round; stroke-width:4; stroke-opacity:1; fill:none" points="1004.24,674.916 1004.24,674.916 1037.78,674.916 1004.24,674.916 "/>
<path clip-path="url(#clip432)" d="M1037.78 674.916 L1037.78 674.916 L1071.31 674.916 L1071.31 674.916 L1037.78 674.916 L1037.78 674.916  Z" fill="#009af9" fill-rule="evenodd" fill-opacity="1"/>
<polyline clip-path="url(#clip432)" style="stroke:#000000; stroke-linecap:round; stroke-linejoin:round; stroke-width:4; stroke-opacity:1; fill:none" points="1037.78,674.916 1037.78,674.916 1071.31,674.916 1037.78,674.916 "/>
<path clip-path="url(#clip432)" d="M1071.31 674.916 L1071.31 674.916 L1104.85 674.916 L1104.85 674.916 L1071.31 674.916 L1071.31 674.916  Z" fill="#009af9" fill-rule="evenodd" fill-opacity="1"/>
<polyline clip-path="url(#clip432)" style="stroke:#000000; stroke-linecap:round; stroke-linejoin:round; stroke-width:4; stroke-opacity:1; fill:none" points="1071.31,674.916 1071.31,674.916 1104.85,674.916 1071.31,674.916 "/>
<path clip-path="url(#clip432)" d="M1104.85 674.916 L1104.85 674.916 L1138.38 674.916 L1138.38 674.916 L1104.85 674.916 L1104.85 674.916  Z" fill="#009af9" fill-rule="evenodd" fill-opacity="1"/>
<polyline clip-path="url(#clip432)" style="stroke:#000000; stroke-linecap:round; stroke-linejoin:round; stroke-width:4; stroke-opacity:1; fill:none" points="1104.85,674.916 1104.85,674.916 1138.38,674.916 1104.85,674.916 "/>
<path clip-path="url(#clip432)" d="M1138.38 674.916 L1138.38 674.916 L1171.92 674.916 L1171.92 674.916 L1138.38 674.916 L1138.38 674.916  Z" fill="#009af9" fill-rule="evenodd" fill-opacity="1"/>
<polyline clip-path="url(#clip432)" style="stroke:#000000; stroke-linecap:round; stroke-linejoin:round; stroke-width:4; stroke-opacity:1; fill:none" points="1138.38,674.916 1138.38,674.916 1171.92,674.916 1138.38,674.916 "/>
<path clip-path="url(#clip432)" d="M1171.92 674.916 L1171.92 674.916 L1205.45 674.916 L1205.45 674.916 L1171.92 674.916 L1171.92 674.916  Z" fill="#009af9" fill-rule="evenodd" fill-opacity="1"/>
<polyline clip-path="url(#clip432)" style="stroke:#000000; stroke-linecap:round; stroke-linejoin:round; stroke-width:4; stroke-opacity:1; fill:none" points="1171.92,674.916 1171.92,674.916 1205.45,674.916 1171.92,674.916 "/>
<path clip-path="url(#clip432)" d="M1205.45 674.916 L1205.45 674.916 L1238.99 674.916 L1238.99 674.916 L1205.45 674.916 L1205.45 674.916  Z" fill="#009af9" fill-rule="evenodd" fill-opacity="1"/>
<polyline clip-path="url(#clip432)" style="stroke:#000000; stroke-linecap:round; stroke-linejoin:round; stroke-width:4; stroke-opacity:1; fill:none" points="1205.45,674.916 1205.45,674.916 1238.99,674.916 1205.45,674.916 "/>
<path clip-path="url(#clip432)" d="M1238.99 674.916 L1238.99 674.916 L1272.52 674.916 L1272.52 674.916 L1238.99 674.916 L1238.99 674.916  Z" fill="#009af9" fill-rule="evenodd" fill-opacity="1"/>
<polyline clip-path="url(#clip432)" style="stroke:#000000; stroke-linecap:round; stroke-linejoin:round; stroke-width:4; stroke-opacity:1; fill:none" points="1238.99,674.916 1238.99,674.916 1272.52,674.916 1238.99,674.916 "/>
<path clip-path="url(#clip432)" d="M1272.52 672.303 L1272.52 674.916 L1306.06 674.916 L1306.06 672.303 L1272.52 672.303 L1272.52 672.303  Z" fill="#009af9" fill-rule="evenodd" fill-opacity="1"/>
<polyline clip-path="url(#clip432)" style="stroke:#000000; stroke-linecap:round; stroke-linejoin:round; stroke-width:4; stroke-opacity:1; fill:none" points="1272.52,672.303 1272.52,674.916 1306.06,674.916 1306.06,672.303 1272.52,672.303 "/>
<path clip-path="url(#clip432)" d="M1306.06 658.988 L1306.06 674.916 L1339.59 674.916 L1339.59 658.988 L1306.06 658.988 L1306.06 658.988  Z" fill="#009af9" fill-rule="evenodd" fill-opacity="1"/>
<polyline clip-path="url(#clip432)" style="stroke:#000000; stroke-linecap:round; stroke-linejoin:round; stroke-width:4; stroke-opacity:1; fill:none" points="1306.06,658.988 1306.06,674.916 1339.59,674.916 1339.59,658.988 1306.06,658.988 "/>
<path clip-path="url(#clip432)" d="M1339.59 615.683 L1339.59 674.916 L1373.13 674.916 L1373.13 615.683 L1339.59 615.683 L1339.59 615.683  Z" fill="#009af9" fill-rule="evenodd" fill-opacity="1"/>
<polyline clip-path="url(#clip432)" style="stroke:#000000; stroke-linecap:round; stroke-linejoin:round; stroke-width:4; stroke-opacity:1; fill:none" points="1339.59,615.683 1339.59,674.916 1373.13,674.916 1373.13,615.683 1339.59,615.683 "/>
<path clip-path="url(#clip432)" d="M1373.13 520.114 L1373.13 674.916 L1406.66 674.916 L1406.66 520.114 L1373.13 520.114 L1373.13 520.114  Z" fill="#009af9" fill-rule="evenodd" fill-opacity="1"/>
<polyline clip-path="url(#clip432)" style="stroke:#000000; stroke-linecap:round; stroke-linejoin:round; stroke-width:4; stroke-opacity:1; fill:none" points="1373.13,520.114 1373.13,674.916 1406.66,674.916 1406.66,520.114 1373.13,520.114 "/>
<path clip-path="url(#clip432)" d="M1406.66 393.808 L1406.66 674.916 L1440.2 674.916 L1440.2 393.808 L1406.66 393.808 L1406.66 393.808  Z" fill="#009af9" fill-rule="evenodd" fill-opacity="1"/>
<polyline clip-path="url(#clip432)" style="stroke:#000000; stroke-linecap:round; stroke-linejoin:round; stroke-width:4; stroke-opacity:1; fill:none" points="1406.66,393.808 1406.66,674.916 1440.2,674.916 1440.2,393.808 1406.66,393.808 "/>
<path clip-path="url(#clip432)" d="M1440.2 246.845 L1440.2 674.916 L1473.73 674.916 L1473.73 246.845 L1440.2 246.845 L1440.2 246.845  Z" fill="#009af9" fill-rule="evenodd" fill-opacity="1"/>
<polyline clip-path="url(#clip432)" style="stroke:#000000; stroke-linecap:round; stroke-linejoin:round; stroke-width:4; stroke-opacity:1; fill:none" points="1440.2,246.845 1440.2,674.916 1473.73,674.916 1473.73,246.845 1440.2,246.845 "/>
<path clip-path="url(#clip432)" d="M1473.73 110.957 L1473.73 674.916 L1507.27 674.916 L1507.27 110.957 L1473.73 110.957 L1473.73 110.957  Z" fill="#009af9" fill-rule="evenodd" fill-opacity="1"/>
<polyline clip-path="url(#clip432)" style="stroke:#000000; stroke-linecap:round; stroke-linejoin:round; stroke-width:4; stroke-opacity:1; fill:none" points="1473.73,110.957 1473.73,674.916 1507.27,674.916 1507.27,110.957 1473.73,110.957 "/>
<path clip-path="url(#clip432)" d="M1507.27 47.2441 L1507.27 674.916 L1540.8 674.916 L1540.8 47.2441 L1507.27 47.2441 L1507.27 47.2441  Z" fill="#009af9" fill-rule="evenodd" fill-opacity="1"/>
<polyline clip-path="url(#clip432)" style="stroke:#000000; stroke-linecap:round; stroke-linejoin:round; stroke-width:4; stroke-opacity:1; fill:none" points="1507.27,47.2441 1507.27,674.916 1540.8,674.916 1540.8,47.2441 1507.27,47.2441 "/>
<path clip-path="url(#clip432)" d="M1540.8 76.4873 L1540.8 674.916 L1574.34 674.916 L1574.34 76.4873 L1540.8 76.4873 L1540.8 76.4873  Z" fill="#009af9" fill-rule="evenodd" fill-opacity="1"/>
<polyline clip-path="url(#clip432)" style="stroke:#000000; stroke-linecap:round; stroke-linejoin:round; stroke-width:4; stroke-opacity:1; fill:none" points="1540.8,76.4873 1540.8,674.916 1574.34,674.916 1574.34,76.4873 1540.8,76.4873 "/>
<path clip-path="url(#clip432)" d="M1574.34 178.403 L1574.34 674.916 L1607.87 674.916 L1607.87 178.403 L1574.34 178.403 L1574.34 178.403  Z" fill="#009af9" fill-rule="evenodd" fill-opacity="1"/>
<polyline clip-path="url(#clip432)" style="stroke:#000000; stroke-linecap:round; stroke-linejoin:round; stroke-width:4; stroke-opacity:1; fill:none" points="1574.34,178.403 1574.34,674.916 1607.87,674.916 1607.87,178.403 1574.34,178.403 "/>
<path clip-path="url(#clip432)" d="M1607.87 332.583 L1607.87 674.916 L1641.41 674.916 L1641.41 332.583 L1607.87 332.583 L1607.87 332.583  Z" fill="#009af9" fill-rule="evenodd" fill-opacity="1"/>
<polyline clip-path="url(#clip432)" style="stroke:#000000; stroke-linecap:round; stroke-linejoin:round; stroke-width:4; stroke-opacity:1; fill:none" points="1607.87,332.583 1607.87,674.916 1641.41,674.916 1641.41,332.583 1607.87,332.583 "/>
<path clip-path="url(#clip432)" d="M1641.41 472.827 L1641.41 674.916 L1674.94 674.916 L1674.94 472.827 L1641.41 472.827 L1641.41 472.827  Z" fill="#009af9" fill-rule="evenodd" fill-opacity="1"/>
<polyline clip-path="url(#clip432)" style="stroke:#000000; stroke-linecap:round; stroke-linejoin:round; stroke-width:4; stroke-opacity:1; fill:none" points="1641.41,472.827 1641.41,674.916 1674.94,674.916 1674.94,472.827 1641.41,472.827 "/>
<path clip-path="url(#clip432)" d="M1674.94 582.582 L1674.94 674.916 L1708.48 674.916 L1708.48 582.582 L1674.94 582.582 L1674.94 582.582  Z" fill="#009af9" fill-rule="evenodd" fill-opacity="1"/>
<polyline clip-path="url(#clip432)" style="stroke:#000000; stroke-linecap:round; stroke-linejoin:round; stroke-width:4; stroke-opacity:1; fill:none" points="1674.94,582.582 1674.94,674.916 1708.48,674.916 1708.48,582.582 1674.94,582.582 "/>
<path clip-path="url(#clip432)" d="M1708.48 641.566 L1708.48 674.916 L1742.01 674.916 L1742.01 641.566 L1708.48 641.566 L1708.48 641.566  Z" fill="#009af9" fill-rule="evenodd" fill-opacity="1"/>
<polyline clip-path="url(#clip432)" style="stroke:#000000; stroke-linecap:round; stroke-linejoin:round; stroke-width:4; stroke-opacity:1; fill:none" points="1708.48,641.566 1708.48,674.916 1742.01,674.916 1742.01,641.566 1708.48,641.566 "/>
<path clip-path="url(#clip432)" d="M1742.01 661.228 L1742.01 674.916 L1775.55 674.916 L1775.55 661.228 L1742.01 661.228 L1742.01 661.228  Z" fill="#009af9" fill-rule="evenodd" fill-opacity="1"/>
<polyline clip-path="url(#clip432)" style="stroke:#000000; stroke-linecap:round; stroke-linejoin:round; stroke-width:4; stroke-opacity:1; fill:none" points="1742.01,661.228 1742.01,674.916 1775.55,674.916 1775.55,661.228 1742.01,661.228 "/>
<path clip-path="url(#clip432)" d="M1775.55 643.06 L1775.55 674.916 L1809.08 674.916 L1809.08 643.06 L1775.55 643.06 L1775.55 643.06  Z" fill="#009af9" fill-rule="evenodd" fill-opacity="1"/>
<polyline clip-path="url(#clip432)" style="stroke:#000000; stroke-linecap:round; stroke-linejoin:round; stroke-width:4; stroke-opacity:1; fill:none" points="1775.55,643.06 1775.55,674.916 1809.08,674.916 1809.08,643.06 1775.55,643.06 "/>
<path clip-path="url(#clip432)" d="M1809.08 586.191 L1809.08 674.916 L1842.62 674.916 L1842.62 586.191 L1809.08 586.191 L1809.08 586.191  Z" fill="#009af9" fill-rule="evenodd" fill-opacity="1"/>
<polyline clip-path="url(#clip432)" style="stroke:#000000; stroke-linecap:round; stroke-linejoin:round; stroke-width:4; stroke-opacity:1; fill:none" points="1809.08,586.191 1809.08,674.916 1842.62,674.916 1842.62,586.191 1809.08,586.191 "/>
<path clip-path="url(#clip432)" d="M1842.62 498.586 L1842.62 674.916 L1876.15 674.916 L1876.15 498.586 L1842.62 498.586 L1842.62 498.586  Z" fill="#009af9" fill-rule="evenodd" fill-opacity="1"/>
<polyline clip-path="url(#clip432)" style="stroke:#000000; stroke-linecap:round; stroke-linejoin:round; stroke-width:4; stroke-opacity:1; fill:none" points="1842.62,498.586 1842.62,674.916 1876.15,674.916 1876.15,498.586 1842.62,498.586 "/>
<path clip-path="url(#clip432)" d="M1876.15 388.208 L1876.15 674.916 L1909.69 674.916 L1909.69 388.208 L1876.15 388.208 L1876.15 388.208  Z" fill="#009af9" fill-rule="evenodd" fill-opacity="1"/>
<polyline clip-path="url(#clip432)" style="stroke:#000000; stroke-linecap:round; stroke-linejoin:round; stroke-width:4; stroke-opacity:1; fill:none" points="1876.15,388.208 1876.15,674.916 1909.69,674.916 1909.69,388.208 1876.15,388.208 "/>
<path clip-path="url(#clip432)" d="M1909.69 278.95 L1909.69 674.916 L1943.23 674.916 L1943.23 278.95 L1909.69 278.95 L1909.69 278.95  Z" fill="#009af9" fill-rule="evenodd" fill-opacity="1"/>
<polyline clip-path="url(#clip432)" style="stroke:#000000; stroke-linecap:round; stroke-linejoin:round; stroke-width:4; stroke-opacity:1; fill:none" points="1909.69,278.95 1909.69,674.916 1943.23,674.916 1943.23,278.95 1909.69,278.95 "/>
<path clip-path="url(#clip432)" d="M1943.23 217.228 L1943.23 674.916 L1976.76 674.916 L1976.76 217.228 L1943.23 217.228 L1943.23 217.228  Z" fill="#009af9" fill-rule="evenodd" fill-opacity="1"/>
<polyline clip-path="url(#clip432)" style="stroke:#000000; stroke-linecap:round; stroke-linejoin:round; stroke-width:4; stroke-opacity:1; fill:none" points="1943.23,217.228 1943.23,674.916 1976.76,674.916 1976.76,217.228 1943.23,217.228 "/>
<path clip-path="url(#clip432)" d="M1976.76 235.147 L1976.76 674.916 L2010.3 674.916 L2010.3 235.147 L1976.76 235.147 L1976.76 235.147  Z" fill="#009af9" fill-rule="evenodd" fill-opacity="1"/>
<polyline clip-path="url(#clip432)" style="stroke:#000000; stroke-linecap:round; stroke-linejoin:round; stroke-width:4; stroke-opacity:1; fill:none" points="1976.76,235.147 1976.76,674.916 2010.3,674.916 2010.3,235.147 1976.76,235.147 "/>
<path clip-path="url(#clip432)" d="M2010.3 290.896 L2010.3 674.916 L2043.83 674.916 L2043.83 290.896 L2010.3 290.896 L2010.3 290.896  Z" fill="#009af9" fill-rule="evenodd" fill-opacity="1"/>
<polyline clip-path="url(#clip432)" style="stroke:#000000; stroke-linecap:round; stroke-linejoin:round; stroke-width:4; stroke-opacity:1; fill:none" points="2010.3,290.896 2010.3,674.916 2043.83,674.916 2043.83,290.896 2010.3,290.896 "/>
<path clip-path="url(#clip432)" d="M2043.83 397.416 L2043.83 674.916 L2077.37 674.916 L2077.37 397.416 L2043.83 397.416 L2043.83 397.416  Z" fill="#009af9" fill-rule="evenodd" fill-opacity="1"/>
<polyline clip-path="url(#clip432)" style="stroke:#000000; stroke-linecap:round; stroke-linejoin:round; stroke-width:4; stroke-opacity:1; fill:none" points="2043.83,397.416 2043.83,674.916 2077.37,674.916 2077.37,397.416 2043.83,397.416 "/>
<path clip-path="url(#clip432)" d="M2077.37 503.19 L2077.37 674.916 L2110.9 674.916 L2110.9 503.19 L2077.37 503.19 L2077.37 503.19  Z" fill="#009af9" fill-rule="evenodd" fill-opacity="1"/>
<polyline clip-path="url(#clip432)" style="stroke:#000000; stroke-linecap:round; stroke-linejoin:round; stroke-width:4; stroke-opacity:1; fill:none" points="2077.37,503.19 2077.37,674.916 2110.9,674.916 2110.9,503.19 2077.37,503.19 "/>
<path clip-path="url(#clip432)" d="M2110.9 589.675 L2110.9 674.916 L2144.44 674.916 L2144.44 589.675 L2110.9 589.675 L2110.9 589.675  Z" fill="#009af9" fill-rule="evenodd" fill-opacity="1"/>
<polyline clip-path="url(#clip432)" style="stroke:#000000; stroke-linecap:round; stroke-linejoin:round; stroke-width:4; stroke-opacity:1; fill:none" points="2110.9,589.675 2110.9,674.916 2144.44,674.916 2144.44,589.675 2110.9,589.675 "/>
<path clip-path="url(#clip432)" d="M2144.44 644.428 L2144.44 674.916 L2177.97 674.916 L2177.97 644.428 L2144.44 644.428 L2144.44 644.428  Z" fill="#009af9" fill-rule="evenodd" fill-opacity="1"/>
<polyline clip-path="url(#clip432)" style="stroke:#000000; stroke-linecap:round; stroke-linejoin:round; stroke-width:4; stroke-opacity:1; fill:none" points="2144.44,644.428 2144.44,674.916 2177.97,674.916 2177.97,644.428 2144.44,644.428 "/>
<path clip-path="url(#clip432)" d="M2177.97 669.316 L2177.97 674.916 L2211.51 674.916 L2211.51 669.316 L2177.97 669.316 L2177.97 669.316  Z" fill="#009af9" fill-rule="evenodd" fill-opacity="1"/>
<polyline clip-path="url(#clip432)" style="stroke:#000000; stroke-linecap:round; stroke-linejoin:round; stroke-width:4; stroke-opacity:1; fill:none" points="2177.97,669.316 2177.97,674.916 2211.51,674.916 2211.51,669.316 2177.97,669.316 "/>
<path clip-path="url(#clip432)" d="M2211.51 674.543 L2211.51 674.916 L2245.04 674.916 L2245.04 674.543 L2211.51 674.543 L2211.51 674.543  Z" fill="#009af9" fill-rule="evenodd" fill-opacity="1"/>
<polyline clip-path="url(#clip432)" style="stroke:#000000; stroke-linecap:round; stroke-linejoin:round; stroke-width:4; stroke-opacity:1; fill:none" points="2211.51,674.543 2211.51,674.916 2245.04,674.916 2245.04,674.543 2211.51,674.543 "/>
<path clip-path="url(#clip432)" d="M2245.04 674.916 L2245.04 674.916 L2278.58 674.916 L2278.58 674.916 L2245.04 674.916 L2245.04 674.916  Z" fill="#009af9" fill-rule="evenodd" fill-opacity="1"/>
<polyline clip-path="url(#clip432)" style="stroke:#000000; stroke-linecap:round; stroke-linejoin:round; stroke-width:4; stroke-opacity:1; fill:none" points="2245.04,674.916 2245.04,674.916 2278.58,674.916 2245.04,674.916 "/>
<path clip-path="url(#clip432)" d="M2278.58 674.916 L2278.58 674.916 L2312.11 674.916 L2312.11 674.916 L2278.58 674.916 L2278.58 674.916  Z" fill="#009af9" fill-rule="evenodd" fill-opacity="1"/>
<polyline clip-path="url(#clip432)" style="stroke:#000000; stroke-linecap:round; stroke-linejoin:round; stroke-width:4; stroke-opacity:1; fill:none" points="2278.58,674.916 2278.58,674.916 2312.11,674.916 2278.58,674.916 "/>
<path clip-path="url(#clip432)" d="M2312.11 674.916 L2312.11 674.916 L2345.65 674.916 L2345.65 674.916 L2312.11 674.916 L2312.11 674.916  Z" fill="#009af9" fill-rule="evenodd" fill-opacity="1"/>
<polyline clip-path="url(#clip432)" style="stroke:#000000; stroke-linecap:round; stroke-linejoin:round; stroke-width:4; stroke-opacity:1; fill:none" points="2312.11,674.916 2312.11,674.916 2345.65,674.916 2312.11,674.916 "/>
<path clip-path="url(#clip432)" d="M2345.65 674.916 L2345.65 674.916 L2379.18 674.916 L2379.18 674.916 L2345.65 674.916 L2345.65 674.916  Z" fill="#009af9" fill-rule="evenodd" fill-opacity="1"/>
<polyline clip-path="url(#clip432)" style="stroke:#000000; stroke-linecap:round; stroke-linejoin:round; stroke-width:4; stroke-opacity:1; fill:none" points="2345.65,674.916 2345.65,674.916 2379.18,674.916 2345.65,674.916 "/>
<path clip-path="url(#clip432)" d="M2379.18 674.667 L2379.18 674.916 L2412.72 674.916 L2412.72 674.667 L2379.18 674.667 L2379.18 674.667  Z" fill="#009af9" fill-rule="evenodd" fill-opacity="1"/>
<polyline clip-path="url(#clip432)" style="stroke:#000000; stroke-linecap:round; stroke-linejoin:round; stroke-width:4; stroke-opacity:1; fill:none" points="2379.18,674.667 2379.18,674.916 2412.72,674.916 2412.72,674.667 2379.18,674.667 "/>
<path clip-path="url(#clip432)" d="M2412.72 654.632 L2412.72 674.916 L2446.25 674.916 L2446.25 654.632 L2412.72 654.632 L2412.72 654.632  Z" fill="#009af9" fill-rule="evenodd" fill-opacity="1"/>
<polyline clip-path="url(#clip432)" style="stroke:#000000; stroke-linecap:round; stroke-linejoin:round; stroke-width:4; stroke-opacity:1; fill:none" points="2412.72,654.632 2412.72,674.916 2446.25,674.916 2446.25,654.632 2412.72,654.632 "/>
<path clip-path="url(#clip432)" d="M2446.25 622.154 L2446.25 674.916 L2479.79 674.916 L2479.79 622.154 L2446.25 622.154 L2446.25 622.154  Z" fill="#009af9" fill-rule="evenodd" fill-opacity="1"/>
<polyline clip-path="url(#clip432)" style="stroke:#000000; stroke-linecap:round; stroke-linejoin:round; stroke-width:4; stroke-opacity:1; fill:none" points="2446.25,622.154 2446.25,674.916 2479.79,674.916 2479.79,622.154 2446.25,622.154 "/>
<path clip-path="url(#clip432)" d="M2479.79 596.644 L2479.79 674.916 L2513.32 674.916 L2513.32 596.644 L2479.79 596.644 L2479.79 596.644  Z" fill="#009af9" fill-rule="evenodd" fill-opacity="1"/>
<polyline clip-path="url(#clip432)" style="stroke:#000000; stroke-linecap:round; stroke-linejoin:round; stroke-width:4; stroke-opacity:1; fill:none" points="2479.79,596.644 2479.79,674.916 2513.32,674.916 2513.32,596.644 2479.79,596.644 "/>
<path clip-path="url(#clip432)" d="M2513.32 560.432 L2513.32 674.916 L2546.86 674.916 L2546.86 560.432 L2513.32 560.432 L2513.32 560.432  Z" fill="#009af9" fill-rule="evenodd" fill-opacity="1"/>
<polyline clip-path="url(#clip432)" style="stroke:#000000; stroke-linecap:round; stroke-linejoin:round; stroke-width:4; stroke-opacity:1; fill:none" points="2513.32,560.432 2513.32,674.916 2546.86,674.916 2546.86,560.432 2513.32,560.432 "/>
<path clip-path="url(#clip432)" d="M2546.86 539.526 L2546.86 674.916 L2580.39 674.916 L2580.39 539.526 L2546.86 539.526 L2546.86 539.526  Z" fill="#009af9" fill-rule="evenodd" fill-opacity="1"/>
<polyline clip-path="url(#clip432)" style="stroke:#000000; stroke-linecap:round; stroke-linejoin:round; stroke-width:4; stroke-opacity:1; fill:none" points="2546.86,539.526 2546.86,674.916 2580.39,674.916 2580.39,539.526 2546.86,539.526 "/>
<path clip-path="url(#clip432)" d="M2580.39 516.505 L2580.39 674.916 L2613.93 674.916 L2613.93 516.505 L2580.39 516.505 L2580.39 516.505  Z" fill="#009af9" fill-rule="evenodd" fill-opacity="1"/>
<polyline clip-path="url(#clip432)" style="stroke:#000000; stroke-linecap:round; stroke-linejoin:round; stroke-width:4; stroke-opacity:1; fill:none" points="2580.39,516.505 2580.39,674.916 2613.93,674.916 2613.93,516.505 2580.39,516.505 "/>
<path clip-path="url(#clip432)" d="M2613.93 530.815 L2613.93 674.916 L2647.46 674.916 L2647.46 530.815 L2613.93 530.815 L2613.93 530.815  Z" fill="#009af9" fill-rule="evenodd" fill-opacity="1"/>
<polyline clip-path="url(#clip432)" style="stroke:#000000; stroke-linecap:round; stroke-linejoin:round; stroke-width:4; stroke-opacity:1; fill:none" points="2613.93,530.815 2613.93,674.916 2647.46,674.916 2647.46,530.815 2613.93,530.815 "/>
<path clip-path="url(#clip432)" d="M2647.46 565.409 L2647.46 674.916 L2681 674.916 L2681 565.409 L2647.46 565.409 L2647.46 565.409  Z" fill="#009af9" fill-rule="evenodd" fill-opacity="1"/>
<polyline clip-path="url(#clip432)" style="stroke:#000000; stroke-linecap:round; stroke-linejoin:round; stroke-width:4; stroke-opacity:1; fill:none" points="2647.46,565.409 2647.46,674.916 2681,674.916 2681,565.409 2647.46,565.409 "/>
<path clip-path="url(#clip432)" d="M2681 590.546 L2681 674.916 L2714.53 674.916 L2714.53 590.546 L2681 590.546 L2681 590.546  Z" fill="#009af9" fill-rule="evenodd" fill-opacity="1"/>
<polyline clip-path="url(#clip432)" style="stroke:#000000; stroke-linecap:round; stroke-linejoin:round; stroke-width:4; stroke-opacity:1; fill:none" points="2681,590.546 2681,674.916 2714.53,674.916 2714.53,590.546 2681,590.546 "/>
<path clip-path="url(#clip432)" d="M2714.53 608.092 L2714.53 674.916 L2748.07 674.916 L2748.07 608.092 L2714.53 608.092 L2714.53 608.092  Z" fill="#009af9" fill-rule="evenodd" fill-opacity="1"/>
<polyline clip-path="url(#clip432)" style="stroke:#000000; stroke-linecap:round; stroke-linejoin:round; stroke-width:4; stroke-opacity:1; fill:none" points="2714.53,608.092 2714.53,674.916 2748.07,674.916 2748.07,608.092 2714.53,608.092 "/>
<path clip-path="url(#clip432)" d="M2748.07 610.332 L2748.07 674.916 L2781.6 674.916 L2781.6 610.332 L2748.07 610.332 L2748.07 610.332  Z" fill="#009af9" fill-rule="evenodd" fill-opacity="1"/>
<polyline clip-path="url(#clip432)" style="stroke:#000000; stroke-linecap:round; stroke-linejoin:round; stroke-width:4; stroke-opacity:1; fill:none" points="2748.07,610.332 2748.07,674.916 2781.6,674.916 2781.6,610.332 2748.07,610.332 "/>
<path clip-path="url(#clip432)" d="M2781.6 592.911 L2781.6 674.916 L2815.14 674.916 L2815.14 592.911 L2781.6 592.911 L2781.6 592.911  Z" fill="#009af9" fill-rule="evenodd" fill-opacity="1"/>
<polyline clip-path="url(#clip432)" style="stroke:#000000; stroke-linecap:round; stroke-linejoin:round; stroke-width:4; stroke-opacity:1; fill:none" points="2781.6,592.911 2781.6,674.916 2815.14,674.916 2815.14,592.911 2781.6,592.911 "/>
<path clip-path="url(#clip432)" d="M2815.14 534.673 L2815.14 674.916 L2848.67 674.916 L2848.67 534.673 L2815.14 534.673 L2815.14 534.673  Z" fill="#009af9" fill-rule="evenodd" fill-opacity="1"/>
<polyline clip-path="url(#clip432)" style="stroke:#000000; stroke-linecap:round; stroke-linejoin:round; stroke-width:4; stroke-opacity:1; fill:none" points="2815.14,534.673 2815.14,674.916 2848.67,674.916 2848.67,534.673 2815.14,534.673 "/>
<path clip-path="url(#clip432)" d="M2848.67 477.804 L2848.67 674.916 L2882.21 674.916 L2882.21 477.804 L2848.67 477.804 L2848.67 477.804  Z" fill="#009af9" fill-rule="evenodd" fill-opacity="1"/>
<polyline clip-path="url(#clip432)" style="stroke:#000000; stroke-linecap:round; stroke-linejoin:round; stroke-width:4; stroke-opacity:1; fill:none" points="2848.67,477.804 2848.67,674.916 2882.21,674.916 2882.21,477.804 2848.67,477.804 "/>
<path clip-path="url(#clip432)" d="M2882.21 419.691 L2882.21 674.916 L2915.74 674.916 L2915.74 419.691 L2882.21 419.691 L2882.21 419.691  Z" fill="#009af9" fill-rule="evenodd" fill-opacity="1"/>
<polyline clip-path="url(#clip432)" style="stroke:#000000; stroke-linecap:round; stroke-linejoin:round; stroke-width:4; stroke-opacity:1; fill:none" points="2882.21,419.691 2882.21,674.916 2915.74,674.916 2915.74,419.691 2882.21,419.691 "/>
<path clip-path="url(#clip432)" d="M2915.74 407.372 L2915.74 674.916 L2949.28 674.916 L2949.28 407.372 L2915.74 407.372 L2915.74 407.372  Z" fill="#009af9" fill-rule="evenodd" fill-opacity="1"/>
<polyline clip-path="url(#clip432)" style="stroke:#000000; stroke-linecap:round; stroke-linejoin:round; stroke-width:4; stroke-opacity:1; fill:none" points="2915.74,407.372 2915.74,674.916 2949.28,674.916 2949.28,407.372 2915.74,407.372 "/>
<path clip-path="url(#clip432)" d="M2949.28 435.868 L2949.28 674.916 L2982.81 674.916 L2982.81 435.868 L2949.28 435.868 L2949.28 435.868  Z" fill="#009af9" fill-rule="evenodd" fill-opacity="1"/>
<polyline clip-path="url(#clip432)" style="stroke:#000000; stroke-linecap:round; stroke-linejoin:round; stroke-width:4; stroke-opacity:1; fill:none" points="2949.28,435.868 2949.28,674.916 2982.81,674.916 2982.81,435.868 2949.28,435.868 "/>
<circle clip-path="url(#clip432)" style="fill:#009af9; stroke:none; fill-opacity:0" cx="249.702" cy="674.418" r="2"/>
<circle clip-path="url(#clip432)" style="fill:#009af9; stroke:none; fill-opacity:0" cx="283.237" cy="672.801" r="2"/>
<circle clip-path="url(#clip432)" style="fill:#009af9; stroke:none; fill-opacity:0" cx="316.772" cy="658.615" r="2"/>
<circle clip-path="url(#clip432)" style="fill:#009af9; stroke:none; fill-opacity:0" cx="350.308" cy="627.131" r="2"/>
<circle clip-path="url(#clip432)" style="fill:#009af9; stroke:none; fill-opacity:0" cx="383.843" cy="563.792" r="2"/>
<circle clip-path="url(#clip432)" style="fill:#009af9; stroke:none; fill-opacity:0" cx="417.378" cy="465.858" r="2"/>
<circle clip-path="url(#clip432)" style="fill:#009af9; stroke:none; fill-opacity:0" cx="450.913" cy="304.834" r="2"/>
<circle clip-path="url(#clip432)" style="fill:#009af9; stroke:none; fill-opacity:0" cx="484.448" cy="196.945" r="2"/>
<circle clip-path="url(#clip432)" style="fill:#009af9; stroke:none; fill-opacity:0" cx="517.983" cy="123.028" r="2"/>
<circle clip-path="url(#clip432)" style="fill:#009af9; stroke:none; fill-opacity:0" cx="551.518" cy="119.792" r="2"/>
<circle clip-path="url(#clip432)" style="fill:#009af9; stroke:none; fill-opacity:0" cx="585.053" cy="189.354" r="2"/>
<circle clip-path="url(#clip432)" style="fill:#009af9; stroke:none; fill-opacity:0" cx="618.588" cy="350.378" r="2"/>
<circle clip-path="url(#clip432)" style="fill:#009af9; stroke:none; fill-opacity:0" cx="652.123" cy="484.151" r="2"/>
<circle clip-path="url(#clip432)" style="fill:#009af9; stroke:none; fill-opacity:0" cx="685.659" cy="583.453" r="2"/>
<circle clip-path="url(#clip432)" style="fill:#009af9; stroke:none; fill-opacity:0" cx="719.194" cy="633.104" r="2"/>
<circle clip-path="url(#clip432)" style="fill:#009af9; stroke:none; fill-opacity:0" cx="752.729" cy="664.214" r="2"/>
<circle clip-path="url(#clip432)" style="fill:#009af9; stroke:none; fill-opacity:0" cx="786.264" cy="672.303" r="2"/>
<circle clip-path="url(#clip432)" style="fill:#009af9; stroke:none; fill-opacity:0" cx="819.799" cy="674.916" r="2"/>
<circle clip-path="url(#clip432)" style="fill:#009af9; stroke:none; fill-opacity:0" cx="853.334" cy="674.916" r="2"/>
<circle clip-path="url(#clip432)" style="fill:#009af9; stroke:none; fill-opacity:0" cx="886.869" cy="674.916" r="2"/>
<circle clip-path="url(#clip432)" style="fill:#009af9; stroke:none; fill-opacity:0" cx="920.404" cy="674.916" r="2"/>
<circle clip-path="url(#clip432)" style="fill:#009af9; stroke:none; fill-opacity:0" cx="953.939" cy="674.916" r="2"/>
<circle clip-path="url(#clip432)" style="fill:#009af9; stroke:none; fill-opacity:0" cx="987.475" cy="674.916" r="2"/>
<circle clip-path="url(#clip432)" style="fill:#009af9; stroke:none; fill-opacity:0" cx="1021.01" cy="674.916" r="2"/>
<circle clip-path="url(#clip432)" style="fill:#009af9; stroke:none; fill-opacity:0" cx="1054.54" cy="674.916" r="2"/>
<circle clip-path="url(#clip432)" style="fill:#009af9; stroke:none; fill-opacity:0" cx="1088.08" cy="674.916" r="2"/>
<circle clip-path="url(#clip432)" style="fill:#009af9; stroke:none; fill-opacity:0" cx="1121.61" cy="674.916" r="2"/>
<circle clip-path="url(#clip432)" style="fill:#009af9; stroke:none; fill-opacity:0" cx="1155.15" cy="674.916" r="2"/>
<circle clip-path="url(#clip432)" style="fill:#009af9; stroke:none; fill-opacity:0" cx="1188.69" cy="674.916" r="2"/>
<circle clip-path="url(#clip432)" style="fill:#009af9; stroke:none; fill-opacity:0" cx="1222.22" cy="674.916" r="2"/>
<circle clip-path="url(#clip432)" style="fill:#009af9; stroke:none; fill-opacity:0" cx="1255.76" cy="674.916" r="2"/>
<circle clip-path="url(#clip432)" style="fill:#009af9; stroke:none; fill-opacity:0" cx="1289.29" cy="672.303" r="2"/>
<circle clip-path="url(#clip432)" style="fill:#009af9; stroke:none; fill-opacity:0" cx="1322.83" cy="658.988" r="2"/>
<circle clip-path="url(#clip432)" style="fill:#009af9; stroke:none; fill-opacity:0" cx="1356.36" cy="615.683" r="2"/>
<circle clip-path="url(#clip432)" style="fill:#009af9; stroke:none; fill-opacity:0" cx="1389.9" cy="520.114" r="2"/>
<circle clip-path="url(#clip432)" style="fill:#009af9; stroke:none; fill-opacity:0" cx="1423.43" cy="393.808" r="2"/>
<circle clip-path="url(#clip432)" style="fill:#009af9; stroke:none; fill-opacity:0" cx="1456.97" cy="246.845" r="2"/>
<circle clip-path="url(#clip432)" style="fill:#009af9; stroke:none; fill-opacity:0" cx="1490.5" cy="110.957" r="2"/>
<circle clip-path="url(#clip432)" style="fill:#009af9; stroke:none; fill-opacity:0" cx="1524.04" cy="47.2441" r="2"/>
<circle clip-path="url(#clip432)" style="fill:#009af9; stroke:none; fill-opacity:0" cx="1557.57" cy="76.4873" r="2"/>
<circle clip-path="url(#clip432)" style="fill:#009af9; stroke:none; fill-opacity:0" cx="1591.11" cy="178.403" r="2"/>
<circle clip-path="url(#clip432)" style="fill:#009af9; stroke:none; fill-opacity:0" cx="1624.64" cy="332.583" r="2"/>
<circle clip-path="url(#clip432)" style="fill:#009af9; stroke:none; fill-opacity:0" cx="1658.18" cy="472.827" r="2"/>
<circle clip-path="url(#clip432)" style="fill:#009af9; stroke:none; fill-opacity:0" cx="1691.71" cy="582.582" r="2"/>
<circle clip-path="url(#clip432)" style="fill:#009af9; stroke:none; fill-opacity:0" cx="1725.25" cy="641.566" r="2"/>
<circle clip-path="url(#clip432)" style="fill:#009af9; stroke:none; fill-opacity:0" cx="1758.78" cy="661.228" r="2"/>
<circle clip-path="url(#clip432)" style="fill:#009af9; stroke:none; fill-opacity:0" cx="1792.32" cy="643.06" r="2"/>
<circle clip-path="url(#clip432)" style="fill:#009af9; stroke:none; fill-opacity:0" cx="1825.85" cy="586.191" r="2"/>
<circle clip-path="url(#clip432)" style="fill:#009af9; stroke:none; fill-opacity:0" cx="1859.39" cy="498.586" r="2"/>
<circle clip-path="url(#clip432)" style="fill:#009af9; stroke:none; fill-opacity:0" cx="1892.92" cy="388.208" r="2"/>
<circle clip-path="url(#clip432)" style="fill:#009af9; stroke:none; fill-opacity:0" cx="1926.46" cy="278.95" r="2"/>
<circle clip-path="url(#clip432)" style="fill:#009af9; stroke:none; fill-opacity:0" cx="1959.99" cy="217.228" r="2"/>
<circle clip-path="url(#clip432)" style="fill:#009af9; stroke:none; fill-opacity:0" cx="1993.53" cy="235.147" r="2"/>
<circle clip-path="url(#clip432)" style="fill:#009af9; stroke:none; fill-opacity:0" cx="2027.06" cy="290.896" r="2"/>
<circle clip-path="url(#clip432)" style="fill:#009af9; stroke:none; fill-opacity:0" cx="2060.6" cy="397.416" r="2"/>
<circle clip-path="url(#clip432)" style="fill:#009af9; stroke:none; fill-opacity:0" cx="2094.13" cy="503.19" r="2"/>
<circle clip-path="url(#clip432)" style="fill:#009af9; stroke:none; fill-opacity:0" cx="2127.67" cy="589.675" r="2"/>
<circle clip-path="url(#clip432)" style="fill:#009af9; stroke:none; fill-opacity:0" cx="2161.2" cy="644.428" r="2"/>
<circle clip-path="url(#clip432)" style="fill:#009af9; stroke:none; fill-opacity:0" cx="2194.74" cy="669.316" r="2"/>
<circle clip-path="url(#clip432)" style="fill:#009af9; stroke:none; fill-opacity:0" cx="2228.27" cy="674.543" r="2"/>
<circle clip-path="url(#clip432)" style="fill:#009af9; stroke:none; fill-opacity:0" cx="2261.81" cy="674.916" r="2"/>
<circle clip-path="url(#clip432)" style="fill:#009af9; stroke:none; fill-opacity:0" cx="2295.34" cy="674.916" r="2"/>
<circle clip-path="url(#clip432)" style="fill:#009af9; stroke:none; fill-opacity:0" cx="2328.88" cy="674.916" r="2"/>
<circle clip-path="url(#clip432)" style="fill:#009af9; stroke:none; fill-opacity:0" cx="2362.41" cy="674.916" r="2"/>
<circle clip-path="url(#clip432)" style="fill:#009af9; stroke:none; fill-opacity:0" cx="2395.95" cy="674.667" r="2"/>
<circle clip-path="url(#clip432)" style="fill:#009af9; stroke:none; fill-opacity:0" cx="2429.48" cy="654.632" r="2"/>
<circle clip-path="url(#clip432)" style="fill:#009af9; stroke:none; fill-opacity:0" cx="2463.02" cy="622.154" r="2"/>
<circle clip-path="url(#clip432)" style="fill:#009af9; stroke:none; fill-opacity:0" cx="2496.55" cy="596.644" r="2"/>
<circle clip-path="url(#clip432)" style="fill:#009af9; stroke:none; fill-opacity:0" cx="2530.09" cy="560.432" r="2"/>
<circle clip-path="url(#clip432)" style="fill:#009af9; stroke:none; fill-opacity:0" cx="2563.62" cy="539.526" r="2"/>
<circle clip-path="url(#clip432)" style="fill:#009af9; stroke:none; fill-opacity:0" cx="2597.16" cy="516.505" r="2"/>
<circle clip-path="url(#clip432)" style="fill:#009af9; stroke:none; fill-opacity:0" cx="2630.69" cy="530.815" r="2"/>
<circle clip-path="url(#clip432)" style="fill:#009af9; stroke:none; fill-opacity:0" cx="2664.23" cy="565.409" r="2"/>
<circle clip-path="url(#clip432)" style="fill:#009af9; stroke:none; fill-opacity:0" cx="2697.76" cy="590.546" r="2"/>
<circle clip-path="url(#clip432)" style="fill:#009af9; stroke:none; fill-opacity:0" cx="2731.3" cy="608.092" r="2"/>
<circle clip-path="url(#clip432)" style="fill:#009af9; stroke:none; fill-opacity:0" cx="2764.84" cy="610.332" r="2"/>
<circle clip-path="url(#clip432)" style="fill:#009af9; stroke:none; fill-opacity:0" cx="2798.37" cy="592.911" r="2"/>
<circle clip-path="url(#clip432)" style="fill:#009af9; stroke:none; fill-opacity:0" cx="2831.91" cy="534.673" r="2"/>
<circle clip-path="url(#clip432)" style="fill:#009af9; stroke:none; fill-opacity:0" cx="2865.44" cy="477.804" r="2"/>
<circle clip-path="url(#clip432)" style="fill:#009af9; stroke:none; fill-opacity:0" cx="2898.98" cy="419.691" r="2"/>
<circle clip-path="url(#clip432)" style="fill:#009af9; stroke:none; fill-opacity:0" cx="2932.51" cy="407.372" r="2"/>
<circle clip-path="url(#clip432)" style="fill:#009af9; stroke:none; fill-opacity:0" cx="2966.05" cy="435.868" r="2"/>
<polyline clip-path="url(#clip432)" style="stroke:#e26f46; stroke-linecap:round; stroke-linejoin:round; stroke-width:12; stroke-opacity:1; fill:none" points="535.596,1302.59 535.596,-580.428 "/>
<polyline clip-path="url(#clip432)" style="stroke:#e26f46; stroke-linecap:round; stroke-linejoin:round; stroke-width:12; stroke-opacity:1; fill:none" points="1533.83,1302.59 1533.83,-580.428 "/>
<polyline clip-path="url(#clip432)" style="stroke:#e26f46; stroke-linecap:round; stroke-linejoin:round; stroke-width:12; stroke-opacity:1; fill:none" points="1978.55,1302.59 1978.55,-580.428 "/>
<polyline clip-path="url(#clip432)" style="stroke:#e26f46; stroke-linecap:round; stroke-linejoin:round; stroke-width:12; stroke-opacity:1; fill:none" points="2585.69,1302.59 2585.69,-580.428 "/>
<polyline clip-path="url(#clip432)" style="stroke:#e26f46; stroke-linecap:round; stroke-linejoin:round; stroke-width:12; stroke-opacity:1; fill:none" points="2901.09,1302.59 2901.09,-580.428 "/>
<path clip-path="url(#clip430)" d="M2545.42 223.686 L3049.76 223.686 L3049.76 68.1665 L2545.42 68.1665  Z" fill="#ffffff" fill-rule="evenodd" fill-opacity="1"/>
<polyline clip-path="url(#clip430)" style="stroke:#000000; stroke-linecap:round; stroke-linejoin:round; stroke-width:4; stroke-opacity:1; fill:none" points="2545.42,223.686 3049.76,223.686 3049.76,68.1665 2545.42,68.1665 2545.42,223.686 "/>
<path clip-path="url(#clip430)" d="M2579.75 140.742 L2785.73 140.742 L2785.73 99.2705 L2579.75 99.2705 L2579.75 140.742  Z" fill="#009af9" fill-rule="evenodd" fill-opacity="1"/>
<polyline clip-path="url(#clip430)" style="stroke:#000000; stroke-linecap:round; stroke-linejoin:round; stroke-width:4; stroke-opacity:1; fill:none" points="2579.75,140.742 2785.73,140.742 2785.73,99.2705 2579.75,99.2705 2579.75,140.742 "/>
<path clip-path="url(#clip430)" d="M2835.25 115.342 Q2834.53 114.926 2833.67 114.74 Q2832.84 114.532 2831.82 114.532 Q2828.21 114.532 2826.27 116.893 Q2824.35 119.231 2824.35 123.629 L2824.35 137.286 L2820.06 137.286 L2820.06 111.361 L2824.35 111.361 L2824.35 115.388 Q2825.69 113.027 2827.84 111.893 Q2829.99 110.736 2833.07 110.736 Q2833.51 110.736 2834.05 110.805 Q2834.58 110.851 2835.23 110.967 L2835.25 115.342 Z" fill="#000000" fill-rule="nonzero" fill-opacity="1" /><path clip-path="url(#clip430)" d="M2855.94 115.296 L2855.94 101.268 L2860.2 101.268 L2860.2 137.286 L2855.94 137.286 L2855.94 133.398 Q2854.6 135.712 2852.54 136.847 Q2850.5 137.958 2847.63 137.958 Q2842.93 137.958 2839.97 134.208 Q2837.03 130.458 2837.03 124.347 Q2837.03 118.236 2839.97 114.486 Q2842.93 110.736 2847.63 110.736 Q2850.5 110.736 2852.54 111.87 Q2854.6 112.981 2855.94 115.296 M2841.43 124.347 Q2841.43 129.046 2843.35 131.731 Q2845.3 134.393 2848.67 134.393 Q2852.05 134.393 2854 131.731 Q2855.94 129.046 2855.94 124.347 Q2855.94 119.648 2854 116.986 Q2852.05 114.301 2848.67 114.301 Q2845.3 114.301 2843.35 116.986 Q2841.43 119.648 2841.43 124.347 Z" fill="#000000" fill-rule="nonzero" fill-opacity="1" /><path clip-path="url(#clip430)" d="M2882.1 101.268 L2882.1 104.81 L2878.03 104.81 Q2875.73 104.81 2874.83 105.736 Q2873.95 106.662 2873.95 109.069 L2873.95 111.361 L2880.97 111.361 L2880.97 114.671 L2873.95 114.671 L2873.95 137.286 L2869.67 137.286 L2869.67 114.671 L2865.6 114.671 L2865.6 111.361 L2869.67 111.361 L2869.67 109.555 Q2869.67 105.226 2871.68 103.259 Q2873.7 101.268 2878.07 101.268 L2882.1 101.268 Z" fill="#000000" fill-rule="nonzero" fill-opacity="1" /><polyline clip-path="url(#clip430)" style="stroke:#e26f46; stroke-linecap:round; stroke-linejoin:round; stroke-width:12; stroke-opacity:1; fill:none" points="2579.75,171.846 2785.73,171.846 "/>
<path clip-path="url(#clip430)" d="M2835.25 167.182 Q2834.53 166.766 2833.67 166.58 Q2832.84 166.372 2831.82 166.372 Q2828.21 166.372 2826.27 168.733 Q2824.35 171.071 2824.35 175.469 L2824.35 189.126 L2820.06 189.126 L2820.06 163.201 L2824.35 163.201 L2824.35 167.228 Q2825.69 164.867 2827.84 163.733 Q2829.99 162.576 2833.07 162.576 Q2833.51 162.576 2834.05 162.645 Q2834.58 162.691 2835.23 162.807 L2835.25 167.182 Z" fill="#000000" fill-rule="nonzero" fill-opacity="1" /><path clip-path="url(#clip430)" d="M2841.13 185.191 L2848.77 185.191 L2848.77 158.826 L2840.46 160.492 L2840.46 156.233 L2848.72 154.566 L2853.4 154.566 L2853.4 185.191 L2861.04 185.191 L2861.04 189.126 L2841.13 189.126 L2841.13 185.191 Z" fill="#000000" fill-rule="nonzero" fill-opacity="1" /><path clip-path="url(#clip430)" d="M2870.97 183.247 L2875.85 183.247 L2875.85 187.228 L2872.05 194.636 L2869.07 194.636 L2870.97 187.228 L2870.97 183.247 Z" fill="#000000" fill-rule="nonzero" fill-opacity="1" /><path clip-path="url(#clip430)" d="M2915.04 167.182 Q2914.32 166.766 2913.47 166.58 Q2912.63 166.372 2911.61 166.372 Q2908 166.372 2906.06 168.733 Q2904.14 171.071 2904.14 175.469 L2904.14 189.126 L2899.85 189.126 L2899.85 163.201 L2904.14 163.201 L2904.14 167.228 Q2905.48 164.867 2907.63 163.733 Q2909.79 162.576 2912.86 162.576 Q2913.3 162.576 2913.84 162.645 Q2914.37 162.691 2915.02 162.807 L2915.04 167.182 Z" fill="#000000" fill-rule="nonzero" fill-opacity="1" /><path clip-path="url(#clip430)" d="M2924.14 185.191 L2940.46 185.191 L2940.46 189.126 L2918.51 189.126 L2918.51 185.191 Q2921.17 182.437 2925.76 177.807 Q2930.36 173.154 2931.54 171.812 Q2933.79 169.289 2934.67 167.553 Q2935.57 165.793 2935.57 164.103 Q2935.57 161.349 2933.63 159.613 Q2931.71 157.877 2928.6 157.877 Q2926.41 157.877 2923.95 158.641 Q2921.52 159.404 2918.74 160.955 L2918.74 156.233 Q2921.57 155.099 2924.02 154.52 Q2926.48 153.941 2928.51 153.941 Q2933.88 153.941 2937.08 156.627 Q2940.27 159.312 2940.27 163.803 Q2940.27 165.932 2939.46 167.853 Q2938.67 169.752 2936.57 172.344 Q2935.99 173.015 2932.89 176.233 Q2929.79 179.427 2924.14 185.191 Z" fill="#000000" fill-rule="nonzero" fill-opacity="1" /><path clip-path="url(#clip430)" d="M2950.76 183.247 L2955.64 183.247 L2955.64 187.228 L2951.85 194.636 L2948.86 194.636 L2950.76 187.228 L2950.76 183.247 Z" fill="#000000" fill-rule="nonzero" fill-opacity="1" /><path clip-path="url(#clip430)" d="M2980.41 183.247 L2985.29 183.247 L2985.29 189.126 L2980.41 189.126 L2980.41 183.247 Z" fill="#000000" fill-rule="nonzero" fill-opacity="1" /><path clip-path="url(#clip430)" d="M2995.48 183.247 L3000.36 183.247 L3000.36 189.126 L2995.48 189.126 L2995.48 183.247 Z" fill="#000000" fill-rule="nonzero" fill-opacity="1" /><path clip-path="url(#clip430)" d="M3010.55 183.247 L3015.43 183.247 L3015.43 189.126 L3010.55 189.126 L3010.55 183.247 Z" fill="#000000" fill-rule="nonzero" fill-opacity="1" /><path clip-path="url(#clip430)" d="M62.9921 1481.87 L3152.76 1481.87 L3152.76 854.202 L62.9921 854.202  Z" fill="#ffffff" fill-rule="evenodd" fill-opacity="1"/>
<defs>
  <clipPath id="clip433">
    <rect x="62" y="854" width="3091" height="629"/>
  </clipPath>
</defs>
<polyline clip-path="url(#clip433)" style="stroke:#000000; stroke-linecap:round; stroke-linejoin:round; stroke-width:2; stroke-opacity:0.1; fill:none" points="62.9921,1481.87 62.9921,854.202 "/>
<polyline clip-path="url(#clip433)" style="stroke:#000000; stroke-linecap:round; stroke-linejoin:round; stroke-width:2; stroke-opacity:0.1; fill:none" points="1046.49,1481.87 1046.49,854.202 "/>
<polyline clip-path="url(#clip433)" style="stroke:#000000; stroke-linecap:round; stroke-linejoin:round; stroke-width:2; stroke-opacity:0.1; fill:none" points="2030,1481.87 2030,854.202 "/>
<polyline clip-path="url(#clip433)" style="stroke:#000000; stroke-linecap:round; stroke-linejoin:round; stroke-width:2; stroke-opacity:0.1; fill:none" points="3013.5,1481.87 3013.5,854.202 "/>
<polyline clip-path="url(#clip430)" style="stroke:#000000; stroke-linecap:round; stroke-linejoin:round; stroke-width:4; stroke-opacity:1; fill:none" points="62.9921,1481.87 3152.76,1481.87 "/>
<polyline clip-path="url(#clip430)" style="stroke:#000000; stroke-linecap:round; stroke-linejoin:round; stroke-width:4; stroke-opacity:1; fill:none" points="62.9921,1481.87 62.9921,1462.98 "/>
<polyline clip-path="url(#clip430)" style="stroke:#000000; stroke-linecap:round; stroke-linejoin:round; stroke-width:4; stroke-opacity:1; fill:none" points="1046.49,1481.87 1046.49,1462.98 "/>
<polyline clip-path="url(#clip430)" style="stroke:#000000; stroke-linecap:round; stroke-linejoin:round; stroke-width:4; stroke-opacity:1; fill:none" points="2030,1481.87 2030,1462.98 "/>
<polyline clip-path="url(#clip430)" style="stroke:#000000; stroke-linecap:round; stroke-linejoin:round; stroke-width:4; stroke-opacity:1; fill:none" points="3013.5,1481.87 3013.5,1462.98 "/>
<path clip-path="url(#clip430)" d="M62.9921 1519.19 Q59.381 1519.19 57.5523 1522.76 Q55.7468 1526.3 55.7468 1533.43 Q55.7468 1540.54 57.5523 1544.1 Q59.381 1547.64 62.9921 1547.64 Q66.6264 1547.64 68.4319 1544.1 Q70.2606 1540.54 70.2606 1533.43 Q70.2606 1526.3 68.4319 1522.76 Q66.6264 1519.19 62.9921 1519.19 M62.9921 1515.49 Q68.8023 1515.49 71.8578 1520.1 Q74.9365 1524.68 74.9365 1533.43 Q74.9365 1542.16 71.8578 1546.76 Q68.8023 1551.35 62.9921 1551.35 Q57.182 1551.35 54.1033 1546.76 Q51.0477 1542.16 51.0477 1533.43 Q51.0477 1524.68 54.1033 1520.1 Q57.182 1515.49 62.9921 1515.49 Z" fill="#000000" fill-rule="nonzero" fill-opacity="1" /><path clip-path="url(#clip430)" d="M1036.88 1546.74 L1044.52 1546.74 L1044.52 1520.37 L1036.21 1522.04 L1036.21 1517.78 L1044.47 1516.11 L1049.14 1516.11 L1049.14 1546.74 L1056.78 1546.74 L1056.78 1550.67 L1036.88 1550.67 L1036.88 1546.74 Z" fill="#000000" fill-rule="nonzero" fill-opacity="1" /><path clip-path="url(#clip430)" d="M2024.65 1546.74 L2040.97 1546.74 L2040.97 1550.67 L2019.02 1550.67 L2019.02 1546.74 Q2021.69 1543.98 2026.27 1539.36 Q2030.88 1534.7 2032.06 1533.36 Q2034.3 1530.84 2035.18 1529.1 Q2036.08 1527.34 2036.08 1525.65 Q2036.08 1522.9 2034.14 1521.16 Q2032.22 1519.42 2029.12 1519.42 Q2026.92 1519.42 2024.46 1520.19 Q2022.03 1520.95 2019.26 1522.5 L2019.26 1517.78 Q2022.08 1516.65 2024.53 1516.07 Q2026.99 1515.49 2029.02 1515.49 Q2034.39 1515.49 2037.59 1518.17 Q2040.78 1520.86 2040.78 1525.35 Q2040.78 1527.48 2039.97 1529.4 Q2039.19 1531.3 2037.08 1533.89 Q2036.5 1534.56 2033.4 1537.78 Q2030.3 1540.98 2024.65 1546.74 Z" fill="#000000" fill-rule="nonzero" fill-opacity="1" /><path clip-path="url(#clip430)" d="M3017.75 1532.04 Q3021.1 1532.76 3022.98 1535.03 Q3024.88 1537.29 3024.88 1540.63 Q3024.88 1545.74 3021.36 1548.54 Q3017.84 1551.35 3011.36 1551.35 Q3009.18 1551.35 3006.87 1550.91 Q3004.58 1550.49 3002.12 1549.63 L3002.12 1545.12 Q3004.07 1546.25 3006.38 1546.83 Q3008.7 1547.41 3011.22 1547.41 Q3015.62 1547.41 3017.91 1545.67 Q3020.22 1543.94 3020.22 1540.63 Q3020.22 1537.57 3018.07 1535.86 Q3015.94 1534.12 3012.12 1534.12 L3008.09 1534.12 L3008.09 1530.28 L3012.31 1530.28 Q3015.76 1530.28 3017.58 1528.92 Q3019.41 1527.53 3019.41 1524.93 Q3019.41 1522.27 3017.52 1520.86 Q3015.64 1519.42 3012.12 1519.42 Q3010.2 1519.42 3008 1519.84 Q3005.8 1520.26 3003.16 1521.14 L3003.16 1516.97 Q3005.83 1516.23 3008.14 1515.86 Q3010.48 1515.49 3012.54 1515.49 Q3017.86 1515.49 3020.96 1517.92 Q3024.07 1520.33 3024.07 1524.45 Q3024.07 1527.32 3022.42 1529.31 Q3020.78 1531.28 3017.75 1532.04 Z" fill="#000000" fill-rule="nonzero" fill-opacity="1" /><path clip-path="url(#clip430)" d="M1619.81 1599.9 Q1619.81 1605.31 1618.07 1611.4 Q1616.37 1617.46 1613.66 1622.35 Q1610.96 1627.21 1607.41 1630.44 Q1603.87 1633.62 1600.49 1633.62 Q1598.33 1633.62 1596.72 1632.43 Q1595.14 1631.21 1594.27 1629.18 Q1593.4 1627.12 1592.99 1624.86 Q1592.57 1622.58 1592.57 1620.1 Q1592.57 1616.39 1593.37 1612.37 Q1594.18 1608.31 1595.53 1604.64 Q1596.88 1600.93 1598.78 1597.59 Q1600.68 1594.2 1602.78 1591.76 Q1604.9 1589.28 1607.28 1587.83 Q1609.67 1586.38 1611.89 1586.38 Q1613.5 1586.38 1614.79 1587.09 Q1616.11 1587.76 1616.95 1588.95 Q1617.78 1590.11 1618.36 1591.5 Q1618.98 1592.88 1619.27 1594.49 Q1619.55 1596.07 1619.68 1597.39 Q1619.81 1598.68 1619.81 1599.9 M1615.46 1595.81 Q1615.46 1594.17 1615.34 1592.95 Q1615.21 1591.69 1614.85 1590.44 Q1614.5 1589.18 1613.73 1588.5 Q1612.98 1587.83 1611.83 1587.83 Q1608.44 1587.83 1604.64 1594.75 Q1603.42 1596.91 1602.32 1599.84 Q1601.23 1602.77 1600.84 1604.16 Q1600.46 1605.54 1599.56 1608.95 L1613.34 1608.95 Q1615.46 1600.16 1615.46 1595.81 M1612.76 1611.05 L1599.04 1611.05 Q1596.91 1619.1 1596.91 1624.12 Q1596.91 1628.5 1597.82 1630.34 Q1598.75 1632.14 1600.49 1632.14 Q1602.49 1632.14 1604.35 1630.15 Q1606.22 1628.12 1608.12 1624.44 Q1610.63 1619.68 1612.76 1611.05 Z" fill="#000000" fill-rule="nonzero" fill-opacity="1" /><polyline clip-path="url(#clip430)" style="stroke:#000000; stroke-linecap:round; stroke-linejoin:round; stroke-width:4; stroke-opacity:1; fill:none" points="62.9921,1481.87 62.9921,854.202 "/>
<path clip-path="url(#clip430)" d="M-88.45 1210.26 L-64.8014 1218.98 L-64.8014 1201.51 L-88.45 1210.26 M-94.7839 1213.89 L-94.7839 1206.6 L-47.2639 1188.49 L-47.2639 1195.17 L-59.4542 1199.5 L-59.4542 1220.92 L-47.2639 1225.25 L-47.2639 1232.03 L-94.7839 1213.89 Z" fill="#000000" fill-rule="nonzero" fill-opacity="1" /><path clip-path="url(#clip430)" d="M-89.5003 1175.12 L-52.5474 1175.12 L-52.5474 1167.35 Q-52.5474 1157.52 -57.0034 1152.97 Q-61.4594 1148.38 -71.0716 1148.38 Q-80.6202 1148.38 -85.0443 1152.97 Q-89.5003 1157.52 -89.5003 1167.35 L-89.5003 1175.12 M-94.7839 1181.55 L-94.7839 1168.34 Q-94.7839 1154.53 -89.0229 1148.07 Q-83.2938 1141.6 -71.0716 1141.6 Q-58.7858 1141.6 -53.0248 1148.1 Q-47.2639 1154.59 -47.2639 1168.34 L-47.2639 1181.55 L-94.7839 1181.55 Z" fill="#000000" fill-rule="nonzero" fill-opacity="1" /><path clip-path="url(#clip430)" d="M-94.7839 1131.36 L-94.7839 1104.05 L-89.373 1104.05 L-89.373 1124.93 L-75.3685 1124.93 L-75.3685 1106.08 L-69.9576 1106.08 L-69.9576 1124.93 L-47.2639 1124.93 L-47.2639 1131.36 L-94.7839 1131.36 Z" fill="#000000" fill-rule="nonzero" fill-opacity="1" /><path clip-path="url(#clip433)" d="M1695.61 1481.61 L1695.61 1481.87 L1715.28 1481.87 L1715.28 1481.61 L1695.61 1481.61 L1695.61 1481.61  Z" fill="#3da44d" fill-rule="evenodd" fill-opacity="1"/>
<polyline clip-path="url(#clip433)" style="stroke:#000000; stroke-linecap:round; stroke-linejoin:round; stroke-width:4; stroke-opacity:1; fill:none" points="1695.61,1481.61 1695.61,1481.87 1715.28,1481.87 1715.28,1481.61 1695.61,1481.61 "/>
<path clip-path="url(#clip433)" d="M1715.28 1480.05 L1715.28 1481.87 L1734.95 1481.87 L1734.95 1480.05 L1715.28 1480.05 L1715.28 1480.05  Z" fill="#3da44d" fill-rule="evenodd" fill-opacity="1"/>
<polyline clip-path="url(#clip433)" style="stroke:#000000; stroke-linecap:round; stroke-linejoin:round; stroke-width:4; stroke-opacity:1; fill:none" points="1715.28,1480.05 1715.28,1481.87 1734.95,1481.87 1734.95,1480.05 1715.28,1480.05 "/>
<path clip-path="url(#clip433)" d="M1734.95 1471.17 L1734.95 1481.87 L1754.62 1481.87 L1754.62 1471.17 L1734.95 1471.17 L1734.95 1471.17  Z" fill="#3da44d" fill-rule="evenodd" fill-opacity="1"/>
<polyline clip-path="url(#clip433)" style="stroke:#000000; stroke-linecap:round; stroke-linejoin:round; stroke-width:4; stroke-opacity:1; fill:none" points="1734.95,1471.17 1734.95,1481.87 1754.62,1481.87 1754.62,1471.17 1734.95,1471.17 "/>
<path clip-path="url(#clip433)" d="M1754.62 1443.25 L1754.62 1481.87 L1774.29 1481.87 L1774.29 1443.25 L1754.62 1443.25 L1754.62 1443.25  Z" fill="#3da44d" fill-rule="evenodd" fill-opacity="1"/>
<polyline clip-path="url(#clip433)" style="stroke:#000000; stroke-linecap:round; stroke-linejoin:round; stroke-width:4; stroke-opacity:1; fill:none" points="1754.62,1443.25 1754.62,1481.87 1774.29,1481.87 1774.29,1443.25 1754.62,1443.25 "/>
<path clip-path="url(#clip433)" d="M1774.29 1397.58 L1774.29 1481.87 L1793.96 1481.87 L1793.96 1397.58 L1774.29 1397.58 L1774.29 1397.58  Z" fill="#3da44d" fill-rule="evenodd" fill-opacity="1"/>
<polyline clip-path="url(#clip433)" style="stroke:#000000; stroke-linecap:round; stroke-linejoin:round; stroke-width:4; stroke-opacity:1; fill:none" points="1774.29,1397.58 1774.29,1481.87 1793.96,1481.87 1793.96,1397.58 1774.29,1397.58 "/>
<path clip-path="url(#clip433)" d="M1793.96 1325.8 L1793.96 1481.87 L1813.63 1481.87 L1813.63 1325.8 L1793.96 1325.8 L1793.96 1325.8  Z" fill="#3da44d" fill-rule="evenodd" fill-opacity="1"/>
<polyline clip-path="url(#clip433)" style="stroke:#000000; stroke-linecap:round; stroke-linejoin:round; stroke-width:4; stroke-opacity:1; fill:none" points="1793.96,1325.8 1793.96,1481.87 1813.63,1481.87 1813.63,1325.8 1793.96,1325.8 "/>
<path clip-path="url(#clip433)" d="M1813.63 1241.77 L1813.63 1481.87 L1833.3 1481.87 L1833.3 1241.77 L1813.63 1241.77 L1813.63 1241.77  Z" fill="#3da44d" fill-rule="evenodd" fill-opacity="1"/>
<polyline clip-path="url(#clip433)" style="stroke:#000000; stroke-linecap:round; stroke-linejoin:round; stroke-width:4; stroke-opacity:1; fill:none" points="1813.63,1241.77 1813.63,1481.87 1833.3,1481.87 1833.3,1241.77 1813.63,1241.77 "/>
<path clip-path="url(#clip433)" d="M1833.3 1141.03 L1833.3 1481.87 L1852.97 1481.87 L1852.97 1141.03 L1833.3 1141.03 L1833.3 1141.03  Z" fill="#3da44d" fill-rule="evenodd" fill-opacity="1"/>
<polyline clip-path="url(#clip433)" style="stroke:#000000; stroke-linecap:round; stroke-linejoin:round; stroke-width:4; stroke-opacity:1; fill:none" points="1833.3,1141.03 1833.3,1481.87 1852.97,1481.87 1852.97,1141.03 1833.3,1141.03 "/>
<path clip-path="url(#clip433)" d="M1852.97 1020.45 L1852.97 1481.87 L1872.64 1481.87 L1872.64 1020.45 L1852.97 1020.45 L1852.97 1020.45  Z" fill="#3da44d" fill-rule="evenodd" fill-opacity="1"/>
<polyline clip-path="url(#clip433)" style="stroke:#000000; stroke-linecap:round; stroke-linejoin:round; stroke-width:4; stroke-opacity:1; fill:none" points="1852.97,1020.45 1852.97,1481.87 1872.64,1481.87 1872.64,1020.45 1852.97,1020.45 "/>
<path clip-path="url(#clip433)" d="M1872.64 959.38 L1872.64 1481.87 L1892.31 1481.87 L1892.31 959.38 L1872.64 959.38 L1872.64 959.38  Z" fill="#3da44d" fill-rule="evenodd" fill-opacity="1"/>
<polyline clip-path="url(#clip433)" style="stroke:#000000; stroke-linecap:round; stroke-linejoin:round; stroke-width:4; stroke-opacity:1; fill:none" points="1872.64,959.38 1872.64,1481.87 1892.31,1481.87 1892.31,959.38 1872.64,959.38 "/>
<path clip-path="url(#clip433)" d="M1892.31 894.394 L1892.31 1481.87 L1911.98 1481.87 L1911.98 894.394 L1892.31 894.394 L1892.31 894.394  Z" fill="#3da44d" fill-rule="evenodd" fill-opacity="1"/>
<polyline clip-path="url(#clip433)" style="stroke:#000000; stroke-linecap:round; stroke-linejoin:round; stroke-width:4; stroke-opacity:1; fill:none" points="1892.31,894.394 1892.31,1481.87 1911.98,1481.87 1911.98,894.394 1892.31,894.394 "/>
<path clip-path="url(#clip433)" d="M1911.98 865.686 L1911.98 1481.87 L1931.65 1481.87 L1931.65 865.686 L1911.98 865.686 L1911.98 865.686  Z" fill="#3da44d" fill-rule="evenodd" fill-opacity="1"/>
<polyline clip-path="url(#clip433)" style="stroke:#000000; stroke-linecap:round; stroke-linejoin:round; stroke-width:4; stroke-opacity:1; fill:none" points="1911.98,865.686 1911.98,1481.87 1931.65,1481.87 1931.65,865.686 1911.98,865.686 "/>
<path clip-path="url(#clip433)" d="M1931.65 854.202 L1931.65 1481.87 L1951.32 1481.87 L1951.32 854.202 L1931.65 854.202 L1931.65 854.202  Z" fill="#3da44d" fill-rule="evenodd" fill-opacity="1"/>
<polyline clip-path="url(#clip433)" style="stroke:#000000; stroke-linecap:round; stroke-linejoin:round; stroke-width:4; stroke-opacity:1; fill:none" points="1931.65,854.202 1931.65,1481.87 1951.32,1481.87 1951.32,854.202 1931.65,854.202 "/>
<path clip-path="url(#clip433)" d="M1951.32 868.818 L1951.32 1481.87 L1970.99 1481.87 L1970.99 868.818 L1951.32 868.818 L1951.32 868.818  Z" fill="#3da44d" fill-rule="evenodd" fill-opacity="1"/>
<polyline clip-path="url(#clip433)" style="stroke:#000000; stroke-linecap:round; stroke-linejoin:round; stroke-width:4; stroke-opacity:1; fill:none" points="1951.32,868.818 1951.32,1481.87 1970.99,1481.87 1970.99,868.818 1951.32,868.818 "/>
<path clip-path="url(#clip433)" d="M1970.99 906.4 L1970.99 1481.87 L1990.66 1481.87 L1990.66 906.4 L1970.99 906.4 L1970.99 906.4  Z" fill="#3da44d" fill-rule="evenodd" fill-opacity="1"/>
<polyline clip-path="url(#clip433)" style="stroke:#000000; stroke-linecap:round; stroke-linejoin:round; stroke-width:4; stroke-opacity:1; fill:none" points="1970.99,906.4 1970.99,1481.87 1990.66,1481.87 1990.66,906.4 1970.99,906.4 "/>
<path clip-path="url(#clip433)" d="M1990.66 991.742 L1990.66 1481.87 L2010.33 1481.87 L2010.33 991.742 L1990.66 991.742 L1990.66 991.742  Z" fill="#3da44d" fill-rule="evenodd" fill-opacity="1"/>
<polyline clip-path="url(#clip433)" style="stroke:#000000; stroke-linecap:round; stroke-linejoin:round; stroke-width:4; stroke-opacity:1; fill:none" points="1990.66,991.742 1990.66,1481.87 2010.33,1481.87 2010.33,991.742 1990.66,991.742 "/>
<path clip-path="url(#clip433)" d="M2010.33 1077.61 L2010.33 1481.87 L2030 1481.87 L2030 1077.61 L2010.33 1077.61 L2010.33 1077.61  Z" fill="#3da44d" fill-rule="evenodd" fill-opacity="1"/>
<polyline clip-path="url(#clip433)" style="stroke:#000000; stroke-linecap:round; stroke-linejoin:round; stroke-width:4; stroke-opacity:1; fill:none" points="2010.33,1077.61 2010.33,1481.87 2030,1481.87 2030,1077.61 2010.33,1077.61 "/>
<path clip-path="url(#clip433)" d="M2030 1159.56 L2030 1481.87 L2049.67 1481.87 L2049.67 1159.56 L2030 1159.56 L2030 1159.56  Z" fill="#3da44d" fill-rule="evenodd" fill-opacity="1"/>
<polyline clip-path="url(#clip433)" style="stroke:#000000; stroke-linecap:round; stroke-linejoin:round; stroke-width:4; stroke-opacity:1; fill:none" points="2030,1159.56 2030,1481.87 2049.67,1481.87 2049.67,1159.56 2030,1159.56 "/>
<path clip-path="url(#clip433)" d="M2049.67 1254.82 L2049.67 1481.87 L2069.34 1481.87 L2069.34 1254.82 L2049.67 1254.82 L2049.67 1254.82  Z" fill="#3da44d" fill-rule="evenodd" fill-opacity="1"/>
<polyline clip-path="url(#clip433)" style="stroke:#000000; stroke-linecap:round; stroke-linejoin:round; stroke-width:4; stroke-opacity:1; fill:none" points="2049.67,1254.82 2049.67,1481.87 2069.34,1481.87 2069.34,1254.82 2049.67,1254.82 "/>
<path clip-path="url(#clip433)" d="M2069.34 1340.94 L2069.34 1481.87 L2089.01 1481.87 L2089.01 1340.94 L2069.34 1340.94 L2069.34 1340.94  Z" fill="#3da44d" fill-rule="evenodd" fill-opacity="1"/>
<polyline clip-path="url(#clip433)" style="stroke:#000000; stroke-linecap:round; stroke-linejoin:round; stroke-width:4; stroke-opacity:1; fill:none" points="2069.34,1340.94 2069.34,1481.87 2089.01,1481.87 2089.01,1340.94 2069.34,1340.94 "/>
<path clip-path="url(#clip433)" d="M2089.01 1397.31 L2089.01 1481.87 L2108.68 1481.87 L2108.68 1397.31 L2089.01 1397.31 L2089.01 1397.31  Z" fill="#3da44d" fill-rule="evenodd" fill-opacity="1"/>
<polyline clip-path="url(#clip433)" style="stroke:#000000; stroke-linecap:round; stroke-linejoin:round; stroke-width:4; stroke-opacity:1; fill:none" points="2089.01,1397.31 2089.01,1481.87 2108.68,1481.87 2108.68,1397.31 2089.01,1397.31 "/>
<path clip-path="url(#clip433)" d="M2108.68 1441.68 L2108.68 1481.87 L2128.35 1481.87 L2128.35 1441.68 L2108.68 1441.68 L2108.68 1441.68  Z" fill="#3da44d" fill-rule="evenodd" fill-opacity="1"/>
<polyline clip-path="url(#clip433)" style="stroke:#000000; stroke-linecap:round; stroke-linejoin:round; stroke-width:4; stroke-opacity:1; fill:none" points="2108.68,1441.68 2108.68,1481.87 2128.35,1481.87 2128.35,1441.68 2108.68,1441.68 "/>
<path clip-path="url(#clip433)" d="M2128.35 1467.26 L2128.35 1481.87 L2148.02 1481.87 L2148.02 1467.26 L2128.35 1467.26 L2128.35 1467.26  Z" fill="#3da44d" fill-rule="evenodd" fill-opacity="1"/>
<polyline clip-path="url(#clip433)" style="stroke:#000000; stroke-linecap:round; stroke-linejoin:round; stroke-width:4; stroke-opacity:1; fill:none" points="2128.35,1467.26 2128.35,1481.87 2148.02,1481.87 2148.02,1467.26 2128.35,1467.26 "/>
<path clip-path="url(#clip433)" d="M2148.02 1476.65 L2148.02 1481.87 L2167.69 1481.87 L2167.69 1476.65 L2148.02 1476.65 L2148.02 1476.65  Z" fill="#3da44d" fill-rule="evenodd" fill-opacity="1"/>
<polyline clip-path="url(#clip433)" style="stroke:#000000; stroke-linecap:round; stroke-linejoin:round; stroke-width:4; stroke-opacity:1; fill:none" points="2148.02,1476.65 2148.02,1481.87 2167.69,1481.87 2167.69,1476.65 2148.02,1476.65 "/>
<path clip-path="url(#clip433)" d="M2167.69 1481.09 L2167.69 1481.87 L2187.36 1481.87 L2187.36 1481.09 L2167.69 1481.09 L2167.69 1481.09  Z" fill="#3da44d" fill-rule="evenodd" fill-opacity="1"/>
<polyline clip-path="url(#clip433)" style="stroke:#000000; stroke-linecap:round; stroke-linejoin:round; stroke-width:4; stroke-opacity:1; fill:none" points="2167.69,1481.09 2167.69,1481.87 2187.36,1481.87 2187.36,1481.09 2167.69,1481.09 "/>
<circle clip-path="url(#clip433)" style="fill:#3da44d; stroke:none; fill-opacity:0" cx="1705.44" cy="1481.61" r="2"/>
<circle clip-path="url(#clip433)" style="fill:#3da44d; stroke:none; fill-opacity:0" cx="1725.11" cy="1480.05" r="2"/>
<circle clip-path="url(#clip433)" style="fill:#3da44d; stroke:none; fill-opacity:0" cx="1744.78" cy="1471.17" r="2"/>
<circle clip-path="url(#clip433)" style="fill:#3da44d; stroke:none; fill-opacity:0" cx="1764.45" cy="1443.25" r="2"/>
<circle clip-path="url(#clip433)" style="fill:#3da44d; stroke:none; fill-opacity:0" cx="1784.12" cy="1397.58" r="2"/>
<circle clip-path="url(#clip433)" style="fill:#3da44d; stroke:none; fill-opacity:0" cx="1803.79" cy="1325.8" r="2"/>
<circle clip-path="url(#clip433)" style="fill:#3da44d; stroke:none; fill-opacity:0" cx="1823.46" cy="1241.77" r="2"/>
<circle clip-path="url(#clip433)" style="fill:#3da44d; stroke:none; fill-opacity:0" cx="1843.13" cy="1141.03" r="2"/>
<circle clip-path="url(#clip433)" style="fill:#3da44d; stroke:none; fill-opacity:0" cx="1862.8" cy="1020.45" r="2"/>
<circle clip-path="url(#clip433)" style="fill:#3da44d; stroke:none; fill-opacity:0" cx="1882.47" cy="959.38" r="2"/>
<circle clip-path="url(#clip433)" style="fill:#3da44d; stroke:none; fill-opacity:0" cx="1902.14" cy="894.394" r="2"/>
<circle clip-path="url(#clip433)" style="fill:#3da44d; stroke:none; fill-opacity:0" cx="1921.81" cy="865.686" r="2"/>
<circle clip-path="url(#clip433)" style="fill:#3da44d; stroke:none; fill-opacity:0" cx="1941.48" cy="854.202" r="2"/>
<circle clip-path="url(#clip433)" style="fill:#3da44d; stroke:none; fill-opacity:0" cx="1961.15" cy="868.818" r="2"/>
<circle clip-path="url(#clip433)" style="fill:#3da44d; stroke:none; fill-opacity:0" cx="1980.82" cy="906.4" r="2"/>
<circle clip-path="url(#clip433)" style="fill:#3da44d; stroke:none; fill-opacity:0" cx="2000.49" cy="991.742" r="2"/>
<circle clip-path="url(#clip433)" style="fill:#3da44d; stroke:none; fill-opacity:0" cx="2020.16" cy="1077.61" r="2"/>
<circle clip-path="url(#clip433)" style="fill:#3da44d; stroke:none; fill-opacity:0" cx="2039.83" cy="1159.56" r="2"/>
<circle clip-path="url(#clip433)" style="fill:#3da44d; stroke:none; fill-opacity:0" cx="2059.5" cy="1254.82" r="2"/>
<circle clip-path="url(#clip433)" style="fill:#3da44d; stroke:none; fill-opacity:0" cx="2079.17" cy="1340.94" r="2"/>
<circle clip-path="url(#clip433)" style="fill:#3da44d; stroke:none; fill-opacity:0" cx="2098.84" cy="1397.31" r="2"/>
<circle clip-path="url(#clip433)" style="fill:#3da44d; stroke:none; fill-opacity:0" cx="2118.51" cy="1441.68" r="2"/>
<circle clip-path="url(#clip433)" style="fill:#3da44d; stroke:none; fill-opacity:0" cx="2138.18" cy="1467.26" r="2"/>
<circle clip-path="url(#clip433)" style="fill:#3da44d; stroke:none; fill-opacity:0" cx="2157.85" cy="1476.65" r="2"/>
<circle clip-path="url(#clip433)" style="fill:#3da44d; stroke:none; fill-opacity:0" cx="2177.52" cy="1481.09" r="2"/>
<polyline clip-path="url(#clip433)" style="stroke:#e26f46; stroke-linecap:round; stroke-linejoin:round; stroke-width:12; stroke-opacity:1; fill:none" points="1941.48,2109.55 1941.48,226.53 "/>
<path clip-path="url(#clip430)" d="M2592.08 1030.64 L3049.76 1030.64 L3049.76 875.125 L2592.08 875.125  Z" fill="#ffffff" fill-rule="evenodd" fill-opacity="1"/>
<polyline clip-path="url(#clip430)" style="stroke:#000000; stroke-linecap:round; stroke-linejoin:round; stroke-width:4; stroke-opacity:1; fill:none" points="2592.08,1030.64 3049.76,1030.64 3049.76,875.125 2592.08,875.125 2592.08,1030.64 "/>
<path clip-path="url(#clip430)" d="M2626.42 947.701 L2832.4 947.701 L2832.4 906.229 L2626.42 906.229 L2626.42 947.701  Z" fill="#3da44d" fill-rule="evenodd" fill-opacity="1"/>
<polyline clip-path="url(#clip430)" style="stroke:#000000; stroke-linecap:round; stroke-linejoin:round; stroke-width:4; stroke-opacity:1; fill:none" points="2626.42,947.701 2832.4,947.701 2832.4,906.229 2626.42,906.229 2626.42,947.701 "/>
<path clip-path="url(#clip430)" d="M2880.13 931.212 Q2874.97 931.212 2872.98 932.393 Q2870.99 933.574 2870.99 936.421 Q2870.99 938.689 2872.47 940.032 Q2873.98 941.351 2876.54 941.351 Q2880.09 941.351 2882.22 938.851 Q2884.37 936.328 2884.37 932.162 L2884.37 931.212 L2880.13 931.212 M2888.63 929.453 L2888.63 944.245 L2884.37 944.245 L2884.37 940.31 Q2882.91 942.671 2880.73 943.805 Q2878.56 944.916 2875.41 944.916 Q2871.43 944.916 2869.07 942.694 Q2866.73 940.449 2866.73 936.699 Q2866.73 932.324 2869.65 930.101 Q2872.59 927.879 2878.4 927.879 L2884.37 927.879 L2884.37 927.463 Q2884.37 924.523 2882.42 922.925 Q2880.5 921.305 2877.01 921.305 Q2874.79 921.305 2872.68 921.838 Q2870.57 922.37 2868.63 923.435 L2868.63 919.5 Q2870.97 918.597 2873.17 918.157 Q2875.36 917.694 2877.45 917.694 Q2883.07 917.694 2885.85 920.611 Q2888.63 923.527 2888.63 929.453 Z" fill="#000000" fill-rule="nonzero" fill-opacity="1" /><path clip-path="url(#clip430)" d="M2914.46 922.254 L2914.46 908.227 L2918.72 908.227 L2918.72 944.245 L2914.46 944.245 L2914.46 940.356 Q2913.12 942.671 2911.06 943.805 Q2909.02 944.916 2906.15 944.916 Q2901.45 944.916 2898.49 941.166 Q2895.55 937.416 2895.55 931.305 Q2895.55 925.194 2898.49 921.444 Q2901.45 917.694 2906.15 917.694 Q2909.02 917.694 2911.06 918.828 Q2913.12 919.939 2914.46 922.254 M2899.95 931.305 Q2899.95 936.004 2901.87 938.689 Q2903.81 941.351 2907.19 941.351 Q2910.57 941.351 2912.52 938.689 Q2914.46 936.004 2914.46 931.305 Q2914.46 926.606 2912.52 923.944 Q2910.57 921.259 2907.19 921.259 Q2903.81 921.259 2901.87 923.944 Q2899.95 926.606 2899.95 931.305 Z" fill="#000000" fill-rule="nonzero" fill-opacity="1" /><path clip-path="url(#clip430)" d="M2940.62 908.227 L2940.62 911.768 L2936.54 911.768 Q2934.25 911.768 2933.35 912.694 Q2932.47 913.62 2932.47 916.027 L2932.47 918.319 L2939.48 918.319 L2939.48 921.629 L2932.47 921.629 L2932.47 944.245 L2928.19 944.245 L2928.19 921.629 L2924.11 921.629 L2924.11 918.319 L2928.19 918.319 L2928.19 916.513 Q2928.19 912.185 2930.2 910.217 Q2932.22 908.227 2936.59 908.227 L2940.62 908.227 Z" fill="#000000" fill-rule="nonzero" fill-opacity="1" /><polyline clip-path="url(#clip430)" style="stroke:#e26f46; stroke-linecap:round; stroke-linejoin:round; stroke-width:12; stroke-opacity:1; fill:none" points="2626.42,978.805 2832.4,978.805 "/>
<path clip-path="url(#clip430)" d="M2867.4 992.15 L2875.04 992.15 L2875.04 965.784 L2866.73 967.451 L2866.73 963.191 L2874.99 961.525 L2879.67 961.525 L2879.67 992.15 L2887.31 992.15 L2887.31 996.085 L2867.4 996.085 L2867.4 992.15 Z" fill="#000000" fill-rule="nonzero" fill-opacity="1" /><path clip-path="url(#clip430)" d="M2906.75 964.604 Q2903.14 964.604 2901.31 968.168 Q2899.51 971.71 2899.51 978.84 Q2899.51 985.946 2901.31 989.511 Q2903.14 993.052 2906.75 993.052 Q2910.39 993.052 2912.19 989.511 Q2914.02 985.946 2914.02 978.84 Q2914.02 971.71 2912.19 968.168 Q2910.39 964.604 2906.75 964.604 M2906.75 960.9 Q2912.56 960.9 2915.62 965.506 Q2918.7 970.09 2918.7 978.84 Q2918.7 987.566 2915.62 992.173 Q2912.56 996.756 2906.75 996.756 Q2900.94 996.756 2897.86 992.173 Q2894.81 987.566 2894.81 978.84 Q2894.81 970.09 2897.86 965.506 Q2900.94 960.9 2906.75 960.9 Z" fill="#000000" fill-rule="nonzero" fill-opacity="1" /><path clip-path="url(#clip430)" d="M2927.05 995.367 L2927.05 991.108 Q2928.81 991.941 2930.62 992.381 Q2932.42 992.821 2934.16 992.821 Q2938.79 992.821 2941.22 989.719 Q2943.67 986.594 2944.02 980.252 Q2942.68 982.242 2940.62 983.307 Q2938.56 984.372 2936.06 984.372 Q2930.87 984.372 2927.84 981.247 Q2924.83 978.099 2924.83 972.659 Q2924.83 967.335 2927.98 964.117 Q2931.13 960.9 2936.36 960.9 Q2942.35 960.9 2945.5 965.506 Q2948.67 970.09 2948.67 978.84 Q2948.67 987.011 2944.79 991.895 Q2940.92 996.756 2934.37 996.756 Q2932.61 996.756 2930.8 996.409 Q2929 996.062 2927.05 995.367 M2936.36 980.715 Q2939.51 980.715 2941.34 978.562 Q2943.19 976.409 2943.19 972.659 Q2943.19 968.932 2941.34 966.779 Q2939.51 964.604 2936.36 964.604 Q2933.21 964.604 2931.36 966.779 Q2929.53 968.932 2929.53 972.659 Q2929.53 976.409 2931.36 978.562 Q2933.21 980.715 2936.36 980.715 Z" fill="#000000" fill-rule="nonzero" fill-opacity="1" /><path clip-path="url(#clip430)" d="M2957.08 990.205 L2961.96 990.205 L2961.96 996.085 L2957.08 996.085 L2957.08 990.205 Z" fill="#000000" fill-rule="nonzero" fill-opacity="1" /><path clip-path="url(#clip430)" d="M2972.19 961.525 L2990.55 961.525 L2990.55 965.46 L2976.47 965.46 L2976.47 973.932 Q2977.49 973.585 2978.51 973.423 Q2979.53 973.238 2980.55 973.238 Q2986.34 973.238 2989.72 976.409 Q2993.1 979.58 2993.1 984.997 Q2993.1 990.576 2989.62 993.677 Q2986.15 996.756 2979.83 996.756 Q2977.66 996.756 2975.39 996.386 Q2973.14 996.015 2970.73 995.275 L2970.73 990.576 Q2972.82 991.71 2975.04 992.265 Q2977.26 992.821 2979.74 992.821 Q2983.74 992.821 2986.08 990.714 Q2988.42 988.608 2988.42 984.997 Q2988.42 981.386 2986.08 979.279 Q2983.74 977.173 2979.74 977.173 Q2977.86 977.173 2975.99 977.59 Q2974.14 978.006 2972.19 978.886 L2972.19 961.525 Z" fill="#000000" fill-rule="nonzero" fill-opacity="1" /><path clip-path="url(#clip430)" d="M3012.61 960.807 Q3012.61 959.349 3011.59 958.33 Q3010.57 957.312 3009.09 957.312 Q3007.59 957.312 3006.57 958.33 Q3005.57 959.326 3005.57 960.807 Q3005.57 962.312 3006.57 963.33 Q3007.59 964.326 3009.09 964.326 Q3010.57 964.326 3011.59 963.307 Q3012.61 962.289 3012.61 960.807 M3015.43 960.807 Q3015.43 963.469 3013.58 965.321 Q3011.75 967.173 3009.09 967.173 Q3006.43 967.173 3004.58 965.321 Q3002.75 963.469 3002.75 960.807 Q3002.75 958.145 3004.58 956.317 Q3006.43 954.465 3009.09 954.465 Q3011.75 954.465 3013.58 956.317 Q3015.43 958.145 3015.43 960.807 Z" fill="#000000" fill-rule="nonzero" fill-opacity="1" /></svg>
