<?xml version="1.0" encoding="utf-8"?>
<svg xmlns="http://www.w3.org/2000/svg" xmlns:xlink="http://www.w3.org/1999/xlink" width="600" height="400" viewBox="0 0 2400 1600">
<defs>
  <clipPath id="clip790">
    <rect x="0" y="0" width="2400" height="1600"/>
  </clipPath>
</defs>
<path clip-path="url(#clip790)" d="M0 1600 L2400 1600 L2400 0 L0 0  Z" fill="#ffffff" fill-rule="evenodd" fill-opacity="1"/>
<defs>
  <clipPath id="clip791">
    <rect x="480" y="0" width="1681" height="1600"/>
  </clipPath>
</defs>
<path clip-path="url(#clip790)" d="M102.74 1455.52 L2352.76 1455.52 L2352.76 47.2441 L102.74 47.2441  Z" fill="#ffffff" fill-rule="evenodd" fill-opacity="1"/>
<defs>
  <clipPath id="clip792">
    <rect x="102" y="47" width="2251" height="1409"/>
  </clipPath>
</defs>
<polyline clip-path="url(#clip792)" style="stroke:#000000; stroke-linecap:round; stroke-linejoin:round; stroke-width:2; stroke-opacity:0.1; fill:none" points="102.74,1455.52 102.74,47.2441 "/>
<polyline clip-path="url(#clip792)" style="stroke:#000000; stroke-linecap:round; stroke-linejoin:round; stroke-width:2; stroke-opacity:0.1; fill:none" points="552.743,1455.52 552.743,47.2441 "/>
<polyline clip-path="url(#clip792)" style="stroke:#000000; stroke-linecap:round; stroke-linejoin:round; stroke-width:2; stroke-opacity:0.1; fill:none" points="1002.75,1455.52 1002.75,47.2441 "/>
<polyline clip-path="url(#clip792)" style="stroke:#000000; stroke-linecap:round; stroke-linejoin:round; stroke-width:2; stroke-opacity:0.1; fill:none" points="1452.75,1455.52 1452.75,47.2441 "/>
<polyline clip-path="url(#clip792)" style="stroke:#000000; stroke-linecap:round; stroke-linejoin:round; stroke-width:2; stroke-opacity:0.1; fill:none" points="1902.75,1455.52 1902.75,47.2441 "/>
<polyline clip-path="url(#clip792)" style="stroke:#000000; stroke-linecap:round; stroke-linejoin:round; stroke-width:2; stroke-opacity:0.1; fill:none" points="2352.76,1455.52 2352.76,47.2441 "/>
<polyline clip-path="url(#clip790)" style="stroke:#000000; stroke-linecap:round; stroke-linejoin:round; stroke-width:4; stroke-opacity:1; fill:none" points="102.74,1455.52 2352.76,1455.52 "/>
<polyline clip-path="url(#clip790)" style="stroke:#000000; stroke-linecap:round; stroke-linejoin:round; stroke-width:4; stroke-opacity:1; fill:none" points="102.74,1455.52 102.74,1436.62 "/>
<polyline clip-path="url(#clip790)" style="stroke:#000000; stroke-linecap:round; stroke-linejoin:round; stroke-width:4; stroke-opacity:1; fill:none" points="552.743,1455.52 552.743,1436.62 "/>
<polyline clip-path="url(#clip790)" style="stroke:#000000; stroke-linecap:round; stroke-linejoin:round; stroke-width:4; stroke-opacity:1; fill:none" points="1002.75,1455.52 1002.75,1436.62 "/>
<polyline clip-path="url(#clip790)" style="stroke:#000000; stroke-linecap:round; stroke-linejoin:round; stroke-width:4; stroke-opacity:1; fill:none" points="1452.75,1455.52 1452.75,1436.62 "/>
<polyline clip-path="url(#clip790)" style="stroke:#000000; stroke-linecap:round; stroke-linejoin:round; stroke-width:4; stroke-opacity:1; fill:none" points="1902.75,1455.52 1902.75,1436.62 "/>
<polyline clip-path="url(#clip790)" style="stroke:#000000; stroke-linecap:round; stroke-linejoin:round; stroke-width:4; stroke-opacity:1; fill:none" points="2352.76,1455.52 2352.76,1436.62 "/>
<path clip-path="url(#clip790)" d="M102.74 1486.44 Q99.1291 1486.44 97.3004 1490 Q95.4948 1493.55 95.4948 1500.67 Q95.4948 1507.78 97.3004 1511.35 Q99.1291 1514.89 102.74 1514.89 Q106.374 1514.89 108.18 1511.35 Q110.009 1507.78 110.009 1500.67 Q110.009 1493.55 108.18 1490 Q106.374 1486.44 102.74 1486.44 M102.74 1482.74 Q108.55 1482.74 111.606 1487.34 Q114.685 1491.93 114.685 1500.67 Q114.685 1509.4 111.606 1514.01 Q108.55 1518.59 102.74 1518.59 Q96.93 1518.59 93.8513 1514.01 Q90.7958 1509.4 90.7958 1500.67 Q90.7958 1491.93 93.8513 1487.34 Q96.93 1482.74 102.74 1482.74 Z" fill="#000000" fill-rule="nonzero" fill-opacity="1" /><path clip-path="url(#clip790)" d="M543.125 1513.99 L550.764 1513.99 L550.764 1487.62 L542.454 1489.29 L542.454 1485.03 L550.718 1483.36 L555.394 1483.36 L555.394 1513.99 L563.033 1513.99 L563.033 1517.92 L543.125 1517.92 L543.125 1513.99 Z" fill="#000000" fill-rule="nonzero" fill-opacity="1" /><path clip-path="url(#clip790)" d="M997.399 1513.99 L1013.72 1513.99 L1013.72 1517.92 L991.774 1517.92 L991.774 1513.99 Q994.436 1511.23 999.02 1506.6 Q1003.63 1501.95 1004.81 1500.61 Q1007.05 1498.08 1007.93 1496.35 Q1008.83 1494.59 1008.83 1492.9 Q1008.83 1490.14 1006.89 1488.41 Q1004.97 1486.67 1001.87 1486.67 Q999.668 1486.67 997.214 1487.43 Q994.784 1488.2 992.006 1489.75 L992.006 1485.03 Q994.83 1483.89 997.284 1483.31 Q999.737 1482.74 1001.77 1482.74 Q1007.14 1482.74 1010.34 1485.42 Q1013.53 1488.11 1013.53 1492.6 Q1013.53 1494.73 1012.72 1496.65 Q1011.94 1498.55 1009.83 1501.14 Q1009.25 1501.81 1006.15 1505.03 Q1003.05 1508.22 997.399 1513.99 Z" fill="#000000" fill-rule="nonzero" fill-opacity="1" /><path clip-path="url(#clip790)" d="M1457 1499.29 Q1460.35 1500 1462.23 1502.27 Q1464.13 1504.54 1464.13 1507.87 Q1464.13 1512.99 1460.61 1515.79 Q1457.09 1518.59 1450.61 1518.59 Q1448.43 1518.59 1446.12 1518.15 Q1443.83 1517.74 1441.37 1516.88 L1441.37 1512.36 Q1443.32 1513.5 1445.63 1514.08 Q1447.95 1514.66 1450.47 1514.66 Q1454.87 1514.66 1457.16 1512.92 Q1459.47 1511.18 1459.47 1507.87 Q1459.47 1504.82 1457.32 1503.11 Q1455.19 1501.37 1451.37 1501.37 L1447.34 1501.37 L1447.34 1497.53 L1451.56 1497.53 Q1455.01 1497.53 1456.84 1496.16 Q1458.66 1494.77 1458.66 1492.18 Q1458.66 1489.52 1456.77 1488.11 Q1454.89 1486.67 1451.37 1486.67 Q1449.45 1486.67 1447.25 1487.09 Q1445.05 1487.5 1442.41 1488.38 L1442.41 1484.22 Q1445.08 1483.48 1447.39 1483.11 Q1449.73 1482.74 1451.79 1482.74 Q1457.11 1482.74 1460.21 1485.17 Q1463.32 1487.57 1463.32 1491.69 Q1463.32 1494.56 1461.67 1496.55 Q1460.03 1498.52 1457 1499.29 Z" fill="#000000" fill-rule="nonzero" fill-opacity="1" /><path clip-path="url(#clip790)" d="M1905.76 1487.43 L1893.96 1505.88 L1905.76 1505.88 L1905.76 1487.43 M1904.54 1483.36 L1910.41 1483.36 L1910.41 1505.88 L1915.35 1505.88 L1915.35 1509.77 L1910.41 1509.77 L1910.41 1517.92 L1905.76 1517.92 L1905.76 1509.77 L1890.16 1509.77 L1890.16 1505.26 L1904.54 1483.36 Z" fill="#000000" fill-rule="nonzero" fill-opacity="1" /><path clip-path="url(#clip790)" d="M2343.03 1483.36 L2361.39 1483.36 L2361.39 1487.3 L2347.32 1487.3 L2347.32 1495.77 Q2348.33 1495.42 2349.35 1495.26 Q2350.37 1495.07 2351.39 1495.07 Q2357.18 1495.07 2360.56 1498.24 Q2363.94 1501.42 2363.94 1506.83 Q2363.94 1512.41 2360.46 1515.51 Q2356.99 1518.59 2350.67 1518.59 Q2348.5 1518.59 2346.23 1518.22 Q2343.98 1517.85 2341.58 1517.11 L2341.58 1512.41 Q2343.66 1513.55 2345.88 1514.1 Q2348.1 1514.66 2350.58 1514.66 Q2354.58 1514.66 2356.92 1512.55 Q2359.26 1510.44 2359.26 1506.83 Q2359.26 1503.22 2356.92 1501.11 Q2354.58 1499.01 2350.58 1499.01 Q2348.71 1499.01 2346.83 1499.42 Q2344.98 1499.84 2343.03 1500.72 L2343.03 1483.36 Z" fill="#000000" fill-rule="nonzero" fill-opacity="1" /><path clip-path="url(#clip790)" d="M1193.67 1569.32 Q1193.67 1571.02 1192.55 1572.12 Q1191.45 1573.21 1190.04 1573.21 Q1188.81 1573.21 1188.17 1572.51 Q1187.52 1571.8 1187.52 1570.9 Q1187.52 1569.61 1188.52 1568.54 Q1189.52 1567.48 1190.97 1567.26 Q1189.91 1566.48 1188.2 1566.48 Q1185.4 1566.48 1182.92 1568.64 Q1181.82 1569.64 1180.63 1571.48 Q1179.44 1573.28 1179.21 1574.05 L1177.12 1582.65 Q1176.93 1583.62 1175.74 1588.25 Q1174.58 1592.86 1174.48 1593.05 Q1174.16 1593.96 1173.45 1594.44 Q1172.74 1594.92 1172.03 1594.92 Q1171.23 1594.92 1170.68 1594.44 Q1170.13 1593.96 1170.13 1593.12 Q1170.13 1592.99 1170.23 1592.51 Q1170.33 1592.02 1170.49 1591.35 Q1170.65 1590.67 1170.71 1590.28 L1174.54 1575.05 Q1175.25 1572.28 1175.41 1571.41 Q1175.61 1570.51 1175.61 1569.51 Q1175.61 1567.77 1175.06 1567.13 Q1174.51 1566.48 1173.55 1566.48 Q1171.87 1566.48 1170.78 1568.48 Q1169.68 1570.48 1168.75 1574.34 Q1168.46 1575.4 1168.26 1575.63 Q1168.1 1575.86 1167.62 1575.86 Q1166.81 1575.82 1166.81 1575.18 Q1166.81 1575.02 1167.07 1573.99 Q1167.33 1572.92 1167.81 1571.38 Q1168.33 1569.8 1168.88 1568.8 Q1169.2 1568.13 1169.49 1567.68 Q1169.78 1567.22 1170.36 1566.52 Q1170.94 1565.81 1171.81 1565.42 Q1172.68 1565.03 1173.74 1565.03 Q1176.06 1565.03 1177.7 1566.45 Q1179.37 1567.87 1179.76 1570.09 Q1180.57 1568.93 1181.56 1567.93 Q1182.56 1566.9 1184.4 1565.97 Q1186.23 1565.03 1188.2 1565.03 Q1190.65 1565.03 1192.16 1566.29 Q1193.67 1567.51 1193.67 1569.32 Z" fill="#000000" fill-rule="nonzero" fill-opacity="1" /><path clip-path="url(#clip790)" d="M1203.38 1610.67 L1203.38 1544.71 L1213.34 1544.71 L1213.34 1546.23 L1207.8 1546.23 L1207.8 1609.16 L1213.34 1609.16 L1213.34 1610.67 L1203.38 1610.67 Z" fill="#000000" fill-rule="nonzero" fill-opacity="1" /><path clip-path="url(#clip790)" d="M1266.69 1594.18 L1258.06 1593.99 Q1250.94 1593.99 1248.56 1594.18 L1248.56 1592.15 Q1254.03 1592.15 1254.03 1590.15 Q1254.03 1589.99 1253.84 1589.22 L1250.36 1579.14 L1234.06 1579.14 L1231 1587.77 Q1230.87 1588.03 1230.87 1588.77 Q1230.87 1590.15 1232.2 1591.15 Q1233.52 1592.15 1235.83 1592.15 L1235.83 1594.18 L1228.23 1593.99 L1221.54 1594.18 L1221.54 1592.15 Q1224.4 1592.09 1226.24 1591.09 Q1228.07 1590.09 1228.91 1587.71 L1242.57 1548.29 Q1242.82 1547.51 1243.11 1547.26 Q1243.4 1546.97 1244.14 1546.97 Q1244.66 1546.97 1244.95 1547.16 Q1245.24 1547.32 1245.34 1547.55 Q1245.46 1547.74 1245.66 1548.29 L1259.89 1589.51 Q1260.44 1591.15 1261.5 1591.67 Q1262.57 1592.15 1265.53 1592.15 L1266.69 1592.15 L1266.69 1594.18 M1249.62 1577.11 L1242.18 1555.66 L1234.77 1577.11 L1249.62 1577.11 M1248.3 1541.14 Q1248.3 1537.34 1244.14 1537.34 Q1239.99 1537.34 1239.99 1541.14 Q1239.99 1544.97 1244.14 1544.97 Q1248.3 1544.97 1248.3 1541.14 M1250.49 1541.07 Q1250.49 1543.52 1248.65 1545.26 Q1246.82 1546.97 1244.08 1546.97 Q1241.53 1546.97 1239.67 1545.26 Q1237.8 1543.55 1237.8 1541.07 Q1237.8 1538.82 1239.6 1537.08 Q1241.44 1535.34 1244.21 1535.34 Q1246.85 1535.34 1248.65 1537.05 Q1250.49 1538.75 1250.49 1541.07 Z" fill="#000000" fill-rule="nonzero" fill-opacity="1" /><path clip-path="url(#clip790)" d="M1270.53 1609.16 L1276.07 1609.16 L1276.07 1546.23 L1270.53 1546.23 L1270.53 1544.71 L1280.48 1544.71 L1280.48 1610.67 L1270.53 1610.67 L1270.53 1609.16 Z" fill="#000000" fill-rule="nonzero" fill-opacity="1" /><polyline clip-path="url(#clip792)" style="stroke:#000000; stroke-linecap:round; stroke-linejoin:round; stroke-width:2; stroke-opacity:0.1; fill:none" points="102.74,1415.66 2352.76,1415.66 "/>
<polyline clip-path="url(#clip792)" style="stroke:#000000; stroke-linecap:round; stroke-linejoin:round; stroke-width:2; stroke-opacity:0.1; fill:none" points="102.74,1034.13 2352.76,1034.13 "/>
<polyline clip-path="url(#clip792)" style="stroke:#000000; stroke-linecap:round; stroke-linejoin:round; stroke-width:2; stroke-opacity:0.1; fill:none" points="102.74,652.601 2352.76,652.601 "/>
<polyline clip-path="url(#clip792)" style="stroke:#000000; stroke-linecap:round; stroke-linejoin:round; stroke-width:2; stroke-opacity:0.1; fill:none" points="102.74,271.069 2352.76,271.069 "/>
<polyline clip-path="url(#clip790)" style="stroke:#000000; stroke-linecap:round; stroke-linejoin:round; stroke-width:4; stroke-opacity:1; fill:none" points="102.74,1455.52 102.74,47.2441 "/>
<polyline clip-path="url(#clip790)" style="stroke:#000000; stroke-linecap:round; stroke-linejoin:round; stroke-width:4; stroke-opacity:1; fill:none" points="102.74,1415.66 121.638,1415.66 "/>
<polyline clip-path="url(#clip790)" style="stroke:#000000; stroke-linecap:round; stroke-linejoin:round; stroke-width:4; stroke-opacity:1; fill:none" points="102.74,1034.13 121.638,1034.13 "/>
<polyline clip-path="url(#clip790)" style="stroke:#000000; stroke-linecap:round; stroke-linejoin:round; stroke-width:4; stroke-opacity:1; fill:none" points="102.74,652.601 121.638,652.601 "/>
<polyline clip-path="url(#clip790)" style="stroke:#000000; stroke-linecap:round; stroke-linejoin:round; stroke-width:4; stroke-opacity:1; fill:none" points="102.74,271.069 121.638,271.069 "/>
<path clip-path="url(#clip790)" d="M54.7958 1401.46 Q51.1847 1401.46 49.356 1405.03 Q47.5504 1408.57 47.5504 1415.7 Q47.5504 1422.8 49.356 1426.37 Q51.1847 1429.91 54.7958 1429.91 Q58.43 1429.91 60.2356 1426.37 Q62.0643 1422.8 62.0643 1415.7 Q62.0643 1408.57 60.2356 1405.03 Q58.43 1401.46 54.7958 1401.46 M54.7958 1397.76 Q60.6059 1397.76 63.6615 1402.36 Q66.7402 1406.95 66.7402 1415.7 Q66.7402 1424.42 63.6615 1429.03 Q60.6059 1433.61 54.7958 1433.61 Q48.9856 1433.61 45.9069 1429.03 Q42.8514 1424.42 42.8514 1415.7 Q42.8514 1406.95 45.9069 1402.36 Q48.9856 1397.76 54.7958 1397.76 Z" fill="#000000" fill-rule="nonzero" fill-opacity="1" /><path clip-path="url(#clip790)" d="M50.4208 1047.48 L66.7402 1047.48 L66.7402 1051.41 L44.7958 1051.41 L44.7958 1047.48 Q47.4579 1044.72 52.0412 1040.09 Q56.6476 1035.44 57.8282 1034.1 Q60.0735 1031.57 60.9532 1029.84 Q61.8559 1028.08 61.8559 1026.39 Q61.8559 1023.63 59.9115 1021.9 Q57.9902 1020.16 54.8884 1020.16 Q52.6893 1020.16 50.2356 1020.93 Q47.8051 1021.69 45.0273 1023.24 L45.0273 1018.52 Q47.8514 1017.38 50.3051 1016.81 Q52.7588 1016.23 54.7958 1016.23 Q60.1661 1016.23 63.3605 1018.91 Q66.555 1021.6 66.555 1026.09 Q66.555 1028.22 65.7448 1030.14 Q64.9578 1032.04 62.8513 1034.63 Q62.2726 1035.3 59.1708 1038.52 Q56.0689 1041.71 50.4208 1047.48 Z" fill="#000000" fill-rule="nonzero" fill-opacity="1" /><path clip-path="url(#clip790)" d="M57.1569 639.395 L45.3514 657.844 L57.1569 657.844 L57.1569 639.395 M55.93 635.321 L61.8096 635.321 L61.8096 657.844 L66.7402 657.844 L66.7402 661.733 L61.8096 661.733 L61.8096 669.881 L57.1569 669.881 L57.1569 661.733 L41.5551 661.733 L41.5551 657.219 L55.93 635.321 Z" fill="#000000" fill-rule="nonzero" fill-opacity="1" /><path clip-path="url(#clip790)" d="M55.2124 269.206 Q52.0643 269.206 50.2125 271.359 Q48.3838 273.511 48.3838 277.261 Q48.3838 280.988 50.2125 283.164 Q52.0643 285.317 55.2124 285.317 Q58.3606 285.317 60.1893 283.164 Q62.0411 280.988 62.0411 277.261 Q62.0411 273.511 60.1893 271.359 Q58.3606 269.206 55.2124 269.206 M64.4948 254.553 L64.4948 258.812 Q62.7355 257.979 60.93 257.539 Q59.1476 257.099 57.3884 257.099 Q52.7588 257.099 50.3051 260.224 Q47.8745 263.349 47.5273 269.669 Q48.893 267.655 50.9532 266.59 Q53.0134 265.502 55.4902 265.502 Q60.6985 265.502 63.7078 268.673 Q66.7402 271.822 66.7402 277.261 Q66.7402 282.585 63.592 285.803 Q60.4439 289.021 55.2124 289.021 Q49.2171 289.021 46.0458 284.437 Q42.8745 279.831 42.8745 271.104 Q42.8745 262.91 46.7634 258.049 Q50.6523 253.164 57.2032 253.164 Q58.9624 253.164 60.7448 253.512 Q62.5504 253.859 64.4948 254.553 Z" fill="#000000" fill-rule="nonzero" fill-opacity="1" /><path clip-path="url(#clip790)" d="M-43.2985 925.739 L-37.7603 925.739 Q-39.0335 928.222 -39.6701 930.895 Q-40.3066 933.569 -40.3066 936.433 Q-40.3066 940.794 -38.9698 942.99 Q-37.633 945.154 -34.9594 945.154 Q-32.9224 945.154 -31.7448 943.595 Q-30.5989 942.035 -29.5486 937.324 L-29.103 935.319 Q-27.7662 929.081 -25.3154 926.471 Q-22.8964 923.829 -18.5359 923.829 Q-13.5707 923.829 -10.6743 927.776 Q-7.77787 931.691 -7.77787 938.566 Q-7.77787 941.43 -8.35078 944.55 Q-8.89186 947.637 -10.0059 951.074 L-16.0533 951.074 Q-14.3664 947.828 -13.507 944.677 Q-12.6795 941.526 -12.6795 938.438 Q-12.6795 934.301 -14.0799 932.073 Q-15.5122 929.845 -18.0903 929.845 Q-20.4775 929.845 -21.7506 931.468 Q-23.0237 933.059 -24.2014 938.502 L-24.6788 940.539 Q-25.8246 945.982 -28.18 948.401 Q-30.5671 950.82 -34.7048 950.82 Q-39.7337 950.82 -42.471 947.255 Q-45.2082 943.69 -45.2082 937.133 Q-45.2082 933.887 -44.7308 931.022 Q-44.2534 928.158 -43.2985 925.739 Z" fill="#000000" fill-rule="nonzero" fill-opacity="1" /><path clip-path="url(#clip790)" d="M-54.4703 908.711 L-44.3488 908.711 L-44.3488 896.648 L-39.7974 896.648 L-39.7974 908.711 L-20.4456 908.711 Q-16.0851 908.711 -14.8438 907.533 Q-13.6025 906.323 -13.6025 902.663 L-13.6025 896.648 L-8.70089 896.648 L-8.70089 902.663 Q-8.70089 909.443 -11.2153 912.021 Q-13.7616 914.599 -20.4456 914.599 L-39.7974 914.599 L-39.7974 918.896 L-44.3488 918.896 L-44.3488 914.599 L-54.4703 914.599 L-54.4703 908.711 Z" fill="#000000" fill-rule="nonzero" fill-opacity="1" /><path clip-path="url(#clip790)" d="M-38.8743 868.288 Q-39.4473 869.275 -39.7019 870.453 Q-39.9883 871.599 -39.9883 872.999 Q-39.9883 877.964 -36.7418 880.638 Q-33.5271 883.28 -27.4797 883.28 L-8.70089 883.28 L-8.70089 889.168 L-44.3488 889.168 L-44.3488 883.28 L-38.8107 883.28 Q-42.0572 881.434 -43.6168 878.474 Q-45.2082 875.513 -45.2082 871.28 Q-45.2082 870.676 -45.1127 869.943 Q-45.0491 869.211 -44.8899 868.32 L-38.8743 868.288 Z" fill="#000000" fill-rule="nonzero" fill-opacity="1" /><path clip-path="url(#clip790)" d="M-26.6204 845.945 Q-26.6204 853.043 -24.9971 855.78 Q-23.3738 858.517 -19.4589 858.517 Q-16.3397 858.517 -14.4937 856.48 Q-12.6795 854.411 -12.6795 850.878 Q-12.6795 846.008 -16.1169 843.08 Q-19.5863 840.12 -25.3154 840.12 L-26.6204 840.12 L-26.6204 845.945 M-29.0393 834.264 L-8.70089 834.264 L-8.70089 840.12 L-14.1117 840.12 Q-10.8652 842.125 -9.30563 845.117 Q-7.77787 848.109 -7.77787 852.438 Q-7.77787 857.912 -10.8334 861.159 Q-13.9208 864.373 -19.077 864.373 Q-25.0926 864.373 -28.1481 860.363 Q-31.2037 856.321 -31.2037 848.332 L-31.2037 840.12 L-31.7766 840.12 Q-35.8188 840.12 -38.015 842.794 Q-40.243 845.435 -40.243 850.242 Q-40.243 853.297 -39.5109 856.194 Q-38.7789 859.09 -37.3147 861.764 L-42.7256 861.764 Q-43.9669 858.549 -44.5716 855.525 Q-45.2082 852.501 -45.2082 849.637 Q-45.2082 841.903 -41.1978 838.083 Q-37.1874 834.264 -29.0393 834.264 Z" fill="#000000" fill-rule="nonzero" fill-opacity="1" /><path clip-path="url(#clip790)" d="M-44.3488 822.201 L-44.3488 816.344 L-8.70089 816.344 L-8.70089 822.201 L-44.3488 822.201 M-58.2261 822.201 L-58.2261 816.344 L-50.81 816.344 L-50.81 822.201 L-58.2261 822.201 Z" fill="#000000" fill-rule="nonzero" fill-opacity="1" /><path clip-path="url(#clip790)" d="M-30.217 774.458 L-8.70089 774.458 L-8.70089 780.314 L-30.026 780.314 Q-35.0867 780.314 -37.6012 782.288 Q-40.1157 784.261 -40.1157 788.208 Q-40.1157 792.95 -37.0919 795.687 Q-34.0682 798.425 -28.8484 798.425 L-8.70089 798.425 L-8.70089 804.313 L-44.3488 804.313 L-44.3488 798.425 L-38.8107 798.425 Q-42.0254 796.324 -43.6168 793.491 Q-45.2082 790.627 -45.2082 786.903 Q-45.2082 780.76 -41.3888 777.609 Q-37.6012 774.458 -30.217 774.458 Z" fill="#000000" fill-rule="nonzero" fill-opacity="1" /><path clip-path="url(#clip790)" d="M-58.2261 742.598 L-58.2261 729.102 L-53.6746 729.102 L-53.6746 736.741 L-4.65867 736.741 L-4.65867 729.102 L-0.107189 729.102 L-0.107189 742.598 L-58.2261 742.598 Z" fill="#000000" fill-rule="nonzero" fill-opacity="1" /><path clip-path="url(#clip790)" d="M-27.989 686.134 L-25.1244 686.134 L-25.1244 713.061 Q-19.077 712.679 -15.8941 709.432 Q-12.7431 706.154 -12.7431 700.329 Q-12.7431 696.955 -13.5707 693.804 Q-14.3982 690.622 -16.0533 687.502 L-10.5151 687.502 Q-9.17832 690.653 -8.47809 693.964 Q-7.77787 697.274 -7.77787 700.679 Q-7.77787 709.209 -12.7431 714.206 Q-17.7084 719.172 -26.1748 719.172 Q-34.9276 719.172 -40.052 714.461 Q-45.2082 709.719 -45.2082 701.698 Q-45.2082 694.505 -40.5613 690.335 Q-35.9461 686.134 -27.989 686.134 M-29.7077 691.99 Q-34.5138 692.054 -37.3784 694.696 Q-40.243 697.305 -40.243 701.634 Q-40.243 706.536 -37.4739 709.496 Q-34.7048 712.424 -29.6759 712.87 L-29.7077 691.99 Z" fill="#000000" fill-rule="nonzero" fill-opacity="1" /><path clip-path="url(#clip790)" d="M-8.70089 664.013 L-56.2209 682.155 L-56.2209 675.439 L-16.2124 660.384 L-56.2209 645.298 L-56.2209 638.614 L-8.70089 656.724 L-8.70089 664.013 Z" fill="#000000" fill-rule="nonzero" fill-opacity="1" /><path clip-path="url(#clip790)" d="M-56.2209 621.522 L-56.2209 616.111 L-2.65347 632.662 L-2.65347 638.073 L-56.2209 621.522 Z" fill="#000000" fill-rule="nonzero" fill-opacity="1" /><path clip-path="url(#clip790)" d="M-60.4541 588.993 Q-62.4593 588.993 -63.8597 590.425 Q-65.292 591.826 -65.292 593.831 Q-65.292 595.868 -63.8916 597.268 Q-62.5229 598.637 -60.4541 598.637 Q-58.4489 598.637 -57.0484 597.237 Q-55.648 595.836 -55.648 593.831 Q-55.648 591.826 -57.0484 590.425 Q-58.4489 588.993 -60.4541 588.993 M-49.887 593.831 L-26.2384 602.488 L-26.2384 585.142 L-49.887 593.831 M-53.1654 598.637 Q-54.4703 600.579 -56.2845 601.565 Q-58.1306 602.552 -60.4541 602.552 Q-64.1144 602.552 -66.6607 600.038 Q-69.2069 597.491 -69.2069 593.831 Q-69.2069 590.202 -66.6288 587.656 Q-64.0825 585.078 -60.4541 585.078 Q-58.2261 585.078 -56.3482 586.097 Q-54.4703 587.083 -53.1654 588.993 L-8.70089 572.06 L-8.70089 578.744 L-20.8912 583.073 L-20.8912 604.493 L-8.70089 608.822 L-8.70089 615.602 L-53.1654 598.637 Z" fill="#000000" fill-rule="nonzero" fill-opacity="1" /><path clip-path="url(#clip790)" d="M-58.2261 551.69 L-0.107189 551.69 L-0.107189 565.185 L-4.65867 565.185 L-4.65867 557.578 L-53.6746 557.578 L-53.6746 565.185 L-58.2261 565.185 L-58.2261 551.69 Z" fill="#000000" fill-rule="nonzero" fill-opacity="1" /><polyline clip-path="url(#clip792)" style="stroke:#009af9; stroke-linecap:round; stroke-linejoin:round; stroke-width:8; stroke-opacity:1; fill:none" points="102.74,1415.66 130.013,1330.29 157.286,1174.54 184.559,1048.09 211.832,947.618 239.105,872.47 266.378,820.054 293.651,786.492 320.924,766.501 348.196,753.626 375.469,751.241 402.742,753.822 430.015,751.814 457.288,741.563 484.561,720.618 511.834,687.836 539.107,643.355 566.38,588.482 593.653,525.493 620.926,457.397 648.199,387.664 675.471,319.95 702.744,257.807 730.017,204.389 757.29,162.135 784.563,132.433 811.836,115.245 839.109,103.499 866.382,91.5909 893.655,87.101 920.928,89.6893 948.201,98.7792 975.474,113.779 1002.75,134.198 1030.02,159.758 1057.29,190.48 1084.57,226.731 1111.84,269.223 1139.11,318.939 1166.38,376.988 1193.66,444.384 1220.93,521.731 1248.2,608.837 1275.48,704.244 1302.75,739.258 1330.02,689.774 1357.29,645.12 1384.57,589.384 1411.84,504.403 1439.11,425.163 1466.39,354.312 1493.66,293.312 1520.93,243.373 1548.2,205.423 1575.48,180.109 1602.75,167.792 1630.02,168.565 1657.3,182.28 1684.57,208.571 1711.84,246.9 1739.12,296.586 1766.39,356.85 1793.66,426.844 1820.93,505.679 1848.21,592.448 1875.48,686.228 1902.75,786.079 1930.03,891.022 1957.3,999.999 1984.57,1111.82 2011.84,1225.09 2039.12,1338.09 2066.39,1413.54 2093.66,1415.66 2120.94,1415.66 2148.21,1415.66 2175.48,1415.66 2202.75,1415.66 2230.03,1415.66 2257.3,1415.66 2284.57,1415.66 2311.85,1415.66 2339.12,1415.66 2366.39,1415.66 2393.67,1415.66 2420.94,1415.66 2448.21,1415.66 2475.48,1415.66 2502.76,1415.66 2530.03,1415.66 2557.3,1415.66 2584.58,1415.66 2611.85,1415.66 2639.12,1415.66 2666.39,1415.66 2693.67,1415.66 2720.94,1415.66 2748.21,1415.66 2775.49,1415.66 2802.76,1415.66 "/>
<polyline clip-path="url(#clip792)" style="stroke:#e26f46; stroke-linecap:round; stroke-linejoin:round; stroke-width:8; stroke-opacity:1; fill:none" points="102.74,1415.66 130.013,1336.34 157.286,1187.36 184.559,1051.78 211.832,936.109 239.105,840.15 266.378,762.886 293.651,702.604 320.924,657.233 348.196,624.619 375.469,599.452 402.742,578.323 430.015,560.413 457.288,544.463 484.561,530.011 511.834,517.307 539.107,507.142 566.38,500.613 593.653,498.878 620.926,502.95 648.199,513.548 675.471,531.041 702.744,555.471 730.017,586.642 757.29,624.263 784.563,668.096 811.836,718.105 839.109,763.996 866.382,792.635 893.655,815.301 920.928,831.661 948.201,841.703 975.474,845.921 1002.75,845.282 1030.02,841.173 1057.29,835.329 1084.57,829.765 1111.84,826.696 1139.11,828.456 1166.38,837.416 1193.66,855.91 1220.93,886.152 1248.2,930.165 1275.48,989.711 1302.75,1020.49 1330.02,999.933 1357.29,985.73 1384.57,967.608 1411.84,931.997 1439.11,899.92 1466.39,872.43 1493.66,849.858 1520.93,832.441 1548.2,820.327 1575.48,813.577 1602.75,812.177 1630.02,816.046 1657.3,825.05 1684.57,839.01 1711.84,857.715 1739.12,880.936 1766.39,908.431 1793.66,939.96 1820.93,975.289 1848.21,1014.2 1875.48,1056.48 1902.75,1101.96 1930.03,1150.48 1957.3,1201.92 1984.57,1256.15 2011.84,1313.1 2039.12,1372.71 2066.39,1414.45 2093.66,1415.66 2120.94,1415.66 2148.21,1415.66 2175.48,1415.66 2202.75,1415.66 2230.03,1415.66 2257.3,1415.66 2284.57,1415.66 2311.85,1415.66 2339.12,1415.66 2366.39,1415.66 2393.67,1415.66 2420.94,1415.66 2448.21,1415.66 2475.48,1415.66 2502.76,1415.66 2530.03,1415.66 2557.3,1415.66 2584.58,1415.66 2611.85,1415.66 2639.12,1415.66 2666.39,1415.66 2693.67,1415.66 2720.94,1415.66 2748.21,1415.66 2775.49,1415.66 2802.76,1415.66 "/>
<polyline clip-path="url(#clip792)" style="stroke:#3da44d; stroke-linecap:round; stroke-linejoin:round; stroke-width:8; stroke-opacity:1; fill:none" points="102.74,1415.66 130.013,1338.58 157.286,1192.1 184.559,1053.87 211.832,932.518 239.105,828.937 266.378,743.289 293.651,674.937 320.924,622.752 348.196,585.328 375.469,555.037 402.742,529.983 430.015,512.598 457.288,502.06 484.561,497.972 511.834,500.273 539.107,509.097 566.38,524.609 593.653,546.851 620.926,575.64 648.199,610.509 675.471,650.726 702.744,695.353 730.017,743.358 757.29,793.729 784.563,845.601 811.836,898.359 839.109,940.594 866.382,958.129 893.655,967.924 920.928,970.817 948.201,967.624 975.474,959.518 1002.75,947.955 1030.02,934.588 1057.29,921.196 1084.57,909.602 1111.84,901.614 1139.11,898.966 1166.38,903.274 1193.66,916 1220.93,938.427 1248.2,971.638 1275.48,1016.51 1302.75,1043.7 1330.02,1033.19 1357.29,1028.54 1384.57,1022.79 1411.84,1003.6 1439.11,987.71 1466.39,975.948 1493.66,968.274 1520.93,964.582 1548.2,964.721 1575.48,968.499 1602.75,975.696 1630.02,986.08 1657.3,999.408 1684.57,1015.44 1711.84,1033.94 1739.12,1054.7 1766.39,1077.5 1793.66,1102.16 1820.93,1128.53 1848.21,1156.46 1875.48,1185.84 1902.75,1216.57 1930.03,1248.58 1957.3,1281.83 1984.57,1316.27 2011.84,1351.88 2039.12,1388.67 2066.39,1414.78 2093.66,1415.66 2120.94,1415.66 2148.21,1415.66 2175.48,1415.66 2202.75,1415.66 2230.03,1415.66 2257.3,1415.66 2284.57,1415.66 2311.85,1415.66 2339.12,1415.66 2366.39,1415.66 2393.67,1415.66 2420.94,1415.66 2448.21,1415.66 2475.48,1415.66 2502.76,1415.66 2530.03,1415.66 2557.3,1415.66 2584.58,1415.66 2611.85,1415.66 2639.12,1415.66 2666.39,1415.66 2693.67,1415.66 2720.94,1415.66 2748.21,1415.66 2775.49,1415.66 2802.76,1415.66 "/>
<polyline clip-path="url(#clip792)" style="stroke:#c271d2; stroke-linecap:round; stroke-linejoin:round; stroke-width:8; stroke-opacity:1; fill:none" points="102.74,1415.66 130.013,1344.27 157.286,1204.25 184.559,1068.18 211.832,953.416 239.105,860.825 266.378,790.556 293.651,741.608 320.924,712.351 348.196,700.594 375.469,690.523 402.742,680.165 430.015,672.598 457.288,665.57 484.561,657.657 511.834,648.27 539.107,637.575 566.38,626.354 593.653,615.824 620.926,607.47 648.199,602.891 675.471,603.695 702.744,611.435 730.017,627.584 757.29,653.55 784.563,690.701 811.836,740.404 839.109,781.192 866.382,793.175 893.655,803.394 920.928,811.816 948.201,818.364 975.474,823.224 1002.75,826.855 1030.02,829.995 1057.29,833.657 1084.57,839.119 1111.84,847.91 1139.11,861.781 1166.38,882.666 1193.66,912.637 1220.93,953.849 1248.2,1008.47 1275.48,1078.61 1302.75,1110.31 1330.02,1082.08 1357.29,1060.06 1384.57,1032.96 1411.84,988.967 1439.11,949.584 1466.39,915.667 1493.66,887.494 1520.93,865.236 1548.2,848.967 1575.48,838.671 1602.75,834.257 1630.02,835.568 1657.3,842.393 1684.57,854.487 1711.84,871.573 1739.12,893.365 1766.39,919.57 1793.66,949.903 1820.93,984.096 1848.21,1021.9 1875.48,1063.1 1902.75,1107.5 1930.03,1154.96 1957.3,1205.36 1984.57,1258.63 2011.84,1314.72 2039.12,1373.64 2066.39,1414.58 2093.66,1415.66 2120.94,1415.66 2148.21,1415.66 2175.48,1415.66 2202.75,1415.66 2230.03,1415.66 2257.3,1415.66 2284.57,1415.66 2311.85,1415.66 2339.12,1415.66 2366.39,1415.66 2393.67,1415.66 2420.94,1415.66 2448.21,1415.66 2475.48,1415.66 2502.76,1415.66 2530.03,1415.66 2557.3,1415.66 2584.58,1415.66 2611.85,1415.66 2639.12,1415.66 2666.39,1415.66 2693.67,1415.66 2720.94,1415.66 2748.21,1415.66 2775.49,1415.66 2802.76,1415.66 "/>
<path clip-path="url(#clip790)" d="M1767.32 353.387 L2277.76 353.387 L2277.76 94.1866 L1767.32 94.1866  Z" fill="#ffffff" fill-rule="evenodd" fill-opacity="1"/>
<polyline clip-path="url(#clip790)" style="stroke:#000000; stroke-linecap:round; stroke-linejoin:round; stroke-width:4; stroke-opacity:1; fill:none" points="1767.32,353.387 2277.76,353.387 2277.76,94.1866 1767.32,94.1866 1767.32,353.387 "/>
<polyline clip-path="url(#clip790)" style="stroke:#009af9; stroke-linecap:round; stroke-linejoin:round; stroke-width:8; stroke-opacity:1; fill:none" points="1792.32,146.027 1942.32,146.027 "/>
<path clip-path="url(#clip790)" d="M1967.32 128.747 L1971.99 128.747 L1971.99 163.307 L1967.32 163.307 L1967.32 128.747 Z" fill="#000000" fill-rule="nonzero" fill-opacity="1" /><path clip-path="url(#clip790)" d="M1998.17 141.316 L1998.17 127.288 L2002.43 127.288 L2002.43 163.307 L1998.17 163.307 L1998.17 159.418 Q1996.83 161.733 1994.77 162.867 Q1992.73 163.978 1989.86 163.978 Q1985.16 163.978 1982.2 160.228 Q1979.26 156.478 1979.26 150.367 Q1979.26 144.256 1982.2 140.506 Q1985.16 136.756 1989.86 136.756 Q1992.73 136.756 1994.77 137.89 Q1996.83 139.001 1998.17 141.316 M1983.66 150.367 Q1983.66 155.066 1985.58 157.751 Q1987.53 160.413 1990.9 160.413 Q1994.28 160.413 1996.23 157.751 Q1998.17 155.066 1998.17 150.367 Q1998.17 145.668 1996.23 143.006 Q1994.28 140.321 1990.9 140.321 Q1987.53 140.321 1985.58 143.006 Q1983.66 145.668 1983.66 150.367 Z" fill="#000000" fill-rule="nonzero" fill-opacity="1" /><polyline clip-path="url(#clip790)" style="stroke:#e26f46; stroke-linecap:round; stroke-linejoin:round; stroke-width:8; stroke-opacity:1; fill:none" points="1792.32,197.867 1942.32,197.867 "/>
<path clip-path="url(#clip790)" d="M1983.15 185.193 L1976.81 202.392 L1989.52 202.392 L1983.15 185.193 M1980.51 180.587 L1985.81 180.587 L1998.98 215.147 L1994.12 215.147 L1990.97 206.281 L1975.4 206.281 L1972.25 215.147 L1967.32 215.147 L1980.51 180.587 Z" fill="#000000" fill-rule="nonzero" fill-opacity="1" /><path clip-path="url(#clip790)" d="M2003.84 179.128 L2008.1 179.128 L2008.1 215.147 L2003.84 215.147 L2003.84 179.128 Z" fill="#000000" fill-rule="nonzero" fill-opacity="1" /><path clip-path="url(#clip790)" d="M2034.08 201.883 Q2034.08 197.253 2032.15 194.707 Q2030.26 192.161 2026.81 192.161 Q2023.38 192.161 2021.46 194.707 Q2019.56 197.253 2019.56 201.883 Q2019.56 206.489 2021.46 209.036 Q2023.38 211.582 2026.81 211.582 Q2030.26 211.582 2032.15 209.036 Q2034.08 206.489 2034.08 201.883 M2038.34 211.929 Q2038.34 218.549 2035.4 221.767 Q2032.46 225.008 2026.39 225.008 Q2024.15 225.008 2022.15 224.66 Q2020.16 224.336 2018.29 223.642 L2018.29 219.498 Q2020.16 220.517 2021.99 221.003 Q2023.82 221.489 2025.72 221.489 Q2029.91 221.489 2031.99 219.29 Q2034.08 217.114 2034.08 212.693 L2034.08 210.586 Q2032.76 212.878 2030.7 214.012 Q2028.64 215.147 2025.77 215.147 Q2021 215.147 2018.08 211.512 Q2015.16 207.878 2015.16 201.883 Q2015.16 195.864 2018.08 192.23 Q2021 188.596 2025.77 188.596 Q2028.64 188.596 2030.7 189.73 Q2032.76 190.864 2034.08 193.156 L2034.08 189.221 L2038.34 189.221 L2038.34 211.929 Z" fill="#000000" fill-rule="nonzero" fill-opacity="1" /><path clip-path="url(#clip790)" d="M2069.28 201.119 L2069.28 203.202 L2049.7 203.202 Q2049.98 207.6 2052.34 209.915 Q2054.72 212.207 2058.96 212.207 Q2061.41 212.207 2063.71 211.605 Q2066.02 211.003 2068.29 209.799 L2068.29 213.827 Q2066 214.799 2063.59 215.309 Q2061.18 215.818 2058.71 215.818 Q2052.5 215.818 2048.87 212.207 Q2045.26 208.596 2045.26 202.438 Q2045.26 196.073 2048.68 192.346 Q2052.13 188.596 2057.96 188.596 Q2063.2 188.596 2066.23 191.975 Q2069.28 195.332 2069.28 201.119 M2065.02 199.869 Q2064.98 196.374 2063.06 194.29 Q2061.16 192.207 2058.01 192.207 Q2054.45 192.207 2052.29 194.221 Q2050.16 196.235 2049.84 199.892 L2065.02 199.869 Z" fill="#000000" fill-rule="nonzero" fill-opacity="1" /><path clip-path="url(#clip790)" d="M2094.89 202.207 Q2094.89 197.508 2092.94 194.846 Q2091.02 192.161 2087.64 192.161 Q2084.26 192.161 2082.32 194.846 Q2080.4 197.508 2080.4 202.207 Q2080.4 206.906 2082.32 209.591 Q2084.26 212.253 2087.64 212.253 Q2091.02 212.253 2092.94 209.591 Q2094.89 206.906 2094.89 202.207 M2080.4 193.156 Q2081.74 190.841 2083.77 189.73 Q2085.83 188.596 2088.68 188.596 Q2093.4 188.596 2096.34 192.346 Q2099.31 196.096 2099.31 202.207 Q2099.31 208.318 2096.34 212.068 Q2093.4 215.818 2088.68 215.818 Q2085.83 215.818 2083.77 214.707 Q2081.74 213.573 2080.4 211.258 L2080.4 215.147 L2076.11 215.147 L2076.11 179.128 L2080.4 179.128 L2080.4 193.156 Z" fill="#000000" fill-rule="nonzero" fill-opacity="1" /><path clip-path="url(#clip790)" d="M2121.39 193.202 Q2120.67 192.786 2119.82 192.6 Q2118.98 192.392 2117.96 192.392 Q2114.35 192.392 2112.41 194.753 Q2110.49 197.091 2110.49 201.489 L2110.49 215.147 L2106.21 215.147 L2106.21 189.221 L2110.49 189.221 L2110.49 193.249 Q2111.83 190.888 2113.98 189.753 Q2116.14 188.596 2119.21 188.596 Q2119.65 188.596 2120.19 188.665 Q2120.72 188.712 2121.37 188.827 L2121.39 193.202 Z" fill="#000000" fill-rule="nonzero" fill-opacity="1" /><path clip-path="url(#clip790)" d="M2137.64 202.114 Q2132.48 202.114 2130.49 203.295 Q2128.5 204.475 2128.5 207.323 Q2128.5 209.591 2129.98 210.934 Q2131.48 212.253 2134.05 212.253 Q2137.59 212.253 2139.72 209.753 Q2141.88 207.23 2141.88 203.063 L2141.88 202.114 L2137.64 202.114 M2146.14 200.355 L2146.14 215.147 L2141.88 215.147 L2141.88 211.211 Q2140.42 213.573 2138.24 214.707 Q2136.07 215.818 2132.92 215.818 Q2128.94 215.818 2126.58 213.596 Q2124.24 211.35 2124.24 207.6 Q2124.24 203.225 2127.15 201.003 Q2130.09 198.781 2135.9 198.781 L2141.88 198.781 L2141.88 198.364 Q2141.88 195.425 2139.93 193.827 Q2138.01 192.207 2134.52 192.207 Q2132.29 192.207 2130.19 192.739 Q2128.08 193.272 2126.14 194.337 L2126.14 190.401 Q2128.47 189.499 2130.67 189.059 Q2132.87 188.596 2134.95 188.596 Q2140.58 188.596 2143.36 191.513 Q2146.14 194.429 2146.14 200.355 Z" fill="#000000" fill-rule="nonzero" fill-opacity="1" /><path clip-path="url(#clip790)" d="M2154.91 189.221 L2159.17 189.221 L2159.17 215.147 L2154.91 215.147 L2154.91 189.221 M2154.91 179.128 L2159.17 179.128 L2159.17 184.522 L2154.91 184.522 L2154.91 179.128 Z" fill="#000000" fill-rule="nonzero" fill-opacity="1" /><path clip-path="url(#clip790)" d="M2186.74 190.216 L2186.74 194.198 Q2184.93 193.202 2183.1 192.716 Q2181.3 192.207 2179.45 192.207 Q2175.3 192.207 2173.01 194.846 Q2170.72 197.462 2170.72 202.207 Q2170.72 206.952 2173.01 209.591 Q2175.3 212.207 2179.45 212.207 Q2181.3 212.207 2183.1 211.721 Q2184.93 211.211 2186.74 210.216 L2186.74 214.151 Q2184.95 214.985 2183.03 215.401 Q2181.14 215.818 2178.98 215.818 Q2173.13 215.818 2169.68 212.137 Q2166.23 208.457 2166.23 202.207 Q2166.23 195.864 2169.7 192.23 Q2173.2 188.596 2179.26 188.596 Q2181.23 188.596 2183.1 189.013 Q2184.98 189.406 2186.74 190.216 Z" fill="#000000" fill-rule="nonzero" fill-opacity="1" /><path clip-path="url(#clip790)" d="M2204.38 179.175 Q2201.27 184.499 2199.77 189.707 Q2198.26 194.915 2198.26 200.262 Q2198.26 205.61 2199.77 210.864 Q2201.3 216.096 2204.38 221.397 L2200.67 221.397 Q2197.2 215.957 2195.46 210.702 Q2193.75 205.448 2193.75 200.262 Q2193.75 195.1 2195.46 189.869 Q2197.18 184.638 2200.67 179.175 L2204.38 179.175 Z" fill="#000000" fill-rule="nonzero" fill-opacity="1" /><path clip-path="url(#clip790)" d="M2217.27 211.211 L2233.59 211.211 L2233.59 215.147 L2211.64 215.147 L2211.64 211.211 Q2214.31 208.457 2218.89 203.827 Q2223.5 199.174 2224.68 197.832 Q2226.92 195.309 2227.8 193.573 Q2228.7 191.813 2228.7 190.124 Q2228.7 187.369 2226.76 185.633 Q2224.84 183.897 2221.74 183.897 Q2219.54 183.897 2217.08 184.661 Q2214.65 185.425 2211.88 186.975 L2211.88 182.253 Q2214.7 181.119 2217.15 180.54 Q2219.61 179.962 2221.64 179.962 Q2227.01 179.962 2230.21 182.647 Q2233.4 185.332 2233.4 189.823 Q2233.4 191.952 2232.59 193.874 Q2231.81 195.772 2229.7 198.364 Q2229.12 199.036 2226.02 202.253 Q2222.92 205.448 2217.27 211.211 Z" fill="#000000" fill-rule="nonzero" fill-opacity="1" /><path clip-path="url(#clip790)" d="M2242.13 179.175 L2245.83 179.175 Q2249.31 184.638 2251.02 189.869 Q2252.76 195.1 2252.76 200.262 Q2252.76 205.448 2251.02 210.702 Q2249.31 215.957 2245.83 221.397 L2242.13 221.397 Q2245.21 216.096 2246.71 210.864 Q2248.24 205.61 2248.24 200.262 Q2248.24 194.915 2246.71 189.707 Q2245.21 184.499 2242.13 179.175 Z" fill="#000000" fill-rule="nonzero" fill-opacity="1" /><polyline clip-path="url(#clip790)" style="stroke:#3da44d; stroke-linecap:round; stroke-linejoin:round; stroke-width:8; stroke-opacity:1; fill:none" points="1792.32,249.707 1942.32,249.707 "/>
<path clip-path="url(#clip790)" d="M1983.15 237.033 L1976.81 254.232 L1989.52 254.232 L1983.15 237.033 M1980.51 232.427 L1985.81 232.427 L1998.98 266.987 L1994.12 266.987 L1990.97 258.121 L1975.4 258.121 L1972.25 266.987 L1967.32 266.987 L1980.51 232.427 Z" fill="#000000" fill-rule="nonzero" fill-opacity="1" /><path clip-path="url(#clip790)" d="M2003.84 230.968 L2008.1 230.968 L2008.1 266.987 L2003.84 266.987 L2003.84 230.968 Z" fill="#000000" fill-rule="nonzero" fill-opacity="1" /><path clip-path="url(#clip790)" d="M2034.08 253.723 Q2034.08 249.093 2032.15 246.547 Q2030.26 244.001 2026.81 244.001 Q2023.38 244.001 2021.46 246.547 Q2019.56 249.093 2019.56 253.723 Q2019.56 258.329 2021.46 260.876 Q2023.38 263.422 2026.81 263.422 Q2030.26 263.422 2032.15 260.876 Q2034.08 258.329 2034.08 253.723 M2038.34 263.769 Q2038.34 270.389 2035.4 273.607 Q2032.46 276.848 2026.39 276.848 Q2024.15 276.848 2022.15 276.5 Q2020.16 276.176 2018.29 275.482 L2018.29 271.338 Q2020.16 272.357 2021.99 272.843 Q2023.82 273.329 2025.72 273.329 Q2029.91 273.329 2031.99 271.13 Q2034.08 268.954 2034.08 264.533 L2034.08 262.426 Q2032.76 264.718 2030.7 265.852 Q2028.64 266.987 2025.77 266.987 Q2021 266.987 2018.08 263.352 Q2015.16 259.718 2015.16 253.723 Q2015.16 247.704 2018.08 244.07 Q2021 240.436 2025.77 240.436 Q2028.64 240.436 2030.7 241.57 Q2032.76 242.704 2034.08 244.996 L2034.08 241.061 L2038.34 241.061 L2038.34 263.769 Z" fill="#000000" fill-rule="nonzero" fill-opacity="1" /><path clip-path="url(#clip790)" d="M2069.28 252.959 L2069.28 255.042 L2049.7 255.042 Q2049.98 259.44 2052.34 261.755 Q2054.72 264.047 2058.96 264.047 Q2061.41 264.047 2063.71 263.445 Q2066.02 262.843 2068.29 261.639 L2068.29 265.667 Q2066 266.639 2063.59 267.149 Q2061.18 267.658 2058.71 267.658 Q2052.5 267.658 2048.87 264.047 Q2045.26 260.436 2045.26 254.278 Q2045.26 247.913 2048.68 244.186 Q2052.13 240.436 2057.96 240.436 Q2063.2 240.436 2066.23 243.815 Q2069.28 247.172 2069.28 252.959 M2065.02 251.709 Q2064.98 248.214 2063.06 246.13 Q2061.16 244.047 2058.01 244.047 Q2054.45 244.047 2052.29 246.061 Q2050.16 248.075 2049.84 251.732 L2065.02 251.709 Z" fill="#000000" fill-rule="nonzero" fill-opacity="1" /><path clip-path="url(#clip790)" d="M2094.89 254.047 Q2094.89 249.348 2092.94 246.686 Q2091.02 244.001 2087.64 244.001 Q2084.26 244.001 2082.32 246.686 Q2080.4 249.348 2080.4 254.047 Q2080.4 258.746 2082.32 261.431 Q2084.26 264.093 2087.64 264.093 Q2091.02 264.093 2092.94 261.431 Q2094.89 258.746 2094.89 254.047 M2080.4 244.996 Q2081.74 242.681 2083.77 241.57 Q2085.83 240.436 2088.68 240.436 Q2093.4 240.436 2096.34 244.186 Q2099.31 247.936 2099.31 254.047 Q2099.31 260.158 2096.34 263.908 Q2093.4 267.658 2088.68 267.658 Q2085.83 267.658 2083.77 266.547 Q2081.74 265.413 2080.4 263.098 L2080.4 266.987 L2076.11 266.987 L2076.11 230.968 L2080.4 230.968 L2080.4 244.996 Z" fill="#000000" fill-rule="nonzero" fill-opacity="1" /><path clip-path="url(#clip790)" d="M2121.39 245.042 Q2120.67 244.626 2119.82 244.44 Q2118.98 244.232 2117.96 244.232 Q2114.35 244.232 2112.41 246.593 Q2110.49 248.931 2110.49 253.329 L2110.49 266.987 L2106.21 266.987 L2106.21 241.061 L2110.49 241.061 L2110.49 245.089 Q2111.83 242.728 2113.98 241.593 Q2116.14 240.436 2119.21 240.436 Q2119.65 240.436 2120.19 240.505 Q2120.72 240.552 2121.37 240.667 L2121.39 245.042 Z" fill="#000000" fill-rule="nonzero" fill-opacity="1" /><path clip-path="url(#clip790)" d="M2137.64 253.954 Q2132.48 253.954 2130.49 255.135 Q2128.5 256.315 2128.5 259.163 Q2128.5 261.431 2129.98 262.774 Q2131.48 264.093 2134.05 264.093 Q2137.59 264.093 2139.72 261.593 Q2141.88 259.07 2141.88 254.903 L2141.88 253.954 L2137.64 253.954 M2146.14 252.195 L2146.14 266.987 L2141.88 266.987 L2141.88 263.051 Q2140.42 265.413 2138.24 266.547 Q2136.07 267.658 2132.92 267.658 Q2128.94 267.658 2126.58 265.436 Q2124.24 263.19 2124.24 259.44 Q2124.24 255.065 2127.15 252.843 Q2130.09 250.621 2135.9 250.621 L2141.88 250.621 L2141.88 250.204 Q2141.88 247.265 2139.93 245.667 Q2138.01 244.047 2134.52 244.047 Q2132.29 244.047 2130.19 244.579 Q2128.08 245.112 2126.14 246.177 L2126.14 242.241 Q2128.47 241.339 2130.67 240.899 Q2132.87 240.436 2134.95 240.436 Q2140.58 240.436 2143.36 243.353 Q2146.14 246.269 2146.14 252.195 Z" fill="#000000" fill-rule="nonzero" fill-opacity="1" /><path clip-path="url(#clip790)" d="M2154.91 241.061 L2159.17 241.061 L2159.17 266.987 L2154.91 266.987 L2154.91 241.061 M2154.91 230.968 L2159.17 230.968 L2159.17 236.362 L2154.91 236.362 L2154.91 230.968 Z" fill="#000000" fill-rule="nonzero" fill-opacity="1" /><path clip-path="url(#clip790)" d="M2186.74 242.056 L2186.74 246.038 Q2184.93 245.042 2183.1 244.556 Q2181.3 244.047 2179.45 244.047 Q2175.3 244.047 2173.01 246.686 Q2170.72 249.302 2170.72 254.047 Q2170.72 258.792 2173.01 261.431 Q2175.3 264.047 2179.45 264.047 Q2181.3 264.047 2183.1 263.561 Q2184.93 263.051 2186.74 262.056 L2186.74 265.991 Q2184.95 266.825 2183.03 267.241 Q2181.14 267.658 2178.98 267.658 Q2173.13 267.658 2169.68 263.977 Q2166.23 260.297 2166.23 254.047 Q2166.23 247.704 2169.7 244.07 Q2173.2 240.436 2179.26 240.436 Q2181.23 240.436 2183.1 240.853 Q2184.98 241.246 2186.74 242.056 Z" fill="#000000" fill-rule="nonzero" fill-opacity="1" /><path clip-path="url(#clip790)" d="M2204.38 231.015 Q2201.27 236.339 2199.77 241.547 Q2198.26 246.755 2198.26 252.102 Q2198.26 257.45 2199.77 262.704 Q2201.3 267.936 2204.38 273.237 L2200.67 273.237 Q2197.2 267.797 2195.46 262.542 Q2193.75 257.288 2193.75 252.102 Q2193.75 246.94 2195.46 241.709 Q2197.18 236.478 2200.67 231.015 L2204.38 231.015 Z" fill="#000000" fill-rule="nonzero" fill-opacity="1" /><path clip-path="url(#clip790)" d="M2226.09 236.501 L2214.28 254.95 L2226.09 254.95 L2226.09 236.501 M2224.86 232.427 L2230.74 232.427 L2230.74 254.95 L2235.67 254.95 L2235.67 258.839 L2230.74 258.839 L2230.74 266.987 L2226.09 266.987 L2226.09 258.839 L2210.49 258.839 L2210.49 254.325 L2224.86 232.427 Z" fill="#000000" fill-rule="nonzero" fill-opacity="1" /><path clip-path="url(#clip790)" d="M2242.13 231.015 L2245.83 231.015 Q2249.31 236.478 2251.02 241.709 Q2252.76 246.94 2252.76 252.102 Q2252.76 257.288 2251.02 262.542 Q2249.31 267.797 2245.83 273.237 L2242.13 273.237 Q2245.21 267.936 2246.71 262.704 Q2248.24 257.45 2248.24 252.102 Q2248.24 246.755 2246.71 241.547 Q2245.21 236.339 2242.13 231.015 Z" fill="#000000" fill-rule="nonzero" fill-opacity="1" /><polyline clip-path="url(#clip790)" style="stroke:#c271d2; stroke-linecap:round; stroke-linejoin:round; stroke-width:8; stroke-opacity:1; fill:none" points="1792.32,301.547 1942.32,301.547 "/>
<path clip-path="url(#clip790)" d="M1992.87 313.896 L1992.87 304.614 L1985.23 304.614 L1985.23 300.771 L1997.5 300.771 L1997.5 315.609 Q1994.79 317.53 1991.53 318.526 Q1988.27 319.498 1984.56 319.498 Q1976.46 319.498 1971.88 314.776 Q1967.32 310.03 1967.32 301.581 Q1967.32 293.109 1971.88 288.387 Q1976.46 283.642 1984.56 283.642 Q1987.94 283.642 1990.97 284.475 Q1994.03 285.308 1996.6 286.929 L1996.6 291.905 Q1994.01 289.706 1991.09 288.595 Q1988.17 287.484 1984.96 287.484 Q1978.61 287.484 1975.42 291.026 Q1972.25 294.568 1972.25 301.581 Q1972.25 308.572 1975.42 312.114 Q1978.61 315.655 1984.96 315.655 Q1987.43 315.655 1989.38 315.239 Q1991.32 314.799 1992.87 313.896 Z" fill="#000000" fill-rule="nonzero" fill-opacity="1" /><path clip-path="url(#clip790)" d="M2017.64 305.794 Q2012.48 305.794 2010.49 306.975 Q2008.5 308.155 2008.5 311.003 Q2008.5 313.271 2009.98 314.614 Q2011.48 315.933 2014.05 315.933 Q2017.59 315.933 2019.72 313.433 Q2021.88 310.91 2021.88 306.743 L2021.88 305.794 L2017.64 305.794 M2026.14 304.035 L2026.14 318.827 L2021.88 318.827 L2021.88 314.891 Q2020.42 317.253 2018.24 318.387 Q2016.07 319.498 2012.92 319.498 Q2008.94 319.498 2006.58 317.276 Q2004.24 315.03 2004.24 311.28 Q2004.24 306.905 2007.15 304.683 Q2010.09 302.461 2015.9 302.461 L2021.88 302.461 L2021.88 302.044 Q2021.88 299.105 2019.93 297.507 Q2018.01 295.887 2014.52 295.887 Q2012.29 295.887 2010.19 296.419 Q2008.08 296.952 2006.14 298.017 L2006.14 294.081 Q2008.47 293.179 2010.67 292.739 Q2012.87 292.276 2014.96 292.276 Q2020.58 292.276 2023.36 295.193 Q2026.14 298.109 2026.14 304.035 Z" fill="#000000" fill-rule="nonzero" fill-opacity="1" /><path clip-path="url(#clip790)" d="M2034.47 308.595 L2034.47 292.901 L2038.73 292.901 L2038.73 308.433 Q2038.73 312.114 2040.16 313.966 Q2041.6 315.794 2044.47 315.794 Q2047.92 315.794 2049.91 313.595 Q2051.92 311.396 2051.92 307.6 L2051.92 292.901 L2056.18 292.901 L2056.18 318.827 L2051.92 318.827 L2051.92 314.845 Q2050.37 317.206 2048.31 318.364 Q2046.27 319.498 2043.57 319.498 Q2039.1 319.498 2036.78 316.72 Q2034.47 313.942 2034.47 308.595 M2045.19 292.276 L2045.19 292.276 Z" fill="#000000" fill-rule="nonzero" fill-opacity="1" /><path clip-path="url(#clip790)" d="M2081.48 293.665 L2081.48 297.692 Q2079.68 296.767 2077.73 296.304 Q2075.79 295.841 2073.71 295.841 Q2070.53 295.841 2068.94 296.813 Q2067.36 297.785 2067.36 299.73 Q2067.36 301.211 2068.5 302.067 Q2069.63 302.901 2073.06 303.665 L2074.52 303.989 Q2079.05 304.961 2080.95 306.743 Q2082.87 308.503 2082.87 311.674 Q2082.87 315.285 2080 317.391 Q2077.15 319.498 2072.15 319.498 Q2070.07 319.498 2067.8 319.081 Q2065.56 318.688 2063.06 317.878 L2063.06 313.479 Q2065.42 314.706 2067.71 315.331 Q2070 315.933 2072.25 315.933 Q2075.26 315.933 2076.88 314.915 Q2078.5 313.873 2078.5 311.998 Q2078.5 310.262 2077.32 309.336 Q2076.16 308.41 2072.2 307.554 L2070.72 307.206 Q2066.76 306.373 2065 304.66 Q2063.24 302.924 2063.24 299.915 Q2063.24 296.257 2065.83 294.267 Q2068.43 292.276 2073.2 292.276 Q2075.56 292.276 2077.64 292.623 Q2079.72 292.97 2081.48 293.665 Z" fill="#000000" fill-rule="nonzero" fill-opacity="1" /><path clip-path="url(#clip790)" d="M2106.18 293.665 L2106.18 297.692 Q2104.38 296.767 2102.43 296.304 Q2100.49 295.841 2098.4 295.841 Q2095.23 295.841 2093.64 296.813 Q2092.06 297.785 2092.06 299.73 Q2092.06 301.211 2093.2 302.067 Q2094.33 302.901 2097.76 303.665 L2099.21 303.989 Q2103.75 304.961 2105.65 306.743 Q2107.57 308.503 2107.57 311.674 Q2107.57 315.285 2104.7 317.391 Q2101.85 319.498 2096.85 319.498 Q2094.77 319.498 2092.5 319.081 Q2090.26 318.688 2087.76 317.878 L2087.76 313.479 Q2090.12 314.706 2092.41 315.331 Q2094.7 315.933 2096.95 315.933 Q2099.96 315.933 2101.58 314.915 Q2103.2 313.873 2103.2 311.998 Q2103.2 310.262 2102.02 309.336 Q2100.86 308.41 2096.9 307.554 L2095.42 307.206 Q2091.46 306.373 2089.7 304.66 Q2087.94 302.924 2087.94 299.915 Q2087.94 296.257 2090.53 294.267 Q2093.13 292.276 2097.89 292.276 Q2100.26 292.276 2102.34 292.623 Q2104.42 292.97 2106.18 293.665 Z" fill="#000000" fill-rule="nonzero" fill-opacity="1" /><path clip-path="url(#clip790)" d="M2114.35 292.901 L2118.61 292.901 L2118.61 318.827 L2114.35 318.827 L2114.35 292.901 M2114.35 282.808 L2118.61 282.808 L2118.61 288.202 L2114.35 288.202 L2114.35 282.808 Z" fill="#000000" fill-rule="nonzero" fill-opacity="1" /><path clip-path="url(#clip790)" d="M2139.31 305.794 Q2134.14 305.794 2132.15 306.975 Q2130.16 308.155 2130.16 311.003 Q2130.16 313.271 2131.64 314.614 Q2133.15 315.933 2135.72 315.933 Q2139.26 315.933 2141.39 313.433 Q2143.54 310.91 2143.54 306.743 L2143.54 305.794 L2139.31 305.794 M2147.8 304.035 L2147.8 318.827 L2143.54 318.827 L2143.54 314.891 Q2142.08 317.253 2139.91 318.387 Q2137.73 319.498 2134.58 319.498 Q2130.6 319.498 2128.24 317.276 Q2125.9 315.03 2125.9 311.28 Q2125.9 306.905 2128.82 304.683 Q2131.76 302.461 2137.57 302.461 L2143.54 302.461 L2143.54 302.044 Q2143.54 299.105 2141.6 297.507 Q2139.68 295.887 2136.18 295.887 Q2133.96 295.887 2131.85 296.419 Q2129.75 296.952 2127.8 298.017 L2127.8 294.081 Q2130.14 293.179 2132.34 292.739 Q2134.54 292.276 2136.62 292.276 Q2142.25 292.276 2145.02 295.193 Q2147.8 298.109 2147.8 304.035 Z" fill="#000000" fill-rule="nonzero" fill-opacity="1" /><path clip-path="url(#clip790)" d="M2178.13 303.179 L2178.13 318.827 L2173.87 318.827 L2173.87 303.317 Q2173.87 299.637 2172.43 297.808 Q2171 295.98 2168.13 295.98 Q2164.68 295.98 2162.69 298.179 Q2160.7 300.378 2160.7 304.174 L2160.7 318.827 L2156.41 318.827 L2156.41 292.901 L2160.7 292.901 L2160.7 296.929 Q2162.22 294.591 2164.28 293.433 Q2166.37 292.276 2169.08 292.276 Q2173.54 292.276 2175.83 295.054 Q2178.13 297.808 2178.13 303.179 Z" fill="#000000" fill-rule="nonzero" fill-opacity="1" /></svg>
