<?xml version="1.0" encoding="utf-8"?>
<svg xmlns="http://www.w3.org/2000/svg" xmlns:xlink="http://www.w3.org/1999/xlink" width="600" height="400" viewBox="0 0 2400 1600">
<defs>
  <clipPath id="clip760">
    <rect x="0" y="0" width="2400" height="1600"/>
  </clipPath>
</defs>
<path clip-path="url(#clip760)" d="M0 1600 L2400 1600 L2400 0 L0 0  Z" fill="#ffffff" fill-rule="evenodd" fill-opacity="1"/>
<defs>
  <clipPath id="clip761">
    <rect x="480" y="0" width="1681" height="1600"/>
  </clipPath>
</defs>
<path clip-path="url(#clip760)" d="M102.74 1455.52 L2352.76 1455.52 L2352.76 47.2441 L102.74 47.2441  Z" fill="#ffffff" fill-rule="evenodd" fill-opacity="1"/>
<defs>
  <clipPath id="clip762">
    <rect x="102" y="47" width="2251" height="1409"/>
  </clipPath>
</defs>
<polyline clip-path="url(#clip762)" style="stroke:#000000; stroke-linecap:round; stroke-linejoin:round; stroke-width:2; stroke-opacity:0.1; fill:none" points="102.74,1455.52 102.74,47.2441 "/>
<polyline clip-path="url(#clip762)" style="stroke:#000000; stroke-linecap:round; stroke-linejoin:round; stroke-width:2; stroke-opacity:0.1; fill:none" points="477.743,1455.52 477.743,47.2441 "/>
<polyline clip-path="url(#clip762)" style="stroke:#000000; stroke-linecap:round; stroke-linejoin:round; stroke-width:2; stroke-opacity:0.1; fill:none" points="852.745,1455.52 852.745,47.2441 "/>
<polyline clip-path="url(#clip762)" style="stroke:#000000; stroke-linecap:round; stroke-linejoin:round; stroke-width:2; stroke-opacity:0.1; fill:none" points="1227.75,1455.52 1227.75,47.2441 "/>
<polyline clip-path="url(#clip762)" style="stroke:#000000; stroke-linecap:round; stroke-linejoin:round; stroke-width:2; stroke-opacity:0.1; fill:none" points="1602.75,1455.52 1602.75,47.2441 "/>
<polyline clip-path="url(#clip762)" style="stroke:#000000; stroke-linecap:round; stroke-linejoin:round; stroke-width:2; stroke-opacity:0.1; fill:none" points="1977.75,1455.52 1977.75,47.2441 "/>
<polyline clip-path="url(#clip762)" style="stroke:#000000; stroke-linecap:round; stroke-linejoin:round; stroke-width:2; stroke-opacity:0.1; fill:none" points="2352.76,1455.52 2352.76,47.2441 "/>
<polyline clip-path="url(#clip760)" style="stroke:#000000; stroke-linecap:round; stroke-linejoin:round; stroke-width:4; stroke-opacity:1; fill:none" points="102.74,1455.52 2352.76,1455.52 "/>
<polyline clip-path="url(#clip760)" style="stroke:#000000; stroke-linecap:round; stroke-linejoin:round; stroke-width:4; stroke-opacity:1; fill:none" points="102.74,1455.52 102.74,1436.62 "/>
<polyline clip-path="url(#clip760)" style="stroke:#000000; stroke-linecap:round; stroke-linejoin:round; stroke-width:4; stroke-opacity:1; fill:none" points="477.743,1455.52 477.743,1436.62 "/>
<polyline clip-path="url(#clip760)" style="stroke:#000000; stroke-linecap:round; stroke-linejoin:round; stroke-width:4; stroke-opacity:1; fill:none" points="852.745,1455.52 852.745,1436.62 "/>
<polyline clip-path="url(#clip760)" style="stroke:#000000; stroke-linecap:round; stroke-linejoin:round; stroke-width:4; stroke-opacity:1; fill:none" points="1227.75,1455.52 1227.75,1436.62 "/>
<polyline clip-path="url(#clip760)" style="stroke:#000000; stroke-linecap:round; stroke-linejoin:round; stroke-width:4; stroke-opacity:1; fill:none" points="1602.75,1455.52 1602.75,1436.62 "/>
<polyline clip-path="url(#clip760)" style="stroke:#000000; stroke-linecap:round; stroke-linejoin:round; stroke-width:4; stroke-opacity:1; fill:none" points="1977.75,1455.52 1977.75,1436.62 "/>
<polyline clip-path="url(#clip760)" style="stroke:#000000; stroke-linecap:round; stroke-linejoin:round; stroke-width:4; stroke-opacity:1; fill:none" points="2352.76,1455.52 2352.76,1436.62 "/>
<path clip-path="url(#clip760)" d="M102.74 1486.44 Q99.1291 1486.44 97.3004 1490 Q95.4948 1493.55 95.4948 1500.67 Q95.4948 1507.78 97.3004 1511.35 Q99.1291 1514.89 102.74 1514.89 Q106.374 1514.89 108.18 1511.35 Q110.009 1507.78 110.009 1500.67 Q110.009 1493.55 108.18 1490 Q106.374 1486.44 102.74 1486.44 M102.74 1482.74 Q108.55 1482.74 111.606 1487.34 Q114.685 1491.93 114.685 1500.67 Q114.685 1509.4 111.606 1514.01 Q108.55 1518.59 102.74 1518.59 Q96.93 1518.59 93.8513 1514.01 Q90.7958 1509.4 90.7958 1500.67 Q90.7958 1491.93 93.8513 1487.34 Q96.93 1482.74 102.74 1482.74 Z" fill="#000000" fill-rule="nonzero" fill-opacity="1" /><path clip-path="url(#clip760)" d="M468.125 1513.99 L475.764 1513.99 L475.764 1487.62 L467.453 1489.29 L467.453 1485.03 L475.717 1483.36 L480.393 1483.36 L480.393 1513.99 L488.032 1513.99 L488.032 1517.92 L468.125 1517.92 L468.125 1513.99 Z" fill="#000000" fill-rule="nonzero" fill-opacity="1" /><path clip-path="url(#clip760)" d="M847.398 1513.99 L863.718 1513.99 L863.718 1517.92 L841.773 1517.92 L841.773 1513.99 Q844.435 1511.23 849.019 1506.6 Q853.625 1501.95 854.806 1500.61 Q857.051 1498.08 857.931 1496.35 Q858.833 1494.59 858.833 1492.9 Q858.833 1490.14 856.889 1488.41 Q854.968 1486.67 851.866 1486.67 Q849.667 1486.67 847.213 1487.43 Q844.782 1488.2 842.005 1489.75 L842.005 1485.03 Q844.829 1483.89 847.282 1483.31 Q849.736 1482.74 851.773 1482.74 Q857.144 1482.74 860.338 1485.42 Q863.532 1488.11 863.532 1492.6 Q863.532 1494.73 862.722 1496.65 Q861.935 1498.55 859.829 1501.14 Q859.25 1501.81 856.148 1505.03 Q853.046 1508.22 847.398 1513.99 Z" fill="#000000" fill-rule="nonzero" fill-opacity="1" /><path clip-path="url(#clip760)" d="M1232 1499.29 Q1235.35 1500 1237.23 1502.27 Q1239.13 1504.54 1239.13 1507.87 Q1239.13 1512.99 1235.61 1515.79 Q1232.09 1518.59 1225.61 1518.59 Q1223.43 1518.59 1221.12 1518.15 Q1218.82 1517.74 1216.37 1516.88 L1216.37 1512.36 Q1218.32 1513.5 1220.63 1514.08 Q1222.94 1514.66 1225.47 1514.66 Q1229.87 1514.66 1232.16 1512.92 Q1234.47 1511.18 1234.47 1507.87 Q1234.47 1504.82 1232.32 1503.11 Q1230.19 1501.37 1226.37 1501.37 L1222.34 1501.37 L1222.34 1497.53 L1226.56 1497.53 Q1230 1497.53 1231.83 1496.16 Q1233.66 1494.77 1233.66 1492.18 Q1233.66 1489.52 1231.76 1488.11 Q1229.89 1486.67 1226.37 1486.67 Q1224.45 1486.67 1222.25 1487.09 Q1220.05 1487.5 1217.41 1488.38 L1217.41 1484.22 Q1220.07 1483.48 1222.39 1483.11 Q1224.73 1482.74 1226.79 1482.74 Q1232.11 1482.74 1235.21 1485.17 Q1238.32 1487.57 1238.32 1491.69 Q1238.32 1494.56 1236.67 1496.55 Q1235.03 1498.52 1232 1499.29 Z" fill="#000000" fill-rule="nonzero" fill-opacity="1" /><path clip-path="url(#clip760)" d="M1605.76 1487.43 L1593.95 1505.88 L1605.76 1505.88 L1605.76 1487.43 M1604.53 1483.36 L1610.41 1483.36 L1610.41 1505.88 L1615.34 1505.88 L1615.34 1509.77 L1610.41 1509.77 L1610.41 1517.92 L1605.76 1517.92 L1605.76 1509.77 L1590.16 1509.77 L1590.16 1505.26 L1604.53 1483.36 Z" fill="#000000" fill-rule="nonzero" fill-opacity="1" /><path clip-path="url(#clip760)" d="M1968.03 1483.36 L1986.39 1483.36 L1986.39 1487.3 L1972.31 1487.3 L1972.31 1495.77 Q1973.33 1495.42 1974.35 1495.26 Q1975.37 1495.07 1976.39 1495.07 Q1982.17 1495.07 1985.55 1498.24 Q1988.93 1501.42 1988.93 1506.83 Q1988.93 1512.41 1985.46 1515.51 Q1981.99 1518.59 1975.67 1518.59 Q1973.49 1518.59 1971.23 1518.22 Q1968.98 1517.85 1966.57 1517.11 L1966.57 1512.41 Q1968.66 1513.55 1970.88 1514.1 Q1973.1 1514.66 1975.58 1514.66 Q1979.58 1514.66 1981.92 1512.55 Q1984.26 1510.44 1984.26 1506.83 Q1984.26 1503.22 1981.92 1501.11 Q1979.58 1499.01 1975.58 1499.01 Q1973.7 1499.01 1971.83 1499.42 Q1969.98 1499.84 1968.03 1500.72 L1968.03 1483.36 Z" fill="#000000" fill-rule="nonzero" fill-opacity="1" /><path clip-path="url(#clip760)" d="M2353.16 1498.78 Q2350.01 1498.78 2348.16 1500.93 Q2346.33 1503.08 2346.33 1506.83 Q2346.33 1510.56 2348.16 1512.74 Q2350.01 1514.89 2353.16 1514.89 Q2356.31 1514.89 2358.14 1512.74 Q2359.99 1510.56 2359.99 1506.83 Q2359.99 1503.08 2358.14 1500.93 Q2356.31 1498.78 2353.16 1498.78 M2362.44 1484.12 L2362.44 1488.38 Q2360.68 1487.55 2358.88 1487.11 Q2357.1 1486.67 2355.34 1486.67 Q2350.71 1486.67 2348.25 1489.8 Q2345.82 1492.92 2345.48 1499.24 Q2346.84 1497.23 2348.9 1496.16 Q2350.96 1495.07 2353.44 1495.07 Q2358.65 1495.07 2361.66 1498.24 Q2364.69 1501.39 2364.69 1506.83 Q2364.69 1512.16 2361.54 1515.37 Q2358.39 1518.59 2353.16 1518.59 Q2347.17 1518.59 2343.99 1514.01 Q2340.82 1509.4 2340.82 1500.67 Q2340.82 1492.48 2344.71 1487.62 Q2348.6 1482.74 2355.15 1482.74 Q2356.91 1482.74 2358.69 1483.08 Q2360.5 1483.43 2362.44 1484.12 Z" fill="#000000" fill-rule="nonzero" fill-opacity="1" /><path clip-path="url(#clip760)" d="M1193.67 1569.32 Q1193.67 1571.02 1192.55 1572.12 Q1191.45 1573.21 1190.04 1573.21 Q1188.81 1573.21 1188.17 1572.51 Q1187.52 1571.8 1187.52 1570.9 Q1187.52 1569.61 1188.52 1568.54 Q1189.52 1567.48 1190.97 1567.26 Q1189.91 1566.48 1188.2 1566.48 Q1185.4 1566.48 1182.92 1568.64 Q1181.82 1569.64 1180.63 1571.48 Q1179.44 1573.28 1179.21 1574.05 L1177.12 1582.65 Q1176.93 1583.62 1175.74 1588.25 Q1174.58 1592.86 1174.48 1593.05 Q1174.16 1593.96 1173.45 1594.44 Q1172.74 1594.92 1172.03 1594.92 Q1171.23 1594.92 1170.68 1594.44 Q1170.13 1593.96 1170.13 1593.12 Q1170.13 1592.99 1170.23 1592.51 Q1170.33 1592.02 1170.49 1591.35 Q1170.65 1590.67 1170.71 1590.28 L1174.54 1575.05 Q1175.25 1572.28 1175.41 1571.41 Q1175.61 1570.51 1175.61 1569.51 Q1175.61 1567.77 1175.06 1567.13 Q1174.51 1566.48 1173.55 1566.48 Q1171.87 1566.48 1170.78 1568.48 Q1169.68 1570.48 1168.75 1574.34 Q1168.46 1575.4 1168.26 1575.63 Q1168.1 1575.86 1167.62 1575.86 Q1166.81 1575.82 1166.81 1575.18 Q1166.81 1575.02 1167.07 1573.99 Q1167.33 1572.92 1167.81 1571.38 Q1168.33 1569.8 1168.88 1568.8 Q1169.2 1568.13 1169.49 1567.68 Q1169.78 1567.22 1170.36 1566.52 Q1170.94 1565.81 1171.81 1565.42 Q1172.68 1565.03 1173.74 1565.03 Q1176.06 1565.03 1177.7 1566.45 Q1179.37 1567.87 1179.76 1570.09 Q1180.57 1568.93 1181.56 1567.93 Q1182.56 1566.9 1184.4 1565.97 Q1186.23 1565.03 1188.2 1565.03 Q1190.65 1565.03 1192.16 1566.29 Q1193.67 1567.51 1193.67 1569.32 Z" fill="#000000" fill-rule="nonzero" fill-opacity="1" /><path clip-path="url(#clip760)" d="M1203.38 1610.67 L1203.38 1544.71 L1213.34 1544.71 L1213.34 1546.23 L1207.8 1546.23 L1207.8 1609.16 L1213.34 1609.16 L1213.34 1610.67 L1203.38 1610.67 Z" fill="#000000" fill-rule="nonzero" fill-opacity="1" /><path clip-path="url(#clip760)" d="M1266.69 1594.18 L1258.06 1593.99 Q1250.94 1593.99 1248.56 1594.18 L1248.56 1592.15 Q1254.03 1592.15 1254.03 1590.15 Q1254.03 1589.99 1253.84 1589.22 L1250.36 1579.14 L1234.06 1579.14 L1231 1587.77 Q1230.87 1588.03 1230.87 1588.77 Q1230.87 1590.15 1232.2 1591.15 Q1233.52 1592.15 1235.83 1592.15 L1235.83 1594.18 L1228.23 1593.99 L1221.54 1594.18 L1221.54 1592.15 Q1224.4 1592.09 1226.24 1591.09 Q1228.07 1590.09 1228.91 1587.71 L1242.57 1548.29 Q1242.82 1547.51 1243.11 1547.26 Q1243.4 1546.97 1244.14 1546.97 Q1244.66 1546.97 1244.95 1547.16 Q1245.24 1547.32 1245.34 1547.55 Q1245.46 1547.74 1245.66 1548.29 L1259.89 1589.51 Q1260.44 1591.15 1261.5 1591.67 Q1262.57 1592.15 1265.53 1592.15 L1266.69 1592.15 L1266.69 1594.18 M1249.62 1577.11 L1242.18 1555.66 L1234.77 1577.11 L1249.62 1577.11 M1248.3 1541.14 Q1248.3 1537.34 1244.14 1537.34 Q1239.99 1537.34 1239.99 1541.14 Q1239.99 1544.97 1244.14 1544.97 Q1248.3 1544.97 1248.3 1541.14 M1250.49 1541.07 Q1250.49 1543.52 1248.65 1545.26 Q1246.82 1546.97 1244.08 1546.97 Q1241.53 1546.97 1239.67 1545.26 Q1237.8 1543.55 1237.8 1541.07 Q1237.8 1538.82 1239.6 1537.08 Q1241.44 1535.34 1244.21 1535.34 Q1246.85 1535.34 1248.65 1537.05 Q1250.49 1538.75 1250.49 1541.07 Z" fill="#000000" fill-rule="nonzero" fill-opacity="1" /><path clip-path="url(#clip760)" d="M1270.53 1609.16 L1276.07 1609.16 L1276.07 1546.23 L1270.53 1546.23 L1270.53 1544.71 L1280.48 1544.71 L1280.48 1610.67 L1270.53 1610.67 L1270.53 1609.16 Z" fill="#000000" fill-rule="nonzero" fill-opacity="1" /><polyline clip-path="url(#clip762)" style="stroke:#000000; stroke-linecap:round; stroke-linejoin:round; stroke-width:2; stroke-opacity:0.1; fill:none" points="102.74,1455.52 2352.76,1455.52 "/>
<polyline clip-path="url(#clip762)" style="stroke:#000000; stroke-linecap:round; stroke-linejoin:round; stroke-width:2; stroke-opacity:0.1; fill:none" points="102.74,1254.34 2352.76,1254.34 "/>
<polyline clip-path="url(#clip762)" style="stroke:#000000; stroke-linecap:round; stroke-linejoin:round; stroke-width:2; stroke-opacity:0.1; fill:none" points="102.74,1053.16 2352.76,1053.16 "/>
<polyline clip-path="url(#clip762)" style="stroke:#000000; stroke-linecap:round; stroke-linejoin:round; stroke-width:2; stroke-opacity:0.1; fill:none" points="102.74,851.973 2352.76,851.973 "/>
<polyline clip-path="url(#clip762)" style="stroke:#000000; stroke-linecap:round; stroke-linejoin:round; stroke-width:2; stroke-opacity:0.1; fill:none" points="102.74,650.791 2352.76,650.791 "/>
<polyline clip-path="url(#clip762)" style="stroke:#000000; stroke-linecap:round; stroke-linejoin:round; stroke-width:2; stroke-opacity:0.1; fill:none" points="102.74,449.609 2352.76,449.609 "/>
<polyline clip-path="url(#clip762)" style="stroke:#000000; stroke-linecap:round; stroke-linejoin:round; stroke-width:2; stroke-opacity:0.1; fill:none" points="102.74,248.426 2352.76,248.426 "/>
<polyline clip-path="url(#clip762)" style="stroke:#000000; stroke-linecap:round; stroke-linejoin:round; stroke-width:2; stroke-opacity:0.1; fill:none" points="102.74,47.2441 2352.76,47.2441 "/>
<polyline clip-path="url(#clip760)" style="stroke:#000000; stroke-linecap:round; stroke-linejoin:round; stroke-width:4; stroke-opacity:1; fill:none" points="102.74,1455.52 102.74,47.2441 "/>
<polyline clip-path="url(#clip760)" style="stroke:#000000; stroke-linecap:round; stroke-linejoin:round; stroke-width:4; stroke-opacity:1; fill:none" points="102.74,1455.52 121.638,1455.52 "/>
<polyline clip-path="url(#clip760)" style="stroke:#000000; stroke-linecap:round; stroke-linejoin:round; stroke-width:4; stroke-opacity:1; fill:none" points="102.74,1254.34 121.638,1254.34 "/>
<polyline clip-path="url(#clip760)" style="stroke:#000000; stroke-linecap:round; stroke-linejoin:round; stroke-width:4; stroke-opacity:1; fill:none" points="102.74,1053.16 121.638,1053.16 "/>
<polyline clip-path="url(#clip760)" style="stroke:#000000; stroke-linecap:round; stroke-linejoin:round; stroke-width:4; stroke-opacity:1; fill:none" points="102.74,851.973 121.638,851.973 "/>
<polyline clip-path="url(#clip760)" style="stroke:#000000; stroke-linecap:round; stroke-linejoin:round; stroke-width:4; stroke-opacity:1; fill:none" points="102.74,650.791 121.638,650.791 "/>
<polyline clip-path="url(#clip760)" style="stroke:#000000; stroke-linecap:round; stroke-linejoin:round; stroke-width:4; stroke-opacity:1; fill:none" points="102.74,449.609 121.638,449.609 "/>
<polyline clip-path="url(#clip760)" style="stroke:#000000; stroke-linecap:round; stroke-linejoin:round; stroke-width:4; stroke-opacity:1; fill:none" points="102.74,248.426 121.638,248.426 "/>
<polyline clip-path="url(#clip760)" style="stroke:#000000; stroke-linecap:round; stroke-linejoin:round; stroke-width:4; stroke-opacity:1; fill:none" points="102.74,47.2441 121.638,47.2441 "/>
<path clip-path="url(#clip760)" d="M6.62474 1455.97 L36.3005 1455.97 L36.3005 1459.91 L6.62474 1459.91 L6.62474 1455.97 Z" fill="#000000" fill-rule="nonzero" fill-opacity="1" /><path clip-path="url(#clip760)" d="M50.4208 1468.87 L66.7402 1468.87 L66.7402 1472.8 L44.7958 1472.8 L44.7958 1468.87 Q47.4579 1466.11 52.0412 1461.48 Q56.6476 1456.83 57.8282 1455.49 Q60.0735 1452.96 60.9532 1451.23 Q61.8559 1449.47 61.8559 1447.78 Q61.8559 1445.02 59.9115 1443.29 Q57.9902 1441.55 54.8884 1441.55 Q52.6893 1441.55 50.2356 1442.31 Q47.8051 1443.08 45.0273 1444.63 L45.0273 1439.91 Q47.8514 1438.77 50.3051 1438.19 Q52.7588 1437.62 54.7958 1437.62 Q60.1661 1437.62 63.3605 1440.3 Q66.555 1442.99 66.555 1447.48 Q66.555 1449.61 65.7448 1451.53 Q64.9578 1453.43 62.8513 1456.02 Q62.2726 1456.69 59.1708 1459.91 Q56.0689 1463.1 50.4208 1468.87 Z" fill="#000000" fill-rule="nonzero" fill-opacity="1" /><path clip-path="url(#clip760)" d="M6.25437 1254.79 L35.9301 1254.79 L35.9301 1258.72 L6.25437 1258.72 L6.25437 1254.79 Z" fill="#000000" fill-rule="nonzero" fill-opacity="1" /><path clip-path="url(#clip760)" d="M46.8329 1267.68 L54.4717 1267.68 L54.4717 1241.32 L46.1616 1242.98 L46.1616 1238.72 L54.4254 1237.06 L59.1013 1237.06 L59.1013 1267.68 L66.7402 1267.68 L66.7402 1271.62 L46.8329 1271.62 L46.8329 1267.68 Z" fill="#000000" fill-rule="nonzero" fill-opacity="1" /><path clip-path="url(#clip760)" d="M54.7958 1038.95 Q51.1847 1038.95 49.356 1042.52 Q47.5504 1046.06 47.5504 1053.19 Q47.5504 1060.3 49.356 1063.86 Q51.1847 1067.4 54.7958 1067.4 Q58.43 1067.4 60.2356 1063.86 Q62.0643 1060.3 62.0643 1053.19 Q62.0643 1046.06 60.2356 1042.52 Q58.43 1038.95 54.7958 1038.95 M54.7958 1035.25 Q60.6059 1035.25 63.6615 1039.86 Q66.7402 1044.44 66.7402 1053.19 Q66.7402 1061.92 63.6615 1066.52 Q60.6059 1071.11 54.7958 1071.11 Q48.9856 1071.11 45.9069 1066.52 Q42.8514 1061.92 42.8514 1053.19 Q42.8514 1044.44 45.9069 1039.86 Q48.9856 1035.25 54.7958 1035.25 Z" fill="#000000" fill-rule="nonzero" fill-opacity="1" /><path clip-path="url(#clip760)" d="M46.8329 865.318 L54.4717 865.318 L54.4717 838.953 L46.1616 840.619 L46.1616 836.36 L54.4254 834.693 L59.1013 834.693 L59.1013 865.318 L66.7402 865.318 L66.7402 869.253 L46.8329 869.253 L46.8329 865.318 Z" fill="#000000" fill-rule="nonzero" fill-opacity="1" /><path clip-path="url(#clip760)" d="M50.4208 664.136 L66.7402 664.136 L66.7402 668.071 L44.7958 668.071 L44.7958 664.136 Q47.4579 661.381 52.0412 656.752 Q56.6476 652.099 57.8282 650.756 Q60.0735 648.233 60.9532 646.497 Q61.8559 644.738 61.8559 643.048 Q61.8559 640.293 59.9115 638.557 Q57.9902 636.821 54.8884 636.821 Q52.6893 636.821 50.2356 637.585 Q47.8051 638.349 45.0273 639.9 L45.0273 635.178 Q47.8514 634.043 50.3051 633.465 Q52.7588 632.886 54.7958 632.886 Q60.1661 632.886 63.3605 635.571 Q66.555 638.256 66.555 642.747 Q66.555 644.877 65.7448 646.798 Q64.9578 648.696 62.8513 651.289 Q62.2726 651.96 59.1708 655.178 Q56.0689 658.372 50.4208 664.136 Z" fill="#000000" fill-rule="nonzero" fill-opacity="1" /><path clip-path="url(#clip760)" d="M59.6106 448.255 Q62.967 448.972 64.842 451.241 Q66.7402 453.509 66.7402 456.842 Q66.7402 461.958 63.2217 464.759 Q59.7032 467.56 53.2217 467.56 Q51.0458 467.56 48.731 467.12 Q46.4393 466.704 43.9856 465.847 L43.9856 461.333 Q45.9301 462.467 48.2449 463.046 Q50.5597 463.625 53.0828 463.625 Q57.4809 463.625 59.7726 461.889 Q62.0874 460.153 62.0874 456.842 Q62.0874 453.787 59.9346 452.074 Q57.805 450.338 53.9856 450.338 L49.9578 450.338 L49.9578 446.495 L54.1708 446.495 Q57.6198 446.495 59.4485 445.13 Q61.2772 443.741 61.2772 441.148 Q61.2772 438.486 59.3791 437.074 Q57.5041 435.639 53.9856 435.639 Q52.0643 435.639 49.8652 436.056 Q47.6662 436.472 45.0273 437.352 L45.0273 433.185 Q47.6893 432.444 50.0041 432.074 Q52.3421 431.704 54.4023 431.704 Q59.7263 431.704 62.8281 434.134 Q65.93 436.542 65.93 440.662 Q65.93 443.532 64.2865 445.523 Q62.643 447.491 59.6106 448.255 Z" fill="#000000" fill-rule="nonzero" fill-opacity="1" /><path clip-path="url(#clip760)" d="M57.1569 235.22 L45.3514 253.669 L57.1569 253.669 L57.1569 235.22 M55.93 231.146 L61.8096 231.146 L61.8096 253.669 L66.7402 253.669 L66.7402 257.558 L61.8096 257.558 L61.8096 265.706 L57.1569 265.706 L57.1569 257.558 L41.5551 257.558 L41.5551 253.044 L55.93 231.146 Z" fill="#000000" fill-rule="nonzero" fill-opacity="1" /><path clip-path="url(#clip760)" d="M45.8375 29.9641 L64.1939 29.9641 L64.1939 33.8993 L50.1199 33.8993 L50.1199 42.3714 Q51.1384 42.0242 52.1569 41.8622 Q53.1754 41.677 54.1939 41.677 Q59.9809 41.677 63.3605 44.8483 Q66.7402 48.0196 66.7402 53.4362 Q66.7402 59.0149 63.268 62.1167 Q59.7958 65.1954 53.4763 65.1954 Q51.3004 65.1954 49.0319 64.825 Q46.7866 64.4547 44.3792 63.7139 L44.3792 59.0149 Q46.4625 60.1491 48.6847 60.7047 Q50.9069 61.2602 53.3837 61.2602 Q57.3884 61.2602 59.7263 59.1538 Q62.0643 57.0473 62.0643 53.4362 Q62.0643 49.8251 59.7263 47.7186 Q57.3884 45.6122 53.3837 45.6122 Q51.5088 45.6122 49.6338 46.0288 Q47.7819 46.4455 45.8375 47.3251 L45.8375 29.9641 Z" fill="#000000" fill-rule="nonzero" fill-opacity="1" /><path clip-path="url(#clip760)" d="M-91.5216 844.115 L-91.5216 814.068 L-86.1108 814.068 L-86.1108 837.685 L-72.0426 837.685 L-72.0426 815.055 L-66.6317 815.055 L-66.6317 837.685 L-49.4125 837.685 L-49.4125 813.496 L-44.0016 813.496 L-44.0016 844.115 L-91.5216 844.115 Z" fill="#000000" fill-rule="nonzero" fill-opacity="1" /><path clip-path="url(#clip760)" d="M-93.5268 783.004 L-93.5268 769.509 L-88.9753 769.509 L-88.9753 777.147 L-39.9594 777.147 L-39.9594 769.509 L-35.4079 769.509 L-35.4079 783.004 L-93.5268 783.004 Z" fill="#000000" fill-rule="nonzero" fill-opacity="1" /><path clip-path="url(#clip760)" d="M-63.2897 726.54 L-60.4252 726.54 L-60.4252 753.467 Q-54.3777 753.085 -51.1949 749.838 Q-48.0439 746.56 -48.0439 740.736 Q-48.0439 737.362 -48.8714 734.211 Q-49.6989 731.028 -51.354 727.909 L-45.8159 727.909 Q-44.4791 731.06 -43.7788 734.37 Q-43.0786 737.68 -43.0786 741.086 Q-43.0786 749.616 -48.0439 754.613 Q-53.0091 759.578 -61.4755 759.578 Q-70.2283 759.578 -75.3527 754.867 Q-80.509 750.125 -80.509 742.104 Q-80.509 734.911 -75.862 730.741 Q-71.2469 726.54 -63.2897 726.54 M-65.0085 732.396 Q-69.8146 732.46 -72.6791 735.102 Q-75.5437 737.712 -75.5437 742.041 Q-75.5437 746.942 -72.7746 749.902 Q-70.0055 752.83 -64.9766 753.276 L-65.0085 732.396 Z" fill="#000000" fill-rule="nonzero" fill-opacity="1" /><path clip-path="url(#clip760)" d="M-44.0016 704.419 L-91.5216 722.561 L-91.5216 715.846 L-51.5132 700.791 L-91.5216 685.704 L-91.5216 679.02 L-44.0016 697.13 L-44.0016 704.419 Z" fill="#000000" fill-rule="nonzero" fill-opacity="1" /><path clip-path="url(#clip760)" d="M-93.5268 658.65 L-35.4079 658.65 L-35.4079 672.145 L-39.9594 672.145 L-39.9594 664.538 L-88.9753 664.538 L-88.9753 672.145 L-93.5268 672.145 L-93.5268 658.65 Z" fill="#000000" fill-rule="nonzero" fill-opacity="1" /><polyline clip-path="url(#clip762)" style="stroke:#009af9; stroke-linecap:round; stroke-linejoin:round; stroke-width:8; stroke-opacity:1; fill:none" points="103.115,2.01193e+07 114.42,401539 125.725,104217 137.029,47117.8 148.334,26798.2 159.639,17265.3 170.944,12012.7 182.248,8793.9 193.553,6666.17 204.858,5178.36 216.162,4092.85 227.467,3275.16 238.772,2644.77 250.077,2151.18 261.381,1761.49 272.686,1453.5 283.991,1211.68 295.296,1024.79 306.6,884.351 317.905,783.665 329.21,717.192 340.514,680.125 351.819,668.123 363.124,677.141 374.429,703.332 385.733,743.003 397.038,792.605 408.343,848.754 419.648,908.262 430.952,968.186 442.257,1025.88 453.562,1079.02 464.866,1125.68 476.171,1164.35 487.476,1193.94 498.781,1213.78 510.085,1223.67 521.39,1223.79 532.695,1214.69 544,1197.27 555.304,1172.69 566.609,1142.31 577.914,1107.66 589.218,1070.32 600.523,1031.93 611.828,994.046 623.133,958.145 634.437,925.556 645.742,897.426 657.047,874.695 668.352,858.073 679.656,848.036 690.961,844.824 702.266,848.455 713.57,858.734 724.875,875.282 736.18,897.555 747.485,924.883 758.789,956.492 770.094,991.538 781.399,1029.14 792.704,1068.41 804.008,1108.48 815.313,1148.5 826.618,1187.7 837.922,1225.38 849.227,1260.92 860.532,1293.81 871.837,1323.61 883.141,1350.02 894.446,1372.79 905.751,1391.8 917.056,1407.01 928.36,1418.44 939.665,1426.22 950.97,1430.49 962.274,1431.48 973.579,1429.43 984.884,1424.65 996.189,1417.42 1007.49,1408.07 1018.8,1396.91 1030.1,1384.26 1041.41,1370.43 1052.71,1355.7 1064.02,1340.35 1075.32,1324.63 1086.63,1308.76 1097.93,1292.94 1109.24,1277.36 1120.54,1262.14 1131.85,1247.43 1143.15,1233.32 1154.45,1219.88 1165.76,1207.17 1177.06,1195.24 1188.37,1184.09 1199.67,1173.73 1210.98,1164.16 1222.28,1155.35 1233.59,1147.29 1244.89,1139.94 1256.2,1133.26 1267.5,1127.2 1278.81,1121.73 1290.11,1116.8 1301.42,1112.36 1312.72,1108.37 1324.03,1104.79 1335.33,1101.58 1346.64,1098.7 1357.94,1096.11 1369.24,1093.78 1380.55,1091.68 1391.85,1089.78 1403.16,1088.07 1414.46,1086.51 1425.77,1085.09 1437.07,1083.8 1448.38,1082.61 1459.68,1081.52 1470.99,1080.51 1482.29,1079.58 1493.6,1078.71 1504.9,1077.9 1516.21,1077.14 1527.51,1076.42 1538.82,1075.74 1550.12,1075.1 1561.42,1074.48 1572.73,1073.89 1584.03,1073.32 1595.34,1072.76 1606.64,1072.22 1617.95,1071.68 1629.25,1071.15 1640.56,1070.62 1651.86,1070.08 1663.17,1069.55 1674.47,1069.01 1685.78,1068.46 1697.08,1067.9 1708.39,1067.32 1719.69,1066.74 1731,1066.15 1742.3,1065.54 1753.61,1064.93 1764.91,1064.3 1776.21,1063.67 1787.52,1063.03 1798.82,1062.39 1810.13,1061.75 1821.43,1061.11 1832.74,1060.47 1844.04,1059.84 1855.35,1059.23 1866.65,1058.63 1877.96,1058.04 1889.26,1057.48 1900.57,1056.94 1911.87,1056.43 1923.18,1055.95 1934.48,1055.5 1945.79,1055.08 1957.09,1054.7 1968.4,1054.35 1979.7,1054.05 1991,1053.78 2002.31,1053.54 2013.61,1053.34 2024.92,1053.18 2036.22,1053.05 2047.53,1052.95 2058.83,1052.87 2070.14,1052.83 2081.44,1052.81 2092.75,1052.8 2104.05,1052.81 2115.36,1052.84 2126.66,1052.88 2137.97,1052.92 2149.27,1052.96 2160.58,1053.01 2171.88,1053.05 2183.18,1053.1 2194.49,1053.13 2205.79,1053.16 2217.1,1053.18 2228.4,1053.2 2239.71,1053.21 2251.01,1053.21 2262.32,1053.2 2273.62,1053.2 2284.93,1053.19 2296.23,1053.18 2307.54,1053.17 2318.84,1053.16 2330.15,1053.16 2341.45,1053.16 2352.76,1053.16 "/>
<polyline clip-path="url(#clip762)" style="stroke:#e26f46; stroke-linecap:round; stroke-linejoin:round; stroke-width:8; stroke-opacity:1; fill:none" points="103.115,2.01193e+07 114.42,407294 125.725,105938 137.029,48171.9 148.334,27699.6 159.639,18162.9 170.944,12963.1 182.248,9820.71 193.553,7778.72 204.858,6378.14 216.162,5376.61 227.467,4636.3 238.772,4074.2 250.077,3637.84 261.381,3292.77 272.686,3015.6 283.991,2789.99 295.296,2604.25 306.6,2449.84 317.905,2320.39 329.21,2211.07 340.514,2118.14 351.819,2038.7 363.124,1970.43 374.429,1911.5 385.733,1860.38 397.038,1815.87 408.343,1776.93 419.648,1742.72 430.952,1712.54 442.257,1685.79 453.562,1661.97 464.866,1640.66 476.171,1621.5 487.476,1604.21 498.781,1588.54 510.085,1574.28 521.39,1561.26 532.695,1549.35 544,1538.44 555.304,1528.44 566.609,1519.27 577.914,1510.89 589.218,1503.24 600.523,1496.28 611.828,1489.98 623.133,1484.31 634.437,1479.23 645.742,1474.72 657.047,1470.73 668.352,1467.23 679.656,1464.18 690.961,1461.53 702.266,1459.24 713.57,1457.26 724.875,1455.54 736.18,1454.02 747.485,1452.66 758.789,1451.4 770.094,1450.19 781.399,1448.98 792.704,1447.72 804.008,1446.37 815.313,1444.9 826.618,1443.26 837.922,1441.43 849.227,1439.38 860.532,1437.09 871.837,1434.55 883.141,1431.74 894.446,1428.66 905.751,1425.31 917.056,1421.68 928.36,1417.78 939.665,1413.62 950.97,1409.22 962.274,1404.58 973.579,1399.72 984.884,1394.66 996.189,1389.41 1007.49,1383.99 1018.8,1378.42 1030.1,1372.72 1041.41,1366.91 1052.71,1361.01 1064.02,1355.03 1075.32,1348.99 1086.63,1342.9 1097.93,1336.79 1109.24,1330.66 1120.54,1324.53 1131.85,1318.4 1143.15,1312.3 1154.45,1306.23 1165.76,1300.2 1177.06,1294.21 1188.37,1288.28 1199.67,1282.41 1210.98,1276.6 1222.28,1270.87 1233.59,1265.21 1244.89,1259.62 1256.2,1254.12 1267.5,1248.7 1278.81,1243.37 1290.11,1238.12 1301.42,1232.97 1312.72,1227.9 1324.03,1222.92 1335.33,1218.03 1346.64,1213.24 1357.94,1208.54 1369.24,1203.92 1380.55,1199.4 1391.85,1194.98 1403.16,1190.64 1414.46,1186.39 1425.77,1182.23 1437.07,1178.17 1448.38,1174.19 1459.68,1170.29 1470.99,1166.49 1482.29,1162.77 1493.6,1159.14 1504.9,1155.59 1516.21,1152.12 1527.51,1148.74 1538.82,1145.44 1550.12,1142.21 1561.42,1139.07 1572.73,1136 1584.03,1133.01 1595.34,1130.1 1606.64,1127.25 1617.95,1124.48 1629.25,1121.78 1640.56,1119.15 1651.86,1116.59 1663.17,1114.1 1674.47,1111.67 1685.78,1109.31 1697.08,1107.01 1708.39,1104.78 1719.69,1102.6 1731,1100.49 1742.3,1098.44 1753.61,1096.44 1764.91,1094.51 1776.21,1092.63 1787.52,1090.8 1798.82,1089.03 1810.13,1087.31 1821.43,1085.65 1832.74,1084.04 1844.04,1082.48 1855.35,1080.97 1866.65,1079.51 1877.96,1078.1 1889.26,1076.74 1900.57,1075.42 1911.87,1074.15 1923.18,1072.93 1934.48,1071.75 1945.79,1070.62 1957.09,1069.53 1968.4,1068.48 1979.7,1067.48 1991,1066.52 2002.31,1065.59 2013.61,1064.71 2024.92,1063.87 2036.22,1063.06 2047.53,1062.29 2058.83,1061.56 2070.14,1060.87 2081.44,1060.21 2092.75,1059.58 2104.05,1058.99 2115.36,1058.43 2126.66,1057.91 2137.97,1057.41 2149.27,1056.95 2160.58,1056.52 2171.88,1056.11 2183.18,1055.73 2194.49,1055.39 2205.79,1055.07 2217.1,1054.77 2228.4,1054.51 2239.71,1054.26 2251.01,1054.05 2262.32,1053.86 2273.62,1053.69 2284.93,1053.54 2296.23,1053.42 2307.54,1053.33 2318.84,1053.25 2330.15,1053.2 2341.45,1053.17 2352.76,1053.16 "/>
<polyline clip-path="url(#clip762)" style="stroke:#3da44d; stroke-linecap:round; stroke-linejoin:round; stroke-width:8; stroke-opacity:1; fill:none" points="103.115,-2.01172e+07 114.42,-4.1943e+06 125.725,-1.384e+06 137.029,-620964 148.334,-350485 159.639,-224434 170.944,-155661 182.248,-114062 193.553,-86995.8 204.858,-68399.6 216.162,-55072.6 227.467,-45194.4 238.772,-37667.9 250.077,-31800.3 261.381,-27136.1 272.686,-23366.2 283.991,-20275 295.296,-17708 306.6,-15552.4 317.905,-13724.3 329.21,-12160.1 340.514,-10811.1 351.819,-9639.2 363.124,-8614.61 374.429,-7713.46 385.733,-6916.59 397.038,-6208.46 408.343,-5576.33 419.648,-5009.7 430.952,-4499.85 442.257,-4039.49 453.562,-3622.46 464.866,-3243.56 476.171,-2898.37 487.476,-2583.09 498.781,-2294.47 510.085,-2029.68 521.39,-1786.28 532.695,-1562.15 544,-1355.4 555.304,-1164.42 566.609,-987.739 577.914,-824.094 589.218,-672.347 600.523,-531.487 611.828,-400.611 623.133,-278.91 634.437,-165.658 645.742,-60.1986 657.047,38.0594 668.352,129.652 679.656,215.067 690.961,294.746 702.266,369.095 713.57,438.481 724.875,503.245 736.18,563.696 747.485,620.12 758.789,672.782 770.094,721.923 781.399,767.768 792.704,810.526 804.008,850.39 815.313,887.538 826.618,922.138 837.922,954.345 849.227,984.304 860.532,1012.15 871.837,1038.01 883.141,1062 894.446,1084.23 905.751,1104.81 917.056,1123.84 928.36,1141.39 939.665,1157.57 950.97,1172.45 962.274,1186.11 973.579,1198.62 984.884,1210.04 996.189,1220.44 1007.49,1229.89 1018.8,1238.43 1030.1,1246.12 1041.41,1253.01 1052.71,1259.14 1064.02,1264.57 1075.32,1269.34 1086.63,1273.48 1097.93,1277.03 1109.24,1280.03 1120.54,1282.52 1131.85,1284.52 1143.15,1286.06 1154.45,1287.18 1165.76,1287.89 1177.06,1288.24 1188.37,1288.23 1199.67,1287.9 1210.98,1287.27 1222.28,1286.34 1233.59,1285.16 1244.89,1283.73 1256.2,1282.07 1267.5,1280.2 1278.81,1278.13 1290.11,1275.88 1301.42,1273.46 1312.72,1270.89 1324.03,1268.17 1335.33,1265.33 1346.64,1262.37 1357.94,1259.3 1369.24,1256.13 1380.55,1252.87 1391.85,1249.53 1403.16,1246.13 1414.46,1242.66 1425.77,1239.13 1437.07,1235.56 1448.38,1231.95 1459.68,1228.3 1470.99,1224.62 1482.29,1220.92 1493.6,1217.2 1504.9,1213.48 1516.21,1209.74 1527.51,1206 1538.82,1202.27 1550.12,1198.53 1561.42,1194.81 1572.73,1191.11 1584.03,1187.42 1595.34,1183.74 1606.64,1180.1 1617.95,1176.48 1629.25,1172.88 1640.56,1169.32 1651.86,1165.79 1663.17,1162.3 1674.47,1158.85 1685.78,1155.43 1697.08,1152.06 1708.39,1148.73 1719.69,1145.45 1731,1142.21 1742.3,1139.03 1753.61,1135.89 1764.91,1132.8 1776.21,1129.76 1787.52,1126.78 1798.82,1123.85 1810.13,1120.97 1821.43,1118.15 1832.74,1115.39 1844.04,1112.68 1855.35,1110.03 1866.65,1107.44 1877.96,1104.91 1889.26,1102.43 1900.57,1100.02 1911.87,1097.67 1923.18,1095.37 1934.48,1093.14 1945.79,1090.97 1957.09,1088.86 1968.4,1086.81 1979.7,1084.82 1991,1082.89 2002.31,1081.03 2013.61,1079.22 2024.92,1077.48 2036.22,1075.8 2047.53,1074.18 2058.83,1072.63 2070.14,1071.13 2081.44,1069.69 2092.75,1068.32 2104.05,1067.01 2115.36,1065.76 2126.66,1064.57 2137.97,1063.44 2149.27,1062.37 2160.58,1061.36 2171.88,1060.41 2183.18,1059.52 2194.49,1058.69 2205.79,1057.92 2217.1,1057.21 2228.4,1056.55 2239.71,1055.96 2251.01,1055.42 2262.32,1054.94 2273.62,1054.52 2284.93,1054.16 2296.23,1053.85 2307.54,1053.6 2318.84,1053.4 2330.15,1053.27 2341.45,1053.18 2352.76,1053.16 "/>
<polyline clip-path="url(#clip762)" style="stroke:#c271d2; stroke-linecap:round; stroke-linejoin:round; stroke-width:8; stroke-opacity:1; fill:none" points="103.115,-2.01172e+07 114.42,-1.70634e+06 125.725,-439742 137.029,-196936 148.334,-110875 159.639,-70776.3 170.944,-48904.8 182.248,-35680.5 193.553,-27080.4 204.858,-21175.6 216.162,-16947 227.467,-13815.3 238.772,-11431.4 250.077,-9574.57 261.381,-8099.9 272.686,-6908.94 283.991,-5932.91 295.296,-5122.62 306.6,-4442.1 317.905,-3864.58 329.21,-3369.77 340.514,-2942.1 351.819,-2569.43 363.124,-2242.22 374.429,-1952.85 385.733,-1695.24 397.038,-1464.41 408.343,-1256.34 419.648,-1067.71 430.952,-895.763 442.257,-738.232 453.562,-593.215 464.866,-459.121 476.171,-334.616 487.476,-218.576 498.781,-110.055 510.085,-8.25424 521.39,87.4996 532.695,177.776 544,263.057 555.304,343.749 566.609,420.195 577.914,492.686 589.218,561.467 600.523,626.745 611.828,688.699 623.133,747.479 634.437,803.213 645.742,856.015 657.047,905.982 668.352,953.201 679.656,997.75 690.961,1039.7 702.266,1079.13 713.57,1116.08 724.875,1150.64 736.18,1182.86 747.485,1212.8 758.789,1240.52 770.094,1266.09 781.399,1289.58 792.704,1311.05 804.008,1330.56 815.313,1348.2 826.618,1364.02 837.922,1378.11 849.227,1390.53 860.532,1401.36 871.837,1410.68 883.141,1418.56 894.446,1425.07 905.751,1430.3 917.056,1434.32 928.36,1437.2 939.665,1439.01 950.97,1439.82 962.274,1439.72 973.579,1438.76 984.884,1437.01 996.189,1434.53 1007.49,1431.39 1018.8,1427.65 1030.1,1423.36 1041.41,1418.58 1052.71,1413.36 1064.02,1407.75 1075.32,1401.79 1086.63,1395.54 1097.93,1389.02 1109.24,1382.29 1120.54,1375.37 1131.85,1368.3 1143.15,1361.11 1154.45,1353.83 1165.76,1346.49 1177.06,1339.11 1188.37,1331.71 1199.67,1324.31 1210.98,1316.94 1222.28,1309.6 1233.59,1302.32 1244.89,1295.1 1256.2,1287.96 1267.5,1280.91 1278.81,1273.96 1290.11,1267.11 1301.42,1260.37 1312.72,1253.76 1324.03,1247.26 1335.33,1240.9 1346.64,1234.66 1357.94,1228.55 1369.24,1222.58 1380.55,1216.75 1391.85,1211.05 1403.16,1205.49 1414.46,1200.06 1425.77,1194.77 1437.07,1189.62 1448.38,1184.6 1459.68,1179.71 1470.99,1174.95 1482.29,1170.33 1493.6,1165.83 1504.9,1161.45 1516.21,1157.2 1527.51,1153.07 1538.82,1149.06 1550.12,1145.16 1561.42,1141.38 1572.73,1137.72 1584.03,1134.16 1595.34,1130.71 1606.64,1127.36 1617.95,1124.12 1629.25,1120.98 1640.56,1117.94 1651.86,1115 1663.17,1112.15 1674.47,1109.39 1685.78,1106.72 1697.08,1104.15 1708.39,1101.66 1719.69,1099.25 1731,1096.93 1742.3,1094.69 1753.61,1092.53 1764.91,1090.45 1776.21,1088.44 1787.52,1086.51 1798.82,1084.65 1810.13,1082.87 1821.43,1081.15 1832.74,1079.51 1844.04,1077.93 1855.35,1076.41 1866.65,1074.96 1877.96,1073.57 1889.26,1072.25 1900.57,1070.98 1911.87,1069.77 1923.18,1068.62 1934.48,1067.52 1945.79,1066.48 1957.09,1065.49 1968.4,1064.55 1979.7,1063.66 1991,1062.82 2002.31,1062.03 2013.61,1061.28 2024.92,1060.57 2036.22,1059.91 2047.53,1059.29 2058.83,1058.71 2070.14,1058.17 2081.44,1057.66 2092.75,1057.19 2104.05,1056.76 2115.36,1056.35 2126.66,1055.98 2137.97,1055.64 2149.27,1055.33 2160.58,1055.04 2171.88,1054.78 2183.18,1054.54 2194.49,1054.33 2205.79,1054.14 2217.1,1053.97 2228.4,1053.82 2239.71,1053.69 2251.01,1053.58 2262.32,1053.48 2273.62,1053.4 2284.93,1053.33 2296.23,1053.27 2307.54,1053.23 2318.84,1053.19 2330.15,1053.17 2341.45,1053.16 2352.76,1053.16 "/>
<polyline clip-path="url(#clip762)" style="stroke:#ac8d18; stroke-linecap:round; stroke-linejoin:round; stroke-width:8; stroke-opacity:1; fill:none" stroke-dasharray="32, 20" points="965.246,2863.8 965.246,-1361.03 "/>
<path clip-path="url(#clip760)" d="M1767.32 405.227 L2277.76 405.227 L2277.76 94.1866 L1767.32 94.1866  Z" fill="#ffffff" fill-rule="evenodd" fill-opacity="1"/>
<polyline clip-path="url(#clip760)" style="stroke:#000000; stroke-linecap:round; stroke-linejoin:round; stroke-width:4; stroke-opacity:1; fill:none" points="1767.32,405.227 2277.76,405.227 2277.76,94.1866 1767.32,94.1866 1767.32,405.227 "/>
<polyline clip-path="url(#clip760)" style="stroke:#009af9; stroke-linecap:round; stroke-linejoin:round; stroke-width:8; stroke-opacity:1; fill:none" points="1792.32,146.027 1942.32,146.027 "/>
<path clip-path="url(#clip760)" d="M1967.32 128.747 L1971.99 128.747 L1971.99 163.307 L1967.32 163.307 L1967.32 128.747 Z" fill="#000000" fill-rule="nonzero" fill-opacity="1" /><path clip-path="url(#clip760)" d="M1998.17 141.316 L1998.17 127.288 L2002.43 127.288 L2002.43 163.307 L1998.17 163.307 L1998.17 159.418 Q1996.83 161.733 1994.77 162.867 Q1992.73 163.978 1989.86 163.978 Q1985.16 163.978 1982.2 160.228 Q1979.26 156.478 1979.26 150.367 Q1979.26 144.256 1982.2 140.506 Q1985.16 136.756 1989.86 136.756 Q1992.73 136.756 1994.77 137.89 Q1996.83 139.001 1998.17 141.316 M1983.66 150.367 Q1983.66 155.066 1985.58 157.751 Q1987.53 160.413 1990.9 160.413 Q1994.28 160.413 1996.23 157.751 Q1998.17 155.066 1998.17 150.367 Q1998.17 145.668 1996.23 143.006 Q1994.28 140.321 1990.9 140.321 Q1987.53 140.321 1985.58 143.006 Q1983.66 145.668 1983.66 150.367 Z" fill="#000000" fill-rule="nonzero" fill-opacity="1" /><polyline clip-path="url(#clip760)" style="stroke:#e26f46; stroke-linecap:round; stroke-linejoin:round; stroke-width:8; stroke-opacity:1; fill:none" points="1792.32,197.867 1942.32,197.867 "/>
<path clip-path="url(#clip760)" d="M1983.15 185.193 L1976.81 202.392 L1989.52 202.392 L1983.15 185.193 M1980.51 180.587 L1985.81 180.587 L1998.98 215.147 L1994.12 215.147 L1990.97 206.281 L1975.4 206.281 L1972.25 215.147 L1967.32 215.147 L1980.51 180.587 Z" fill="#000000" fill-rule="nonzero" fill-opacity="1" /><path clip-path="url(#clip760)" d="M2003.84 179.128 L2008.1 179.128 L2008.1 215.147 L2003.84 215.147 L2003.84 179.128 Z" fill="#000000" fill-rule="nonzero" fill-opacity="1" /><path clip-path="url(#clip760)" d="M2034.08 201.883 Q2034.08 197.253 2032.15 194.707 Q2030.26 192.161 2026.81 192.161 Q2023.38 192.161 2021.46 194.707 Q2019.56 197.253 2019.56 201.883 Q2019.56 206.489 2021.46 209.036 Q2023.38 211.582 2026.81 211.582 Q2030.26 211.582 2032.15 209.036 Q2034.08 206.489 2034.08 201.883 M2038.34 211.929 Q2038.34 218.549 2035.4 221.767 Q2032.46 225.008 2026.39 225.008 Q2024.15 225.008 2022.15 224.66 Q2020.16 224.336 2018.29 223.642 L2018.29 219.498 Q2020.16 220.517 2021.99 221.003 Q2023.82 221.489 2025.72 221.489 Q2029.91 221.489 2031.99 219.29 Q2034.08 217.114 2034.08 212.693 L2034.08 210.586 Q2032.76 212.878 2030.7 214.012 Q2028.64 215.147 2025.77 215.147 Q2021 215.147 2018.08 211.512 Q2015.16 207.878 2015.16 201.883 Q2015.16 195.864 2018.08 192.23 Q2021 188.596 2025.77 188.596 Q2028.64 188.596 2030.7 189.73 Q2032.76 190.864 2034.08 193.156 L2034.08 189.221 L2038.34 189.221 L2038.34 211.929 Z" fill="#000000" fill-rule="nonzero" fill-opacity="1" /><path clip-path="url(#clip760)" d="M2069.28 201.119 L2069.28 203.202 L2049.7 203.202 Q2049.98 207.6 2052.34 209.915 Q2054.72 212.207 2058.96 212.207 Q2061.41 212.207 2063.71 211.605 Q2066.02 211.003 2068.29 209.799 L2068.29 213.827 Q2066 214.799 2063.59 215.309 Q2061.18 215.818 2058.71 215.818 Q2052.5 215.818 2048.87 212.207 Q2045.26 208.596 2045.26 202.438 Q2045.26 196.073 2048.68 192.346 Q2052.13 188.596 2057.96 188.596 Q2063.2 188.596 2066.23 191.975 Q2069.28 195.332 2069.28 201.119 M2065.02 199.869 Q2064.98 196.374 2063.06 194.29 Q2061.16 192.207 2058.01 192.207 Q2054.45 192.207 2052.29 194.221 Q2050.16 196.235 2049.84 199.892 L2065.02 199.869 Z" fill="#000000" fill-rule="nonzero" fill-opacity="1" /><path clip-path="url(#clip760)" d="M2094.89 202.207 Q2094.89 197.508 2092.94 194.846 Q2091.02 192.161 2087.64 192.161 Q2084.26 192.161 2082.32 194.846 Q2080.4 197.508 2080.4 202.207 Q2080.4 206.906 2082.32 209.591 Q2084.26 212.253 2087.64 212.253 Q2091.02 212.253 2092.94 209.591 Q2094.89 206.906 2094.89 202.207 M2080.4 193.156 Q2081.74 190.841 2083.77 189.73 Q2085.83 188.596 2088.68 188.596 Q2093.4 188.596 2096.34 192.346 Q2099.31 196.096 2099.31 202.207 Q2099.31 208.318 2096.34 212.068 Q2093.4 215.818 2088.68 215.818 Q2085.83 215.818 2083.77 214.707 Q2081.74 213.573 2080.4 211.258 L2080.4 215.147 L2076.11 215.147 L2076.11 179.128 L2080.4 179.128 L2080.4 193.156 Z" fill="#000000" fill-rule="nonzero" fill-opacity="1" /><path clip-path="url(#clip760)" d="M2121.39 193.202 Q2120.67 192.786 2119.82 192.6 Q2118.98 192.392 2117.96 192.392 Q2114.35 192.392 2112.41 194.753 Q2110.49 197.091 2110.49 201.489 L2110.49 215.147 L2106.21 215.147 L2106.21 189.221 L2110.49 189.221 L2110.49 193.249 Q2111.83 190.888 2113.98 189.753 Q2116.14 188.596 2119.21 188.596 Q2119.65 188.596 2120.19 188.665 Q2120.72 188.712 2121.37 188.827 L2121.39 193.202 Z" fill="#000000" fill-rule="nonzero" fill-opacity="1" /><path clip-path="url(#clip760)" d="M2137.64 202.114 Q2132.48 202.114 2130.49 203.295 Q2128.5 204.475 2128.5 207.323 Q2128.5 209.591 2129.98 210.934 Q2131.48 212.253 2134.05 212.253 Q2137.59 212.253 2139.72 209.753 Q2141.88 207.23 2141.88 203.063 L2141.88 202.114 L2137.64 202.114 M2146.14 200.355 L2146.14 215.147 L2141.88 215.147 L2141.88 211.211 Q2140.42 213.573 2138.24 214.707 Q2136.07 215.818 2132.92 215.818 Q2128.94 215.818 2126.58 213.596 Q2124.24 211.35 2124.24 207.6 Q2124.24 203.225 2127.15 201.003 Q2130.09 198.781 2135.9 198.781 L2141.88 198.781 L2141.88 198.364 Q2141.88 195.425 2139.93 193.827 Q2138.01 192.207 2134.52 192.207 Q2132.29 192.207 2130.19 192.739 Q2128.08 193.272 2126.14 194.337 L2126.14 190.401 Q2128.47 189.499 2130.67 189.059 Q2132.87 188.596 2134.95 188.596 Q2140.58 188.596 2143.36 191.513 Q2146.14 194.429 2146.14 200.355 Z" fill="#000000" fill-rule="nonzero" fill-opacity="1" /><path clip-path="url(#clip760)" d="M2154.91 189.221 L2159.17 189.221 L2159.17 215.147 L2154.91 215.147 L2154.91 189.221 M2154.91 179.128 L2159.17 179.128 L2159.17 184.522 L2154.91 184.522 L2154.91 179.128 Z" fill="#000000" fill-rule="nonzero" fill-opacity="1" /><path clip-path="url(#clip760)" d="M2186.74 190.216 L2186.74 194.198 Q2184.93 193.202 2183.1 192.716 Q2181.3 192.207 2179.45 192.207 Q2175.3 192.207 2173.01 194.846 Q2170.72 197.462 2170.72 202.207 Q2170.72 206.952 2173.01 209.591 Q2175.3 212.207 2179.45 212.207 Q2181.3 212.207 2183.1 211.721 Q2184.93 211.211 2186.74 210.216 L2186.74 214.151 Q2184.95 214.985 2183.03 215.401 Q2181.14 215.818 2178.98 215.818 Q2173.13 215.818 2169.68 212.137 Q2166.23 208.457 2166.23 202.207 Q2166.23 195.864 2169.7 192.23 Q2173.2 188.596 2179.26 188.596 Q2181.23 188.596 2183.1 189.013 Q2184.98 189.406 2186.74 190.216 Z" fill="#000000" fill-rule="nonzero" fill-opacity="1" /><path clip-path="url(#clip760)" d="M2204.38 179.175 Q2201.27 184.499 2199.77 189.707 Q2198.26 194.915 2198.26 200.262 Q2198.26 205.61 2199.77 210.864 Q2201.3 216.096 2204.38 221.397 L2200.67 221.397 Q2197.2 215.957 2195.46 210.702 Q2193.75 205.448 2193.75 200.262 Q2193.75 195.1 2195.46 189.869 Q2197.18 184.638 2200.67 179.175 L2204.38 179.175 Z" fill="#000000" fill-rule="nonzero" fill-opacity="1" /><path clip-path="url(#clip760)" d="M2217.27 211.211 L2233.59 211.211 L2233.59 215.147 L2211.64 215.147 L2211.64 211.211 Q2214.31 208.457 2218.89 203.827 Q2223.5 199.174 2224.68 197.832 Q2226.92 195.309 2227.8 193.573 Q2228.7 191.813 2228.7 190.124 Q2228.7 187.369 2226.76 185.633 Q2224.84 183.897 2221.74 183.897 Q2219.54 183.897 2217.08 184.661 Q2214.65 185.425 2211.88 186.975 L2211.88 182.253 Q2214.7 181.119 2217.15 180.54 Q2219.61 179.962 2221.64 179.962 Q2227.01 179.962 2230.21 182.647 Q2233.4 185.332 2233.4 189.823 Q2233.4 191.952 2232.59 193.874 Q2231.81 195.772 2229.7 198.364 Q2229.12 199.036 2226.02 202.253 Q2222.92 205.448 2217.27 211.211 Z" fill="#000000" fill-rule="nonzero" fill-opacity="1" /><path clip-path="url(#clip760)" d="M2242.13 179.175 L2245.83 179.175 Q2249.31 184.638 2251.02 189.869 Q2252.76 195.1 2252.76 200.262 Q2252.76 205.448 2251.02 210.702 Q2249.31 215.957 2245.83 221.397 L2242.13 221.397 Q2245.21 216.096 2246.71 210.864 Q2248.24 205.61 2248.24 200.262 Q2248.24 194.915 2246.71 189.707 Q2245.21 184.499 2242.13 179.175 Z" fill="#000000" fill-rule="nonzero" fill-opacity="1" /><polyline clip-path="url(#clip760)" style="stroke:#3da44d; stroke-linecap:round; stroke-linejoin:round; stroke-width:8; stroke-opacity:1; fill:none" points="1792.32,249.707 1942.32,249.707 "/>
<path clip-path="url(#clip760)" d="M1983.15 237.033 L1976.81 254.232 L1989.52 254.232 L1983.15 237.033 M1980.51 232.427 L1985.81 232.427 L1998.98 266.987 L1994.12 266.987 L1990.97 258.121 L1975.4 258.121 L1972.25 266.987 L1967.32 266.987 L1980.51 232.427 Z" fill="#000000" fill-rule="nonzero" fill-opacity="1" /><path clip-path="url(#clip760)" d="M2003.84 230.968 L2008.1 230.968 L2008.1 266.987 L2003.84 266.987 L2003.84 230.968 Z" fill="#000000" fill-rule="nonzero" fill-opacity="1" /><path clip-path="url(#clip760)" d="M2034.08 253.723 Q2034.08 249.093 2032.15 246.547 Q2030.26 244.001 2026.81 244.001 Q2023.38 244.001 2021.46 246.547 Q2019.56 249.093 2019.56 253.723 Q2019.56 258.329 2021.46 260.876 Q2023.38 263.422 2026.81 263.422 Q2030.26 263.422 2032.15 260.876 Q2034.08 258.329 2034.08 253.723 M2038.34 263.769 Q2038.34 270.389 2035.4 273.607 Q2032.46 276.848 2026.39 276.848 Q2024.15 276.848 2022.15 276.5 Q2020.16 276.176 2018.29 275.482 L2018.29 271.338 Q2020.16 272.357 2021.99 272.843 Q2023.82 273.329 2025.72 273.329 Q2029.91 273.329 2031.99 271.13 Q2034.08 268.954 2034.08 264.533 L2034.08 262.426 Q2032.76 264.718 2030.7 265.852 Q2028.64 266.987 2025.77 266.987 Q2021 266.987 2018.08 263.352 Q2015.16 259.718 2015.16 253.723 Q2015.16 247.704 2018.08 244.07 Q2021 240.436 2025.77 240.436 Q2028.64 240.436 2030.7 241.57 Q2032.76 242.704 2034.08 244.996 L2034.08 241.061 L2038.34 241.061 L2038.34 263.769 Z" fill="#000000" fill-rule="nonzero" fill-opacity="1" /><path clip-path="url(#clip760)" d="M2069.28 252.959 L2069.28 255.042 L2049.7 255.042 Q2049.98 259.44 2052.34 261.755 Q2054.72 264.047 2058.96 264.047 Q2061.41 264.047 2063.71 263.445 Q2066.02 262.843 2068.29 261.639 L2068.29 265.667 Q2066 266.639 2063.59 267.149 Q2061.18 267.658 2058.71 267.658 Q2052.5 267.658 2048.87 264.047 Q2045.26 260.436 2045.26 254.278 Q2045.26 247.913 2048.68 244.186 Q2052.13 240.436 2057.96 240.436 Q2063.2 240.436 2066.23 243.815 Q2069.28 247.172 2069.28 252.959 M2065.02 251.709 Q2064.98 248.214 2063.06 246.13 Q2061.16 244.047 2058.01 244.047 Q2054.45 244.047 2052.29 246.061 Q2050.16 248.075 2049.84 251.732 L2065.02 251.709 Z" fill="#000000" fill-rule="nonzero" fill-opacity="1" /><path clip-path="url(#clip760)" d="M2094.89 254.047 Q2094.89 249.348 2092.94 246.686 Q2091.02 244.001 2087.64 244.001 Q2084.26 244.001 2082.32 246.686 Q2080.4 249.348 2080.4 254.047 Q2080.4 258.746 2082.32 261.431 Q2084.26 264.093 2087.64 264.093 Q2091.02 264.093 2092.94 261.431 Q2094.89 258.746 2094.89 254.047 M2080.4 244.996 Q2081.74 242.681 2083.77 241.57 Q2085.83 240.436 2088.68 240.436 Q2093.4 240.436 2096.34 244.186 Q2099.31 247.936 2099.31 254.047 Q2099.31 260.158 2096.34 263.908 Q2093.4 267.658 2088.68 267.658 Q2085.83 267.658 2083.77 266.547 Q2081.74 265.413 2080.4 263.098 L2080.4 266.987 L2076.11 266.987 L2076.11 230.968 L2080.4 230.968 L2080.4 244.996 Z" fill="#000000" fill-rule="nonzero" fill-opacity="1" /><path clip-path="url(#clip760)" d="M2121.39 245.042 Q2120.67 244.626 2119.82 244.44 Q2118.98 244.232 2117.96 244.232 Q2114.35 244.232 2112.41 246.593 Q2110.49 248.931 2110.49 253.329 L2110.49 266.987 L2106.21 266.987 L2106.21 241.061 L2110.49 241.061 L2110.49 245.089 Q2111.83 242.728 2113.98 241.593 Q2116.14 240.436 2119.21 240.436 Q2119.65 240.436 2120.19 240.505 Q2120.72 240.552 2121.37 240.667 L2121.39 245.042 Z" fill="#000000" fill-rule="nonzero" fill-opacity="1" /><path clip-path="url(#clip760)" d="M2137.64 253.954 Q2132.48 253.954 2130.49 255.135 Q2128.5 256.315 2128.5 259.163 Q2128.5 261.431 2129.98 262.774 Q2131.48 264.093 2134.05 264.093 Q2137.59 264.093 2139.72 261.593 Q2141.88 259.07 2141.88 254.903 L2141.88 253.954 L2137.64 253.954 M2146.14 252.195 L2146.14 266.987 L2141.88 266.987 L2141.88 263.051 Q2140.42 265.413 2138.24 266.547 Q2136.07 267.658 2132.92 267.658 Q2128.94 267.658 2126.58 265.436 Q2124.24 263.19 2124.24 259.44 Q2124.24 255.065 2127.15 252.843 Q2130.09 250.621 2135.9 250.621 L2141.88 250.621 L2141.88 250.204 Q2141.88 247.265 2139.93 245.667 Q2138.01 244.047 2134.52 244.047 Q2132.29 244.047 2130.19 244.579 Q2128.08 245.112 2126.14 246.177 L2126.14 242.241 Q2128.47 241.339 2130.67 240.899 Q2132.87 240.436 2134.95 240.436 Q2140.58 240.436 2143.36 243.353 Q2146.14 246.269 2146.14 252.195 Z" fill="#000000" fill-rule="nonzero" fill-opacity="1" /><path clip-path="url(#clip760)" d="M2154.91 241.061 L2159.17 241.061 L2159.17 266.987 L2154.91 266.987 L2154.91 241.061 M2154.91 230.968 L2159.17 230.968 L2159.17 236.362 L2154.91 236.362 L2154.91 230.968 Z" fill="#000000" fill-rule="nonzero" fill-opacity="1" /><path clip-path="url(#clip760)" d="M2186.74 242.056 L2186.74 246.038 Q2184.93 245.042 2183.1 244.556 Q2181.3 244.047 2179.45 244.047 Q2175.3 244.047 2173.01 246.686 Q2170.72 249.302 2170.72 254.047 Q2170.72 258.792 2173.01 261.431 Q2175.3 264.047 2179.45 264.047 Q2181.3 264.047 2183.1 263.561 Q2184.93 263.051 2186.74 262.056 L2186.74 265.991 Q2184.95 266.825 2183.03 267.241 Q2181.14 267.658 2178.98 267.658 Q2173.13 267.658 2169.68 263.977 Q2166.23 260.297 2166.23 254.047 Q2166.23 247.704 2169.7 244.07 Q2173.2 240.436 2179.26 240.436 Q2181.23 240.436 2183.1 240.853 Q2184.98 241.246 2186.74 242.056 Z" fill="#000000" fill-rule="nonzero" fill-opacity="1" /><path clip-path="url(#clip760)" d="M2204.38 231.015 Q2201.27 236.339 2199.77 241.547 Q2198.26 246.755 2198.26 252.102 Q2198.26 257.45 2199.77 262.704 Q2201.3 267.936 2204.38 273.237 L2200.67 273.237 Q2197.2 267.797 2195.46 262.542 Q2193.75 257.288 2193.75 252.102 Q2193.75 246.94 2195.46 241.709 Q2197.18 236.478 2200.67 231.015 L2204.38 231.015 Z" fill="#000000" fill-rule="nonzero" fill-opacity="1" /><path clip-path="url(#clip760)" d="M2226.09 236.501 L2214.28 254.95 L2226.09 254.95 L2226.09 236.501 M2224.86 232.427 L2230.74 232.427 L2230.74 254.95 L2235.67 254.95 L2235.67 258.839 L2230.74 258.839 L2230.74 266.987 L2226.09 266.987 L2226.09 258.839 L2210.49 258.839 L2210.49 254.325 L2224.86 232.427 Z" fill="#000000" fill-rule="nonzero" fill-opacity="1" /><path clip-path="url(#clip760)" d="M2242.13 231.015 L2245.83 231.015 Q2249.31 236.478 2251.02 241.709 Q2252.76 246.94 2252.76 252.102 Q2252.76 257.288 2251.02 262.542 Q2249.31 267.797 2245.83 273.237 L2242.13 273.237 Q2245.21 267.936 2246.71 262.704 Q2248.24 257.45 2248.24 252.102 Q2248.24 246.755 2246.71 241.547 Q2245.21 236.339 2242.13 231.015 Z" fill="#000000" fill-rule="nonzero" fill-opacity="1" /><polyline clip-path="url(#clip760)" style="stroke:#c271d2; stroke-linecap:round; stroke-linejoin:round; stroke-width:8; stroke-opacity:1; fill:none" points="1792.32,301.547 1942.32,301.547 "/>
<path clip-path="url(#clip760)" d="M1992.87 313.896 L1992.87 304.614 L1985.23 304.614 L1985.23 300.771 L1997.5 300.771 L1997.5 315.609 Q1994.79 317.53 1991.53 318.526 Q1988.27 319.498 1984.56 319.498 Q1976.46 319.498 1971.88 314.776 Q1967.32 310.03 1967.32 301.581 Q1967.32 293.109 1971.88 288.387 Q1976.46 283.642 1984.56 283.642 Q1987.94 283.642 1990.97 284.475 Q1994.03 285.308 1996.6 286.929 L1996.6 291.905 Q1994.01 289.706 1991.09 288.595 Q1988.17 287.484 1984.96 287.484 Q1978.61 287.484 1975.42 291.026 Q1972.25 294.568 1972.25 301.581 Q1972.25 308.572 1975.42 312.114 Q1978.61 315.655 1984.96 315.655 Q1987.43 315.655 1989.38 315.239 Q1991.32 314.799 1992.87 313.896 Z" fill="#000000" fill-rule="nonzero" fill-opacity="1" /><path clip-path="url(#clip760)" d="M2017.64 305.794 Q2012.48 305.794 2010.49 306.975 Q2008.5 308.155 2008.5 311.003 Q2008.5 313.271 2009.98 314.614 Q2011.48 315.933 2014.05 315.933 Q2017.59 315.933 2019.72 313.433 Q2021.88 310.91 2021.88 306.743 L2021.88 305.794 L2017.64 305.794 M2026.14 304.035 L2026.14 318.827 L2021.88 318.827 L2021.88 314.891 Q2020.42 317.253 2018.24 318.387 Q2016.07 319.498 2012.92 319.498 Q2008.94 319.498 2006.58 317.276 Q2004.24 315.03 2004.24 311.28 Q2004.24 306.905 2007.15 304.683 Q2010.09 302.461 2015.9 302.461 L2021.88 302.461 L2021.88 302.044 Q2021.88 299.105 2019.93 297.507 Q2018.01 295.887 2014.52 295.887 Q2012.29 295.887 2010.19 296.419 Q2008.08 296.952 2006.14 298.017 L2006.14 294.081 Q2008.47 293.179 2010.67 292.739 Q2012.87 292.276 2014.96 292.276 Q2020.58 292.276 2023.36 295.193 Q2026.14 298.109 2026.14 304.035 Z" fill="#000000" fill-rule="nonzero" fill-opacity="1" /><path clip-path="url(#clip760)" d="M2034.47 308.595 L2034.47 292.901 L2038.73 292.901 L2038.73 308.433 Q2038.73 312.114 2040.16 313.966 Q2041.6 315.794 2044.47 315.794 Q2047.92 315.794 2049.91 313.595 Q2051.92 311.396 2051.92 307.6 L2051.92 292.901 L2056.18 292.901 L2056.18 318.827 L2051.92 318.827 L2051.92 314.845 Q2050.37 317.206 2048.31 318.364 Q2046.27 319.498 2043.57 319.498 Q2039.1 319.498 2036.78 316.72 Q2034.47 313.942 2034.47 308.595 M2045.19 292.276 L2045.19 292.276 Z" fill="#000000" fill-rule="nonzero" fill-opacity="1" /><path clip-path="url(#clip760)" d="M2081.48 293.665 L2081.48 297.692 Q2079.68 296.767 2077.73 296.304 Q2075.79 295.841 2073.71 295.841 Q2070.53 295.841 2068.94 296.813 Q2067.36 297.785 2067.36 299.73 Q2067.36 301.211 2068.5 302.067 Q2069.63 302.901 2073.06 303.665 L2074.52 303.989 Q2079.05 304.961 2080.95 306.743 Q2082.87 308.503 2082.87 311.674 Q2082.87 315.285 2080 317.391 Q2077.15 319.498 2072.15 319.498 Q2070.07 319.498 2067.8 319.081 Q2065.56 318.688 2063.06 317.878 L2063.06 313.479 Q2065.42 314.706 2067.71 315.331 Q2070 315.933 2072.25 315.933 Q2075.26 315.933 2076.88 314.915 Q2078.5 313.873 2078.5 311.998 Q2078.5 310.262 2077.32 309.336 Q2076.16 308.41 2072.2 307.554 L2070.72 307.206 Q2066.76 306.373 2065 304.66 Q2063.24 302.924 2063.24 299.915 Q2063.24 296.257 2065.83 294.267 Q2068.43 292.276 2073.2 292.276 Q2075.56 292.276 2077.64 292.623 Q2079.72 292.97 2081.48 293.665 Z" fill="#000000" fill-rule="nonzero" fill-opacity="1" /><path clip-path="url(#clip760)" d="M2106.18 293.665 L2106.18 297.692 Q2104.38 296.767 2102.43 296.304 Q2100.49 295.841 2098.4 295.841 Q2095.23 295.841 2093.64 296.813 Q2092.06 297.785 2092.06 299.73 Q2092.06 301.211 2093.2 302.067 Q2094.33 302.901 2097.76 303.665 L2099.21 303.989 Q2103.75 304.961 2105.65 306.743 Q2107.57 308.503 2107.57 311.674 Q2107.57 315.285 2104.7 317.391 Q2101.85 319.498 2096.85 319.498 Q2094.77 319.498 2092.5 319.081 Q2090.26 318.688 2087.76 317.878 L2087.76 313.479 Q2090.12 314.706 2092.41 315.331 Q2094.7 315.933 2096.95 315.933 Q2099.96 315.933 2101.58 314.915 Q2103.2 313.873 2103.2 311.998 Q2103.2 310.262 2102.02 309.336 Q2100.86 308.41 2096.9 307.554 L2095.42 307.206 Q2091.46 306.373 2089.7 304.66 Q2087.94 302.924 2087.94 299.915 Q2087.94 296.257 2090.53 294.267 Q2093.13 292.276 2097.89 292.276 Q2100.26 292.276 2102.34 292.623 Q2104.42 292.97 2106.18 293.665 Z" fill="#000000" fill-rule="nonzero" fill-opacity="1" /><path clip-path="url(#clip760)" d="M2114.35 292.901 L2118.61 292.901 L2118.61 318.827 L2114.35 318.827 L2114.35 292.901 M2114.35 282.808 L2118.61 282.808 L2118.61 288.202 L2114.35 288.202 L2114.35 282.808 Z" fill="#000000" fill-rule="nonzero" fill-opacity="1" /><path clip-path="url(#clip760)" d="M2139.31 305.794 Q2134.14 305.794 2132.15 306.975 Q2130.16 308.155 2130.16 311.003 Q2130.16 313.271 2131.64 314.614 Q2133.15 315.933 2135.72 315.933 Q2139.26 315.933 2141.39 313.433 Q2143.54 310.91 2143.54 306.743 L2143.54 305.794 L2139.31 305.794 M2147.8 304.035 L2147.8 318.827 L2143.54 318.827 L2143.54 314.891 Q2142.08 317.253 2139.91 318.387 Q2137.73 319.498 2134.58 319.498 Q2130.6 319.498 2128.24 317.276 Q2125.9 315.03 2125.9 311.28 Q2125.9 306.905 2128.82 304.683 Q2131.76 302.461 2137.57 302.461 L2143.54 302.461 L2143.54 302.044 Q2143.54 299.105 2141.6 297.507 Q2139.68 295.887 2136.18 295.887 Q2133.96 295.887 2131.85 296.419 Q2129.75 296.952 2127.8 298.017 L2127.8 294.081 Q2130.14 293.179 2132.34 292.739 Q2134.54 292.276 2136.62 292.276 Q2142.25 292.276 2145.02 295.193 Q2147.8 298.109 2147.8 304.035 Z" fill="#000000" fill-rule="nonzero" fill-opacity="1" /><path clip-path="url(#clip760)" d="M2178.13 303.179 L2178.13 318.827 L2173.87 318.827 L2173.87 303.317 Q2173.87 299.637 2172.43 297.808 Q2171 295.98 2168.13 295.98 Q2164.68 295.98 2162.69 298.179 Q2160.7 300.378 2160.7 304.174 L2160.7 318.827 L2156.41 318.827 L2156.41 292.901 L2160.7 292.901 L2160.7 296.929 Q2162.22 294.591 2164.28 293.433 Q2166.37 292.276 2169.08 292.276 Q2173.54 292.276 2175.83 295.054 Q2178.13 297.808 2178.13 303.179 Z" fill="#000000" fill-rule="nonzero" fill-opacity="1" /><polyline clip-path="url(#clip760)" style="stroke:#ac8d18; stroke-linecap:round; stroke-linejoin:round; stroke-width:8; stroke-opacity:1; fill:none" stroke-dasharray="32, 20" points="1792.32,353.387 1942.32,353.387 "/>
<path clip-path="url(#clip760)" d="M1986.85 340.938 Q1986.85 342.18 1986.03 342.976 Q1985.24 343.773 1984.2 343.773 Q1983.31 343.773 1982.85 343.257 Q1982.38 342.742 1982.38 342.086 Q1982.38 341.149 1983.1 340.376 Q1983.83 339.603 1984.88 339.439 Q1984.11 338.877 1982.87 338.877 Q1980.83 338.877 1979.03 340.447 Q1978.23 341.173 1977.37 342.508 Q1976.5 343.819 1976.33 344.382 L1974.81 350.635 Q1974.67 351.338 1973.8 354.711 Q1972.96 358.06 1972.89 358.201 Q1972.66 358.857 1972.14 359.208 Q1971.63 359.559 1971.11 359.559 Q1970.53 359.559 1970.13 359.208 Q1969.73 358.857 1969.73 358.248 Q1969.73 358.154 1969.8 357.803 Q1969.87 357.451 1969.99 356.959 Q1970.1 356.467 1970.15 356.186 L1972.94 345.108 Q1973.45 343.093 1973.57 342.461 Q1973.71 341.805 1973.71 341.079 Q1973.71 339.814 1973.31 339.346 Q1972.91 338.877 1972.21 338.877 Q1970.99 338.877 1970.2 340.329 Q1969.4 341.782 1968.72 344.592 Q1968.51 345.365 1968.37 345.529 Q1968.25 345.693 1967.9 345.693 Q1967.32 345.67 1967.32 345.201 Q1967.32 345.084 1967.5 344.335 Q1967.69 343.562 1968.04 342.437 Q1968.42 341.29 1968.82 340.564 Q1969.05 340.072 1969.26 339.744 Q1969.47 339.416 1969.89 338.901 Q1970.31 338.385 1970.95 338.104 Q1971.58 337.823 1972.35 337.823 Q1974.04 337.823 1975.23 338.854 Q1976.45 339.884 1976.73 341.501 Q1977.32 340.657 1978.04 339.931 Q1978.77 339.182 1980.11 338.502 Q1981.44 337.823 1982.87 337.823 Q1984.65 337.823 1985.75 338.737 Q1986.85 339.627 1986.85 340.938 Z" fill="#000000" fill-rule="nonzero" fill-opacity="1" /><path clip-path="url(#clip760)" d="M2009.96 363.561 Q2009.96 363.692 2009.82 364.201 Q2009.67 364.709 2009.31 365.496 Q2008.96 366.283 2008.49 367.004 Q2008.01 367.709 2007.23 368.234 Q2006.46 368.742 2005.57 368.742 Q2004.39 368.742 2003.6 367.955 Q2002.82 367.168 2002.82 365.988 Q2002.82 365.332 2003.16 364.43 Q2005.34 358.61 2005.34 356.61 Q2005.34 354.265 2003.52 354.265 Q2002.62 354.265 2001.77 354.609 Q2000.93 354.937 2000.36 355.396 Q1999.78 355.855 1999.26 356.495 Q1998.75 357.118 1998.49 357.544 Q1998.24 357.954 1998.04 358.364 L1997.62 360.036 Q1997.52 360.495 1997.04 362.282 L1996.31 365.316 Q1995.78 367.578 1995.67 367.791 Q1995.5 368.25 1995.14 368.496 Q1994.78 368.742 1994.42 368.742 Q1994.01 368.742 1993.73 368.496 Q1993.45 368.25 1993.45 367.824 Q1993.45 367.759 1993.5 367.513 Q1993.55 367.267 1993.63 366.922 Q1993.72 366.578 1993.75 366.381 L1995.7 358.626 Q1996.06 357.216 1996.14 356.773 Q1996.24 356.314 1996.24 355.806 Q1996.24 354.265 1995.19 354.265 Q1994.34 354.265 1993.78 355.281 Q1993.22 356.298 1992.75 358.265 Q1992.6 358.807 1992.5 358.921 Q1992.42 359.036 1992.17 359.036 Q1991.77 359.02 1991.77 358.692 Q1991.77 358.61 1991.9 358.069 Q1992.03 357.528 1992.27 356.757 Q1992.54 355.97 1992.78 355.445 Q1992.99 355.052 1993.11 354.872 Q1993.24 354.675 1993.55 354.298 Q1993.88 353.904 1994.31 353.724 Q1994.75 353.527 1995.29 353.527 Q1996.5 353.527 1997.39 354.314 Q1998.27 355.085 1998.39 356.446 Q2000.57 353.527 2003.62 353.527 Q2005.42 353.527 2006.46 354.478 Q2007.49 355.429 2007.49 357.118 Q2007.49 357.511 2007.41 358.02 Q2007.34 358.511 2007.18 359.134 Q2007.03 359.757 2006.9 360.233 Q2006.77 360.708 2006.5 361.479 Q2006.24 362.233 2006.13 362.561 Q2006.01 362.889 2005.73 363.66 Q2005.47 364.414 2005.44 364.496 Q2004.83 366.021 2004.83 366.89 Q2004.83 367.463 2005.01 367.726 Q2005.21 367.988 2005.64 367.988 Q2006.78 367.988 2007.64 366.857 Q2008.51 365.709 2009.06 363.84 Q2009.19 363.43 2009.26 363.332 Q2009.34 363.233 2009.57 363.233 Q2009.96 363.233 2009.96 363.561 Z" fill="#000000" fill-rule="nonzero" fill-opacity="1" /><path clip-path="url(#clip760)" d="M2030.04 363.561 Q2030.04 363.692 2029.89 364.201 Q2029.74 364.709 2029.38 365.496 Q2029.04 366.283 2028.56 367.004 Q2028.08 367.709 2027.3 368.234 Q2026.53 368.742 2025.64 368.742 Q2024.46 368.742 2023.67 367.955 Q2022.89 367.168 2022.89 365.988 Q2022.89 365.332 2023.23 364.43 Q2025.41 358.61 2025.41 356.61 Q2025.41 354.265 2023.59 354.265 Q2022.69 354.265 2021.84 354.609 Q2021 354.937 2020.43 355.396 Q2019.85 355.855 2019.33 356.495 Q2018.82 357.118 2018.56 357.544 Q2018.31 357.954 2018.12 358.364 L2017.69 360.036 Q2017.59 360.495 2017.12 362.282 L2016.38 365.316 Q2015.85 367.578 2015.74 367.791 Q2015.57 368.25 2015.21 368.496 Q2014.85 368.742 2014.49 368.742 Q2014.08 368.742 2013.8 368.496 Q2013.53 368.25 2013.53 367.824 Q2013.53 367.759 2013.57 367.513 Q2013.62 367.267 2013.71 366.922 Q2013.79 366.578 2013.82 366.381 L2015.77 358.626 Q2016.13 357.216 2016.21 356.773 Q2016.31 356.314 2016.31 355.806 Q2016.31 354.265 2015.26 354.265 Q2014.41 354.265 2013.85 355.281 Q2013.3 356.298 2012.82 358.265 Q2012.67 358.807 2012.57 358.921 Q2012.49 359.036 2012.25 359.036 Q2011.84 359.02 2011.84 358.692 Q2011.84 358.61 2011.97 358.069 Q2012.1 357.528 2012.34 356.757 Q2012.61 355.97 2012.85 355.445 Q2013.07 355.052 2013.18 354.872 Q2013.31 354.675 2013.62 354.298 Q2013.95 353.904 2014.38 353.724 Q2014.82 353.527 2015.36 353.527 Q2016.57 353.527 2017.46 354.314 Q2018.35 355.085 2018.46 356.446 Q2020.64 353.527 2023.69 353.527 Q2025.49 353.527 2026.53 354.478 Q2027.56 355.429 2027.56 357.118 Q2027.56 357.511 2027.48 358.02 Q2027.41 358.511 2027.25 359.134 Q2027.1 359.757 2026.97 360.233 Q2026.84 360.708 2026.58 361.479 Q2026.31 362.233 2026.2 362.561 Q2026.08 362.889 2025.81 363.66 Q2025.54 364.414 2025.51 364.496 Q2024.9 366.021 2024.9 366.89 Q2024.9 367.463 2025.08 367.726 Q2025.28 367.988 2025.71 367.988 Q2026.85 367.988 2027.71 366.857 Q2028.58 365.709 2029.13 363.84 Q2029.27 363.43 2029.33 363.332 Q2029.41 363.233 2029.64 363.233 Q2030.04 363.233 2030.04 363.561 Z" fill="#000000" fill-rule="nonzero" fill-opacity="1" /></svg>
