<?xml version="1.0" encoding="utf-8"?>
<svg xmlns="http://www.w3.org/2000/svg" xmlns:xlink="http://www.w3.org/1999/xlink" width="300" height="300" viewBox="0 0 1200 1200">
<defs>
  <clipPath id="clip120">
    <rect x="0" y="0" width="1200" height="1200"/>
  </clipPath>
</defs>
<path clip-path="url(#clip120)" d="M0 1200 L1200 1200 L1200 0 L0 0  Z" fill="#ffffff" fill-rule="evenodd" fill-opacity="1"/>
<defs>
  <clipPath id="clip121">
    <rect x="240" y="120" width="841" height="841"/>
  </clipPath>
</defs>
<path clip-path="url(#clip120)" d="M344.38 986.14 L1152.76 986.14 L1152.76 47.2441 L344.38 47.2441  Z" fill="#ffffff" fill-rule="evenodd" fill-opacity="1"/>
<defs>
  <clipPath id="clip122">
    <rect x="344" y="47" width="809" height="940"/>
  </clipPath>
</defs>
<polyline clip-path="url(#clip122)" style="stroke:#000000; stroke-linecap:round; stroke-linejoin:round; stroke-width:2; stroke-opacity:0.1; fill:none" points="496.276,986.14 496.276,47.2441 "/>
<polyline clip-path="url(#clip122)" style="stroke:#000000; stroke-linecap:round; stroke-linejoin:round; stroke-width:2; stroke-opacity:0.1; fill:none" points="760.112,986.14 760.112,47.2441 "/>
<polyline clip-path="url(#clip122)" style="stroke:#000000; stroke-linecap:round; stroke-linejoin:round; stroke-width:2; stroke-opacity:0.1; fill:none" points="1000.86,986.14 1000.86,47.2441 "/>
<polyline clip-path="url(#clip122)" style="stroke:#000000; stroke-linecap:round; stroke-linejoin:round; stroke-width:2; stroke-opacity:0.1; fill:none" points="344.38,868.778 1152.76,868.778 "/>
<polyline clip-path="url(#clip122)" style="stroke:#000000; stroke-linecap:round; stroke-linejoin:round; stroke-width:2; stroke-opacity:0.1; fill:none" points="344.38,634.054 1152.76,634.054 "/>
<polyline clip-path="url(#clip122)" style="stroke:#000000; stroke-linecap:round; stroke-linejoin:round; stroke-width:2; stroke-opacity:0.1; fill:none" points="344.38,399.33 1152.76,399.33 "/>
<polyline clip-path="url(#clip122)" style="stroke:#000000; stroke-linecap:round; stroke-linejoin:round; stroke-width:2; stroke-opacity:0.1; fill:none" points="344.38,164.606 1152.76,164.606 "/>
<polyline clip-path="url(#clip120)" style="stroke:#000000; stroke-linecap:round; stroke-linejoin:round; stroke-width:4; stroke-opacity:1; fill:none" points="344.38,986.14 1152.76,986.14 "/>
<polyline clip-path="url(#clip120)" style="stroke:#000000; stroke-linecap:round; stroke-linejoin:round; stroke-width:4; stroke-opacity:1; fill:none" points="496.276,986.14 496.276,967.242 "/>
<polyline clip-path="url(#clip120)" style="stroke:#000000; stroke-linecap:round; stroke-linejoin:round; stroke-width:4; stroke-opacity:1; fill:none" points="760.112,986.14 760.112,967.242 "/>
<polyline clip-path="url(#clip120)" style="stroke:#000000; stroke-linecap:round; stroke-linejoin:round; stroke-width:4; stroke-opacity:1; fill:none" points="1000.86,986.14 1000.86,967.242 "/>
<path clip-path="url(#clip120)" d="M458.903 1007.46 Q455.292 1007.46 453.463 1011.02 Q451.658 1014.56 451.658 1021.69 Q451.658 1028.8 453.463 1032.37 Q455.292 1035.91 458.903 1035.91 Q462.537 1035.91 464.343 1032.37 Q466.172 1028.8 466.172 1021.69 Q466.172 1014.56 464.343 1011.02 Q462.537 1007.46 458.903 1007.46 M458.903 1003.75 Q464.713 1003.75 467.769 1008.36 Q470.847 1012.94 470.847 1021.69 Q470.847 1030.42 467.769 1035.03 Q464.713 1039.61 458.903 1039.61 Q453.093 1039.61 450.014 1035.03 Q446.959 1030.42 446.959 1021.69 Q446.959 1012.94 450.014 1008.36 Q453.093 1003.75 458.903 1003.75 Z" fill="#000000" fill-rule="nonzero" fill-opacity="1" /><path clip-path="url(#clip120)" d="M479.065 1033.06 L483.949 1033.06 L483.949 1038.94 L479.065 1038.94 L479.065 1033.06 Z" fill="#000000" fill-rule="nonzero" fill-opacity="1" /><path clip-path="url(#clip120)" d="M504.134 1007.46 Q500.523 1007.46 498.695 1011.02 Q496.889 1014.56 496.889 1021.69 Q496.889 1028.8 498.695 1032.37 Q500.523 1035.91 504.134 1035.91 Q507.769 1035.91 509.574 1032.37 Q511.403 1028.8 511.403 1021.69 Q511.403 1014.56 509.574 1011.02 Q507.769 1007.46 504.134 1007.46 M504.134 1003.75 Q509.944 1003.75 513 1008.36 Q516.079 1012.94 516.079 1021.69 Q516.079 1030.42 513 1035.03 Q509.944 1039.61 504.134 1039.61 Q498.324 1039.61 495.245 1035.03 Q492.19 1030.42 492.19 1021.69 Q492.19 1012.94 495.245 1008.36 Q498.324 1003.75 504.134 1003.75 Z" fill="#000000" fill-rule="nonzero" fill-opacity="1" /><path clip-path="url(#clip120)" d="M538.463 1020.31 Q541.819 1021.02 543.694 1023.29 Q545.592 1025.56 545.592 1028.89 Q545.592 1034.01 542.074 1036.81 Q538.555 1039.61 532.074 1039.61 Q529.898 1039.61 527.583 1039.17 Q525.292 1038.75 522.838 1037.9 L522.838 1033.38 Q524.782 1034.52 527.097 1035.1 Q529.412 1035.68 531.935 1035.68 Q536.333 1035.68 538.625 1033.94 Q540.94 1032.2 540.94 1028.89 Q540.94 1025.84 538.787 1024.13 Q536.657 1022.39 532.838 1022.39 L528.81 1022.39 L528.81 1018.55 L533.023 1018.55 Q536.472 1018.55 538.301 1017.18 Q540.129 1015.79 540.129 1013.2 Q540.129 1010.54 538.231 1009.13 Q536.356 1007.69 532.838 1007.69 Q530.917 1007.69 528.718 1008.11 Q526.518 1008.52 523.88 1009.4 L523.88 1005.24 Q526.542 1004.5 528.856 1004.13 Q531.194 1003.75 533.255 1003.75 Q538.579 1003.75 541.68 1006.19 Q544.782 1008.59 544.782 1012.71 Q544.782 1015.58 543.139 1017.57 Q541.495 1019.54 538.463 1020.31 Z" fill="#000000" fill-rule="nonzero" fill-opacity="1" /><path clip-path="url(#clip120)" d="M738.11 1007.46 Q734.499 1007.46 732.67 1011.02 Q730.865 1014.56 730.865 1021.69 Q730.865 1028.8 732.67 1032.37 Q734.499 1035.91 738.11 1035.91 Q741.744 1035.91 743.55 1032.37 Q745.379 1028.8 745.379 1021.69 Q745.379 1014.56 743.55 1011.02 Q741.744 1007.46 738.11 1007.46 M738.11 1003.75 Q743.92 1003.75 746.976 1008.36 Q750.055 1012.94 750.055 1021.69 Q750.055 1030.42 746.976 1035.03 Q743.92 1039.61 738.11 1039.61 Q732.3 1039.61 729.221 1035.03 Q726.166 1030.42 726.166 1021.69 Q726.166 1012.94 729.221 1008.36 Q732.3 1003.75 738.11 1003.75 Z" fill="#000000" fill-rule="nonzero" fill-opacity="1" /><path clip-path="url(#clip120)" d="M758.272 1033.06 L763.156 1033.06 L763.156 1038.94 L758.272 1038.94 L758.272 1033.06 Z" fill="#000000" fill-rule="nonzero" fill-opacity="1" /><path clip-path="url(#clip120)" d="M774.152 1035 L781.79 1035 L781.79 1008.64 L773.48 1010.31 L773.48 1006.05 L781.744 1004.38 L786.42 1004.38 L786.42 1035 L794.059 1035 L794.059 1038.94 L774.152 1038.94 L774.152 1035 Z" fill="#000000" fill-rule="nonzero" fill-opacity="1" /><path clip-path="url(#clip120)" d="M978.569 1007.46 Q974.958 1007.46 973.129 1011.02 Q971.324 1014.56 971.324 1021.69 Q971.324 1028.8 973.129 1032.37 Q974.958 1035.91 978.569 1035.91 Q982.203 1035.91 984.009 1032.37 Q985.838 1028.8 985.838 1021.69 Q985.838 1014.56 984.009 1011.02 Q982.203 1007.46 978.569 1007.46 M978.569 1003.75 Q984.379 1003.75 987.435 1008.36 Q990.513 1012.94 990.513 1021.69 Q990.513 1030.42 987.435 1035.03 Q984.379 1039.61 978.569 1039.61 Q972.759 1039.61 969.68 1035.03 Q966.625 1030.42 966.625 1021.69 Q966.625 1012.94 969.68 1008.36 Q972.759 1003.75 978.569 1003.75 Z" fill="#000000" fill-rule="nonzero" fill-opacity="1" /><path clip-path="url(#clip120)" d="M998.731 1033.06 L1003.62 1033.06 L1003.62 1038.94 L998.731 1038.94 L998.731 1033.06 Z" fill="#000000" fill-rule="nonzero" fill-opacity="1" /><path clip-path="url(#clip120)" d="M1027.97 1020.31 Q1031.32 1021.02 1033.2 1023.29 Q1035.1 1025.56 1035.1 1028.89 Q1035.1 1034.01 1031.58 1036.81 Q1028.06 1039.61 1021.58 1039.61 Q1019.4 1039.61 1017.09 1039.17 Q1014.8 1038.75 1012.34 1037.9 L1012.34 1033.38 Q1014.29 1034.52 1016.6 1035.1 Q1018.92 1035.68 1021.44 1035.68 Q1025.84 1035.68 1028.13 1033.94 Q1030.44 1032.2 1030.44 1028.89 Q1030.44 1025.84 1028.29 1024.13 Q1026.16 1022.39 1022.34 1022.39 L1018.31 1022.39 L1018.31 1018.55 L1022.53 1018.55 Q1025.98 1018.55 1027.8 1017.18 Q1029.63 1015.79 1029.63 1013.2 Q1029.63 1010.54 1027.74 1009.13 Q1025.86 1007.69 1022.34 1007.69 Q1020.42 1007.69 1018.22 1008.11 Q1016.02 1008.52 1013.38 1009.4 L1013.38 1005.24 Q1016.05 1004.5 1018.36 1004.13 Q1020.7 1003.75 1022.76 1003.75 Q1028.08 1003.75 1031.18 1006.19 Q1034.29 1008.59 1034.29 1012.71 Q1034.29 1015.58 1032.64 1017.57 Q1031 1019.54 1027.97 1020.31 Z" fill="#000000" fill-rule="nonzero" fill-opacity="1" /><path clip-path="url(#clip120)" d="M686.105 1082.83 Q685.118 1082.26 683.94 1082 Q682.794 1081.72 681.394 1081.72 Q676.429 1081.72 673.755 1084.96 Q671.113 1088.18 671.113 1094.23 L671.113 1113 L665.225 1113 L665.225 1077.36 L671.113 1077.36 L671.113 1082.89 Q672.959 1079.65 675.919 1078.09 Q678.88 1076.5 683.113 1076.5 Q683.717 1076.5 684.45 1076.59 Q685.182 1076.66 686.073 1076.81 L686.105 1082.83 Z" fill="#000000" fill-rule="nonzero" fill-opacity="1" /><path clip-path="url(#clip120)" d="M708.448 1095.08 Q701.35 1095.08 698.613 1096.71 Q695.876 1098.33 695.876 1102.25 Q695.876 1105.36 697.913 1107.21 Q699.982 1109.03 703.515 1109.03 Q708.385 1109.03 711.313 1105.59 Q714.273 1102.12 714.273 1096.39 L714.273 1095.08 L708.448 1095.08 M720.129 1092.67 L720.129 1113 L714.273 1113 L714.273 1107.59 Q712.268 1110.84 709.276 1112.4 Q706.284 1113.93 701.955 1113.93 Q696.481 1113.93 693.234 1110.87 Q690.02 1107.78 690.02 1102.63 Q690.02 1096.61 694.03 1093.56 Q698.072 1090.5 706.061 1090.5 L714.273 1090.5 L714.273 1089.93 Q714.273 1085.89 711.599 1083.69 Q708.957 1081.46 704.151 1081.46 Q701.096 1081.46 698.199 1082.19 Q695.303 1082.93 692.629 1084.39 L692.629 1078.98 Q695.844 1077.74 698.868 1077.13 Q701.892 1076.5 704.756 1076.5 Q712.49 1076.5 716.31 1080.51 Q720.129 1084.52 720.129 1092.67 Z" fill="#000000" fill-rule="nonzero" fill-opacity="1" /><path clip-path="url(#clip120)" d="M737.985 1067.23 L737.985 1077.36 L750.048 1077.36 L750.048 1081.91 L737.985 1081.91 L737.985 1101.26 Q737.985 1105.62 739.163 1106.86 Q740.372 1108.1 744.033 1108.1 L750.048 1108.1 L750.048 1113 L744.033 1113 Q737.253 1113 734.675 1110.49 Q732.097 1107.94 732.097 1101.26 L732.097 1081.91 L727.8 1081.91 L727.8 1077.36 L732.097 1077.36 L732.097 1067.23 L737.985 1067.23 Z" fill="#000000" fill-rule="nonzero" fill-opacity="1" /><path clip-path="url(#clip120)" d="M763.543 1067.23 L763.543 1077.36 L775.606 1077.36 L775.606 1081.91 L763.543 1081.91 L763.543 1101.26 Q763.543 1105.62 764.721 1106.86 Q765.931 1108.1 769.591 1108.1 L775.606 1108.1 L775.606 1113 L769.591 1113 Q762.811 1113 760.233 1110.49 Q757.655 1107.94 757.655 1101.26 L757.655 1081.91 L753.358 1081.91 L753.358 1077.36 L757.655 1077.36 L757.655 1067.23 L763.543 1067.23 Z" fill="#000000" fill-rule="nonzero" fill-opacity="1" /><path clip-path="url(#clip120)" d="M783.309 1063.48 L789.165 1063.48 L789.165 1113 L783.309 1113 L783.309 1063.48 Z" fill="#000000" fill-rule="nonzero" fill-opacity="1" /><path clip-path="url(#clip120)" d="M831.911 1093.72 L831.911 1096.58 L804.984 1096.58 Q805.366 1102.63 808.613 1105.81 Q811.891 1108.96 817.716 1108.96 Q821.089 1108.96 824.24 1108.13 Q827.423 1107.31 830.542 1105.65 L830.542 1111.19 Q827.391 1112.53 824.081 1113.23 Q820.771 1113.93 817.365 1113.93 Q808.835 1113.93 803.838 1108.96 Q798.873 1104 798.873 1095.53 Q798.873 1086.78 803.584 1081.65 Q808.326 1076.5 816.347 1076.5 Q823.54 1076.5 827.71 1081.14 Q831.911 1085.76 831.911 1093.72 M826.055 1092 Q825.991 1087.19 823.349 1084.33 Q820.739 1081.46 816.411 1081.46 Q811.509 1081.46 808.549 1084.23 Q805.621 1087 805.175 1092.03 L826.055 1092 Z" fill="#000000" fill-rule="nonzero" fill-opacity="1" /><polyline clip-path="url(#clip120)" style="stroke:#000000; stroke-linecap:round; stroke-linejoin:round; stroke-width:4; stroke-opacity:1; fill:none" points="344.38,986.14 344.38,47.2441 "/>
<polyline clip-path="url(#clip120)" style="stroke:#000000; stroke-linecap:round; stroke-linejoin:round; stroke-width:4; stroke-opacity:1; fill:none" points="344.38,868.778 363.278,868.778 "/>
<polyline clip-path="url(#clip120)" style="stroke:#000000; stroke-linecap:round; stroke-linejoin:round; stroke-width:4; stroke-opacity:1; fill:none" points="344.38,634.054 363.278,634.054 "/>
<polyline clip-path="url(#clip120)" style="stroke:#000000; stroke-linecap:round; stroke-linejoin:round; stroke-width:4; stroke-opacity:1; fill:none" points="344.38,399.33 363.278,399.33 "/>
<polyline clip-path="url(#clip120)" style="stroke:#000000; stroke-linecap:round; stroke-linejoin:round; stroke-width:4; stroke-opacity:1; fill:none" points="344.38,164.606 363.278,164.606 "/>
<path clip-path="url(#clip120)" d="M144.02 869.229 L173.696 869.229 L173.696 873.164 L144.02 873.164 L144.02 869.229 Z" fill="#000000" fill-rule="nonzero" fill-opacity="1" /><path clip-path="url(#clip120)" d="M184.599 882.123 L192.237 882.123 L192.237 855.757 L183.927 857.424 L183.927 853.165 L192.191 851.498 L196.867 851.498 L196.867 882.123 L204.506 882.123 L204.506 886.058 L184.599 886.058 L184.599 882.123 Z" fill="#000000" fill-rule="nonzero" fill-opacity="1" /><path clip-path="url(#clip120)" d="M223.95 854.577 Q220.339 854.577 218.51 858.141 Q216.705 861.683 216.705 868.813 Q216.705 875.919 218.51 879.484 Q220.339 883.025 223.95 883.025 Q227.585 883.025 229.39 879.484 Q231.219 875.919 231.219 868.813 Q231.219 861.683 229.39 858.141 Q227.585 854.577 223.95 854.577 M223.95 850.873 Q229.76 850.873 232.816 855.479 Q235.895 860.063 235.895 868.813 Q235.895 877.539 232.816 882.146 Q229.76 886.729 223.95 886.729 Q218.14 886.729 215.061 882.146 Q212.006 877.539 212.006 868.813 Q212.006 860.063 215.061 855.479 Q218.14 850.873 223.95 850.873 Z" fill="#000000" fill-rule="nonzero" fill-opacity="1" /><path clip-path="url(#clip120)" d="M254.691 866.914 Q251.543 866.914 249.691 869.067 Q247.862 871.22 247.862 874.97 Q247.862 878.697 249.691 880.873 Q251.543 883.025 254.691 883.025 Q257.839 883.025 259.668 880.873 Q261.52 878.697 261.52 874.97 Q261.52 871.22 259.668 869.067 Q257.839 866.914 254.691 866.914 M263.973 852.262 L263.973 856.521 Q262.214 855.688 260.408 855.248 Q258.626 854.808 256.867 854.808 Q252.237 854.808 249.783 857.933 Q247.353 861.058 247.006 867.377 Q248.371 865.364 250.432 864.299 Q252.492 863.211 254.969 863.211 Q260.177 863.211 263.186 866.382 Q266.219 869.53 266.219 874.97 Q266.219 880.294 263.07 883.512 Q259.922 886.729 254.691 886.729 Q248.696 886.729 245.524 882.146 Q242.353 877.539 242.353 868.813 Q242.353 860.618 246.242 855.757 Q250.131 850.873 256.682 850.873 Q258.441 850.873 260.223 851.22 Q262.029 851.567 263.973 852.262 Z" fill="#000000" fill-rule="nonzero" fill-opacity="1" /><path clip-path="url(#clip120)" d="M284.274 854.577 Q280.663 854.577 278.834 858.141 Q277.029 861.683 277.029 868.813 Q277.029 875.919 278.834 879.484 Q280.663 883.025 284.274 883.025 Q287.908 883.025 289.714 879.484 Q291.543 875.919 291.543 868.813 Q291.543 861.683 289.714 858.141 Q287.908 854.577 284.274 854.577 M284.274 850.873 Q290.084 850.873 293.14 855.479 Q296.218 860.063 296.218 868.813 Q296.218 877.539 293.14 882.146 Q290.084 886.729 284.274 886.729 Q278.464 886.729 275.385 882.146 Q272.33 877.539 272.33 868.813 Q272.33 860.063 275.385 855.479 Q278.464 850.873 284.274 850.873 Z" fill="#000000" fill-rule="nonzero" fill-opacity="1" /><path clip-path="url(#clip120)" d="M314.436 854.577 Q310.825 854.577 308.996 858.141 Q307.191 861.683 307.191 868.813 Q307.191 875.919 308.996 879.484 Q310.825 883.025 314.436 883.025 Q318.07 883.025 319.876 879.484 Q321.704 875.919 321.704 868.813 Q321.704 861.683 319.876 858.141 Q318.07 854.577 314.436 854.577 M314.436 850.873 Q320.246 850.873 323.302 855.479 Q326.38 860.063 326.38 868.813 Q326.38 877.539 323.302 882.146 Q320.246 886.729 314.436 886.729 Q308.626 886.729 305.547 882.146 Q302.492 877.539 302.492 868.813 Q302.492 860.063 305.547 855.479 Q308.626 850.873 314.436 850.873 Z" fill="#000000" fill-rule="nonzero" fill-opacity="1" /><path clip-path="url(#clip120)" d="M144.02 634.505 L173.696 634.505 L173.696 638.44 L144.02 638.44 L144.02 634.505 Z" fill="#000000" fill-rule="nonzero" fill-opacity="1" /><path clip-path="url(#clip120)" d="M184.599 647.399 L192.237 647.399 L192.237 621.033 L183.927 622.7 L183.927 618.441 L192.191 616.774 L196.867 616.774 L196.867 647.399 L204.506 647.399 L204.506 651.334 L184.599 651.334 L184.599 647.399 Z" fill="#000000" fill-rule="nonzero" fill-opacity="1" /><path clip-path="url(#clip120)" d="M223.95 619.853 Q220.339 619.853 218.51 623.417 Q216.705 626.959 216.705 634.089 Q216.705 641.195 218.51 644.76 Q220.339 648.302 223.95 648.302 Q227.585 648.302 229.39 644.76 Q231.219 641.195 231.219 634.089 Q231.219 626.959 229.39 623.417 Q227.585 619.853 223.95 619.853 M223.95 616.149 Q229.76 616.149 232.816 620.755 Q235.895 625.339 235.895 634.089 Q235.895 642.815 232.816 647.422 Q229.76 652.005 223.95 652.005 Q218.14 652.005 215.061 647.422 Q212.006 642.815 212.006 634.089 Q212.006 625.339 215.061 620.755 Q218.14 616.149 223.95 616.149 Z" fill="#000000" fill-rule="nonzero" fill-opacity="1" /><path clip-path="url(#clip120)" d="M244.159 616.774 L262.515 616.774 L262.515 620.709 L248.441 620.709 L248.441 629.181 Q249.459 628.834 250.478 628.672 Q251.496 628.487 252.515 628.487 Q258.302 628.487 261.682 631.658 Q265.061 634.829 265.061 640.246 Q265.061 645.825 261.589 648.927 Q258.117 652.005 251.797 652.005 Q249.621 652.005 247.353 651.635 Q245.108 651.264 242.7 650.524 L242.7 645.825 Q244.784 646.959 247.006 647.515 Q249.228 648.07 251.705 648.07 Q255.709 648.07 258.047 645.964 Q260.385 643.857 260.385 640.246 Q260.385 636.635 258.047 634.528 Q255.709 632.422 251.705 632.422 Q249.83 632.422 247.955 632.839 Q246.103 633.255 244.159 634.135 L244.159 616.774 Z" fill="#000000" fill-rule="nonzero" fill-opacity="1" /><path clip-path="url(#clip120)" d="M284.274 619.853 Q280.663 619.853 278.834 623.417 Q277.029 626.959 277.029 634.089 Q277.029 641.195 278.834 644.76 Q280.663 648.302 284.274 648.302 Q287.908 648.302 289.714 644.76 Q291.543 641.195 291.543 634.089 Q291.543 626.959 289.714 623.417 Q287.908 619.853 284.274 619.853 M284.274 616.149 Q290.084 616.149 293.14 620.755 Q296.218 625.339 296.218 634.089 Q296.218 642.815 293.14 647.422 Q290.084 652.005 284.274 652.005 Q278.464 652.005 275.385 647.422 Q272.33 642.815 272.33 634.089 Q272.33 625.339 275.385 620.755 Q278.464 616.149 284.274 616.149 Z" fill="#000000" fill-rule="nonzero" fill-opacity="1" /><path clip-path="url(#clip120)" d="M314.436 619.853 Q310.825 619.853 308.996 623.417 Q307.191 626.959 307.191 634.089 Q307.191 641.195 308.996 644.76 Q310.825 648.302 314.436 648.302 Q318.07 648.302 319.876 644.76 Q321.704 641.195 321.704 634.089 Q321.704 626.959 319.876 623.417 Q318.07 619.853 314.436 619.853 M314.436 616.149 Q320.246 616.149 323.302 620.755 Q326.38 625.339 326.38 634.089 Q326.38 642.815 323.302 647.422 Q320.246 652.005 314.436 652.005 Q308.626 652.005 305.547 647.422 Q302.492 642.815 302.492 634.089 Q302.492 625.339 305.547 620.755 Q308.626 616.149 314.436 616.149 Z" fill="#000000" fill-rule="nonzero" fill-opacity="1" /><path clip-path="url(#clip120)" d="M144.02 399.781 L173.696 399.781 L173.696 403.717 L144.02 403.717 L144.02 399.781 Z" fill="#000000" fill-rule="nonzero" fill-opacity="1" /><path clip-path="url(#clip120)" d="M184.599 412.675 L192.237 412.675 L192.237 386.309 L183.927 387.976 L183.927 383.717 L192.191 382.05 L196.867 382.05 L196.867 412.675 L204.506 412.675 L204.506 416.61 L184.599 416.61 L184.599 412.675 Z" fill="#000000" fill-rule="nonzero" fill-opacity="1" /><path clip-path="url(#clip120)" d="M223.95 385.129 Q220.339 385.129 218.51 388.693 Q216.705 392.235 216.705 399.365 Q216.705 406.471 218.51 410.036 Q220.339 413.578 223.95 413.578 Q227.585 413.578 229.39 410.036 Q231.219 406.471 231.219 399.365 Q231.219 392.235 229.39 388.693 Q227.585 385.129 223.95 385.129 M223.95 381.425 Q229.76 381.425 232.816 386.031 Q235.895 390.615 235.895 399.365 Q235.895 408.092 232.816 412.698 Q229.76 417.281 223.95 417.281 Q218.14 417.281 215.061 412.698 Q212.006 408.092 212.006 399.365 Q212.006 390.615 215.061 386.031 Q218.14 381.425 223.95 381.425 Z" fill="#000000" fill-rule="nonzero" fill-opacity="1" /><path clip-path="url(#clip120)" d="M256.959 386.124 L245.154 404.573 L256.959 404.573 L256.959 386.124 M255.733 382.05 L261.612 382.05 L261.612 404.573 L266.543 404.573 L266.543 408.462 L261.612 408.462 L261.612 416.61 L256.959 416.61 L256.959 408.462 L241.358 408.462 L241.358 403.948 L255.733 382.05 Z" fill="#000000" fill-rule="nonzero" fill-opacity="1" /><path clip-path="url(#clip120)" d="M284.274 385.129 Q280.663 385.129 278.834 388.693 Q277.029 392.235 277.029 399.365 Q277.029 406.471 278.834 410.036 Q280.663 413.578 284.274 413.578 Q287.908 413.578 289.714 410.036 Q291.543 406.471 291.543 399.365 Q291.543 392.235 289.714 388.693 Q287.908 385.129 284.274 385.129 M284.274 381.425 Q290.084 381.425 293.14 386.031 Q296.218 390.615 296.218 399.365 Q296.218 408.092 293.14 412.698 Q290.084 417.281 284.274 417.281 Q278.464 417.281 275.385 412.698 Q272.33 408.092 272.33 399.365 Q272.33 390.615 275.385 386.031 Q278.464 381.425 284.274 381.425 Z" fill="#000000" fill-rule="nonzero" fill-opacity="1" /><path clip-path="url(#clip120)" d="M314.436 385.129 Q310.825 385.129 308.996 388.693 Q307.191 392.235 307.191 399.365 Q307.191 406.471 308.996 410.036 Q310.825 413.578 314.436 413.578 Q318.07 413.578 319.876 410.036 Q321.704 406.471 321.704 399.365 Q321.704 392.235 319.876 388.693 Q318.07 385.129 314.436 385.129 M314.436 381.425 Q320.246 381.425 323.302 386.031 Q326.38 390.615 326.38 399.365 Q326.38 408.092 323.302 412.698 Q320.246 417.281 314.436 417.281 Q308.626 417.281 305.547 412.698 Q302.492 408.092 302.492 399.365 Q302.492 390.615 305.547 386.031 Q308.626 381.425 314.436 381.425 Z" fill="#000000" fill-rule="nonzero" fill-opacity="1" /><path clip-path="url(#clip120)" d="M144.02 165.057 L173.696 165.057 L173.696 168.993 L144.02 168.993 L144.02 165.057 Z" fill="#000000" fill-rule="nonzero" fill-opacity="1" /><path clip-path="url(#clip120)" d="M184.599 177.951 L192.237 177.951 L192.237 151.585 L183.927 153.252 L183.927 148.993 L192.191 147.326 L196.867 147.326 L196.867 177.951 L204.506 177.951 L204.506 181.886 L184.599 181.886 L184.599 177.951 Z" fill="#000000" fill-rule="nonzero" fill-opacity="1" /><path clip-path="url(#clip120)" d="M223.95 150.405 Q220.339 150.405 218.51 153.97 Q216.705 157.511 216.705 164.641 Q216.705 171.747 218.51 175.312 Q220.339 178.854 223.95 178.854 Q227.585 178.854 229.39 175.312 Q231.219 171.747 231.219 164.641 Q231.219 157.511 229.39 153.97 Q227.585 150.405 223.95 150.405 M223.95 146.701 Q229.76 146.701 232.816 151.308 Q235.895 155.891 235.895 164.641 Q235.895 173.368 232.816 177.974 Q229.76 182.557 223.95 182.557 Q218.14 182.557 215.061 177.974 Q212.006 173.368 212.006 164.641 Q212.006 155.891 215.061 151.308 Q218.14 146.701 223.95 146.701 Z" fill="#000000" fill-rule="nonzero" fill-opacity="1" /><path clip-path="url(#clip120)" d="M258.279 163.252 Q261.635 163.969 263.51 166.238 Q265.408 168.507 265.408 171.84 Q265.408 176.956 261.89 179.756 Q258.371 182.557 251.89 182.557 Q249.714 182.557 247.399 182.118 Q245.108 181.701 242.654 180.844 L242.654 176.331 Q244.598 177.465 246.913 178.043 Q249.228 178.622 251.751 178.622 Q256.149 178.622 258.441 176.886 Q260.756 175.15 260.756 171.84 Q260.756 168.784 258.603 167.071 Q256.473 165.335 252.654 165.335 L248.626 165.335 L248.626 161.493 L252.839 161.493 Q256.288 161.493 258.117 160.127 Q259.945 158.738 259.945 156.145 Q259.945 153.483 258.047 152.071 Q256.172 150.636 252.654 150.636 Q250.733 150.636 248.533 151.053 Q246.334 151.47 243.696 152.349 L243.696 148.183 Q246.358 147.442 248.672 147.071 Q251.01 146.701 253.07 146.701 Q258.395 146.701 261.496 149.132 Q264.598 151.539 264.598 155.659 Q264.598 158.53 262.955 160.52 Q261.311 162.488 258.279 163.252 Z" fill="#000000" fill-rule="nonzero" fill-opacity="1" /><path clip-path="url(#clip120)" d="M284.274 150.405 Q280.663 150.405 278.834 153.97 Q277.029 157.511 277.029 164.641 Q277.029 171.747 278.834 175.312 Q280.663 178.854 284.274 178.854 Q287.908 178.854 289.714 175.312 Q291.543 171.747 291.543 164.641 Q291.543 157.511 289.714 153.97 Q287.908 150.405 284.274 150.405 M284.274 146.701 Q290.084 146.701 293.14 151.308 Q296.218 155.891 296.218 164.641 Q296.218 173.368 293.14 177.974 Q290.084 182.557 284.274 182.557 Q278.464 182.557 275.385 177.974 Q272.33 173.368 272.33 164.641 Q272.33 155.891 275.385 151.308 Q278.464 146.701 284.274 146.701 Z" fill="#000000" fill-rule="nonzero" fill-opacity="1" /><path clip-path="url(#clip120)" d="M314.436 150.405 Q310.825 150.405 308.996 153.97 Q307.191 157.511 307.191 164.641 Q307.191 171.747 308.996 175.312 Q310.825 178.854 314.436 178.854 Q318.07 178.854 319.876 175.312 Q321.704 171.747 321.704 164.641 Q321.704 157.511 319.876 153.97 Q318.07 150.405 314.436 150.405 M314.436 146.701 Q320.246 146.701 323.302 151.308 Q326.38 155.891 326.38 164.641 Q326.38 173.368 323.302 177.974 Q320.246 182.557 314.436 182.557 Q308.626 182.557 305.547 177.974 Q302.492 173.368 302.492 164.641 Q302.492 155.891 305.547 151.308 Q308.626 146.701 314.436 146.701 Z" fill="#000000" fill-rule="nonzero" fill-opacity="1" /><path clip-path="url(#clip120)" d="M92.4761 670.758 L95.3406 670.758 L95.3406 697.685 Q101.388 697.303 104.571 694.056 Q107.722 690.778 107.722 684.954 Q107.722 681.58 106.894 678.429 Q106.067 675.246 104.412 672.127 L109.95 672.127 Q111.287 675.278 111.987 678.588 Q112.687 681.898 112.687 685.304 Q112.687 693.834 107.722 698.831 Q102.757 703.796 94.2903 703.796 Q85.5374 703.796 80.4131 699.085 Q75.2568 694.343 75.2568 686.322 Q75.2568 679.129 79.9038 674.959 Q84.5189 670.758 92.4761 670.758 M90.7573 676.614 Q85.9512 676.678 83.0866 679.32 Q80.2221 681.93 80.2221 686.258 Q80.2221 691.16 82.9912 694.12 Q85.7602 697.048 90.7892 697.494 L90.7573 676.614 Z" fill="#000000" fill-rule="nonzero" fill-opacity="1" /><path clip-path="url(#clip120)" d="M90.2481 631.513 L111.764 631.513 L111.764 637.37 L90.439 637.37 Q85.3783 637.37 82.8638 639.343 Q80.3494 641.317 80.3494 645.263 Q80.3494 650.006 83.3731 652.743 Q86.3968 655.48 91.6167 655.48 L111.764 655.48 L111.764 661.369 L76.1162 661.369 L76.1162 655.48 L81.6544 655.48 Q78.4397 653.38 76.8483 650.547 Q75.2568 647.682 75.2568 643.958 Q75.2568 637.815 79.0763 634.664 Q82.8638 631.513 90.2481 631.513 Z" fill="#000000" fill-rule="nonzero" fill-opacity="1" /><path clip-path="url(#clip120)" d="M92.4761 589.341 L95.3406 589.341 L95.3406 616.268 Q101.388 615.886 104.571 612.639 Q107.722 609.361 107.722 603.536 Q107.722 600.162 106.894 597.011 Q106.067 593.828 104.412 590.709 L109.95 590.709 Q111.287 593.86 111.987 597.17 Q112.687 600.481 112.687 603.886 Q112.687 612.416 107.722 617.413 Q102.757 622.379 94.2903 622.379 Q85.5374 622.379 80.4131 617.668 Q75.2568 612.926 75.2568 604.905 Q75.2568 597.711 79.9038 593.542 Q84.5189 589.341 92.4761 589.341 M90.7573 595.197 Q85.9512 595.261 83.0866 597.902 Q80.2221 600.512 80.2221 604.841 Q80.2221 609.743 82.9912 612.703 Q85.7602 615.631 90.7892 616.077 L90.7573 595.197 Z" fill="#000000" fill-rule="nonzero" fill-opacity="1" /><path clip-path="url(#clip120)" d="M81.5907 559.072 Q81.0178 560.058 80.7632 561.236 Q80.4767 562.382 80.4767 563.782 Q80.4767 568.748 83.7232 571.421 Q86.9379 574.063 92.9853 574.063 L111.764 574.063 L111.764 579.951 L76.1162 579.951 L76.1162 574.063 L81.6544 574.063 Q78.4079 572.217 76.8483 569.257 Q75.2568 566.297 75.2568 562.064 Q75.2568 561.459 75.3523 560.727 Q75.416 559.995 75.5751 559.103 L81.5907 559.072 Z" fill="#000000" fill-rule="nonzero" fill-opacity="1" /><path clip-path="url(#clip120)" d="M93.5264 530.617 Q87.1607 530.617 83.6596 533.259 Q80.1584 535.869 80.1584 540.611 Q80.1584 545.322 83.6596 547.964 Q87.1607 550.573 93.5264 550.573 Q99.8603 550.573 103.361 547.964 Q106.863 545.322 106.863 540.611 Q106.863 535.869 103.361 533.259 Q99.8603 530.617 93.5264 530.617 M107.34 524.761 Q116.443 524.761 120.867 528.803 Q125.323 532.845 125.323 541.184 Q125.323 544.271 124.846 547.009 Q124.4 549.746 123.445 552.324 L117.748 552.324 Q119.148 549.746 119.817 547.231 Q120.485 544.717 120.485 542.107 Q120.485 536.346 117.461 533.482 Q114.47 530.617 108.39 530.617 L105.494 530.617 Q108.645 532.431 110.205 535.264 Q111.764 538.097 111.764 542.043 Q111.764 548.6 106.767 552.61 Q101.77 556.621 93.5264 556.621 Q85.251 556.621 80.2539 552.61 Q75.2568 548.6 75.2568 542.043 Q75.2568 538.097 76.8164 535.264 Q78.376 532.431 81.5271 530.617 L76.1162 530.617 L76.1162 524.761 L107.34 524.761 Z" fill="#000000" fill-rule="nonzero" fill-opacity="1" /><path clip-path="url(#clip120)" d="M115.074 497.865 Q121.44 500.348 123.382 502.703 Q125.323 505.059 125.323 509.005 L125.323 513.684 L120.422 513.684 L120.422 510.247 Q120.422 507.828 119.276 506.491 Q118.13 505.154 113.865 503.531 L111.191 502.481 L76.1162 516.899 L76.1162 510.692 L103.998 499.552 L76.1162 488.412 L76.1162 482.206 L115.074 497.865 Z" fill="#000000" fill-rule="nonzero" fill-opacity="1" /><path clip-path="url(#clip120)" d="M62.239 453.942 L62.239 440.447 L66.7904 440.447 L66.7904 448.086 L115.806 448.086 L115.806 440.447 L120.358 440.447 L120.358 453.942 L62.239 453.942 Z" fill="#000000" fill-rule="nonzero" fill-opacity="1" /><path clip-path="url(#clip120)" d="M92.4761 397.478 L95.3406 397.478 L95.3406 424.405 Q101.388 424.023 104.571 420.777 Q107.722 417.498 107.722 411.674 Q107.722 408.3 106.894 405.149 Q106.067 401.966 104.412 398.847 L109.95 398.847 Q111.287 401.998 111.987 405.308 Q112.687 408.618 112.687 412.024 Q112.687 420.554 107.722 425.551 Q102.757 430.516 94.2903 430.516 Q85.5374 430.516 80.4131 425.806 Q75.2568 421.063 75.2568 413.042 Q75.2568 405.849 79.9038 401.68 Q84.5189 397.478 92.4761 397.478 M90.7573 403.335 Q85.9512 403.398 83.0866 406.04 Q80.2221 408.65 80.2221 412.979 Q80.2221 417.88 82.9912 420.84 Q85.7602 423.769 90.7892 424.214 L90.7573 403.335 Z" fill="#000000" fill-rule="nonzero" fill-opacity="1" /><path clip-path="url(#clip120)" d="M111.764 375.357 L64.2442 393.5 L64.2442 386.784 L104.253 371.729 L64.2442 356.642 L64.2442 349.958 L111.764 368.069 L111.764 375.357 Z" fill="#000000" fill-rule="nonzero" fill-opacity="1" /><path clip-path="url(#clip120)" d="M62.239 329.588 L120.358 329.588 L120.358 343.083 L115.806 343.083 L115.806 335.476 L66.7904 335.476 L66.7904 343.083 L62.239 343.083 L62.239 329.588 Z" fill="#000000" fill-rule="nonzero" fill-opacity="1" /><circle clip-path="url(#clip122)" cx="496.276" cy="632.511" r="14.4" fill="#009af9" fill-rule="evenodd" fill-opacity="1" stroke="#000000" stroke-opacity="1" stroke-width="2.4"/>
<circle clip-path="url(#clip122)" cx="496.276" cy="567.493" r="14.4" fill="#009af9" fill-rule="evenodd" fill-opacity="1" stroke="#000000" stroke-opacity="1" stroke-width="2.4"/>
<circle clip-path="url(#clip122)" cx="496.276" cy="285.028" r="14.4" fill="#009af9" fill-rule="evenodd" fill-opacity="1" stroke="#000000" stroke-opacity="1" stroke-width="2.4"/>
<circle clip-path="url(#clip122)" cx="496.276" cy="765.143" r="14.4" fill="#009af9" fill-rule="evenodd" fill-opacity="1" stroke="#000000" stroke-opacity="1" stroke-width="2.4"/>
<circle clip-path="url(#clip122)" cx="496.276" cy="578.275" r="14.4" fill="#009af9" fill-rule="evenodd" fill-opacity="1" stroke="#000000" stroke-opacity="1" stroke-width="2.4"/>
<circle clip-path="url(#clip122)" cx="496.276" cy="831.932" r="14.4" fill="#009af9" fill-rule="evenodd" fill-opacity="1" stroke="#000000" stroke-opacity="1" stroke-width="2.4"/>
<circle clip-path="url(#clip122)" cx="496.276" cy="687.536" r="14.4" fill="#009af9" fill-rule="evenodd" fill-opacity="1" stroke="#000000" stroke-opacity="1" stroke-width="2.4"/>
<circle clip-path="url(#clip122)" cx="496.276" cy="876.661" r="14.4" fill="#009af9" fill-rule="evenodd" fill-opacity="1" stroke="#000000" stroke-opacity="1" stroke-width="2.4"/>
<circle clip-path="url(#clip122)" cx="496.276" cy="485.635" r="14.4" fill="#009af9" fill-rule="evenodd" fill-opacity="1" stroke="#000000" stroke-opacity="1" stroke-width="2.4"/>
<circle clip-path="url(#clip122)" cx="496.276" cy="756.436" r="14.4" fill="#009af9" fill-rule="evenodd" fill-opacity="1" stroke="#000000" stroke-opacity="1" stroke-width="2.4"/>
<polyline clip-path="url(#clip122)" style="stroke:#000000; stroke-linecap:round; stroke-linejoin:round; stroke-width:4; stroke-opacity:1; fill:none" points="496.276,747.397 496.276,392.848 "/>
<line clip-path="url(#clip122)" x1="520.276" y1="747.397" x2="472.276" y2="747.397" style="stroke:#000000; stroke-width:4; stroke-opacity:1"/>
<line clip-path="url(#clip122)" x1="520.276" y1="392.848" x2="472.276" y2="392.848" style="stroke:#000000; stroke-width:4; stroke-opacity:1"/>
<circle clip-path="url(#clip122)" cx="496.276" cy="570.123" r="21.6" fill="#e26f46" fill-rule="evenodd" fill-opacity="1" stroke="#000000" stroke-opacity="1" stroke-width="2.4"/>
<circle clip-path="url(#clip122)" cx="760.112" cy="636.998" r="14.4" fill="#009af9" fill-rule="evenodd" fill-opacity="1" stroke="#000000" stroke-opacity="1" stroke-width="2.4"/>
<circle clip-path="url(#clip122)" cx="760.112" cy="565.543" r="14.4" fill="#009af9" fill-rule="evenodd" fill-opacity="1" stroke="#000000" stroke-opacity="1" stroke-width="2.4"/>
<circle clip-path="url(#clip122)" cx="760.112" cy="291.449" r="14.4" fill="#009af9" fill-rule="evenodd" fill-opacity="1" stroke="#000000" stroke-opacity="1" stroke-width="2.4"/>
<circle clip-path="url(#clip122)" cx="760.112" cy="763.237" r="14.4" fill="#009af9" fill-rule="evenodd" fill-opacity="1" stroke="#000000" stroke-opacity="1" stroke-width="2.4"/>
<circle clip-path="url(#clip122)" cx="760.112" cy="584.935" r="14.4" fill="#009af9" fill-rule="evenodd" fill-opacity="1" stroke="#000000" stroke-opacity="1" stroke-width="2.4"/>
<circle clip-path="url(#clip122)" cx="760.112" cy="832.398" r="14.4" fill="#009af9" fill-rule="evenodd" fill-opacity="1" stroke="#000000" stroke-opacity="1" stroke-width="2.4"/>
<circle clip-path="url(#clip122)" cx="760.112" cy="687.14" r="14.4" fill="#009af9" fill-rule="evenodd" fill-opacity="1" stroke="#000000" stroke-opacity="1" stroke-width="2.4"/>
<circle clip-path="url(#clip122)" cx="760.112" cy="899.518" r="14.4" fill="#009af9" fill-rule="evenodd" fill-opacity="1" stroke="#000000" stroke-opacity="1" stroke-width="2.4"/>
<circle clip-path="url(#clip122)" cx="760.112" cy="504.17" r="14.4" fill="#009af9" fill-rule="evenodd" fill-opacity="1" stroke="#000000" stroke-opacity="1" stroke-width="2.4"/>
<circle clip-path="url(#clip122)" cx="760.112" cy="756.841" r="14.4" fill="#009af9" fill-rule="evenodd" fill-opacity="1" stroke="#000000" stroke-opacity="1" stroke-width="2.4"/>
<polyline clip-path="url(#clip122)" style="stroke:#000000; stroke-linecap:round; stroke-linejoin:round; stroke-width:4; stroke-opacity:1; fill:none" points="760.112,752.423 760.112,398.112 "/>
<line clip-path="url(#clip122)" x1="784.112" y1="752.423" x2="736.112" y2="752.423" style="stroke:#000000; stroke-width:4; stroke-opacity:1"/>
<line clip-path="url(#clip122)" x1="784.112" y1="398.112" x2="736.112" y2="398.112" style="stroke:#000000; stroke-width:4; stroke-opacity:1"/>
<circle clip-path="url(#clip122)" cx="760.112" cy="575.267" r="21.6" fill="#e26f46" fill-rule="evenodd" fill-opacity="1" stroke="#000000" stroke-opacity="1" stroke-width="2.4"/>
<circle clip-path="url(#clip122)" cx="1000.86" cy="677.396" r="14.4" fill="#009af9" fill-rule="evenodd" fill-opacity="1" stroke="#000000" stroke-opacity="1" stroke-width="2.4"/>
<circle clip-path="url(#clip122)" cx="1000.86" cy="548.116" r="14.4" fill="#009af9" fill-rule="evenodd" fill-opacity="1" stroke="#000000" stroke-opacity="1" stroke-width="2.4"/>
<circle clip-path="url(#clip122)" cx="1000.86" cy="338.195" r="14.4" fill="#009af9" fill-rule="evenodd" fill-opacity="1" stroke="#000000" stroke-opacity="1" stroke-width="2.4"/>
<circle clip-path="url(#clip122)" cx="1000.86" cy="727.35" r="14.4" fill="#009af9" fill-rule="evenodd" fill-opacity="1" stroke="#000000" stroke-opacity="1" stroke-width="2.4"/>
<circle clip-path="url(#clip122)" cx="1000.86" cy="626.651" r="14.4" fill="#009af9" fill-rule="evenodd" fill-opacity="1" stroke="#000000" stroke-opacity="1" stroke-width="2.4"/>
<circle clip-path="url(#clip122)" cx="1000.86" cy="860.065" r="14.4" fill="#009af9" fill-rule="evenodd" fill-opacity="1" stroke="#000000" stroke-opacity="1" stroke-width="2.4"/>
<circle clip-path="url(#clip122)" cx="1000.86" cy="698.14" r="14.4" fill="#009af9" fill-rule="evenodd" fill-opacity="1" stroke="#000000" stroke-opacity="1" stroke-width="2.4"/>
<circle clip-path="url(#clip122)" cx="1000.86" cy="690.607" r="14.4" fill="#009af9" fill-rule="evenodd" fill-opacity="1" stroke="#000000" stroke-opacity="1" stroke-width="2.4"/>
<circle clip-path="url(#clip122)" cx="1000.86" cy="737.958" r="14.4" fill="#009af9" fill-rule="evenodd" fill-opacity="1" stroke="#000000" stroke-opacity="1" stroke-width="2.4"/>
<polyline clip-path="url(#clip122)" style="stroke:#000000; stroke-linecap:round; stroke-linejoin:round; stroke-width:4; stroke-opacity:1; fill:none" points="1000.86,819.327 1000.86,421.969 "/>
<line clip-path="url(#clip122)" x1="1024.86" y1="819.327" x2="976.861" y2="819.327" style="stroke:#000000; stroke-width:4; stroke-opacity:1"/>
<line clip-path="url(#clip122)" x1="1024.86" y1="421.969" x2="976.861" y2="421.969" style="stroke:#000000; stroke-width:4; stroke-opacity:1"/>
<circle clip-path="url(#clip122)" cx="1000.86" cy="620.648" r="21.6" fill="#e26f46" fill-rule="evenodd" fill-opacity="1" stroke="#000000" stroke-opacity="1" stroke-width="2.4"/>
<path clip-path="url(#clip120)" d="M794.002 234.061 L1125.81 234.061 L1125.81 78.5406 L794.002 78.5406  Z" fill="#ffffff" fill-rule="evenodd" fill-opacity="1"/>
<polyline clip-path="url(#clip120)" style="stroke:#000000; stroke-linecap:round; stroke-linejoin:round; stroke-width:4; stroke-opacity:1; fill:none" points="794.002,234.061 1125.81,234.061 1125.81,78.5406 794.002,78.5406 794.002,234.061 "/>
<circle clip-path="url(#clip120)" cx="829.929" cy="130.381" r="20.48" fill="#009af9" fill-rule="evenodd" fill-opacity="1" stroke="#000000" stroke-opacity="1" stroke-width="3.41333"/>
<path clip-path="url(#clip120)" d="M886.366 122.73 L886.366 126.712 Q884.561 125.716 882.732 125.23 Q880.927 124.721 879.075 124.721 Q874.931 124.721 872.64 127.36 Q870.348 129.976 870.348 134.721 Q870.348 139.466 872.64 142.105 Q874.931 144.721 879.075 144.721 Q880.927 144.721 882.732 144.235 Q884.561 143.725 886.366 142.73 L886.366 146.665 Q884.584 147.499 882.663 147.915 Q880.765 148.332 878.612 148.332 Q872.755 148.332 869.306 144.651 Q865.857 140.971 865.857 134.721 Q865.857 128.378 869.329 124.744 Q872.825 121.11 878.89 121.11 Q880.857 121.11 882.732 121.527 Q884.607 121.92 886.366 122.73 Z" fill="#000000" fill-rule="nonzero" fill-opacity="1" /><path clip-path="url(#clip120)" d="M903.82 124.721 Q900.394 124.721 898.403 127.406 Q896.413 130.068 896.413 134.721 Q896.413 139.374 898.38 142.059 Q900.371 144.721 903.82 144.721 Q907.223 144.721 909.213 142.036 Q911.204 139.35 911.204 134.721 Q911.204 130.114 909.213 127.429 Q907.223 124.721 903.82 124.721 M903.82 121.11 Q909.376 121.11 912.547 124.721 Q915.718 128.332 915.718 134.721 Q915.718 141.087 912.547 144.721 Q909.376 148.332 903.82 148.332 Q898.241 148.332 895.07 144.721 Q891.922 141.087 891.922 134.721 Q891.922 128.332 895.07 124.721 Q898.241 121.11 903.82 121.11 Z" fill="#000000" fill-rule="nonzero" fill-opacity="1" /><path clip-path="url(#clip120)" d="M942.963 126.712 Q944.561 123.841 946.783 122.476 Q949.005 121.11 952.014 121.11 Q956.065 121.11 958.264 123.957 Q960.463 126.781 960.463 132.013 L960.463 147.661 L956.181 147.661 L956.181 132.151 Q956.181 128.425 954.861 126.619 Q953.542 124.814 950.834 124.814 Q947.523 124.814 945.602 127.013 Q943.681 129.212 943.681 133.008 L943.681 147.661 L939.398 147.661 L939.398 132.151 Q939.398 128.401 938.079 126.619 Q936.76 124.814 934.005 124.814 Q930.741 124.814 928.82 127.036 Q926.899 129.235 926.899 133.008 L926.899 147.661 L922.616 147.661 L922.616 121.735 L926.899 121.735 L926.899 125.763 Q928.357 123.378 930.394 122.244 Q932.431 121.11 935.232 121.11 Q938.056 121.11 940.023 122.545 Q942.014 123.98 942.963 126.712 Z" fill="#000000" fill-rule="nonzero" fill-opacity="1" /><path clip-path="url(#clip120)" d="M989.144 126.712 Q990.741 123.841 992.963 122.476 Q995.185 121.11 998.194 121.11 Q1002.25 121.11 1004.44 123.957 Q1006.64 126.781 1006.64 132.013 L1006.64 147.661 L1002.36 147.661 L1002.36 132.151 Q1002.36 128.425 1001.04 126.619 Q999.722 124.814 997.014 124.814 Q993.704 124.814 991.782 127.013 Q989.861 129.212 989.861 133.008 L989.861 147.661 L985.579 147.661 L985.579 132.151 Q985.579 128.401 984.259 126.619 Q982.94 124.814 980.185 124.814 Q976.921 124.814 975 127.036 Q973.079 129.235 973.079 133.008 L973.079 147.661 L968.796 147.661 L968.796 121.735 L973.079 121.735 L973.079 125.763 Q974.537 123.378 976.574 122.244 Q978.611 121.11 981.412 121.11 Q984.236 121.11 986.204 122.545 Q988.195 123.98 989.144 126.712 Z" fill="#000000" fill-rule="nonzero" fill-opacity="1" /><path clip-path="url(#clip120)" d="M1015.14 121.735 L1019.4 121.735 L1019.4 147.661 L1015.14 147.661 L1015.14 121.735 M1015.14 111.642 L1019.4 111.642 L1019.4 117.036 L1015.14 117.036 L1015.14 111.642 Z" fill="#000000" fill-rule="nonzero" fill-opacity="1" /><path clip-path="url(#clip120)" d="M1032.52 114.374 L1032.52 121.735 L1041.3 121.735 L1041.3 125.045 L1032.52 125.045 L1032.52 139.119 Q1032.52 142.29 1033.38 143.193 Q1034.26 144.096 1036.92 144.096 L1041.3 144.096 L1041.3 147.661 L1036.92 147.661 Q1031.99 147.661 1030.12 145.832 Q1028.24 143.98 1028.24 139.119 L1028.24 125.045 L1025.12 125.045 L1025.12 121.735 L1028.24 121.735 L1028.24 114.374 L1032.52 114.374 Z" fill="#000000" fill-rule="nonzero" fill-opacity="1" /><path clip-path="url(#clip120)" d="M1051.11 114.374 L1051.11 121.735 L1059.88 121.735 L1059.88 125.045 L1051.11 125.045 L1051.11 139.119 Q1051.11 142.29 1051.97 143.193 Q1052.85 144.096 1055.51 144.096 L1059.88 144.096 L1059.88 147.661 L1055.51 147.661 Q1050.58 147.661 1048.7 145.832 Q1046.83 143.98 1046.83 139.119 L1046.83 125.045 L1043.7 125.045 L1043.7 121.735 L1046.83 121.735 L1046.83 114.374 L1051.11 114.374 Z" fill="#000000" fill-rule="nonzero" fill-opacity="1" /><path clip-path="url(#clip120)" d="M1087.66 133.633 L1087.66 135.716 L1068.08 135.716 Q1068.36 140.114 1070.72 142.429 Q1073.1 144.721 1077.34 144.721 Q1079.79 144.721 1082.08 144.119 Q1084.4 143.517 1086.67 142.313 L1086.67 146.341 Q1084.37 147.313 1081.97 147.823 Q1079.56 148.332 1077.08 148.332 Q1070.88 148.332 1067.25 144.721 Q1063.63 141.11 1063.63 134.952 Q1063.63 128.587 1067.06 124.86 Q1070.51 121.11 1076.34 121.11 Q1081.57 121.11 1084.61 124.489 Q1087.66 127.846 1087.66 133.633 M1083.4 132.383 Q1083.36 128.888 1081.43 126.804 Q1079.54 124.721 1076.39 124.721 Q1072.82 124.721 1070.67 126.735 Q1068.54 128.749 1068.22 132.406 L1083.4 132.383 Z" fill="#000000" fill-rule="nonzero" fill-opacity="1" /><path clip-path="url(#clip120)" d="M1116.83 133.633 L1116.83 135.716 L1097.24 135.716 Q1097.52 140.114 1099.88 142.429 Q1102.27 144.721 1106.5 144.721 Q1108.96 144.721 1111.25 144.119 Q1113.56 143.517 1115.83 142.313 L1115.83 146.341 Q1113.54 147.313 1111.13 147.823 Q1108.73 148.332 1106.25 148.332 Q1100.05 148.332 1096.41 144.721 Q1092.8 141.11 1092.8 134.952 Q1092.8 128.587 1096.23 124.86 Q1099.68 121.11 1105.51 121.11 Q1110.74 121.11 1113.77 124.489 Q1116.83 127.846 1116.83 133.633 M1112.57 132.383 Q1112.52 128.888 1110.6 126.804 Q1108.7 124.721 1105.56 124.721 Q1101.99 124.721 1099.84 126.735 Q1097.71 128.749 1097.38 132.406 L1112.57 132.383 Z" fill="#000000" fill-rule="nonzero" fill-opacity="1" /><circle clip-path="url(#clip120)" cx="829.929" cy="182.221" r="21.2677" fill="#e26f46" fill-rule="evenodd" fill-opacity="1" stroke="#000000" stroke-opacity="1" stroke-width="2.36308"/>
<path clip-path="url(#clip120)" d="M886.204 178.552 Q887.802 175.681 890.024 174.316 Q892.246 172.95 895.255 172.95 Q899.306 172.95 901.505 175.797 Q903.704 178.621 903.704 183.853 L903.704 199.501 L899.422 199.501 L899.422 183.991 Q899.422 180.265 898.102 178.459 Q896.783 176.654 894.075 176.654 Q890.764 176.654 888.843 178.853 Q886.922 181.052 886.922 184.848 L886.922 199.501 L882.64 199.501 L882.64 183.991 Q882.64 180.241 881.32 178.459 Q880.001 176.654 877.246 176.654 Q873.982 176.654 872.061 178.876 Q870.14 181.075 870.14 184.848 L870.14 199.501 L865.857 199.501 L865.857 173.575 L870.14 173.575 L870.14 177.603 Q871.598 175.218 873.635 174.084 Q875.672 172.95 878.473 172.95 Q881.297 172.95 883.265 174.385 Q885.255 175.82 886.204 178.552 Z" fill="#000000" fill-rule="nonzero" fill-opacity="1" /><path clip-path="url(#clip120)" d="M934.375 185.473 L934.375 187.556 L914.792 187.556 Q915.07 191.954 917.431 194.269 Q919.815 196.561 924.051 196.561 Q926.505 196.561 928.797 195.959 Q931.112 195.357 933.38 194.153 L933.38 198.181 Q931.088 199.153 928.681 199.663 Q926.274 200.172 923.797 200.172 Q917.593 200.172 913.959 196.561 Q910.348 192.95 910.348 186.792 Q910.348 180.427 913.774 176.7 Q917.223 172.95 923.056 172.95 Q928.287 172.95 931.32 176.329 Q934.375 179.686 934.375 185.473 M930.116 184.223 Q930.07 180.728 928.149 178.644 Q926.25 176.561 923.102 176.561 Q919.537 176.561 917.385 178.575 Q915.255 180.589 914.931 184.246 L930.116 184.223 Z" fill="#000000" fill-rule="nonzero" fill-opacity="1" /><path clip-path="url(#clip120)" d="M953.148 186.468 Q947.986 186.468 945.996 187.649 Q944.005 188.829 944.005 191.677 Q944.005 193.945 945.486 195.288 Q946.991 196.607 949.56 196.607 Q953.102 196.607 955.232 194.107 Q957.385 191.584 957.385 187.417 L957.385 186.468 L953.148 186.468 M961.644 184.709 L961.644 199.501 L957.385 199.501 L957.385 195.565 Q955.926 197.927 953.75 199.061 Q951.574 200.172 948.426 200.172 Q944.445 200.172 942.084 197.95 Q939.746 195.704 939.746 191.954 Q939.746 187.579 942.662 185.357 Q945.602 183.135 951.412 183.135 L957.385 183.135 L957.385 182.718 Q957.385 179.779 955.44 178.181 Q953.519 176.561 950.023 176.561 Q947.801 176.561 945.695 177.093 Q943.588 177.626 941.644 178.691 L941.644 174.755 Q943.982 173.853 946.181 173.413 Q948.38 172.95 950.463 172.95 Q956.088 172.95 958.866 175.866 Q961.644 178.783 961.644 184.709 Z" fill="#000000" fill-rule="nonzero" fill-opacity="1" /><path clip-path="url(#clip120)" d="M991.968 183.853 L991.968 199.501 L987.708 199.501 L987.708 183.991 Q987.708 180.311 986.273 178.482 Q984.838 176.654 981.968 176.654 Q978.519 176.654 976.528 178.853 Q974.537 181.052 974.537 184.848 L974.537 199.501 L970.255 199.501 L970.255 173.575 L974.537 173.575 L974.537 177.603 Q976.065 175.265 978.125 174.107 Q980.208 172.95 982.917 172.95 Q987.384 172.95 989.676 175.728 Q991.968 178.482 991.968 183.853 Z" fill="#000000" fill-rule="nonzero" fill-opacity="1" /></svg>
