<?xml version="1.0" encoding="utf-8"?>
<svg xmlns="http://www.w3.org/2000/svg" xmlns:xlink="http://www.w3.org/1999/xlink" width="600" height="400" viewBox="0 0 2400 1600">
<defs>
  <clipPath id="clip620">
    <rect x="0" y="0" width="2400" height="1600"/>
  </clipPath>
</defs>
<path clip-path="url(#clip620)" d="M0 1600 L2400 1600 L2400 0 L0 0  Z" fill="#ffffff" fill-rule="evenodd" fill-opacity="1"/>
<defs>
  <clipPath id="clip621">
    <rect x="480" y="0" width="1681" height="1600"/>
  </clipPath>
</defs>
<path clip-path="url(#clip620)" d="M210.746 1423.18 L2352.76 1423.18 L2352.76 47.2441 L210.746 47.2441  Z" fill="#ffffff" fill-rule="evenodd" fill-opacity="1"/>
<defs>
  <clipPath id="clip622">
    <rect x="210" y="47" width="2143" height="1377"/>
  </clipPath>
</defs>
<polyline clip-path="url(#clip622)" style="stroke:#000000; stroke-linecap:round; stroke-linejoin:round; stroke-width:2; stroke-opacity:0.1; fill:none" points="210.746,1423.18 210.746,47.2441 "/>
<polyline clip-path="url(#clip622)" style="stroke:#000000; stroke-linecap:round; stroke-linejoin:round; stroke-width:2; stroke-opacity:0.1; fill:none" points="567.748,1423.18 567.748,47.2441 "/>
<polyline clip-path="url(#clip622)" style="stroke:#000000; stroke-linecap:round; stroke-linejoin:round; stroke-width:2; stroke-opacity:0.1; fill:none" points="924.749,1423.18 924.749,47.2441 "/>
<polyline clip-path="url(#clip622)" style="stroke:#000000; stroke-linecap:round; stroke-linejoin:round; stroke-width:2; stroke-opacity:0.1; fill:none" points="1281.75,1423.18 1281.75,47.2441 "/>
<polyline clip-path="url(#clip622)" style="stroke:#000000; stroke-linecap:round; stroke-linejoin:round; stroke-width:2; stroke-opacity:0.1; fill:none" points="1638.75,1423.18 1638.75,47.2441 "/>
<polyline clip-path="url(#clip622)" style="stroke:#000000; stroke-linecap:round; stroke-linejoin:round; stroke-width:2; stroke-opacity:0.1; fill:none" points="1995.75,1423.18 1995.75,47.2441 "/>
<polyline clip-path="url(#clip622)" style="stroke:#000000; stroke-linecap:round; stroke-linejoin:round; stroke-width:2; stroke-opacity:0.1; fill:none" points="2352.76,1423.18 2352.76,47.2441 "/>
<polyline clip-path="url(#clip622)" style="stroke:#000000; stroke-linecap:round; stroke-linejoin:round; stroke-width:2; stroke-opacity:0.1; fill:none" points="210.746,1423.18 2352.76,1423.18 "/>
<polyline clip-path="url(#clip622)" style="stroke:#000000; stroke-linecap:round; stroke-linejoin:round; stroke-width:2; stroke-opacity:0.1; fill:none" points="210.746,1226.62 2352.76,1226.62 "/>
<polyline clip-path="url(#clip622)" style="stroke:#000000; stroke-linecap:round; stroke-linejoin:round; stroke-width:2; stroke-opacity:0.1; fill:none" points="210.746,1030.06 2352.76,1030.06 "/>
<polyline clip-path="url(#clip622)" style="stroke:#000000; stroke-linecap:round; stroke-linejoin:round; stroke-width:2; stroke-opacity:0.1; fill:none" points="210.746,833.493 2352.76,833.493 "/>
<polyline clip-path="url(#clip622)" style="stroke:#000000; stroke-linecap:round; stroke-linejoin:round; stroke-width:2; stroke-opacity:0.1; fill:none" points="210.746,636.931 2352.76,636.931 "/>
<polyline clip-path="url(#clip622)" style="stroke:#000000; stroke-linecap:round; stroke-linejoin:round; stroke-width:2; stroke-opacity:0.1; fill:none" points="210.746,440.369 2352.76,440.369 "/>
<polyline clip-path="url(#clip622)" style="stroke:#000000; stroke-linecap:round; stroke-linejoin:round; stroke-width:2; stroke-opacity:0.1; fill:none" points="210.746,243.806 2352.76,243.806 "/>
<polyline clip-path="url(#clip622)" style="stroke:#000000; stroke-linecap:round; stroke-linejoin:round; stroke-width:2; stroke-opacity:0.1; fill:none" points="210.746,47.2441 2352.76,47.2441 "/>
<polyline clip-path="url(#clip620)" style="stroke:#000000; stroke-linecap:round; stroke-linejoin:round; stroke-width:4; stroke-opacity:1; fill:none" points="210.746,1423.18 2352.76,1423.18 "/>
<polyline clip-path="url(#clip620)" style="stroke:#000000; stroke-linecap:round; stroke-linejoin:round; stroke-width:4; stroke-opacity:1; fill:none" points="210.746,1423.18 210.746,1404.28 "/>
<polyline clip-path="url(#clip620)" style="stroke:#000000; stroke-linecap:round; stroke-linejoin:round; stroke-width:4; stroke-opacity:1; fill:none" points="567.748,1423.18 567.748,1404.28 "/>
<polyline clip-path="url(#clip620)" style="stroke:#000000; stroke-linecap:round; stroke-linejoin:round; stroke-width:4; stroke-opacity:1; fill:none" points="924.749,1423.18 924.749,1404.28 "/>
<polyline clip-path="url(#clip620)" style="stroke:#000000; stroke-linecap:round; stroke-linejoin:round; stroke-width:4; stroke-opacity:1; fill:none" points="1281.75,1423.18 1281.75,1404.28 "/>
<polyline clip-path="url(#clip620)" style="stroke:#000000; stroke-linecap:round; stroke-linejoin:round; stroke-width:4; stroke-opacity:1; fill:none" points="1638.75,1423.18 1638.75,1404.28 "/>
<polyline clip-path="url(#clip620)" style="stroke:#000000; stroke-linecap:round; stroke-linejoin:round; stroke-width:4; stroke-opacity:1; fill:none" points="1995.75,1423.18 1995.75,1404.28 "/>
<polyline clip-path="url(#clip620)" style="stroke:#000000; stroke-linecap:round; stroke-linejoin:round; stroke-width:4; stroke-opacity:1; fill:none" points="2352.76,1423.18 2352.76,1404.28 "/>
<path clip-path="url(#clip620)" d="M210.746 1454.1 Q207.135 1454.1 205.306 1457.66 Q203.501 1461.2 203.501 1468.33 Q203.501 1475.44 205.306 1479.01 Q207.135 1482.55 210.746 1482.55 Q214.38 1482.55 216.186 1479.01 Q218.014 1475.44 218.014 1468.33 Q218.014 1461.2 216.186 1457.66 Q214.38 1454.1 210.746 1454.1 M210.746 1450.39 Q216.556 1450.39 219.612 1455 Q222.69 1459.58 222.69 1468.33 Q222.69 1477.06 219.612 1481.67 Q216.556 1486.25 210.746 1486.25 Q204.936 1486.25 201.857 1481.67 Q198.802 1477.06 198.802 1468.33 Q198.802 1459.58 201.857 1455 Q204.936 1450.39 210.746 1450.39 Z" fill="#000000" fill-rule="nonzero" fill-opacity="1" /><path clip-path="url(#clip620)" d="M558.13 1481.64 L565.768 1481.64 L565.768 1455.28 L557.458 1456.95 L557.458 1452.69 L565.722 1451.02 L570.398 1451.02 L570.398 1481.64 L578.037 1481.64 L578.037 1485.58 L558.13 1485.58 L558.13 1481.64 Z" fill="#000000" fill-rule="nonzero" fill-opacity="1" /><path clip-path="url(#clip620)" d="M919.402 1481.64 L935.721 1481.64 L935.721 1485.58 L913.777 1485.58 L913.777 1481.64 Q916.439 1478.89 921.022 1474.26 Q925.629 1469.61 926.809 1468.27 Q929.055 1465.74 929.934 1464.01 Q930.837 1462.25 930.837 1460.56 Q930.837 1457.8 928.893 1456.07 Q926.971 1454.33 923.87 1454.33 Q921.671 1454.33 919.217 1455.09 Q916.786 1455.86 914.009 1457.41 L914.009 1452.69 Q916.833 1451.55 919.286 1450.97 Q921.74 1450.39 923.777 1450.39 Q929.147 1450.39 932.342 1453.08 Q935.536 1455.77 935.536 1460.26 Q935.536 1462.39 934.726 1464.31 Q933.939 1466.2 931.833 1468.8 Q931.254 1469.47 928.152 1472.69 Q925.05 1475.88 919.402 1481.64 Z" fill="#000000" fill-rule="nonzero" fill-opacity="1" /><path clip-path="url(#clip620)" d="M1286 1466.95 Q1289.36 1467.66 1291.23 1469.93 Q1293.13 1472.2 1293.13 1475.53 Q1293.13 1480.65 1289.61 1483.45 Q1286.09 1486.25 1279.61 1486.25 Q1277.43 1486.25 1275.12 1485.81 Q1272.83 1485.39 1270.37 1484.54 L1270.37 1480.02 Q1272.32 1481.16 1274.63 1481.74 Q1276.95 1482.32 1279.47 1482.32 Q1283.87 1482.32 1286.16 1480.58 Q1288.48 1478.84 1288.48 1475.53 Q1288.48 1472.48 1286.32 1470.77 Q1284.19 1469.03 1280.37 1469.03 L1276.35 1469.03 L1276.35 1465.19 L1280.56 1465.19 Q1284.01 1465.19 1285.84 1463.82 Q1287.67 1462.43 1287.67 1459.84 Q1287.67 1457.18 1285.77 1455.77 Q1283.89 1454.33 1280.37 1454.33 Q1278.45 1454.33 1276.25 1454.75 Q1274.05 1455.16 1271.42 1456.04 L1271.42 1451.88 Q1274.08 1451.14 1276.39 1450.77 Q1278.73 1450.39 1280.79 1450.39 Q1286.11 1450.39 1289.22 1452.83 Q1292.32 1455.23 1292.32 1459.35 Q1292.32 1462.22 1290.67 1464.21 Q1289.03 1466.18 1286 1466.95 Z" fill="#000000" fill-rule="nonzero" fill-opacity="1" /><path clip-path="url(#clip620)" d="M1641.76 1455.09 L1629.96 1473.54 L1641.76 1473.54 L1641.76 1455.09 M1640.53 1451.02 L1646.41 1451.02 L1646.41 1473.54 L1651.35 1473.54 L1651.35 1477.43 L1646.41 1477.43 L1646.41 1485.58 L1641.76 1485.58 L1641.76 1477.43 L1626.16 1477.43 L1626.16 1472.92 L1640.53 1451.02 Z" fill="#000000" fill-rule="nonzero" fill-opacity="1" /><path clip-path="url(#clip620)" d="M1986.03 1451.02 L2004.39 1451.02 L2004.39 1454.96 L1990.31 1454.96 L1990.31 1463.43 Q1991.33 1463.08 1992.35 1462.92 Q1993.37 1462.73 1994.39 1462.73 Q2000.18 1462.73 2003.56 1465.9 Q2006.93 1469.08 2006.93 1474.49 Q2006.93 1480.07 2003.46 1483.17 Q1999.99 1486.25 1993.67 1486.25 Q1991.5 1486.25 1989.23 1485.88 Q1986.98 1485.51 1984.57 1484.77 L1984.57 1480.07 Q1986.66 1481.2 1988.88 1481.76 Q1991.1 1482.32 1993.58 1482.32 Q1997.58 1482.32 1999.92 1480.21 Q2002.26 1478.1 2002.26 1474.49 Q2002.26 1470.88 1999.92 1468.77 Q1997.58 1466.67 1993.58 1466.67 Q1991.7 1466.67 1989.83 1467.08 Q1987.98 1467.5 1986.03 1468.38 L1986.03 1451.02 Z" fill="#000000" fill-rule="nonzero" fill-opacity="1" /><path clip-path="url(#clip620)" d="M2353.16 1466.44 Q2350.01 1466.44 2348.16 1468.59 Q2346.33 1470.74 2346.33 1474.49 Q2346.33 1478.22 2348.16 1480.39 Q2350.01 1482.55 2353.16 1482.55 Q2356.31 1482.55 2358.14 1480.39 Q2359.99 1478.22 2359.99 1474.49 Q2359.99 1470.74 2358.14 1468.59 Q2356.31 1466.44 2353.16 1466.44 M2362.44 1451.78 L2362.44 1456.04 Q2360.68 1455.21 2358.88 1454.77 Q2357.1 1454.33 2355.34 1454.33 Q2350.71 1454.33 2348.25 1457.45 Q2345.82 1460.58 2345.48 1466.9 Q2346.84 1464.89 2348.9 1463.82 Q2350.96 1462.73 2353.44 1462.73 Q2358.65 1462.73 2361.66 1465.9 Q2364.69 1469.05 2364.69 1474.49 Q2364.69 1479.82 2361.54 1483.03 Q2358.39 1486.25 2353.16 1486.25 Q2347.17 1486.25 2343.99 1481.67 Q2340.82 1477.06 2340.82 1468.33 Q2340.82 1460.14 2344.71 1455.28 Q2348.6 1450.39 2355.15 1450.39 Q2356.91 1450.39 2358.69 1450.74 Q2360.5 1451.09 2362.44 1451.78 Z" fill="#000000" fill-rule="nonzero" fill-opacity="1" /><path clip-path="url(#clip620)" d="M1286.59 1516.29 Q1286.59 1514.29 1285.16 1512.88 Q1283.76 1511.45 1281.75 1511.45 Q1279.71 1511.45 1278.31 1512.85 Q1276.94 1514.22 1276.94 1516.29 Q1276.94 1518.3 1278.35 1519.7 Q1279.75 1521.1 1281.75 1521.1 Q1283.76 1521.1 1285.16 1519.7 Q1286.59 1518.3 1286.59 1516.29 M1281.75 1526.86 L1273.09 1550.51 L1290.44 1550.51 L1281.75 1526.86 M1276.94 1523.58 Q1275 1522.27 1274.02 1520.46 Q1273.03 1518.61 1273.03 1516.29 Q1273.03 1512.63 1275.54 1510.08 Q1278.09 1507.54 1281.75 1507.54 Q1285.38 1507.54 1287.93 1510.12 Q1290.5 1512.66 1290.5 1516.29 Q1290.5 1518.52 1289.49 1520.4 Q1288.5 1522.27 1286.59 1523.58 L1303.52 1568.04 L1296.84 1568.04 L1292.51 1555.85 L1271.09 1555.85 L1266.76 1568.04 L1259.98 1568.04 L1276.94 1523.58 Z" fill="#000000" fill-rule="nonzero" fill-opacity="1" /><polyline clip-path="url(#clip620)" style="stroke:#000000; stroke-linecap:round; stroke-linejoin:round; stroke-width:4; stroke-opacity:1; fill:none" points="210.746,1423.18 210.746,47.2441 "/>
<polyline clip-path="url(#clip620)" style="stroke:#000000; stroke-linecap:round; stroke-linejoin:round; stroke-width:4; stroke-opacity:1; fill:none" points="210.746,1423.18 229.644,1423.18 "/>
<polyline clip-path="url(#clip620)" style="stroke:#000000; stroke-linecap:round; stroke-linejoin:round; stroke-width:4; stroke-opacity:1; fill:none" points="210.746,1226.62 229.644,1226.62 "/>
<polyline clip-path="url(#clip620)" style="stroke:#000000; stroke-linecap:round; stroke-linejoin:round; stroke-width:4; stroke-opacity:1; fill:none" points="210.746,1030.06 229.644,1030.06 "/>
<polyline clip-path="url(#clip620)" style="stroke:#000000; stroke-linecap:round; stroke-linejoin:round; stroke-width:4; stroke-opacity:1; fill:none" points="210.746,833.493 229.644,833.493 "/>
<polyline clip-path="url(#clip620)" style="stroke:#000000; stroke-linecap:round; stroke-linejoin:round; stroke-width:4; stroke-opacity:1; fill:none" points="210.746,636.931 229.644,636.931 "/>
<polyline clip-path="url(#clip620)" style="stroke:#000000; stroke-linecap:round; stroke-linejoin:round; stroke-width:4; stroke-opacity:1; fill:none" points="210.746,440.369 229.644,440.369 "/>
<polyline clip-path="url(#clip620)" style="stroke:#000000; stroke-linecap:round; stroke-linejoin:round; stroke-width:4; stroke-opacity:1; fill:none" points="210.746,243.806 229.644,243.806 "/>
<polyline clip-path="url(#clip620)" style="stroke:#000000; stroke-linecap:round; stroke-linejoin:round; stroke-width:4; stroke-opacity:1; fill:none" points="210.746,47.2441 229.644,47.2441 "/>
<path clip-path="url(#clip620)" d="M114.631 1423.63 L144.306 1423.63 L144.306 1427.57 L114.631 1427.57 L114.631 1423.63 Z" fill="#000000" fill-rule="nonzero" fill-opacity="1" /><path clip-path="url(#clip620)" d="M158.427 1436.52 L174.746 1436.52 L174.746 1440.46 L152.802 1440.46 L152.802 1436.52 Q155.464 1433.77 160.047 1429.14 Q164.653 1424.49 165.834 1423.15 Q168.079 1420.62 168.959 1418.89 Q169.862 1417.13 169.862 1415.44 Q169.862 1412.68 167.917 1410.95 Q165.996 1409.21 162.894 1409.21 Q160.695 1409.21 158.241 1409.97 Q155.811 1410.74 153.033 1412.29 L153.033 1407.57 Q155.857 1406.43 158.311 1405.85 Q160.765 1405.27 162.802 1405.27 Q168.172 1405.27 171.366 1407.96 Q174.561 1410.65 174.561 1415.14 Q174.561 1417.27 173.751 1419.19 Q172.964 1421.08 170.857 1423.68 Q170.278 1424.35 167.177 1427.57 Q164.075 1430.76 158.427 1436.52 Z" fill="#000000" fill-rule="nonzero" fill-opacity="1" /><path clip-path="url(#clip620)" d="M114.26 1227.07 L143.936 1227.07 L143.936 1231 L114.26 1231 L114.26 1227.07 Z" fill="#000000" fill-rule="nonzero" fill-opacity="1" /><path clip-path="url(#clip620)" d="M154.839 1239.96 L162.477 1239.96 L162.477 1213.6 L154.167 1215.26 L154.167 1211 L162.431 1209.34 L167.107 1209.34 L167.107 1239.96 L174.746 1239.96 L174.746 1243.9 L154.839 1243.9 L154.839 1239.96 Z" fill="#000000" fill-rule="nonzero" fill-opacity="1" /><path clip-path="url(#clip620)" d="M162.802 1015.85 Q159.19 1015.85 157.362 1019.42 Q155.556 1022.96 155.556 1030.09 Q155.556 1037.2 157.362 1040.76 Q159.19 1044.3 162.802 1044.3 Q166.436 1044.3 168.241 1040.76 Q170.07 1037.2 170.07 1030.09 Q170.07 1022.96 168.241 1019.42 Q166.436 1015.85 162.802 1015.85 M162.802 1012.15 Q168.612 1012.15 171.667 1016.76 Q174.746 1021.34 174.746 1030.09 Q174.746 1038.82 171.667 1043.42 Q168.612 1048.01 162.802 1048.01 Q156.991 1048.01 153.913 1043.42 Q150.857 1038.82 150.857 1030.09 Q150.857 1021.34 153.913 1016.76 Q156.991 1012.15 162.802 1012.15 Z" fill="#000000" fill-rule="nonzero" fill-opacity="1" /><path clip-path="url(#clip620)" d="M154.839 846.838 L162.477 846.838 L162.477 820.472 L154.167 822.139 L154.167 817.88 L162.431 816.213 L167.107 816.213 L167.107 846.838 L174.746 846.838 L174.746 850.773 L154.839 850.773 L154.839 846.838 Z" fill="#000000" fill-rule="nonzero" fill-opacity="1" /><path clip-path="url(#clip620)" d="M158.427 650.276 L174.746 650.276 L174.746 654.211 L152.802 654.211 L152.802 650.276 Q155.464 647.521 160.047 642.891 Q164.653 638.239 165.834 636.896 Q168.079 634.373 168.959 632.637 Q169.862 630.878 169.862 629.188 Q169.862 626.433 167.917 624.697 Q165.996 622.961 162.894 622.961 Q160.695 622.961 158.241 623.725 Q155.811 624.489 153.033 626.04 L153.033 621.318 Q155.857 620.183 158.311 619.605 Q160.765 619.026 162.802 619.026 Q168.172 619.026 171.366 621.711 Q174.561 624.396 174.561 628.887 Q174.561 631.017 173.751 632.938 Q172.964 634.836 170.857 637.429 Q170.278 638.1 167.177 641.317 Q164.075 644.512 158.427 650.276 Z" fill="#000000" fill-rule="nonzero" fill-opacity="1" /><path clip-path="url(#clip620)" d="M167.616 439.014 Q170.973 439.732 172.848 442.001 Q174.746 444.269 174.746 447.602 Q174.746 452.718 171.227 455.519 Q167.709 458.32 161.227 458.32 Q159.052 458.32 156.737 457.88 Q154.445 457.463 151.991 456.607 L151.991 452.093 Q153.936 453.227 156.251 453.806 Q158.565 454.385 161.089 454.385 Q165.487 454.385 167.778 452.649 Q170.093 450.913 170.093 447.602 Q170.093 444.547 167.94 442.834 Q165.811 441.098 161.991 441.098 L157.964 441.098 L157.964 437.255 L162.177 437.255 Q165.626 437.255 167.454 435.889 Q169.283 434.501 169.283 431.908 Q169.283 429.246 167.385 427.834 Q165.51 426.399 161.991 426.399 Q160.07 426.399 157.871 426.815 Q155.672 427.232 153.033 428.112 L153.033 423.945 Q155.695 423.204 158.01 422.834 Q160.348 422.464 162.408 422.464 Q167.732 422.464 170.834 424.894 Q173.936 427.302 173.936 431.422 Q173.936 434.292 172.292 436.283 Q170.649 438.251 167.616 439.014 Z" fill="#000000" fill-rule="nonzero" fill-opacity="1" /><path clip-path="url(#clip620)" d="M165.163 230.6 L153.357 249.049 L165.163 249.049 L165.163 230.6 M163.936 226.526 L169.815 226.526 L169.815 249.049 L174.746 249.049 L174.746 252.938 L169.815 252.938 L169.815 261.086 L165.163 261.086 L165.163 252.938 L149.561 252.938 L149.561 248.424 L163.936 226.526 Z" fill="#000000" fill-rule="nonzero" fill-opacity="1" /><path clip-path="url(#clip620)" d="M153.843 29.9641 L172.2 29.9641 L172.2 33.8993 L158.126 33.8993 L158.126 42.3714 Q159.144 42.0242 160.163 41.8622 Q161.181 41.677 162.2 41.677 Q167.987 41.677 171.366 44.8483 Q174.746 48.0196 174.746 53.4362 Q174.746 59.0149 171.274 62.1167 Q167.802 65.1954 161.482 65.1954 Q159.306 65.1954 157.038 64.825 Q154.792 64.4547 152.385 63.7139 L152.385 59.0149 Q154.468 60.1491 156.69 60.7047 Q158.913 61.2602 161.39 61.2602 Q165.394 61.2602 167.732 59.1538 Q170.07 57.0473 170.07 53.4362 Q170.07 49.8251 167.732 47.7186 Q165.394 45.6122 161.39 45.6122 Q159.515 45.6122 157.64 46.0288 Q155.788 46.4455 153.843 47.3251 L153.843 29.9641 Z" fill="#000000" fill-rule="nonzero" fill-opacity="1" /><path clip-path="url(#clip620)" d="M44.7161 742.453 L47.5806 742.453 L47.5806 769.38 Q53.6281 768.998 56.8109 765.751 Q59.9619 762.473 59.9619 756.648 Q59.9619 753.275 59.1344 750.124 Q58.3069 746.941 56.6518 743.822 L62.1899 743.822 Q63.5267 746.973 64.227 750.283 Q64.9272 753.593 64.9272 756.999 Q64.9272 765.529 59.9619 770.526 Q54.9967 775.491 46.5303 775.491 Q37.7774 775.491 32.6531 770.78 Q27.4968 766.038 27.4968 758.017 Q27.4968 750.824 32.1438 746.654 Q36.7589 742.453 44.7161 742.453 M42.9973 748.309 Q38.1912 748.373 35.3266 751.015 Q32.4621 753.625 32.4621 757.953 Q32.4621 762.855 35.2312 765.815 Q38.0002 768.743 43.0292 769.189 L42.9973 748.309 Z" fill="#000000" fill-rule="nonzero" fill-opacity="1" /><path clip-path="url(#clip620)" d="M64.0042 720.332 L16.4842 738.474 L16.4842 731.759 L56.4926 716.704 L16.4842 701.617 L16.4842 694.933 L64.0042 713.043 L64.0042 720.332 Z" fill="#000000" fill-rule="nonzero" fill-opacity="1" /><polyline clip-path="url(#clip622)" style="stroke:#009af9; stroke-linecap:round; stroke-linejoin:round; stroke-width:8; stroke-opacity:1; fill:none" points="210.96,-1.96552e+07 221.723,-395484 232.486,-99974.1 243.249,-44062.6 254.011,-24320.6 264.774,-15126.8 275.537,-10104 286.3,-7056.39 297.062,-5063.83 307.825,-3685.83 318.588,-2690 329.351,-1944.33 340.114,-1369.33 350.876,-914.829 361.639,-547.858 372.402,-246.054 383.165,6.20485 393.928,220.102 404.69,403.826 415.453,563.492 426.216,703.709 436.979,827.511 447.742,936.761 458.504,1032.62 469.267,1115.67 480.03,1186.05 490.793,1243.96 501.556,1290.01 512.318,1324.66 523.081,1348.24 533.844,1361.07 544.607,1363.54 555.37,1356.01 566.132,1338.97 576.895,1313.25 587.658,1279.7 598.421,1239.3 609.183,1193.18 619.946,1142.52 630.709,1088.6 641.472,1032.72 652.235,976.19 662.997,920.256 673.76,866.102 684.523,814.825 695.286,767.38 706.049,724.591 716.811,687.111 727.574,655.453 738.337,629.944 749.1,610.786 759.863,598.011 770.625,591.545 781.388,591.191 792.151,596.657 802.914,607.583 813.677,623.532 824.439,644.03 835.202,668.558 845.965,696.572 856.728,727.509 867.491,760.791 878.253,795.834 889.016,832.056 899.779,868.88 910.542,905.742 921.304,942.102 932.067,977.446 942.83,1011.3 953.593,1043.25 964.356,1072.9 975.118,1099.97 985.881,1124.19 996.644,1145.41 1007.41,1163.51 1018.17,1178.48 1028.93,1190.34 1039.7,1199.2 1050.46,1205.22 1061.22,1208.6 1071.98,1209.57 1082.75,1208.41 1093.51,1205.4 1104.27,1200.84 1115.03,1195 1125.8,1188.18 1136.56,1180.63 1147.32,1172.61 1158.09,1164.32 1168.85,1155.96 1179.61,1147.7 1190.37,1139.65 1201.14,1131.92 1211.9,1124.61 1222.66,1117.75 1233.43,1111.38 1244.19,1105.52 1254.95,1100.17 1265.71,1095.33 1276.48,1090.98 1287.24,1087.09 1298,1083.65 1308.77,1080.63 1319.53,1078 1330.29,1075.76 1341.05,1073.88 1351.82,1072.35 1362.58,1071.17 1373.34,1070.33 1384.1,1069.84 1394.87,1069.71 1405.63,1069.93 1416.39,1070.52 1427.16,1071.49 1437.92,1072.85 1448.68,1074.6 1459.44,1076.75 1470.21,1079.29 1480.97,1082.22 1491.73,1085.53 1502.5,1089.2 1513.26,1093.2 1524.02,1097.51 1534.78,1102.09 1545.55,1106.9 1556.31,1111.89 1567.07,1117.01 1577.83,1122.2 1588.6,1127.41 1599.36,1132.57 1610.12,1137.63 1620.89,1142.52 1631.65,1147.2 1642.41,1151.61 1653.17,1155.69 1663.94,1159.4 1674.7,1162.7 1685.46,1165.57 1696.23,1167.97 1706.99,1169.88 1717.75,1171.3 1728.51,1172.22 1739.28,1172.65 1750.04,1172.59 1760.8,1172.06 1771.57,1171.09 1782.33,1169.71 1793.09,1167.95 1803.85,1165.84 1814.62,1163.44 1825.38,1160.78 1836.14,1157.9 1846.9,1154.87 1857.67,1151.71 1868.43,1148.47 1879.19,1145.2 1889.96,1141.93 1900.72,1138.71 1911.48,1135.55 1922.24,1132.5 1933.01,1129.57 1943.77,1126.78 1954.53,1124.15 1965.3,1121.67 1976.06,1119.36 1986.82,1117.21 1997.58,1115.21 2008.35,1113.35 2019.11,1111.61 2029.87,1109.97 2040.63,1108.41 2051.4,1106.9 2062.16,1105.4 2072.92,1103.9 2083.69,1102.36 2094.45,1100.74 2105.21,1099.03 2115.97,1097.18 2126.74,1095.17 2137.5,1092.98 2148.26,1090.6 2159.03,1087.99 2169.79,1085.16 2180.55,1082.1 2191.31,1078.81 2202.08,1075.31 2212.84,1071.62 2223.6,1067.76 2234.37,1063.76 2245.13,1059.66 2255.89,1055.51 2266.65,1051.38 2277.42,1047.35 2288.18,1043.5 2298.94,1039.94 2309.7,1036.75 2320.47,1034.04 2331.23,1031.92 2341.99,1030.55 2352.76,1030.06 "/>
<polyline clip-path="url(#clip622)" style="stroke:#e26f46; stroke-linecap:round; stroke-linejoin:round; stroke-width:8; stroke-opacity:1; fill:none" points="210.96,-1.96552e+07 221.723,-3.18385e+06 232.486,-810766 243.249,-362006 254.011,-203737 264.774,-130185 275.537,-90129.1 286.3,-65934.5 297.062,-50210.9 307.825,-39419.9 318.588,-31694.7 329.351,-25975 340.114,-21622 350.876,-18232.4 361.639,-15541.5 372.402,-13369.5 383.165,-11591.1 393.928,-10116.4 404.69,-8879.89 415.453,-7832.85 426.216,-6938.3 436.979,-6167.91 447.742,-5499.68 458.504,-4916.27 469.267,-4403.9 480.03,-3951.51 490.793,-3550.09 501.556,-3192.26 512.318,-2871.93 523.081,-2584.01 533.844,-2324.29 544.607,-2089.18 555.37,-1875.69 566.132,-1681.22 576.895,-1503.56 587.658,-1340.81 598.421,-1191.31 609.183,-1053.63 619.946,-926.506 630.709,-808.845 641.472,-699.676 652.235,-598.152 662.997,-503.521 673.76,-415.123 684.523,-332.368 695.286,-254.736 706.049,-181.765 716.811,-113.04 727.574,-48.1917 738.337,13.1125 749.1,71.1725 759.863,126.258 770.625,178.612 781.388,228.457 792.151,275.993 802.914,321.398 813.677,364.835 824.439,406.449 835.202,446.371 845.965,484.714 856.728,521.583 867.491,557.067 878.253,591.246 889.016,624.189 899.779,655.959 910.542,686.605 921.304,716.174 932.067,744.702 942.83,772.218 953.593,798.745 964.356,824.297 975.118,848.885 985.881,872.511 996.644,895.173 1007.41,916.867 1018.17,937.584 1028.93,957.313 1039.7,976.045 1050.46,993.769 1061.22,1010.48 1071.98,1026.18 1082.75,1040.86 1093.51,1054.53 1104.27,1067.21 1115.03,1078.91 1125.8,1089.67 1136.56,1099.52 1147.32,1108.49 1158.09,1116.63 1168.85,1123.99 1179.61,1130.63 1190.37,1136.6 1201.14,1141.96 1211.9,1146.78 1222.66,1151.11 1233.43,1155.02 1244.19,1158.57 1254.95,1161.8 1265.71,1164.78 1276.48,1167.55 1287.24,1170.16 1298,1172.64 1308.77,1175.03 1319.53,1177.35 1330.29,1179.64 1341.05,1181.9 1351.82,1184.16 1362.58,1186.42 1373.34,1188.68 1384.1,1190.95 1394.87,1193.23 1405.63,1195.51 1416.39,1197.79 1427.16,1200.06 1437.92,1202.31 1448.68,1204.54 1459.44,1206.73 1470.21,1208.86 1480.97,1210.95 1491.73,1212.95 1502.5,1214.88 1513.26,1216.71 1524.02,1218.43 1534.78,1220.03 1545.55,1221.49 1556.31,1222.8 1567.07,1223.94 1577.83,1224.9 1588.6,1225.67 1599.36,1226.23 1610.12,1226.56 1620.89,1226.66 1631.65,1226.49 1642.41,1226.07 1653.17,1225.37 1663.94,1224.38 1674.7,1223.09 1685.46,1221.5 1696.23,1219.61 1706.99,1217.41 1717.75,1214.91 1728.51,1212.1 1739.28,1208.99 1750.04,1205.6 1760.8,1201.93 1771.57,1198 1782.33,1193.82 1793.09,1189.42 1803.85,1184.81 1814.62,1180.02 1825.38,1175.06 1836.14,1169.97 1846.9,1164.78 1857.67,1159.5 1868.43,1154.16 1879.19,1148.8 1889.96,1143.44 1900.72,1138.1 1911.48,1132.81 1922.24,1127.59 1933.01,1122.46 1943.77,1117.45 1954.53,1112.56 1965.3,1107.83 1976.06,1103.25 1986.82,1098.84 1997.58,1094.61 2008.35,1090.57 2019.11,1086.72 2029.87,1083.05 2040.63,1079.58 2051.4,1076.29 2062.16,1073.18 2072.92,1070.25 2083.69,1067.49 2094.45,1064.89 2105.21,1062.43 2115.97,1060.11 2126.74,1057.91 2137.5,1055.83 2148.26,1053.85 2159.03,1051.96 2169.79,1050.15 2180.55,1048.4 2191.31,1046.72 2202.08,1045.09 2212.84,1043.52 2223.6,1041.99 2234.37,1040.51 2245.13,1039.07 2255.89,1037.69 2266.65,1036.36 2277.42,1035.11 2288.18,1033.95 2298.94,1032.89 2309.7,1031.97 2320.47,1031.19 2331.23,1030.58 2341.99,1030.19 2352.76,1030.06 "/>
<polyline clip-path="url(#clip622)" style="stroke:#3da44d; stroke-linecap:round; stroke-linejoin:round; stroke-width:8; stroke-opacity:1; fill:none" points="210.96,-1.96552e+07 221.723,-4.1943e+06 232.486,-1.22158e+06 243.249,-545698 254.011,-307322 264.774,-196535 275.537,-136198 286.3,-99748.3 297.062,-76056.8 307.825,-59794.4 318.588,-48149.5 329.351,-39525.1 340.114,-32959.3 350.876,-27844.7 361.639,-23782.6 372.402,-20502.4 383.165,-17815.1 393.928,-15585.7 404.69,-13715.6 415.453,-12131.2 426.216,-10777 436.979,-9610.37 447.742,-8598.11 458.504,-7714.06 469.267,-6937.39 480.03,-6251.36 490.793,-5642.36 501.556,-5099.27 512.318,-4612.93 523.081,-4175.71 533.844,-3781.23 544.607,-3424.13 555.37,-3099.86 566.132,-2804.57 576.895,-2534.93 587.658,-2288.11 598.421,-2061.66 609.183,-1853.45 619.946,-1661.63 630.709,-1484.59 641.472,-1320.91 652.235,-1169.35 662.997,-1028.82 673.76,-898.35 684.523,-777.086 695.286,-664.265 706.049,-559.208 716.811,-461.306 727.574,-370.013 738.337,-284.834 749.1,-205.317 759.863,-131.051 770.625,-61.6534 781.388,3.22958 792.151,63.9308 802.914,120.765 813.677,174.03 824.439,224.012 835.202,270.986 845.965,315.212 856.728,356.943 867.491,396.416 878.253,433.858 889.016,469.478 899.779,503.471 910.542,536.011 921.304,567.255 932.067,597.336 942.83,626.366 953.593,654.438 964.356,681.621 975.118,707.966 985.881,733.505 996.644,758.256 1007.41,782.225 1018.17,805.407 1028.93,827.792 1039.7,849.367 1050.46,870.117 1061.22,890.028 1071.98,909.09 1082.75,927.298 1093.51,944.652 1104.27,961.158 1115.03,976.828 1125.8,991.679 1136.56,1005.73 1147.32,1019.02 1158.09,1031.58 1168.85,1043.43 1179.61,1054.62 1190.37,1065.2 1201.14,1075.19 1211.9,1084.64 1222.66,1093.6 1233.43,1102.1 1244.19,1110.18 1254.95,1117.9 1265.71,1125.27 1276.48,1132.34 1287.24,1139.13 1298,1145.69 1308.77,1152.02 1319.53,1158.17 1330.29,1164.14 1341.05,1169.95 1351.82,1175.62 1362.58,1181.15 1373.34,1186.55 1384.1,1191.82 1394.87,1196.95 1405.63,1201.96 1416.39,1206.82 1427.16,1211.53 1437.92,1216.07 1448.68,1220.45 1459.44,1224.64 1470.21,1228.62 1480.97,1232.39 1491.73,1235.93 1502.5,1239.21 1513.26,1242.24 1524.02,1244.99 1534.78,1247.46 1545.55,1249.62 1556.31,1251.48 1567.07,1253.02 1577.83,1254.23 1588.6,1255.11 1599.36,1255.65 1610.12,1255.85 1620.89,1255.72 1631.65,1255.25 1642.41,1254.45 1653.17,1253.31 1663.94,1251.86 1674.7,1250.08 1685.46,1248 1696.23,1245.62 1706.99,1242.96 1717.75,1240.02 1728.51,1236.81 1739.28,1233.36 1750.04,1229.68 1760.8,1225.78 1771.57,1221.68 1782.33,1217.39 1793.09,1212.93 1803.85,1208.31 1814.62,1203.56 1825.38,1198.68 1836.14,1193.7 1846.9,1188.63 1857.67,1183.48 1868.43,1178.27 1879.19,1173.02 1889.96,1167.74 1900.72,1162.44 1911.48,1157.13 1922.24,1151.84 1933.01,1146.57 1943.77,1141.33 1954.53,1136.14 1965.3,1131 1976.06,1125.93 1986.82,1120.93 1997.58,1116.01 2008.35,1111.19 2019.11,1106.46 2029.87,1101.84 2040.63,1097.33 2051.4,1092.94 2062.16,1088.67 2072.92,1084.53 2083.69,1080.52 2094.45,1076.65 2105.21,1072.92 2115.97,1069.34 2126.74,1065.9 2137.5,1062.6 2148.26,1059.46 2159.03,1056.48 2169.79,1053.64 2180.55,1050.97 2191.31,1048.45 2202.08,1046.09 2212.84,1043.89 2223.6,1041.85 2234.37,1039.97 2245.13,1038.26 2255.89,1036.7 2266.65,1035.31 2277.42,1034.08 2288.18,1033.01 2298.94,1032.11 2309.7,1031.37 2320.47,1030.8 2331.23,1030.38 2341.99,1030.14 2352.76,1030.06 "/>
<polyline clip-path="url(#clip622)" style="stroke:#c271d2; stroke-linecap:round; stroke-linejoin:round; stroke-width:8; stroke-opacity:1; fill:none" points="210.96,1030.06 221.723,1030.06 232.486,1030.06 243.249,1030.06 254.011,1030.06 264.774,1030.06 275.537,1030.06 286.3,1030.06 297.062,1030.06 307.825,1030.06 318.588,1030.06 329.351,1030.06 340.114,1030.06 350.876,1030.06 361.639,1030.06 372.402,1030.06 383.165,1030.06 393.928,1030.06 404.69,1030.06 415.453,1030.06 426.216,1030.06 436.979,1030.06 447.742,1030.06 458.504,1030.06 469.267,1030.06 480.03,1030.06 490.793,1030.06 501.556,1030.06 512.318,1030.06 523.081,1030.06 533.844,1030.06 544.607,1030.06 555.37,1030.06 566.132,1030.06 576.895,1030.06 587.658,1030.06 598.421,1030.06 609.183,1030.06 619.946,1030.06 630.709,1030.06 641.472,1030.06 652.235,1030.06 662.997,1030.06 673.76,1030.06 684.523,1030.06 695.286,1030.06 706.049,1030.06 716.811,1030.06 727.574,1030.06 738.337,1030.06 749.1,1030.06 759.863,1030.06 770.625,1030.06 781.388,1030.06 792.151,1030.06 802.914,1030.06 813.677,1030.06 824.439,1030.06 835.202,1030.06 845.965,1030.06 856.728,1030.06 867.491,1030.06 878.253,1030.06 889.016,1030.06 899.779,1030.06 910.542,1030.06 921.304,1030.06 932.067,1030.06 942.83,1030.06 953.593,1030.06 964.356,1030.06 975.118,1030.06 985.881,1030.06 996.644,1030.06 1007.41,1030.06 1018.17,1030.06 1028.93,1030.06 1039.7,1030.06 1050.46,1030.06 1061.22,1030.06 1071.98,1030.06 1082.75,1030.06 1093.51,1030.06 1104.27,1030.06 1115.03,1030.06 1125.8,1030.06 1136.56,1030.06 1147.32,1030.06 1158.09,1030.06 1168.85,1030.06 1179.61,1030.06 1190.37,1030.06 1201.14,1030.06 1211.9,1030.06 1222.66,1030.06 1233.43,1030.06 1244.19,1030.06 1254.95,1030.06 1265.71,1030.06 1276.48,1030.06 1287.24,1030.06 1298,1030.06 1308.77,1030.06 1319.53,1030.06 1330.29,1030.06 1341.05,1030.06 1351.82,1030.06 1362.58,1030.06 1373.34,1030.06 1384.1,1030.06 1394.87,1030.06 1405.63,1030.06 1416.39,1030.06 1427.16,1030.06 1437.92,1030.06 1448.68,1030.06 1459.44,1030.06 1470.21,1030.06 1480.97,1030.06 1491.73,1030.06 1502.5,1030.06 1513.26,1030.06 1524.02,1030.06 1534.78,1030.06 1545.55,1030.06 1556.31,1030.06 1567.07,1030.06 1577.83,1030.06 1588.6,1030.06 1599.36,1030.06 1610.12,1030.06 1620.89,1030.06 1631.65,1030.06 1642.41,1030.06 1653.17,1030.06 1663.94,1030.06 1674.7,1030.06 1685.46,1030.06 1696.23,1030.06 1706.99,1030.06 1717.75,1030.06 1728.51,1030.06 1739.28,1030.06 1750.04,1030.06 1760.8,1030.06 1771.57,1030.06 1782.33,1030.06 1793.09,1030.06 1803.85,1030.06 1814.62,1030.06 1825.38,1030.06 1836.14,1030.06 1846.9,1030.06 1857.67,1030.06 1868.43,1030.06 1879.19,1030.06 1889.96,1030.06 1900.72,1030.06 1911.48,1030.06 1922.24,1030.06 1933.01,1030.06 1943.77,1030.06 1954.53,1030.06 1965.3,1030.06 1976.06,1030.06 1986.82,1030.06 1997.58,1030.06 2008.35,1030.06 2019.11,1030.06 2029.87,1030.06 2040.63,1030.06 2051.4,1030.06 2062.16,1030.06 2072.92,1030.06 2083.69,1030.06 2094.45,1030.06 2105.21,1030.06 2115.97,1030.06 2126.74,1030.06 2137.5,1030.06 2148.26,1030.06 2159.03,1030.06 2169.79,1030.06 2180.55,1030.06 2191.31,1030.06 2202.08,1030.06 2212.84,1030.06 2223.6,1030.06 2234.37,1030.06 2245.13,1030.06 2255.89,1030.06 2266.65,1030.06 2277.42,1030.06 2288.18,1030.06 2298.94,1030.06 2309.7,1030.06 2320.47,1030.06 2331.23,1030.06 2341.99,1030.06 2352.76,1030.06 "/>
<polyline clip-path="url(#clip622)" style="stroke:#ac8d18; stroke-linecap:round; stroke-linejoin:round; stroke-width:8; stroke-opacity:1; fill:none" stroke-dasharray="32, 20" points="1031.85,2799.12 1031.85,-1328.69 "/>
<path clip-path="url(#clip620)" d="M1781.72 404.149 L2281.36 404.149 L2281.36 93.1086 L1781.72 93.1086  Z" fill="#ffffff" fill-rule="evenodd" fill-opacity="1"/>
<polyline clip-path="url(#clip620)" style="stroke:#000000; stroke-linecap:round; stroke-linejoin:round; stroke-width:4; stroke-opacity:1; fill:none" points="1781.72,404.149 2281.36,404.149 2281.36,93.1086 1781.72,93.1086 1781.72,404.149 "/>
<polyline clip-path="url(#clip620)" style="stroke:#009af9; stroke-linecap:round; stroke-linejoin:round; stroke-width:8; stroke-opacity:1; fill:none" points="1805.52,144.949 1948.32,144.949 "/>
<path clip-path="url(#clip620)" d="M1972.12 127.669 L1976.79 127.669 L1976.79 162.229 L1972.12 162.229 L1972.12 127.669 Z" fill="#000000" fill-rule="nonzero" fill-opacity="1" /><path clip-path="url(#clip620)" d="M2002.97 140.238 L2002.97 126.21 L2007.23 126.21 L2007.23 162.229 L2002.97 162.229 L2002.97 158.34 Q2001.63 160.655 1999.57 161.789 Q1997.53 162.9 1994.66 162.9 Q1989.96 162.9 1987 159.15 Q1984.06 155.4 1984.06 149.289 Q1984.06 143.178 1987 139.428 Q1989.96 135.678 1994.66 135.678 Q1997.53 135.678 1999.57 136.812 Q2001.63 137.923 2002.97 140.238 M1988.46 149.289 Q1988.46 153.988 1990.38 156.673 Q1992.33 159.335 1995.71 159.335 Q1999.08 159.335 2001.03 156.673 Q2002.97 153.988 2002.97 149.289 Q2002.97 144.59 2001.03 141.928 Q1999.08 139.243 1995.71 139.243 Q1992.33 139.243 1990.38 141.928 Q1988.46 144.59 1988.46 149.289 Z" fill="#000000" fill-rule="nonzero" fill-opacity="1" /><polyline clip-path="url(#clip620)" style="stroke:#e26f46; stroke-linecap:round; stroke-linejoin:round; stroke-width:8; stroke-opacity:1; fill:none" points="1805.52,196.789 1948.32,196.789 "/>
<path clip-path="url(#clip620)" d="M1987.95 184.115 L1981.61 201.314 L1994.32 201.314 L1987.95 184.115 M1985.31 179.509 L1990.61 179.509 L2003.78 214.069 L1998.92 214.069 L1995.77 205.203 L1980.2 205.203 L1977.05 214.069 L1972.12 214.069 L1985.31 179.509 Z" fill="#000000" fill-rule="nonzero" fill-opacity="1" /><path clip-path="url(#clip620)" d="M2008.64 178.05 L2012.9 178.05 L2012.9 214.069 L2008.64 214.069 L2008.64 178.05 Z" fill="#000000" fill-rule="nonzero" fill-opacity="1" /><path clip-path="url(#clip620)" d="M2038.88 200.805 Q2038.88 196.175 2036.95 193.629 Q2035.06 191.083 2031.61 191.083 Q2028.18 191.083 2026.26 193.629 Q2024.36 196.175 2024.36 200.805 Q2024.36 205.411 2026.26 207.958 Q2028.18 210.504 2031.61 210.504 Q2035.06 210.504 2036.95 207.958 Q2038.88 205.411 2038.88 200.805 M2043.14 210.851 Q2043.14 217.471 2040.2 220.689 Q2037.26 223.93 2031.19 223.93 Q2028.95 223.93 2026.95 223.582 Q2024.96 223.258 2023.09 222.564 L2023.09 218.42 Q2024.96 219.439 2026.79 219.925 Q2028.62 220.411 2030.52 220.411 Q2034.71 220.411 2036.79 218.212 Q2038.88 216.036 2038.88 211.615 L2038.88 209.508 Q2037.56 211.8 2035.5 212.934 Q2033.44 214.069 2030.57 214.069 Q2025.8 214.069 2022.88 210.434 Q2019.96 206.8 2019.96 200.805 Q2019.96 194.786 2022.88 191.152 Q2025.8 187.518 2030.57 187.518 Q2033.44 187.518 2035.5 188.652 Q2037.56 189.786 2038.88 192.078 L2038.88 188.143 L2043.14 188.143 L2043.14 210.851 Z" fill="#000000" fill-rule="nonzero" fill-opacity="1" /><path clip-path="url(#clip620)" d="M2074.08 200.041 L2074.08 202.124 L2054.5 202.124 Q2054.78 206.522 2057.14 208.837 Q2059.52 211.129 2063.76 211.129 Q2066.21 211.129 2068.51 210.527 Q2070.82 209.925 2073.09 208.721 L2073.09 212.749 Q2070.8 213.721 2068.39 214.231 Q2065.98 214.74 2063.51 214.74 Q2057.3 214.74 2053.67 211.129 Q2050.06 207.518 2050.06 201.36 Q2050.06 194.995 2053.48 191.268 Q2056.93 187.518 2062.76 187.518 Q2068 187.518 2071.03 190.897 Q2074.08 194.254 2074.08 200.041 M2069.82 198.791 Q2069.78 195.296 2067.86 193.212 Q2065.96 191.129 2062.81 191.129 Q2059.25 191.129 2057.09 193.143 Q2054.96 195.157 2054.64 198.814 L2069.82 198.791 Z" fill="#000000" fill-rule="nonzero" fill-opacity="1" /><path clip-path="url(#clip620)" d="M2099.69 201.129 Q2099.69 196.43 2097.74 193.768 Q2095.82 191.083 2092.44 191.083 Q2089.06 191.083 2087.12 193.768 Q2085.2 196.43 2085.2 201.129 Q2085.2 205.828 2087.12 208.513 Q2089.06 211.175 2092.44 211.175 Q2095.82 211.175 2097.74 208.513 Q2099.69 205.828 2099.69 201.129 M2085.2 192.078 Q2086.54 189.763 2088.57 188.652 Q2090.64 187.518 2093.48 187.518 Q2098.2 187.518 2101.14 191.268 Q2104.11 195.018 2104.11 201.129 Q2104.11 207.24 2101.14 210.99 Q2098.2 214.74 2093.48 214.74 Q2090.64 214.74 2088.57 213.629 Q2086.54 212.495 2085.2 210.18 L2085.2 214.069 L2080.91 214.069 L2080.91 178.05 L2085.2 178.05 L2085.2 192.078 Z" fill="#000000" fill-rule="nonzero" fill-opacity="1" /><path clip-path="url(#clip620)" d="M2126.19 192.124 Q2125.47 191.708 2124.62 191.522 Q2123.78 191.314 2122.76 191.314 Q2119.15 191.314 2117.21 193.675 Q2115.29 196.013 2115.29 200.411 L2115.29 214.069 L2111.01 214.069 L2111.01 188.143 L2115.29 188.143 L2115.29 192.171 Q2116.63 189.809 2118.78 188.675 Q2120.94 187.518 2124.01 187.518 Q2124.45 187.518 2124.99 187.587 Q2125.52 187.634 2126.17 187.749 L2126.19 192.124 Z" fill="#000000" fill-rule="nonzero" fill-opacity="1" /><path clip-path="url(#clip620)" d="M2142.44 201.036 Q2137.28 201.036 2135.29 202.217 Q2133.3 203.397 2133.3 206.245 Q2133.3 208.513 2134.78 209.856 Q2136.28 211.175 2138.85 211.175 Q2142.39 211.175 2144.52 208.675 Q2146.68 206.152 2146.68 201.985 L2146.68 201.036 L2142.44 201.036 M2150.94 199.277 L2150.94 214.069 L2146.68 214.069 L2146.68 210.133 Q2145.22 212.495 2143.04 213.629 Q2140.87 214.74 2137.72 214.74 Q2133.74 214.74 2131.38 212.518 Q2129.04 210.272 2129.04 206.522 Q2129.04 202.147 2131.95 199.925 Q2134.89 197.703 2140.7 197.703 L2146.68 197.703 L2146.68 197.286 Q2146.68 194.347 2144.73 192.749 Q2142.81 191.129 2139.32 191.129 Q2137.09 191.129 2134.99 191.661 Q2132.88 192.194 2130.94 193.259 L2130.94 189.323 Q2133.27 188.421 2135.47 187.981 Q2137.67 187.518 2139.76 187.518 Q2145.38 187.518 2148.16 190.434 Q2150.94 193.351 2150.94 199.277 Z" fill="#000000" fill-rule="nonzero" fill-opacity="1" /><path clip-path="url(#clip620)" d="M2159.71 188.143 L2163.97 188.143 L2163.97 214.069 L2159.71 214.069 L2159.71 188.143 M2159.71 178.05 L2163.97 178.05 L2163.97 183.444 L2159.71 183.444 L2159.71 178.05 Z" fill="#000000" fill-rule="nonzero" fill-opacity="1" /><path clip-path="url(#clip620)" d="M2191.54 189.138 L2191.54 193.12 Q2189.73 192.124 2187.9 191.638 Q2186.1 191.129 2184.25 191.129 Q2180.1 191.129 2177.81 193.768 Q2175.52 196.384 2175.52 201.129 Q2175.52 205.874 2177.81 208.513 Q2180.1 211.129 2184.25 211.129 Q2186.1 211.129 2187.9 210.643 Q2189.73 210.133 2191.54 209.138 L2191.54 213.073 Q2189.75 213.907 2187.83 214.323 Q2185.94 214.74 2183.78 214.74 Q2177.93 214.74 2174.48 211.059 Q2171.03 207.379 2171.03 201.129 Q2171.03 194.786 2174.5 191.152 Q2178 187.518 2184.06 187.518 Q2186.03 187.518 2187.9 187.935 Q2189.78 188.328 2191.54 189.138 Z" fill="#000000" fill-rule="nonzero" fill-opacity="1" /><path clip-path="url(#clip620)" d="M2209.18 178.097 Q2206.07 183.421 2204.57 188.629 Q2203.07 193.837 2203.07 199.184 Q2203.07 204.532 2204.57 209.786 Q2206.1 215.018 2209.18 220.319 L2205.47 220.319 Q2202 214.879 2200.26 209.624 Q2198.55 204.37 2198.55 199.184 Q2198.55 194.022 2200.26 188.791 Q2201.98 183.56 2205.47 178.097 L2209.18 178.097 Z" fill="#000000" fill-rule="nonzero" fill-opacity="1" /><path clip-path="url(#clip620)" d="M2222.07 210.133 L2238.39 210.133 L2238.39 214.069 L2216.44 214.069 L2216.44 210.133 Q2219.11 207.379 2223.69 202.749 Q2228.3 198.096 2229.48 196.754 Q2231.72 194.231 2232.6 192.495 Q2233.5 190.735 2233.5 189.046 Q2233.5 186.291 2231.56 184.555 Q2229.64 182.819 2226.54 182.819 Q2224.34 182.819 2221.88 183.583 Q2219.45 184.347 2216.68 185.897 L2216.68 181.175 Q2219.5 180.041 2221.95 179.462 Q2224.41 178.884 2226.44 178.884 Q2231.81 178.884 2235.01 181.569 Q2238.2 184.254 2238.2 188.745 Q2238.2 190.874 2237.39 192.796 Q2236.61 194.694 2234.5 197.286 Q2233.92 197.958 2230.82 201.175 Q2227.72 204.37 2222.07 210.133 Z" fill="#000000" fill-rule="nonzero" fill-opacity="1" /><path clip-path="url(#clip620)" d="M2246.93 178.097 L2250.63 178.097 Q2254.11 183.56 2255.82 188.791 Q2257.56 194.022 2257.56 199.184 Q2257.56 204.37 2255.82 209.624 Q2254.11 214.879 2250.63 220.319 L2246.93 220.319 Q2250.01 215.018 2251.51 209.786 Q2253.04 204.532 2253.04 199.184 Q2253.04 193.837 2251.51 188.629 Q2250.01 183.421 2246.93 178.097 Z" fill="#000000" fill-rule="nonzero" fill-opacity="1" /><polyline clip-path="url(#clip620)" style="stroke:#3da44d; stroke-linecap:round; stroke-linejoin:round; stroke-width:8; stroke-opacity:1; fill:none" points="1805.52,248.629 1948.32,248.629 "/>
<path clip-path="url(#clip620)" d="M1987.95 235.955 L1981.61 253.154 L1994.32 253.154 L1987.95 235.955 M1985.31 231.349 L1990.61 231.349 L2003.78 265.909 L1998.92 265.909 L1995.77 257.043 L1980.2 257.043 L1977.05 265.909 L1972.12 265.909 L1985.31 231.349 Z" fill="#000000" fill-rule="nonzero" fill-opacity="1" /><path clip-path="url(#clip620)" d="M2008.64 229.89 L2012.9 229.89 L2012.9 265.909 L2008.64 265.909 L2008.64 229.89 Z" fill="#000000" fill-rule="nonzero" fill-opacity="1" /><path clip-path="url(#clip620)" d="M2038.88 252.645 Q2038.88 248.015 2036.95 245.469 Q2035.06 242.923 2031.61 242.923 Q2028.18 242.923 2026.26 245.469 Q2024.36 248.015 2024.36 252.645 Q2024.36 257.251 2026.26 259.798 Q2028.18 262.344 2031.61 262.344 Q2035.06 262.344 2036.95 259.798 Q2038.88 257.251 2038.88 252.645 M2043.14 262.691 Q2043.14 269.311 2040.2 272.529 Q2037.26 275.77 2031.19 275.77 Q2028.95 275.77 2026.95 275.422 Q2024.96 275.098 2023.09 274.404 L2023.09 270.26 Q2024.96 271.279 2026.79 271.765 Q2028.62 272.251 2030.52 272.251 Q2034.71 272.251 2036.79 270.052 Q2038.88 267.876 2038.88 263.455 L2038.88 261.348 Q2037.56 263.64 2035.5 264.774 Q2033.44 265.909 2030.57 265.909 Q2025.8 265.909 2022.88 262.274 Q2019.96 258.64 2019.96 252.645 Q2019.96 246.626 2022.88 242.992 Q2025.8 239.358 2030.57 239.358 Q2033.44 239.358 2035.5 240.492 Q2037.56 241.626 2038.88 243.918 L2038.88 239.983 L2043.14 239.983 L2043.14 262.691 Z" fill="#000000" fill-rule="nonzero" fill-opacity="1" /><path clip-path="url(#clip620)" d="M2074.08 251.881 L2074.08 253.964 L2054.5 253.964 Q2054.78 258.362 2057.14 260.677 Q2059.52 262.969 2063.76 262.969 Q2066.21 262.969 2068.51 262.367 Q2070.82 261.765 2073.09 260.561 L2073.09 264.589 Q2070.8 265.561 2068.39 266.071 Q2065.98 266.58 2063.51 266.58 Q2057.3 266.58 2053.67 262.969 Q2050.06 259.358 2050.06 253.2 Q2050.06 246.835 2053.48 243.108 Q2056.93 239.358 2062.76 239.358 Q2068 239.358 2071.03 242.737 Q2074.08 246.094 2074.08 251.881 M2069.82 250.631 Q2069.78 247.136 2067.86 245.052 Q2065.96 242.969 2062.81 242.969 Q2059.25 242.969 2057.09 244.983 Q2054.96 246.997 2054.64 250.654 L2069.82 250.631 Z" fill="#000000" fill-rule="nonzero" fill-opacity="1" /><path clip-path="url(#clip620)" d="M2099.69 252.969 Q2099.69 248.27 2097.74 245.608 Q2095.82 242.923 2092.44 242.923 Q2089.06 242.923 2087.12 245.608 Q2085.2 248.27 2085.2 252.969 Q2085.2 257.668 2087.12 260.353 Q2089.06 263.015 2092.44 263.015 Q2095.82 263.015 2097.74 260.353 Q2099.69 257.668 2099.69 252.969 M2085.2 243.918 Q2086.54 241.603 2088.57 240.492 Q2090.64 239.358 2093.48 239.358 Q2098.2 239.358 2101.14 243.108 Q2104.11 246.858 2104.11 252.969 Q2104.11 259.08 2101.14 262.83 Q2098.2 266.58 2093.48 266.58 Q2090.64 266.58 2088.57 265.469 Q2086.54 264.335 2085.2 262.02 L2085.2 265.909 L2080.91 265.909 L2080.91 229.89 L2085.2 229.89 L2085.2 243.918 Z" fill="#000000" fill-rule="nonzero" fill-opacity="1" /><path clip-path="url(#clip620)" d="M2126.19 243.964 Q2125.47 243.548 2124.62 243.362 Q2123.78 243.154 2122.76 243.154 Q2119.15 243.154 2117.21 245.515 Q2115.29 247.853 2115.29 252.251 L2115.29 265.909 L2111.01 265.909 L2111.01 239.983 L2115.29 239.983 L2115.29 244.011 Q2116.63 241.649 2118.78 240.515 Q2120.94 239.358 2124.01 239.358 Q2124.45 239.358 2124.99 239.427 Q2125.52 239.474 2126.17 239.589 L2126.19 243.964 Z" fill="#000000" fill-rule="nonzero" fill-opacity="1" /><path clip-path="url(#clip620)" d="M2142.44 252.876 Q2137.28 252.876 2135.29 254.057 Q2133.3 255.237 2133.3 258.085 Q2133.3 260.353 2134.78 261.696 Q2136.28 263.015 2138.85 263.015 Q2142.39 263.015 2144.52 260.515 Q2146.68 257.992 2146.68 253.825 L2146.68 252.876 L2142.44 252.876 M2150.94 251.117 L2150.94 265.909 L2146.68 265.909 L2146.68 261.973 Q2145.22 264.335 2143.04 265.469 Q2140.87 266.58 2137.72 266.58 Q2133.74 266.58 2131.38 264.358 Q2129.04 262.112 2129.04 258.362 Q2129.04 253.987 2131.95 251.765 Q2134.89 249.543 2140.7 249.543 L2146.68 249.543 L2146.68 249.126 Q2146.68 246.187 2144.73 244.589 Q2142.81 242.969 2139.32 242.969 Q2137.09 242.969 2134.99 243.501 Q2132.88 244.034 2130.94 245.099 L2130.94 241.163 Q2133.27 240.261 2135.47 239.821 Q2137.67 239.358 2139.76 239.358 Q2145.38 239.358 2148.16 242.274 Q2150.94 245.191 2150.94 251.117 Z" fill="#000000" fill-rule="nonzero" fill-opacity="1" /><path clip-path="url(#clip620)" d="M2159.71 239.983 L2163.97 239.983 L2163.97 265.909 L2159.71 265.909 L2159.71 239.983 M2159.71 229.89 L2163.97 229.89 L2163.97 235.284 L2159.71 235.284 L2159.71 229.89 Z" fill="#000000" fill-rule="nonzero" fill-opacity="1" /><path clip-path="url(#clip620)" d="M2191.54 240.978 L2191.54 244.96 Q2189.73 243.964 2187.9 243.478 Q2186.1 242.969 2184.25 242.969 Q2180.1 242.969 2177.81 245.608 Q2175.52 248.224 2175.52 252.969 Q2175.52 257.714 2177.81 260.353 Q2180.1 262.969 2184.25 262.969 Q2186.1 262.969 2187.9 262.483 Q2189.73 261.973 2191.54 260.978 L2191.54 264.913 Q2189.75 265.747 2187.83 266.163 Q2185.94 266.58 2183.78 266.58 Q2177.93 266.58 2174.48 262.899 Q2171.03 259.219 2171.03 252.969 Q2171.03 246.626 2174.5 242.992 Q2178 239.358 2184.06 239.358 Q2186.03 239.358 2187.9 239.775 Q2189.78 240.168 2191.54 240.978 Z" fill="#000000" fill-rule="nonzero" fill-opacity="1" /><path clip-path="url(#clip620)" d="M2209.18 229.937 Q2206.07 235.261 2204.57 240.469 Q2203.07 245.677 2203.07 251.024 Q2203.07 256.372 2204.57 261.626 Q2206.1 266.858 2209.18 272.159 L2205.47 272.159 Q2202 266.719 2200.26 261.464 Q2198.55 256.21 2198.55 251.024 Q2198.55 245.862 2200.26 240.631 Q2201.98 235.4 2205.47 229.937 L2209.18 229.937 Z" fill="#000000" fill-rule="nonzero" fill-opacity="1" /><path clip-path="url(#clip620)" d="M2230.89 235.423 L2219.08 253.872 L2230.89 253.872 L2230.89 235.423 M2229.66 231.349 L2235.54 231.349 L2235.54 253.872 L2240.47 253.872 L2240.47 257.761 L2235.54 257.761 L2235.54 265.909 L2230.89 265.909 L2230.89 257.761 L2215.29 257.761 L2215.29 253.247 L2229.66 231.349 Z" fill="#000000" fill-rule="nonzero" fill-opacity="1" /><path clip-path="url(#clip620)" d="M2246.93 229.937 L2250.63 229.937 Q2254.11 235.4 2255.82 240.631 Q2257.56 245.862 2257.56 251.024 Q2257.56 256.21 2255.82 261.464 Q2254.11 266.719 2250.63 272.159 L2246.93 272.159 Q2250.01 266.858 2251.51 261.626 Q2253.04 256.372 2253.04 251.024 Q2253.04 245.677 2251.51 240.469 Q2250.01 235.261 2246.93 229.937 Z" fill="#000000" fill-rule="nonzero" fill-opacity="1" /><polyline clip-path="url(#clip620)" style="stroke:#c271d2; stroke-linecap:round; stroke-linejoin:round; stroke-width:8; stroke-opacity:1; fill:none" points="1805.52,300.469 1948.32,300.469 "/>
<path clip-path="url(#clip620)" d="M1997.67 312.818 L1997.67 303.536 L1990.03 303.536 L1990.03 299.693 L2002.3 299.693 L2002.3 314.531 Q1999.59 316.452 1996.33 317.448 Q1993.07 318.42 1989.36 318.42 Q1981.26 318.42 1976.68 313.698 Q1972.12 308.952 1972.12 300.503 Q1972.12 292.031 1976.68 287.309 Q1981.26 282.564 1989.36 282.564 Q1992.74 282.564 1995.77 283.397 Q1998.83 284.23 2001.4 285.851 L2001.4 290.827 Q1998.81 288.628 1995.89 287.517 Q1992.97 286.406 1989.76 286.406 Q1983.41 286.406 1980.22 289.948 Q1977.05 293.489 1977.05 300.503 Q1977.05 307.494 1980.22 311.036 Q1983.41 314.577 1989.76 314.577 Q1992.23 314.577 1994.18 314.161 Q1996.12 313.721 1997.67 312.818 Z" fill="#000000" fill-rule="nonzero" fill-opacity="1" /><path clip-path="url(#clip620)" d="M2022.44 304.716 Q2017.28 304.716 2015.29 305.897 Q2013.3 307.077 2013.3 309.925 Q2013.3 312.193 2014.78 313.536 Q2016.28 314.855 2018.85 314.855 Q2022.39 314.855 2024.52 312.355 Q2026.68 309.832 2026.68 305.665 L2026.68 304.716 L2022.44 304.716 M2030.94 302.957 L2030.94 317.749 L2026.68 317.749 L2026.68 313.813 Q2025.22 316.175 2023.04 317.309 Q2020.87 318.42 2017.72 318.42 Q2013.74 318.42 2011.38 316.198 Q2009.04 313.952 2009.04 310.202 Q2009.04 305.827 2011.95 303.605 Q2014.89 301.383 2020.7 301.383 L2026.68 301.383 L2026.68 300.966 Q2026.68 298.027 2024.73 296.429 Q2022.81 294.809 2019.32 294.809 Q2017.09 294.809 2014.99 295.341 Q2012.88 295.874 2010.94 296.939 L2010.94 293.003 Q2013.27 292.101 2015.47 291.661 Q2017.67 291.198 2019.76 291.198 Q2025.38 291.198 2028.16 294.114 Q2030.94 297.031 2030.94 302.957 Z" fill="#000000" fill-rule="nonzero" fill-opacity="1" /><path clip-path="url(#clip620)" d="M2039.27 307.517 L2039.27 291.823 L2043.53 291.823 L2043.53 307.355 Q2043.53 311.036 2044.96 312.888 Q2046.4 314.716 2049.27 314.716 Q2052.72 314.716 2054.71 312.517 Q2056.72 310.318 2056.72 306.522 L2056.72 291.823 L2060.98 291.823 L2060.98 317.749 L2056.72 317.749 L2056.72 313.767 Q2055.17 316.128 2053.11 317.286 Q2051.08 318.42 2048.37 318.42 Q2043.9 318.42 2041.58 315.642 Q2039.27 312.864 2039.27 307.517 M2049.99 291.198 L2049.99 291.198 Z" fill="#000000" fill-rule="nonzero" fill-opacity="1" /><path clip-path="url(#clip620)" d="M2086.28 292.587 L2086.28 296.614 Q2084.48 295.689 2082.53 295.226 Q2080.59 294.763 2078.51 294.763 Q2075.33 294.763 2073.74 295.735 Q2072.16 296.707 2072.16 298.651 Q2072.16 300.133 2073.3 300.989 Q2074.43 301.823 2077.86 302.587 L2079.32 302.911 Q2083.85 303.883 2085.75 305.665 Q2087.67 307.425 2087.67 310.596 Q2087.67 314.207 2084.8 316.313 Q2081.95 318.42 2076.95 318.42 Q2074.87 318.42 2072.6 318.003 Q2070.36 317.61 2067.86 316.8 L2067.86 312.401 Q2070.22 313.628 2072.51 314.253 Q2074.8 314.855 2077.05 314.855 Q2080.06 314.855 2081.68 313.837 Q2083.3 312.795 2083.3 310.92 Q2083.3 309.184 2082.12 308.258 Q2080.96 307.332 2077 306.476 L2075.52 306.128 Q2071.56 305.295 2069.8 303.582 Q2068.04 301.846 2068.04 298.837 Q2068.04 295.179 2070.64 293.189 Q2073.23 291.198 2078 291.198 Q2080.36 291.198 2082.44 291.545 Q2084.52 291.892 2086.28 292.587 Z" fill="#000000" fill-rule="nonzero" fill-opacity="1" /><path clip-path="url(#clip620)" d="M2110.98 292.587 L2110.98 296.614 Q2109.18 295.689 2107.23 295.226 Q2105.29 294.763 2103.2 294.763 Q2100.03 294.763 2098.44 295.735 Q2096.86 296.707 2096.86 298.651 Q2096.86 300.133 2098 300.989 Q2099.13 301.823 2102.56 302.587 L2104.01 302.911 Q2108.55 303.883 2110.45 305.665 Q2112.37 307.425 2112.37 310.596 Q2112.37 314.207 2109.5 316.313 Q2106.65 318.42 2101.65 318.42 Q2099.57 318.42 2097.3 318.003 Q2095.06 317.61 2092.56 316.8 L2092.56 312.401 Q2094.92 313.628 2097.21 314.253 Q2099.5 314.855 2101.75 314.855 Q2104.76 314.855 2106.38 313.837 Q2108 312.795 2108 310.92 Q2108 309.184 2106.82 308.258 Q2105.66 307.332 2101.7 306.476 L2100.22 306.128 Q2096.26 305.295 2094.5 303.582 Q2092.74 301.846 2092.74 298.837 Q2092.74 295.179 2095.33 293.189 Q2097.93 291.198 2102.7 291.198 Q2105.06 291.198 2107.14 291.545 Q2109.22 291.892 2110.98 292.587 Z" fill="#000000" fill-rule="nonzero" fill-opacity="1" /><path clip-path="url(#clip620)" d="M2119.15 291.823 L2123.41 291.823 L2123.41 317.749 L2119.15 317.749 L2119.15 291.823 M2119.15 281.73 L2123.41 281.73 L2123.41 287.124 L2119.15 287.124 L2119.15 281.73 Z" fill="#000000" fill-rule="nonzero" fill-opacity="1" /><path clip-path="url(#clip620)" d="M2144.11 304.716 Q2138.94 304.716 2136.95 305.897 Q2134.96 307.077 2134.96 309.925 Q2134.96 312.193 2136.45 313.536 Q2137.95 314.855 2140.52 314.855 Q2144.06 314.855 2146.19 312.355 Q2148.34 309.832 2148.34 305.665 L2148.34 304.716 L2144.11 304.716 M2152.6 302.957 L2152.6 317.749 L2148.34 317.749 L2148.34 313.813 Q2146.88 316.175 2144.71 317.309 Q2142.53 318.42 2139.38 318.42 Q2135.4 318.42 2133.04 316.198 Q2130.7 313.952 2130.7 310.202 Q2130.7 305.827 2133.62 303.605 Q2136.56 301.383 2142.37 301.383 L2148.34 301.383 L2148.34 300.966 Q2148.34 298.027 2146.4 296.429 Q2144.48 294.809 2140.98 294.809 Q2138.76 294.809 2136.65 295.341 Q2134.55 295.874 2132.6 296.939 L2132.6 293.003 Q2134.94 292.101 2137.14 291.661 Q2139.34 291.198 2141.42 291.198 Q2147.05 291.198 2149.82 294.114 Q2152.6 297.031 2152.6 302.957 Z" fill="#000000" fill-rule="nonzero" fill-opacity="1" /><path clip-path="url(#clip620)" d="M2182.93 302.101 L2182.93 317.749 L2178.67 317.749 L2178.67 302.239 Q2178.67 298.559 2177.23 296.73 Q2175.8 294.902 2172.93 294.902 Q2169.48 294.902 2167.49 297.101 Q2165.5 299.3 2165.5 303.096 L2165.5 317.749 L2161.21 317.749 L2161.21 291.823 L2165.5 291.823 L2165.5 295.851 Q2167.02 293.513 2169.08 292.355 Q2171.17 291.198 2173.88 291.198 Q2178.34 291.198 2180.63 293.976 Q2182.93 296.73 2182.93 302.101 Z" fill="#000000" fill-rule="nonzero" fill-opacity="1" /><polyline clip-path="url(#clip620)" style="stroke:#ac8d18; stroke-linecap:round; stroke-linejoin:round; stroke-width:8; stroke-opacity:1; fill:none" stroke-dasharray="32, 20" points="1805.52,352.309 1948.32,352.309 "/>
<path clip-path="url(#clip620)" d="M1991.65 339.86 Q1991.65 341.102 1990.83 341.898 Q1990.04 342.695 1989 342.695 Q1988.11 342.695 1987.65 342.179 Q1987.18 341.664 1987.18 341.008 Q1987.18 340.071 1987.9 339.298 Q1988.63 338.525 1989.68 338.361 Q1988.91 337.799 1987.67 337.799 Q1985.63 337.799 1983.83 339.369 Q1983.03 340.095 1982.17 341.43 Q1981.3 342.741 1981.13 343.303 L1979.61 349.557 Q1979.47 350.26 1978.61 353.633 Q1977.76 356.982 1977.69 357.123 Q1977.46 357.779 1976.94 358.13 Q1976.43 358.481 1975.91 358.481 Q1975.33 358.481 1974.93 358.13 Q1974.53 357.779 1974.53 357.17 Q1974.53 357.076 1974.6 356.725 Q1974.67 356.373 1974.79 355.881 Q1974.9 355.389 1974.95 355.108 L1977.74 344.03 Q1978.25 342.015 1978.37 341.383 Q1978.51 340.727 1978.51 340.001 Q1978.51 338.736 1978.11 338.268 Q1977.72 337.799 1977.01 337.799 Q1975.79 337.799 1975 339.251 Q1974.2 340.704 1973.52 343.514 Q1973.31 344.287 1973.17 344.451 Q1973.05 344.615 1972.7 344.615 Q1972.12 344.592 1972.12 344.123 Q1972.12 344.006 1972.3 343.257 Q1972.49 342.484 1972.84 341.359 Q1973.22 340.212 1973.62 339.486 Q1973.85 338.994 1974.06 338.666 Q1974.27 338.338 1974.69 337.823 Q1975.12 337.307 1975.75 337.026 Q1976.38 336.745 1977.15 336.745 Q1978.84 336.745 1980.03 337.776 Q1981.25 338.806 1981.53 340.423 Q1982.12 339.579 1982.84 338.853 Q1983.57 338.104 1984.91 337.424 Q1986.24 336.745 1987.67 336.745 Q1989.45 336.745 1990.55 337.659 Q1991.65 338.549 1991.65 339.86 Z" fill="#000000" fill-rule="nonzero" fill-opacity="1" /><path clip-path="url(#clip620)" d="M2014.76 362.483 Q2014.76 362.614 2014.62 363.123 Q2014.47 363.631 2014.11 364.418 Q2013.76 365.205 2013.29 365.926 Q2012.81 366.631 2012.03 367.156 Q2011.26 367.664 2010.37 367.664 Q2009.19 367.664 2008.4 366.877 Q2007.62 366.09 2007.62 364.91 Q2007.62 364.254 2007.96 363.352 Q2010.14 357.532 2010.14 355.531 Q2010.14 353.187 2008.32 353.187 Q2007.42 353.187 2006.57 353.531 Q2005.73 353.859 2005.16 354.318 Q2004.58 354.777 2004.06 355.417 Q2003.55 356.04 2003.29 356.466 Q2003.04 356.876 2002.84 357.286 L2002.42 358.958 Q2002.32 359.417 2001.84 361.204 L2001.11 364.238 Q2000.58 366.5 2000.47 366.713 Q2000.3 367.172 1999.94 367.418 Q1999.58 367.664 1999.22 367.664 Q1998.81 367.664 1998.53 367.418 Q1998.25 367.172 1998.25 366.746 Q1998.25 366.681 1998.3 366.435 Q1998.35 366.189 1998.43 365.844 Q1998.52 365.5 1998.55 365.303 L2000.5 357.548 Q2000.86 356.138 2000.94 355.695 Q2001.04 355.236 2001.04 354.728 Q2001.04 353.187 1999.99 353.187 Q1999.14 353.187 1998.58 354.203 Q1998.02 355.22 1997.55 357.187 Q1997.4 357.729 1997.3 357.843 Q1997.22 357.958 1996.98 357.958 Q1996.57 357.942 1996.57 357.614 Q1996.57 357.532 1996.7 356.991 Q1996.83 356.45 1997.07 355.679 Q1997.34 354.892 1997.58 354.367 Q1997.79 353.974 1997.91 353.794 Q1998.04 353.597 1998.35 353.22 Q1998.68 352.826 1999.11 352.646 Q1999.55 352.449 2000.09 352.449 Q2001.3 352.449 2002.19 353.236 Q2003.07 354.007 2003.19 355.368 Q2005.37 352.449 2008.42 352.449 Q2010.22 352.449 2011.26 353.4 Q2012.29 354.351 2012.29 356.04 Q2012.29 356.433 2012.21 356.942 Q2012.14 357.433 2011.98 358.056 Q2011.83 358.679 2011.7 359.155 Q2011.57 359.63 2011.31 360.401 Q2011.04 361.155 2010.93 361.483 Q2010.81 361.811 2010.53 362.582 Q2010.27 363.336 2010.24 363.418 Q2009.63 364.943 2009.63 365.812 Q2009.63 366.385 2009.81 366.648 Q2010.01 366.91 2010.44 366.91 Q2011.58 366.91 2012.44 365.779 Q2013.31 364.631 2013.86 362.762 Q2013.99 362.352 2014.06 362.254 Q2014.14 362.155 2014.37 362.155 Q2014.76 362.155 2014.76 362.483 Z" fill="#000000" fill-rule="nonzero" fill-opacity="1" /><path clip-path="url(#clip620)" d="M2034.84 362.483 Q2034.84 362.614 2034.69 363.123 Q2034.54 363.631 2034.18 364.418 Q2033.84 365.205 2033.36 365.926 Q2032.88 366.631 2032.1 367.156 Q2031.33 367.664 2030.44 367.664 Q2029.26 367.664 2028.47 366.877 Q2027.69 366.09 2027.69 364.91 Q2027.69 364.254 2028.03 363.352 Q2030.21 357.532 2030.21 355.531 Q2030.21 353.187 2028.39 353.187 Q2027.49 353.187 2026.64 353.531 Q2025.8 353.859 2025.23 354.318 Q2024.65 354.777 2024.13 355.417 Q2023.62 356.04 2023.36 356.466 Q2023.11 356.876 2022.92 357.286 L2022.49 358.958 Q2022.39 359.417 2021.92 361.204 L2021.18 364.238 Q2020.65 366.5 2020.54 366.713 Q2020.37 367.172 2020.01 367.418 Q2019.65 367.664 2019.29 367.664 Q2018.88 367.664 2018.6 367.418 Q2018.33 367.172 2018.33 366.746 Q2018.33 366.681 2018.37 366.435 Q2018.42 366.189 2018.51 365.844 Q2018.59 365.5 2018.62 365.303 L2020.57 357.548 Q2020.93 356.138 2021.01 355.695 Q2021.11 355.236 2021.11 354.728 Q2021.11 353.187 2020.06 353.187 Q2019.21 353.187 2018.65 354.203 Q2018.1 355.22 2017.62 357.187 Q2017.47 357.729 2017.37 357.843 Q2017.29 357.958 2017.05 357.958 Q2016.64 357.942 2016.64 357.614 Q2016.64 357.532 2016.77 356.991 Q2016.9 356.45 2017.14 355.679 Q2017.41 354.892 2017.65 354.367 Q2017.87 353.974 2017.98 353.794 Q2018.11 353.597 2018.42 353.22 Q2018.75 352.826 2019.18 352.646 Q2019.62 352.449 2020.16 352.449 Q2021.38 352.449 2022.26 353.236 Q2023.15 354.007 2023.26 355.368 Q2025.44 352.449 2028.49 352.449 Q2030.29 352.449 2031.33 353.4 Q2032.36 354.351 2032.36 356.04 Q2032.36 356.433 2032.28 356.942 Q2032.21 357.433 2032.05 358.056 Q2031.9 358.679 2031.77 359.155 Q2031.64 359.63 2031.38 360.401 Q2031.11 361.155 2031 361.483 Q2030.88 361.811 2030.61 362.582 Q2030.34 363.336 2030.31 363.418 Q2029.7 364.943 2029.7 365.812 Q2029.7 366.385 2029.88 366.648 Q2030.08 366.91 2030.51 366.91 Q2031.66 366.91 2032.51 365.779 Q2033.38 364.631 2033.93 362.762 Q2034.07 362.352 2034.13 362.254 Q2034.21 362.155 2034.44 362.155 Q2034.84 362.155 2034.84 362.483 Z" fill="#000000" fill-rule="nonzero" fill-opacity="1" /></svg>
