<?xml version="1.0" encoding="utf-8"?>
<svg xmlns="http://www.w3.org/2000/svg" xmlns:xlink="http://www.w3.org/1999/xlink" width="600" height="400" viewBox="0 0 2400 1600">
<defs>
  <clipPath id="clip870">
    <rect x="0" y="0" width="2400" height="1600"/>
  </clipPath>
</defs>
<path clip-path="url(#clip870)" d="M0 1600 L2400 1600 L2400 0 L0 0  Z" fill="#ffffff" fill-rule="evenodd" fill-opacity="1"/>
<defs>
  <clipPath id="clip871">
    <rect x="480" y="0" width="1681" height="1600"/>
  </clipPath>
</defs>
<defs>
  <clipPath id="clip872">
    <rect x="272" y="47" width="2081" height="1377"/>
  </clipPath>
</defs>
<path clip-path="url(#clip872)" d="M1807.33 765.844 L1807.33 763.733 L1807.71 763.383 L1808.74 763.51 L1808.74 765.622 L1808.36 765.972 L1807.33 765.844  Z" fill="#ffffff" fill-rule="evenodd" fill-opacity="1"/>
<polyline clip-path="url(#clip872)" style="stroke:#000000; stroke-linecap:round; stroke-linejoin:round; stroke-width:2; stroke-opacity:0.1; fill:none" points="838.802,1169.83 1110.5,1040.21 1110.5,257.88 "/>
<polyline clip-path="url(#clip872)" style="stroke:#000000; stroke-linecap:round; stroke-linejoin:round; stroke-width:2; stroke-opacity:0.1; fill:none" points="941.936,1176.35 1213.64,1046.73 1213.64,264.398 "/>
<polyline clip-path="url(#clip872)" style="stroke:#000000; stroke-linecap:round; stroke-linejoin:round; stroke-width:2; stroke-opacity:0.1; fill:none" points="1045.07,1182.87 1316.77,1053.24 1316.77,270.917 "/>
<polyline clip-path="url(#clip872)" style="stroke:#000000; stroke-linecap:round; stroke-linejoin:round; stroke-width:2; stroke-opacity:0.1; fill:none" points="1148.2,1189.39 1419.9,1059.76 1419.9,277.435 "/>
<polyline clip-path="url(#clip872)" style="stroke:#000000; stroke-linecap:round; stroke-linejoin:round; stroke-width:2; stroke-opacity:0.1; fill:none" points="1251.34,1195.91 1523.04,1066.28 1523.04,283.953 "/>
<polyline clip-path="url(#clip872)" style="stroke:#000000; stroke-linecap:round; stroke-linejoin:round; stroke-width:2; stroke-opacity:0.1; fill:none" points="1354.47,1202.43 1626.17,1072.8 1626.17,290.472 "/>
<polyline clip-path="url(#clip872)" style="stroke:#000000; stroke-linecap:round; stroke-linejoin:round; stroke-width:2; stroke-opacity:0.1; fill:none" points="1457.6,1208.94 1729.3,1079.32 1729.3,296.99 "/>
<polyline clip-path="url(#clip872)" style="stroke:#000000; stroke-linecap:round; stroke-linejoin:round; stroke-width:2; stroke-opacity:0.1; fill:none" points="1569.94,1205.23 823.454,1158.05 823.454,375.719 "/>
<polyline clip-path="url(#clip872)" style="stroke:#000000; stroke-linecap:round; stroke-linejoin:round; stroke-width:2; stroke-opacity:0.1; fill:none" points="1606.61,1187.73 860.124,1140.55 860.124,358.224 "/>
<polyline clip-path="url(#clip872)" style="stroke:#000000; stroke-linecap:round; stroke-linejoin:round; stroke-width:2; stroke-opacity:0.1; fill:none" points="1643.28,1170.24 896.794,1123.06 896.794,340.729 "/>
<polyline clip-path="url(#clip872)" style="stroke:#000000; stroke-linecap:round; stroke-linejoin:round; stroke-width:2; stroke-opacity:0.1; fill:none" points="1679.95,1152.74 933.463,1105.56 933.463,323.234 "/>
<polyline clip-path="url(#clip872)" style="stroke:#000000; stroke-linecap:round; stroke-linejoin:round; stroke-width:2; stroke-opacity:0.1; fill:none" points="1716.62,1135.25 970.133,1088.07 970.133,305.739 "/>
<polyline clip-path="url(#clip872)" style="stroke:#000000; stroke-linecap:round; stroke-linejoin:round; stroke-width:2; stroke-opacity:0.1; fill:none" points="1753.29,1117.75 1006.8,1070.57 1006.8,288.244 "/>
<polyline clip-path="url(#clip872)" style="stroke:#000000; stroke-linecap:round; stroke-linejoin:round; stroke-width:2; stroke-opacity:0.1; fill:none" points="1789.96,1100.26 1043.47,1053.08 1043.47,270.749 "/>
<polyline clip-path="url(#clip872)" style="stroke:#000000; stroke-linecap:round; stroke-linejoin:round; stroke-width:2; stroke-opacity:0.1; fill:none" points="803.432,1064.58 1075.13,934.949 1821.62,982.13 "/>
<polyline clip-path="url(#clip872)" style="stroke:#000000; stroke-linecap:round; stroke-linejoin:round; stroke-width:2; stroke-opacity:0.1; fill:none" points="803.432,947.268 1075.13,817.641 1821.62,864.822 "/>
<polyline clip-path="url(#clip872)" style="stroke:#000000; stroke-linecap:round; stroke-linejoin:round; stroke-width:2; stroke-opacity:0.1; fill:none" points="803.432,829.96 1075.13,700.334 1821.62,747.514 "/>
<polyline clip-path="url(#clip872)" style="stroke:#000000; stroke-linecap:round; stroke-linejoin:round; stroke-width:2; stroke-opacity:0.1; fill:none" points="803.432,712.652 1075.13,583.026 1821.62,630.206 "/>
<polyline clip-path="url(#clip872)" style="stroke:#000000; stroke-linecap:round; stroke-linejoin:round; stroke-width:2; stroke-opacity:0.1; fill:none" points="803.432,595.344 1075.13,465.718 1821.62,512.898 "/>
<polyline clip-path="url(#clip872)" style="stroke:#000000; stroke-linecap:round; stroke-linejoin:round; stroke-width:2; stroke-opacity:0.1; fill:none" points="803.432,478.036 1075.13,348.41 1821.62,395.59 "/>
<polyline clip-path="url(#clip870)" style="stroke:#000000; stroke-linecap:round; stroke-linejoin:round; stroke-width:4; stroke-opacity:1; fill:none" points="803.432,1167.6 1549.92,1214.78 "/>
<polyline clip-path="url(#clip870)" style="stroke:#000000; stroke-linecap:round; stroke-linejoin:round; stroke-width:4; stroke-opacity:1; fill:none" points="838.802,1169.83 842.063,1168.28 "/>
<polyline clip-path="url(#clip870)" style="stroke:#000000; stroke-linecap:round; stroke-linejoin:round; stroke-width:4; stroke-opacity:1; fill:none" points="941.936,1176.35 945.196,1174.8 "/>
<polyline clip-path="url(#clip870)" style="stroke:#000000; stroke-linecap:round; stroke-linejoin:round; stroke-width:4; stroke-opacity:1; fill:none" points="1045.07,1182.87 1048.33,1181.32 "/>
<polyline clip-path="url(#clip870)" style="stroke:#000000; stroke-linecap:round; stroke-linejoin:round; stroke-width:4; stroke-opacity:1; fill:none" points="1148.2,1189.39 1151.46,1187.83 "/>
<polyline clip-path="url(#clip870)" style="stroke:#000000; stroke-linecap:round; stroke-linejoin:round; stroke-width:4; stroke-opacity:1; fill:none" points="1251.34,1195.91 1254.6,1194.35 "/>
<polyline clip-path="url(#clip870)" style="stroke:#000000; stroke-linecap:round; stroke-linejoin:round; stroke-width:4; stroke-opacity:1; fill:none" points="1354.47,1202.43 1357.73,1200.87 "/>
<polyline clip-path="url(#clip870)" style="stroke:#000000; stroke-linecap:round; stroke-linejoin:round; stroke-width:4; stroke-opacity:1; fill:none" points="1457.6,1208.94 1460.86,1207.39 "/>
<path clip-path="url(#clip870)" d="M683.075 1198.87 L712.75 1198.87 L712.75 1202.8 L683.075 1202.8 L683.075 1198.87 Z" fill="#000000" fill-rule="nonzero" fill-opacity="1" /><path clip-path="url(#clip870)" d="M723.653 1211.76 L731.292 1211.76 L731.292 1185.4 L722.982 1187.06 L722.982 1182.8 L731.246 1181.14 L735.922 1181.14 L735.922 1211.76 L743.56 1211.76 L743.56 1215.7 L723.653 1215.7 L723.653 1211.76 Z" fill="#000000" fill-rule="nonzero" fill-opacity="1" /><path clip-path="url(#clip870)" d="M763.005 1184.22 Q759.394 1184.22 757.565 1187.78 Q755.759 1191.32 755.759 1198.45 Q755.759 1205.56 757.565 1209.12 Q759.394 1212.67 763.005 1212.67 Q766.639 1212.67 768.444 1209.12 Q770.273 1205.56 770.273 1198.45 Q770.273 1191.32 768.444 1187.78 Q766.639 1184.22 763.005 1184.22 M763.005 1180.51 Q768.815 1180.51 771.87 1185.12 Q774.949 1189.7 774.949 1198.45 Q774.949 1207.18 771.87 1211.79 Q768.815 1216.37 763.005 1216.37 Q757.195 1216.37 754.116 1211.79 Q751.06 1207.18 751.06 1198.45 Q751.06 1189.7 754.116 1185.12 Q757.195 1180.51 763.005 1180.51 Z" fill="#000000" fill-rule="nonzero" fill-opacity="1" /><path clip-path="url(#clip870)" d="M793.167 1184.22 Q789.555 1184.22 787.727 1187.78 Q785.921 1191.32 785.921 1198.45 Q785.921 1205.56 787.727 1209.12 Q789.555 1212.67 793.167 1212.67 Q796.801 1212.67 798.606 1209.12 Q800.435 1205.56 800.435 1198.45 Q800.435 1191.32 798.606 1187.78 Q796.801 1184.22 793.167 1184.22 M793.167 1180.51 Q798.977 1180.51 802.032 1185.12 Q805.111 1189.7 805.111 1198.45 Q805.111 1207.18 802.032 1211.79 Q798.977 1216.37 793.167 1216.37 Q787.356 1216.37 784.278 1211.79 Q781.222 1207.18 781.222 1198.45 Q781.222 1189.7 784.278 1185.12 Q787.356 1180.51 793.167 1180.51 Z" fill="#000000" fill-rule="nonzero" fill-opacity="1" /><path clip-path="url(#clip870)" d="M823.328 1184.22 Q819.717 1184.22 817.889 1187.78 Q816.083 1191.32 816.083 1198.45 Q816.083 1205.56 817.889 1209.12 Q819.717 1212.67 823.328 1212.67 Q826.963 1212.67 828.768 1209.12 Q830.597 1205.56 830.597 1198.45 Q830.597 1191.32 828.768 1187.78 Q826.963 1184.22 823.328 1184.22 M823.328 1180.51 Q829.139 1180.51 832.194 1185.12 Q835.273 1189.7 835.273 1198.45 Q835.273 1207.18 832.194 1211.79 Q829.139 1216.37 823.328 1216.37 Q817.518 1216.37 814.44 1211.79 Q811.384 1207.18 811.384 1198.45 Q811.384 1189.7 814.44 1185.12 Q817.518 1180.51 823.328 1180.51 Z" fill="#000000" fill-rule="nonzero" fill-opacity="1" /><path clip-path="url(#clip870)" d="M816.37 1205.39 L846.046 1205.39 L846.046 1209.32 L816.37 1209.32 L816.37 1205.39 Z" fill="#000000" fill-rule="nonzero" fill-opacity="1" /><path clip-path="url(#clip870)" d="M866.138 1205.8 Q862.805 1205.8 860.884 1207.59 Q858.986 1209.37 858.986 1212.49 Q858.986 1215.62 860.884 1217.4 Q862.805 1219.18 866.138 1219.18 Q869.472 1219.18 871.393 1217.4 Q873.314 1215.6 873.314 1212.49 Q873.314 1209.37 871.393 1207.59 Q869.495 1205.8 866.138 1205.8 M861.462 1203.81 Q858.453 1203.07 856.763 1201.01 Q855.097 1198.95 855.097 1195.99 Q855.097 1191.85 858.036 1189.44 Q860.999 1187.03 866.138 1187.03 Q871.3 1187.03 874.24 1189.44 Q877.18 1191.85 877.18 1195.99 Q877.18 1198.95 875.49 1201.01 Q873.823 1203.07 870.837 1203.81 Q874.217 1204.6 876.092 1206.89 Q877.99 1209.18 877.99 1212.49 Q877.99 1217.52 874.911 1220.2 Q871.856 1222.89 866.138 1222.89 Q860.421 1222.89 857.342 1220.2 Q854.286 1217.52 854.286 1212.49 Q854.286 1209.18 856.185 1206.89 Q858.083 1204.6 861.462 1203.81 M859.749 1196.43 Q859.749 1199.11 861.416 1200.62 Q863.106 1202.12 866.138 1202.12 Q869.147 1202.12 870.837 1200.62 Q872.55 1199.11 872.55 1196.43 Q872.55 1193.74 870.837 1192.24 Q869.147 1190.73 866.138 1190.73 Q863.106 1190.73 861.416 1192.24 Q859.749 1193.74 859.749 1196.43 Z" fill="#000000" fill-rule="nonzero" fill-opacity="1" /><path clip-path="url(#clip870)" d="M896.3 1190.73 Q892.689 1190.73 890.86 1194.3 Q889.055 1197.84 889.055 1204.97 Q889.055 1212.08 890.86 1215.64 Q892.689 1219.18 896.3 1219.18 Q899.934 1219.18 901.74 1215.64 Q903.569 1212.08 903.569 1204.97 Q903.569 1197.84 901.74 1194.3 Q899.934 1190.73 896.3 1190.73 M896.3 1187.03 Q902.11 1187.03 905.166 1191.64 Q908.245 1196.22 908.245 1204.97 Q908.245 1213.7 905.166 1218.3 Q902.11 1222.89 896.3 1222.89 Q890.49 1222.89 887.411 1218.3 Q884.356 1213.7 884.356 1204.97 Q884.356 1196.22 887.411 1191.64 Q890.49 1187.03 896.3 1187.03 Z" fill="#000000" fill-rule="nonzero" fill-opacity="1" /><path clip-path="url(#clip870)" d="M926.462 1190.73 Q922.851 1190.73 921.022 1194.3 Q919.217 1197.84 919.217 1204.97 Q919.217 1212.08 921.022 1215.64 Q922.851 1219.18 926.462 1219.18 Q930.096 1219.18 931.902 1215.64 Q933.73 1212.08 933.73 1204.97 Q933.73 1197.84 931.902 1194.3 Q930.096 1190.73 926.462 1190.73 M926.462 1187.03 Q932.272 1187.03 935.328 1191.64 Q938.406 1196.22 938.406 1204.97 Q938.406 1213.7 935.328 1218.3 Q932.272 1222.89 926.462 1222.89 Q920.652 1222.89 917.573 1218.3 Q914.518 1213.7 914.518 1204.97 Q914.518 1196.22 917.573 1191.64 Q920.652 1187.03 926.462 1187.03 Z" fill="#000000" fill-rule="nonzero" fill-opacity="1" /><path clip-path="url(#clip870)" d="M919.504 1211.91 L949.179 1211.91 L949.179 1215.84 L919.504 1215.84 L919.504 1211.91 Z" fill="#000000" fill-rule="nonzero" fill-opacity="1" /><path clip-path="url(#clip870)" d="M969.851 1209.59 Q966.702 1209.59 964.851 1211.74 Q963.022 1213.9 963.022 1217.65 Q963.022 1221.37 964.851 1223.55 Q966.702 1225.7 969.851 1225.7 Q972.999 1225.7 974.827 1223.55 Q976.679 1221.37 976.679 1217.65 Q976.679 1213.9 974.827 1211.74 Q972.999 1209.59 969.851 1209.59 M979.133 1194.94 L979.133 1199.2 Q977.374 1198.36 975.568 1197.92 Q973.786 1197.48 972.026 1197.48 Q967.397 1197.48 964.943 1200.61 Q962.513 1203.73 962.165 1210.05 Q963.531 1208.04 965.591 1206.98 Q967.651 1205.89 970.128 1205.89 Q975.337 1205.89 978.346 1209.06 Q981.378 1212.21 981.378 1217.65 Q981.378 1222.97 978.23 1226.19 Q975.082 1229.41 969.851 1229.41 Q963.855 1229.41 960.684 1224.82 Q957.513 1220.22 957.513 1211.49 Q957.513 1203.29 961.401 1198.43 Q965.29 1193.55 971.841 1193.55 Q973.6 1193.55 975.383 1193.9 Q977.188 1194.24 979.133 1194.94 Z" fill="#000000" fill-rule="nonzero" fill-opacity="1" /><path clip-path="url(#clip870)" d="M999.434 1197.25 Q995.823 1197.25 993.994 1200.82 Q992.188 1204.36 992.188 1211.49 Q992.188 1218.6 993.994 1222.16 Q995.823 1225.7 999.434 1225.7 Q1003.07 1225.7 1004.87 1222.16 Q1006.7 1218.6 1006.7 1211.49 Q1006.7 1204.36 1004.87 1200.82 Q1003.07 1197.25 999.434 1197.25 M999.434 1193.55 Q1005.24 1193.55 1008.3 1198.16 Q1011.38 1202.74 1011.38 1211.49 Q1011.38 1220.22 1008.3 1224.82 Q1005.24 1229.41 999.434 1229.41 Q993.624 1229.41 990.545 1224.82 Q987.489 1220.22 987.489 1211.49 Q987.489 1202.74 990.545 1198.16 Q993.624 1193.55 999.434 1193.55 Z" fill="#000000" fill-rule="nonzero" fill-opacity="1" /><path clip-path="url(#clip870)" d="M1029.6 1197.25 Q1025.98 1197.25 1024.16 1200.82 Q1022.35 1204.36 1022.35 1211.49 Q1022.35 1218.6 1024.16 1222.16 Q1025.98 1225.7 1029.6 1225.7 Q1033.23 1225.7 1035.04 1222.16 Q1036.86 1218.6 1036.86 1211.49 Q1036.86 1204.36 1035.04 1200.82 Q1033.23 1197.25 1029.6 1197.25 M1029.6 1193.55 Q1035.41 1193.55 1038.46 1198.16 Q1041.54 1202.74 1041.54 1211.49 Q1041.54 1220.22 1038.46 1224.82 Q1035.41 1229.41 1029.6 1229.41 Q1023.79 1229.41 1020.71 1224.82 Q1017.65 1220.22 1017.65 1211.49 Q1017.65 1202.74 1020.71 1198.16 Q1023.79 1193.55 1029.6 1193.55 Z" fill="#000000" fill-rule="nonzero" fill-opacity="1" /><path clip-path="url(#clip870)" d="M1022.64 1218.42 L1052.31 1218.42 L1052.31 1222.36 L1022.64 1222.36 L1022.64 1218.42 Z" fill="#000000" fill-rule="nonzero" fill-opacity="1" /><path clip-path="url(#clip870)" d="M1075.25 1204.77 L1063.45 1223.22 L1075.25 1223.22 L1075.25 1204.77 M1074.03 1200.69 L1079.91 1200.69 L1079.91 1223.22 L1084.84 1223.22 L1084.84 1227.1 L1079.91 1227.1 L1079.91 1235.25 L1075.25 1235.25 L1075.25 1227.1 L1059.65 1227.1 L1059.65 1222.59 L1074.03 1200.69 Z" fill="#000000" fill-rule="nonzero" fill-opacity="1" /><path clip-path="url(#clip870)" d="M1102.57 1203.77 Q1098.96 1203.77 1097.13 1207.34 Q1095.32 1210.88 1095.32 1218.01 Q1095.32 1225.11 1097.13 1228.68 Q1098.96 1232.22 1102.57 1232.22 Q1106.2 1232.22 1108.01 1228.68 Q1109.84 1225.11 1109.84 1218.01 Q1109.84 1210.88 1108.01 1207.34 Q1106.2 1203.77 1102.57 1203.77 M1102.57 1200.07 Q1108.38 1200.07 1111.43 1204.67 Q1114.51 1209.26 1114.51 1218.01 Q1114.51 1226.73 1111.43 1231.34 Q1108.38 1235.92 1102.57 1235.92 Q1096.76 1235.92 1093.68 1231.34 Q1090.62 1226.73 1090.62 1218.01 Q1090.62 1209.26 1093.68 1204.67 Q1096.76 1200.07 1102.57 1200.07 Z" fill="#000000" fill-rule="nonzero" fill-opacity="1" /><path clip-path="url(#clip870)" d="M1132.73 1203.77 Q1129.12 1203.77 1127.29 1207.34 Q1125.48 1210.88 1125.48 1218.01 Q1125.48 1225.11 1127.29 1228.68 Q1129.12 1232.22 1132.73 1232.22 Q1136.36 1232.22 1138.17 1228.68 Q1140 1225.11 1140 1218.01 Q1140 1210.88 1138.17 1207.34 Q1136.36 1203.77 1132.73 1203.77 M1132.73 1200.07 Q1138.54 1200.07 1141.59 1204.67 Q1144.67 1209.26 1144.67 1218.01 Q1144.67 1226.73 1141.59 1231.34 Q1138.54 1235.92 1132.73 1235.92 Q1126.92 1235.92 1123.84 1231.34 Q1120.78 1226.73 1120.78 1218.01 Q1120.78 1209.26 1123.84 1204.67 Q1126.92 1200.07 1132.73 1200.07 Z" fill="#000000" fill-rule="nonzero" fill-opacity="1" /><path clip-path="url(#clip870)" d="M1125.77 1224.94 L1155.45 1224.94 L1155.45 1228.88 L1125.77 1228.88 L1125.77 1224.94 Z" fill="#000000" fill-rule="nonzero" fill-opacity="1" /><path clip-path="url(#clip870)" d="M1169.57 1237.84 L1185.89 1237.84 L1185.89 1241.77 L1163.94 1241.77 L1163.94 1237.84 Q1166.6 1235.08 1171.19 1230.45 Q1175.79 1225.8 1176.97 1224.46 Q1179.22 1221.93 1180.1 1220.2 Q1181 1218.44 1181 1216.75 Q1181 1213.99 1179.06 1212.26 Q1177.14 1210.52 1174.03 1210.52 Q1171.84 1210.52 1169.38 1211.28 Q1166.95 1212.05 1164.17 1213.6 L1164.17 1208.88 Q1167 1207.74 1169.45 1207.16 Q1171.9 1206.59 1173.94 1206.59 Q1179.31 1206.59 1182.51 1209.27 Q1185.7 1211.96 1185.7 1216.45 Q1185.7 1218.58 1184.89 1220.5 Q1184.1 1222.4 1182 1224.99 Q1181.42 1225.66 1178.32 1228.88 Q1175.21 1232.07 1169.57 1237.84 Z" fill="#000000" fill-rule="nonzero" fill-opacity="1" /><path clip-path="url(#clip870)" d="M1205.7 1210.29 Q1202.09 1210.29 1200.26 1213.85 Q1198.46 1217.4 1198.46 1224.53 Q1198.46 1231.63 1200.26 1235.2 Q1202.09 1238.74 1205.7 1238.74 Q1209.34 1238.74 1211.14 1235.2 Q1212.97 1231.63 1212.97 1224.53 Q1212.97 1217.4 1211.14 1213.85 Q1209.34 1210.29 1205.7 1210.29 M1205.7 1206.59 Q1211.51 1206.59 1214.57 1211.19 Q1217.65 1215.78 1217.65 1224.53 Q1217.65 1233.25 1214.57 1237.86 Q1211.51 1242.44 1205.7 1242.44 Q1199.89 1242.44 1196.81 1237.86 Q1193.76 1233.25 1193.76 1224.53 Q1193.76 1215.78 1196.81 1211.19 Q1199.89 1206.59 1205.7 1206.59 Z" fill="#000000" fill-rule="nonzero" fill-opacity="1" /><path clip-path="url(#clip870)" d="M1235.86 1210.29 Q1232.25 1210.29 1230.42 1213.85 Q1228.62 1217.4 1228.62 1224.53 Q1228.62 1231.63 1230.42 1235.2 Q1232.25 1238.74 1235.86 1238.74 Q1239.5 1238.74 1241.3 1235.2 Q1243.13 1231.63 1243.13 1224.53 Q1243.13 1217.4 1241.3 1213.85 Q1239.5 1210.29 1235.86 1210.29 M1235.86 1206.59 Q1241.67 1206.59 1244.73 1211.19 Q1247.81 1215.78 1247.81 1224.53 Q1247.81 1233.25 1244.73 1237.86 Q1241.67 1242.44 1235.86 1242.44 Q1230.05 1242.44 1226.97 1237.86 Q1223.92 1233.25 1223.92 1224.53 Q1223.92 1215.78 1226.97 1211.19 Q1230.05 1206.59 1235.86 1206.59 Z" fill="#000000" fill-rule="nonzero" fill-opacity="1" /><path clip-path="url(#clip870)" d="M1339 1216.81 Q1335.39 1216.81 1333.56 1220.37 Q1331.75 1223.91 1331.75 1231.04 Q1331.75 1238.15 1333.56 1241.72 Q1335.39 1245.26 1339 1245.26 Q1342.63 1245.26 1344.44 1241.72 Q1346.26 1238.15 1346.26 1231.04 Q1346.26 1223.91 1344.44 1220.37 Q1342.63 1216.81 1339 1216.81 M1339 1213.1 Q1344.81 1213.1 1347.86 1217.71 Q1350.94 1222.29 1350.94 1231.04 Q1350.94 1239.77 1347.86 1244.38 Q1344.81 1248.96 1339 1248.96 Q1333.19 1248.96 1330.11 1244.38 Q1327.05 1239.77 1327.05 1231.04 Q1327.05 1222.29 1330.11 1217.71 Q1333.19 1213.1 1339 1213.1 Z" fill="#000000" fill-rule="nonzero" fill-opacity="1" /><path clip-path="url(#clip870)" d="M1375.83 1250.87 L1392.15 1250.87 L1392.15 1254.81 L1370.21 1254.81 L1370.21 1250.87 Q1372.87 1248.12 1377.45 1243.49 Q1382.06 1238.84 1383.24 1237.49 Q1385.49 1234.97 1386.37 1233.23 Q1387.27 1231.47 1387.27 1229.78 Q1387.27 1227.03 1385.32 1225.29 Q1383.4 1223.56 1380.3 1223.56 Q1378.1 1223.56 1375.65 1224.32 Q1373.22 1225.09 1370.44 1226.64 L1370.44 1221.91 Q1373.26 1220.78 1375.72 1220.2 Q1378.17 1219.62 1380.21 1219.62 Q1385.58 1219.62 1388.77 1222.31 Q1391.97 1224.99 1391.97 1229.48 Q1391.97 1231.61 1391.16 1233.53 Q1390.37 1235.43 1388.26 1238.03 Q1387.69 1238.7 1384.58 1241.91 Q1381.48 1245.11 1375.83 1250.87 Z" fill="#000000" fill-rule="nonzero" fill-opacity="1" /><path clip-path="url(#clip870)" d="M1411.97 1223.33 Q1408.36 1223.33 1406.53 1226.89 Q1404.72 1230.43 1404.72 1237.56 Q1404.72 1244.67 1406.53 1248.23 Q1408.36 1251.78 1411.97 1251.78 Q1415.6 1251.78 1417.41 1248.23 Q1419.24 1244.67 1419.24 1237.56 Q1419.24 1230.43 1417.41 1226.89 Q1415.6 1223.33 1411.97 1223.33 M1411.97 1219.62 Q1417.78 1219.62 1420.83 1224.23 Q1423.91 1228.81 1423.91 1237.56 Q1423.91 1246.29 1420.83 1250.9 Q1417.78 1255.48 1411.97 1255.48 Q1406.16 1255.48 1403.08 1250.9 Q1400.02 1246.29 1400.02 1237.56 Q1400.02 1228.81 1403.08 1224.23 Q1406.16 1219.62 1411.97 1219.62 Z" fill="#000000" fill-rule="nonzero" fill-opacity="1" /><path clip-path="url(#clip870)" d="M1442.13 1223.33 Q1438.52 1223.33 1436.69 1226.89 Q1434.88 1230.43 1434.88 1237.56 Q1434.88 1244.67 1436.69 1248.23 Q1438.52 1251.78 1442.13 1251.78 Q1445.76 1251.78 1447.57 1248.23 Q1449.4 1244.67 1449.4 1237.56 Q1449.4 1230.43 1447.57 1226.89 Q1445.76 1223.33 1442.13 1223.33 M1442.13 1219.62 Q1447.94 1219.62 1451 1224.23 Q1454.07 1228.81 1454.07 1237.56 Q1454.07 1246.29 1451 1250.9 Q1447.94 1255.48 1442.13 1255.48 Q1436.32 1255.48 1433.24 1250.9 Q1430.19 1246.29 1430.19 1237.56 Q1430.19 1228.81 1433.24 1224.23 Q1436.32 1219.62 1442.13 1219.62 Z" fill="#000000" fill-rule="nonzero" fill-opacity="1" /><path clip-path="url(#clip870)" d="M1003.04 1329.1 L1003.04 1346.95 L1011.13 1346.95 Q1015.62 1346.95 1018.07 1344.63 Q1020.52 1342.31 1020.52 1338.01 Q1020.52 1333.74 1018.07 1331.42 Q1015.62 1329.1 1011.13 1329.1 L1003.04 1329.1 M996.615 1323.81 L1011.13 1323.81 Q1019.12 1323.81 1023.19 1327.44 Q1027.3 1331.04 1027.3 1338.01 Q1027.3 1345.04 1023.19 1348.64 Q1019.12 1352.24 1011.13 1352.24 L1003.04 1352.24 L1003.04 1371.33 L996.615 1371.33 L996.615 1323.81 Z" fill="#000000" fill-rule="nonzero" fill-opacity="1" /><path clip-path="url(#clip870)" d="M1071.51 1327.47 L1071.51 1334.25 Q1068.26 1331.23 1064.57 1329.73 Q1060.91 1328.24 1056.77 1328.24 Q1048.62 1328.24 1044.29 1333.23 Q1039.97 1338.2 1039.97 1347.62 Q1039.97 1357.01 1044.29 1362.01 Q1048.62 1366.97 1056.77 1366.97 Q1060.91 1366.97 1064.57 1365.48 Q1068.26 1363.98 1071.51 1360.96 L1071.51 1367.67 Q1068.13 1369.96 1064.35 1371.11 Q1060.59 1372.26 1056.39 1372.26 Q1045.6 1372.26 1039.39 1365.67 Q1033.19 1359.05 1033.19 1347.62 Q1033.19 1336.16 1039.39 1329.57 Q1045.6 1322.95 1056.39 1322.95 Q1060.65 1322.95 1064.41 1324.1 Q1068.2 1325.21 1071.51 1327.47 Z" fill="#000000" fill-rule="nonzero" fill-opacity="1" /><path clip-path="url(#clip870)" d="M1083.13 1365.92 L1093.63 1365.92 L1093.63 1329.67 L1082.2 1331.96 L1082.2 1326.1 L1093.56 1323.81 L1099.99 1323.81 L1099.99 1365.92 L1110.5 1365.92 L1110.5 1371.33 L1083.13 1371.33 L1083.13 1365.92 Z" fill="#000000" fill-rule="nonzero" fill-opacity="1" /><polyline clip-path="url(#clip870)" style="stroke:#000000; stroke-linecap:round; stroke-linejoin:round; stroke-width:4; stroke-opacity:1; fill:none" points="1549.92,1214.78 1821.62,1085.15 "/>
<polyline clip-path="url(#clip870)" style="stroke:#000000; stroke-linecap:round; stroke-linejoin:round; stroke-width:4; stroke-opacity:1; fill:none" points="1569.94,1205.23 1560.98,1204.66 "/>
<polyline clip-path="url(#clip870)" style="stroke:#000000; stroke-linecap:round; stroke-linejoin:round; stroke-width:4; stroke-opacity:1; fill:none" points="1606.61,1187.73 1597.65,1187.17 "/>
<polyline clip-path="url(#clip870)" style="stroke:#000000; stroke-linecap:round; stroke-linejoin:round; stroke-width:4; stroke-opacity:1; fill:none" points="1643.28,1170.24 1634.32,1169.67 "/>
<polyline clip-path="url(#clip870)" style="stroke:#000000; stroke-linecap:round; stroke-linejoin:round; stroke-width:4; stroke-opacity:1; fill:none" points="1679.95,1152.74 1670.99,1152.18 "/>
<polyline clip-path="url(#clip870)" style="stroke:#000000; stroke-linecap:round; stroke-linejoin:round; stroke-width:4; stroke-opacity:1; fill:none" points="1716.62,1135.25 1707.66,1134.68 "/>
<polyline clip-path="url(#clip870)" style="stroke:#000000; stroke-linecap:round; stroke-linejoin:round; stroke-width:4; stroke-opacity:1; fill:none" points="1753.29,1117.75 1744.33,1117.19 "/>
<polyline clip-path="url(#clip870)" style="stroke:#000000; stroke-linecap:round; stroke-linejoin:round; stroke-width:4; stroke-opacity:1; fill:none" points="1789.96,1100.26 1781,1099.69 "/>
<path clip-path="url(#clip870)" d="M1589.58 1226.75 L1619.26 1226.75 L1619.26 1230.68 L1589.58 1230.68 L1589.58 1226.75 Z" fill="#000000" fill-rule="nonzero" fill-opacity="1" /><path clip-path="url(#clip870)" d="M1643.51 1224.94 Q1646.87 1225.66 1648.75 1227.93 Q1650.64 1230.19 1650.64 1233.53 Q1650.64 1238.64 1647.13 1241.44 Q1643.61 1244.25 1637.13 1244.25 Q1634.95 1244.25 1632.64 1243.81 Q1630.34 1243.39 1627.89 1242.53 L1627.89 1238.02 Q1629.83 1239.15 1632.15 1239.73 Q1634.46 1240.31 1636.99 1240.31 Q1641.39 1240.31 1643.68 1238.57 Q1645.99 1236.84 1645.99 1233.53 Q1645.99 1230.47 1643.84 1228.76 Q1641.71 1227.02 1637.89 1227.02 L1633.86 1227.02 L1633.86 1223.18 L1638.08 1223.18 Q1641.52 1223.18 1643.35 1221.81 Q1645.18 1220.43 1645.18 1217.83 Q1645.18 1215.17 1643.28 1213.76 Q1641.41 1212.32 1637.89 1212.32 Q1635.97 1212.32 1633.77 1212.74 Q1631.57 1213.16 1628.93 1214.04 L1628.93 1209.87 Q1631.59 1209.13 1633.91 1208.76 Q1636.25 1208.39 1638.31 1208.39 Q1643.63 1208.39 1646.73 1210.82 Q1649.83 1213.23 1649.83 1217.35 Q1649.83 1220.22 1648.19 1222.21 Q1646.55 1224.18 1643.51 1224.94 Z" fill="#000000" fill-rule="nonzero" fill-opacity="1" /><path clip-path="url(#clip870)" d="M1669.51 1212.09 Q1665.9 1212.09 1664.07 1215.66 Q1662.26 1219.2 1662.26 1226.33 Q1662.26 1233.44 1664.07 1237 Q1665.9 1240.54 1669.51 1240.54 Q1673.14 1240.54 1674.95 1237 Q1676.78 1233.44 1676.78 1226.33 Q1676.78 1219.2 1674.95 1215.66 Q1673.14 1212.09 1669.51 1212.09 M1669.51 1208.39 Q1675.32 1208.39 1678.38 1213 Q1681.45 1217.58 1681.45 1226.33 Q1681.45 1235.06 1678.38 1239.66 Q1675.32 1244.25 1669.51 1244.25 Q1663.7 1244.25 1660.62 1239.66 Q1657.57 1235.06 1657.57 1226.33 Q1657.57 1217.58 1660.62 1213 Q1663.7 1208.39 1669.51 1208.39 Z" fill="#000000" fill-rule="nonzero" fill-opacity="1" /><path clip-path="url(#clip870)" d="M1699.67 1212.09 Q1696.06 1212.09 1694.23 1215.66 Q1692.43 1219.2 1692.43 1226.33 Q1692.43 1233.44 1694.23 1237 Q1696.06 1240.54 1699.67 1240.54 Q1703.31 1240.54 1705.11 1237 Q1706.94 1233.44 1706.94 1226.33 Q1706.94 1219.2 1705.11 1215.66 Q1703.31 1212.09 1699.67 1212.09 M1699.67 1208.39 Q1705.48 1208.39 1708.54 1213 Q1711.62 1217.58 1711.62 1226.33 Q1711.62 1235.06 1708.54 1239.66 Q1705.48 1244.25 1699.67 1244.25 Q1693.86 1244.25 1690.78 1239.66 Q1687.73 1235.06 1687.73 1226.33 Q1687.73 1217.58 1690.78 1213 Q1693.86 1208.39 1699.67 1208.39 Z" fill="#000000" fill-rule="nonzero" fill-opacity="1" /><path clip-path="url(#clip870)" d="M1626.25 1209.25 L1655.93 1209.25 L1655.93 1213.19 L1626.25 1213.19 L1626.25 1209.25 Z" fill="#000000" fill-rule="nonzero" fill-opacity="1" /><path clip-path="url(#clip870)" d="M1670.05 1222.14 L1686.37 1222.14 L1686.37 1226.08 L1664.42 1226.08 L1664.42 1222.14 Q1667.08 1219.39 1671.67 1214.76 Q1676.27 1210.11 1677.45 1208.76 Q1679.7 1206.24 1680.58 1204.51 Q1681.48 1202.75 1681.48 1201.06 Q1681.48 1198.3 1679.54 1196.57 Q1677.62 1194.83 1674.51 1194.83 Q1672.31 1194.83 1669.86 1195.59 Q1667.43 1196.36 1664.65 1197.91 L1664.65 1193.19 Q1667.48 1192.05 1669.93 1191.47 Q1672.38 1190.89 1674.42 1190.89 Q1679.79 1190.89 1682.99 1193.58 Q1686.18 1196.26 1686.18 1200.76 Q1686.18 1202.88 1685.37 1204.81 Q1684.58 1206.7 1682.48 1209.3 Q1681.9 1209.97 1678.8 1213.19 Q1675.69 1216.38 1670.05 1222.14 Z" fill="#000000" fill-rule="nonzero" fill-opacity="1" /><path clip-path="url(#clip870)" d="M1706.18 1194.6 Q1702.57 1194.6 1700.74 1198.16 Q1698.93 1201.7 1698.93 1208.83 Q1698.93 1215.94 1700.74 1219.5 Q1702.57 1223.05 1706.18 1223.05 Q1709.81 1223.05 1711.62 1219.5 Q1713.45 1215.94 1713.45 1208.83 Q1713.45 1201.7 1711.62 1198.16 Q1709.81 1194.6 1706.18 1194.6 M1706.18 1190.89 Q1711.99 1190.89 1715.05 1195.5 Q1718.12 1200.08 1718.12 1208.83 Q1718.12 1217.56 1715.05 1222.17 Q1711.99 1226.75 1706.18 1226.75 Q1700.37 1226.75 1697.29 1222.17 Q1694.24 1217.56 1694.24 1208.83 Q1694.24 1200.08 1697.29 1195.5 Q1700.37 1190.89 1706.18 1190.89 Z" fill="#000000" fill-rule="nonzero" fill-opacity="1" /><path clip-path="url(#clip870)" d="M1736.34 1194.6 Q1732.73 1194.6 1730.9 1198.16 Q1729.1 1201.7 1729.1 1208.83 Q1729.1 1215.94 1730.9 1219.5 Q1732.73 1223.05 1736.34 1223.05 Q1739.98 1223.05 1741.78 1219.5 Q1743.61 1215.94 1743.61 1208.83 Q1743.61 1201.7 1741.78 1198.16 Q1739.98 1194.6 1736.34 1194.6 M1736.34 1190.89 Q1742.15 1190.89 1745.21 1195.5 Q1748.29 1200.08 1748.29 1208.83 Q1748.29 1217.56 1745.21 1222.17 Q1742.15 1226.75 1736.34 1226.75 Q1730.53 1226.75 1727.45 1222.17 Q1724.4 1217.56 1724.4 1208.83 Q1724.4 1200.08 1727.45 1195.5 Q1730.53 1190.89 1736.34 1190.89 Z" fill="#000000" fill-rule="nonzero" fill-opacity="1" /><path clip-path="url(#clip870)" d="M1662.92 1191.76 L1692.6 1191.76 L1692.6 1195.69 L1662.92 1195.69 L1662.92 1191.76 Z" fill="#000000" fill-rule="nonzero" fill-opacity="1" /><path clip-path="url(#clip870)" d="M1703.5 1204.65 L1711.14 1204.65 L1711.14 1178.28 L1702.83 1179.95 L1702.83 1175.69 L1711.09 1174.02 L1715.77 1174.02 L1715.77 1204.65 L1723.41 1204.65 L1723.41 1208.58 L1703.5 1208.58 L1703.5 1204.65 Z" fill="#000000" fill-rule="nonzero" fill-opacity="1" /><path clip-path="url(#clip870)" d="M1742.85 1177.1 Q1739.24 1177.1 1737.41 1180.67 Q1735.6 1184.21 1735.6 1191.34 Q1735.6 1198.45 1737.41 1202.01 Q1739.24 1205.55 1742.85 1205.55 Q1746.48 1205.55 1748.29 1202.01 Q1750.12 1198.45 1750.12 1191.34 Q1750.12 1184.21 1748.29 1180.67 Q1746.48 1177.1 1742.85 1177.1 M1742.85 1173.4 Q1748.66 1173.4 1751.72 1178.01 Q1754.79 1182.59 1754.79 1191.34 Q1754.79 1200.07 1751.72 1204.67 Q1748.66 1209.26 1742.85 1209.26 Q1737.04 1209.26 1733.96 1204.67 Q1730.91 1200.07 1730.91 1191.34 Q1730.91 1182.59 1733.96 1178.01 Q1737.04 1173.4 1742.85 1173.4 Z" fill="#000000" fill-rule="nonzero" fill-opacity="1" /><path clip-path="url(#clip870)" d="M1773.01 1177.1 Q1769.4 1177.1 1767.57 1180.67 Q1765.77 1184.21 1765.77 1191.34 Q1765.77 1198.45 1767.57 1202.01 Q1769.4 1205.55 1773.01 1205.55 Q1776.65 1205.55 1778.45 1202.01 Q1780.28 1198.45 1780.28 1191.34 Q1780.28 1184.21 1778.45 1180.67 Q1776.65 1177.1 1773.01 1177.1 M1773.01 1173.4 Q1778.82 1173.4 1781.88 1178.01 Q1784.96 1182.59 1784.96 1191.34 Q1784.96 1200.07 1781.88 1204.67 Q1778.82 1209.26 1773.01 1209.26 Q1767.2 1209.26 1764.12 1204.67 Q1761.07 1200.07 1761.07 1191.34 Q1761.07 1182.59 1764.12 1178.01 Q1767.2 1173.4 1773.01 1173.4 Z" fill="#000000" fill-rule="nonzero" fill-opacity="1" /><path clip-path="url(#clip870)" d="M1711.53 1159.61 Q1707.92 1159.61 1706.09 1163.17 Q1704.29 1166.71 1704.29 1173.84 Q1704.29 1180.95 1706.09 1184.52 Q1707.92 1188.06 1711.53 1188.06 Q1715.17 1188.06 1716.97 1184.52 Q1718.8 1180.95 1718.8 1173.84 Q1718.8 1166.71 1716.97 1163.17 Q1715.17 1159.61 1711.53 1159.61 M1711.53 1155.9 Q1717.34 1155.9 1720.4 1160.51 Q1723.48 1165.09 1723.48 1173.84 Q1723.48 1182.57 1720.4 1187.18 Q1717.34 1191.76 1711.53 1191.76 Q1705.72 1191.76 1702.65 1187.18 Q1699.59 1182.57 1699.59 1173.84 Q1699.59 1165.09 1702.65 1160.51 Q1705.72 1155.9 1711.53 1155.9 Z" fill="#000000" fill-rule="nonzero" fill-opacity="1" /><path clip-path="url(#clip870)" d="M1736.93 1169.66 L1744.57 1169.66 L1744.57 1143.29 L1736.26 1144.96 L1736.26 1140.7 L1744.52 1139.03 L1749.2 1139.03 L1749.2 1169.66 L1756.84 1169.66 L1756.84 1173.59 L1736.93 1173.59 L1736.93 1169.66 Z" fill="#000000" fill-rule="nonzero" fill-opacity="1" /><path clip-path="url(#clip870)" d="M1776.28 1142.11 Q1772.67 1142.11 1770.84 1145.68 Q1769.04 1149.22 1769.04 1156.35 Q1769.04 1163.46 1770.84 1167.02 Q1772.67 1170.56 1776.28 1170.56 Q1779.92 1170.56 1781.72 1167.02 Q1783.55 1163.46 1783.55 1156.35 Q1783.55 1149.22 1781.72 1145.68 Q1779.92 1142.11 1776.28 1142.11 M1776.28 1138.41 Q1782.09 1138.41 1785.15 1143.02 Q1788.23 1147.6 1788.23 1156.35 Q1788.23 1165.08 1785.15 1169.68 Q1782.09 1174.27 1776.28 1174.27 Q1770.47 1174.27 1767.39 1169.68 Q1764.34 1165.08 1764.34 1156.35 Q1764.34 1147.6 1767.39 1143.02 Q1770.47 1138.41 1776.28 1138.41 Z" fill="#000000" fill-rule="nonzero" fill-opacity="1" /><path clip-path="url(#clip870)" d="M1806.44 1142.11 Q1802.83 1142.11 1801 1145.68 Q1799.2 1149.22 1799.2 1156.35 Q1799.2 1163.46 1801 1167.02 Q1802.83 1170.56 1806.44 1170.56 Q1810.08 1170.56 1811.88 1167.02 Q1813.71 1163.46 1813.71 1156.35 Q1813.71 1149.22 1811.88 1145.68 Q1810.08 1142.11 1806.44 1142.11 M1806.44 1138.41 Q1812.25 1138.41 1815.31 1143.02 Q1818.39 1147.6 1818.39 1156.35 Q1818.39 1165.08 1815.31 1169.68 Q1812.25 1174.27 1806.44 1174.27 Q1800.63 1174.27 1797.56 1169.68 Q1794.5 1165.08 1794.5 1156.35 Q1794.5 1147.6 1797.56 1143.02 Q1800.63 1138.41 1806.44 1138.41 Z" fill="#000000" fill-rule="nonzero" fill-opacity="1" /><path clip-path="url(#clip870)" d="M1778.55 1152.16 L1794.87 1152.16 L1794.87 1156.1 L1772.93 1156.1 L1772.93 1152.16 Q1775.59 1149.41 1780.17 1144.78 Q1784.78 1140.13 1785.96 1138.78 Q1788.21 1136.26 1789.09 1134.53 Q1789.99 1132.77 1789.99 1131.08 Q1789.99 1128.32 1788.04 1126.59 Q1786.12 1124.85 1783.02 1124.85 Q1780.82 1124.85 1778.37 1125.61 Q1775.94 1126.38 1773.16 1127.93 L1773.16 1123.21 Q1775.98 1122.07 1778.44 1121.49 Q1780.89 1120.91 1782.93 1120.91 Q1788.3 1120.91 1791.49 1123.6 Q1794.69 1126.28 1794.69 1130.78 Q1794.69 1132.9 1793.88 1134.83 Q1793.09 1136.72 1790.98 1139.32 Q1790.41 1139.99 1787.3 1143.21 Q1784.2 1146.4 1778.55 1152.16 Z" fill="#000000" fill-rule="nonzero" fill-opacity="1" /><path clip-path="url(#clip870)" d="M1814.69 1124.62 Q1811.08 1124.62 1809.25 1128.18 Q1807.44 1131.72 1807.44 1138.85 Q1807.44 1145.96 1809.25 1149.53 Q1811.08 1153.07 1814.69 1153.07 Q1818.32 1153.07 1820.13 1149.53 Q1821.96 1145.96 1821.96 1138.85 Q1821.96 1131.72 1820.13 1128.18 Q1818.32 1124.62 1814.69 1124.62 M1814.69 1120.91 Q1820.5 1120.91 1823.55 1125.52 Q1826.63 1130.1 1826.63 1138.85 Q1826.63 1147.58 1823.55 1152.19 Q1820.5 1156.77 1814.69 1156.77 Q1808.88 1156.77 1805.8 1152.19 Q1802.74 1147.58 1802.74 1138.85 Q1802.74 1130.1 1805.8 1125.52 Q1808.88 1120.91 1814.69 1120.91 Z" fill="#000000" fill-rule="nonzero" fill-opacity="1" /><path clip-path="url(#clip870)" d="M1844.85 1124.62 Q1841.24 1124.62 1839.41 1128.18 Q1837.6 1131.72 1837.6 1138.85 Q1837.6 1145.96 1839.41 1149.53 Q1841.24 1153.07 1844.85 1153.07 Q1848.48 1153.07 1850.29 1149.53 Q1852.12 1145.96 1852.12 1138.85 Q1852.12 1131.72 1850.29 1128.18 Q1848.48 1124.62 1844.85 1124.62 M1844.85 1120.91 Q1850.66 1120.91 1853.72 1125.52 Q1856.79 1130.1 1856.79 1138.85 Q1856.79 1147.58 1853.72 1152.19 Q1850.66 1156.77 1844.85 1156.77 Q1839.04 1156.77 1835.96 1152.19 Q1832.91 1147.58 1832.91 1138.85 Q1832.91 1130.1 1835.96 1125.52 Q1839.04 1120.91 1844.85 1120.91 Z" fill="#000000" fill-rule="nonzero" fill-opacity="1" /><path clip-path="url(#clip870)" d="M1825.22 1119.97 Q1828.58 1120.69 1830.46 1122.96 Q1832.35 1125.22 1832.35 1128.56 Q1832.35 1133.67 1828.84 1136.47 Q1825.32 1139.28 1818.84 1139.28 Q1816.66 1139.28 1814.34 1138.84 Q1812.05 1138.42 1809.6 1137.56 L1809.6 1133.05 Q1811.54 1134.18 1813.86 1134.76 Q1816.17 1135.34 1818.7 1135.34 Q1823.09 1135.34 1825.39 1133.6 Q1827.7 1131.87 1827.7 1128.56 Q1827.7 1125.5 1825.55 1123.79 Q1823.42 1122.05 1819.6 1122.05 L1815.57 1122.05 L1815.57 1118.21 L1819.78 1118.21 Q1823.23 1118.21 1825.06 1116.84 Q1826.89 1115.46 1826.89 1112.86 Q1826.89 1110.2 1824.99 1108.79 Q1823.12 1107.35 1819.6 1107.35 Q1817.68 1107.35 1815.48 1107.77 Q1813.28 1108.19 1810.64 1109.07 L1810.64 1104.9 Q1813.3 1104.16 1815.62 1103.79 Q1817.96 1103.42 1820.02 1103.42 Q1825.34 1103.42 1828.44 1105.85 Q1831.54 1108.26 1831.54 1112.38 Q1831.54 1115.25 1829.9 1117.24 Q1828.26 1119.21 1825.22 1119.97 Z" fill="#000000" fill-rule="nonzero" fill-opacity="1" /><path clip-path="url(#clip870)" d="M1851.22 1107.12 Q1847.61 1107.12 1845.78 1110.69 Q1843.97 1114.23 1843.97 1121.36 Q1843.97 1128.47 1845.78 1132.03 Q1847.61 1135.57 1851.22 1135.57 Q1854.85 1135.57 1856.66 1132.03 Q1858.49 1128.47 1858.49 1121.36 Q1858.49 1114.23 1856.66 1110.69 Q1854.85 1107.12 1851.22 1107.12 M1851.22 1103.42 Q1857.03 1103.42 1860.08 1108.03 Q1863.16 1112.61 1863.16 1121.36 Q1863.16 1130.09 1860.08 1134.69 Q1857.03 1139.28 1851.22 1139.28 Q1845.41 1139.28 1842.33 1134.69 Q1839.27 1130.09 1839.27 1121.36 Q1839.27 1112.61 1842.33 1108.03 Q1845.41 1103.42 1851.22 1103.42 Z" fill="#000000" fill-rule="nonzero" fill-opacity="1" /><path clip-path="url(#clip870)" d="M1881.38 1107.12 Q1877.77 1107.12 1875.94 1110.69 Q1874.14 1114.23 1874.14 1121.36 Q1874.14 1128.47 1875.94 1132.03 Q1877.77 1135.57 1881.38 1135.57 Q1885.02 1135.57 1886.82 1132.03 Q1888.65 1128.47 1888.65 1121.36 Q1888.65 1114.23 1886.82 1110.69 Q1885.02 1107.12 1881.38 1107.12 M1881.38 1103.42 Q1887.19 1103.42 1890.25 1108.03 Q1893.33 1112.61 1893.33 1121.36 Q1893.33 1130.09 1890.25 1134.69 Q1887.19 1139.28 1881.38 1139.28 Q1875.57 1139.28 1872.49 1134.69 Q1869.44 1130.09 1869.44 1121.36 Q1869.44 1112.61 1872.49 1108.03 Q1875.57 1103.42 1881.38 1103.42 Z" fill="#000000" fill-rule="nonzero" fill-opacity="1" /><path clip-path="url(#clip870)" d="M1758.63 1287.87 L1758.63 1305.73 L1766.72 1305.73 Q1771.21 1305.73 1773.66 1303.41 Q1776.11 1301.08 1776.11 1296.79 Q1776.11 1292.52 1773.66 1290.2 Q1771.21 1287.87 1766.72 1287.87 L1758.63 1287.87 M1752.2 1282.59 L1766.72 1282.59 Q1774.71 1282.59 1778.78 1286.22 Q1782.89 1289.82 1782.89 1296.79 Q1782.89 1303.82 1778.78 1307.42 Q1774.71 1311.01 1766.72 1311.01 L1758.63 1311.01 L1758.63 1330.11 L1752.2 1330.11 L1752.2 1282.59 Z" fill="#000000" fill-rule="nonzero" fill-opacity="1" /><path clip-path="url(#clip870)" d="M1827.1 1286.25 L1827.1 1293.03 Q1823.85 1290.01 1820.16 1288.51 Q1816.5 1287.01 1812.36 1287.01 Q1804.21 1287.01 1799.88 1292.01 Q1795.55 1296.98 1795.55 1306.4 Q1795.55 1315.79 1799.88 1320.78 Q1804.21 1325.75 1812.36 1325.75 Q1816.5 1325.75 1820.16 1324.25 Q1823.85 1322.76 1827.1 1319.73 L1827.1 1326.45 Q1823.72 1328.74 1819.94 1329.89 Q1816.18 1331.03 1811.98 1331.03 Q1801.19 1331.03 1794.98 1324.44 Q1788.78 1317.82 1788.78 1306.4 Q1788.78 1294.94 1794.98 1288.35 Q1801.19 1281.73 1811.98 1281.73 Q1816.24 1281.73 1820 1282.88 Q1823.79 1283.99 1827.1 1286.25 Z" fill="#000000" fill-rule="nonzero" fill-opacity="1" /><path clip-path="url(#clip870)" d="M1843.14 1324.7 L1865.58 1324.7 L1865.58 1330.11 L1835.4 1330.11 L1835.4 1324.7 Q1839.06 1320.91 1845.37 1314.55 Q1851.7 1308.15 1853.32 1306.3 Q1856.41 1302.83 1857.62 1300.45 Q1858.86 1298.03 1858.86 1295.7 Q1858.86 1291.92 1856.19 1289.53 Q1853.55 1287.14 1849.28 1287.14 Q1846.26 1287.14 1842.88 1288.19 Q1839.54 1289.24 1835.72 1291.37 L1835.72 1284.88 Q1839.61 1283.32 1842.98 1282.53 Q1846.35 1281.73 1849.15 1281.73 Q1856.54 1281.73 1860.93 1285.42 Q1865.32 1289.12 1865.32 1295.29 Q1865.32 1298.22 1864.21 1300.86 Q1863.13 1303.47 1860.23 1307.03 Q1859.43 1307.96 1855.17 1312.38 Q1850.9 1316.77 1843.14 1324.7 Z" fill="#000000" fill-rule="nonzero" fill-opacity="1" /><polyline clip-path="url(#clip870)" style="stroke:#000000; stroke-linecap:round; stroke-linejoin:round; stroke-width:4; stroke-opacity:1; fill:none" points="803.432,1167.6 803.432,385.271 "/>
<polyline clip-path="url(#clip870)" style="stroke:#000000; stroke-linecap:round; stroke-linejoin:round; stroke-width:4; stroke-opacity:1; fill:none" points="803.432,1064.58 806.692,1063.02 "/>
<polyline clip-path="url(#clip870)" style="stroke:#000000; stroke-linecap:round; stroke-linejoin:round; stroke-width:4; stroke-opacity:1; fill:none" points="803.432,947.268 806.692,945.712 "/>
<polyline clip-path="url(#clip870)" style="stroke:#000000; stroke-linecap:round; stroke-linejoin:round; stroke-width:4; stroke-opacity:1; fill:none" points="803.432,829.96 806.692,828.404 "/>
<polyline clip-path="url(#clip870)" style="stroke:#000000; stroke-linecap:round; stroke-linejoin:round; stroke-width:4; stroke-opacity:1; fill:none" points="803.432,712.652 806.692,711.097 "/>
<polyline clip-path="url(#clip870)" style="stroke:#000000; stroke-linecap:round; stroke-linejoin:round; stroke-width:4; stroke-opacity:1; fill:none" points="803.432,595.344 806.692,593.789 "/>
<polyline clip-path="url(#clip870)" style="stroke:#000000; stroke-linecap:round; stroke-linejoin:round; stroke-width:4; stroke-opacity:1; fill:none" points="803.432,478.036 806.692,476.481 "/>
<path clip-path="url(#clip870)" d="M652.596 1065.03 L682.271 1065.03 L682.271 1068.96 L652.596 1068.96 L652.596 1065.03 Z" fill="#000000" fill-rule="nonzero" fill-opacity="1" /><path clip-path="url(#clip870)" d="M693.174 1077.92 L700.813 1077.92 L700.813 1051.56 L692.503 1053.22 L692.503 1048.96 L700.767 1047.3 L705.442 1047.3 L705.442 1077.92 L713.081 1077.92 L713.081 1081.86 L693.174 1081.86 L693.174 1077.92 Z" fill="#000000" fill-rule="nonzero" fill-opacity="1" /><path clip-path="url(#clip870)" d="M732.526 1050.37 Q728.915 1050.37 727.086 1053.94 Q725.28 1057.48 725.28 1064.61 Q725.28 1071.72 727.086 1075.28 Q728.915 1078.82 732.526 1078.82 Q736.16 1078.82 737.965 1075.28 Q739.794 1071.72 739.794 1064.61 Q739.794 1057.48 737.965 1053.94 Q736.16 1050.37 732.526 1050.37 M732.526 1046.67 Q738.336 1046.67 741.391 1051.28 Q744.47 1055.86 744.47 1064.61 Q744.47 1073.34 741.391 1077.94 Q738.336 1082.53 732.526 1082.53 Q726.716 1082.53 723.637 1077.94 Q720.581 1073.34 720.581 1064.61 Q720.581 1055.86 723.637 1051.28 Q726.716 1046.67 732.526 1046.67 Z" fill="#000000" fill-rule="nonzero" fill-opacity="1" /><path clip-path="url(#clip870)" d="M762.688 1050.37 Q759.076 1050.37 757.248 1053.94 Q755.442 1057.48 755.442 1064.61 Q755.442 1071.72 757.248 1075.28 Q759.076 1078.82 762.688 1078.82 Q766.322 1078.82 768.127 1075.28 Q769.956 1071.72 769.956 1064.61 Q769.956 1057.48 768.127 1053.94 Q766.322 1050.37 762.688 1050.37 M762.688 1046.67 Q768.498 1046.67 771.553 1051.28 Q774.632 1055.86 774.632 1064.61 Q774.632 1073.34 771.553 1077.94 Q768.498 1082.53 762.688 1082.53 Q756.877 1082.53 753.799 1077.94 Q750.743 1073.34 750.743 1064.61 Q750.743 1055.86 753.799 1051.28 Q756.877 1046.67 762.688 1046.67 Z" fill="#000000" fill-rule="nonzero" fill-opacity="1" /><path clip-path="url(#clip870)" d="M682.757 947.719 L712.433 947.719 L712.433 951.654 L682.757 951.654 L682.757 947.719 Z" fill="#000000" fill-rule="nonzero" fill-opacity="1" /><path clip-path="url(#clip870)" d="M722.572 929.988 L740.928 929.988 L740.928 933.923 L726.854 933.923 L726.854 942.395 Q727.873 942.048 728.891 941.886 Q729.91 941.701 730.928 941.701 Q736.715 941.701 740.095 944.872 Q743.475 948.043 743.475 953.46 Q743.475 959.039 740.002 962.141 Q736.53 965.219 730.211 965.219 Q728.035 965.219 725.766 964.849 Q723.521 964.478 721.114 963.738 L721.114 959.039 Q723.197 960.173 725.419 960.728 Q727.641 961.284 730.118 961.284 Q734.123 961.284 736.461 959.178 Q738.799 957.071 738.799 953.46 Q738.799 949.849 736.461 947.742 Q734.123 945.636 730.118 945.636 Q728.243 945.636 726.368 946.053 Q724.516 946.469 722.572 947.349 L722.572 929.988 Z" fill="#000000" fill-rule="nonzero" fill-opacity="1" /><path clip-path="url(#clip870)" d="M762.688 933.067 Q759.076 933.067 757.248 936.631 Q755.442 940.173 755.442 947.303 Q755.442 954.409 757.248 957.974 Q759.076 961.516 762.688 961.516 Q766.322 961.516 768.127 957.974 Q769.956 954.409 769.956 947.303 Q769.956 940.173 768.127 936.631 Q766.322 933.067 762.688 933.067 M762.688 929.363 Q768.498 929.363 771.553 933.969 Q774.632 938.553 774.632 947.303 Q774.632 956.029 771.553 960.636 Q768.498 965.219 762.688 965.219 Q756.877 965.219 753.799 960.636 Q750.743 956.029 750.743 947.303 Q750.743 938.553 753.799 933.969 Q756.877 929.363 762.688 929.363 Z" fill="#000000" fill-rule="nonzero" fill-opacity="1" /><path clip-path="url(#clip870)" d="M762.688 815.759 Q759.076 815.759 757.248 819.323 Q755.442 822.865 755.442 829.995 Q755.442 837.101 757.248 840.666 Q759.076 844.208 762.688 844.208 Q766.322 844.208 768.127 840.666 Q769.956 837.101 769.956 829.995 Q769.956 822.865 768.127 819.323 Q766.322 815.759 762.688 815.759 M762.688 812.055 Q768.498 812.055 771.553 816.661 Q774.632 821.245 774.632 829.995 Q774.632 838.722 771.553 843.328 Q768.498 847.911 762.688 847.911 Q756.877 847.911 753.799 843.328 Q750.743 838.722 750.743 829.995 Q750.743 821.245 753.799 816.661 Q756.877 812.055 762.688 812.055 Z" fill="#000000" fill-rule="nonzero" fill-opacity="1" /><path clip-path="url(#clip870)" d="M722.572 695.372 L740.928 695.372 L740.928 699.307 L726.854 699.307 L726.854 707.779 Q727.873 707.432 728.891 707.27 Q729.91 707.085 730.928 707.085 Q736.715 707.085 740.095 710.256 Q743.475 713.428 743.475 718.844 Q743.475 724.423 740.002 727.525 Q736.53 730.603 730.211 730.603 Q728.035 730.603 725.766 730.233 Q723.521 729.863 721.114 729.122 L721.114 724.423 Q723.197 725.557 725.419 726.113 Q727.641 726.668 730.118 726.668 Q734.123 726.668 736.461 724.562 Q738.799 722.455 738.799 718.844 Q738.799 715.233 736.461 713.127 Q734.123 711.02 730.118 711.02 Q728.243 711.02 726.368 711.437 Q724.516 711.854 722.572 712.733 L722.572 695.372 Z" fill="#000000" fill-rule="nonzero" fill-opacity="1" /><path clip-path="url(#clip870)" d="M762.688 698.451 Q759.076 698.451 757.248 702.016 Q755.442 705.557 755.442 712.687 Q755.442 719.793 757.248 723.358 Q759.076 726.9 762.688 726.9 Q766.322 726.9 768.127 723.358 Q769.956 719.793 769.956 712.687 Q769.956 705.557 768.127 702.016 Q766.322 698.451 762.688 698.451 M762.688 694.747 Q768.498 694.747 771.553 699.354 Q774.632 703.937 774.632 712.687 Q774.632 721.414 771.553 726.02 Q768.498 730.603 762.688 730.603 Q756.877 730.603 753.799 726.02 Q750.743 721.414 750.743 712.687 Q750.743 703.937 753.799 699.354 Q756.877 694.747 762.688 694.747 Z" fill="#000000" fill-rule="nonzero" fill-opacity="1" /><path clip-path="url(#clip870)" d="M693.174 608.689 L700.813 608.689 L700.813 582.323 L692.503 583.99 L692.503 579.731 L700.767 578.064 L705.442 578.064 L705.442 608.689 L713.081 608.689 L713.081 612.624 L693.174 612.624 L693.174 608.689 Z" fill="#000000" fill-rule="nonzero" fill-opacity="1" /><path clip-path="url(#clip870)" d="M732.526 581.143 Q728.915 581.143 727.086 584.708 Q725.28 588.249 725.28 595.379 Q725.28 602.485 727.086 606.05 Q728.915 609.592 732.526 609.592 Q736.16 609.592 737.965 606.05 Q739.794 602.485 739.794 595.379 Q739.794 588.249 737.965 584.708 Q736.16 581.143 732.526 581.143 M732.526 577.439 Q738.336 577.439 741.391 582.046 Q744.47 586.629 744.47 595.379 Q744.47 604.106 741.391 608.712 Q738.336 613.296 732.526 613.296 Q726.716 613.296 723.637 608.712 Q720.581 604.106 720.581 595.379 Q720.581 586.629 723.637 582.046 Q726.716 577.439 732.526 577.439 Z" fill="#000000" fill-rule="nonzero" fill-opacity="1" /><path clip-path="url(#clip870)" d="M762.688 581.143 Q759.076 581.143 757.248 584.708 Q755.442 588.249 755.442 595.379 Q755.442 602.485 757.248 606.05 Q759.076 609.592 762.688 609.592 Q766.322 609.592 768.127 606.05 Q769.956 602.485 769.956 595.379 Q769.956 588.249 768.127 584.708 Q766.322 581.143 762.688 581.143 M762.688 577.439 Q768.498 577.439 771.553 582.046 Q774.632 586.629 774.632 595.379 Q774.632 604.106 771.553 608.712 Q768.498 613.296 762.688 613.296 Q756.877 613.296 753.799 608.712 Q750.743 604.106 750.743 595.379 Q750.743 586.629 753.799 582.046 Q756.877 577.439 762.688 577.439 Z" fill="#000000" fill-rule="nonzero" fill-opacity="1" /><path clip-path="url(#clip870)" d="M693.174 491.381 L700.813 491.381 L700.813 465.016 L692.503 466.682 L692.503 462.423 L700.767 460.756 L705.442 460.756 L705.442 491.381 L713.081 491.381 L713.081 495.316 L693.174 495.316 L693.174 491.381 Z" fill="#000000" fill-rule="nonzero" fill-opacity="1" /><path clip-path="url(#clip870)" d="M722.572 460.756 L740.928 460.756 L740.928 464.691 L726.854 464.691 L726.854 473.164 Q727.873 472.816 728.891 472.654 Q729.91 472.469 730.928 472.469 Q736.715 472.469 740.095 475.641 Q743.475 478.812 743.475 484.228 Q743.475 489.807 740.002 492.909 Q736.53 495.988 730.211 495.988 Q728.035 495.988 725.766 495.617 Q723.521 495.247 721.114 494.506 L721.114 489.807 Q723.197 490.941 725.419 491.497 Q727.641 492.052 730.118 492.052 Q734.123 492.052 736.461 489.946 Q738.799 487.84 738.799 484.228 Q738.799 480.617 736.461 478.511 Q734.123 476.404 730.118 476.404 Q728.243 476.404 726.368 476.821 Q724.516 477.238 722.572 478.117 L722.572 460.756 Z" fill="#000000" fill-rule="nonzero" fill-opacity="1" /><path clip-path="url(#clip870)" d="M762.688 463.835 Q759.076 463.835 757.248 467.4 Q755.442 470.941 755.442 478.071 Q755.442 485.177 757.248 488.742 Q759.076 492.284 762.688 492.284 Q766.322 492.284 768.127 488.742 Q769.956 485.177 769.956 478.071 Q769.956 470.941 768.127 467.4 Q766.322 463.835 762.688 463.835 M762.688 460.131 Q768.498 460.131 771.553 464.738 Q774.632 469.321 774.632 478.071 Q774.632 486.798 771.553 491.404 Q768.498 495.988 762.688 495.988 Q756.877 495.988 753.799 491.404 Q750.743 486.798 750.743 478.071 Q750.743 469.321 753.799 464.738 Q756.877 460.131 762.688 460.131 Z" fill="#000000" fill-rule="nonzero" fill-opacity="1" /><path clip-path="url(#clip870)" d="M552.903 827.345 L570.759 827.345 L570.759 819.26 Q570.759 814.773 568.435 812.322 Q566.112 809.871 561.815 809.871 Q557.55 809.871 555.227 812.322 Q552.903 814.773 552.903 819.26 L552.903 827.345 M547.62 833.774 L547.62 819.26 Q547.62 811.271 551.248 807.197 Q554.845 803.092 561.815 803.092 Q568.849 803.092 572.446 807.197 Q576.042 811.271 576.042 819.26 L576.042 827.345 L595.14 827.345 L595.14 833.774 L547.62 833.774 Z" fill="#000000" fill-rule="nonzero" fill-opacity="1" /><path clip-path="url(#clip870)" d="M551.28 758.882 L558.059 758.882 Q555.036 762.128 553.54 765.82 Q552.044 769.481 552.044 773.618 Q552.044 781.766 557.041 786.095 Q562.006 790.424 571.427 790.424 Q580.817 790.424 585.814 786.095 Q590.779 781.766 590.779 773.618 Q590.779 769.481 589.283 765.82 Q587.787 762.128 584.763 758.882 L591.479 758.882 Q593.771 762.255 594.917 766.043 Q596.063 769.799 596.063 774 Q596.063 784.79 589.474 790.997 Q582.854 797.203 571.427 797.203 Q559.969 797.203 553.38 790.997 Q546.76 784.79 546.76 774 Q546.76 769.735 547.906 765.979 Q549.02 762.192 551.28 758.882 Z" fill="#000000" fill-rule="nonzero" fill-opacity="1" /><path clip-path="url(#clip870)" d="M569.518 728.899 Q570.504 724.284 573.623 721.706 Q576.743 719.096 581.326 719.096 Q588.36 719.096 592.211 723.934 Q596.063 728.772 596.063 737.684 Q596.063 740.676 595.458 743.859 Q594.885 747.01 593.707 750.383 L587.501 750.383 Q589.06 747.71 589.856 744.527 Q590.652 741.344 590.652 737.875 Q590.652 731.827 588.265 728.676 Q585.877 725.494 581.326 725.494 Q577.125 725.494 574.769 728.454 Q572.382 731.382 572.382 736.634 L572.382 742.172 L567.099 742.172 L567.099 736.379 Q567.099 731.636 565.221 729.122 Q563.311 726.608 559.746 726.608 Q556.086 726.608 554.144 729.217 Q552.171 731.796 552.171 736.634 Q552.171 739.275 552.744 742.299 Q553.317 745.323 554.526 748.951 L548.797 748.951 Q547.779 745.291 547.269 742.108 Q546.76 738.893 546.76 736.061 Q546.76 728.74 550.102 724.475 Q553.412 720.21 559.078 720.21 Q563.025 720.21 565.762 722.47 Q568.467 724.73 569.518 728.899 Z" fill="#000000" fill-rule="nonzero" fill-opacity="1" /><circle clip-path="url(#clip872)" cx="1257.28" cy="635.446" r="14.4" fill="#009af9" fill-rule="evenodd" fill-opacity="1" stroke="#000000" stroke-opacity="1" stroke-width="3.2"/>
<circle clip-path="url(#clip872)" cx="1506.31" cy="898.793" r="14.4" fill="#009af9" fill-rule="evenodd" fill-opacity="1" stroke="#000000" stroke-opacity="1" stroke-width="3.2"/>
<circle clip-path="url(#clip872)" cx="1459.31" cy="764.321" r="14.4" fill="#009af9" fill-rule="evenodd" fill-opacity="1" stroke="#000000" stroke-opacity="1" stroke-width="3.2"/>
<circle clip-path="url(#clip872)" cx="1464.56" cy="789.315" r="14.4" fill="#009af9" fill-rule="evenodd" fill-opacity="1" stroke="#000000" stroke-opacity="1" stroke-width="3.2"/>
<circle clip-path="url(#clip872)" cx="1552.27" cy="871.803" r="14.4" fill="#009af9" fill-rule="evenodd" fill-opacity="1" stroke="#000000" stroke-opacity="1" stroke-width="3.2"/>
<circle clip-path="url(#clip872)" cx="1574.1" cy="830.307" r="14.4" fill="#009af9" fill-rule="evenodd" fill-opacity="1" stroke="#000000" stroke-opacity="1" stroke-width="3.2"/>
<circle clip-path="url(#clip872)" cx="1398.6" cy="995.872" r="14.4" fill="#009af9" fill-rule="evenodd" fill-opacity="1" stroke="#000000" stroke-opacity="1" stroke-width="3.2"/>
<circle clip-path="url(#clip872)" cx="1552.69" cy="861.339" r="14.4" fill="#009af9" fill-rule="evenodd" fill-opacity="1" stroke="#000000" stroke-opacity="1" stroke-width="3.2"/>
<circle clip-path="url(#clip872)" cx="1559.55" cy="875.651" r="14.4" fill="#009af9" fill-rule="evenodd" fill-opacity="1" stroke="#000000" stroke-opacity="1" stroke-width="3.2"/>
<circle clip-path="url(#clip872)" cx="1605.72" cy="875.767" r="14.4" fill="#009af9" fill-rule="evenodd" fill-opacity="1" stroke="#000000" stroke-opacity="1" stroke-width="3.2"/>
<circle clip-path="url(#clip872)" cx="1518.33" cy="886.15" r="14.4" fill="#009af9" fill-rule="evenodd" fill-opacity="1" stroke="#000000" stroke-opacity="1" stroke-width="3.2"/>
<circle clip-path="url(#clip872)" cx="1492.9" cy="890.287" r="14.4" fill="#009af9" fill-rule="evenodd" fill-opacity="1" stroke="#000000" stroke-opacity="1" stroke-width="3.2"/>
<circle clip-path="url(#clip872)" cx="1513.06" cy="958.652" r="14.4" fill="#009af9" fill-rule="evenodd" fill-opacity="1" stroke="#000000" stroke-opacity="1" stroke-width="3.2"/>
<circle clip-path="url(#clip872)" cx="1102.59" cy="634.868" r="14.4" fill="#009af9" fill-rule="evenodd" fill-opacity="1" stroke="#000000" stroke-opacity="1" stroke-width="3.2"/>
<circle clip-path="url(#clip872)" cx="1406.49" cy="910.456" r="14.4" fill="#009af9" fill-rule="evenodd" fill-opacity="1" stroke="#000000" stroke-opacity="1" stroke-width="3.2"/>
<circle clip-path="url(#clip872)" cx="1261.43" cy="778.415" r="14.4" fill="#009af9" fill-rule="evenodd" fill-opacity="1" stroke="#000000" stroke-opacity="1" stroke-width="3.2"/>
<circle clip-path="url(#clip872)" cx="1334.5" cy="1002.84" r="14.4" fill="#009af9" fill-rule="evenodd" fill-opacity="1" stroke="#000000" stroke-opacity="1" stroke-width="3.2"/>
<circle clip-path="url(#clip872)" cx="1433.38" cy="803.895" r="14.4" fill="#009af9" fill-rule="evenodd" fill-opacity="1" stroke="#000000" stroke-opacity="1" stroke-width="3.2"/>
<circle clip-path="url(#clip872)" cx="1424.93" cy="1057.78" r="14.4" fill="#009af9" fill-rule="evenodd" fill-opacity="1" stroke="#000000" stroke-opacity="1" stroke-width="3.2"/>
<circle clip-path="url(#clip872)" cx="1174.44" cy="628.877" r="14.4" fill="#009af9" fill-rule="evenodd" fill-opacity="1" stroke="#000000" stroke-opacity="1" stroke-width="3.2"/>
<circle clip-path="url(#clip872)" cx="1192.34" cy="593.76" r="14.4" fill="#009af9" fill-rule="evenodd" fill-opacity="1" stroke="#000000" stroke-opacity="1" stroke-width="3.2"/>
<circle clip-path="url(#clip872)" cx="1342.69" cy="858.559" r="14.4" fill="#009af9" fill-rule="evenodd" fill-opacity="1" stroke="#000000" stroke-opacity="1" stroke-width="3.2"/>
<circle clip-path="url(#clip872)" cx="832.249" cy="547.506" r="14.4" fill="#009af9" fill-rule="evenodd" fill-opacity="1" stroke="#000000" stroke-opacity="1" stroke-width="3.2"/>
<circle clip-path="url(#clip872)" cx="1342.04" cy="1114.44" r="14.4" fill="#009af9" fill-rule="evenodd" fill-opacity="1" stroke="#000000" stroke-opacity="1" stroke-width="3.2"/>
<circle clip-path="url(#clip872)" cx="1417.02" cy="992.432" r="14.4" fill="#009af9" fill-rule="evenodd" fill-opacity="1" stroke="#000000" stroke-opacity="1" stroke-width="3.2"/>
<circle clip-path="url(#clip872)" cx="1548.72" cy="818.723" r="14.4" fill="#e26f46" fill-rule="evenodd" fill-opacity="1" stroke="#000000" stroke-opacity="1" stroke-width="3.2"/>
<circle clip-path="url(#clip872)" cx="1569.15" cy="731.32" r="14.4" fill="#e26f46" fill-rule="evenodd" fill-opacity="1" stroke="#000000" stroke-opacity="1" stroke-width="3.2"/>
<circle clip-path="url(#clip872)" cx="1554.3" cy="780.518" r="14.4" fill="#e26f46" fill-rule="evenodd" fill-opacity="1" stroke="#000000" stroke-opacity="1" stroke-width="3.2"/>
<circle clip-path="url(#clip872)" cx="1579.44" cy="694.151" r="14.4" fill="#e26f46" fill-rule="evenodd" fill-opacity="1" stroke="#000000" stroke-opacity="1" stroke-width="3.2"/>
<circle clip-path="url(#clip872)" cx="1580.3" cy="679.747" r="14.4" fill="#e26f46" fill-rule="evenodd" fill-opacity="1" stroke="#000000" stroke-opacity="1" stroke-width="3.2"/>
<circle clip-path="url(#clip872)" cx="1578.77" cy="681.428" r="14.4" fill="#e26f46" fill-rule="evenodd" fill-opacity="1" stroke="#000000" stroke-opacity="1" stroke-width="3.2"/>
<circle clip-path="url(#clip872)" cx="1575.47" cy="698.257" r="14.4" fill="#e26f46" fill-rule="evenodd" fill-opacity="1" stroke="#000000" stroke-opacity="1" stroke-width="3.2"/>
<circle clip-path="url(#clip872)" cx="1541.12" cy="868.625" r="14.4" fill="#e26f46" fill-rule="evenodd" fill-opacity="1" stroke="#000000" stroke-opacity="1" stroke-width="3.2"/>
<circle clip-path="url(#clip872)" cx="1544.54" cy="869.686" r="14.4" fill="#e26f46" fill-rule="evenodd" fill-opacity="1" stroke="#000000" stroke-opacity="1" stroke-width="3.2"/>
<circle clip-path="url(#clip872)" cx="1579.11" cy="685.389" r="14.4" fill="#e26f46" fill-rule="evenodd" fill-opacity="1" stroke="#000000" stroke-opacity="1" stroke-width="3.2"/>
<circle clip-path="url(#clip872)" cx="1533.04" cy="911.785" r="14.4" fill="#e26f46" fill-rule="evenodd" fill-opacity="1" stroke="#000000" stroke-opacity="1" stroke-width="3.2"/>
<circle clip-path="url(#clip872)" cx="1584.04" cy="662.121" r="14.4" fill="#e26f46" fill-rule="evenodd" fill-opacity="1" stroke="#000000" stroke-opacity="1" stroke-width="3.2"/>
<circle clip-path="url(#clip872)" cx="1534.47" cy="897.328" r="14.4" fill="#e26f46" fill-rule="evenodd" fill-opacity="1" stroke="#000000" stroke-opacity="1" stroke-width="3.2"/>
<circle clip-path="url(#clip872)" cx="1561.35" cy="757.955" r="14.4" fill="#e26f46" fill-rule="evenodd" fill-opacity="1" stroke="#000000" stroke-opacity="1" stroke-width="3.2"/>
<circle clip-path="url(#clip872)" cx="1579.65" cy="693.501" r="14.4" fill="#e26f46" fill-rule="evenodd" fill-opacity="1" stroke="#000000" stroke-opacity="1" stroke-width="3.2"/>
<circle clip-path="url(#clip872)" cx="1576.76" cy="690.887" r="14.4" fill="#e26f46" fill-rule="evenodd" fill-opacity="1" stroke="#000000" stroke-opacity="1" stroke-width="3.2"/>
<circle clip-path="url(#clip872)" cx="1533.39" cy="937.347" r="14.4" fill="#e26f46" fill-rule="evenodd" fill-opacity="1" stroke="#000000" stroke-opacity="1" stroke-width="3.2"/>
<circle clip-path="url(#clip872)" cx="1565.03" cy="734.909" r="14.4" fill="#e26f46" fill-rule="evenodd" fill-opacity="1" stroke="#000000" stroke-opacity="1" stroke-width="3.2"/>
<circle clip-path="url(#clip872)" cx="1553.89" cy="806.655" r="14.4" fill="#e26f46" fill-rule="evenodd" fill-opacity="1" stroke="#000000" stroke-opacity="1" stroke-width="3.2"/>
<circle clip-path="url(#clip872)" cx="1525.15" cy="948.572" r="14.4" fill="#e26f46" fill-rule="evenodd" fill-opacity="1" stroke="#000000" stroke-opacity="1" stroke-width="3.2"/>
<circle clip-path="url(#clip872)" cx="1502.71" cy="1067.29" r="14.4" fill="#e26f46" fill-rule="evenodd" fill-opacity="1" stroke="#000000" stroke-opacity="1" stroke-width="3.2"/>
<circle clip-path="url(#clip872)" cx="1540.08" cy="881.913" r="14.4" fill="#e26f46" fill-rule="evenodd" fill-opacity="1" stroke="#000000" stroke-opacity="1" stroke-width="3.2"/>
<circle clip-path="url(#clip872)" cx="1572.24" cy="703.025" r="14.4" fill="#e26f46" fill-rule="evenodd" fill-opacity="1" stroke="#000000" stroke-opacity="1" stroke-width="3.2"/>
<circle clip-path="url(#clip872)" cx="1540.89" cy="897.497" r="14.4" fill="#e26f46" fill-rule="evenodd" fill-opacity="1" stroke="#000000" stroke-opacity="1" stroke-width="3.2"/>
<circle clip-path="url(#clip872)" cx="1536.79" cy="897.137" r="14.4" fill="#e26f46" fill-rule="evenodd" fill-opacity="1" stroke="#000000" stroke-opacity="1" stroke-width="3.2"/>
<circle clip-path="url(#clip872)" cx="1792.8" cy="327.299" r="14.4" fill="#3da44d" fill-rule="evenodd" fill-opacity="1" stroke="#000000" stroke-opacity="1" stroke-width="3.2"/>
<circle clip-path="url(#clip872)" cx="1638.66" cy="585.806" r="14.4" fill="#c271d2" fill-rule="evenodd" fill-opacity="1" stroke="#000000" stroke-opacity="1" stroke-width="3.2"/>
<circle clip-path="url(#clip872)" cx="1637.96" cy="579.343" r="14.4" fill="#c271d2" fill-rule="evenodd" fill-opacity="1" stroke="#000000" stroke-opacity="1" stroke-width="3.2"/>
<path clip-path="url(#clip870)" d="M1750.39 884.756 L2283.41 884.756 L2283.41 625.556 L1750.39 625.556  Z" fill="#ffffff" fill-rule="evenodd" fill-opacity="1"/>
<polyline clip-path="url(#clip870)" style="stroke:#000000; stroke-linecap:round; stroke-linejoin:round; stroke-width:4; stroke-opacity:1; fill:none" points="1750.39,884.756 2283.41,884.756 2283.41,625.556 1750.39,625.556 1750.39,884.756 "/>
<circle clip-path="url(#clip870)" cx="1842.85" cy="677.396" r="20.48" fill="#009af9" fill-rule="evenodd" fill-opacity="1" stroke="#000000" stroke-opacity="1" stroke-width="4.55111"/>
<path clip-path="url(#clip870)" d="M1954.09 681.737 Q1954.09 677.038 1952.14 674.376 Q1950.22 671.691 1946.84 671.691 Q1943.46 671.691 1941.52 674.376 Q1939.6 677.038 1939.6 681.737 Q1939.6 686.436 1941.52 689.121 Q1943.46 691.783 1946.84 691.783 Q1950.22 691.783 1952.14 689.121 Q1954.09 686.436 1954.09 681.737 M1939.6 672.686 Q1940.94 670.371 1942.98 669.26 Q1945.04 668.126 1947.89 668.126 Q1952.61 668.126 1955.55 671.876 Q1958.51 675.626 1958.51 681.737 Q1958.51 687.848 1955.55 691.598 Q1952.61 695.348 1947.89 695.348 Q1945.04 695.348 1942.98 694.237 Q1940.94 693.102 1939.6 690.788 L1939.6 694.676 L1935.32 694.676 L1935.32 658.658 L1939.6 658.658 L1939.6 672.686 Z" fill="#000000" fill-rule="nonzero" fill-opacity="1" /><path clip-path="url(#clip870)" d="M1969.78 661.39 L1969.78 668.751 L1978.56 668.751 L1978.56 672.061 L1969.78 672.061 L1969.78 686.135 Q1969.78 689.306 1970.64 690.209 Q1971.52 691.112 1974.18 691.112 L1978.56 691.112 L1978.56 694.676 L1974.18 694.676 Q1969.25 694.676 1967.38 692.848 Q1965.5 690.996 1965.5 686.135 L1965.5 672.061 L1962.38 672.061 L1962.38 668.751 L1965.5 668.751 L1965.5 661.39 L1969.78 661.39 Z" fill="#000000" fill-rule="nonzero" fill-opacity="1" /><circle clip-path="url(#clip870)" cx="1842.85" cy="729.236" r="20.48" fill="#e26f46" fill-rule="evenodd" fill-opacity="1" stroke="#000000" stroke-opacity="1" stroke-width="4.55111"/>
<path clip-path="url(#clip870)" d="M1954.23 724.526 L1954.23 710.498 L1958.49 710.498 L1958.49 746.516 L1954.23 746.516 L1954.23 742.628 Q1952.89 744.942 1950.83 746.077 Q1948.79 747.188 1945.92 747.188 Q1941.22 747.188 1938.26 743.438 Q1935.32 739.688 1935.32 733.577 Q1935.32 727.466 1938.26 723.716 Q1941.22 719.966 1945.92 719.966 Q1948.79 719.966 1950.83 721.1 Q1952.89 722.211 1954.23 724.526 M1939.71 733.577 Q1939.71 738.276 1941.64 740.961 Q1943.58 743.623 1946.96 743.623 Q1950.34 743.623 1952.28 740.961 Q1954.23 738.276 1954.23 733.577 Q1954.23 728.878 1952.28 726.216 Q1950.34 723.531 1946.96 723.531 Q1943.58 723.531 1941.64 726.216 Q1939.71 728.878 1939.71 733.577 Z" fill="#000000" fill-rule="nonzero" fill-opacity="1" /><path clip-path="url(#clip870)" d="M1967.26 720.591 L1971.52 720.591 L1971.52 746.516 L1967.26 746.516 L1967.26 720.591 M1967.26 710.498 L1971.52 710.498 L1971.52 715.892 L1967.26 715.892 L1967.26 710.498 Z" fill="#000000" fill-rule="nonzero" fill-opacity="1" /><path clip-path="url(#clip870)" d="M1992.21 733.484 Q1987.05 733.484 1985.06 734.665 Q1983.07 735.845 1983.07 738.692 Q1983.07 740.961 1984.55 742.304 Q1986.06 743.623 1988.63 743.623 Q1992.17 743.623 1994.3 741.123 Q1996.45 738.6 1996.45 734.433 L1996.45 733.484 L1992.21 733.484 M2000.71 731.725 L2000.71 746.516 L1996.45 746.516 L1996.45 742.581 Q1994.99 744.942 1992.82 746.077 Q1990.64 747.188 1987.49 747.188 Q1983.51 747.188 1981.15 744.966 Q1978.81 742.72 1978.81 738.97 Q1978.81 734.595 1981.73 732.373 Q1984.67 730.151 1990.48 730.151 L1996.45 730.151 L1996.45 729.734 Q1996.45 726.794 1994.51 725.197 Q1992.58 723.577 1989.09 723.577 Q1986.87 723.577 1984.76 724.109 Q1982.65 724.642 1980.71 725.706 L1980.71 721.771 Q1983.05 720.868 1985.25 720.429 Q1987.45 719.966 1989.53 719.966 Q1995.15 719.966 1997.93 722.882 Q2000.71 725.799 2000.71 731.725 Z" fill="#000000" fill-rule="nonzero" fill-opacity="1" /><circle clip-path="url(#clip870)" cx="1842.85" cy="781.076" r="20.48" fill="#3da44d" fill-rule="evenodd" fill-opacity="1" stroke="#000000" stroke-opacity="1" stroke-width="4.55111"/>
<path clip-path="url(#clip870)" d="M1935.32 772.431 L1939.58 772.431 L1939.58 798.356 L1935.32 798.356 L1935.32 772.431 M1935.32 762.338 L1939.58 762.338 L1939.58 767.732 L1935.32 767.732 L1935.32 762.338 Z" fill="#000000" fill-rule="nonzero" fill-opacity="1" /><path clip-path="url(#clip870)" d="M1965.01 773.195 L1965.01 777.222 Q1963.21 776.296 1961.26 775.833 Q1959.32 775.371 1957.24 775.371 Q1954.07 775.371 1952.47 776.343 Q1950.89 777.315 1950.89 779.259 Q1950.89 780.741 1952.03 781.597 Q1953.16 782.431 1956.59 783.195 L1958.05 783.519 Q1962.58 784.491 1964.48 786.273 Q1966.4 788.032 1966.4 791.204 Q1966.4 794.815 1963.53 796.921 Q1960.69 799.028 1955.69 799.028 Q1953.6 799.028 1951.33 798.611 Q1949.09 798.218 1946.59 797.407 L1946.59 793.009 Q1948.95 794.236 1951.24 794.861 Q1953.53 795.463 1955.78 795.463 Q1958.79 795.463 1960.41 794.444 Q1962.03 793.403 1962.03 791.528 Q1962.03 789.792 1960.85 788.866 Q1959.69 787.94 1955.73 787.083 L1954.25 786.736 Q1950.29 785.903 1948.53 784.19 Q1946.77 782.454 1946.77 779.445 Q1946.77 775.787 1949.37 773.796 Q1951.96 771.806 1956.73 771.806 Q1959.09 771.806 1961.17 772.153 Q1963.26 772.5 1965.01 773.195 Z" fill="#000000" fill-rule="nonzero" fill-opacity="1" /><path clip-path="url(#clip870)" d="M1983.23 775.417 Q1979.81 775.417 1977.82 778.102 Q1975.82 780.764 1975.82 785.417 Q1975.82 790.07 1977.79 792.755 Q1979.78 795.417 1983.23 795.417 Q1986.64 795.417 1988.63 792.732 Q1990.62 790.046 1990.62 785.417 Q1990.62 780.81 1988.63 778.125 Q1986.64 775.417 1983.23 775.417 M1983.23 771.806 Q1988.79 771.806 1991.96 775.417 Q1995.13 779.028 1995.13 785.417 Q1995.13 791.782 1991.96 795.417 Q1988.79 799.028 1983.23 799.028 Q1977.65 799.028 1974.48 795.417 Q1971.33 791.782 1971.33 785.417 Q1971.33 779.028 1974.48 775.417 Q1977.65 771.806 1983.23 771.806 Z" fill="#000000" fill-rule="nonzero" fill-opacity="1" /><path clip-path="url(#clip870)" d="M2002.19 762.338 L2006.45 762.338 L2006.45 798.356 L2002.19 798.356 L2002.19 762.338 Z" fill="#000000" fill-rule="nonzero" fill-opacity="1" /><path clip-path="url(#clip870)" d="M2027.14 785.324 Q2021.98 785.324 2019.99 786.505 Q2018 787.685 2018 790.532 Q2018 792.801 2019.48 794.144 Q2020.99 795.463 2023.56 795.463 Q2027.1 795.463 2029.23 792.963 Q2031.38 790.44 2031.38 786.273 L2031.38 785.324 L2027.14 785.324 M2035.64 783.565 L2035.64 798.356 L2031.38 798.356 L2031.38 794.421 Q2029.92 796.782 2027.75 797.917 Q2025.57 799.028 2022.42 799.028 Q2018.44 799.028 2016.08 796.806 Q2013.74 794.56 2013.74 790.81 Q2013.74 786.435 2016.66 784.213 Q2019.6 781.991 2025.41 781.991 L2031.38 781.991 L2031.38 781.574 Q2031.38 778.634 2029.44 777.037 Q2027.51 775.417 2024.02 775.417 Q2021.8 775.417 2019.69 775.949 Q2017.58 776.482 2015.64 777.546 L2015.64 773.611 Q2017.98 772.708 2020.18 772.269 Q2022.38 771.806 2024.46 771.806 Q2030.08 771.806 2032.86 774.722 Q2035.64 777.639 2035.64 783.565 Z" fill="#000000" fill-rule="nonzero" fill-opacity="1" /><path clip-path="url(#clip870)" d="M2048.63 765.07 L2048.63 772.431 L2057.4 772.431 L2057.4 775.741 L2048.63 775.741 L2048.63 789.815 Q2048.63 792.986 2049.48 793.889 Q2050.36 794.792 2053.02 794.792 L2057.4 794.792 L2057.4 798.356 L2053.02 798.356 Q2048.09 798.356 2046.22 796.528 Q2044.34 794.676 2044.34 789.815 L2044.34 775.741 L2041.22 775.741 L2041.22 772.431 L2044.34 772.431 L2044.34 765.07 L2048.63 765.07 Z" fill="#000000" fill-rule="nonzero" fill-opacity="1" /><path clip-path="url(#clip870)" d="M2085.18 784.329 L2085.18 786.412 L2065.59 786.412 Q2065.87 790.81 2068.23 793.125 Q2070.62 795.417 2074.85 795.417 Q2077.31 795.417 2079.6 794.815 Q2081.91 794.213 2084.18 793.009 L2084.18 797.037 Q2081.89 798.009 2079.48 798.519 Q2077.07 799.028 2074.6 799.028 Q2068.39 799.028 2064.76 795.417 Q2061.15 791.806 2061.15 785.648 Q2061.15 779.283 2064.57 775.556 Q2068.02 771.806 2073.86 771.806 Q2079.09 771.806 2082.12 775.185 Q2085.18 778.542 2085.18 784.329 M2080.92 783.079 Q2080.87 779.583 2078.95 777.5 Q2077.05 775.417 2073.9 775.417 Q2070.34 775.417 2068.19 777.431 Q2066.06 779.445 2065.73 783.102 L2080.92 783.079 Z" fill="#000000" fill-rule="nonzero" fill-opacity="1" /><path clip-path="url(#clip870)" d="M2109.23 776.366 L2109.23 762.338 L2113.49 762.338 L2113.49 798.356 L2109.23 798.356 L2109.23 794.468 Q2107.88 796.782 2105.82 797.917 Q2103.79 799.028 2100.92 799.028 Q2096.22 799.028 2093.25 795.278 Q2090.32 791.528 2090.32 785.417 Q2090.32 779.306 2093.25 775.556 Q2096.22 771.806 2100.92 771.806 Q2103.79 771.806 2105.82 772.94 Q2107.88 774.051 2109.23 776.366 M2094.71 785.417 Q2094.71 790.116 2096.63 792.801 Q2098.58 795.463 2101.96 795.463 Q2105.34 795.463 2107.28 792.801 Q2109.23 790.116 2109.23 785.417 Q2109.23 780.718 2107.28 778.056 Q2105.34 775.371 2101.96 775.371 Q2098.58 775.371 2096.63 778.056 Q2094.71 780.718 2094.71 785.417 Z" fill="#000000" fill-rule="nonzero" fill-opacity="1" /><path clip-path="url(#clip870)" d="M2141.96 806.227 L2141.96 809.537 L2117.33 809.537 L2117.33 806.227 L2141.96 806.227 Z" fill="#000000" fill-rule="nonzero" fill-opacity="1" /><path clip-path="url(#clip870)" d="M2157.75 785.324 Q2152.58 785.324 2150.59 786.505 Q2148.6 787.685 2148.6 790.532 Q2148.6 792.801 2150.08 794.144 Q2151.59 795.463 2154.16 795.463 Q2157.7 795.463 2159.83 792.963 Q2161.98 790.44 2161.98 786.273 L2161.98 785.324 L2157.75 785.324 M2166.24 783.565 L2166.24 798.356 L2161.98 798.356 L2161.98 794.421 Q2160.52 796.782 2158.35 797.917 Q2156.17 799.028 2153.02 799.028 Q2149.04 799.028 2146.68 796.806 Q2144.34 794.56 2144.34 790.81 Q2144.34 786.435 2147.26 784.213 Q2150.2 781.991 2156.01 781.991 L2161.98 781.991 L2161.98 781.574 Q2161.98 778.634 2160.04 777.037 Q2158.12 775.417 2154.62 775.417 Q2152.4 775.417 2150.29 775.949 Q2148.19 776.482 2146.24 777.546 L2146.24 773.611 Q2148.58 772.708 2150.78 772.269 Q2152.98 771.806 2155.06 771.806 Q2160.69 771.806 2163.46 774.722 Q2166.24 777.639 2166.24 783.565 Z" fill="#000000" fill-rule="nonzero" fill-opacity="1" /><path clip-path="url(#clip870)" d="M2179.23 765.07 L2179.23 772.431 L2188 772.431 L2188 775.741 L2179.23 775.741 L2179.23 789.815 Q2179.23 792.986 2180.08 793.889 Q2180.96 794.792 2183.62 794.792 L2188 794.792 L2188 798.356 L2183.62 798.356 Q2178.69 798.356 2176.82 796.528 Q2174.94 794.676 2174.94 789.815 L2174.94 775.741 L2171.82 775.741 L2171.82 772.431 L2174.94 772.431 L2174.94 765.07 L2179.23 765.07 Z" fill="#000000" fill-rule="nonzero" fill-opacity="1" /><path clip-path="url(#clip870)" d="M2203.65 775.417 Q2200.22 775.417 2198.23 778.102 Q2196.24 780.764 2196.24 785.417 Q2196.24 790.07 2198.21 792.755 Q2200.2 795.417 2203.65 795.417 Q2207.05 795.417 2209.04 792.732 Q2211.03 790.046 2211.03 785.417 Q2211.03 780.81 2209.04 778.125 Q2207.05 775.417 2203.65 775.417 M2203.65 771.806 Q2209.2 771.806 2212.37 775.417 Q2215.55 779.028 2215.55 785.417 Q2215.55 791.782 2212.37 795.417 Q2209.2 799.028 2203.65 799.028 Q2198.07 799.028 2194.9 795.417 Q2191.75 791.782 2191.75 785.417 Q2191.75 779.028 2194.9 775.417 Q2198.07 771.806 2203.65 771.806 Z" fill="#000000" fill-rule="nonzero" fill-opacity="1" /><path clip-path="url(#clip870)" d="M2242.79 777.408 Q2244.39 774.537 2246.61 773.171 Q2248.83 771.806 2251.84 771.806 Q2255.89 771.806 2258.09 774.653 Q2260.29 777.477 2260.29 782.708 L2260.29 798.356 L2256.01 798.356 L2256.01 782.847 Q2256.01 779.12 2254.69 777.315 Q2253.37 775.509 2250.66 775.509 Q2247.35 775.509 2245.43 777.708 Q2243.51 779.908 2243.51 783.704 L2243.51 798.356 L2239.23 798.356 L2239.23 782.847 Q2239.23 779.097 2237.91 777.315 Q2236.59 775.509 2233.83 775.509 Q2230.57 775.509 2228.65 777.732 Q2226.73 779.931 2226.73 783.704 L2226.73 798.356 L2222.44 798.356 L2222.44 772.431 L2226.73 772.431 L2226.73 776.458 Q2228.18 774.074 2230.22 772.94 Q2232.26 771.806 2235.06 771.806 Q2237.88 771.806 2239.85 773.241 Q2241.84 774.676 2242.79 777.408 Z" fill="#000000" fill-rule="nonzero" fill-opacity="1" /><circle clip-path="url(#clip870)" cx="1842.85" cy="832.916" r="20.48" fill="#c271d2" fill-rule="evenodd" fill-opacity="1" stroke="#000000" stroke-opacity="1" stroke-width="4.55111"/>
<path clip-path="url(#clip870)" d="M1935.32 814.178 L1939.58 814.178 L1939.58 850.196 L1935.32 850.196 L1935.32 814.178 Z" fill="#000000" fill-rule="nonzero" fill-opacity="1" /><path clip-path="url(#clip870)" d="M1948.49 824.271 L1952.75 824.271 L1952.75 850.196 L1948.49 850.196 L1948.49 824.271 M1948.49 814.178 L1952.75 814.178 L1952.75 819.572 L1948.49 819.572 L1948.49 814.178 Z" fill="#000000" fill-rule="nonzero" fill-opacity="1" /><path clip-path="url(#clip870)" d="M1964.2 837.257 Q1964.2 841.956 1966.13 844.641 Q1968.07 847.303 1971.45 847.303 Q1974.83 847.303 1976.77 844.641 Q1978.72 841.956 1978.72 837.257 Q1978.72 832.558 1976.77 829.896 Q1974.83 827.211 1971.45 827.211 Q1968.07 827.211 1966.13 829.896 Q1964.2 832.558 1964.2 837.257 M1978.72 846.308 Q1977.38 848.622 1975.32 849.757 Q1973.28 850.868 1970.41 850.868 Q1965.71 850.868 1962.75 847.118 Q1959.81 843.368 1959.81 837.257 Q1959.81 831.146 1962.75 827.396 Q1965.71 823.646 1970.41 823.646 Q1973.28 823.646 1975.32 824.78 Q1977.38 825.891 1978.72 828.206 L1978.72 824.271 L1982.98 824.271 L1982.98 860.058 L1978.72 860.058 L1978.72 846.308 Z" fill="#000000" fill-rule="nonzero" fill-opacity="1" /></svg>
