<?xml version="1.0" encoding="utf-8"?>
<svg xmlns="http://www.w3.org/2000/svg" xmlns:xlink="http://www.w3.org/1999/xlink" width="600" height="400" viewBox="0 0 2400 1600">
<defs>
  <clipPath id="clip030">
    <rect x="0" y="0" width="2400" height="1600"/>
  </clipPath>
</defs>
<path clip-path="url(#clip030)" d="M0 1600 L2400 1600 L2400 0 L0 0  Z" fill="#ffffff" fill-rule="evenodd" fill-opacity="1"/>
<defs>
  <clipPath id="clip031">
    <rect x="480" y="0" width="1681" height="1600"/>
  </clipPath>
</defs>
<defs>
  <clipPath id="clip032">
    <rect x="242" y="47" width="2112" height="1377"/>
  </clipPath>
</defs>
<path clip-path="url(#clip032)" d="M914.979 610.821 L914.979 601.386 L916.07 599.822 L919.068 600.391 L919.068 609.827 L917.977 611.39 L914.979 610.821  Z" fill="#ffffff" fill-rule="evenodd" fill-opacity="1"/>
<polyline clip-path="url(#clip032)" style="stroke:#000000; stroke-linecap:round; stroke-linejoin:round; stroke-width:2; stroke-opacity:0.1; fill:none" points="877.154,1173.21 1148.85,1043.59 1148.85,261.257 "/>
<polyline clip-path="url(#clip032)" style="stroke:#000000; stroke-linecap:round; stroke-linejoin:round; stroke-width:2; stroke-opacity:0.1; fill:none" points="1027.05,1182.69 1298.75,1053.06 1298.75,270.731 "/>
<polyline clip-path="url(#clip032)" style="stroke:#000000; stroke-linecap:round; stroke-linejoin:round; stroke-width:2; stroke-opacity:0.1; fill:none" points="1176.94,1192.16 1448.64,1062.53 1448.64,280.204 "/>
<polyline clip-path="url(#clip032)" style="stroke:#000000; stroke-linecap:round; stroke-linejoin:round; stroke-width:2; stroke-opacity:0.1; fill:none" points="1326.83,1201.63 1598.53,1072.01 1598.53,289.678 "/>
<polyline clip-path="url(#clip032)" style="stroke:#000000; stroke-linecap:round; stroke-linejoin:round; stroke-width:2; stroke-opacity:0.1; fill:none" points="1476.72,1211.11 1748.42,1081.48 1748.42,299.152 "/>
<polyline clip-path="url(#clip032)" style="stroke:#000000; stroke-linecap:round; stroke-linejoin:round; stroke-width:2; stroke-opacity:0.1; fill:none" points="1573.4,1196.38 826.91,1149.2 826.91,366.875 "/>
<polyline clip-path="url(#clip032)" style="stroke:#000000; stroke-linecap:round; stroke-linejoin:round; stroke-width:2; stroke-opacity:0.1; fill:none" points="1614.36,1176.84 867.871,1129.66 867.871,347.332 "/>
<polyline clip-path="url(#clip032)" style="stroke:#000000; stroke-linecap:round; stroke-linejoin:round; stroke-width:2; stroke-opacity:0.1; fill:none" points="1655.32,1157.3 908.832,1110.12 908.832,327.79 "/>
<polyline clip-path="url(#clip032)" style="stroke:#000000; stroke-linecap:round; stroke-linejoin:round; stroke-width:2; stroke-opacity:0.1; fill:none" points="1696.28,1137.76 949.793,1090.58 949.793,308.248 "/>
<polyline clip-path="url(#clip032)" style="stroke:#000000; stroke-linecap:round; stroke-linejoin:round; stroke-width:2; stroke-opacity:0.1; fill:none" points="1737.24,1118.21 990.755,1071.03 990.755,288.705 "/>
<polyline clip-path="url(#clip032)" style="stroke:#000000; stroke-linecap:round; stroke-linejoin:round; stroke-width:2; stroke-opacity:0.1; fill:none" points="1778.2,1098.67 1031.72,1051.49 1031.72,269.163 "/>
<polyline clip-path="url(#clip032)" style="stroke:#000000; stroke-linecap:round; stroke-linejoin:round; stroke-width:2; stroke-opacity:0.1; fill:none" points="788.351,1096.17 1060.05,966.539 1806.54,1013.72 "/>
<polyline clip-path="url(#clip032)" style="stroke:#000000; stroke-linecap:round; stroke-linejoin:round; stroke-width:2; stroke-opacity:0.1; fill:none" points="788.351,971.048 1060.05,841.422 1806.54,888.602 "/>
<polyline clip-path="url(#clip032)" style="stroke:#000000; stroke-linecap:round; stroke-linejoin:round; stroke-width:2; stroke-opacity:0.1; fill:none" points="788.351,845.931 1060.05,716.305 1806.54,763.485 "/>
<polyline clip-path="url(#clip032)" style="stroke:#000000; stroke-linecap:round; stroke-linejoin:round; stroke-width:2; stroke-opacity:0.1; fill:none" points="788.351,720.814 1060.05,591.187 1806.54,638.368 "/>
<polyline clip-path="url(#clip032)" style="stroke:#000000; stroke-linecap:round; stroke-linejoin:round; stroke-width:2; stroke-opacity:0.1; fill:none" points="788.351,595.697 1060.05,466.07 1806.54,513.25 "/>
<polyline clip-path="url(#clip032)" style="stroke:#000000; stroke-linecap:round; stroke-linejoin:round; stroke-width:2; stroke-opacity:0.1; fill:none" points="788.351,470.579 1060.05,340.953 1806.54,388.133 "/>
<polyline clip-path="url(#clip030)" style="stroke:#000000; stroke-linecap:round; stroke-linejoin:round; stroke-width:4; stroke-opacity:1; fill:none" points="788.351,1167.6 1534.84,1214.78 "/>
<polyline clip-path="url(#clip030)" style="stroke:#000000; stroke-linecap:round; stroke-linejoin:round; stroke-width:4; stroke-opacity:1; fill:none" points="877.154,1173.21 880.415,1171.66 "/>
<polyline clip-path="url(#clip030)" style="stroke:#000000; stroke-linecap:round; stroke-linejoin:round; stroke-width:4; stroke-opacity:1; fill:none" points="1027.05,1182.69 1030.31,1181.13 "/>
<polyline clip-path="url(#clip030)" style="stroke:#000000; stroke-linecap:round; stroke-linejoin:round; stroke-width:4; stroke-opacity:1; fill:none" points="1176.94,1192.16 1180.2,1190.6 "/>
<polyline clip-path="url(#clip030)" style="stroke:#000000; stroke-linecap:round; stroke-linejoin:round; stroke-width:4; stroke-opacity:1; fill:none" points="1326.83,1201.63 1330.09,1200.08 "/>
<polyline clip-path="url(#clip030)" style="stroke:#000000; stroke-linecap:round; stroke-linejoin:round; stroke-width:4; stroke-opacity:1; fill:none" points="1476.72,1211.11 1479.99,1209.55 "/>
<path clip-path="url(#clip030)" d="M749.747 1201.96 L779.423 1201.96 L779.423 1205.89 L749.747 1205.89 L749.747 1201.96 Z" fill="#000000" fill-rule="nonzero" fill-opacity="1" /><path clip-path="url(#clip030)" d="M790.326 1214.85 L797.965 1214.85 L797.965 1188.49 L789.654 1190.15 L789.654 1185.89 L797.918 1184.23 L802.594 1184.23 L802.594 1214.85 L810.233 1214.85 L810.233 1218.79 L790.326 1218.79 L790.326 1214.85 Z" fill="#000000" fill-rule="nonzero" fill-opacity="1" /><path clip-path="url(#clip030)" d="M829.677 1187.31 Q826.066 1187.31 824.238 1190.87 Q822.432 1194.41 822.432 1201.54 Q822.432 1208.65 824.238 1212.21 Q826.066 1215.75 829.677 1215.75 Q833.312 1215.75 835.117 1212.21 Q836.946 1208.65 836.946 1201.54 Q836.946 1194.41 835.117 1190.87 Q833.312 1187.31 829.677 1187.31 M829.677 1183.6 Q835.488 1183.6 838.543 1188.21 Q841.622 1192.79 841.622 1201.54 Q841.622 1210.27 838.543 1214.87 Q835.488 1219.46 829.677 1219.46 Q823.867 1219.46 820.789 1214.87 Q817.733 1210.27 817.733 1201.54 Q817.733 1192.79 820.789 1188.21 Q823.867 1183.6 829.677 1183.6 Z" fill="#000000" fill-rule="nonzero" fill-opacity="1" /><path clip-path="url(#clip030)" d="M859.839 1187.31 Q856.228 1187.31 854.399 1190.87 Q852.594 1194.41 852.594 1201.54 Q852.594 1208.65 854.399 1212.21 Q856.228 1215.75 859.839 1215.75 Q863.473 1215.75 865.279 1212.21 Q867.108 1208.65 867.108 1201.54 Q867.108 1194.41 865.279 1190.87 Q863.473 1187.31 859.839 1187.31 M859.839 1183.6 Q865.649 1183.6 868.705 1188.21 Q871.784 1192.79 871.784 1201.54 Q871.784 1210.27 868.705 1214.87 Q865.649 1219.46 859.839 1219.46 Q854.029 1219.46 850.95 1214.87 Q847.895 1210.27 847.895 1201.54 Q847.895 1192.79 850.95 1188.21 Q854.029 1183.6 859.839 1183.6 Z" fill="#000000" fill-rule="nonzero" fill-opacity="1" /><path clip-path="url(#clip030)" d="M1009.73 1196.78 Q1006.12 1196.78 1004.29 1200.34 Q1002.49 1203.89 1002.49 1211.01 Q1002.49 1218.12 1004.29 1221.69 Q1006.12 1225.23 1009.73 1225.23 Q1013.37 1225.23 1015.17 1221.69 Q1017 1218.12 1017 1211.01 Q1017 1203.89 1015.17 1200.34 Q1013.37 1196.78 1009.73 1196.78 M1009.73 1193.08 Q1015.54 1193.08 1018.6 1197.68 Q1021.68 1202.27 1021.68 1211.01 Q1021.68 1219.74 1018.6 1224.35 Q1015.54 1228.93 1009.73 1228.93 Q1003.92 1228.93 1000.84 1224.35 Q997.788 1219.74 997.788 1211.01 Q997.788 1202.27 1000.84 1197.68 Q1003.92 1193.08 1009.73 1193.08 Z" fill="#000000" fill-rule="nonzero" fill-opacity="1" /><path clip-path="url(#clip030)" d="M1090.11 1233.8 L1097.75 1233.8 L1097.75 1207.43 L1089.44 1209.1 L1089.44 1204.84 L1097.7 1203.17 L1102.38 1203.17 L1102.38 1233.8 L1110.02 1233.8 L1110.02 1237.73 L1090.11 1237.73 L1090.11 1233.8 Z" fill="#000000" fill-rule="nonzero" fill-opacity="1" /><path clip-path="url(#clip030)" d="M1129.46 1206.25 Q1125.85 1206.25 1124.02 1209.82 Q1122.22 1213.36 1122.22 1220.49 Q1122.22 1227.6 1124.02 1231.16 Q1125.85 1234.7 1129.46 1234.7 Q1133.1 1234.7 1134.9 1231.16 Q1136.73 1227.6 1136.73 1220.49 Q1136.73 1213.36 1134.9 1209.82 Q1133.1 1206.25 1129.46 1206.25 M1129.46 1202.55 Q1135.27 1202.55 1138.33 1207.16 Q1141.41 1211.74 1141.41 1220.49 Q1141.41 1229.22 1138.33 1233.82 Q1135.27 1238.41 1129.46 1238.41 Q1123.65 1238.41 1120.57 1233.82 Q1117.52 1229.22 1117.52 1220.49 Q1117.52 1211.74 1120.57 1207.16 Q1123.65 1202.55 1129.46 1202.55 Z" fill="#000000" fill-rule="nonzero" fill-opacity="1" /><path clip-path="url(#clip030)" d="M1159.62 1206.25 Q1156.01 1206.25 1154.18 1209.82 Q1152.38 1213.36 1152.38 1220.49 Q1152.38 1227.6 1154.18 1231.16 Q1156.01 1234.7 1159.62 1234.7 Q1163.26 1234.7 1165.06 1231.16 Q1166.89 1227.6 1166.89 1220.49 Q1166.89 1213.36 1165.06 1209.82 Q1163.26 1206.25 1159.62 1206.25 M1159.62 1202.55 Q1165.43 1202.55 1168.49 1207.16 Q1171.57 1211.74 1171.57 1220.49 Q1171.57 1229.22 1168.49 1233.82 Q1165.43 1238.41 1159.62 1238.41 Q1153.81 1238.41 1150.74 1233.82 Q1147.68 1229.22 1147.68 1220.49 Q1147.68 1211.74 1150.74 1207.16 Q1153.81 1202.55 1159.62 1202.55 Z" fill="#000000" fill-rule="nonzero" fill-opacity="1" /><path clip-path="url(#clip030)" d="M1243.22 1243.27 L1259.54 1243.27 L1259.54 1247.21 L1237.6 1247.21 L1237.6 1243.27 Q1240.26 1240.52 1244.84 1235.89 Q1249.45 1231.24 1250.63 1229.89 Q1252.87 1227.37 1253.75 1225.63 Q1254.66 1223.87 1254.66 1222.18 Q1254.66 1219.43 1252.71 1217.69 Q1250.79 1215.96 1247.69 1215.96 Q1245.49 1215.96 1243.04 1216.72 Q1240.61 1217.49 1237.83 1219.04 L1237.83 1214.31 Q1240.65 1213.18 1243.11 1212.6 Q1245.56 1212.02 1247.6 1212.02 Q1252.97 1212.02 1256.16 1214.71 Q1259.36 1217.39 1259.36 1221.88 Q1259.36 1224.01 1258.55 1225.93 Q1257.76 1227.83 1255.65 1230.43 Q1255.07 1231.1 1251.97 1234.31 Q1248.87 1237.51 1243.22 1243.27 Z" fill="#000000" fill-rule="nonzero" fill-opacity="1" /><path clip-path="url(#clip030)" d="M1279.36 1215.73 Q1275.74 1215.73 1273.92 1219.29 Q1272.11 1222.83 1272.11 1229.96 Q1272.11 1237.07 1273.92 1240.63 Q1275.74 1244.18 1279.36 1244.18 Q1282.99 1244.18 1284.8 1240.63 Q1286.62 1237.07 1286.62 1229.96 Q1286.62 1222.83 1284.8 1219.29 Q1282.99 1215.73 1279.36 1215.73 M1279.36 1212.02 Q1285.17 1212.02 1288.22 1216.63 Q1291.3 1221.21 1291.3 1229.96 Q1291.3 1238.69 1288.22 1243.3 Q1285.17 1247.88 1279.36 1247.88 Q1273.55 1247.88 1270.47 1243.3 Q1267.41 1238.69 1267.41 1229.96 Q1267.41 1221.21 1270.47 1216.63 Q1273.55 1212.02 1279.36 1212.02 Z" fill="#000000" fill-rule="nonzero" fill-opacity="1" /><path clip-path="url(#clip030)" d="M1309.52 1215.73 Q1305.91 1215.73 1304.08 1219.29 Q1302.27 1222.83 1302.27 1229.96 Q1302.27 1237.07 1304.08 1240.63 Q1305.91 1244.18 1309.52 1244.18 Q1313.15 1244.18 1314.96 1240.63 Q1316.79 1237.07 1316.79 1229.96 Q1316.79 1222.83 1314.96 1219.29 Q1313.15 1215.73 1309.52 1215.73 M1309.52 1212.02 Q1315.33 1212.02 1318.38 1216.63 Q1321.46 1221.21 1321.46 1229.96 Q1321.46 1238.69 1318.38 1243.3 Q1315.33 1247.88 1309.52 1247.88 Q1303.71 1247.88 1300.63 1243.3 Q1297.57 1238.69 1297.57 1229.96 Q1297.57 1221.21 1300.63 1216.63 Q1303.71 1212.02 1309.52 1212.02 Z" fill="#000000" fill-rule="nonzero" fill-opacity="1" /><path clip-path="url(#clip030)" d="M1403.25 1238.05 Q1406.61 1238.76 1408.48 1241.03 Q1410.38 1243.3 1410.38 1246.63 Q1410.38 1251.75 1406.86 1254.55 Q1403.35 1257.35 1396.86 1257.35 Q1394.69 1257.35 1392.37 1256.91 Q1390.08 1256.5 1387.63 1255.64 L1387.63 1251.13 Q1389.57 1252.26 1391.89 1252.84 Q1394.2 1253.42 1396.72 1253.42 Q1401.12 1253.42 1403.41 1251.68 Q1405.73 1249.95 1405.73 1246.63 Q1405.73 1243.58 1403.58 1241.87 Q1401.45 1240.13 1397.63 1240.13 L1393.6 1240.13 L1393.6 1236.29 L1397.81 1236.29 Q1401.26 1236.29 1403.09 1234.92 Q1404.92 1233.53 1404.92 1230.94 Q1404.92 1228.28 1403.02 1226.87 Q1401.15 1225.43 1397.63 1225.43 Q1395.71 1225.43 1393.51 1225.85 Q1391.31 1226.26 1388.67 1227.14 L1388.67 1222.98 Q1391.33 1222.24 1393.65 1221.87 Q1395.98 1221.5 1398.04 1221.5 Q1403.37 1221.5 1406.47 1223.93 Q1409.57 1226.33 1409.57 1230.45 Q1409.57 1233.32 1407.93 1235.32 Q1406.29 1237.28 1403.25 1238.05 Z" fill="#000000" fill-rule="nonzero" fill-opacity="1" /><path clip-path="url(#clip030)" d="M1429.25 1225.2 Q1425.64 1225.2 1423.81 1228.76 Q1422 1232.31 1422 1239.44 Q1422 1246.54 1423.81 1250.11 Q1425.64 1253.65 1429.25 1253.65 Q1432.88 1253.65 1434.69 1250.11 Q1436.52 1246.54 1436.52 1239.44 Q1436.52 1232.31 1434.69 1228.76 Q1432.88 1225.2 1429.25 1225.2 M1429.25 1221.5 Q1435.06 1221.5 1438.11 1226.1 Q1441.19 1230.69 1441.19 1239.44 Q1441.19 1248.16 1438.11 1252.77 Q1435.06 1257.35 1429.25 1257.35 Q1423.44 1257.35 1420.36 1252.77 Q1417.3 1248.16 1417.3 1239.44 Q1417.3 1230.69 1420.36 1226.1 Q1423.44 1221.5 1429.25 1221.5 Z" fill="#000000" fill-rule="nonzero" fill-opacity="1" /><path clip-path="url(#clip030)" d="M1459.41 1225.2 Q1455.8 1225.2 1453.97 1228.76 Q1452.16 1232.31 1452.16 1239.44 Q1452.16 1246.54 1453.97 1250.11 Q1455.8 1253.65 1459.41 1253.65 Q1463.04 1253.65 1464.85 1250.11 Q1466.68 1246.54 1466.68 1239.44 Q1466.68 1232.31 1464.85 1228.76 Q1463.04 1225.2 1459.41 1225.2 M1459.41 1221.5 Q1465.22 1221.5 1468.28 1226.1 Q1471.35 1230.69 1471.35 1239.44 Q1471.35 1248.16 1468.28 1252.77 Q1465.22 1257.35 1459.41 1257.35 Q1453.6 1257.35 1450.52 1252.77 Q1447.47 1248.16 1447.47 1239.44 Q1447.47 1230.69 1450.52 1226.1 Q1453.6 1221.5 1459.41 1221.5 Z" fill="#000000" fill-rule="nonzero" fill-opacity="1" /><path clip-path="url(#clip030)" d="M987.964 1329.1 L987.964 1346.95 L996.048 1346.95 Q1000.54 1346.95 1002.99 1344.63 Q1005.44 1342.31 1005.44 1338.01 Q1005.44 1333.74 1002.99 1331.42 Q1000.54 1329.1 996.048 1329.1 L987.964 1329.1 M981.534 1323.81 L996.048 1323.81 Q1004.04 1323.81 1008.11 1327.44 Q1012.22 1331.04 1012.22 1338.01 Q1012.22 1345.04 1008.11 1348.64 Q1004.04 1352.24 996.048 1352.24 L987.964 1352.24 L987.964 1371.33 L981.534 1371.33 L981.534 1323.81 Z" fill="#000000" fill-rule="nonzero" fill-opacity="1" /><path clip-path="url(#clip030)" d="M1056.43 1327.47 L1056.43 1334.25 Q1053.18 1331.23 1049.49 1329.73 Q1045.83 1328.24 1041.69 1328.24 Q1033.54 1328.24 1029.21 1333.23 Q1024.88 1338.2 1024.88 1347.62 Q1024.88 1357.01 1029.21 1362.01 Q1033.54 1366.97 1041.69 1366.97 Q1045.83 1366.97 1049.49 1365.48 Q1053.18 1363.98 1056.43 1360.96 L1056.43 1367.67 Q1053.05 1369.96 1049.27 1371.11 Q1045.51 1372.26 1041.31 1372.26 Q1030.52 1372.26 1024.31 1365.67 Q1018.11 1359.05 1018.11 1347.62 Q1018.11 1336.16 1024.31 1329.57 Q1030.52 1322.95 1041.31 1322.95 Q1045.57 1322.95 1049.33 1324.1 Q1053.12 1325.21 1056.43 1327.47 Z" fill="#000000" fill-rule="nonzero" fill-opacity="1" /><path clip-path="url(#clip030)" d="M1068.04 1365.92 L1078.55 1365.92 L1078.55 1329.67 L1067.12 1331.96 L1067.12 1326.1 L1078.48 1323.81 L1084.91 1323.81 L1084.91 1365.92 L1095.42 1365.92 L1095.42 1371.33 L1068.04 1371.33 L1068.04 1365.92 Z" fill="#000000" fill-rule="nonzero" fill-opacity="1" /><polyline clip-path="url(#clip030)" style="stroke:#000000; stroke-linecap:round; stroke-linejoin:round; stroke-width:4; stroke-opacity:1; fill:none" points="1534.84,1214.78 1806.54,1085.15 "/>
<polyline clip-path="url(#clip030)" style="stroke:#000000; stroke-linecap:round; stroke-linejoin:round; stroke-width:4; stroke-opacity:1; fill:none" points="1573.4,1196.38 1564.44,1195.82 "/>
<polyline clip-path="url(#clip030)" style="stroke:#000000; stroke-linecap:round; stroke-linejoin:round; stroke-width:4; stroke-opacity:1; fill:none" points="1614.36,1176.84 1605.4,1176.27 "/>
<polyline clip-path="url(#clip030)" style="stroke:#000000; stroke-linecap:round; stroke-linejoin:round; stroke-width:4; stroke-opacity:1; fill:none" points="1655.32,1157.3 1646.36,1156.73 "/>
<polyline clip-path="url(#clip030)" style="stroke:#000000; stroke-linecap:round; stroke-linejoin:round; stroke-width:4; stroke-opacity:1; fill:none" points="1696.28,1137.76 1687.32,1137.19 "/>
<polyline clip-path="url(#clip030)" style="stroke:#000000; stroke-linecap:round; stroke-linejoin:round; stroke-width:4; stroke-opacity:1; fill:none" points="1737.24,1118.21 1728.29,1117.65 "/>
<polyline clip-path="url(#clip030)" style="stroke:#000000; stroke-linecap:round; stroke-linejoin:round; stroke-width:4; stroke-opacity:1; fill:none" points="1778.2,1098.67 1769.25,1098.11 "/>
<path clip-path="url(#clip030)" d="M1597.02 1213.32 L1626.69 1213.32 L1626.69 1217.25 L1597.02 1217.25 L1597.02 1213.32 Z" fill="#000000" fill-rule="nonzero" fill-opacity="1" /><path clip-path="url(#clip030)" d="M1635.6 1195.59 L1657.83 1195.59 L1657.83 1197.58 L1645.28 1230.15 L1640.4 1230.15 L1652.2 1199.52 L1635.6 1199.52 L1635.6 1195.59 Z" fill="#000000" fill-rule="nonzero" fill-opacity="1" /><path clip-path="url(#clip030)" d="M1666.99 1195.59 L1685.35 1195.59 L1685.35 1199.52 L1671.27 1199.52 L1671.27 1207.99 Q1672.29 1207.65 1673.31 1207.48 Q1674.33 1207.3 1675.35 1207.3 Q1681.14 1207.3 1684.52 1210.47 Q1687.9 1213.64 1687.9 1219.06 Q1687.9 1224.64 1684.42 1227.74 Q1680.95 1230.82 1674.63 1230.82 Q1672.46 1230.82 1670.19 1230.45 Q1667.94 1230.08 1665.53 1229.34 L1665.53 1224.64 Q1667.62 1225.77 1669.84 1226.33 Q1672.06 1226.88 1674.54 1226.88 Q1678.54 1226.88 1680.88 1224.78 Q1683.22 1222.67 1683.22 1219.06 Q1683.22 1215.45 1680.88 1213.34 Q1678.54 1211.23 1674.54 1211.23 Q1672.66 1211.23 1670.79 1211.65 Q1668.94 1212.07 1666.99 1212.95 L1666.99 1195.59 Z" fill="#000000" fill-rule="nonzero" fill-opacity="1" /><path clip-path="url(#clip030)" d="M1637.98 1193.77 L1667.65 1193.77 L1667.65 1197.71 L1637.98 1197.71 L1637.98 1193.77 Z" fill="#000000" fill-rule="nonzero" fill-opacity="1" /><path clip-path="url(#clip030)" d="M1677.79 1176.04 L1696.15 1176.04 L1696.15 1179.98 L1682.07 1179.98 L1682.07 1188.45 Q1683.09 1188.1 1684.11 1187.94 Q1685.13 1187.76 1686.15 1187.76 Q1691.94 1187.76 1695.31 1190.93 Q1698.69 1194.1 1698.69 1199.52 Q1698.69 1205.09 1695.22 1208.2 Q1691.75 1211.27 1685.43 1211.27 Q1683.25 1211.27 1680.99 1210.9 Q1678.74 1210.53 1676.33 1209.79 L1676.33 1205.09 Q1678.42 1206.23 1680.64 1206.78 Q1682.86 1207.34 1685.34 1207.34 Q1689.34 1207.34 1691.68 1205.23 Q1694.02 1203.13 1694.02 1199.52 Q1694.02 1195.9 1691.68 1193.8 Q1689.34 1191.69 1685.34 1191.69 Q1683.46 1191.69 1681.59 1192.11 Q1679.74 1192.52 1677.79 1193.4 L1677.79 1176.04 Z" fill="#000000" fill-rule="nonzero" fill-opacity="1" /><path clip-path="url(#clip030)" d="M1717.91 1179.12 Q1714.3 1179.12 1712.47 1182.69 Q1710.66 1186.23 1710.66 1193.36 Q1710.66 1200.46 1712.47 1204.03 Q1714.3 1207.57 1717.91 1207.57 Q1721.54 1207.57 1723.35 1204.03 Q1725.18 1200.46 1725.18 1193.36 Q1725.18 1186.23 1723.35 1182.69 Q1721.54 1179.12 1717.91 1179.12 M1717.91 1175.42 Q1723.72 1175.42 1726.77 1180.02 Q1729.85 1184.61 1729.85 1193.36 Q1729.85 1202.09 1726.77 1206.69 Q1723.72 1211.27 1717.91 1211.27 Q1712.1 1211.27 1709.02 1206.69 Q1705.96 1202.09 1705.96 1193.36 Q1705.96 1184.61 1709.02 1180.02 Q1712.1 1175.42 1717.91 1175.42 Z" fill="#000000" fill-rule="nonzero" fill-opacity="1" /><path clip-path="url(#clip030)" d="M1678.94 1174.23 L1708.61 1174.23 L1708.61 1178.17 L1678.94 1178.17 L1678.94 1174.23 Z" fill="#000000" fill-rule="nonzero" fill-opacity="1" /><path clip-path="url(#clip030)" d="M1722.73 1187.13 L1739.05 1187.13 L1739.05 1191.06 L1717.11 1191.06 L1717.11 1187.13 Q1719.77 1184.37 1724.35 1179.74 Q1728.96 1175.09 1730.14 1173.75 Q1732.39 1171.22 1733.27 1169.49 Q1734.17 1167.73 1734.17 1166.04 Q1734.17 1163.28 1732.22 1161.55 Q1730.3 1159.81 1727.2 1159.81 Q1725 1159.81 1722.55 1160.58 Q1720.12 1161.34 1717.34 1162.89 L1717.34 1158.17 Q1720.16 1157.03 1722.62 1156.45 Q1725.07 1155.88 1727.11 1155.88 Q1732.48 1155.88 1735.67 1158.56 Q1738.87 1161.25 1738.87 1165.74 Q1738.87 1167.87 1738.06 1169.79 Q1737.27 1171.69 1735.16 1174.28 Q1734.59 1174.95 1731.48 1178.17 Q1728.38 1181.36 1722.73 1187.13 Z" fill="#000000" fill-rule="nonzero" fill-opacity="1" /><path clip-path="url(#clip030)" d="M1748.91 1156.5 L1767.27 1156.5 L1767.27 1160.44 L1753.2 1160.44 L1753.2 1168.91 Q1754.22 1168.56 1755.23 1168.4 Q1756.25 1168.21 1757.27 1168.21 Q1763.06 1168.21 1766.44 1171.39 Q1769.82 1174.56 1769.82 1179.97 Q1769.82 1185.55 1766.35 1188.65 Q1762.87 1191.73 1756.55 1191.73 Q1754.38 1191.73 1752.11 1191.36 Q1749.86 1190.99 1747.46 1190.25 L1747.46 1185.55 Q1749.54 1186.69 1751.76 1187.24 Q1753.98 1187.8 1756.46 1187.8 Q1760.47 1187.8 1762.8 1185.69 Q1765.14 1183.58 1765.14 1179.97 Q1765.14 1176.36 1762.8 1174.26 Q1760.47 1172.15 1756.46 1172.15 Q1754.59 1172.15 1752.71 1172.57 Q1750.86 1172.98 1748.91 1173.86 L1748.91 1156.5 Z" fill="#000000" fill-rule="nonzero" fill-opacity="1" /><path clip-path="url(#clip030)" d="M1731.84 1140.04 Q1728.23 1140.04 1726.4 1143.6 Q1724.6 1147.14 1724.6 1154.27 Q1724.6 1161.38 1726.4 1164.94 Q1728.23 1168.49 1731.84 1168.49 Q1735.48 1168.49 1737.28 1164.94 Q1739.11 1161.38 1739.11 1154.27 Q1739.11 1147.14 1737.28 1143.6 Q1735.48 1140.04 1731.84 1140.04 M1731.84 1136.33 Q1737.65 1136.33 1740.71 1140.94 Q1743.79 1145.52 1743.79 1154.27 Q1743.79 1163 1740.71 1167.61 Q1737.65 1172.19 1731.84 1172.19 Q1726.03 1172.19 1722.95 1167.61 Q1719.9 1163 1719.9 1154.27 Q1719.9 1145.52 1722.95 1140.94 Q1726.03 1136.33 1731.84 1136.33 Z" fill="#000000" fill-rule="nonzero" fill-opacity="1" /><path clip-path="url(#clip030)" d="M1766.49 1148.04 L1782.8 1148.04 L1782.8 1151.98 L1760.86 1151.98 L1760.86 1148.04 Q1763.52 1145.29 1768.11 1140.66 Q1772.71 1136 1773.89 1134.66 Q1776.14 1132.14 1777.02 1130.4 Q1777.92 1128.64 1777.92 1126.95 Q1777.92 1124.2 1775.98 1122.46 Q1774.05 1120.73 1770.95 1120.73 Q1768.75 1120.73 1766.3 1121.49 Q1763.87 1122.25 1761.09 1123.81 L1761.09 1119.08 Q1763.92 1117.95 1766.37 1117.37 Q1768.82 1116.79 1770.86 1116.79 Q1776.23 1116.79 1779.43 1119.48 Q1782.62 1122.16 1782.62 1126.65 Q1782.62 1128.78 1781.81 1130.7 Q1781.02 1132.6 1778.92 1135.19 Q1778.34 1135.87 1775.24 1139.08 Q1772.13 1142.28 1766.49 1148.04 Z" fill="#000000" fill-rule="nonzero" fill-opacity="1" /><path clip-path="url(#clip030)" d="M1792.67 1117.42 L1811.02 1117.42 L1811.02 1121.35 L1796.95 1121.35 L1796.95 1129.82 Q1797.97 1129.48 1798.99 1129.31 Q1800 1129.13 1801.02 1129.13 Q1806.81 1129.13 1810.19 1132.3 Q1813.57 1135.47 1813.57 1140.89 Q1813.57 1146.47 1810.1 1149.57 Q1806.62 1152.65 1800.3 1152.65 Q1798.13 1152.65 1795.86 1152.28 Q1793.61 1151.91 1791.21 1151.17 L1791.21 1146.47 Q1793.29 1147.6 1795.51 1148.16 Q1797.74 1148.71 1800.21 1148.71 Q1804.22 1148.71 1806.55 1146.61 Q1808.89 1144.5 1808.89 1140.89 Q1808.89 1137.28 1806.55 1135.17 Q1804.22 1133.06 1800.21 1133.06 Q1798.34 1133.06 1796.46 1133.48 Q1794.61 1133.9 1792.67 1134.78 L1792.67 1117.42 Z" fill="#000000" fill-rule="nonzero" fill-opacity="1" /><path clip-path="url(#clip030)" d="M1803.28 1097.87 L1821.64 1097.87 L1821.64 1101.81 L1807.56 1101.81 L1807.56 1110.28 Q1808.58 1109.93 1809.6 1109.77 Q1810.62 1109.59 1811.64 1109.59 Q1817.42 1109.59 1820.8 1112.76 Q1824.18 1115.93 1824.18 1121.35 Q1824.18 1126.93 1820.71 1130.03 Q1817.24 1133.11 1810.92 1133.11 Q1808.74 1133.11 1806.47 1132.74 Q1804.23 1132.36 1801.82 1131.62 L1801.82 1126.93 Q1803.9 1128.06 1806.13 1128.61 Q1808.35 1129.17 1810.83 1129.17 Q1814.83 1129.17 1817.17 1127.06 Q1819.51 1124.96 1819.51 1121.35 Q1819.51 1117.74 1817.17 1115.63 Q1814.83 1113.52 1810.83 1113.52 Q1808.95 1113.52 1807.08 1113.94 Q1805.22 1114.36 1803.28 1115.24 L1803.28 1097.87 Z" fill="#000000" fill-rule="nonzero" fill-opacity="1" /><path clip-path="url(#clip030)" d="M1843.4 1100.95 Q1839.78 1100.95 1837.96 1104.52 Q1836.15 1108.06 1836.15 1115.19 Q1836.15 1122.3 1837.96 1125.86 Q1839.78 1129.4 1843.4 1129.4 Q1847.03 1129.4 1848.84 1125.86 Q1850.66 1122.3 1850.66 1115.19 Q1850.66 1108.06 1848.84 1104.52 Q1847.03 1100.95 1843.4 1100.95 M1843.4 1097.25 Q1849.21 1097.25 1852.26 1101.86 Q1855.34 1106.44 1855.34 1115.19 Q1855.34 1123.92 1852.26 1128.52 Q1849.21 1133.11 1843.4 1133.11 Q1837.59 1133.11 1834.51 1128.52 Q1831.45 1123.92 1831.45 1115.19 Q1831.45 1106.44 1834.51 1101.86 Q1837.59 1097.25 1843.4 1097.25 Z" fill="#000000" fill-rule="nonzero" fill-opacity="1" /><path clip-path="url(#clip030)" d="M1743.55 1287.87 L1743.55 1305.73 L1751.64 1305.73 Q1756.12 1305.73 1758.58 1303.41 Q1761.03 1301.08 1761.03 1296.79 Q1761.03 1292.52 1758.58 1290.2 Q1756.12 1287.87 1751.64 1287.87 L1743.55 1287.87 M1737.12 1282.59 L1751.64 1282.59 Q1759.63 1282.59 1763.7 1286.22 Q1767.81 1289.82 1767.81 1296.79 Q1767.81 1303.82 1763.7 1307.42 Q1759.63 1311.01 1751.64 1311.01 L1743.55 1311.01 L1743.55 1330.11 L1737.12 1330.11 L1737.12 1282.59 Z" fill="#000000" fill-rule="nonzero" fill-opacity="1" /><path clip-path="url(#clip030)" d="M1812.02 1286.25 L1812.02 1293.03 Q1808.77 1290.01 1805.08 1288.51 Q1801.42 1287.01 1797.28 1287.01 Q1789.13 1287.01 1784.8 1292.01 Q1780.47 1296.98 1780.47 1306.4 Q1780.47 1315.79 1784.8 1320.78 Q1789.13 1325.75 1797.28 1325.75 Q1801.42 1325.75 1805.08 1324.25 Q1808.77 1322.76 1812.02 1319.73 L1812.02 1326.45 Q1808.64 1328.74 1804.85 1329.89 Q1801.1 1331.03 1796.9 1331.03 Q1786.11 1331.03 1779.9 1324.44 Q1773.69 1317.82 1773.69 1306.4 Q1773.69 1294.94 1779.9 1288.35 Q1786.11 1281.73 1796.9 1281.73 Q1801.16 1281.73 1804.92 1282.88 Q1808.71 1283.99 1812.02 1286.25 Z" fill="#000000" fill-rule="nonzero" fill-opacity="1" /><path clip-path="url(#clip030)" d="M1828.06 1324.7 L1850.5 1324.7 L1850.5 1330.11 L1820.32 1330.11 L1820.32 1324.7 Q1823.98 1320.91 1830.29 1314.55 Q1836.62 1308.15 1838.24 1306.3 Q1841.33 1302.83 1842.54 1300.45 Q1843.78 1298.03 1843.78 1295.7 Q1843.78 1291.92 1841.11 1289.53 Q1838.47 1287.14 1834.2 1287.14 Q1831.18 1287.14 1827.8 1288.19 Q1824.46 1289.24 1820.64 1291.37 L1820.64 1284.88 Q1824.52 1283.32 1827.9 1282.53 Q1831.27 1281.73 1834.07 1281.73 Q1841.46 1281.73 1845.85 1285.42 Q1850.24 1289.12 1850.24 1295.29 Q1850.24 1298.22 1849.13 1300.86 Q1848.05 1303.47 1845.15 1307.03 Q1844.35 1307.96 1840.09 1312.38 Q1835.82 1316.77 1828.06 1324.7 Z" fill="#000000" fill-rule="nonzero" fill-opacity="1" /><polyline clip-path="url(#clip030)" style="stroke:#000000; stroke-linecap:round; stroke-linejoin:round; stroke-width:4; stroke-opacity:1; fill:none" points="788.351,1167.6 788.351,385.271 "/>
<polyline clip-path="url(#clip030)" style="stroke:#000000; stroke-linecap:round; stroke-linejoin:round; stroke-width:4; stroke-opacity:1; fill:none" points="788.351,1096.17 791.611,1094.61 "/>
<polyline clip-path="url(#clip030)" style="stroke:#000000; stroke-linecap:round; stroke-linejoin:round; stroke-width:4; stroke-opacity:1; fill:none" points="788.351,971.048 791.611,969.493 "/>
<polyline clip-path="url(#clip030)" style="stroke:#000000; stroke-linecap:round; stroke-linejoin:round; stroke-width:4; stroke-opacity:1; fill:none" points="788.351,845.931 791.611,844.375 "/>
<polyline clip-path="url(#clip030)" style="stroke:#000000; stroke-linecap:round; stroke-linejoin:round; stroke-width:4; stroke-opacity:1; fill:none" points="788.351,720.814 791.611,719.258 "/>
<polyline clip-path="url(#clip030)" style="stroke:#000000; stroke-linecap:round; stroke-linejoin:round; stroke-width:4; stroke-opacity:1; fill:none" points="788.351,595.697 791.611,594.141 "/>
<polyline clip-path="url(#clip030)" style="stroke:#000000; stroke-linecap:round; stroke-linejoin:round; stroke-width:4; stroke-opacity:1; fill:none" points="788.351,470.579 791.611,469.024 "/>
<path clip-path="url(#clip030)" d="M667.676 1096.62 L697.352 1096.62 L697.352 1100.55 L667.676 1100.55 L667.676 1096.62 Z" fill="#000000" fill-rule="nonzero" fill-opacity="1" /><path clip-path="url(#clip030)" d="M721.611 1094.81 Q724.968 1095.53 726.843 1097.8 Q728.741 1100.07 728.741 1103.4 Q728.741 1108.51 725.222 1111.32 Q721.704 1114.12 715.223 1114.12 Q713.047 1114.12 710.732 1113.68 Q708.44 1113.26 705.986 1112.4 L705.986 1107.89 Q707.931 1109.02 710.246 1109.6 Q712.56 1110.18 715.084 1110.18 Q719.482 1110.18 721.773 1108.45 Q724.088 1106.71 724.088 1103.4 Q724.088 1100.34 721.935 1098.63 Q719.806 1096.89 715.986 1096.89 L711.959 1096.89 L711.959 1093.05 L716.172 1093.05 Q719.621 1093.05 721.449 1091.69 Q723.278 1090.3 723.278 1087.7 Q723.278 1085.04 721.38 1083.63 Q719.505 1082.2 715.986 1082.2 Q714.065 1082.2 711.866 1082.61 Q709.667 1083.03 707.028 1083.91 L707.028 1079.74 Q709.69 1079 712.005 1078.63 Q714.343 1078.26 716.403 1078.26 Q721.727 1078.26 724.829 1080.69 Q727.931 1083.1 727.931 1087.22 Q727.931 1090.09 726.287 1092.08 Q724.644 1094.05 721.611 1094.81 Z" fill="#000000" fill-rule="nonzero" fill-opacity="1" /><path clip-path="url(#clip030)" d="M747.607 1081.96 Q743.996 1081.96 742.167 1085.53 Q740.361 1089.07 740.361 1096.2 Q740.361 1103.31 742.167 1106.87 Q743.996 1110.41 747.607 1110.41 Q751.241 1110.41 753.046 1106.87 Q754.875 1103.31 754.875 1096.2 Q754.875 1089.07 753.046 1085.53 Q751.241 1081.96 747.607 1081.96 M747.607 1078.26 Q753.417 1078.26 756.472 1082.87 Q759.551 1087.45 759.551 1096.2 Q759.551 1104.93 756.472 1109.53 Q753.417 1114.12 747.607 1114.12 Q741.796 1114.12 738.718 1109.53 Q735.662 1104.93 735.662 1096.2 Q735.662 1087.45 738.718 1082.87 Q741.796 1078.26 747.607 1078.26 Z" fill="#000000" fill-rule="nonzero" fill-opacity="1" /><path clip-path="url(#clip030)" d="M667.676 971.5 L697.352 971.5 L697.352 975.435 L667.676 975.435 L667.676 971.5 Z" fill="#000000" fill-rule="nonzero" fill-opacity="1" /><path clip-path="url(#clip030)" d="M711.473 984.393 L727.792 984.393 L727.792 988.328 L705.848 988.328 L705.848 984.393 Q708.51 981.638 713.093 977.009 Q717.699 972.356 718.88 971.013 Q721.125 968.49 722.005 966.754 Q722.908 964.995 722.908 963.305 Q722.908 960.551 720.963 958.814 Q719.042 957.078 715.94 957.078 Q713.741 957.078 711.287 957.842 Q708.857 958.606 706.079 960.157 L706.079 955.435 Q708.903 954.301 711.357 953.722 Q713.81 953.143 715.848 953.143 Q721.218 953.143 724.412 955.828 Q727.607 958.514 727.607 963.004 Q727.607 965.134 726.797 967.055 Q726.009 968.953 723.903 971.546 Q723.324 972.217 720.222 975.435 Q717.121 978.629 711.473 984.393 Z" fill="#000000" fill-rule="nonzero" fill-opacity="1" /><path clip-path="url(#clip030)" d="M747.607 956.847 Q743.996 956.847 742.167 960.412 Q740.361 963.953 740.361 971.083 Q740.361 978.189 742.167 981.754 Q743.996 985.296 747.607 985.296 Q751.241 985.296 753.046 981.754 Q754.875 978.189 754.875 971.083 Q754.875 963.953 753.046 960.412 Q751.241 956.847 747.607 956.847 M747.607 953.143 Q753.417 953.143 756.472 957.75 Q759.551 962.333 759.551 971.083 Q759.551 979.81 756.472 984.416 Q753.417 988.999 747.607 988.999 Q741.796 988.999 738.718 984.416 Q735.662 979.81 735.662 971.083 Q735.662 962.333 738.718 957.75 Q741.796 953.143 747.607 953.143 Z" fill="#000000" fill-rule="nonzero" fill-opacity="1" /><path clip-path="url(#clip030)" d="M667.676 846.382 L697.352 846.382 L697.352 850.318 L667.676 850.318 L667.676 846.382 Z" fill="#000000" fill-rule="nonzero" fill-opacity="1" /><path clip-path="url(#clip030)" d="M708.255 859.276 L715.894 859.276 L715.894 832.91 L707.584 834.577 L707.584 830.318 L715.848 828.651 L720.523 828.651 L720.523 859.276 L728.162 859.276 L728.162 863.211 L708.255 863.211 L708.255 859.276 Z" fill="#000000" fill-rule="nonzero" fill-opacity="1" /><path clip-path="url(#clip030)" d="M747.607 831.73 Q743.996 831.73 742.167 835.294 Q740.361 838.836 740.361 845.966 Q740.361 853.072 742.167 856.637 Q743.996 860.179 747.607 860.179 Q751.241 860.179 753.046 856.637 Q754.875 853.072 754.875 845.966 Q754.875 838.836 753.046 835.294 Q751.241 831.73 747.607 831.73 M747.607 828.026 Q753.417 828.026 756.472 832.632 Q759.551 837.216 759.551 845.966 Q759.551 854.693 756.472 859.299 Q753.417 863.882 747.607 863.882 Q741.796 863.882 738.718 859.299 Q735.662 854.693 735.662 845.966 Q735.662 837.216 738.718 832.632 Q741.796 828.026 747.607 828.026 Z" fill="#000000" fill-rule="nonzero" fill-opacity="1" /><path clip-path="url(#clip030)" d="M747.607 706.612 Q743.996 706.612 742.167 710.177 Q740.361 713.719 740.361 720.849 Q740.361 727.955 742.167 731.52 Q743.996 735.061 747.607 735.061 Q751.241 735.061 753.046 731.52 Q754.875 727.955 754.875 720.849 Q754.875 713.719 753.046 710.177 Q751.241 706.612 747.607 706.612 M747.607 702.909 Q753.417 702.909 756.472 707.515 Q759.551 712.099 759.551 720.849 Q759.551 729.575 756.472 734.182 Q753.417 738.765 747.607 738.765 Q741.796 738.765 738.718 734.182 Q735.662 729.575 735.662 720.849 Q735.662 712.099 738.718 707.515 Q741.796 702.909 747.607 702.909 Z" fill="#000000" fill-rule="nonzero" fill-opacity="1" /><path clip-path="url(#clip030)" d="M708.255 609.041 L715.894 609.041 L715.894 582.676 L707.584 584.343 L707.584 580.083 L715.848 578.417 L720.523 578.417 L720.523 609.041 L728.162 609.041 L728.162 612.977 L708.255 612.977 L708.255 609.041 Z" fill="#000000" fill-rule="nonzero" fill-opacity="1" /><path clip-path="url(#clip030)" d="M747.607 581.495 Q743.996 581.495 742.167 585.06 Q740.361 588.602 740.361 595.731 Q740.361 602.838 742.167 606.403 Q743.996 609.944 747.607 609.944 Q751.241 609.944 753.046 606.403 Q754.875 602.838 754.875 595.731 Q754.875 588.602 753.046 585.06 Q751.241 581.495 747.607 581.495 M747.607 577.792 Q753.417 577.792 756.472 582.398 Q759.551 586.981 759.551 595.731 Q759.551 604.458 756.472 609.065 Q753.417 613.648 747.607 613.648 Q741.796 613.648 738.718 609.065 Q735.662 604.458 735.662 595.731 Q735.662 586.981 738.718 582.398 Q741.796 577.792 747.607 577.792 Z" fill="#000000" fill-rule="nonzero" fill-opacity="1" /><path clip-path="url(#clip030)" d="M711.473 483.924 L727.792 483.924 L727.792 487.859 L705.848 487.859 L705.848 483.924 Q708.51 481.17 713.093 476.54 Q717.699 471.887 718.88 470.545 Q721.125 468.022 722.005 466.285 Q722.908 464.526 722.908 462.836 Q722.908 460.082 720.963 458.346 Q719.042 456.61 715.94 456.61 Q713.741 456.61 711.287 457.373 Q708.857 458.137 706.079 459.688 L706.079 454.966 Q708.903 453.832 711.357 453.253 Q713.81 452.674 715.848 452.674 Q721.218 452.674 724.412 455.36 Q727.607 458.045 727.607 462.535 Q727.607 464.665 726.797 466.586 Q726.009 468.485 723.903 471.077 Q723.324 471.748 720.222 474.966 Q717.121 478.16 711.473 483.924 Z" fill="#000000" fill-rule="nonzero" fill-opacity="1" /><path clip-path="url(#clip030)" d="M747.607 456.378 Q743.996 456.378 742.167 459.943 Q740.361 463.485 740.361 470.614 Q740.361 477.721 742.167 481.285 Q743.996 484.827 747.607 484.827 Q751.241 484.827 753.046 481.285 Q754.875 477.721 754.875 470.614 Q754.875 463.485 753.046 459.943 Q751.241 456.378 747.607 456.378 M747.607 452.674 Q753.417 452.674 756.472 457.281 Q759.551 461.864 759.551 470.614 Q759.551 479.341 756.472 483.947 Q753.417 488.531 747.607 488.531 Q741.796 488.531 738.718 483.947 Q735.662 479.341 735.662 470.614 Q735.662 461.864 738.718 457.281 Q741.796 452.674 747.607 452.674 Z" fill="#000000" fill-rule="nonzero" fill-opacity="1" /><path clip-path="url(#clip030)" d="M567.984 827.345 L585.84 827.345 L585.84 819.26 Q585.84 814.773 583.516 812.322 Q581.193 809.871 576.896 809.871 Q572.631 809.871 570.307 812.322 Q567.984 814.773 567.984 819.26 L567.984 827.345 M562.7 833.774 L562.7 819.26 Q562.7 811.271 566.329 807.197 Q569.926 803.092 576.896 803.092 Q583.93 803.092 587.527 807.197 Q591.123 811.271 591.123 819.26 L591.123 827.345 L610.22 827.345 L610.22 833.774 L562.7 833.774 Z" fill="#000000" fill-rule="nonzero" fill-opacity="1" /><path clip-path="url(#clip030)" d="M566.361 758.882 L573.14 758.882 Q570.117 762.128 568.621 765.82 Q567.125 769.481 567.125 773.618 Q567.125 781.766 572.122 786.095 Q577.087 790.424 586.508 790.424 Q595.898 790.424 600.895 786.095 Q605.86 781.766 605.86 773.618 Q605.86 769.481 604.364 765.82 Q602.868 762.128 599.844 758.882 L606.56 758.882 Q608.852 762.255 609.998 766.043 Q611.143 769.799 611.143 774 Q611.143 784.79 604.555 790.997 Q597.935 797.203 586.508 797.203 Q575.05 797.203 568.461 790.997 Q561.841 784.79 561.841 774 Q561.841 769.735 562.987 765.979 Q564.101 762.192 566.361 758.882 Z" fill="#000000" fill-rule="nonzero" fill-opacity="1" /><path clip-path="url(#clip030)" d="M584.599 728.899 Q585.585 724.284 588.704 721.706 Q591.824 719.096 596.407 719.096 Q603.441 719.096 607.292 723.934 Q611.143 728.772 611.143 737.684 Q611.143 740.676 610.539 743.859 Q609.966 747.01 608.788 750.383 L602.582 750.383 Q604.141 747.71 604.937 744.527 Q605.733 741.344 605.733 737.875 Q605.733 731.827 603.346 728.676 Q600.958 725.494 596.407 725.494 Q592.206 725.494 589.85 728.454 Q587.463 731.382 587.463 736.634 L587.463 742.172 L582.18 742.172 L582.18 736.379 Q582.18 731.636 580.302 729.122 Q578.392 726.608 574.827 726.608 Q571.167 726.608 569.225 729.217 Q567.252 731.796 567.252 736.634 Q567.252 739.275 567.825 742.299 Q568.398 745.323 569.607 748.951 L563.878 748.951 Q562.86 745.291 562.35 742.108 Q561.841 738.893 561.841 736.061 Q561.841 728.74 565.183 724.475 Q568.493 720.21 574.159 720.21 Q578.105 720.21 580.843 722.47 Q583.548 724.73 584.599 728.899 Z" fill="#000000" fill-rule="nonzero" fill-opacity="1" /><circle clip-path="url(#clip032)" cx="1188.46" cy="764.34" r="14.4" fill="#009af9" fill-rule="evenodd" fill-opacity="1" stroke="#000000" stroke-opacity="1" stroke-width="3.2"/>
<circle clip-path="url(#clip032)" cx="1107.59" cy="701.069" r="14.4" fill="#009af9" fill-rule="evenodd" fill-opacity="1" stroke="#000000" stroke-opacity="1" stroke-width="3.2"/>
<circle clip-path="url(#clip032)" cx="1001.4" cy="879.012" r="14.4" fill="#009af9" fill-rule="evenodd" fill-opacity="1" stroke="#000000" stroke-opacity="1" stroke-width="3.2"/>
<circle clip-path="url(#clip032)" cx="1015.5" cy="883.569" r="14.4" fill="#009af9" fill-rule="evenodd" fill-opacity="1" stroke="#000000" stroke-opacity="1" stroke-width="3.2"/>
<circle clip-path="url(#clip032)" cx="1092.1" cy="611.125" r="14.4" fill="#009af9" fill-rule="evenodd" fill-opacity="1" stroke="#000000" stroke-opacity="1" stroke-width="3.2"/>
<circle clip-path="url(#clip032)" cx="1075.57" cy="564.005" r="14.4" fill="#009af9" fill-rule="evenodd" fill-opacity="1" stroke="#000000" stroke-opacity="1" stroke-width="3.2"/>
<circle clip-path="url(#clip032)" cx="1137.01" cy="940.275" r="14.4" fill="#009af9" fill-rule="evenodd" fill-opacity="1" stroke="#000000" stroke-opacity="1" stroke-width="3.2"/>
<circle clip-path="url(#clip032)" cx="1084.45" cy="608.74" r="14.4" fill="#009af9" fill-rule="evenodd" fill-opacity="1" stroke="#000000" stroke-opacity="1" stroke-width="3.2"/>
<circle clip-path="url(#clip032)" cx="976.67" cy="785.943" r="14.4" fill="#009af9" fill-rule="evenodd" fill-opacity="1" stroke="#000000" stroke-opacity="1" stroke-width="3.2"/>
<circle clip-path="url(#clip032)" cx="964.168" cy="648.793" r="14.4" fill="#009af9" fill-rule="evenodd" fill-opacity="1" stroke="#000000" stroke-opacity="1" stroke-width="3.2"/>
<circle clip-path="url(#clip032)" cx="1053.52" cy="739.724" r="14.4" fill="#009af9" fill-rule="evenodd" fill-opacity="1" stroke="#000000" stroke-opacity="1" stroke-width="3.2"/>
<circle clip-path="url(#clip032)" cx="1145.87" cy="684.764" r="14.4" fill="#009af9" fill-rule="evenodd" fill-opacity="1" stroke="#000000" stroke-opacity="1" stroke-width="3.2"/>
<circle clip-path="url(#clip032)" cx="1114.49" cy="705.371" r="14.4" fill="#009af9" fill-rule="evenodd" fill-opacity="1" stroke="#000000" stroke-opacity="1" stroke-width="3.2"/>
<circle clip-path="url(#clip032)" cx="1378.44" cy="648.257" r="14.4" fill="#009af9" fill-rule="evenodd" fill-opacity="1" stroke="#000000" stroke-opacity="1" stroke-width="3.2"/>
<circle clip-path="url(#clip032)" cx="1173.2" cy="808.541" r="14.4" fill="#009af9" fill-rule="evenodd" fill-opacity="1" stroke="#000000" stroke-opacity="1" stroke-width="3.2"/>
<circle clip-path="url(#clip032)" cx="1329.34" cy="584.325" r="14.4" fill="#009af9" fill-rule="evenodd" fill-opacity="1" stroke="#000000" stroke-opacity="1" stroke-width="3.2"/>
<circle clip-path="url(#clip032)" cx="1279.66" cy="886.919" r="14.4" fill="#009af9" fill-rule="evenodd" fill-opacity="1" stroke="#000000" stroke-opacity="1" stroke-width="3.2"/>
<circle clip-path="url(#clip032)" cx="1120.35" cy="702.812" r="14.4" fill="#009af9" fill-rule="evenodd" fill-opacity="1" stroke="#000000" stroke-opacity="1" stroke-width="3.2"/>
<circle clip-path="url(#clip032)" cx="1273.62" cy="746.312" r="14.4" fill="#009af9" fill-rule="evenodd" fill-opacity="1" stroke="#000000" stroke-opacity="1" stroke-width="3.2"/>
<circle clip-path="url(#clip032)" cx="1297.44" cy="811.408" r="14.4" fill="#009af9" fill-rule="evenodd" fill-opacity="1" stroke="#000000" stroke-opacity="1" stroke-width="3.2"/>
<circle clip-path="url(#clip032)" cx="1247.42" cy="755.361" r="14.4" fill="#009af9" fill-rule="evenodd" fill-opacity="1" stroke="#000000" stroke-opacity="1" stroke-width="3.2"/>
<circle clip-path="url(#clip032)" cx="1208.82" cy="890.221" r="14.4" fill="#009af9" fill-rule="evenodd" fill-opacity="1" stroke="#000000" stroke-opacity="1" stroke-width="3.2"/>
<circle clip-path="url(#clip032)" cx="1711.3" cy="358.991" r="14.4" fill="#009af9" fill-rule="evenodd" fill-opacity="1" stroke="#000000" stroke-opacity="1" stroke-width="3.2"/>
<circle clip-path="url(#clip032)" cx="1245.52" cy="1018.95" r="14.4" fill="#009af9" fill-rule="evenodd" fill-opacity="1" stroke="#000000" stroke-opacity="1" stroke-width="3.2"/>
<circle clip-path="url(#clip032)" cx="1176.61" cy="843.006" r="14.4" fill="#009af9" fill-rule="evenodd" fill-opacity="1" stroke="#000000" stroke-opacity="1" stroke-width="3.2"/>
<circle clip-path="url(#clip032)" cx="1240.05" cy="613.72" r="14.4" fill="#e26f46" fill-rule="evenodd" fill-opacity="1" stroke="#000000" stroke-opacity="1" stroke-width="3.2"/>
<circle clip-path="url(#clip032)" cx="1222.27" cy="484.114" r="14.4" fill="#e26f46" fill-rule="evenodd" fill-opacity="1" stroke="#000000" stroke-opacity="1" stroke-width="3.2"/>
<circle clip-path="url(#clip032)" cx="1230.27" cy="575.844" r="14.4" fill="#e26f46" fill-rule="evenodd" fill-opacity="1" stroke="#000000" stroke-opacity="1" stroke-width="3.2"/>
<circle clip-path="url(#clip032)" cx="1211.15" cy="434.04" r="14.4" fill="#e26f46" fill-rule="evenodd" fill-opacity="1" stroke="#000000" stroke-opacity="1" stroke-width="3.2"/>
<circle clip-path="url(#clip032)" cx="1207.1" cy="425.124" r="14.4" fill="#e26f46" fill-rule="evenodd" fill-opacity="1" stroke="#000000" stroke-opacity="1" stroke-width="3.2"/>
<circle clip-path="url(#clip032)" cx="1217.38" cy="403.838" r="14.4" fill="#e26f46" fill-rule="evenodd" fill-opacity="1" stroke="#000000" stroke-opacity="1" stroke-width="3.2"/>
<circle clip-path="url(#clip032)" cx="1221.91" cy="422.613" r="14.4" fill="#e26f46" fill-rule="evenodd" fill-opacity="1" stroke="#000000" stroke-opacity="1" stroke-width="3.2"/>
<circle clip-path="url(#clip032)" cx="1246.6" cy="679.797" r="14.4" fill="#e26f46" fill-rule="evenodd" fill-opacity="1" stroke="#000000" stroke-opacity="1" stroke-width="3.2"/>
<circle clip-path="url(#clip032)" cx="1238.23" cy="690.759" r="14.4" fill="#e26f46" fill-rule="evenodd" fill-opacity="1" stroke="#000000" stroke-opacity="1" stroke-width="3.2"/>
<circle clip-path="url(#clip032)" cx="1210.73" cy="427.536" r="14.4" fill="#e26f46" fill-rule="evenodd" fill-opacity="1" stroke="#000000" stroke-opacity="1" stroke-width="3.2"/>
<circle clip-path="url(#clip032)" cx="1249.62" cy="750.116" r="14.4" fill="#e26f46" fill-rule="evenodd" fill-opacity="1" stroke="#000000" stroke-opacity="1" stroke-width="3.2"/>
<circle clip-path="url(#clip032)" cx="1204.17" cy="399.009" r="14.4" fill="#e26f46" fill-rule="evenodd" fill-opacity="1" stroke="#000000" stroke-opacity="1" stroke-width="3.2"/>
<circle clip-path="url(#clip032)" cx="1234.2" cy="766.538" r="14.4" fill="#e26f46" fill-rule="evenodd" fill-opacity="1" stroke="#000000" stroke-opacity="1" stroke-width="3.2"/>
<circle clip-path="url(#clip032)" cx="1232.86" cy="518.939" r="14.4" fill="#e26f46" fill-rule="evenodd" fill-opacity="1" stroke="#000000" stroke-opacity="1" stroke-width="3.2"/>
<circle clip-path="url(#clip032)" cx="1213.56" cy="424.599" r="14.4" fill="#e26f46" fill-rule="evenodd" fill-opacity="1" stroke="#000000" stroke-opacity="1" stroke-width="3.2"/>
<circle clip-path="url(#clip032)" cx="1214.46" cy="430.371" r="14.4" fill="#e26f46" fill-rule="evenodd" fill-opacity="1" stroke="#000000" stroke-opacity="1" stroke-width="3.2"/>
<circle clip-path="url(#clip032)" cx="1231.35" cy="825.484" r="14.4" fill="#e26f46" fill-rule="evenodd" fill-opacity="1" stroke="#000000" stroke-opacity="1" stroke-width="3.2"/>
<circle clip-path="url(#clip032)" cx="1230.52" cy="483.43" r="14.4" fill="#e26f46" fill-rule="evenodd" fill-opacity="1" stroke="#000000" stroke-opacity="1" stroke-width="3.2"/>
<circle clip-path="url(#clip032)" cx="1235.44" cy="593.209" r="14.4" fill="#e26f46" fill-rule="evenodd" fill-opacity="1" stroke="#000000" stroke-opacity="1" stroke-width="3.2"/>
<circle clip-path="url(#clip032)" cx="1243.71" cy="839.268" r="14.4" fill="#e26f46" fill-rule="evenodd" fill-opacity="1" stroke="#000000" stroke-opacity="1" stroke-width="3.2"/>
<circle clip-path="url(#clip032)" cx="1248.9" cy="1031.92" r="14.4" fill="#e26f46" fill-rule="evenodd" fill-opacity="1" stroke="#000000" stroke-opacity="1" stroke-width="3.2"/>
<circle clip-path="url(#clip032)" cx="1240.87" cy="712.742" r="14.4" fill="#e26f46" fill-rule="evenodd" fill-opacity="1" stroke="#000000" stroke-opacity="1" stroke-width="3.2"/>
<circle clip-path="url(#clip032)" cx="1218.69" cy="459.475" r="14.4" fill="#e26f46" fill-rule="evenodd" fill-opacity="1" stroke="#000000" stroke-opacity="1" stroke-width="3.2"/>
<circle clip-path="url(#clip032)" cx="1233.64" cy="747.975" r="14.4" fill="#e26f46" fill-rule="evenodd" fill-opacity="1" stroke="#000000" stroke-opacity="1" stroke-width="3.2"/>
<circle clip-path="url(#clip032)" cx="1248.72" cy="722.585" r="14.4" fill="#e26f46" fill-rule="evenodd" fill-opacity="1" stroke="#000000" stroke-opacity="1" stroke-width="3.2"/>
<circle clip-path="url(#clip032)" cx="817.168" cy="414.352" r="14.4" fill="#3da44d" fill-rule="evenodd" fill-opacity="1" stroke="#000000" stroke-opacity="1" stroke-width="3.2"/>
<circle clip-path="url(#clip032)" cx="1024.89" cy="537.458" r="14.4" fill="#c271d2" fill-rule="evenodd" fill-opacity="1" stroke="#000000" stroke-opacity="1" stroke-width="3.2"/>
<circle clip-path="url(#clip032)" cx="1022.98" cy="533.775" r="14.4" fill="#c271d2" fill-rule="evenodd" fill-opacity="1" stroke="#000000" stroke-opacity="1" stroke-width="3.2"/>
<path clip-path="url(#clip030)" d="M1746.36 884.756 L2282.4 884.756 L2282.4 625.556 L1746.36 625.556  Z" fill="#ffffff" fill-rule="evenodd" fill-opacity="1"/>
<polyline clip-path="url(#clip030)" style="stroke:#000000; stroke-linecap:round; stroke-linejoin:round; stroke-width:4; stroke-opacity:1; fill:none" points="1746.36,884.756 2282.4,884.756 2282.4,625.556 1746.36,625.556 1746.36,884.756 "/>
<circle clip-path="url(#clip030)" cx="1840.17" cy="677.396" r="20.48" fill="#009af9" fill-rule="evenodd" fill-opacity="1" stroke="#000000" stroke-opacity="1" stroke-width="4.55111"/>
<path clip-path="url(#clip030)" d="M1952.75 681.737 Q1952.75 677.038 1950.8 674.376 Q1948.88 671.691 1945.5 671.691 Q1942.12 671.691 1940.18 674.376 Q1938.26 677.038 1938.26 681.737 Q1938.26 686.436 1940.18 689.121 Q1942.12 691.783 1945.5 691.783 Q1948.88 691.783 1950.8 689.121 Q1952.75 686.436 1952.75 681.737 M1938.26 672.686 Q1939.6 670.371 1941.64 669.26 Q1943.7 668.126 1946.54 668.126 Q1951.27 668.126 1954.21 671.876 Q1957.17 675.626 1957.17 681.737 Q1957.17 687.848 1954.21 691.598 Q1951.27 695.348 1946.54 695.348 Q1943.7 695.348 1941.64 694.237 Q1939.6 693.102 1938.26 690.788 L1938.26 694.676 L1933.98 694.676 L1933.98 658.658 L1938.26 658.658 L1938.26 672.686 Z" fill="#000000" fill-rule="nonzero" fill-opacity="1" /><path clip-path="url(#clip030)" d="M1968.44 661.39 L1968.44 668.751 L1977.22 668.751 L1977.22 672.061 L1968.44 672.061 L1968.44 686.135 Q1968.44 689.306 1969.3 690.209 Q1970.18 691.112 1972.84 691.112 L1977.22 691.112 L1977.22 694.676 L1972.84 694.676 Q1967.91 694.676 1966.04 692.848 Q1964.16 690.996 1964.16 686.135 L1964.16 672.061 L1961.04 672.061 L1961.04 668.751 L1964.16 668.751 L1964.16 661.39 L1968.44 661.39 Z" fill="#000000" fill-rule="nonzero" fill-opacity="1" /><circle clip-path="url(#clip030)" cx="1840.17" cy="729.236" r="20.48" fill="#e26f46" fill-rule="evenodd" fill-opacity="1" stroke="#000000" stroke-opacity="1" stroke-width="4.55111"/>
<path clip-path="url(#clip030)" d="M1952.89 724.526 L1952.89 710.498 L1957.15 710.498 L1957.15 746.516 L1952.89 746.516 L1952.89 742.628 Q1951.54 744.942 1949.48 746.077 Q1947.45 747.188 1944.58 747.188 Q1939.88 747.188 1936.92 743.438 Q1933.98 739.688 1933.98 733.577 Q1933.98 727.466 1936.92 723.716 Q1939.88 719.966 1944.58 719.966 Q1947.45 719.966 1949.48 721.1 Q1951.54 722.211 1952.89 724.526 M1938.37 733.577 Q1938.37 738.276 1940.29 740.961 Q1942.24 743.623 1945.62 743.623 Q1949 743.623 1950.94 740.961 Q1952.89 738.276 1952.89 733.577 Q1952.89 728.878 1950.94 726.216 Q1949 723.531 1945.62 723.531 Q1942.24 723.531 1940.29 726.216 Q1938.37 728.878 1938.37 733.577 Z" fill="#000000" fill-rule="nonzero" fill-opacity="1" /><path clip-path="url(#clip030)" d="M1965.92 720.591 L1970.18 720.591 L1970.18 746.516 L1965.92 746.516 L1965.92 720.591 M1965.92 710.498 L1970.18 710.498 L1970.18 715.892 L1965.92 715.892 L1965.92 710.498 Z" fill="#000000" fill-rule="nonzero" fill-opacity="1" /><path clip-path="url(#clip030)" d="M1990.87 733.484 Q1985.71 733.484 1983.72 734.665 Q1981.73 735.845 1981.73 738.692 Q1981.73 740.961 1983.21 742.304 Q1984.72 743.623 1987.29 743.623 Q1990.83 743.623 1992.96 741.123 Q1995.11 738.6 1995.11 734.433 L1995.11 733.484 L1990.87 733.484 M1999.37 731.725 L1999.37 746.516 L1995.11 746.516 L1995.11 742.581 Q1993.65 744.942 1991.48 746.077 Q1989.3 747.188 1986.15 747.188 Q1982.17 747.188 1979.81 744.966 Q1977.47 742.72 1977.47 738.97 Q1977.47 734.595 1980.39 732.373 Q1983.33 730.151 1989.14 730.151 L1995.11 730.151 L1995.11 729.734 Q1995.11 726.794 1993.16 725.197 Q1991.24 723.577 1987.75 723.577 Q1985.53 723.577 1983.42 724.109 Q1981.31 724.642 1979.37 725.706 L1979.37 721.771 Q1981.71 720.868 1983.91 720.429 Q1986.1 719.966 1988.19 719.966 Q1993.81 719.966 1996.59 722.882 Q1999.37 725.799 1999.37 731.725 Z" fill="#000000" fill-rule="nonzero" fill-opacity="1" /><circle clip-path="url(#clip030)" cx="1840.17" cy="781.076" r="20.48" fill="#3da44d" fill-rule="evenodd" fill-opacity="1" stroke="#000000" stroke-opacity="1" stroke-width="4.55111"/>
<path clip-path="url(#clip030)" d="M1933.98 772.431 L1938.23 772.431 L1938.23 798.356 L1933.98 798.356 L1933.98 772.431 M1933.98 762.338 L1938.23 762.338 L1938.23 767.732 L1933.98 767.732 L1933.98 762.338 Z" fill="#000000" fill-rule="nonzero" fill-opacity="1" /><path clip-path="url(#clip030)" d="M1963.67 773.195 L1963.67 777.222 Q1961.87 776.296 1959.92 775.833 Q1957.98 775.371 1955.9 775.371 Q1952.73 775.371 1951.13 776.343 Q1949.55 777.315 1949.55 779.259 Q1949.55 780.741 1950.69 781.597 Q1951.82 782.431 1955.25 783.195 L1956.71 783.519 Q1961.24 784.491 1963.14 786.273 Q1965.06 788.032 1965.06 791.204 Q1965.06 794.815 1962.19 796.921 Q1959.35 799.028 1954.35 799.028 Q1952.26 799.028 1949.99 798.611 Q1947.75 798.218 1945.25 797.407 L1945.25 793.009 Q1947.61 794.236 1949.9 794.861 Q1952.19 795.463 1954.44 795.463 Q1957.45 795.463 1959.07 794.444 Q1960.69 793.403 1960.69 791.528 Q1960.69 789.792 1959.51 788.866 Q1958.35 787.94 1954.39 787.083 L1952.91 786.736 Q1948.95 785.903 1947.19 784.19 Q1945.43 782.454 1945.43 779.445 Q1945.43 775.787 1948.03 773.796 Q1950.62 771.806 1955.39 771.806 Q1957.75 771.806 1959.83 772.153 Q1961.92 772.5 1963.67 773.195 Z" fill="#000000" fill-rule="nonzero" fill-opacity="1" /><path clip-path="url(#clip030)" d="M1981.89 775.417 Q1978.47 775.417 1976.48 778.102 Q1974.48 780.764 1974.48 785.417 Q1974.48 790.07 1976.45 792.755 Q1978.44 795.417 1981.89 795.417 Q1985.29 795.417 1987.29 792.732 Q1989.28 790.046 1989.28 785.417 Q1989.28 780.81 1987.29 778.125 Q1985.29 775.417 1981.89 775.417 M1981.89 771.806 Q1987.45 771.806 1990.62 775.417 Q1993.79 779.028 1993.79 785.417 Q1993.79 791.782 1990.62 795.417 Q1987.45 799.028 1981.89 799.028 Q1976.31 799.028 1973.14 795.417 Q1969.99 791.782 1969.99 785.417 Q1969.99 779.028 1973.14 775.417 Q1976.31 771.806 1981.89 771.806 Z" fill="#000000" fill-rule="nonzero" fill-opacity="1" /><path clip-path="url(#clip030)" d="M2000.85 762.338 L2005.11 762.338 L2005.11 798.356 L2000.85 798.356 L2000.85 762.338 Z" fill="#000000" fill-rule="nonzero" fill-opacity="1" /><path clip-path="url(#clip030)" d="M2025.8 785.324 Q2020.64 785.324 2018.65 786.505 Q2016.66 787.685 2016.66 790.532 Q2016.66 792.801 2018.14 794.144 Q2019.65 795.463 2022.22 795.463 Q2025.76 795.463 2027.89 792.963 Q2030.04 790.44 2030.04 786.273 L2030.04 785.324 L2025.8 785.324 M2034.3 783.565 L2034.3 798.356 L2030.04 798.356 L2030.04 794.421 Q2028.58 796.782 2026.41 797.917 Q2024.23 799.028 2021.08 799.028 Q2017.1 799.028 2014.74 796.806 Q2012.4 794.56 2012.4 790.81 Q2012.4 786.435 2015.32 784.213 Q2018.26 781.991 2024.07 781.991 L2030.04 781.991 L2030.04 781.574 Q2030.04 778.634 2028.1 777.037 Q2026.17 775.417 2022.68 775.417 Q2020.46 775.417 2018.35 775.949 Q2016.24 776.482 2014.3 777.546 L2014.3 773.611 Q2016.64 772.708 2018.84 772.269 Q2021.04 771.806 2023.12 771.806 Q2028.74 771.806 2031.52 774.722 Q2034.3 777.639 2034.3 783.565 Z" fill="#000000" fill-rule="nonzero" fill-opacity="1" /><path clip-path="url(#clip030)" d="M2047.28 765.07 L2047.28 772.431 L2056.06 772.431 L2056.06 775.741 L2047.28 775.741 L2047.28 789.815 Q2047.28 792.986 2048.14 793.889 Q2049.02 794.792 2051.68 794.792 L2056.06 794.792 L2056.06 798.356 L2051.68 798.356 Q2046.75 798.356 2044.88 796.528 Q2043 794.676 2043 789.815 L2043 775.741 L2039.88 775.741 L2039.88 772.431 L2043 772.431 L2043 765.07 L2047.28 765.07 Z" fill="#000000" fill-rule="nonzero" fill-opacity="1" /><path clip-path="url(#clip030)" d="M2083.84 784.329 L2083.84 786.412 L2064.25 786.412 Q2064.53 790.81 2066.89 793.125 Q2069.28 795.417 2073.51 795.417 Q2075.97 795.417 2078.26 794.815 Q2080.57 794.213 2082.84 793.009 L2082.84 797.037 Q2080.55 798.009 2078.14 798.519 Q2075.73 799.028 2073.26 799.028 Q2067.05 799.028 2063.42 795.417 Q2059.81 791.806 2059.81 785.648 Q2059.81 779.283 2063.23 775.556 Q2066.68 771.806 2072.52 771.806 Q2077.75 771.806 2080.78 775.185 Q2083.84 778.542 2083.84 784.329 M2079.58 783.079 Q2079.53 779.583 2077.61 777.5 Q2075.71 775.417 2072.56 775.417 Q2069 775.417 2066.85 777.431 Q2064.72 779.445 2064.39 783.102 L2079.58 783.079 Z" fill="#000000" fill-rule="nonzero" fill-opacity="1" /><path clip-path="url(#clip030)" d="M2107.89 776.366 L2107.89 762.338 L2112.15 762.338 L2112.15 798.356 L2107.89 798.356 L2107.89 794.468 Q2106.54 796.782 2104.48 797.917 Q2102.45 799.028 2099.58 799.028 Q2094.88 799.028 2091.91 795.278 Q2088.97 791.528 2088.97 785.417 Q2088.97 779.306 2091.91 775.556 Q2094.88 771.806 2099.58 771.806 Q2102.45 771.806 2104.48 772.94 Q2106.54 774.051 2107.89 776.366 M2093.37 785.417 Q2093.37 790.116 2095.29 792.801 Q2097.24 795.463 2100.62 795.463 Q2104 795.463 2105.94 792.801 Q2107.89 790.116 2107.89 785.417 Q2107.89 780.718 2105.94 778.056 Q2104 775.371 2100.62 775.371 Q2097.24 775.371 2095.29 778.056 Q2093.37 780.718 2093.37 785.417 Z" fill="#000000" fill-rule="nonzero" fill-opacity="1" /><path clip-path="url(#clip030)" d="M2140.62 806.227 L2140.62 809.537 L2115.99 809.537 L2115.99 806.227 L2140.62 806.227 Z" fill="#000000" fill-rule="nonzero" fill-opacity="1" /><path clip-path="url(#clip030)" d="M2156.4 785.324 Q2151.24 785.324 2149.25 786.505 Q2147.26 787.685 2147.26 790.532 Q2147.26 792.801 2148.74 794.144 Q2150.25 795.463 2152.82 795.463 Q2156.36 795.463 2158.49 792.963 Q2160.64 790.44 2160.64 786.273 L2160.64 785.324 L2156.4 785.324 M2164.9 783.565 L2164.9 798.356 L2160.64 798.356 L2160.64 794.421 Q2159.18 796.782 2157.01 797.917 Q2154.83 799.028 2151.68 799.028 Q2147.7 799.028 2145.34 796.806 Q2143 794.56 2143 790.81 Q2143 786.435 2145.92 784.213 Q2148.86 781.991 2154.67 781.991 L2160.64 781.991 L2160.64 781.574 Q2160.64 778.634 2158.7 777.037 Q2156.78 775.417 2153.28 775.417 Q2151.06 775.417 2148.95 775.949 Q2146.84 776.482 2144.9 777.546 L2144.9 773.611 Q2147.24 772.708 2149.44 772.269 Q2151.64 771.806 2153.72 771.806 Q2159.34 771.806 2162.12 774.722 Q2164.9 777.639 2164.9 783.565 Z" fill="#000000" fill-rule="nonzero" fill-opacity="1" /><path clip-path="url(#clip030)" d="M2177.89 765.07 L2177.89 772.431 L2186.66 772.431 L2186.66 775.741 L2177.89 775.741 L2177.89 789.815 Q2177.89 792.986 2178.74 793.889 Q2179.62 794.792 2182.28 794.792 L2186.66 794.792 L2186.66 798.356 L2182.28 798.356 Q2177.35 798.356 2175.48 796.528 Q2173.6 794.676 2173.6 789.815 L2173.6 775.741 L2170.48 775.741 L2170.48 772.431 L2173.6 772.431 L2173.6 765.07 L2177.89 765.07 Z" fill="#000000" fill-rule="nonzero" fill-opacity="1" /><path clip-path="url(#clip030)" d="M2202.31 775.417 Q2198.88 775.417 2196.89 778.102 Q2194.9 780.764 2194.9 785.417 Q2194.9 790.07 2196.87 792.755 Q2198.86 795.417 2202.31 795.417 Q2205.71 795.417 2207.7 792.732 Q2209.69 790.046 2209.69 785.417 Q2209.69 780.81 2207.7 778.125 Q2205.71 775.417 2202.31 775.417 M2202.31 771.806 Q2207.86 771.806 2211.03 775.417 Q2214.21 779.028 2214.21 785.417 Q2214.21 791.782 2211.03 795.417 Q2207.86 799.028 2202.31 799.028 Q2196.73 799.028 2193.56 795.417 Q2190.41 791.782 2190.41 785.417 Q2190.41 779.028 2193.56 775.417 Q2196.73 771.806 2202.31 771.806 Z" fill="#000000" fill-rule="nonzero" fill-opacity="1" /><path clip-path="url(#clip030)" d="M2241.45 777.408 Q2243.05 774.537 2245.27 773.171 Q2247.49 771.806 2250.5 771.806 Q2254.55 771.806 2256.75 774.653 Q2258.95 777.477 2258.95 782.708 L2258.95 798.356 L2254.67 798.356 L2254.67 782.847 Q2254.67 779.12 2253.35 777.315 Q2252.03 775.509 2249.32 775.509 Q2246.01 775.509 2244.09 777.708 Q2242.17 779.908 2242.17 783.704 L2242.17 798.356 L2237.89 798.356 L2237.89 782.847 Q2237.89 779.097 2236.57 777.315 Q2235.25 775.509 2232.49 775.509 Q2229.23 775.509 2227.31 777.732 Q2225.39 779.931 2225.39 783.704 L2225.39 798.356 L2221.1 798.356 L2221.1 772.431 L2225.39 772.431 L2225.39 776.458 Q2226.84 774.074 2228.88 772.94 Q2230.92 771.806 2233.72 771.806 Q2236.54 771.806 2238.51 773.241 Q2240.5 774.676 2241.45 777.408 Z" fill="#000000" fill-rule="nonzero" fill-opacity="1" /><circle clip-path="url(#clip030)" cx="1840.17" cy="832.916" r="20.48" fill="#c271d2" fill-rule="evenodd" fill-opacity="1" stroke="#000000" stroke-opacity="1" stroke-width="4.55111"/>
<path clip-path="url(#clip030)" d="M1933.98 814.178 L1938.23 814.178 L1938.23 850.196 L1933.98 850.196 L1933.98 814.178 Z" fill="#000000" fill-rule="nonzero" fill-opacity="1" /><path clip-path="url(#clip030)" d="M1947.15 824.271 L1951.41 824.271 L1951.41 850.196 L1947.15 850.196 L1947.15 824.271 M1947.15 814.178 L1951.41 814.178 L1951.41 819.572 L1947.15 819.572 L1947.15 814.178 Z" fill="#000000" fill-rule="nonzero" fill-opacity="1" /><path clip-path="url(#clip030)" d="M1962.86 837.257 Q1962.86 841.956 1964.79 844.641 Q1966.73 847.303 1970.11 847.303 Q1973.49 847.303 1975.43 844.641 Q1977.38 841.956 1977.38 837.257 Q1977.38 832.558 1975.43 829.896 Q1973.49 827.211 1970.11 827.211 Q1966.73 827.211 1964.79 829.896 Q1962.86 832.558 1962.86 837.257 M1977.38 846.308 Q1976.04 848.622 1973.98 849.757 Q1971.94 850.868 1969.07 850.868 Q1964.37 850.868 1961.41 847.118 Q1958.47 843.368 1958.47 837.257 Q1958.47 831.146 1961.41 827.396 Q1964.37 823.646 1969.07 823.646 Q1971.94 823.646 1973.98 824.78 Q1976.04 825.891 1977.38 828.206 L1977.38 824.271 L1981.64 824.271 L1981.64 860.058 L1977.38 860.058 L1977.38 846.308 Z" fill="#000000" fill-rule="nonzero" fill-opacity="1" /></svg>
