<?xml version="1.0" encoding="utf-8"?>
<svg xmlns="http://www.w3.org/2000/svg" xmlns:xlink="http://www.w3.org/1999/xlink" width="600" height="400" viewBox="0 0 2400 1600">
<defs>
  <clipPath id="clip000">
    <rect x="0" y="0" width="2400" height="1600"/>
  </clipPath>
</defs>
<path clip-path="url(#clip000)" d="M0 1600 L2400 1600 L2400 0 L0 0  Z" fill="#ffffff" fill-rule="evenodd" fill-opacity="1"/>
<defs>
  <clipPath id="clip001">
    <rect x="480" y="0" width="1681" height="1600"/>
  </clipPath>
</defs>
<defs>
  <clipPath id="clip002">
    <rect x="272" y="47" width="2081" height="1377"/>
  </clipPath>
</defs>
<path clip-path="url(#clip002)" d="M1807.18 705.76 L1807.18 705.003 L1807.31 704.877 L1807.68 704.923 L1807.68 705.681 L1807.54 705.806 L1807.18 705.76  Z" fill="#ffffff" fill-rule="evenodd" fill-opacity="1"/>
<polyline clip-path="url(#clip002)" style="stroke:#000000; stroke-linecap:round; stroke-linejoin:round; stroke-width:2; stroke-opacity:0.1; fill:none" points="806.214,1167.78 1077.91,1038.15 1077.91,255.82 "/>
<polyline clip-path="url(#clip002)" style="stroke:#000000; stroke-linecap:round; stroke-linejoin:round; stroke-width:2; stroke-opacity:0.1; fill:none" points="988.893,1179.32 1260.59,1049.69 1260.59,267.366 "/>
<polyline clip-path="url(#clip002)" style="stroke:#000000; stroke-linecap:round; stroke-linejoin:round; stroke-width:2; stroke-opacity:0.1; fill:none" points="1171.57,1190.87 1443.27,1061.24 1443.27,278.912 "/>
<polyline clip-path="url(#clip002)" style="stroke:#000000; stroke-linecap:round; stroke-linejoin:round; stroke-width:2; stroke-opacity:0.1; fill:none" points="1354.25,1202.41 1625.95,1072.79 1625.95,290.458 "/>
<polyline clip-path="url(#clip002)" style="stroke:#000000; stroke-linecap:round; stroke-linejoin:round; stroke-width:2; stroke-opacity:0.1; fill:none" points="1536.93,1213.96 1808.63,1084.33 1808.63,302.004 "/>
<polyline clip-path="url(#clip002)" style="stroke:#000000; stroke-linecap:round; stroke-linejoin:round; stroke-width:2; stroke-opacity:0.1; fill:none" points="1560.11,1209.92 813.624,1162.74 813.624,380.408 "/>
<polyline clip-path="url(#clip002)" style="stroke:#000000; stroke-linecap:round; stroke-linejoin:round; stroke-width:2; stroke-opacity:0.1; fill:none" points="1625.89,1178.53 879.402,1131.35 879.402,349.026 "/>
<polyline clip-path="url(#clip002)" style="stroke:#000000; stroke-linecap:round; stroke-linejoin:round; stroke-width:2; stroke-opacity:0.1; fill:none" points="1691.67,1147.15 945.18,1099.97 945.18,317.644 "/>
<polyline clip-path="url(#clip002)" style="stroke:#000000; stroke-linecap:round; stroke-linejoin:round; stroke-width:2; stroke-opacity:0.1; fill:none" points="1757.45,1115.77 1010.96,1068.59 1010.96,286.261 "/>
<polyline clip-path="url(#clip002)" style="stroke:#000000; stroke-linecap:round; stroke-linejoin:round; stroke-width:2; stroke-opacity:0.1; fill:none" points="803.432,1057.16 1075.13,927.533 1821.62,974.713 "/>
<polyline clip-path="url(#clip002)" style="stroke:#000000; stroke-linecap:round; stroke-linejoin:round; stroke-width:2; stroke-opacity:0.1; fill:none" points="803.432,890.121 1075.13,760.495 1821.62,807.675 "/>
<polyline clip-path="url(#clip002)" style="stroke:#000000; stroke-linecap:round; stroke-linejoin:round; stroke-width:2; stroke-opacity:0.1; fill:none" points="803.432,723.083 1075.13,593.457 1821.62,640.637 "/>
<polyline clip-path="url(#clip002)" style="stroke:#000000; stroke-linecap:round; stroke-linejoin:round; stroke-width:2; stroke-opacity:0.1; fill:none" points="803.432,556.046 1075.13,426.419 1821.62,473.599 "/>
<polyline clip-path="url(#clip002)" style="stroke:#000000; stroke-linecap:round; stroke-linejoin:round; stroke-width:2; stroke-opacity:0.1; fill:none" points="803.432,389.008 1075.13,259.381 1821.62,306.562 "/>
<polyline clip-path="url(#clip000)" style="stroke:#000000; stroke-linecap:round; stroke-linejoin:round; stroke-width:4; stroke-opacity:1; fill:none" points="803.432,1167.6 1549.92,1214.78 "/>
<polyline clip-path="url(#clip000)" style="stroke:#000000; stroke-linecap:round; stroke-linejoin:round; stroke-width:4; stroke-opacity:1; fill:none" points="806.214,1167.78 809.474,1166.22 "/>
<polyline clip-path="url(#clip000)" style="stroke:#000000; stroke-linecap:round; stroke-linejoin:round; stroke-width:4; stroke-opacity:1; fill:none" points="988.893,1179.32 992.153,1177.77 "/>
<polyline clip-path="url(#clip000)" style="stroke:#000000; stroke-linecap:round; stroke-linejoin:round; stroke-width:4; stroke-opacity:1; fill:none" points="1171.57,1190.87 1174.83,1189.31 "/>
<polyline clip-path="url(#clip000)" style="stroke:#000000; stroke-linecap:round; stroke-linejoin:round; stroke-width:4; stroke-opacity:1; fill:none" points="1354.25,1202.41 1357.51,1200.86 "/>
<polyline clip-path="url(#clip000)" style="stroke:#000000; stroke-linecap:round; stroke-linejoin:round; stroke-width:4; stroke-opacity:1; fill:none" points="1536.93,1213.96 1540.19,1212.4 "/>
<path clip-path="url(#clip000)" d="M650.442 1196.8 L680.118 1196.8 L680.118 1200.74 L650.442 1200.74 L650.442 1196.8 Z" fill="#000000" fill-rule="nonzero" fill-opacity="1" /><path clip-path="url(#clip000)" d="M704.377 1195 Q707.733 1195.72 709.608 1197.98 Q711.506 1200.25 711.506 1203.59 Q711.506 1208.7 707.988 1211.5 Q704.469 1214.3 697.988 1214.3 Q695.812 1214.3 693.497 1213.86 Q691.205 1213.45 688.752 1212.59 L688.752 1208.08 Q690.696 1209.21 693.011 1209.79 Q695.326 1210.37 697.849 1210.37 Q702.247 1210.37 704.539 1208.63 Q706.854 1206.9 706.854 1203.59 Q706.854 1200.53 704.701 1198.82 Q702.571 1197.08 698.752 1197.08 L694.724 1197.08 L694.724 1193.24 L698.937 1193.24 Q702.386 1193.24 704.215 1191.87 Q706.043 1190.48 706.043 1187.89 Q706.043 1185.23 704.145 1183.82 Q702.27 1182.38 698.752 1182.38 Q696.83 1182.38 694.631 1182.8 Q692.432 1183.22 689.793 1184.1 L689.793 1179.93 Q692.455 1179.19 694.77 1178.82 Q697.108 1178.45 699.168 1178.45 Q704.492 1178.45 707.594 1180.88 Q710.696 1183.29 710.696 1187.41 Q710.696 1190.28 709.053 1192.27 Q707.409 1194.23 704.377 1195 Z" fill="#000000" fill-rule="nonzero" fill-opacity="1" /><path clip-path="url(#clip000)" d="M730.372 1182.15 Q726.761 1182.15 724.932 1185.72 Q723.127 1189.26 723.127 1196.39 Q723.127 1203.49 724.932 1207.06 Q726.761 1210.6 730.372 1210.6 Q734.006 1210.6 735.812 1207.06 Q737.64 1203.49 737.64 1196.39 Q737.64 1189.26 735.812 1185.72 Q734.006 1182.15 730.372 1182.15 M730.372 1178.45 Q736.182 1178.45 739.238 1183.05 Q742.316 1187.64 742.316 1196.39 Q742.316 1205.11 739.238 1209.72 Q736.182 1214.3 730.372 1214.3 Q724.562 1214.3 721.483 1209.72 Q718.428 1205.11 718.428 1196.39 Q718.428 1187.64 721.483 1183.05 Q724.562 1178.45 730.372 1178.45 Z" fill="#000000" fill-rule="nonzero" fill-opacity="1" /><path clip-path="url(#clip000)" d="M760.534 1182.15 Q756.923 1182.15 755.094 1185.72 Q753.288 1189.26 753.288 1196.39 Q753.288 1203.49 755.094 1207.06 Q756.923 1210.6 760.534 1210.6 Q764.168 1210.6 765.974 1207.06 Q767.802 1203.49 767.802 1196.39 Q767.802 1189.26 765.974 1185.72 Q764.168 1182.15 760.534 1182.15 M760.534 1178.45 Q766.344 1178.45 769.4 1183.05 Q772.478 1187.64 772.478 1196.39 Q772.478 1205.11 769.4 1209.72 Q766.344 1214.3 760.534 1214.3 Q754.724 1214.3 751.645 1209.72 Q748.589 1205.11 748.589 1196.39 Q748.589 1187.64 751.645 1183.05 Q754.724 1178.45 760.534 1178.45 Z" fill="#000000" fill-rule="nonzero" fill-opacity="1" /><path clip-path="url(#clip000)" d="M790.696 1182.15 Q787.085 1182.15 785.256 1185.72 Q783.45 1189.26 783.45 1196.39 Q783.45 1203.49 785.256 1207.06 Q787.085 1210.6 790.696 1210.6 Q794.33 1210.6 796.135 1207.06 Q797.964 1203.49 797.964 1196.39 Q797.964 1189.26 796.135 1185.72 Q794.33 1182.15 790.696 1182.15 M790.696 1178.45 Q796.506 1178.45 799.561 1183.05 Q802.64 1187.64 802.64 1196.39 Q802.64 1205.11 799.561 1209.72 Q796.506 1214.3 790.696 1214.3 Q784.886 1214.3 781.807 1209.72 Q778.751 1205.11 778.751 1196.39 Q778.751 1187.64 781.807 1183.05 Q784.886 1178.45 790.696 1178.45 Z" fill="#000000" fill-rule="nonzero" fill-opacity="1" /><path clip-path="url(#clip000)" d="M833.121 1208.35 L862.797 1208.35 L862.797 1212.28 L833.121 1212.28 L833.121 1208.35 Z" fill="#000000" fill-rule="nonzero" fill-opacity="1" /><path clip-path="url(#clip000)" d="M876.917 1221.24 L893.236 1221.24 L893.236 1225.18 L871.292 1225.18 L871.292 1221.24 Q873.954 1218.49 878.537 1213.86 Q883.144 1209.21 884.324 1207.86 Q886.57 1205.34 887.449 1203.6 Q888.352 1201.85 888.352 1200.16 Q888.352 1197.4 886.408 1195.66 Q884.486 1193.93 881.385 1193.93 Q879.186 1193.93 876.732 1194.69 Q874.301 1195.46 871.524 1197.01 L871.524 1192.28 Q874.348 1191.15 876.801 1190.57 Q879.255 1189.99 881.292 1189.99 Q886.662 1189.99 889.857 1192.68 Q893.051 1195.36 893.051 1199.85 Q893.051 1201.98 892.241 1203.91 Q891.454 1205.8 889.348 1208.4 Q888.769 1209.07 885.667 1212.28 Q882.565 1215.48 876.917 1221.24 Z" fill="#000000" fill-rule="nonzero" fill-opacity="1" /><path clip-path="url(#clip000)" d="M913.051 1193.7 Q909.44 1193.7 907.611 1197.26 Q905.806 1200.8 905.806 1207.93 Q905.806 1215.04 907.611 1218.6 Q909.44 1222.15 913.051 1222.15 Q916.685 1222.15 918.491 1218.6 Q920.32 1215.04 920.32 1207.93 Q920.32 1200.8 918.491 1197.26 Q916.685 1193.7 913.051 1193.7 M913.051 1189.99 Q918.861 1189.99 921.917 1194.6 Q924.995 1199.18 924.995 1207.93 Q924.995 1216.66 921.917 1221.27 Q918.861 1225.85 913.051 1225.85 Q907.241 1225.85 904.162 1221.27 Q901.107 1216.66 901.107 1207.93 Q901.107 1199.18 904.162 1194.6 Q907.241 1189.99 913.051 1189.99 Z" fill="#000000" fill-rule="nonzero" fill-opacity="1" /><path clip-path="url(#clip000)" d="M943.213 1193.7 Q939.602 1193.7 937.773 1197.26 Q935.968 1200.8 935.968 1207.93 Q935.968 1215.04 937.773 1218.6 Q939.602 1222.15 943.213 1222.15 Q946.847 1222.15 948.653 1218.6 Q950.481 1215.04 950.481 1207.93 Q950.481 1200.8 948.653 1197.26 Q946.847 1193.7 943.213 1193.7 M943.213 1189.99 Q949.023 1189.99 952.079 1194.6 Q955.157 1199.18 955.157 1207.93 Q955.157 1216.66 952.079 1221.27 Q949.023 1225.85 943.213 1225.85 Q937.403 1225.85 934.324 1221.27 Q931.269 1216.66 931.269 1207.93 Q931.269 1199.18 934.324 1194.6 Q937.403 1189.99 943.213 1189.99 Z" fill="#000000" fill-rule="nonzero" fill-opacity="1" /><path clip-path="url(#clip000)" d="M973.375 1193.7 Q969.764 1193.7 967.935 1197.26 Q966.13 1200.8 966.13 1207.93 Q966.13 1215.04 967.935 1218.6 Q969.764 1222.15 973.375 1222.15 Q977.009 1222.15 978.815 1218.6 Q980.643 1215.04 980.643 1207.93 Q980.643 1200.8 978.815 1197.26 Q977.009 1193.7 973.375 1193.7 M973.375 1189.99 Q979.185 1189.99 982.241 1194.6 Q985.319 1199.18 985.319 1207.93 Q985.319 1216.66 982.241 1221.27 Q979.185 1225.85 973.375 1225.85 Q967.565 1225.85 964.486 1221.27 Q961.43 1216.66 961.43 1207.93 Q961.43 1199.18 964.486 1194.6 Q967.565 1189.99 973.375 1189.99 Z" fill="#000000" fill-rule="nonzero" fill-opacity="1" /><path clip-path="url(#clip000)" d="M1015.8 1219.9 L1045.48 1219.9 L1045.48 1223.83 L1015.8 1223.83 L1015.8 1219.9 Z" fill="#000000" fill-rule="nonzero" fill-opacity="1" /><path clip-path="url(#clip000)" d="M1056.38 1232.79 L1064.02 1232.79 L1064.02 1206.42 L1055.71 1208.09 L1055.71 1203.83 L1063.97 1202.16 L1068.65 1202.16 L1068.65 1232.79 L1076.29 1232.79 L1076.29 1236.72 L1056.38 1236.72 L1056.38 1232.79 Z" fill="#000000" fill-rule="nonzero" fill-opacity="1" /><path clip-path="url(#clip000)" d="M1095.73 1205.24 Q1092.12 1205.24 1090.29 1208.81 Q1088.48 1212.35 1088.48 1219.48 Q1088.48 1226.59 1090.29 1230.15 Q1092.12 1233.69 1095.73 1233.69 Q1099.36 1233.69 1101.17 1230.15 Q1103 1226.59 1103 1219.48 Q1103 1212.35 1101.17 1208.81 Q1099.36 1205.24 1095.73 1205.24 M1095.73 1201.54 Q1101.54 1201.54 1104.6 1206.15 Q1107.67 1210.73 1107.67 1219.48 Q1107.67 1228.21 1104.6 1232.81 Q1101.54 1237.4 1095.73 1237.4 Q1089.92 1237.4 1086.84 1232.81 Q1083.79 1228.21 1083.79 1219.48 Q1083.79 1210.73 1086.84 1206.15 Q1089.92 1201.54 1095.73 1201.54 Z" fill="#000000" fill-rule="nonzero" fill-opacity="1" /><path clip-path="url(#clip000)" d="M1125.89 1205.24 Q1122.28 1205.24 1120.45 1208.81 Q1118.65 1212.35 1118.65 1219.48 Q1118.65 1226.59 1120.45 1230.15 Q1122.28 1233.69 1125.89 1233.69 Q1129.53 1233.69 1131.33 1230.15 Q1133.16 1226.59 1133.16 1219.48 Q1133.16 1212.35 1131.33 1208.81 Q1129.53 1205.24 1125.89 1205.24 M1125.89 1201.54 Q1131.7 1201.54 1134.76 1206.15 Q1137.84 1210.73 1137.84 1219.48 Q1137.84 1228.21 1134.76 1232.81 Q1131.7 1237.4 1125.89 1237.4 Q1120.08 1237.4 1117 1232.81 Q1113.95 1228.21 1113.95 1219.48 Q1113.95 1210.73 1117 1206.15 Q1120.08 1201.54 1125.89 1201.54 Z" fill="#000000" fill-rule="nonzero" fill-opacity="1" /><path clip-path="url(#clip000)" d="M1156.05 1205.24 Q1152.44 1205.24 1150.61 1208.81 Q1148.81 1212.35 1148.81 1219.48 Q1148.81 1226.59 1150.61 1230.15 Q1152.44 1233.69 1156.05 1233.69 Q1159.69 1233.69 1161.49 1230.15 Q1163.32 1226.59 1163.32 1219.48 Q1163.32 1212.35 1161.49 1208.81 Q1159.69 1205.24 1156.05 1205.24 M1156.05 1201.54 Q1161.86 1201.54 1164.92 1206.15 Q1168 1210.73 1168 1219.48 Q1168 1228.21 1164.92 1232.81 Q1161.86 1237.4 1156.05 1237.4 Q1150.24 1237.4 1147.17 1232.81 Q1144.11 1228.21 1144.11 1219.48 Q1144.11 1210.73 1147.17 1206.15 Q1150.24 1201.54 1156.05 1201.54 Z" fill="#000000" fill-rule="nonzero" fill-opacity="1" /><path clip-path="url(#clip000)" d="M1338.73 1216.79 Q1335.12 1216.79 1333.29 1220.35 Q1331.49 1223.9 1331.49 1231.02 Q1331.49 1238.13 1333.29 1241.7 Q1335.12 1245.24 1338.73 1245.24 Q1342.37 1245.24 1344.17 1241.7 Q1346 1238.13 1346 1231.02 Q1346 1223.9 1344.17 1220.35 Q1342.37 1216.79 1338.73 1216.79 M1338.73 1213.08 Q1344.54 1213.08 1347.6 1217.69 Q1350.68 1222.27 1350.68 1231.02 Q1350.68 1239.75 1347.6 1244.36 Q1344.54 1248.94 1338.73 1248.94 Q1332.92 1248.94 1329.84 1244.36 Q1326.79 1239.75 1326.79 1231.02 Q1326.79 1222.27 1329.84 1217.69 Q1332.92 1213.08 1338.73 1213.08 Z" fill="#000000" fill-rule="nonzero" fill-opacity="1" /><path clip-path="url(#clip000)" d="M1421.74 1255.88 L1429.38 1255.88 L1429.38 1229.51 L1421.07 1231.18 L1421.07 1226.92 L1429.33 1225.26 L1434.01 1225.26 L1434.01 1255.88 L1441.64 1255.88 L1441.64 1259.82 L1421.74 1259.82 L1421.74 1255.88 Z" fill="#000000" fill-rule="nonzero" fill-opacity="1" /><path clip-path="url(#clip000)" d="M1461.09 1228.33 Q1457.48 1228.33 1455.65 1231.9 Q1453.84 1235.44 1453.84 1242.57 Q1453.84 1249.68 1455.65 1253.24 Q1457.48 1256.78 1461.09 1256.78 Q1464.72 1256.78 1466.53 1253.24 Q1468.36 1249.68 1468.36 1242.57 Q1468.36 1235.44 1466.53 1231.9 Q1464.72 1228.33 1461.09 1228.33 M1461.09 1224.63 Q1466.9 1224.63 1469.95 1229.24 Q1473.03 1233.82 1473.03 1242.57 Q1473.03 1251.3 1469.95 1255.9 Q1466.9 1260.49 1461.09 1260.49 Q1455.28 1260.49 1452.2 1255.9 Q1449.14 1251.3 1449.14 1242.57 Q1449.14 1233.82 1452.2 1229.24 Q1455.28 1224.63 1461.09 1224.63 Z" fill="#000000" fill-rule="nonzero" fill-opacity="1" /><path clip-path="url(#clip000)" d="M1491.25 1228.33 Q1487.64 1228.33 1485.81 1231.9 Q1484.01 1235.44 1484.01 1242.57 Q1484.01 1249.68 1485.81 1253.24 Q1487.64 1256.78 1491.25 1256.78 Q1494.88 1256.78 1496.69 1253.24 Q1498.52 1249.68 1498.52 1242.57 Q1498.52 1235.44 1496.69 1231.9 Q1494.88 1228.33 1491.25 1228.33 M1491.25 1224.63 Q1497.06 1224.63 1500.12 1229.24 Q1503.19 1233.82 1503.19 1242.57 Q1503.19 1251.3 1500.12 1255.9 Q1497.06 1260.49 1491.25 1260.49 Q1485.44 1260.49 1482.36 1255.9 Q1479.31 1251.3 1479.31 1242.57 Q1479.31 1233.82 1482.36 1229.24 Q1485.44 1224.63 1491.25 1224.63 Z" fill="#000000" fill-rule="nonzero" fill-opacity="1" /><path clip-path="url(#clip000)" d="M1521.41 1228.33 Q1517.8 1228.33 1515.97 1231.9 Q1514.17 1235.44 1514.17 1242.57 Q1514.17 1249.68 1515.97 1253.24 Q1517.8 1256.78 1521.41 1256.78 Q1525.05 1256.78 1526.85 1253.24 Q1528.68 1249.68 1528.68 1242.57 Q1528.68 1235.44 1526.85 1231.9 Q1525.05 1228.33 1521.41 1228.33 M1521.41 1224.63 Q1527.22 1224.63 1530.28 1229.24 Q1533.36 1233.82 1533.36 1242.57 Q1533.36 1251.3 1530.28 1255.9 Q1527.22 1260.49 1521.41 1260.49 Q1515.6 1260.49 1512.52 1255.9 Q1509.47 1251.3 1509.47 1242.57 Q1509.47 1233.82 1512.52 1229.24 Q1515.6 1224.63 1521.41 1224.63 Z" fill="#000000" fill-rule="nonzero" fill-opacity="1" /><path clip-path="url(#clip000)" d="M1003.04 1329.1 L1003.04 1346.95 L1011.13 1346.95 Q1015.62 1346.95 1018.07 1344.63 Q1020.52 1342.31 1020.52 1338.01 Q1020.52 1333.74 1018.07 1331.42 Q1015.62 1329.1 1011.13 1329.1 L1003.04 1329.1 M996.615 1323.81 L1011.13 1323.81 Q1019.12 1323.81 1023.19 1327.44 Q1027.3 1331.04 1027.3 1338.01 Q1027.3 1345.04 1023.19 1348.64 Q1019.12 1352.24 1011.13 1352.24 L1003.04 1352.24 L1003.04 1371.33 L996.615 1371.33 L996.615 1323.81 Z" fill="#000000" fill-rule="nonzero" fill-opacity="1" /><path clip-path="url(#clip000)" d="M1071.51 1327.47 L1071.51 1334.25 Q1068.26 1331.23 1064.57 1329.73 Q1060.91 1328.24 1056.77 1328.24 Q1048.62 1328.24 1044.29 1333.23 Q1039.97 1338.2 1039.97 1347.62 Q1039.97 1357.01 1044.29 1362.01 Q1048.62 1366.97 1056.77 1366.97 Q1060.91 1366.97 1064.57 1365.48 Q1068.26 1363.98 1071.51 1360.96 L1071.51 1367.67 Q1068.13 1369.96 1064.35 1371.11 Q1060.59 1372.26 1056.39 1372.26 Q1045.6 1372.26 1039.39 1365.67 Q1033.19 1359.05 1033.19 1347.62 Q1033.19 1336.16 1039.39 1329.57 Q1045.6 1322.95 1056.39 1322.95 Q1060.65 1322.95 1064.41 1324.1 Q1068.2 1325.21 1071.51 1327.47 Z" fill="#000000" fill-rule="nonzero" fill-opacity="1" /><path clip-path="url(#clip000)" d="M1083.13 1365.92 L1093.63 1365.92 L1093.63 1329.67 L1082.2 1331.96 L1082.2 1326.1 L1093.56 1323.81 L1099.99 1323.81 L1099.99 1365.92 L1110.5 1365.92 L1110.5 1371.33 L1083.13 1371.33 L1083.13 1365.92 Z" fill="#000000" fill-rule="nonzero" fill-opacity="1" /><polyline clip-path="url(#clip000)" style="stroke:#000000; stroke-linecap:round; stroke-linejoin:round; stroke-width:4; stroke-opacity:1; fill:none" points="1549.92,1214.78 1821.62,1085.15 "/>
<polyline clip-path="url(#clip000)" style="stroke:#000000; stroke-linecap:round; stroke-linejoin:round; stroke-width:4; stroke-opacity:1; fill:none" points="1560.11,1209.92 1551.16,1209.35 "/>
<polyline clip-path="url(#clip000)" style="stroke:#000000; stroke-linecap:round; stroke-linejoin:round; stroke-width:4; stroke-opacity:1; fill:none" points="1625.89,1178.53 1616.93,1177.97 "/>
<polyline clip-path="url(#clip000)" style="stroke:#000000; stroke-linecap:round; stroke-linejoin:round; stroke-width:4; stroke-opacity:1; fill:none" points="1691.67,1147.15 1682.71,1146.59 "/>
<polyline clip-path="url(#clip000)" style="stroke:#000000; stroke-linecap:round; stroke-linejoin:round; stroke-width:4; stroke-opacity:1; fill:none" points="1757.45,1115.77 1748.49,1115.2 "/>
<path clip-path="url(#clip000)" d="M1579.88 1231.31 L1609.56 1231.31 L1609.56 1235.25 L1579.88 1235.25 L1579.88 1231.31 Z" fill="#000000" fill-rule="nonzero" fill-opacity="1" /><path clip-path="url(#clip000)" d="M1620.46 1244.2 L1628.1 1244.2 L1628.1 1217.84 L1619.79 1219.51 L1619.79 1215.25 L1628.05 1213.58 L1632.73 1213.58 L1632.73 1244.2 L1640.37 1244.2 L1640.37 1248.14 L1620.46 1248.14 L1620.46 1244.2 Z" fill="#000000" fill-rule="nonzero" fill-opacity="1" /><path clip-path="url(#clip000)" d="M1659.81 1216.66 Q1656.2 1216.66 1654.37 1220.22 Q1652.57 1223.76 1652.57 1230.89 Q1652.57 1238 1654.37 1241.57 Q1656.2 1245.11 1659.81 1245.11 Q1663.45 1245.11 1665.25 1241.57 Q1667.08 1238 1667.08 1230.89 Q1667.08 1223.76 1665.25 1220.22 Q1663.45 1216.66 1659.81 1216.66 M1659.81 1212.95 Q1665.62 1212.95 1668.68 1217.56 Q1671.76 1222.14 1671.76 1230.89 Q1671.76 1239.62 1668.68 1244.23 Q1665.62 1248.81 1659.81 1248.81 Q1654 1248.81 1650.92 1244.23 Q1647.87 1239.62 1647.87 1230.89 Q1647.87 1222.14 1650.92 1217.56 Q1654 1212.95 1659.81 1212.95 Z" fill="#000000" fill-rule="nonzero" fill-opacity="1" /><path clip-path="url(#clip000)" d="M1689.97 1216.66 Q1686.36 1216.66 1684.54 1220.22 Q1682.73 1223.76 1682.73 1230.89 Q1682.73 1238 1684.54 1241.57 Q1686.36 1245.11 1689.97 1245.11 Q1693.61 1245.11 1695.41 1241.57 Q1697.24 1238 1697.24 1230.89 Q1697.24 1223.76 1695.41 1220.22 Q1693.61 1216.66 1689.97 1216.66 M1689.97 1212.95 Q1695.78 1212.95 1698.84 1217.56 Q1701.92 1222.14 1701.92 1230.89 Q1701.92 1239.62 1698.84 1244.23 Q1695.78 1248.81 1689.97 1248.81 Q1684.16 1248.81 1681.09 1244.23 Q1678.03 1239.62 1678.03 1230.89 Q1678.03 1222.14 1681.09 1217.56 Q1684.16 1212.95 1689.97 1212.95 Z" fill="#000000" fill-rule="nonzero" fill-opacity="1" /><path clip-path="url(#clip000)" d="M1720.14 1216.66 Q1716.53 1216.66 1714.7 1220.22 Q1712.89 1223.76 1712.89 1230.89 Q1712.89 1238 1714.7 1241.57 Q1716.53 1245.11 1720.14 1245.11 Q1723.77 1245.11 1725.58 1241.57 Q1727.41 1238 1727.41 1230.89 Q1727.41 1223.76 1725.58 1220.22 Q1723.77 1216.66 1720.14 1216.66 M1720.14 1212.95 Q1725.95 1212.95 1729 1217.56 Q1732.08 1222.14 1732.08 1230.89 Q1732.08 1239.62 1729 1244.23 Q1725.95 1248.81 1720.14 1248.81 Q1714.33 1248.81 1711.25 1244.23 Q1708.19 1239.62 1708.19 1230.89 Q1708.19 1222.14 1711.25 1217.56 Q1714.33 1212.95 1720.14 1212.95 Z" fill="#000000" fill-rule="nonzero" fill-opacity="1" /><path clip-path="url(#clip000)" d="M1645.66 1199.93 L1675.34 1199.93 L1675.34 1203.86 L1645.66 1203.86 L1645.66 1199.93 Z" fill="#000000" fill-rule="nonzero" fill-opacity="1" /><path clip-path="url(#clip000)" d="M1685.48 1182.2 L1703.83 1182.2 L1703.83 1186.13 L1689.76 1186.13 L1689.76 1194.6 Q1690.78 1194.26 1691.79 1194.1 Q1692.81 1193.91 1693.83 1193.91 Q1699.62 1193.91 1703 1197.08 Q1706.38 1200.25 1706.38 1205.67 Q1706.38 1211.25 1702.91 1214.35 Q1699.43 1217.43 1693.11 1217.43 Q1690.94 1217.43 1688.67 1217.06 Q1686.42 1216.69 1684.02 1215.95 L1684.02 1211.25 Q1686.1 1212.38 1688.32 1212.94 Q1690.54 1213.49 1693.02 1213.49 Q1697.03 1213.49 1699.36 1211.39 Q1701.7 1209.28 1701.7 1205.67 Q1701.7 1202.06 1699.36 1199.95 Q1697.03 1197.85 1693.02 1197.85 Q1691.15 1197.85 1689.27 1198.26 Q1687.42 1198.68 1685.48 1199.56 L1685.48 1182.2 Z" fill="#000000" fill-rule="nonzero" fill-opacity="1" /><path clip-path="url(#clip000)" d="M1725.59 1185.28 Q1721.98 1185.28 1720.15 1188.84 Q1718.35 1192.38 1718.35 1199.51 Q1718.35 1206.62 1720.15 1210.18 Q1721.98 1213.72 1725.59 1213.72 Q1729.23 1213.72 1731.03 1210.18 Q1732.86 1206.62 1732.86 1199.51 Q1732.86 1192.38 1731.03 1188.84 Q1729.23 1185.28 1725.59 1185.28 M1725.59 1181.57 Q1731.4 1181.57 1734.46 1186.18 Q1737.54 1190.76 1737.54 1199.51 Q1737.54 1208.24 1734.46 1212.85 Q1731.4 1217.43 1725.59 1217.43 Q1719.78 1217.43 1716.7 1212.85 Q1713.65 1208.24 1713.65 1199.51 Q1713.65 1190.76 1716.7 1186.18 Q1719.78 1181.57 1725.59 1181.57 Z" fill="#000000" fill-rule="nonzero" fill-opacity="1" /><path clip-path="url(#clip000)" d="M1755.75 1185.28 Q1752.14 1185.28 1750.31 1188.84 Q1748.51 1192.38 1748.51 1199.51 Q1748.51 1206.62 1750.31 1210.18 Q1752.14 1213.72 1755.75 1213.72 Q1759.39 1213.72 1761.19 1210.18 Q1763.02 1206.62 1763.02 1199.51 Q1763.02 1192.38 1761.19 1188.84 Q1759.39 1185.28 1755.75 1185.28 M1755.75 1181.57 Q1761.56 1181.57 1764.62 1186.18 Q1767.7 1190.76 1767.7 1199.51 Q1767.7 1208.24 1764.62 1212.85 Q1761.56 1217.43 1755.75 1217.43 Q1749.94 1217.43 1746.86 1212.85 Q1743.81 1208.24 1743.81 1199.51 Q1743.81 1190.76 1746.86 1186.18 Q1749.94 1181.57 1755.75 1181.57 Z" fill="#000000" fill-rule="nonzero" fill-opacity="1" /><path clip-path="url(#clip000)" d="M1723.38 1153.89 Q1719.77 1153.89 1717.94 1157.46 Q1716.14 1161 1716.14 1168.13 Q1716.14 1175.24 1717.94 1178.8 Q1719.77 1182.34 1723.38 1182.34 Q1727.02 1182.34 1728.82 1178.8 Q1730.65 1175.24 1730.65 1168.13 Q1730.65 1161 1728.82 1157.46 Q1727.02 1153.89 1723.38 1153.89 M1723.38 1150.19 Q1729.19 1150.19 1732.25 1154.8 Q1735.33 1159.38 1735.33 1168.13 Q1735.33 1176.86 1732.25 1181.46 Q1729.19 1186.05 1723.38 1186.05 Q1717.57 1186.05 1714.49 1181.46 Q1711.44 1176.86 1711.44 1168.13 Q1711.44 1159.38 1714.49 1154.8 Q1717.57 1150.19 1723.38 1150.19 Z" fill="#000000" fill-rule="nonzero" fill-opacity="1" /><path clip-path="url(#clip000)" d="M1778.67 1119.43 L1797.03 1119.43 L1797.03 1123.37 L1782.96 1123.37 L1782.96 1131.84 Q1783.98 1131.49 1784.99 1131.33 Q1786.01 1131.15 1787.03 1131.15 Q1792.82 1131.15 1796.2 1134.32 Q1799.58 1137.49 1799.58 1142.9 Q1799.58 1148.48 1796.11 1151.59 Q1792.63 1154.66 1786.31 1154.66 Q1784.14 1154.66 1781.87 1154.29 Q1779.62 1153.92 1777.22 1153.18 L1777.22 1148.48 Q1779.3 1149.62 1781.52 1150.17 Q1783.74 1150.73 1786.22 1150.73 Q1790.23 1150.73 1792.56 1148.62 Q1794.9 1146.52 1794.9 1142.9 Q1794.9 1139.29 1792.56 1137.19 Q1790.23 1135.08 1786.22 1135.08 Q1784.35 1135.08 1782.47 1135.5 Q1780.62 1135.91 1778.67 1136.79 L1778.67 1119.43 Z" fill="#000000" fill-rule="nonzero" fill-opacity="1" /><path clip-path="url(#clip000)" d="M1818.79 1122.51 Q1815.18 1122.51 1813.35 1126.08 Q1811.54 1129.62 1811.54 1136.75 Q1811.54 1143.85 1813.35 1147.42 Q1815.18 1150.96 1818.79 1150.96 Q1822.42 1150.96 1824.23 1147.42 Q1826.06 1143.85 1826.06 1136.75 Q1826.06 1129.62 1824.23 1126.08 Q1822.42 1122.51 1818.79 1122.51 M1818.79 1118.81 Q1824.6 1118.81 1827.66 1123.41 Q1830.73 1128 1830.73 1136.75 Q1830.73 1145.47 1827.66 1150.08 Q1824.6 1154.66 1818.79 1154.66 Q1812.98 1154.66 1809.9 1150.08 Q1806.85 1145.47 1806.85 1136.75 Q1806.85 1128 1809.9 1123.41 Q1812.98 1118.81 1818.79 1118.81 Z" fill="#000000" fill-rule="nonzero" fill-opacity="1" /><path clip-path="url(#clip000)" d="M1848.95 1122.51 Q1845.34 1122.51 1843.51 1126.08 Q1841.71 1129.62 1841.71 1136.75 Q1841.71 1143.85 1843.51 1147.42 Q1845.34 1150.96 1848.95 1150.96 Q1852.59 1150.96 1854.39 1147.42 Q1856.22 1143.85 1856.22 1136.75 Q1856.22 1129.62 1854.39 1126.08 Q1852.59 1122.51 1848.95 1122.51 M1848.95 1118.81 Q1854.76 1118.81 1857.82 1123.41 Q1860.9 1128 1860.9 1136.75 Q1860.9 1145.47 1857.82 1150.08 Q1854.76 1154.66 1848.95 1154.66 Q1843.14 1154.66 1840.06 1150.08 Q1837.01 1145.47 1837.01 1136.75 Q1837.01 1128 1840.06 1123.41 Q1843.14 1118.81 1848.95 1118.81 Z" fill="#000000" fill-rule="nonzero" fill-opacity="1" /><path clip-path="url(#clip000)" d="M1758.63 1287.87 L1758.63 1305.73 L1766.72 1305.73 Q1771.21 1305.73 1773.66 1303.41 Q1776.11 1301.08 1776.11 1296.79 Q1776.11 1292.52 1773.66 1290.2 Q1771.21 1287.87 1766.72 1287.87 L1758.63 1287.87 M1752.2 1282.59 L1766.72 1282.59 Q1774.71 1282.59 1778.78 1286.22 Q1782.89 1289.82 1782.89 1296.79 Q1782.89 1303.82 1778.78 1307.42 Q1774.71 1311.01 1766.72 1311.01 L1758.63 1311.01 L1758.63 1330.11 L1752.2 1330.11 L1752.2 1282.59 Z" fill="#000000" fill-rule="nonzero" fill-opacity="1" /><path clip-path="url(#clip000)" d="M1827.1 1286.25 L1827.1 1293.03 Q1823.85 1290.01 1820.16 1288.51 Q1816.5 1287.01 1812.36 1287.01 Q1804.21 1287.01 1799.88 1292.01 Q1795.55 1296.98 1795.55 1306.4 Q1795.55 1315.79 1799.88 1320.78 Q1804.21 1325.75 1812.36 1325.75 Q1816.5 1325.75 1820.16 1324.25 Q1823.85 1322.76 1827.1 1319.73 L1827.1 1326.45 Q1823.72 1328.74 1819.94 1329.89 Q1816.18 1331.03 1811.98 1331.03 Q1801.19 1331.03 1794.98 1324.44 Q1788.78 1317.82 1788.78 1306.4 Q1788.78 1294.94 1794.98 1288.35 Q1801.19 1281.73 1811.98 1281.73 Q1816.24 1281.73 1820 1282.88 Q1823.79 1283.99 1827.1 1286.25 Z" fill="#000000" fill-rule="nonzero" fill-opacity="1" /><path clip-path="url(#clip000)" d="M1843.14 1324.7 L1865.58 1324.7 L1865.58 1330.11 L1835.4 1330.11 L1835.4 1324.7 Q1839.06 1320.91 1845.37 1314.55 Q1851.7 1308.15 1853.32 1306.3 Q1856.41 1302.83 1857.62 1300.45 Q1858.86 1298.03 1858.86 1295.7 Q1858.86 1291.92 1856.19 1289.53 Q1853.55 1287.14 1849.28 1287.14 Q1846.26 1287.14 1842.88 1288.19 Q1839.54 1289.24 1835.72 1291.37 L1835.72 1284.88 Q1839.61 1283.32 1842.98 1282.53 Q1846.35 1281.73 1849.15 1281.73 Q1856.54 1281.73 1860.93 1285.42 Q1865.32 1289.12 1865.32 1295.29 Q1865.32 1298.22 1864.21 1300.86 Q1863.13 1303.47 1860.23 1307.03 Q1859.43 1307.96 1855.17 1312.38 Q1850.9 1316.77 1843.14 1324.7 Z" fill="#000000" fill-rule="nonzero" fill-opacity="1" /><polyline clip-path="url(#clip000)" style="stroke:#000000; stroke-linecap:round; stroke-linejoin:round; stroke-width:4; stroke-opacity:1; fill:none" points="803.432,1167.6 803.432,385.271 "/>
<polyline clip-path="url(#clip000)" style="stroke:#000000; stroke-linecap:round; stroke-linejoin:round; stroke-width:4; stroke-opacity:1; fill:none" points="803.432,1057.16 806.692,1055.6 "/>
<polyline clip-path="url(#clip000)" style="stroke:#000000; stroke-linecap:round; stroke-linejoin:round; stroke-width:4; stroke-opacity:1; fill:none" points="803.432,890.121 806.692,888.566 "/>
<polyline clip-path="url(#clip000)" style="stroke:#000000; stroke-linecap:round; stroke-linejoin:round; stroke-width:4; stroke-opacity:1; fill:none" points="803.432,723.083 806.692,721.528 "/>
<polyline clip-path="url(#clip000)" style="stroke:#000000; stroke-linecap:round; stroke-linejoin:round; stroke-width:4; stroke-opacity:1; fill:none" points="803.432,556.046 806.692,554.49 "/>
<polyline clip-path="url(#clip000)" style="stroke:#000000; stroke-linecap:round; stroke-linejoin:round; stroke-width:4; stroke-opacity:1; fill:none" points="803.432,389.008 806.692,387.452 "/>
<path clip-path="url(#clip000)" d="M652.596 1057.61 L682.271 1057.61 L682.271 1061.55 L652.596 1061.55 L652.596 1057.61 Z" fill="#000000" fill-rule="nonzero" fill-opacity="1" /><path clip-path="url(#clip000)" d="M705.211 1043.95 L693.405 1062.4 L705.211 1062.4 L705.211 1043.95 M703.984 1039.88 L709.864 1039.88 L709.864 1062.4 L714.794 1062.4 L714.794 1066.29 L709.864 1066.29 L709.864 1074.44 L705.211 1074.44 L705.211 1066.29 L689.609 1066.29 L689.609 1061.78 L703.984 1039.88 Z" fill="#000000" fill-rule="nonzero" fill-opacity="1" /><path clip-path="url(#clip000)" d="M732.526 1042.96 Q728.915 1042.96 727.086 1046.52 Q725.28 1050.06 725.28 1057.19 Q725.28 1064.3 727.086 1067.86 Q728.915 1071.41 732.526 1071.41 Q736.16 1071.41 737.965 1067.86 Q739.794 1064.3 739.794 1057.19 Q739.794 1050.06 737.965 1046.52 Q736.16 1042.96 732.526 1042.96 M732.526 1039.25 Q738.336 1039.25 741.391 1043.86 Q744.47 1048.44 744.47 1057.19 Q744.47 1065.92 741.391 1070.53 Q738.336 1075.11 732.526 1075.11 Q726.716 1075.11 723.637 1070.53 Q720.581 1065.92 720.581 1057.19 Q720.581 1048.44 723.637 1043.86 Q726.716 1039.25 732.526 1039.25 Z" fill="#000000" fill-rule="nonzero" fill-opacity="1" /><path clip-path="url(#clip000)" d="M762.688 1042.96 Q759.076 1042.96 757.248 1046.52 Q755.442 1050.06 755.442 1057.19 Q755.442 1064.3 757.248 1067.86 Q759.076 1071.41 762.688 1071.41 Q766.322 1071.41 768.127 1067.86 Q769.956 1064.3 769.956 1057.19 Q769.956 1050.06 768.127 1046.52 Q766.322 1042.96 762.688 1042.96 M762.688 1039.25 Q768.498 1039.25 771.553 1043.86 Q774.632 1048.44 774.632 1057.19 Q774.632 1065.92 771.553 1070.53 Q768.498 1075.11 762.688 1075.11 Q756.877 1075.11 753.799 1070.53 Q750.743 1065.92 750.743 1057.19 Q750.743 1048.44 753.799 1043.86 Q756.877 1039.25 762.688 1039.25 Z" fill="#000000" fill-rule="nonzero" fill-opacity="1" /><path clip-path="url(#clip000)" d="M652.596 890.573 L682.271 890.573 L682.271 894.508 L652.596 894.508 L652.596 890.573 Z" fill="#000000" fill-rule="nonzero" fill-opacity="1" /><path clip-path="url(#clip000)" d="M696.392 903.466 L712.711 903.466 L712.711 907.401 L690.767 907.401 L690.767 903.466 Q693.429 900.711 698.012 896.082 Q702.618 891.429 703.799 890.087 Q706.044 887.563 706.924 885.827 Q707.827 884.068 707.827 882.378 Q707.827 879.624 705.882 877.887 Q703.961 876.151 700.859 876.151 Q698.66 876.151 696.206 876.915 Q693.776 877.679 690.998 879.23 L690.998 874.508 Q693.822 873.374 696.276 872.795 Q698.73 872.216 700.767 872.216 Q706.137 872.216 709.331 874.901 Q712.526 877.587 712.526 882.077 Q712.526 884.207 711.716 886.128 Q710.929 888.026 708.822 890.619 Q708.243 891.29 705.142 894.508 Q702.04 897.702 696.392 903.466 Z" fill="#000000" fill-rule="nonzero" fill-opacity="1" /><path clip-path="url(#clip000)" d="M732.526 875.92 Q728.915 875.92 727.086 879.485 Q725.28 883.026 725.28 890.156 Q725.28 897.262 727.086 900.827 Q728.915 904.369 732.526 904.369 Q736.16 904.369 737.965 900.827 Q739.794 897.262 739.794 890.156 Q739.794 883.026 737.965 879.485 Q736.16 875.92 732.526 875.92 M732.526 872.216 Q738.336 872.216 741.391 876.823 Q744.47 881.406 744.47 890.156 Q744.47 898.883 741.391 903.489 Q738.336 908.073 732.526 908.073 Q726.716 908.073 723.637 903.489 Q720.581 898.883 720.581 890.156 Q720.581 881.406 723.637 876.823 Q726.716 872.216 732.526 872.216 Z" fill="#000000" fill-rule="nonzero" fill-opacity="1" /><path clip-path="url(#clip000)" d="M762.688 875.92 Q759.076 875.92 757.248 879.485 Q755.442 883.026 755.442 890.156 Q755.442 897.262 757.248 900.827 Q759.076 904.369 762.688 904.369 Q766.322 904.369 768.127 900.827 Q769.956 897.262 769.956 890.156 Q769.956 883.026 768.127 879.485 Q766.322 875.92 762.688 875.92 M762.688 872.216 Q768.498 872.216 771.553 876.823 Q774.632 881.406 774.632 890.156 Q774.632 898.883 771.553 903.489 Q768.498 908.073 762.688 908.073 Q756.877 908.073 753.799 903.489 Q750.743 898.883 750.743 890.156 Q750.743 881.406 753.799 876.823 Q756.877 872.216 762.688 872.216 Z" fill="#000000" fill-rule="nonzero" fill-opacity="1" /><path clip-path="url(#clip000)" d="M762.688 708.882 Q759.076 708.882 757.248 712.447 Q755.442 715.989 755.442 723.118 Q755.442 730.225 757.248 733.789 Q759.076 737.331 762.688 737.331 Q766.322 737.331 768.127 733.789 Q769.956 730.225 769.956 723.118 Q769.956 715.989 768.127 712.447 Q766.322 708.882 762.688 708.882 M762.688 705.178 Q768.498 705.178 771.553 709.785 Q774.632 714.368 774.632 723.118 Q774.632 731.845 771.553 736.451 Q768.498 741.035 762.688 741.035 Q756.877 741.035 753.799 736.451 Q750.743 731.845 750.743 723.118 Q750.743 714.368 753.799 709.785 Q756.877 705.178 762.688 705.178 Z" fill="#000000" fill-rule="nonzero" fill-opacity="1" /><path clip-path="url(#clip000)" d="M696.392 569.39 L712.711 569.39 L712.711 573.326 L690.767 573.326 L690.767 569.39 Q693.429 566.636 698.012 562.006 Q702.618 557.353 703.799 556.011 Q706.044 553.488 706.924 551.752 Q707.827 549.992 707.827 548.303 Q707.827 545.548 705.882 543.812 Q703.961 542.076 700.859 542.076 Q698.66 542.076 696.206 542.84 Q693.776 543.604 690.998 545.154 L690.998 540.432 Q693.822 539.298 696.276 538.719 Q698.73 538.141 700.767 538.141 Q706.137 538.141 709.331 540.826 Q712.526 543.511 712.526 548.002 Q712.526 550.131 711.716 552.053 Q710.929 553.951 708.822 556.543 Q708.243 557.215 705.142 560.432 Q702.04 563.627 696.392 569.39 Z" fill="#000000" fill-rule="nonzero" fill-opacity="1" /><path clip-path="url(#clip000)" d="M732.526 541.844 Q728.915 541.844 727.086 545.409 Q725.28 548.951 725.28 556.08 Q725.28 563.187 727.086 566.752 Q728.915 570.293 732.526 570.293 Q736.16 570.293 737.965 566.752 Q739.794 563.187 739.794 556.08 Q739.794 548.951 737.965 545.409 Q736.16 541.844 732.526 541.844 M732.526 538.141 Q738.336 538.141 741.391 542.747 Q744.47 547.33 744.47 556.08 Q744.47 564.807 741.391 569.414 Q738.336 573.997 732.526 573.997 Q726.716 573.997 723.637 569.414 Q720.581 564.807 720.581 556.08 Q720.581 547.33 723.637 542.747 Q726.716 538.141 732.526 538.141 Z" fill="#000000" fill-rule="nonzero" fill-opacity="1" /><path clip-path="url(#clip000)" d="M762.688 541.844 Q759.076 541.844 757.248 545.409 Q755.442 548.951 755.442 556.08 Q755.442 563.187 757.248 566.752 Q759.076 570.293 762.688 570.293 Q766.322 570.293 768.127 566.752 Q769.956 563.187 769.956 556.08 Q769.956 548.951 768.127 545.409 Q766.322 541.844 762.688 541.844 M762.688 538.141 Q768.498 538.141 771.553 542.747 Q774.632 547.33 774.632 556.08 Q774.632 564.807 771.553 569.414 Q768.498 573.997 762.688 573.997 Q756.877 573.997 753.799 569.414 Q750.743 564.807 750.743 556.08 Q750.743 547.33 753.799 542.747 Q756.877 538.141 762.688 538.141 Z" fill="#000000" fill-rule="nonzero" fill-opacity="1" /><path clip-path="url(#clip000)" d="M705.211 375.802 L693.405 394.251 L705.211 394.251 L705.211 375.802 M703.984 371.728 L709.864 371.728 L709.864 394.251 L714.794 394.251 L714.794 398.14 L709.864 398.14 L709.864 406.288 L705.211 406.288 L705.211 398.14 L689.609 398.14 L689.609 393.626 L703.984 371.728 Z" fill="#000000" fill-rule="nonzero" fill-opacity="1" /><path clip-path="url(#clip000)" d="M732.526 374.807 Q728.915 374.807 727.086 378.371 Q725.28 381.913 725.28 389.043 Q725.28 396.149 727.086 399.714 Q728.915 403.255 732.526 403.255 Q736.16 403.255 737.965 399.714 Q739.794 396.149 739.794 389.043 Q739.794 381.913 737.965 378.371 Q736.16 374.807 732.526 374.807 M732.526 371.103 Q738.336 371.103 741.391 375.709 Q744.47 380.293 744.47 389.043 Q744.47 397.769 741.391 402.376 Q738.336 406.959 732.526 406.959 Q726.716 406.959 723.637 402.376 Q720.581 397.769 720.581 389.043 Q720.581 380.293 723.637 375.709 Q726.716 371.103 732.526 371.103 Z" fill="#000000" fill-rule="nonzero" fill-opacity="1" /><path clip-path="url(#clip000)" d="M762.688 374.807 Q759.076 374.807 757.248 378.371 Q755.442 381.913 755.442 389.043 Q755.442 396.149 757.248 399.714 Q759.076 403.255 762.688 403.255 Q766.322 403.255 768.127 399.714 Q769.956 396.149 769.956 389.043 Q769.956 381.913 768.127 378.371 Q766.322 374.807 762.688 374.807 M762.688 371.103 Q768.498 371.103 771.553 375.709 Q774.632 380.293 774.632 389.043 Q774.632 397.769 771.553 402.376 Q768.498 406.959 762.688 406.959 Q756.877 406.959 753.799 402.376 Q750.743 397.769 750.743 389.043 Q750.743 380.293 753.799 375.709 Q756.877 371.103 762.688 371.103 Z" fill="#000000" fill-rule="nonzero" fill-opacity="1" /><path clip-path="url(#clip000)" d="M552.903 827.345 L570.759 827.345 L570.759 819.26 Q570.759 814.773 568.435 812.322 Q566.112 809.871 561.815 809.871 Q557.55 809.871 555.227 812.322 Q552.903 814.773 552.903 819.26 L552.903 827.345 M547.62 833.774 L547.62 819.26 Q547.62 811.271 551.248 807.197 Q554.845 803.092 561.815 803.092 Q568.849 803.092 572.446 807.197 Q576.042 811.271 576.042 819.26 L576.042 827.345 L595.14 827.345 L595.14 833.774 L547.62 833.774 Z" fill="#000000" fill-rule="nonzero" fill-opacity="1" /><path clip-path="url(#clip000)" d="M551.28 758.882 L558.059 758.882 Q555.036 762.128 553.54 765.82 Q552.044 769.481 552.044 773.618 Q552.044 781.766 557.041 786.095 Q562.006 790.424 571.427 790.424 Q580.817 790.424 585.814 786.095 Q590.779 781.766 590.779 773.618 Q590.779 769.481 589.283 765.82 Q587.787 762.128 584.763 758.882 L591.479 758.882 Q593.771 762.255 594.917 766.043 Q596.063 769.799 596.063 774 Q596.063 784.79 589.474 790.997 Q582.854 797.203 571.427 797.203 Q559.969 797.203 553.38 790.997 Q546.76 784.79 546.76 774 Q546.76 769.735 547.906 765.979 Q549.02 762.192 551.28 758.882 Z" fill="#000000" fill-rule="nonzero" fill-opacity="1" /><path clip-path="url(#clip000)" d="M569.518 728.899 Q570.504 724.284 573.623 721.706 Q576.743 719.096 581.326 719.096 Q588.36 719.096 592.211 723.934 Q596.063 728.772 596.063 737.684 Q596.063 740.676 595.458 743.859 Q594.885 747.01 593.707 750.383 L587.501 750.383 Q589.06 747.71 589.856 744.527 Q590.652 741.344 590.652 737.875 Q590.652 731.827 588.265 728.676 Q585.877 725.494 581.326 725.494 Q577.125 725.494 574.769 728.454 Q572.382 731.382 572.382 736.634 L572.382 742.172 L567.099 742.172 L567.099 736.379 Q567.099 731.636 565.221 729.122 Q563.311 726.608 559.746 726.608 Q556.086 726.608 554.144 729.217 Q552.171 731.796 552.171 736.634 Q552.171 739.275 552.744 742.299 Q553.317 745.323 554.526 748.951 L548.797 748.951 Q547.779 745.291 547.269 742.108 Q546.76 738.893 546.76 736.061 Q546.76 728.74 550.102 724.475 Q553.412 720.21 559.078 720.21 Q563.025 720.21 565.762 722.47 Q568.467 724.73 569.518 728.899 Z" fill="#000000" fill-rule="nonzero" fill-opacity="1" /><circle clip-path="url(#clip002)" cx="1242.07" cy="828.72" r="14.4" fill="#009af9" fill-rule="evenodd" fill-opacity="1" stroke="#000000" stroke-opacity="1" stroke-width="3.2"/>
<circle clip-path="url(#clip002)" cx="1432.38" cy="590.713" r="14.4" fill="#009af9" fill-rule="evenodd" fill-opacity="1" stroke="#000000" stroke-opacity="1" stroke-width="3.2"/>
<circle clip-path="url(#clip002)" cx="1332.91" cy="718.041" r="14.4" fill="#009af9" fill-rule="evenodd" fill-opacity="1" stroke="#000000" stroke-opacity="1" stroke-width="3.2"/>
<circle clip-path="url(#clip002)" cx="1335.97" cy="693.733" r="14.4" fill="#009af9" fill-rule="evenodd" fill-opacity="1" stroke="#000000" stroke-opacity="1" stroke-width="3.2"/>
<circle clip-path="url(#clip002)" cx="1466.23" cy="622.369" r="14.4" fill="#009af9" fill-rule="evenodd" fill-opacity="1" stroke="#000000" stroke-opacity="1" stroke-width="3.2"/>
<circle clip-path="url(#clip002)" cx="1475.72" cy="665.745" r="14.4" fill="#009af9" fill-rule="evenodd" fill-opacity="1" stroke="#000000" stroke-opacity="1" stroke-width="3.2"/>
<circle clip-path="url(#clip002)" cx="1369.72" cy="484.075" r="14.4" fill="#009af9" fill-rule="evenodd" fill-opacity="1" stroke="#000000" stroke-opacity="1" stroke-width="3.2"/>
<circle clip-path="url(#clip002)" cx="1458.89" cy="632.414" r="14.4" fill="#009af9" fill-rule="evenodd" fill-opacity="1" stroke="#000000" stroke-opacity="1" stroke-width="3.2"/>
<circle clip-path="url(#clip002)" cx="1403.22" cy="616.604" r="14.4" fill="#009af9" fill-rule="evenodd" fill-opacity="1" stroke="#000000" stroke-opacity="1" stroke-width="3.2"/>
<circle clip-path="url(#clip002)" cx="1434.22" cy="620.718" r="14.4" fill="#009af9" fill-rule="evenodd" fill-opacity="1" stroke="#000000" stroke-opacity="1" stroke-width="3.2"/>
<circle clip-path="url(#clip002)" cx="1402.04" cy="602.6" r="14.4" fill="#009af9" fill-rule="evenodd" fill-opacity="1" stroke="#000000" stroke-opacity="1" stroke-width="3.2"/>
<circle clip-path="url(#clip002)" cx="1449.24" cy="599.324" r="14.4" fill="#009af9" fill-rule="evenodd" fill-opacity="1" stroke="#000000" stroke-opacity="1" stroke-width="3.2"/>
<circle clip-path="url(#clip002)" cx="1442.93" cy="531.745" r="14.4" fill="#009af9" fill-rule="evenodd" fill-opacity="1" stroke="#000000" stroke-opacity="1" stroke-width="3.2"/>
<circle clip-path="url(#clip002)" cx="1173.59" cy="814.067" r="14.4" fill="#009af9" fill-rule="evenodd" fill-opacity="1" stroke="#000000" stroke-opacity="1" stroke-width="3.2"/>
<circle clip-path="url(#clip002)" cx="1366.13" cy="568.841" r="14.4" fill="#009af9" fill-rule="evenodd" fill-opacity="1" stroke="#000000" stroke-opacity="1" stroke-width="3.2"/>
<circle clip-path="url(#clip002)" cx="1282.72" cy="684.984" r="14.4" fill="#009af9" fill-rule="evenodd" fill-opacity="1" stroke="#000000" stroke-opacity="1" stroke-width="3.2"/>
<circle clip-path="url(#clip002)" cx="1376.38" cy="472.707" r="14.4" fill="#009af9" fill-rule="evenodd" fill-opacity="1" stroke="#000000" stroke-opacity="1" stroke-width="3.2"/>
<circle clip-path="url(#clip002)" cx="1355.29" cy="676.386" r="14.4" fill="#009af9" fill-rule="evenodd" fill-opacity="1" stroke="#000000" stroke-opacity="1" stroke-width="3.2"/>
<circle clip-path="url(#clip002)" cx="1461.17" cy="427.631" r="14.4" fill="#009af9" fill-rule="evenodd" fill-opacity="1" stroke="#000000" stroke-opacity="1" stroke-width="3.2"/>
<circle clip-path="url(#clip002)" cx="1206.84" cy="827.803" r="14.4" fill="#009af9" fill-rule="evenodd" fill-opacity="1" stroke="#000000" stroke-opacity="1" stroke-width="3.2"/>
<circle clip-path="url(#clip002)" cx="1194.49" cy="863.233" r="14.4" fill="#009af9" fill-rule="evenodd" fill-opacity="1" stroke="#000000" stroke-opacity="1" stroke-width="3.2"/>
<circle clip-path="url(#clip002)" cx="1314.07" cy="614.111" r="14.4" fill="#009af9" fill-rule="evenodd" fill-opacity="1" stroke="#000000" stroke-opacity="1" stroke-width="3.2"/>
<circle clip-path="url(#clip002)" cx="1088.57" cy="878.52" r="14.4" fill="#009af9" fill-rule="evenodd" fill-opacity="1" stroke="#000000" stroke-opacity="1" stroke-width="3.2"/>
<circle clip-path="url(#clip002)" cx="1373.38" cy="361.471" r="14.4" fill="#009af9" fill-rule="evenodd" fill-opacity="1" stroke="#000000" stroke-opacity="1" stroke-width="3.2"/>
<circle clip-path="url(#clip002)" cx="1386.4" cy="488.727" r="14.4" fill="#009af9" fill-rule="evenodd" fill-opacity="1" stroke="#000000" stroke-opacity="1" stroke-width="3.2"/>
<circle clip-path="url(#clip002)" cx="1639.95" cy="687.98" r="14.4" fill="#e26f46" fill-rule="evenodd" fill-opacity="1" stroke="#000000" stroke-opacity="1" stroke-width="3.2"/>
<circle clip-path="url(#clip002)" cx="1628.82" cy="774.906" r="14.4" fill="#e26f46" fill-rule="evenodd" fill-opacity="1" stroke="#000000" stroke-opacity="1" stroke-width="3.2"/>
<circle clip-path="url(#clip002)" cx="1634.01" cy="725.894" r="14.4" fill="#e26f46" fill-rule="evenodd" fill-opacity="1" stroke="#000000" stroke-opacity="1" stroke-width="3.2"/>
<circle clip-path="url(#clip002)" cx="1622.59" cy="811.855" r="14.4" fill="#e26f46" fill-rule="evenodd" fill-opacity="1" stroke="#000000" stroke-opacity="1" stroke-width="3.2"/>
<circle clip-path="url(#clip002)" cx="1619.74" cy="826.023" r="14.4" fill="#e26f46" fill-rule="evenodd" fill-opacity="1" stroke="#000000" stroke-opacity="1" stroke-width="3.2"/>
<circle clip-path="url(#clip002)" cx="1623.53" cy="824.277" r="14.4" fill="#e26f46" fill-rule="evenodd" fill-opacity="1" stroke="#000000" stroke-opacity="1" stroke-width="3.2"/>
<circle clip-path="url(#clip002)" cx="1626.56" cy="807.633" r="14.4" fill="#e26f46" fill-rule="evenodd" fill-opacity="1" stroke="#000000" stroke-opacity="1" stroke-width="3.2"/>
<circle clip-path="url(#clip002)" cx="1647.29" cy="638.571" r="14.4" fill="#e26f46" fill-rule="evenodd" fill-opacity="1" stroke="#000000" stroke-opacity="1" stroke-width="3.2"/>
<circle clip-path="url(#clip002)" cx="1643.92" cy="637.577" r="14.4" fill="#e26f46" fill-rule="evenodd" fill-opacity="1" stroke="#000000" stroke-opacity="1" stroke-width="3.2"/>
<circle clip-path="url(#clip002)" cx="1620.71" cy="820.378" r="14.4" fill="#e26f46" fill-rule="evenodd" fill-opacity="1" stroke="#000000" stroke-opacity="1" stroke-width="3.2"/>
<circle clip-path="url(#clip002)" cx="1651.83" cy="595.689" r="14.4" fill="#e26f46" fill-rule="evenodd" fill-opacity="1" stroke="#000000" stroke-opacity="1" stroke-width="3.2"/>
<circle clip-path="url(#clip002)" cx="1617.74" cy="843.503" r="14.4" fill="#e26f46" fill-rule="evenodd" fill-opacity="1" stroke="#000000" stroke-opacity="1" stroke-width="3.2"/>
<circle clip-path="url(#clip002)" cx="1641.29" cy="609.642" r="14.4" fill="#e26f46" fill-rule="evenodd" fill-opacity="1" stroke="#000000" stroke-opacity="1" stroke-width="3.2"/>
<circle clip-path="url(#clip002)" cx="1632.94" cy="748.315" r="14.4" fill="#e26f46" fill-rule="evenodd" fill-opacity="1" stroke="#000000" stroke-opacity="1" stroke-width="3.2"/>
<circle clip-path="url(#clip002)" cx="1623.23" cy="812.459" r="14.4" fill="#e26f46" fill-rule="evenodd" fill-opacity="1" stroke="#000000" stroke-opacity="1" stroke-width="3.2"/>
<circle clip-path="url(#clip002)" cx="1623.24" cy="814.943" r="14.4" fill="#e26f46" fill-rule="evenodd" fill-opacity="1" stroke="#000000" stroke-opacity="1" stroke-width="3.2"/>
<circle clip-path="url(#clip002)" cx="1641.82" cy="569.886" r="14.4" fill="#e26f46" fill-rule="evenodd" fill-opacity="1" stroke="#000000" stroke-opacity="1" stroke-width="3.2"/>
<circle clip-path="url(#clip002)" cx="1631.03" cy="771.165" r="14.4" fill="#e26f46" fill-rule="evenodd" fill-opacity="1" stroke="#000000" stroke-opacity="1" stroke-width="3.2"/>
<circle clip-path="url(#clip002)" cx="1637.85" cy="700.079" r="14.4" fill="#e26f46" fill-rule="evenodd" fill-opacity="1" stroke="#000000" stroke-opacity="1" stroke-width="3.2"/>
<circle clip-path="url(#clip002)" cx="1646.84" cy="558.568" r="14.4" fill="#e26f46" fill-rule="evenodd" fill-opacity="1" stroke="#000000" stroke-opacity="1" stroke-width="3.2"/>
<circle clip-path="url(#clip002)" cx="1657.28" cy="440.157" r="14.4" fill="#e26f46" fill-rule="evenodd" fill-opacity="1" stroke="#000000" stroke-opacity="1" stroke-width="3.2"/>
<circle clip-path="url(#clip002)" cx="1645.96" cy="625.389" r="14.4" fill="#e26f46" fill-rule="evenodd" fill-opacity="1" stroke="#000000" stroke-opacity="1" stroke-width="3.2"/>
<circle clip-path="url(#clip002)" cx="1622.24" cy="802.67" r="14.4" fill="#e26f46" fill-rule="evenodd" fill-opacity="1" stroke="#000000" stroke-opacity="1" stroke-width="3.2"/>
<circle clip-path="url(#clip002)" cx="1643.25" cy="609.876" r="14.4" fill="#e26f46" fill-rule="evenodd" fill-opacity="1" stroke="#000000" stroke-opacity="1" stroke-width="3.2"/>
<circle clip-path="url(#clip002)" cx="1650.77" cy="610.319" r="14.4" fill="#e26f46" fill-rule="evenodd" fill-opacity="1" stroke="#000000" stroke-opacity="1" stroke-width="3.2"/>
<circle clip-path="url(#clip002)" cx="1536.48" cy="1187.63" r="14.4" fill="#3da44d" fill-rule="evenodd" fill-opacity="1" stroke="#000000" stroke-opacity="1" stroke-width="3.2"/>
<circle clip-path="url(#clip002)" cx="1528.14" cy="918.736" r="14.4" fill="#c271d2" fill-rule="evenodd" fill-opacity="1" stroke="#000000" stroke-opacity="1" stroke-width="3.2"/>
<circle clip-path="url(#clip002)" cx="1524.36" cy="924.876" r="14.4" fill="#c271d2" fill-rule="evenodd" fill-opacity="1" stroke="#000000" stroke-opacity="1" stroke-width="3.2"/>
<path clip-path="url(#clip000)" d="M1750.39 884.756 L2283.41 884.756 L2283.41 625.556 L1750.39 625.556  Z" fill="#ffffff" fill-rule="evenodd" fill-opacity="1"/>
<polyline clip-path="url(#clip000)" style="stroke:#000000; stroke-linecap:round; stroke-linejoin:round; stroke-width:4; stroke-opacity:1; fill:none" points="1750.39,884.756 2283.41,884.756 2283.41,625.556 1750.39,625.556 1750.39,884.756 "/>
<circle clip-path="url(#clip000)" cx="1842.85" cy="677.396" r="20.48" fill="#009af9" fill-rule="evenodd" fill-opacity="1" stroke="#000000" stroke-opacity="1" stroke-width="4.55111"/>
<path clip-path="url(#clip000)" d="M1954.09 681.737 Q1954.09 677.038 1952.14 674.376 Q1950.22 671.691 1946.84 671.691 Q1943.46 671.691 1941.52 674.376 Q1939.6 677.038 1939.6 681.737 Q1939.6 686.436 1941.52 689.121 Q1943.46 691.783 1946.84 691.783 Q1950.22 691.783 1952.14 689.121 Q1954.09 686.436 1954.09 681.737 M1939.6 672.686 Q1940.94 670.371 1942.98 669.26 Q1945.04 668.126 1947.89 668.126 Q1952.61 668.126 1955.55 671.876 Q1958.51 675.626 1958.51 681.737 Q1958.51 687.848 1955.55 691.598 Q1952.61 695.348 1947.89 695.348 Q1945.04 695.348 1942.98 694.237 Q1940.94 693.102 1939.6 690.788 L1939.6 694.676 L1935.32 694.676 L1935.32 658.658 L1939.6 658.658 L1939.6 672.686 Z" fill="#000000" fill-rule="nonzero" fill-opacity="1" /><path clip-path="url(#clip000)" d="M1969.78 661.39 L1969.78 668.751 L1978.56 668.751 L1978.56 672.061 L1969.78 672.061 L1969.78 686.135 Q1969.78 689.306 1970.64 690.209 Q1971.52 691.112 1974.18 691.112 L1978.56 691.112 L1978.56 694.676 L1974.18 694.676 Q1969.25 694.676 1967.38 692.848 Q1965.5 690.996 1965.5 686.135 L1965.5 672.061 L1962.38 672.061 L1962.38 668.751 L1965.5 668.751 L1965.5 661.39 L1969.78 661.39 Z" fill="#000000" fill-rule="nonzero" fill-opacity="1" /><circle clip-path="url(#clip000)" cx="1842.85" cy="729.236" r="20.48" fill="#e26f46" fill-rule="evenodd" fill-opacity="1" stroke="#000000" stroke-opacity="1" stroke-width="4.55111"/>
<path clip-path="url(#clip000)" d="M1954.23 724.526 L1954.23 710.498 L1958.49 710.498 L1958.49 746.516 L1954.23 746.516 L1954.23 742.628 Q1952.89 744.942 1950.83 746.077 Q1948.79 747.188 1945.92 747.188 Q1941.22 747.188 1938.26 743.438 Q1935.32 739.688 1935.32 733.577 Q1935.32 727.466 1938.26 723.716 Q1941.22 719.966 1945.92 719.966 Q1948.79 719.966 1950.83 721.1 Q1952.89 722.211 1954.23 724.526 M1939.71 733.577 Q1939.71 738.276 1941.64 740.961 Q1943.58 743.623 1946.96 743.623 Q1950.34 743.623 1952.28 740.961 Q1954.23 738.276 1954.23 733.577 Q1954.23 728.878 1952.28 726.216 Q1950.34 723.531 1946.96 723.531 Q1943.58 723.531 1941.64 726.216 Q1939.71 728.878 1939.71 733.577 Z" fill="#000000" fill-rule="nonzero" fill-opacity="1" /><path clip-path="url(#clip000)" d="M1967.26 720.591 L1971.52 720.591 L1971.52 746.516 L1967.26 746.516 L1967.26 720.591 M1967.26 710.498 L1971.52 710.498 L1971.52 715.892 L1967.26 715.892 L1967.26 710.498 Z" fill="#000000" fill-rule="nonzero" fill-opacity="1" /><path clip-path="url(#clip000)" d="M1992.21 733.484 Q1987.05 733.484 1985.06 734.665 Q1983.07 735.845 1983.07 738.692 Q1983.07 740.961 1984.55 742.304 Q1986.06 743.623 1988.63 743.623 Q1992.17 743.623 1994.3 741.123 Q1996.45 738.6 1996.45 734.433 L1996.45 733.484 L1992.21 733.484 M2000.71 731.725 L2000.71 746.516 L1996.45 746.516 L1996.45 742.581 Q1994.99 744.942 1992.82 746.077 Q1990.64 747.188 1987.49 747.188 Q1983.51 747.188 1981.15 744.966 Q1978.81 742.72 1978.81 738.97 Q1978.81 734.595 1981.73 732.373 Q1984.67 730.151 1990.48 730.151 L1996.45 730.151 L1996.45 729.734 Q1996.45 726.794 1994.51 725.197 Q1992.58 723.577 1989.09 723.577 Q1986.87 723.577 1984.76 724.109 Q1982.65 724.642 1980.71 725.706 L1980.71 721.771 Q1983.05 720.868 1985.25 720.429 Q1987.45 719.966 1989.53 719.966 Q1995.15 719.966 1997.93 722.882 Q2000.71 725.799 2000.71 731.725 Z" fill="#000000" fill-rule="nonzero" fill-opacity="1" /><circle clip-path="url(#clip000)" cx="1842.85" cy="781.076" r="20.48" fill="#3da44d" fill-rule="evenodd" fill-opacity="1" stroke="#000000" stroke-opacity="1" stroke-width="4.55111"/>
<path clip-path="url(#clip000)" d="M1935.32 772.431 L1939.58 772.431 L1939.58 798.356 L1935.32 798.356 L1935.32 772.431 M1935.32 762.338 L1939.58 762.338 L1939.58 767.732 L1935.32 767.732 L1935.32 762.338 Z" fill="#000000" fill-rule="nonzero" fill-opacity="1" /><path clip-path="url(#clip000)" d="M1965.01 773.195 L1965.01 777.222 Q1963.21 776.296 1961.26 775.833 Q1959.32 775.371 1957.24 775.371 Q1954.07 775.371 1952.47 776.343 Q1950.89 777.315 1950.89 779.259 Q1950.89 780.741 1952.03 781.597 Q1953.16 782.431 1956.59 783.195 L1958.05 783.519 Q1962.58 784.491 1964.48 786.273 Q1966.4 788.032 1966.4 791.204 Q1966.4 794.815 1963.53 796.921 Q1960.69 799.028 1955.69 799.028 Q1953.6 799.028 1951.33 798.611 Q1949.09 798.218 1946.59 797.407 L1946.59 793.009 Q1948.95 794.236 1951.24 794.861 Q1953.53 795.463 1955.78 795.463 Q1958.79 795.463 1960.41 794.444 Q1962.03 793.403 1962.03 791.528 Q1962.03 789.792 1960.85 788.866 Q1959.69 787.94 1955.73 787.083 L1954.25 786.736 Q1950.29 785.903 1948.53 784.19 Q1946.77 782.454 1946.77 779.445 Q1946.77 775.787 1949.37 773.796 Q1951.96 771.806 1956.73 771.806 Q1959.09 771.806 1961.17 772.153 Q1963.26 772.5 1965.01 773.195 Z" fill="#000000" fill-rule="nonzero" fill-opacity="1" /><path clip-path="url(#clip000)" d="M1983.23 775.417 Q1979.81 775.417 1977.82 778.102 Q1975.82 780.764 1975.82 785.417 Q1975.82 790.07 1977.79 792.755 Q1979.78 795.417 1983.23 795.417 Q1986.64 795.417 1988.63 792.732 Q1990.62 790.046 1990.62 785.417 Q1990.62 780.81 1988.63 778.125 Q1986.64 775.417 1983.23 775.417 M1983.23 771.806 Q1988.79 771.806 1991.96 775.417 Q1995.13 779.028 1995.13 785.417 Q1995.13 791.782 1991.96 795.417 Q1988.79 799.028 1983.23 799.028 Q1977.65 799.028 1974.48 795.417 Q1971.33 791.782 1971.33 785.417 Q1971.33 779.028 1974.48 775.417 Q1977.65 771.806 1983.23 771.806 Z" fill="#000000" fill-rule="nonzero" fill-opacity="1" /><path clip-path="url(#clip000)" d="M2002.19 762.338 L2006.45 762.338 L2006.45 798.356 L2002.19 798.356 L2002.19 762.338 Z" fill="#000000" fill-rule="nonzero" fill-opacity="1" /><path clip-path="url(#clip000)" d="M2027.14 785.324 Q2021.98 785.324 2019.99 786.505 Q2018 787.685 2018 790.532 Q2018 792.801 2019.48 794.144 Q2020.99 795.463 2023.56 795.463 Q2027.1 795.463 2029.23 792.963 Q2031.38 790.44 2031.38 786.273 L2031.38 785.324 L2027.14 785.324 M2035.64 783.565 L2035.64 798.356 L2031.38 798.356 L2031.38 794.421 Q2029.92 796.782 2027.75 797.917 Q2025.57 799.028 2022.42 799.028 Q2018.44 799.028 2016.08 796.806 Q2013.74 794.56 2013.74 790.81 Q2013.74 786.435 2016.66 784.213 Q2019.6 781.991 2025.41 781.991 L2031.38 781.991 L2031.38 781.574 Q2031.38 778.634 2029.44 777.037 Q2027.51 775.417 2024.02 775.417 Q2021.8 775.417 2019.69 775.949 Q2017.58 776.482 2015.64 777.546 L2015.64 773.611 Q2017.98 772.708 2020.18 772.269 Q2022.38 771.806 2024.46 771.806 Q2030.08 771.806 2032.86 774.722 Q2035.64 777.639 2035.64 783.565 Z" fill="#000000" fill-rule="nonzero" fill-opacity="1" /><path clip-path="url(#clip000)" d="M2048.63 765.07 L2048.63 772.431 L2057.4 772.431 L2057.4 775.741 L2048.63 775.741 L2048.63 789.815 Q2048.63 792.986 2049.48 793.889 Q2050.36 794.792 2053.02 794.792 L2057.4 794.792 L2057.4 798.356 L2053.02 798.356 Q2048.09 798.356 2046.22 796.528 Q2044.34 794.676 2044.34 789.815 L2044.34 775.741 L2041.22 775.741 L2041.22 772.431 L2044.34 772.431 L2044.34 765.07 L2048.63 765.07 Z" fill="#000000" fill-rule="nonzero" fill-opacity="1" /><path clip-path="url(#clip000)" d="M2085.18 784.329 L2085.18 786.412 L2065.59 786.412 Q2065.87 790.81 2068.23 793.125 Q2070.62 795.417 2074.85 795.417 Q2077.31 795.417 2079.6 794.815 Q2081.91 794.213 2084.18 793.009 L2084.18 797.037 Q2081.89 798.009 2079.48 798.519 Q2077.07 799.028 2074.6 799.028 Q2068.39 799.028 2064.76 795.417 Q2061.15 791.806 2061.15 785.648 Q2061.15 779.283 2064.57 775.556 Q2068.02 771.806 2073.86 771.806 Q2079.09 771.806 2082.12 775.185 Q2085.18 778.542 2085.18 784.329 M2080.92 783.079 Q2080.87 779.583 2078.95 777.5 Q2077.05 775.417 2073.9 775.417 Q2070.34 775.417 2068.19 777.431 Q2066.06 779.445 2065.73 783.102 L2080.92 783.079 Z" fill="#000000" fill-rule="nonzero" fill-opacity="1" /><path clip-path="url(#clip000)" d="M2109.23 776.366 L2109.23 762.338 L2113.49 762.338 L2113.49 798.356 L2109.23 798.356 L2109.23 794.468 Q2107.88 796.782 2105.82 797.917 Q2103.79 799.028 2100.92 799.028 Q2096.22 799.028 2093.25 795.278 Q2090.32 791.528 2090.32 785.417 Q2090.32 779.306 2093.25 775.556 Q2096.22 771.806 2100.92 771.806 Q2103.79 771.806 2105.82 772.94 Q2107.88 774.051 2109.23 776.366 M2094.71 785.417 Q2094.71 790.116 2096.63 792.801 Q2098.58 795.463 2101.96 795.463 Q2105.34 795.463 2107.28 792.801 Q2109.23 790.116 2109.23 785.417 Q2109.23 780.718 2107.28 778.056 Q2105.34 775.371 2101.96 775.371 Q2098.58 775.371 2096.63 778.056 Q2094.71 780.718 2094.71 785.417 Z" fill="#000000" fill-rule="nonzero" fill-opacity="1" /><path clip-path="url(#clip000)" d="M2141.96 806.227 L2141.96 809.537 L2117.33 809.537 L2117.33 806.227 L2141.96 806.227 Z" fill="#000000" fill-rule="nonzero" fill-opacity="1" /><path clip-path="url(#clip000)" d="M2157.75 785.324 Q2152.58 785.324 2150.59 786.505 Q2148.6 787.685 2148.6 790.532 Q2148.6 792.801 2150.08 794.144 Q2151.59 795.463 2154.16 795.463 Q2157.7 795.463 2159.83 792.963 Q2161.98 790.44 2161.98 786.273 L2161.98 785.324 L2157.75 785.324 M2166.24 783.565 L2166.24 798.356 L2161.98 798.356 L2161.98 794.421 Q2160.52 796.782 2158.35 797.917 Q2156.17 799.028 2153.02 799.028 Q2149.04 799.028 2146.68 796.806 Q2144.34 794.56 2144.34 790.81 Q2144.34 786.435 2147.26 784.213 Q2150.2 781.991 2156.01 781.991 L2161.98 781.991 L2161.98 781.574 Q2161.98 778.634 2160.04 777.037 Q2158.12 775.417 2154.62 775.417 Q2152.4 775.417 2150.29 775.949 Q2148.19 776.482 2146.24 777.546 L2146.24 773.611 Q2148.58 772.708 2150.78 772.269 Q2152.98 771.806 2155.06 771.806 Q2160.69 771.806 2163.46 774.722 Q2166.24 777.639 2166.24 783.565 Z" fill="#000000" fill-rule="nonzero" fill-opacity="1" /><path clip-path="url(#clip000)" d="M2179.23 765.07 L2179.23 772.431 L2188 772.431 L2188 775.741 L2179.23 775.741 L2179.23 789.815 Q2179.23 792.986 2180.08 793.889 Q2180.96 794.792 2183.62 794.792 L2188 794.792 L2188 798.356 L2183.62 798.356 Q2178.69 798.356 2176.82 796.528 Q2174.94 794.676 2174.94 789.815 L2174.94 775.741 L2171.82 775.741 L2171.82 772.431 L2174.94 772.431 L2174.94 765.07 L2179.23 765.07 Z" fill="#000000" fill-rule="nonzero" fill-opacity="1" /><path clip-path="url(#clip000)" d="M2203.65 775.417 Q2200.22 775.417 2198.23 778.102 Q2196.24 780.764 2196.24 785.417 Q2196.24 790.07 2198.21 792.755 Q2200.2 795.417 2203.65 795.417 Q2207.05 795.417 2209.04 792.732 Q2211.03 790.046 2211.03 785.417 Q2211.03 780.81 2209.04 778.125 Q2207.05 775.417 2203.65 775.417 M2203.65 771.806 Q2209.2 771.806 2212.37 775.417 Q2215.55 779.028 2215.55 785.417 Q2215.55 791.782 2212.37 795.417 Q2209.2 799.028 2203.65 799.028 Q2198.07 799.028 2194.9 795.417 Q2191.75 791.782 2191.75 785.417 Q2191.75 779.028 2194.9 775.417 Q2198.07 771.806 2203.65 771.806 Z" fill="#000000" fill-rule="nonzero" fill-opacity="1" /><path clip-path="url(#clip000)" d="M2242.79 777.408 Q2244.39 774.537 2246.61 773.171 Q2248.83 771.806 2251.84 771.806 Q2255.89 771.806 2258.09 774.653 Q2260.29 777.477 2260.29 782.708 L2260.29 798.356 L2256.01 798.356 L2256.01 782.847 Q2256.01 779.12 2254.69 777.315 Q2253.37 775.509 2250.66 775.509 Q2247.35 775.509 2245.43 777.708 Q2243.51 779.908 2243.51 783.704 L2243.51 798.356 L2239.23 798.356 L2239.23 782.847 Q2239.23 779.097 2237.91 777.315 Q2236.59 775.509 2233.83 775.509 Q2230.57 775.509 2228.65 777.732 Q2226.73 779.931 2226.73 783.704 L2226.73 798.356 L2222.44 798.356 L2222.44 772.431 L2226.73 772.431 L2226.73 776.458 Q2228.18 774.074 2230.22 772.94 Q2232.26 771.806 2235.06 771.806 Q2237.88 771.806 2239.85 773.241 Q2241.84 774.676 2242.79 777.408 Z" fill="#000000" fill-rule="nonzero" fill-opacity="1" /><circle clip-path="url(#clip000)" cx="1842.85" cy="832.916" r="20.48" fill="#c271d2" fill-rule="evenodd" fill-opacity="1" stroke="#000000" stroke-opacity="1" stroke-width="4.55111"/>
<path clip-path="url(#clip000)" d="M1935.32 814.178 L1939.58 814.178 L1939.58 850.196 L1935.32 850.196 L1935.32 814.178 Z" fill="#000000" fill-rule="nonzero" fill-opacity="1" /><path clip-path="url(#clip000)" d="M1948.49 824.271 L1952.75 824.271 L1952.75 850.196 L1948.49 850.196 L1948.49 824.271 M1948.49 814.178 L1952.75 814.178 L1952.75 819.572 L1948.49 819.572 L1948.49 814.178 Z" fill="#000000" fill-rule="nonzero" fill-opacity="1" /><path clip-path="url(#clip000)" d="M1964.2 837.257 Q1964.2 841.956 1966.13 844.641 Q1968.07 847.303 1971.45 847.303 Q1974.83 847.303 1976.77 844.641 Q1978.72 841.956 1978.72 837.257 Q1978.72 832.558 1976.77 829.896 Q1974.83 827.211 1971.45 827.211 Q1968.07 827.211 1966.13 829.896 Q1964.2 832.558 1964.2 837.257 M1978.72 846.308 Q1977.38 848.622 1975.32 849.757 Q1973.28 850.868 1970.41 850.868 Q1965.71 850.868 1962.75 847.118 Q1959.81 843.368 1959.81 837.257 Q1959.81 831.146 1962.75 827.396 Q1965.71 823.646 1970.41 823.646 Q1973.28 823.646 1975.32 824.78 Q1977.38 825.891 1978.72 828.206 L1978.72 824.271 L1982.98 824.271 L1982.98 860.058 L1978.72 860.058 L1978.72 846.308 Z" fill="#000000" fill-rule="nonzero" fill-opacity="1" /></svg>
