<?xml version="1.0" encoding="utf-8"?>
<svg xmlns="http://www.w3.org/2000/svg" xmlns:xlink="http://www.w3.org/1999/xlink" width="600" height="400" viewBox="0 0 2400 1600">
<defs>
  <clipPath id="clip060">
    <rect x="0" y="0" width="2400" height="1600"/>
  </clipPath>
</defs>
<path clip-path="url(#clip060)" d="M0 1600 L2400 1600 L2400 0 L0 0  Z" fill="#ffffff" fill-rule="evenodd" fill-opacity="1"/>
<defs>
  <clipPath id="clip061">
    <rect x="480" y="0" width="1681" height="1600"/>
  </clipPath>
</defs>
<path clip-path="url(#clip060)" d="M210.746 1420.96 L2352.76 1420.96 L2352.76 47.2441 L210.746 47.2441  Z" fill="#ffffff" fill-rule="evenodd" fill-opacity="1"/>
<defs>
  <clipPath id="clip062">
    <rect x="210" y="47" width="2143" height="1375"/>
  </clipPath>
</defs>
<polyline clip-path="url(#clip062)" style="stroke:#000000; stroke-linecap:round; stroke-linejoin:round; stroke-width:2; stroke-opacity:0.1; fill:none" points="210.746,1420.96 210.746,47.2441 "/>
<polyline clip-path="url(#clip062)" style="stroke:#000000; stroke-linecap:round; stroke-linejoin:round; stroke-width:2; stroke-opacity:0.1; fill:none" points="567.748,1420.96 567.748,47.2441 "/>
<polyline clip-path="url(#clip062)" style="stroke:#000000; stroke-linecap:round; stroke-linejoin:round; stroke-width:2; stroke-opacity:0.1; fill:none" points="924.749,1420.96 924.749,47.2441 "/>
<polyline clip-path="url(#clip062)" style="stroke:#000000; stroke-linecap:round; stroke-linejoin:round; stroke-width:2; stroke-opacity:0.1; fill:none" points="1281.75,1420.96 1281.75,47.2441 "/>
<polyline clip-path="url(#clip062)" style="stroke:#000000; stroke-linecap:round; stroke-linejoin:round; stroke-width:2; stroke-opacity:0.1; fill:none" points="1638.75,1420.96 1638.75,47.2441 "/>
<polyline clip-path="url(#clip062)" style="stroke:#000000; stroke-linecap:round; stroke-linejoin:round; stroke-width:2; stroke-opacity:0.1; fill:none" points="1995.75,1420.96 1995.75,47.2441 "/>
<polyline clip-path="url(#clip062)" style="stroke:#000000; stroke-linecap:round; stroke-linejoin:round; stroke-width:2; stroke-opacity:0.1; fill:none" points="2352.76,1420.96 2352.76,47.2441 "/>
<polyline clip-path="url(#clip062)" style="stroke:#000000; stroke-linecap:round; stroke-linejoin:round; stroke-width:2; stroke-opacity:0.1; fill:none" points="210.746,1420.96 2352.76,1420.96 "/>
<polyline clip-path="url(#clip062)" style="stroke:#000000; stroke-linecap:round; stroke-linejoin:round; stroke-width:2; stroke-opacity:0.1; fill:none" points="210.746,1224.72 2352.76,1224.72 "/>
<polyline clip-path="url(#clip062)" style="stroke:#000000; stroke-linecap:round; stroke-linejoin:round; stroke-width:2; stroke-opacity:0.1; fill:none" points="210.746,1028.47 2352.76,1028.47 "/>
<polyline clip-path="url(#clip062)" style="stroke:#000000; stroke-linecap:round; stroke-linejoin:round; stroke-width:2; stroke-opacity:0.1; fill:none" points="210.746,832.225 2352.76,832.225 "/>
<polyline clip-path="url(#clip062)" style="stroke:#000000; stroke-linecap:round; stroke-linejoin:round; stroke-width:2; stroke-opacity:0.1; fill:none" points="210.746,635.98 2352.76,635.98 "/>
<polyline clip-path="url(#clip062)" style="stroke:#000000; stroke-linecap:round; stroke-linejoin:round; stroke-width:2; stroke-opacity:0.1; fill:none" points="210.746,439.734 2352.76,439.734 "/>
<polyline clip-path="url(#clip062)" style="stroke:#000000; stroke-linecap:round; stroke-linejoin:round; stroke-width:2; stroke-opacity:0.1; fill:none" points="210.746,243.489 2352.76,243.489 "/>
<polyline clip-path="url(#clip062)" style="stroke:#000000; stroke-linecap:round; stroke-linejoin:round; stroke-width:2; stroke-opacity:0.1; fill:none" points="210.746,47.2441 2352.76,47.2441 "/>
<polyline clip-path="url(#clip060)" style="stroke:#000000; stroke-linecap:round; stroke-linejoin:round; stroke-width:4; stroke-opacity:1; fill:none" points="210.746,1420.96 2352.76,1420.96 "/>
<polyline clip-path="url(#clip060)" style="stroke:#000000; stroke-linecap:round; stroke-linejoin:round; stroke-width:4; stroke-opacity:1; fill:none" points="210.746,1420.96 210.746,1402.06 "/>
<polyline clip-path="url(#clip060)" style="stroke:#000000; stroke-linecap:round; stroke-linejoin:round; stroke-width:4; stroke-opacity:1; fill:none" points="567.748,1420.96 567.748,1402.06 "/>
<polyline clip-path="url(#clip060)" style="stroke:#000000; stroke-linecap:round; stroke-linejoin:round; stroke-width:4; stroke-opacity:1; fill:none" points="924.749,1420.96 924.749,1402.06 "/>
<polyline clip-path="url(#clip060)" style="stroke:#000000; stroke-linecap:round; stroke-linejoin:round; stroke-width:4; stroke-opacity:1; fill:none" points="1281.75,1420.96 1281.75,1402.06 "/>
<polyline clip-path="url(#clip060)" style="stroke:#000000; stroke-linecap:round; stroke-linejoin:round; stroke-width:4; stroke-opacity:1; fill:none" points="1638.75,1420.96 1638.75,1402.06 "/>
<polyline clip-path="url(#clip060)" style="stroke:#000000; stroke-linecap:round; stroke-linejoin:round; stroke-width:4; stroke-opacity:1; fill:none" points="1995.75,1420.96 1995.75,1402.06 "/>
<polyline clip-path="url(#clip060)" style="stroke:#000000; stroke-linecap:round; stroke-linejoin:round; stroke-width:4; stroke-opacity:1; fill:none" points="2352.76,1420.96 2352.76,1402.06 "/>
<path clip-path="url(#clip060)" d="M210.746 1451.88 Q207.135 1451.88 205.306 1455.44 Q203.501 1458.99 203.501 1466.11 Q203.501 1473.22 205.306 1476.79 Q207.135 1480.33 210.746 1480.33 Q214.38 1480.33 216.186 1476.79 Q218.014 1473.22 218.014 1466.11 Q218.014 1458.99 216.186 1455.44 Q214.38 1451.88 210.746 1451.88 M210.746 1448.18 Q216.556 1448.18 219.612 1452.78 Q222.69 1457.37 222.69 1466.11 Q222.69 1474.84 219.612 1479.45 Q216.556 1484.03 210.746 1484.03 Q204.936 1484.03 201.857 1479.45 Q198.802 1474.84 198.802 1466.11 Q198.802 1457.37 201.857 1452.78 Q204.936 1448.18 210.746 1448.18 Z" fill="#000000" fill-rule="nonzero" fill-opacity="1" /><path clip-path="url(#clip060)" d="M558.13 1479.43 L565.768 1479.43 L565.768 1453.06 L557.458 1454.73 L557.458 1450.47 L565.722 1448.8 L570.398 1448.8 L570.398 1479.43 L578.037 1479.43 L578.037 1483.36 L558.13 1483.36 L558.13 1479.43 Z" fill="#000000" fill-rule="nonzero" fill-opacity="1" /><path clip-path="url(#clip060)" d="M919.402 1479.43 L935.721 1479.43 L935.721 1483.36 L913.777 1483.36 L913.777 1479.43 Q916.439 1476.67 921.022 1472.04 Q925.629 1467.39 926.809 1466.05 Q929.055 1463.52 929.934 1461.79 Q930.837 1460.03 930.837 1458.34 Q930.837 1455.58 928.893 1453.85 Q926.971 1452.11 923.87 1452.11 Q921.671 1452.11 919.217 1452.87 Q916.786 1453.64 914.009 1455.19 L914.009 1450.47 Q916.833 1449.33 919.286 1448.75 Q921.74 1448.18 923.777 1448.18 Q929.147 1448.18 932.342 1450.86 Q935.536 1453.55 935.536 1458.04 Q935.536 1460.17 934.726 1462.09 Q933.939 1463.99 931.833 1466.58 Q931.254 1467.25 928.152 1470.47 Q925.05 1473.66 919.402 1479.43 Z" fill="#000000" fill-rule="nonzero" fill-opacity="1" /><path clip-path="url(#clip060)" d="M1286 1464.73 Q1289.36 1465.44 1291.23 1467.71 Q1293.13 1469.98 1293.13 1473.31 Q1293.13 1478.43 1289.61 1481.23 Q1286.09 1484.03 1279.61 1484.03 Q1277.43 1484.03 1275.12 1483.59 Q1272.83 1483.18 1270.37 1482.32 L1270.37 1477.8 Q1272.32 1478.94 1274.63 1479.52 Q1276.95 1480.1 1279.47 1480.1 Q1283.87 1480.1 1286.16 1478.36 Q1288.48 1476.62 1288.48 1473.31 Q1288.48 1470.26 1286.32 1468.55 Q1284.19 1466.81 1280.37 1466.81 L1276.35 1466.81 L1276.35 1462.97 L1280.56 1462.97 Q1284.01 1462.97 1285.84 1461.6 Q1287.67 1460.21 1287.67 1457.62 Q1287.67 1454.96 1285.77 1453.55 Q1283.89 1452.11 1280.37 1452.11 Q1278.45 1452.11 1276.25 1452.53 Q1274.05 1452.94 1271.42 1453.82 L1271.42 1449.66 Q1274.08 1448.92 1276.39 1448.55 Q1278.73 1448.18 1280.79 1448.18 Q1286.11 1448.18 1289.22 1450.61 Q1292.32 1453.01 1292.32 1457.13 Q1292.32 1460 1290.67 1461.99 Q1289.03 1463.96 1286 1464.73 Z" fill="#000000" fill-rule="nonzero" fill-opacity="1" /><path clip-path="url(#clip060)" d="M1641.76 1452.87 L1629.96 1471.32 L1641.76 1471.32 L1641.76 1452.87 M1640.53 1448.8 L1646.41 1448.8 L1646.41 1471.32 L1651.35 1471.32 L1651.35 1475.21 L1646.41 1475.21 L1646.41 1483.36 L1641.76 1483.36 L1641.76 1475.21 L1626.16 1475.21 L1626.16 1470.7 L1640.53 1448.8 Z" fill="#000000" fill-rule="nonzero" fill-opacity="1" /><path clip-path="url(#clip060)" d="M1986.03 1448.8 L2004.39 1448.8 L2004.39 1452.74 L1990.31 1452.74 L1990.31 1461.21 Q1991.33 1460.86 1992.35 1460.7 Q1993.37 1460.51 1994.39 1460.51 Q2000.18 1460.51 2003.56 1463.68 Q2006.93 1466.86 2006.93 1472.27 Q2006.93 1477.85 2003.46 1480.95 Q1999.99 1484.03 1993.67 1484.03 Q1991.5 1484.03 1989.23 1483.66 Q1986.98 1483.29 1984.57 1482.55 L1984.57 1477.85 Q1986.66 1478.99 1988.88 1479.54 Q1991.1 1480.1 1993.58 1480.1 Q1997.58 1480.1 1999.92 1477.99 Q2002.26 1475.88 2002.26 1472.27 Q2002.26 1468.66 1999.92 1466.55 Q1997.58 1464.45 1993.58 1464.45 Q1991.7 1464.45 1989.83 1464.86 Q1987.98 1465.28 1986.03 1466.16 L1986.03 1448.8 Z" fill="#000000" fill-rule="nonzero" fill-opacity="1" /><path clip-path="url(#clip060)" d="M2353.16 1464.22 Q2350.01 1464.22 2348.16 1466.37 Q2346.33 1468.52 2346.33 1472.27 Q2346.33 1476 2348.16 1478.18 Q2350.01 1480.33 2353.16 1480.33 Q2356.31 1480.33 2358.14 1478.18 Q2359.99 1476 2359.99 1472.27 Q2359.99 1468.52 2358.14 1466.37 Q2356.31 1464.22 2353.16 1464.22 M2362.44 1449.56 L2362.44 1453.82 Q2360.68 1452.99 2358.88 1452.55 Q2357.1 1452.11 2355.34 1452.11 Q2350.71 1452.11 2348.25 1455.24 Q2345.82 1458.36 2345.48 1464.68 Q2346.84 1462.67 2348.9 1461.6 Q2350.96 1460.51 2353.44 1460.51 Q2358.65 1460.51 2361.66 1463.68 Q2364.69 1466.83 2364.69 1472.27 Q2364.69 1477.6 2361.54 1480.81 Q2358.39 1484.03 2353.16 1484.03 Q2347.17 1484.03 2343.99 1479.45 Q2340.82 1474.84 2340.82 1466.11 Q2340.82 1457.92 2344.71 1453.06 Q2348.6 1448.18 2355.15 1448.18 Q2356.91 1448.18 2358.69 1448.52 Q2360.5 1448.87 2362.44 1449.56 Z" fill="#000000" fill-rule="nonzero" fill-opacity="1" /><path clip-path="url(#clip060)" d="M1192.39 1534.76 Q1192.39 1536.46 1191.26 1537.56 Q1190.17 1538.65 1188.75 1538.65 Q1187.53 1538.65 1186.88 1537.95 Q1186.24 1537.24 1186.24 1536.34 Q1186.24 1535.05 1187.24 1533.98 Q1188.24 1532.92 1189.69 1532.7 Q1188.62 1531.92 1186.92 1531.92 Q1184.11 1531.92 1181.63 1534.08 Q1180.54 1535.08 1179.35 1536.92 Q1178.16 1538.72 1177.93 1539.49 L1175.84 1548.09 Q1175.64 1549.06 1174.45 1553.69 Q1173.29 1558.3 1173.2 1558.49 Q1172.87 1559.4 1172.17 1559.88 Q1171.46 1560.36 1170.75 1560.36 Q1169.94 1560.36 1169.4 1559.88 Q1168.85 1559.4 1168.85 1558.56 Q1168.85 1558.43 1168.95 1557.95 Q1169.04 1557.46 1169.2 1556.79 Q1169.36 1556.11 1169.43 1555.72 L1173.26 1540.49 Q1173.97 1537.72 1174.13 1536.85 Q1174.32 1535.95 1174.32 1534.95 Q1174.32 1533.21 1173.78 1532.57 Q1173.23 1531.92 1172.26 1531.92 Q1170.59 1531.92 1169.49 1533.92 Q1168.4 1535.92 1167.46 1539.78 Q1167.17 1540.84 1166.98 1541.07 Q1166.82 1541.3 1166.34 1541.3 Q1165.53 1541.26 1165.53 1540.62 Q1165.53 1540.46 1165.79 1539.43 Q1166.05 1538.36 1166.53 1536.82 Q1167.04 1535.24 1167.59 1534.24 Q1167.91 1533.57 1168.2 1533.12 Q1168.49 1532.66 1169.07 1531.96 Q1169.65 1531.25 1170.52 1530.86 Q1171.39 1530.47 1172.46 1530.47 Q1174.77 1530.47 1176.42 1531.89 Q1178.09 1533.31 1178.48 1535.53 Q1179.28 1534.37 1180.28 1533.37 Q1181.28 1532.34 1183.12 1531.41 Q1184.95 1530.47 1186.92 1530.47 Q1189.36 1530.47 1190.88 1531.73 Q1192.39 1532.95 1192.39 1534.76 Z" fill="#000000" fill-rule="nonzero" fill-opacity="1" /><path clip-path="url(#clip060)" d="M1202.1 1576.11 L1202.1 1510.15 L1212.05 1510.15 L1212.05 1511.67 L1206.51 1511.67 L1206.51 1574.6 L1212.05 1574.6 L1212.05 1576.11 L1202.1 1576.11 Z" fill="#000000" fill-rule="nonzero" fill-opacity="1" /><path clip-path="url(#clip060)" d="M1265.4 1559.62 L1256.77 1559.43 Q1249.66 1559.43 1247.27 1559.62 L1247.27 1557.59 Q1252.75 1557.59 1252.75 1555.59 Q1252.75 1555.43 1252.55 1554.66 L1249.08 1544.58 L1232.78 1544.58 L1229.72 1553.21 Q1229.59 1553.47 1229.59 1554.21 Q1229.59 1555.59 1230.91 1556.59 Q1232.23 1557.59 1234.55 1557.59 L1234.55 1559.62 L1226.95 1559.43 L1220.25 1559.62 L1220.25 1557.59 Q1223.12 1557.53 1224.95 1556.53 Q1226.79 1555.53 1227.63 1553.15 L1241.28 1513.73 Q1241.54 1512.95 1241.83 1512.7 Q1242.12 1512.41 1242.86 1512.41 Q1243.38 1512.41 1243.67 1512.6 Q1243.96 1512.76 1244.05 1512.99 Q1244.18 1513.18 1244.37 1513.73 L1258.61 1554.95 Q1259.16 1556.59 1260.22 1557.11 Q1261.28 1557.59 1264.25 1557.59 L1265.4 1557.59 L1265.4 1559.62 M1248.34 1542.55 L1240.9 1521.1 L1233.49 1542.55 L1248.34 1542.55 M1247.01 1506.58 Q1247.01 1502.78 1242.86 1502.78 Q1238.71 1502.78 1238.71 1506.58 Q1238.71 1510.41 1242.86 1510.41 Q1247.01 1510.41 1247.01 1506.58 M1249.2 1506.51 Q1249.2 1508.96 1247.37 1510.7 Q1245.53 1512.41 1242.8 1512.41 Q1240.25 1512.41 1238.38 1510.7 Q1236.52 1508.99 1236.52 1506.51 Q1236.52 1504.26 1238.32 1502.52 Q1240.16 1500.78 1242.92 1500.78 Q1245.57 1500.78 1247.37 1502.49 Q1249.2 1504.19 1249.2 1506.51 Z" fill="#000000" fill-rule="nonzero" fill-opacity="1" /><path clip-path="url(#clip060)" d="M1269.25 1574.6 L1274.79 1574.6 L1274.79 1511.67 L1269.25 1511.67 L1269.25 1510.15 L1279.2 1510.15 L1279.2 1576.11 L1269.25 1576.11 L1269.25 1574.6 Z" fill="#000000" fill-rule="nonzero" fill-opacity="1" /><path clip-path="url(#clip060)" d="M1328.33 1510.16 Q1324.06 1517.48 1322 1524.64 Q1319.93 1531.8 1319.93 1539.15 Q1319.93 1546.51 1322 1553.73 Q1324.1 1560.93 1328.33 1568.21 L1323.24 1568.21 Q1318.46 1560.73 1316.08 1553.51 Q1313.72 1546.28 1313.72 1539.15 Q1313.72 1532.06 1316.08 1524.86 Q1318.43 1517.67 1323.24 1510.16 L1328.33 1510.16 Z" fill="#000000" fill-rule="nonzero" fill-opacity="1" /><path clip-path="url(#clip060)" d="M1360.67 1507.87 Q1360.67 1505.86 1359.24 1504.46 Q1357.83 1503.03 1355.83 1503.03 Q1353.79 1503.03 1352.39 1504.43 Q1351.02 1505.8 1351.02 1507.87 Q1351.02 1509.87 1352.42 1511.27 Q1353.82 1512.67 1355.83 1512.67 Q1357.83 1512.67 1359.24 1511.27 Q1360.67 1509.87 1360.67 1507.87 M1355.83 1518.43 L1347.17 1542.08 L1364.52 1542.08 L1355.83 1518.43 M1351.02 1515.16 Q1349.08 1513.85 1348.1 1512.04 Q1347.11 1510.19 1347.11 1507.87 Q1347.11 1504.21 1349.62 1501.66 Q1352.17 1499.11 1355.83 1499.11 Q1359.46 1499.11 1362 1501.69 Q1364.58 1504.24 1364.58 1507.87 Q1364.58 1510.1 1363.56 1511.97 Q1362.58 1513.85 1360.67 1515.16 L1377.6 1559.62 L1370.92 1559.62 L1366.59 1547.43 L1345.17 1547.43 L1340.84 1559.62 L1334.06 1559.62 L1351.02 1515.16 Z" fill="#000000" fill-rule="nonzero" fill-opacity="1" /><path clip-path="url(#clip060)" d="M1383.36 1510.16 L1388.45 1510.16 Q1393.23 1517.67 1395.58 1524.86 Q1397.97 1532.06 1397.97 1539.15 Q1397.97 1546.28 1395.58 1553.51 Q1393.23 1560.73 1388.45 1568.21 L1383.36 1568.21 Q1387.59 1560.93 1389.66 1553.73 Q1391.76 1546.51 1391.76 1539.15 Q1391.76 1531.8 1389.66 1524.64 Q1387.59 1517.48 1383.36 1510.16 Z" fill="#000000" fill-rule="nonzero" fill-opacity="1" /><polyline clip-path="url(#clip060)" style="stroke:#000000; stroke-linecap:round; stroke-linejoin:round; stroke-width:4; stroke-opacity:1; fill:none" points="210.746,1420.96 210.746,47.2441 "/>
<polyline clip-path="url(#clip060)" style="stroke:#000000; stroke-linecap:round; stroke-linejoin:round; stroke-width:4; stroke-opacity:1; fill:none" points="210.746,1420.96 229.644,1420.96 "/>
<polyline clip-path="url(#clip060)" style="stroke:#000000; stroke-linecap:round; stroke-linejoin:round; stroke-width:4; stroke-opacity:1; fill:none" points="210.746,1224.72 229.644,1224.72 "/>
<polyline clip-path="url(#clip060)" style="stroke:#000000; stroke-linecap:round; stroke-linejoin:round; stroke-width:4; stroke-opacity:1; fill:none" points="210.746,1028.47 229.644,1028.47 "/>
<polyline clip-path="url(#clip060)" style="stroke:#000000; stroke-linecap:round; stroke-linejoin:round; stroke-width:4; stroke-opacity:1; fill:none" points="210.746,832.225 229.644,832.225 "/>
<polyline clip-path="url(#clip060)" style="stroke:#000000; stroke-linecap:round; stroke-linejoin:round; stroke-width:4; stroke-opacity:1; fill:none" points="210.746,635.98 229.644,635.98 "/>
<polyline clip-path="url(#clip060)" style="stroke:#000000; stroke-linecap:round; stroke-linejoin:round; stroke-width:4; stroke-opacity:1; fill:none" points="210.746,439.734 229.644,439.734 "/>
<polyline clip-path="url(#clip060)" style="stroke:#000000; stroke-linecap:round; stroke-linejoin:round; stroke-width:4; stroke-opacity:1; fill:none" points="210.746,243.489 229.644,243.489 "/>
<polyline clip-path="url(#clip060)" style="stroke:#000000; stroke-linecap:round; stroke-linejoin:round; stroke-width:4; stroke-opacity:1; fill:none" points="210.746,47.2441 229.644,47.2441 "/>
<path clip-path="url(#clip060)" d="M114.631 1421.41 L144.306 1421.41 L144.306 1425.35 L114.631 1425.35 L114.631 1421.41 Z" fill="#000000" fill-rule="nonzero" fill-opacity="1" /><path clip-path="url(#clip060)" d="M158.427 1434.31 L174.746 1434.31 L174.746 1438.24 L152.802 1438.24 L152.802 1434.31 Q155.464 1431.55 160.047 1426.92 Q164.653 1422.27 165.834 1420.93 Q168.079 1418.4 168.959 1416.67 Q169.862 1414.91 169.862 1413.22 Q169.862 1410.46 167.917 1408.73 Q165.996 1406.99 162.894 1406.99 Q160.695 1406.99 158.241 1407.75 Q155.811 1408.52 153.033 1410.07 L153.033 1405.35 Q155.857 1404.21 158.311 1403.63 Q160.765 1403.06 162.802 1403.06 Q168.172 1403.06 171.366 1405.74 Q174.561 1408.43 174.561 1412.92 Q174.561 1415.05 173.751 1416.97 Q172.964 1418.87 170.857 1421.46 Q170.278 1422.13 167.177 1425.35 Q164.075 1428.54 158.427 1434.31 Z" fill="#000000" fill-rule="nonzero" fill-opacity="1" /><path clip-path="url(#clip060)" d="M114.26 1225.17 L143.936 1225.17 L143.936 1229.1 L114.26 1229.1 L114.26 1225.17 Z" fill="#000000" fill-rule="nonzero" fill-opacity="1" /><path clip-path="url(#clip060)" d="M154.839 1238.06 L162.477 1238.06 L162.477 1211.69 L154.167 1213.36 L154.167 1209.1 L162.431 1207.44 L167.107 1207.44 L167.107 1238.06 L174.746 1238.06 L174.746 1242 L154.839 1242 L154.839 1238.06 Z" fill="#000000" fill-rule="nonzero" fill-opacity="1" /><path clip-path="url(#clip060)" d="M162.802 1014.27 Q159.19 1014.27 157.362 1017.83 Q155.556 1021.38 155.556 1028.5 Q155.556 1035.61 157.362 1039.18 Q159.19 1042.72 162.802 1042.72 Q166.436 1042.72 168.241 1039.18 Q170.07 1035.61 170.07 1028.5 Q170.07 1021.38 168.241 1017.83 Q166.436 1014.27 162.802 1014.27 M162.802 1010.56 Q168.612 1010.56 171.667 1015.17 Q174.746 1019.75 174.746 1028.5 Q174.746 1037.23 171.667 1041.84 Q168.612 1046.42 162.802 1046.42 Q156.991 1046.42 153.913 1041.84 Q150.857 1037.23 150.857 1028.5 Q150.857 1019.75 153.913 1015.17 Q156.991 1010.56 162.802 1010.56 Z" fill="#000000" fill-rule="nonzero" fill-opacity="1" /><path clip-path="url(#clip060)" d="M154.839 845.57 L162.477 845.57 L162.477 819.204 L154.167 820.871 L154.167 816.611 L162.431 814.945 L167.107 814.945 L167.107 845.57 L174.746 845.57 L174.746 849.505 L154.839 849.505 L154.839 845.57 Z" fill="#000000" fill-rule="nonzero" fill-opacity="1" /><path clip-path="url(#clip060)" d="M158.427 649.324 L174.746 649.324 L174.746 653.26 L152.802 653.26 L152.802 649.324 Q155.464 646.57 160.047 641.94 Q164.653 637.287 165.834 635.945 Q168.079 633.422 168.959 631.686 Q169.862 629.926 169.862 628.237 Q169.862 625.482 167.917 623.746 Q165.996 622.01 162.894 622.01 Q160.695 622.01 158.241 622.774 Q155.811 623.538 153.033 625.088 L153.033 620.366 Q155.857 619.232 158.311 618.653 Q160.765 618.075 162.802 618.075 Q168.172 618.075 171.366 620.76 Q174.561 623.445 174.561 627.936 Q174.561 630.065 173.751 631.987 Q172.964 633.885 170.857 636.477 Q170.278 637.149 167.177 640.366 Q164.075 643.561 158.427 649.324 Z" fill="#000000" fill-rule="nonzero" fill-opacity="1" /><path clip-path="url(#clip060)" d="M167.616 438.38 Q170.973 439.098 172.848 441.366 Q174.746 443.635 174.746 446.968 Q174.746 452.084 171.227 454.885 Q167.709 457.686 161.227 457.686 Q159.052 457.686 156.737 457.246 Q154.445 456.829 151.991 455.973 L151.991 451.459 Q153.936 452.593 156.251 453.172 Q158.565 453.751 161.089 453.751 Q165.487 453.751 167.778 452.014 Q170.093 450.278 170.093 446.968 Q170.093 443.913 167.94 442.2 Q165.811 440.464 161.991 440.464 L157.964 440.464 L157.964 436.621 L162.177 436.621 Q165.626 436.621 167.454 435.255 Q169.283 433.866 169.283 431.274 Q169.283 428.612 167.385 427.2 Q165.51 425.765 161.991 425.765 Q160.07 425.765 157.871 426.181 Q155.672 426.598 153.033 427.478 L153.033 423.311 Q155.695 422.57 158.01 422.2 Q160.348 421.829 162.408 421.829 Q167.732 421.829 170.834 424.26 Q173.936 426.667 173.936 430.788 Q173.936 433.658 172.292 435.649 Q170.649 437.616 167.616 438.38 Z" fill="#000000" fill-rule="nonzero" fill-opacity="1" /><path clip-path="url(#clip060)" d="M165.163 230.283 L153.357 248.732 L165.163 248.732 L165.163 230.283 M163.936 226.209 L169.815 226.209 L169.815 248.732 L174.746 248.732 L174.746 252.621 L169.815 252.621 L169.815 260.769 L165.163 260.769 L165.163 252.621 L149.561 252.621 L149.561 248.107 L163.936 226.209 Z" fill="#000000" fill-rule="nonzero" fill-opacity="1" /><path clip-path="url(#clip060)" d="M153.843 29.9641 L172.2 29.9641 L172.2 33.8993 L158.126 33.8993 L158.126 42.3714 Q159.144 42.0242 160.163 41.8622 Q161.181 41.677 162.2 41.677 Q167.987 41.677 171.366 44.8483 Q174.746 48.0196 174.746 53.4362 Q174.746 59.0149 171.274 62.1167 Q167.802 65.1954 161.482 65.1954 Q159.306 65.1954 157.038 64.825 Q154.792 64.4547 152.385 63.7139 L152.385 59.0149 Q154.468 60.1491 156.69 60.7047 Q158.913 61.2602 161.39 61.2602 Q165.394 61.2602 167.732 59.1538 Q170.07 57.0473 170.07 53.4362 Q170.07 49.8251 167.732 47.7186 Q165.394 45.6122 161.39 45.6122 Q159.515 45.6122 157.64 46.0288 Q155.788 46.4455 153.843 47.3251 L153.843 29.9641 Z" fill="#000000" fill-rule="nonzero" fill-opacity="1" /><path clip-path="url(#clip060)" d="M16.4842 904.974 L16.4842 874.928 L21.895 874.928 L21.895 898.544 L35.9632 898.544 L35.9632 875.914 L41.3741 875.914 L41.3741 898.544 L58.5933 898.544 L58.5933 874.355 L64.0042 874.355 L64.0042 904.974 L16.4842 904.974 Z" fill="#000000" fill-rule="nonzero" fill-opacity="1" /><path clip-path="url(#clip060)" d="M14.479 843.863 L14.479 830.368 L19.0304 830.368 L19.0304 838.006 L68.0464 838.006 L68.0464 830.368 L72.5979 830.368 L72.5979 843.863 L14.479 843.863 Z" fill="#000000" fill-rule="nonzero" fill-opacity="1" /><path clip-path="url(#clip060)" d="M44.7161 787.399 L47.5806 787.399 L47.5806 814.326 Q53.6281 813.944 56.8109 810.698 Q59.9619 807.419 59.9619 801.595 Q59.9619 798.221 59.1344 795.07 Q58.3069 791.887 56.6518 788.768 L62.1899 788.768 Q63.5267 791.919 64.227 795.229 Q64.9272 798.539 64.9272 801.945 Q64.9272 810.475 59.9619 815.472 Q54.9967 820.437 46.5303 820.437 Q37.7774 820.437 32.6531 815.726 Q27.4968 810.984 27.4968 802.963 Q27.4968 795.77 32.1438 791.6 Q36.7589 787.399 44.7161 787.399 M42.9973 793.256 Q38.1912 793.319 35.3266 795.961 Q32.4621 798.571 32.4621 802.9 Q32.4621 807.801 35.2312 810.761 Q38.0002 813.689 43.0292 814.135 L42.9973 793.256 Z" fill="#000000" fill-rule="nonzero" fill-opacity="1" /><path clip-path="url(#clip060)" d="M64.0042 765.278 L16.4842 783.42 L16.4842 776.705 L56.4926 761.65 L16.4842 746.563 L16.4842 739.879 L64.0042 757.989 L64.0042 765.278 Z" fill="#000000" fill-rule="nonzero" fill-opacity="1" /><path clip-path="url(#clip060)" d="M14.479 719.509 L72.5979 719.509 L72.5979 733.004 L68.0464 733.004 L68.0464 725.397 L19.0304 725.397 L19.0304 733.004 L14.479 733.004 L14.479 719.509 Z" fill="#000000" fill-rule="nonzero" fill-opacity="1" /><path clip-path="url(#clip060)" d="M14.5426 672.975 Q21.8632 677.241 29.0246 679.309 Q36.186 681.378 43.5384 681.378 Q50.8908 681.378 58.1159 679.309 Q65.3091 677.209 72.5979 672.975 L72.5979 678.068 Q65.1182 682.842 57.8931 685.229 Q50.668 687.585 43.5384 687.585 Q36.4406 687.585 29.2474 685.229 Q22.0542 682.874 14.5426 678.068 L14.5426 672.975 Z" fill="#000000" fill-rule="nonzero" fill-opacity="1" /><path clip-path="url(#clip060)" d="M44.7161 631.121 L47.5806 631.121 L47.5806 658.048 Q53.6281 657.666 56.8109 654.419 Q59.9619 651.141 59.9619 645.316 Q59.9619 641.943 59.1344 638.792 Q58.3069 635.609 56.6518 632.49 L62.1899 632.49 Q63.5267 635.641 64.227 638.951 Q64.9272 642.261 64.9272 645.667 Q64.9272 654.197 59.9619 659.194 Q54.9967 664.159 46.5303 664.159 Q37.7774 664.159 32.6531 659.448 Q27.4968 654.706 27.4968 646.685 Q27.4968 639.492 32.1438 635.322 Q36.7589 631.121 44.7161 631.121 M42.9973 636.977 Q38.1912 637.041 35.3266 639.683 Q32.4621 642.293 32.4621 646.621 Q32.4621 651.523 35.2312 654.483 Q38.0002 657.411 43.0292 657.857 L42.9973 636.977 Z" fill="#000000" fill-rule="nonzero" fill-opacity="1" /><path clip-path="url(#clip060)" d="M64.0042 609 L16.4842 627.142 L16.4842 620.427 L56.4926 605.372 L16.4842 590.285 L16.4842 583.601 L64.0042 601.711 L64.0042 609 Z" fill="#000000" fill-rule="nonzero" fill-opacity="1" /><path clip-path="url(#clip060)" d="M14.5426 577.84 L14.5426 572.747 Q22.0542 567.973 29.2474 565.618 Q36.4406 563.231 43.5384 563.231 Q50.668 563.231 57.8931 565.618 Q65.1182 567.973 72.5979 572.747 L72.5979 577.84 Q65.3091 573.607 58.1159 571.538 Q50.8908 569.437 43.5384 569.437 Q36.186 569.437 29.0246 571.538 Q21.8632 573.607 14.5426 577.84 Z" fill="#000000" fill-rule="nonzero" fill-opacity="1" /><polyline clip-path="url(#clip062)" style="stroke:#009af9; stroke-linecap:round; stroke-linejoin:round; stroke-width:8; stroke-opacity:1; fill:none" points="210.96,1.96255e+07 221.723,1.77431e+06 232.486,452401 243.249,202137 254.011,113648 264.774,72339.7 275.537,49688 286.3,35872.8 297.062,26779.5 307.825,20438.9 318.588,15813.1 329.351,12313.8 340.114,9588.41 350.876,7416.38 361.639,5655.57 372.402,4212.64 383.165,3026.22 393.928,2056.76 404.69,1280.4 415.453,684.898 426.216,257.407 436.979,-27.1448 447.742,-193.73 458.504,-266.746 469.267,-270.888 480.03,-227.193 490.793,-143.755 501.556,-26.2502 512.318,119.479 523.081,286.204 533.844,464.531 544.607,644.567 555.37,817.861 566.132,979.464 576.895,1124.75 587.658,1250.11 598.421,1352.98 609.183,1431.32 619.946,1484.89 630.709,1513.88 641.472,1519.6 652.235,1503.82 662.997,1469 673.76,1417.95 684.523,1353.78 695.286,1279.72 706.049,1199.03 716.811,1114.87 727.574,1030.24 738.337,947.873 749.1,870.197 759.863,799.284 770.625,736.854 781.388,684.21 792.151,642.283 802.914,611.627 813.677,592.406 824.439,584.468 835.202,587.338 845.965,600.256 856.728,622.243 867.491,652.123 878.253,688.574 889.016,730.192 899.779,775.531 910.542,823.154 921.304,871.682 932.067,919.834 942.83,966.463 953.593,1010.58 964.356,1051.38 975.118,1088.23 985.881,1120.7 996.644,1148.55 1007.41,1171.68 1018.17,1190.14 1028.93,1204.14 1039.7,1213.95 1050.46,1219.93 1061.22,1222.48 1071.98,1222.03 1082.75,1219.02 1093.51,1213.86 1104.27,1206.97 1115.03,1198.71 1125.8,1189.41 1136.56,1179.36 1147.32,1168.82 1158.09,1158 1168.85,1147.1 1179.61,1136.25 1190.37,1125.6 1201.14,1115.26 1211.9,1105.32 1222.66,1095.87 1233.43,1086.99 1244.19,1078.74 1254.95,1071.19 1265.71,1064.39 1276.48,1058.4 1287.24,1053.26 1298,1049.02 1308.77,1045.71 1319.53,1043.35 1330.29,1041.95 1341.05,1041.52 1351.82,1042.06 1362.58,1043.54 1373.34,1045.95 1384.1,1049.24 1394.87,1053.35 1405.63,1058.24 1416.39,1063.84 1427.16,1070.07 1437.92,1076.84 1448.68,1084.08 1459.44,1091.69 1470.21,1099.57 1480.97,1107.63 1491.73,1115.78 1502.5,1123.92 1513.26,1131.97 1524.02,1139.83 1534.78,1147.43 1545.55,1154.68 1556.31,1161.53 1567.07,1167.91 1577.83,1173.76 1588.6,1179.05 1599.36,1183.73 1610.12,1187.77 1620.89,1191.15 1631.65,1193.87 1642.41,1195.91 1653.17,1197.28 1663.94,1197.99 1674.7,1198.05 1685.46,1197.49 1696.23,1196.33 1706.99,1194.62 1717.75,1192.37 1728.51,1189.64 1739.28,1186.46 1750.04,1182.89 1760.8,1178.96 1771.57,1174.72 1782.33,1170.22 1793.09,1165.51 1803.85,1160.63 1814.62,1155.62 1825.38,1150.53 1836.14,1145.39 1846.9,1140.25 1857.67,1135.14 1868.43,1130.08 1879.19,1125.12 1889.96,1120.27 1900.72,1115.55 1911.48,1110.99 1922.24,1106.6 1933.01,1102.4 1943.77,1098.38 1954.53,1094.56 1965.3,1090.94 1976.06,1087.52 1986.82,1084.29 1997.58,1081.26 2008.35,1078.41 2019.11,1075.74 2029.87,1073.23 2040.63,1070.87 2051.4,1068.65 2062.16,1066.56 2072.92,1064.58 2083.69,1062.69 2094.45,1060.89 2105.21,1059.15 2115.97,1057.46 2126.74,1055.82 2137.5,1054.2 2148.26,1052.61 2159.03,1051.02 2169.79,1049.43 2180.55,1047.85 2191.31,1046.26 2202.08,1044.67 2212.84,1043.08 2223.6,1041.5 2234.37,1039.92 2245.13,1038.37 2255.89,1036.86 2266.65,1035.39 2277.42,1034.01 2288.18,1032.72 2298.94,1031.55 2309.7,1030.53 2320.47,1029.68 2331.23,1029.03 2341.99,1028.61 2352.76,1028.47 "/>
<polyline clip-path="url(#clip062)" style="stroke:#e26f46; stroke-linecap:round; stroke-linejoin:round; stroke-width:8; stroke-opacity:1; fill:none" points="210.96,-1.96235e+07 221.723,-2.57837e+06 232.486,-656460 243.249,-293031 254.011,-164866 264.774,-105311 275.537,-72884.2 286.3,-53303.1 297.062,-40582.3 307.825,-31856.1 318.588,-25612.6 329.351,-20992.9 340.114,-17479.5 350.876,-14745.8 361.639,-12577 372.402,-10827.3 383.165,-9394.9 393.928,-8206.56 404.69,-7208.75 415.453,-6361.35 426.216,-5634.15 436.979,-5004.62 447.742,-4455.42 458.504,-3973.11 469.267,-3547.22 480.03,-3169.36 490.793,-2832.35 501.556,-2530.24 512.318,-2258.2 523.081,-2012.29 533.844,-1789.34 544.607,-1586.77 555.37,-1402.38 566.132,-1234.19 576.895,-1080.53 587.658,-939.908 598.421,-811.033 609.183,-692.757 619.946,-584.008 630.709,-483.831 641.472,-391.335 652.235,-305.712 662.997,-226.206 673.76,-152.124 684.523,-82.8257 695.286,-17.7242 706.049,43.7155 716.811,101.977 727.574,157.495 738.337,210.65 749.1,261.775 759.863,311.151 770.625,359.014 781.388,405.546 792.151,450.889 802.914,495.14 813.677,538.356 824.439,580.56 835.202,621.745 845.965,661.877 856.728,700.901 867.491,738.749 878.253,775.339 889.016,810.584 899.779,844.395 910.542,876.682 921.304,907.359 932.067,936.347 942.83,963.574 953.593,988.977 964.356,1012.5 975.118,1034.12 985.881,1053.79 996.644,1071.51 1007.41,1087.28 1018.17,1101.13 1028.93,1113.09 1039.7,1123.22 1050.46,1131.58 1061.22,1138.26 1071.98,1143.36 1082.75,1147 1093.51,1149.3 1104.27,1150.39 1115.03,1150.43 1125.8,1149.54 1136.56,1147.9 1147.32,1145.64 1158.09,1142.91 1168.85,1139.86 1179.61,1136.63 1190.37,1133.34 1201.14,1130.11 1211.9,1127.05 1222.66,1124.26 1233.43,1121.81 1244.19,1119.77 1254.95,1118.19 1265.71,1117.11 1276.48,1116.56 1287.24,1116.55 1298,1117.08 1308.77,1118.15 1319.53,1119.73 1330.29,1121.79 1341.05,1124.31 1351.82,1127.25 1362.58,1130.55 1373.34,1134.18 1384.1,1138.09 1394.87,1142.23 1405.63,1146.54 1416.39,1150.98 1427.16,1155.49 1437.92,1160.04 1448.68,1164.57 1459.44,1169.04 1470.21,1173.42 1480.97,1177.66 1491.73,1181.72 1502.5,1185.58 1513.26,1189.2 1524.02,1192.56 1534.78,1195.63 1545.55,1198.38 1556.31,1200.8 1567.07,1202.87 1577.83,1204.58 1588.6,1205.91 1599.36,1206.86 1610.12,1207.42 1620.89,1207.59 1631.65,1207.36 1642.41,1206.73 1653.17,1205.72 1663.94,1204.33 1674.7,1202.56 1685.46,1200.44 1696.23,1197.96 1706.99,1195.16 1717.75,1192.04 1728.51,1188.62 1739.28,1184.94 1750.04,1181 1760.8,1176.84 1771.57,1172.48 1782.33,1167.94 1793.09,1163.25 1803.85,1158.43 1814.62,1153.51 1825.38,1148.53 1836.14,1143.49 1846.9,1138.43 1857.67,1133.37 1868.43,1128.34 1879.19,1123.35 1889.96,1118.42 1900.72,1113.58 1911.48,1108.85 1922.24,1104.23 1933.01,1099.73 1943.77,1095.39 1954.53,1091.19 1965.3,1087.16 1976.06,1083.29 1986.82,1079.6 1997.58,1076.09 2008.35,1072.75 2019.11,1069.59 2029.87,1066.6 2040.63,1063.79 2051.4,1061.14 2062.16,1058.66 2072.92,1056.33 2083.69,1054.15 2094.45,1052.11 2105.21,1050.21 2115.97,1048.42 2126.74,1046.76 2137.5,1045.2 2148.26,1043.73 2159.03,1042.36 2169.79,1041.06 2180.55,1039.83 2191.31,1038.67 2202.08,1037.58 2212.84,1036.53 2223.6,1035.54 2234.37,1034.6 2245.13,1033.71 2255.89,1032.86 2266.65,1032.06 2277.42,1031.33 2288.18,1030.65 2298.94,1030.05 2309.7,1029.53 2320.47,1029.09 2331.23,1028.76 2341.99,1028.55 2352.76,1028.47 "/>
<polyline clip-path="url(#clip062)" style="stroke:#3da44d; stroke-linecap:round; stroke-linejoin:round; stroke-width:8; stroke-opacity:1; fill:none" points="210.96,-1.96235e+07 221.723,-3.86121e+06 232.486,-983411 243.249,-439203 254.011,-247269 264.774,-158069 275.537,-109490 286.3,-80145 297.062,-61072.7 307.825,-47982.1 318.588,-38609.5 329.351,-31668.9 340.114,-26385.8 350.876,-22271.2 361.639,-19004 372.402,-16366.1 383.165,-14205.7 393.928,-12413.7 404.69,-10910.9 415.453,-9637.97 426.216,-8550.24 436.979,-7613.32 447.742,-6800.47 458.504,-6090.63 469.267,-5467.03 480.03,-4916.18 490.793,-4427.09 501.556,-3990.79 512.318,-3599.84 523.081,-3248.08 533.844,-2930.33 544.607,-2642.22 555.37,-2380.06 566.132,-2140.68 576.895,-1921.35 587.658,-1719.74 598.421,-1533.8 609.183,-1361.76 619.946,-1202.08 630.709,-1053.38 641.472,-914.469 652.235,-784.298 662.997,-661.937 673.76,-546.57 684.523,-437.484 695.286,-334.058 706.049,-235.755 716.811,-142.117 727.574,-52.7618 738.337,32.6278 749.1,114.304 759.863,192.462 770.625,267.247 781.388,338.757 792.151,407.054 802.914,472.173 813.677,534.124 824.439,592.907 835.202,648.513 845.965,700.937 856.728,750.178 867.491,796.246 878.253,839.164 889.016,878.969 899.779,915.715 910.542,949.464 921.304,980.295 932.067,1008.29 942.83,1033.56 953.593,1056.18 964.356,1076.27 975.118,1093.94 985.881,1109.3 996.644,1122.46 1007.41,1133.53 1018.17,1142.64 1028.93,1149.91 1039.7,1155.47 1050.46,1159.45 1061.22,1161.98 1071.98,1163.2 1082.75,1163.26 1093.51,1162.29 1104.27,1160.44 1115.03,1157.86 1125.8,1154.68 1136.56,1151.03 1147.32,1147.06 1158.09,1142.88 1168.85,1138.62 1179.61,1134.38 1190.37,1130.26 1201.14,1126.35 1211.9,1122.74 1222.66,1119.49 1233.43,1116.65 1244.19,1114.28 1254.95,1112.4 1265.71,1111.05 1276.48,1110.23 1287.24,1109.95 1298,1110.21 1308.77,1110.98 1319.53,1112.26 1330.29,1114.01 1341.05,1116.21 1351.82,1118.81 1362.58,1121.78 1373.34,1125.07 1384.1,1128.63 1394.87,1132.44 1405.63,1136.43 1416.39,1140.56 1427.16,1144.79 1437.92,1149.07 1448.68,1153.36 1459.44,1157.63 1470.21,1161.84 1480.97,1165.94 1491.73,1169.91 1502.5,1173.71 1513.26,1177.33 1524.02,1180.73 1534.78,1183.89 1545.55,1186.79 1556.31,1189.42 1567.07,1191.75 1577.83,1193.77 1588.6,1195.48 1599.36,1196.87 1610.12,1197.92 1620.89,1198.64 1631.65,1199.02 1642.41,1199.05 1653.17,1198.75 1663.94,1198.12 1674.7,1197.16 1685.46,1195.87 1696.23,1194.27 1706.99,1192.37 1717.75,1190.17 1728.51,1187.7 1739.28,1184.96 1750.04,1181.97 1760.8,1178.75 1771.57,1175.31 1782.33,1171.68 1793.09,1167.87 1803.85,1163.9 1814.62,1159.78 1825.38,1155.55 1836.14,1151.21 1846.9,1146.8 1857.67,1142.32 1868.43,1137.8 1879.19,1133.25 1889.96,1128.7 1900.72,1124.16 1911.48,1119.64 1922.24,1115.16 1933.01,1110.74 1943.77,1106.39 1954.53,1102.12 1965.3,1097.94 1976.06,1093.86 1986.82,1089.89 1997.58,1086.04 2008.35,1082.31 2019.11,1078.72 2029.87,1075.26 2040.63,1071.93 2051.4,1068.74 2062.16,1065.7 2072.92,1062.79 2083.69,1060.03 2094.45,1057.4 2105.21,1054.91 2115.97,1052.55 2126.74,1050.33 2137.5,1048.23 2148.26,1046.26 2159.03,1044.41 2169.79,1042.68 2180.55,1041.06 2191.31,1039.55 2202.08,1038.14 2212.84,1036.84 2223.6,1035.63 2234.37,1034.52 2245.13,1033.51 2255.89,1032.58 2266.65,1031.75 2277.42,1031.01 2288.18,1030.36 2298.94,1029.8 2309.7,1029.33 2320.47,1028.96 2331.23,1028.69 2341.99,1028.53 2352.76,1028.47 "/>
<polyline clip-path="url(#clip062)" style="stroke:#c271d2; stroke-linecap:round; stroke-linejoin:round; stroke-width:8; stroke-opacity:1; fill:none" points="210.96,1028.47 221.723,1028.47 232.486,1028.47 243.249,1028.47 254.011,1028.47 264.774,1028.47 275.537,1028.47 286.3,1028.47 297.062,1028.47 307.825,1028.47 318.588,1028.47 329.351,1028.47 340.114,1028.47 350.876,1028.47 361.639,1028.47 372.402,1028.47 383.165,1028.47 393.928,1028.47 404.69,1028.47 415.453,1028.47 426.216,1028.47 436.979,1028.47 447.742,1028.47 458.504,1028.47 469.267,1028.47 480.03,1028.47 490.793,1028.47 501.556,1028.47 512.318,1028.47 523.081,1028.47 533.844,1028.47 544.607,1028.47 555.37,1028.47 566.132,1028.47 576.895,1028.47 587.658,1028.47 598.421,1028.47 609.183,1028.47 619.946,1028.47 630.709,1028.47 641.472,1028.47 652.235,1028.47 662.997,1028.47 673.76,1028.47 684.523,1028.47 695.286,1028.47 706.049,1028.47 716.811,1028.47 727.574,1028.47 738.337,1028.47 749.1,1028.47 759.863,1028.47 770.625,1028.47 781.388,1028.47 792.151,1028.47 802.914,1028.47 813.677,1028.47 824.439,1028.47 835.202,1028.47 845.965,1028.47 856.728,1028.47 867.491,1028.47 878.253,1028.47 889.016,1028.47 899.779,1028.47 910.542,1028.47 921.304,1028.47 932.067,1028.47 942.83,1028.47 953.593,1028.47 964.356,1028.47 975.118,1028.47 985.881,1028.47 996.644,1028.47 1007.41,1028.47 1018.17,1028.47 1028.93,1028.47 1039.7,1028.47 1050.46,1028.47 1061.22,1028.47 1071.98,1028.47 1082.75,1028.47 1093.51,1028.47 1104.27,1028.47 1115.03,1028.47 1125.8,1028.47 1136.56,1028.47 1147.32,1028.47 1158.09,1028.47 1168.85,1028.47 1179.61,1028.47 1190.37,1028.47 1201.14,1028.47 1211.9,1028.47 1222.66,1028.47 1233.43,1028.47 1244.19,1028.47 1254.95,1028.47 1265.71,1028.47 1276.48,1028.47 1287.24,1028.47 1298,1028.47 1308.77,1028.47 1319.53,1028.47 1330.29,1028.47 1341.05,1028.47 1351.82,1028.47 1362.58,1028.47 1373.34,1028.47 1384.1,1028.47 1394.87,1028.47 1405.63,1028.47 1416.39,1028.47 1427.16,1028.47 1437.92,1028.47 1448.68,1028.47 1459.44,1028.47 1470.21,1028.47 1480.97,1028.47 1491.73,1028.47 1502.5,1028.47 1513.26,1028.47 1524.02,1028.47 1534.78,1028.47 1545.55,1028.47 1556.31,1028.47 1567.07,1028.47 1577.83,1028.47 1588.6,1028.47 1599.36,1028.47 1610.12,1028.47 1620.89,1028.47 1631.65,1028.47 1642.41,1028.47 1653.17,1028.47 1663.94,1028.47 1674.7,1028.47 1685.46,1028.47 1696.23,1028.47 1706.99,1028.47 1717.75,1028.47 1728.51,1028.47 1739.28,1028.47 1750.04,1028.47 1760.8,1028.47 1771.57,1028.47 1782.33,1028.47 1793.09,1028.47 1803.85,1028.47 1814.62,1028.47 1825.38,1028.47 1836.14,1028.47 1846.9,1028.47 1857.67,1028.47 1868.43,1028.47 1879.19,1028.47 1889.96,1028.47 1900.72,1028.47 1911.48,1028.47 1922.24,1028.47 1933.01,1028.47 1943.77,1028.47 1954.53,1028.47 1965.3,1028.47 1976.06,1028.47 1986.82,1028.47 1997.58,1028.47 2008.35,1028.47 2019.11,1028.47 2029.87,1028.47 2040.63,1028.47 2051.4,1028.47 2062.16,1028.47 2072.92,1028.47 2083.69,1028.47 2094.45,1028.47 2105.21,1028.47 2115.97,1028.47 2126.74,1028.47 2137.5,1028.47 2148.26,1028.47 2159.03,1028.47 2169.79,1028.47 2180.55,1028.47 2191.31,1028.47 2202.08,1028.47 2212.84,1028.47 2223.6,1028.47 2234.37,1028.47 2245.13,1028.47 2255.89,1028.47 2266.65,1028.47 2277.42,1028.47 2288.18,1028.47 2298.94,1028.47 2309.7,1028.47 2320.47,1028.47 2331.23,1028.47 2341.99,1028.47 2352.76,1028.47 "/>
<polyline clip-path="url(#clip062)" style="stroke:#ac8d18; stroke-linecap:round; stroke-linejoin:round; stroke-width:8; stroke-opacity:1; fill:none" stroke-dasharray="32, 20" points="1031.85,2794.68 1031.85,-1326.47 "/>
<path clip-path="url(#clip060)" d="M1781.72 404.075 L2281.36 404.075 L2281.36 93.0346 L1781.72 93.0346  Z" fill="#ffffff" fill-rule="evenodd" fill-opacity="1"/>
<polyline clip-path="url(#clip060)" style="stroke:#000000; stroke-linecap:round; stroke-linejoin:round; stroke-width:4; stroke-opacity:1; fill:none" points="1781.72,404.075 2281.36,404.075 2281.36,93.0346 1781.72,93.0346 1781.72,404.075 "/>
<polyline clip-path="url(#clip060)" style="stroke:#009af9; stroke-linecap:round; stroke-linejoin:round; stroke-width:8; stroke-opacity:1; fill:none" points="1805.52,144.875 1948.32,144.875 "/>
<path clip-path="url(#clip060)" d="M1972.12 127.595 L1976.79 127.595 L1976.79 162.155 L1972.12 162.155 L1972.12 127.595 Z" fill="#000000" fill-rule="nonzero" fill-opacity="1" /><path clip-path="url(#clip060)" d="M2002.97 140.164 L2002.97 126.136 L2007.23 126.136 L2007.23 162.155 L2002.97 162.155 L2002.97 158.266 Q2001.63 160.581 1999.57 161.715 Q1997.53 162.826 1994.66 162.826 Q1989.96 162.826 1987 159.076 Q1984.06 155.326 1984.06 149.215 Q1984.06 143.104 1987 139.354 Q1989.96 135.604 1994.66 135.604 Q1997.53 135.604 1999.57 136.738 Q2001.63 137.849 2002.97 140.164 M1988.46 149.215 Q1988.46 153.914 1990.38 156.599 Q1992.33 159.261 1995.71 159.261 Q1999.08 159.261 2001.03 156.599 Q2002.97 153.914 2002.97 149.215 Q2002.97 144.516 2001.03 141.854 Q1999.08 139.169 1995.71 139.169 Q1992.33 139.169 1990.38 141.854 Q1988.46 144.516 1988.46 149.215 Z" fill="#000000" fill-rule="nonzero" fill-opacity="1" /><polyline clip-path="url(#clip060)" style="stroke:#e26f46; stroke-linecap:round; stroke-linejoin:round; stroke-width:8; stroke-opacity:1; fill:none" points="1805.52,196.715 1948.32,196.715 "/>
<path clip-path="url(#clip060)" d="M1987.95 184.041 L1981.61 201.24 L1994.32 201.24 L1987.95 184.041 M1985.31 179.435 L1990.61 179.435 L2003.78 213.995 L1998.92 213.995 L1995.77 205.129 L1980.2 205.129 L1977.05 213.995 L1972.12 213.995 L1985.31 179.435 Z" fill="#000000" fill-rule="nonzero" fill-opacity="1" /><path clip-path="url(#clip060)" d="M2008.64 177.976 L2012.9 177.976 L2012.9 213.995 L2008.64 213.995 L2008.64 177.976 Z" fill="#000000" fill-rule="nonzero" fill-opacity="1" /><path clip-path="url(#clip060)" d="M2038.88 200.731 Q2038.88 196.101 2036.95 193.555 Q2035.06 191.009 2031.61 191.009 Q2028.18 191.009 2026.26 193.555 Q2024.36 196.101 2024.36 200.731 Q2024.36 205.337 2026.26 207.884 Q2028.18 210.43 2031.61 210.43 Q2035.06 210.43 2036.95 207.884 Q2038.88 205.337 2038.88 200.731 M2043.14 210.777 Q2043.14 217.397 2040.2 220.615 Q2037.26 223.856 2031.19 223.856 Q2028.95 223.856 2026.95 223.508 Q2024.96 223.184 2023.09 222.49 L2023.09 218.346 Q2024.96 219.365 2026.79 219.851 Q2028.62 220.337 2030.52 220.337 Q2034.71 220.337 2036.79 218.138 Q2038.88 215.962 2038.88 211.541 L2038.88 209.434 Q2037.56 211.726 2035.5 212.86 Q2033.44 213.995 2030.57 213.995 Q2025.8 213.995 2022.88 210.36 Q2019.96 206.726 2019.96 200.731 Q2019.96 194.712 2022.88 191.078 Q2025.8 187.444 2030.57 187.444 Q2033.44 187.444 2035.5 188.578 Q2037.56 189.712 2038.88 192.004 L2038.88 188.069 L2043.14 188.069 L2043.14 210.777 Z" fill="#000000" fill-rule="nonzero" fill-opacity="1" /><path clip-path="url(#clip060)" d="M2074.08 199.967 L2074.08 202.05 L2054.5 202.05 Q2054.78 206.448 2057.14 208.763 Q2059.52 211.055 2063.76 211.055 Q2066.21 211.055 2068.51 210.453 Q2070.82 209.851 2073.09 208.647 L2073.09 212.675 Q2070.8 213.647 2068.39 214.157 Q2065.98 214.666 2063.51 214.666 Q2057.3 214.666 2053.67 211.055 Q2050.06 207.444 2050.06 201.286 Q2050.06 194.921 2053.48 191.194 Q2056.93 187.444 2062.76 187.444 Q2068 187.444 2071.03 190.823 Q2074.08 194.18 2074.08 199.967 M2069.82 198.717 Q2069.78 195.222 2067.86 193.138 Q2065.96 191.055 2062.81 191.055 Q2059.25 191.055 2057.09 193.069 Q2054.96 195.083 2054.64 198.74 L2069.82 198.717 Z" fill="#000000" fill-rule="nonzero" fill-opacity="1" /><path clip-path="url(#clip060)" d="M2099.69 201.055 Q2099.69 196.356 2097.74 193.694 Q2095.82 191.009 2092.44 191.009 Q2089.06 191.009 2087.12 193.694 Q2085.2 196.356 2085.2 201.055 Q2085.2 205.754 2087.12 208.439 Q2089.06 211.101 2092.44 211.101 Q2095.82 211.101 2097.74 208.439 Q2099.69 205.754 2099.69 201.055 M2085.2 192.004 Q2086.54 189.689 2088.57 188.578 Q2090.64 187.444 2093.48 187.444 Q2098.2 187.444 2101.14 191.194 Q2104.11 194.944 2104.11 201.055 Q2104.11 207.166 2101.14 210.916 Q2098.2 214.666 2093.48 214.666 Q2090.64 214.666 2088.57 213.555 Q2086.54 212.421 2085.2 210.106 L2085.2 213.995 L2080.91 213.995 L2080.91 177.976 L2085.2 177.976 L2085.2 192.004 Z" fill="#000000" fill-rule="nonzero" fill-opacity="1" /><path clip-path="url(#clip060)" d="M2126.19 192.05 Q2125.47 191.634 2124.62 191.448 Q2123.78 191.24 2122.76 191.24 Q2119.15 191.24 2117.21 193.601 Q2115.29 195.939 2115.29 200.337 L2115.29 213.995 L2111.01 213.995 L2111.01 188.069 L2115.29 188.069 L2115.29 192.097 Q2116.63 189.736 2118.78 188.601 Q2120.94 187.444 2124.01 187.444 Q2124.45 187.444 2124.99 187.513 Q2125.52 187.56 2126.17 187.675 L2126.19 192.05 Z" fill="#000000" fill-rule="nonzero" fill-opacity="1" /><path clip-path="url(#clip060)" d="M2142.44 200.962 Q2137.28 200.962 2135.29 202.143 Q2133.3 203.323 2133.3 206.171 Q2133.3 208.439 2134.78 209.782 Q2136.28 211.101 2138.85 211.101 Q2142.39 211.101 2144.52 208.601 Q2146.68 206.078 2146.68 201.911 L2146.68 200.962 L2142.44 200.962 M2150.94 199.203 L2150.94 213.995 L2146.68 213.995 L2146.68 210.059 Q2145.22 212.421 2143.04 213.555 Q2140.87 214.666 2137.72 214.666 Q2133.74 214.666 2131.38 212.444 Q2129.04 210.198 2129.04 206.448 Q2129.04 202.073 2131.95 199.851 Q2134.89 197.629 2140.7 197.629 L2146.68 197.629 L2146.68 197.212 Q2146.68 194.273 2144.73 192.675 Q2142.81 191.055 2139.32 191.055 Q2137.09 191.055 2134.99 191.587 Q2132.88 192.12 2130.94 193.185 L2130.94 189.249 Q2133.27 188.347 2135.47 187.907 Q2137.67 187.444 2139.76 187.444 Q2145.38 187.444 2148.16 190.361 Q2150.94 193.277 2150.94 199.203 Z" fill="#000000" fill-rule="nonzero" fill-opacity="1" /><path clip-path="url(#clip060)" d="M2159.71 188.069 L2163.97 188.069 L2163.97 213.995 L2159.71 213.995 L2159.71 188.069 M2159.71 177.976 L2163.97 177.976 L2163.97 183.37 L2159.71 183.37 L2159.71 177.976 Z" fill="#000000" fill-rule="nonzero" fill-opacity="1" /><path clip-path="url(#clip060)" d="M2191.54 189.064 L2191.54 193.046 Q2189.73 192.05 2187.9 191.564 Q2186.1 191.055 2184.25 191.055 Q2180.1 191.055 2177.81 193.694 Q2175.52 196.31 2175.52 201.055 Q2175.52 205.8 2177.81 208.439 Q2180.1 211.055 2184.25 211.055 Q2186.1 211.055 2187.9 210.569 Q2189.73 210.059 2191.54 209.064 L2191.54 212.999 Q2189.75 213.833 2187.83 214.249 Q2185.94 214.666 2183.78 214.666 Q2177.93 214.666 2174.48 210.985 Q2171.03 207.305 2171.03 201.055 Q2171.03 194.712 2174.5 191.078 Q2178 187.444 2184.06 187.444 Q2186.03 187.444 2187.9 187.861 Q2189.78 188.254 2191.54 189.064 Z" fill="#000000" fill-rule="nonzero" fill-opacity="1" /><path clip-path="url(#clip060)" d="M2209.18 178.023 Q2206.07 183.347 2204.57 188.555 Q2203.07 193.763 2203.07 199.11 Q2203.07 204.458 2204.57 209.712 Q2206.1 214.944 2209.18 220.245 L2205.47 220.245 Q2202 214.805 2200.26 209.55 Q2198.55 204.296 2198.55 199.11 Q2198.55 193.948 2200.26 188.717 Q2201.98 183.486 2205.47 178.023 L2209.18 178.023 Z" fill="#000000" fill-rule="nonzero" fill-opacity="1" /><path clip-path="url(#clip060)" d="M2222.07 210.059 L2238.39 210.059 L2238.39 213.995 L2216.44 213.995 L2216.44 210.059 Q2219.11 207.305 2223.69 202.675 Q2228.3 198.022 2229.48 196.68 Q2231.72 194.157 2232.6 192.421 Q2233.5 190.661 2233.5 188.972 Q2233.5 186.217 2231.56 184.481 Q2229.64 182.745 2226.54 182.745 Q2224.34 182.745 2221.88 183.509 Q2219.45 184.273 2216.68 185.823 L2216.68 181.101 Q2219.5 179.967 2221.95 179.388 Q2224.41 178.81 2226.44 178.81 Q2231.81 178.81 2235.01 181.495 Q2238.2 184.18 2238.2 188.671 Q2238.2 190.8 2237.39 192.722 Q2236.61 194.62 2234.5 197.212 Q2233.92 197.884 2230.82 201.101 Q2227.72 204.296 2222.07 210.059 Z" fill="#000000" fill-rule="nonzero" fill-opacity="1" /><path clip-path="url(#clip060)" d="M2246.93 178.023 L2250.63 178.023 Q2254.11 183.486 2255.82 188.717 Q2257.56 193.948 2257.56 199.11 Q2257.56 204.296 2255.82 209.55 Q2254.11 214.805 2250.63 220.245 L2246.93 220.245 Q2250.01 214.944 2251.51 209.712 Q2253.04 204.458 2253.04 199.11 Q2253.04 193.763 2251.51 188.555 Q2250.01 183.347 2246.93 178.023 Z" fill="#000000" fill-rule="nonzero" fill-opacity="1" /><polyline clip-path="url(#clip060)" style="stroke:#3da44d; stroke-linecap:round; stroke-linejoin:round; stroke-width:8; stroke-opacity:1; fill:none" points="1805.52,248.555 1948.32,248.555 "/>
<path clip-path="url(#clip060)" d="M1987.95 235.881 L1981.61 253.08 L1994.32 253.08 L1987.95 235.881 M1985.31 231.275 L1990.61 231.275 L2003.78 265.835 L1998.92 265.835 L1995.77 256.969 L1980.2 256.969 L1977.05 265.835 L1972.12 265.835 L1985.31 231.275 Z" fill="#000000" fill-rule="nonzero" fill-opacity="1" /><path clip-path="url(#clip060)" d="M2008.64 229.816 L2012.9 229.816 L2012.9 265.835 L2008.64 265.835 L2008.64 229.816 Z" fill="#000000" fill-rule="nonzero" fill-opacity="1" /><path clip-path="url(#clip060)" d="M2038.88 252.571 Q2038.88 247.941 2036.95 245.395 Q2035.06 242.849 2031.61 242.849 Q2028.18 242.849 2026.26 245.395 Q2024.36 247.941 2024.36 252.571 Q2024.36 257.177 2026.26 259.724 Q2028.18 262.27 2031.61 262.27 Q2035.06 262.27 2036.95 259.724 Q2038.88 257.177 2038.88 252.571 M2043.14 262.617 Q2043.14 269.237 2040.2 272.455 Q2037.26 275.696 2031.19 275.696 Q2028.95 275.696 2026.95 275.348 Q2024.96 275.024 2023.09 274.33 L2023.09 270.186 Q2024.96 271.205 2026.79 271.691 Q2028.62 272.177 2030.52 272.177 Q2034.71 272.177 2036.79 269.978 Q2038.88 267.802 2038.88 263.381 L2038.88 261.274 Q2037.56 263.566 2035.5 264.7 Q2033.44 265.835 2030.57 265.835 Q2025.8 265.835 2022.88 262.2 Q2019.96 258.566 2019.96 252.571 Q2019.96 246.552 2022.88 242.918 Q2025.8 239.284 2030.57 239.284 Q2033.44 239.284 2035.5 240.418 Q2037.56 241.552 2038.88 243.844 L2038.88 239.909 L2043.14 239.909 L2043.14 262.617 Z" fill="#000000" fill-rule="nonzero" fill-opacity="1" /><path clip-path="url(#clip060)" d="M2074.08 251.807 L2074.08 253.89 L2054.5 253.89 Q2054.78 258.288 2057.14 260.603 Q2059.52 262.895 2063.76 262.895 Q2066.21 262.895 2068.51 262.293 Q2070.82 261.691 2073.09 260.487 L2073.09 264.515 Q2070.8 265.487 2068.39 265.997 Q2065.98 266.506 2063.51 266.506 Q2057.3 266.506 2053.67 262.895 Q2050.06 259.284 2050.06 253.126 Q2050.06 246.761 2053.48 243.034 Q2056.93 239.284 2062.76 239.284 Q2068 239.284 2071.03 242.663 Q2074.08 246.02 2074.08 251.807 M2069.82 250.557 Q2069.78 247.062 2067.86 244.978 Q2065.96 242.895 2062.81 242.895 Q2059.25 242.895 2057.09 244.909 Q2054.96 246.923 2054.64 250.58 L2069.82 250.557 Z" fill="#000000" fill-rule="nonzero" fill-opacity="1" /><path clip-path="url(#clip060)" d="M2099.69 252.895 Q2099.69 248.196 2097.74 245.534 Q2095.82 242.849 2092.44 242.849 Q2089.06 242.849 2087.12 245.534 Q2085.2 248.196 2085.2 252.895 Q2085.2 257.594 2087.12 260.279 Q2089.06 262.941 2092.44 262.941 Q2095.82 262.941 2097.74 260.279 Q2099.69 257.594 2099.69 252.895 M2085.2 243.844 Q2086.54 241.529 2088.57 240.418 Q2090.64 239.284 2093.48 239.284 Q2098.2 239.284 2101.14 243.034 Q2104.11 246.784 2104.11 252.895 Q2104.11 259.006 2101.14 262.756 Q2098.2 266.506 2093.48 266.506 Q2090.64 266.506 2088.57 265.395 Q2086.54 264.261 2085.2 261.946 L2085.2 265.835 L2080.91 265.835 L2080.91 229.816 L2085.2 229.816 L2085.2 243.844 Z" fill="#000000" fill-rule="nonzero" fill-opacity="1" /><path clip-path="url(#clip060)" d="M2126.19 243.89 Q2125.47 243.474 2124.62 243.288 Q2123.78 243.08 2122.76 243.08 Q2119.15 243.08 2117.21 245.441 Q2115.29 247.779 2115.29 252.177 L2115.29 265.835 L2111.01 265.835 L2111.01 239.909 L2115.29 239.909 L2115.29 243.937 Q2116.63 241.576 2118.78 240.441 Q2120.94 239.284 2124.01 239.284 Q2124.45 239.284 2124.99 239.353 Q2125.52 239.4 2126.17 239.515 L2126.19 243.89 Z" fill="#000000" fill-rule="nonzero" fill-opacity="1" /><path clip-path="url(#clip060)" d="M2142.44 252.802 Q2137.28 252.802 2135.29 253.983 Q2133.3 255.163 2133.3 258.011 Q2133.3 260.279 2134.78 261.622 Q2136.28 262.941 2138.85 262.941 Q2142.39 262.941 2144.52 260.441 Q2146.68 257.918 2146.68 253.751 L2146.68 252.802 L2142.44 252.802 M2150.94 251.043 L2150.94 265.835 L2146.68 265.835 L2146.68 261.899 Q2145.22 264.261 2143.04 265.395 Q2140.87 266.506 2137.72 266.506 Q2133.74 266.506 2131.38 264.284 Q2129.04 262.038 2129.04 258.288 Q2129.04 253.913 2131.95 251.691 Q2134.89 249.469 2140.7 249.469 L2146.68 249.469 L2146.68 249.052 Q2146.68 246.113 2144.73 244.515 Q2142.81 242.895 2139.32 242.895 Q2137.09 242.895 2134.99 243.427 Q2132.88 243.96 2130.94 245.025 L2130.94 241.089 Q2133.27 240.187 2135.47 239.747 Q2137.67 239.284 2139.76 239.284 Q2145.38 239.284 2148.16 242.201 Q2150.94 245.117 2150.94 251.043 Z" fill="#000000" fill-rule="nonzero" fill-opacity="1" /><path clip-path="url(#clip060)" d="M2159.71 239.909 L2163.97 239.909 L2163.97 265.835 L2159.71 265.835 L2159.71 239.909 M2159.71 229.816 L2163.97 229.816 L2163.97 235.21 L2159.71 235.21 L2159.71 229.816 Z" fill="#000000" fill-rule="nonzero" fill-opacity="1" /><path clip-path="url(#clip060)" d="M2191.54 240.904 L2191.54 244.886 Q2189.73 243.89 2187.9 243.404 Q2186.1 242.895 2184.25 242.895 Q2180.1 242.895 2177.81 245.534 Q2175.52 248.15 2175.52 252.895 Q2175.52 257.64 2177.81 260.279 Q2180.1 262.895 2184.25 262.895 Q2186.1 262.895 2187.9 262.409 Q2189.73 261.899 2191.54 260.904 L2191.54 264.839 Q2189.75 265.673 2187.83 266.089 Q2185.94 266.506 2183.78 266.506 Q2177.93 266.506 2174.48 262.825 Q2171.03 259.145 2171.03 252.895 Q2171.03 246.552 2174.5 242.918 Q2178 239.284 2184.06 239.284 Q2186.03 239.284 2187.9 239.701 Q2189.78 240.094 2191.54 240.904 Z" fill="#000000" fill-rule="nonzero" fill-opacity="1" /><path clip-path="url(#clip060)" d="M2209.18 229.863 Q2206.07 235.187 2204.57 240.395 Q2203.07 245.603 2203.07 250.95 Q2203.07 256.298 2204.57 261.552 Q2206.1 266.784 2209.18 272.085 L2205.47 272.085 Q2202 266.645 2200.26 261.39 Q2198.55 256.136 2198.55 250.95 Q2198.55 245.788 2200.26 240.557 Q2201.98 235.326 2205.47 229.863 L2209.18 229.863 Z" fill="#000000" fill-rule="nonzero" fill-opacity="1" /><path clip-path="url(#clip060)" d="M2230.89 235.349 L2219.08 253.798 L2230.89 253.798 L2230.89 235.349 M2229.66 231.275 L2235.54 231.275 L2235.54 253.798 L2240.47 253.798 L2240.47 257.687 L2235.54 257.687 L2235.54 265.835 L2230.89 265.835 L2230.89 257.687 L2215.29 257.687 L2215.29 253.173 L2229.66 231.275 Z" fill="#000000" fill-rule="nonzero" fill-opacity="1" /><path clip-path="url(#clip060)" d="M2246.93 229.863 L2250.63 229.863 Q2254.11 235.326 2255.82 240.557 Q2257.56 245.788 2257.56 250.95 Q2257.56 256.136 2255.82 261.39 Q2254.11 266.645 2250.63 272.085 L2246.93 272.085 Q2250.01 266.784 2251.51 261.552 Q2253.04 256.298 2253.04 250.95 Q2253.04 245.603 2251.51 240.395 Q2250.01 235.187 2246.93 229.863 Z" fill="#000000" fill-rule="nonzero" fill-opacity="1" /><polyline clip-path="url(#clip060)" style="stroke:#c271d2; stroke-linecap:round; stroke-linejoin:round; stroke-width:8; stroke-opacity:1; fill:none" points="1805.52,300.395 1948.32,300.395 "/>
<path clip-path="url(#clip060)" d="M1997.67 312.744 L1997.67 303.462 L1990.03 303.462 L1990.03 299.619 L2002.3 299.619 L2002.3 314.457 Q1999.59 316.378 1996.33 317.374 Q1993.07 318.346 1989.36 318.346 Q1981.26 318.346 1976.68 313.624 Q1972.12 308.878 1972.12 300.429 Q1972.12 291.957 1976.68 287.235 Q1981.26 282.49 1989.36 282.49 Q1992.74 282.49 1995.77 283.323 Q1998.83 284.156 2001.4 285.777 L2001.4 290.753 Q1998.81 288.554 1995.89 287.443 Q1992.97 286.332 1989.76 286.332 Q1983.41 286.332 1980.22 289.874 Q1977.05 293.416 1977.05 300.429 Q1977.05 307.42 1980.22 310.962 Q1983.41 314.503 1989.76 314.503 Q1992.23 314.503 1994.18 314.087 Q1996.12 313.647 1997.67 312.744 Z" fill="#000000" fill-rule="nonzero" fill-opacity="1" /><path clip-path="url(#clip060)" d="M2022.44 304.642 Q2017.28 304.642 2015.29 305.823 Q2013.3 307.003 2013.3 309.851 Q2013.3 312.119 2014.78 313.462 Q2016.28 314.781 2018.85 314.781 Q2022.39 314.781 2024.52 312.281 Q2026.68 309.758 2026.68 305.591 L2026.68 304.642 L2022.44 304.642 M2030.94 302.883 L2030.94 317.675 L2026.68 317.675 L2026.68 313.739 Q2025.22 316.101 2023.04 317.235 Q2020.87 318.346 2017.72 318.346 Q2013.74 318.346 2011.38 316.124 Q2009.04 313.878 2009.04 310.128 Q2009.04 305.753 2011.95 303.531 Q2014.89 301.309 2020.7 301.309 L2026.68 301.309 L2026.68 300.892 Q2026.68 297.953 2024.73 296.355 Q2022.81 294.735 2019.32 294.735 Q2017.09 294.735 2014.99 295.267 Q2012.88 295.8 2010.94 296.865 L2010.94 292.929 Q2013.27 292.027 2015.47 291.587 Q2017.67 291.124 2019.76 291.124 Q2025.38 291.124 2028.16 294.041 Q2030.94 296.957 2030.94 302.883 Z" fill="#000000" fill-rule="nonzero" fill-opacity="1" /><path clip-path="url(#clip060)" d="M2039.27 307.443 L2039.27 291.749 L2043.53 291.749 L2043.53 307.281 Q2043.53 310.962 2044.96 312.814 Q2046.4 314.642 2049.27 314.642 Q2052.72 314.642 2054.71 312.443 Q2056.72 310.244 2056.72 306.448 L2056.72 291.749 L2060.98 291.749 L2060.98 317.675 L2056.72 317.675 L2056.72 313.693 Q2055.17 316.054 2053.11 317.212 Q2051.08 318.346 2048.37 318.346 Q2043.9 318.346 2041.58 315.568 Q2039.27 312.79 2039.27 307.443 M2049.99 291.124 L2049.99 291.124 Z" fill="#000000" fill-rule="nonzero" fill-opacity="1" /><path clip-path="url(#clip060)" d="M2086.28 292.513 L2086.28 296.54 Q2084.48 295.615 2082.53 295.152 Q2080.59 294.689 2078.51 294.689 Q2075.33 294.689 2073.74 295.661 Q2072.16 296.633 2072.16 298.578 Q2072.16 300.059 2073.3 300.915 Q2074.43 301.749 2077.86 302.513 L2079.32 302.837 Q2083.85 303.809 2085.75 305.591 Q2087.67 307.351 2087.67 310.522 Q2087.67 314.133 2084.8 316.239 Q2081.95 318.346 2076.95 318.346 Q2074.87 318.346 2072.6 317.929 Q2070.36 317.536 2067.86 316.726 L2067.86 312.327 Q2070.22 313.554 2072.51 314.179 Q2074.8 314.781 2077.05 314.781 Q2080.06 314.781 2081.68 313.763 Q2083.3 312.721 2083.3 310.846 Q2083.3 309.11 2082.12 308.184 Q2080.96 307.258 2077 306.402 L2075.52 306.054 Q2071.56 305.221 2069.8 303.508 Q2068.04 301.772 2068.04 298.763 Q2068.04 295.105 2070.64 293.115 Q2073.23 291.124 2078 291.124 Q2080.36 291.124 2082.44 291.471 Q2084.52 291.818 2086.28 292.513 Z" fill="#000000" fill-rule="nonzero" fill-opacity="1" /><path clip-path="url(#clip060)" d="M2110.98 292.513 L2110.98 296.54 Q2109.18 295.615 2107.23 295.152 Q2105.29 294.689 2103.2 294.689 Q2100.03 294.689 2098.44 295.661 Q2096.86 296.633 2096.86 298.578 Q2096.86 300.059 2098 300.915 Q2099.13 301.749 2102.56 302.513 L2104.01 302.837 Q2108.55 303.809 2110.45 305.591 Q2112.37 307.351 2112.37 310.522 Q2112.37 314.133 2109.5 316.239 Q2106.65 318.346 2101.65 318.346 Q2099.57 318.346 2097.3 317.929 Q2095.06 317.536 2092.56 316.726 L2092.56 312.327 Q2094.92 313.554 2097.21 314.179 Q2099.5 314.781 2101.75 314.781 Q2104.76 314.781 2106.38 313.763 Q2108 312.721 2108 310.846 Q2108 309.11 2106.82 308.184 Q2105.66 307.258 2101.7 306.402 L2100.22 306.054 Q2096.26 305.221 2094.5 303.508 Q2092.74 301.772 2092.74 298.763 Q2092.74 295.105 2095.33 293.115 Q2097.93 291.124 2102.7 291.124 Q2105.06 291.124 2107.14 291.471 Q2109.22 291.818 2110.98 292.513 Z" fill="#000000" fill-rule="nonzero" fill-opacity="1" /><path clip-path="url(#clip060)" d="M2119.15 291.749 L2123.41 291.749 L2123.41 317.675 L2119.15 317.675 L2119.15 291.749 M2119.15 281.656 L2123.41 281.656 L2123.41 287.05 L2119.15 287.05 L2119.15 281.656 Z" fill="#000000" fill-rule="nonzero" fill-opacity="1" /><path clip-path="url(#clip060)" d="M2144.11 304.642 Q2138.94 304.642 2136.95 305.823 Q2134.96 307.003 2134.96 309.851 Q2134.96 312.119 2136.45 313.462 Q2137.95 314.781 2140.52 314.781 Q2144.06 314.781 2146.19 312.281 Q2148.34 309.758 2148.34 305.591 L2148.34 304.642 L2144.11 304.642 M2152.6 302.883 L2152.6 317.675 L2148.34 317.675 L2148.34 313.739 Q2146.88 316.101 2144.71 317.235 Q2142.53 318.346 2139.38 318.346 Q2135.4 318.346 2133.04 316.124 Q2130.7 313.878 2130.7 310.128 Q2130.7 305.753 2133.62 303.531 Q2136.56 301.309 2142.37 301.309 L2148.34 301.309 L2148.34 300.892 Q2148.34 297.953 2146.4 296.355 Q2144.48 294.735 2140.98 294.735 Q2138.76 294.735 2136.65 295.267 Q2134.55 295.8 2132.6 296.865 L2132.6 292.929 Q2134.94 292.027 2137.14 291.587 Q2139.34 291.124 2141.42 291.124 Q2147.05 291.124 2149.82 294.041 Q2152.6 296.957 2152.6 302.883 Z" fill="#000000" fill-rule="nonzero" fill-opacity="1" /><path clip-path="url(#clip060)" d="M2182.93 302.027 L2182.93 317.675 L2178.67 317.675 L2178.67 302.165 Q2178.67 298.485 2177.23 296.656 Q2175.8 294.828 2172.93 294.828 Q2169.48 294.828 2167.49 297.027 Q2165.5 299.226 2165.5 303.022 L2165.5 317.675 L2161.21 317.675 L2161.21 291.749 L2165.5 291.749 L2165.5 295.777 Q2167.02 293.439 2169.08 292.281 Q2171.17 291.124 2173.88 291.124 Q2178.34 291.124 2180.63 293.902 Q2182.93 296.656 2182.93 302.027 Z" fill="#000000" fill-rule="nonzero" fill-opacity="1" /><polyline clip-path="url(#clip060)" style="stroke:#ac8d18; stroke-linecap:round; stroke-linejoin:round; stroke-width:8; stroke-opacity:1; fill:none" stroke-dasharray="32, 20" points="1805.52,352.235 1948.32,352.235 "/>
<path clip-path="url(#clip060)" d="M1991.65 339.786 Q1991.65 341.028 1990.83 341.824 Q1990.04 342.621 1989 342.621 Q1988.11 342.621 1987.65 342.105 Q1987.18 341.59 1987.18 340.934 Q1987.18 339.997 1987.9 339.224 Q1988.63 338.451 1989.68 338.287 Q1988.91 337.725 1987.67 337.725 Q1985.63 337.725 1983.83 339.295 Q1983.03 340.021 1982.17 341.356 Q1981.3 342.667 1981.13 343.23 L1979.61 349.483 Q1979.47 350.186 1978.61 353.559 Q1977.76 356.908 1977.69 357.049 Q1977.46 357.705 1976.94 358.056 Q1976.43 358.407 1975.91 358.407 Q1975.33 358.407 1974.93 358.056 Q1974.53 357.705 1974.53 357.096 Q1974.53 357.002 1974.6 356.651 Q1974.67 356.299 1974.79 355.807 Q1974.9 355.315 1974.95 355.034 L1977.74 343.956 Q1978.25 341.941 1978.37 341.309 Q1978.51 340.653 1978.51 339.927 Q1978.51 338.662 1978.11 338.194 Q1977.72 337.725 1977.01 337.725 Q1975.79 337.725 1975 339.177 Q1974.2 340.63 1973.52 343.44 Q1973.31 344.213 1973.17 344.377 Q1973.05 344.541 1972.7 344.541 Q1972.12 344.518 1972.12 344.049 Q1972.12 343.932 1972.3 343.183 Q1972.49 342.41 1972.84 341.285 Q1973.22 340.138 1973.62 339.412 Q1973.85 338.92 1974.06 338.592 Q1974.27 338.264 1974.69 337.749 Q1975.12 337.233 1975.75 336.952 Q1976.38 336.671 1977.15 336.671 Q1978.84 336.671 1980.03 337.702 Q1981.25 338.732 1981.53 340.349 Q1982.12 339.505 1982.84 338.779 Q1983.57 338.03 1984.91 337.35 Q1986.24 336.671 1987.67 336.671 Q1989.45 336.671 1990.55 337.585 Q1991.65 338.475 1991.65 339.786 Z" fill="#000000" fill-rule="nonzero" fill-opacity="1" /><path clip-path="url(#clip060)" d="M2014.76 362.409 Q2014.76 362.54 2014.62 363.049 Q2014.47 363.557 2014.11 364.344 Q2013.76 365.131 2013.29 365.852 Q2012.81 366.557 2012.03 367.082 Q2011.26 367.59 2010.37 367.59 Q2009.19 367.59 2008.4 366.803 Q2007.62 366.016 2007.62 364.836 Q2007.62 364.18 2007.96 363.278 Q2010.14 357.458 2010.14 355.458 Q2010.14 353.113 2008.32 353.113 Q2007.42 353.113 2006.57 353.457 Q2005.73 353.785 2005.16 354.244 Q2004.58 354.703 2004.06 355.343 Q2003.55 355.966 2003.29 356.392 Q2003.04 356.802 2002.84 357.212 L2002.42 358.884 Q2002.32 359.343 2001.84 361.13 L2001.11 364.164 Q2000.58 366.426 2000.47 366.639 Q2000.3 367.098 1999.94 367.344 Q1999.58 367.59 1999.22 367.59 Q1998.81 367.59 1998.53 367.344 Q1998.25 367.098 1998.25 366.672 Q1998.25 366.607 1998.3 366.361 Q1998.35 366.115 1998.43 365.77 Q1998.52 365.426 1998.55 365.229 L2000.5 357.474 Q2000.86 356.064 2000.94 355.621 Q2001.04 355.162 2001.04 354.654 Q2001.04 353.113 1999.99 353.113 Q1999.14 353.113 1998.58 354.129 Q1998.02 355.146 1997.55 357.113 Q1997.4 357.655 1997.3 357.769 Q1997.22 357.884 1996.98 357.884 Q1996.57 357.868 1996.57 357.54 Q1996.57 357.458 1996.7 356.917 Q1996.83 356.376 1997.07 355.605 Q1997.34 354.818 1997.58 354.293 Q1997.79 353.9 1997.91 353.72 Q1998.04 353.523 1998.35 353.146 Q1998.68 352.752 1999.11 352.572 Q1999.55 352.375 2000.09 352.375 Q2001.3 352.375 2002.19 353.162 Q2003.07 353.933 2003.19 355.294 Q2005.37 352.375 2008.42 352.375 Q2010.22 352.375 2011.26 353.326 Q2012.29 354.277 2012.29 355.966 Q2012.29 356.359 2012.21 356.868 Q2012.14 357.359 2011.98 357.982 Q2011.83 358.605 2011.7 359.081 Q2011.57 359.556 2011.31 360.327 Q2011.04 361.081 2010.93 361.409 Q2010.81 361.737 2010.53 362.508 Q2010.27 363.262 2010.24 363.344 Q2009.63 364.869 2009.63 365.738 Q2009.63 366.311 2009.81 366.574 Q2010.01 366.836 2010.44 366.836 Q2011.58 366.836 2012.44 365.705 Q2013.31 364.557 2013.86 362.688 Q2013.99 362.278 2014.06 362.18 Q2014.14 362.081 2014.37 362.081 Q2014.76 362.081 2014.76 362.409 Z" fill="#000000" fill-rule="nonzero" fill-opacity="1" /><path clip-path="url(#clip060)" d="M2034.84 362.409 Q2034.84 362.54 2034.69 363.049 Q2034.54 363.557 2034.18 364.344 Q2033.84 365.131 2033.36 365.852 Q2032.88 366.557 2032.1 367.082 Q2031.33 367.59 2030.44 367.59 Q2029.26 367.59 2028.47 366.803 Q2027.69 366.016 2027.69 364.836 Q2027.69 364.18 2028.03 363.278 Q2030.21 357.458 2030.21 355.458 Q2030.21 353.113 2028.39 353.113 Q2027.49 353.113 2026.64 353.457 Q2025.8 353.785 2025.23 354.244 Q2024.65 354.703 2024.13 355.343 Q2023.62 355.966 2023.36 356.392 Q2023.11 356.802 2022.92 357.212 L2022.49 358.884 Q2022.39 359.343 2021.92 361.13 L2021.18 364.164 Q2020.65 366.426 2020.54 366.639 Q2020.37 367.098 2020.01 367.344 Q2019.65 367.59 2019.29 367.59 Q2018.88 367.59 2018.6 367.344 Q2018.33 367.098 2018.33 366.672 Q2018.33 366.607 2018.37 366.361 Q2018.42 366.115 2018.51 365.77 Q2018.59 365.426 2018.62 365.229 L2020.57 357.474 Q2020.93 356.064 2021.01 355.621 Q2021.11 355.162 2021.11 354.654 Q2021.11 353.113 2020.06 353.113 Q2019.21 353.113 2018.65 354.129 Q2018.1 355.146 2017.62 357.113 Q2017.47 357.655 2017.37 357.769 Q2017.29 357.884 2017.05 357.884 Q2016.64 357.868 2016.64 357.54 Q2016.64 357.458 2016.77 356.917 Q2016.9 356.376 2017.14 355.605 Q2017.41 354.818 2017.65 354.293 Q2017.87 353.9 2017.98 353.72 Q2018.11 353.523 2018.42 353.146 Q2018.75 352.752 2019.18 352.572 Q2019.62 352.375 2020.16 352.375 Q2021.38 352.375 2022.26 353.162 Q2023.15 353.933 2023.26 355.294 Q2025.44 352.375 2028.49 352.375 Q2030.29 352.375 2031.33 353.326 Q2032.36 354.277 2032.36 355.966 Q2032.36 356.359 2032.28 356.868 Q2032.21 357.359 2032.05 357.982 Q2031.9 358.605 2031.77 359.081 Q2031.64 359.556 2031.38 360.327 Q2031.11 361.081 2031 361.409 Q2030.88 361.737 2030.61 362.508 Q2030.34 363.262 2030.31 363.344 Q2029.7 364.869 2029.7 365.738 Q2029.7 366.311 2029.88 366.574 Q2030.08 366.836 2030.51 366.836 Q2031.66 366.836 2032.51 365.705 Q2033.38 364.557 2033.93 362.688 Q2034.07 362.278 2034.13 362.18 Q2034.21 362.081 2034.44 362.081 Q2034.84 362.081 2034.84 362.409 Z" fill="#000000" fill-rule="nonzero" fill-opacity="1" /></svg>
