<?xml version="1.0" encoding="utf-8"?>
<svg xmlns="http://www.w3.org/2000/svg" xmlns:xlink="http://www.w3.org/1999/xlink" width="600" height="400" viewBox="0 0 2400 1600">
<defs>
  <clipPath id="clip990">
    <rect x="0" y="0" width="2400" height="1600"/>
  </clipPath>
</defs>
<path clip-path="url(#clip990)" d="M0 1600 L2400 1600 L2400 0 L0 0  Z" fill="#ffffff" fill-rule="evenodd" fill-opacity="1"/>
<defs>
  <clipPath id="clip991">
    <rect x="480" y="0" width="1681" height="1600"/>
  </clipPath>
</defs>
<path clip-path="url(#clip990)" d="M234.125 1420.96 L2352.76 1420.96 L2352.76 47.2441 L234.125 47.2441  Z" fill="#ffffff" fill-rule="evenodd" fill-opacity="1"/>
<defs>
  <clipPath id="clip992">
    <rect x="234" y="47" width="2120" height="1375"/>
  </clipPath>
</defs>
<polyline clip-path="url(#clip992)" style="stroke:#000000; stroke-linecap:round; stroke-linejoin:round; stroke-width:2; stroke-opacity:0.1; fill:none" points="234.125,1420.96 234.125,47.2441 "/>
<polyline clip-path="url(#clip992)" style="stroke:#000000; stroke-linecap:round; stroke-linejoin:round; stroke-width:2; stroke-opacity:0.1; fill:none" points="657.852,1420.96 657.852,47.2441 "/>
<polyline clip-path="url(#clip992)" style="stroke:#000000; stroke-linecap:round; stroke-linejoin:round; stroke-width:2; stroke-opacity:0.1; fill:none" points="1081.58,1420.96 1081.58,47.2441 "/>
<polyline clip-path="url(#clip992)" style="stroke:#000000; stroke-linecap:round; stroke-linejoin:round; stroke-width:2; stroke-opacity:0.1; fill:none" points="1505.3,1420.96 1505.3,47.2441 "/>
<polyline clip-path="url(#clip992)" style="stroke:#000000; stroke-linecap:round; stroke-linejoin:round; stroke-width:2; stroke-opacity:0.1; fill:none" points="1929.03,1420.96 1929.03,47.2441 "/>
<polyline clip-path="url(#clip992)" style="stroke:#000000; stroke-linecap:round; stroke-linejoin:round; stroke-width:2; stroke-opacity:0.1; fill:none" points="2352.76,1420.96 2352.76,47.2441 "/>
<polyline clip-path="url(#clip992)" style="stroke:#000000; stroke-linecap:round; stroke-linejoin:round; stroke-width:2; stroke-opacity:0.1; fill:none" points="234.125,1382.08 2352.76,1382.08 "/>
<polyline clip-path="url(#clip992)" style="stroke:#000000; stroke-linecap:round; stroke-linejoin:round; stroke-width:2; stroke-opacity:0.1; fill:none" points="234.125,1127.48 2352.76,1127.48 "/>
<polyline clip-path="url(#clip992)" style="stroke:#000000; stroke-linecap:round; stroke-linejoin:round; stroke-width:2; stroke-opacity:0.1; fill:none" points="234.125,872.869 2352.76,872.869 "/>
<polyline clip-path="url(#clip992)" style="stroke:#000000; stroke-linecap:round; stroke-linejoin:round; stroke-width:2; stroke-opacity:0.1; fill:none" points="234.125,618.263 2352.76,618.263 "/>
<polyline clip-path="url(#clip992)" style="stroke:#000000; stroke-linecap:round; stroke-linejoin:round; stroke-width:2; stroke-opacity:0.1; fill:none" points="234.125,363.657 2352.76,363.657 "/>
<polyline clip-path="url(#clip992)" style="stroke:#000000; stroke-linecap:round; stroke-linejoin:round; stroke-width:2; stroke-opacity:0.1; fill:none" points="234.125,109.051 2352.76,109.051 "/>
<polyline clip-path="url(#clip990)" style="stroke:#000000; stroke-linecap:round; stroke-linejoin:round; stroke-width:4; stroke-opacity:1; fill:none" points="234.125,1420.96 2352.76,1420.96 "/>
<polyline clip-path="url(#clip990)" style="stroke:#000000; stroke-linecap:round; stroke-linejoin:round; stroke-width:4; stroke-opacity:1; fill:none" points="234.125,1420.96 234.125,1402.06 "/>
<polyline clip-path="url(#clip990)" style="stroke:#000000; stroke-linecap:round; stroke-linejoin:round; stroke-width:4; stroke-opacity:1; fill:none" points="657.852,1420.96 657.852,1402.06 "/>
<polyline clip-path="url(#clip990)" style="stroke:#000000; stroke-linecap:round; stroke-linejoin:round; stroke-width:4; stroke-opacity:1; fill:none" points="1081.58,1420.96 1081.58,1402.06 "/>
<polyline clip-path="url(#clip990)" style="stroke:#000000; stroke-linecap:round; stroke-linejoin:round; stroke-width:4; stroke-opacity:1; fill:none" points="1505.3,1420.96 1505.3,1402.06 "/>
<polyline clip-path="url(#clip990)" style="stroke:#000000; stroke-linecap:round; stroke-linejoin:round; stroke-width:4; stroke-opacity:1; fill:none" points="1929.03,1420.96 1929.03,1402.06 "/>
<polyline clip-path="url(#clip990)" style="stroke:#000000; stroke-linecap:round; stroke-linejoin:round; stroke-width:4; stroke-opacity:1; fill:none" points="2352.76,1420.96 2352.76,1402.06 "/>
<path clip-path="url(#clip990)" d="M234.125 1451.88 Q230.514 1451.88 228.686 1455.44 Q226.88 1458.99 226.88 1466.11 Q226.88 1473.22 228.686 1476.79 Q230.514 1480.33 234.125 1480.33 Q237.76 1480.33 239.565 1476.79 Q241.394 1473.22 241.394 1466.11 Q241.394 1458.99 239.565 1455.44 Q237.76 1451.88 234.125 1451.88 M234.125 1448.18 Q239.936 1448.18 242.991 1452.78 Q246.07 1457.37 246.07 1466.11 Q246.07 1474.84 242.991 1479.45 Q239.936 1484.03 234.125 1484.03 Q228.315 1484.03 225.237 1479.45 Q222.181 1474.84 222.181 1466.11 Q222.181 1457.37 225.237 1452.78 Q228.315 1448.18 234.125 1448.18 Z" fill="#000000" fill-rule="nonzero" fill-opacity="1" /><path clip-path="url(#clip990)" d="M648.234 1479.43 L655.872 1479.43 L655.872 1453.06 L647.562 1454.73 L647.562 1450.47 L655.826 1448.8 L660.502 1448.8 L660.502 1479.43 L668.141 1479.43 L668.141 1483.36 L648.234 1483.36 L648.234 1479.43 Z" fill="#000000" fill-rule="nonzero" fill-opacity="1" /><path clip-path="url(#clip990)" d="M1076.23 1479.43 L1092.55 1479.43 L1092.55 1483.36 L1070.61 1483.36 L1070.61 1479.43 Q1073.27 1476.67 1077.85 1472.04 Q1082.46 1467.39 1083.64 1466.05 Q1085.88 1463.52 1086.76 1461.79 Q1087.67 1460.03 1087.67 1458.34 Q1087.67 1455.58 1085.72 1453.85 Q1083.8 1452.11 1080.7 1452.11 Q1078.5 1452.11 1076.05 1452.87 Q1073.61 1453.64 1070.84 1455.19 L1070.84 1450.47 Q1073.66 1449.33 1076.11 1448.75 Q1078.57 1448.18 1080.61 1448.18 Q1085.98 1448.18 1089.17 1450.86 Q1092.36 1453.55 1092.36 1458.04 Q1092.36 1460.17 1091.55 1462.09 Q1090.77 1463.99 1088.66 1466.58 Q1088.08 1467.25 1084.98 1470.47 Q1081.88 1473.66 1076.23 1479.43 Z" fill="#000000" fill-rule="nonzero" fill-opacity="1" /><path clip-path="url(#clip990)" d="M1509.55 1464.73 Q1512.91 1465.44 1514.78 1467.71 Q1516.68 1469.98 1516.68 1473.31 Q1516.68 1478.43 1513.16 1481.23 Q1509.64 1484.03 1503.16 1484.03 Q1500.99 1484.03 1498.67 1483.59 Q1496.38 1483.18 1493.93 1482.32 L1493.93 1477.8 Q1495.87 1478.94 1498.19 1479.52 Q1500.5 1480.1 1503.02 1480.1 Q1507.42 1480.1 1509.71 1478.36 Q1512.03 1476.62 1512.03 1473.31 Q1512.03 1470.26 1509.88 1468.55 Q1507.75 1466.81 1503.93 1466.81 L1499.9 1466.81 L1499.9 1462.97 L1504.11 1462.97 Q1507.56 1462.97 1509.39 1461.6 Q1511.22 1460.21 1511.22 1457.62 Q1511.22 1454.96 1509.32 1453.55 Q1507.44 1452.11 1503.93 1452.11 Q1502.01 1452.11 1499.81 1452.53 Q1497.61 1452.94 1494.97 1453.82 L1494.97 1449.66 Q1497.63 1448.92 1499.94 1448.55 Q1502.28 1448.18 1504.34 1448.18 Q1509.67 1448.18 1512.77 1450.61 Q1515.87 1453.01 1515.87 1457.13 Q1515.87 1460 1514.23 1461.99 Q1512.58 1463.96 1509.55 1464.73 Z" fill="#000000" fill-rule="nonzero" fill-opacity="1" /><path clip-path="url(#clip990)" d="M1932.04 1452.87 L1920.23 1471.32 L1932.04 1471.32 L1932.04 1452.87 M1930.81 1448.8 L1936.69 1448.8 L1936.69 1471.32 L1941.62 1471.32 L1941.62 1475.21 L1936.69 1475.21 L1936.69 1483.36 L1932.04 1483.36 L1932.04 1475.21 L1916.44 1475.21 L1916.44 1470.7 L1930.81 1448.8 Z" fill="#000000" fill-rule="nonzero" fill-opacity="1" /><path clip-path="url(#clip990)" d="M2343.03 1448.8 L2361.39 1448.8 L2361.39 1452.74 L2347.32 1452.74 L2347.32 1461.21 Q2348.33 1460.86 2349.35 1460.7 Q2350.37 1460.51 2351.39 1460.51 Q2357.18 1460.51 2360.56 1463.68 Q2363.94 1466.86 2363.94 1472.27 Q2363.94 1477.85 2360.46 1480.95 Q2356.99 1484.03 2350.67 1484.03 Q2348.5 1484.03 2346.23 1483.66 Q2343.98 1483.29 2341.58 1482.55 L2341.58 1477.85 Q2343.66 1478.99 2345.88 1479.54 Q2348.1 1480.1 2350.58 1480.1 Q2354.58 1480.1 2356.92 1477.99 Q2359.26 1475.88 2359.26 1472.27 Q2359.26 1468.66 2356.92 1466.55 Q2354.58 1464.45 2350.58 1464.45 Q2348.71 1464.45 2346.83 1464.86 Q2344.98 1465.28 2343.03 1466.16 L2343.03 1448.8 Z" fill="#000000" fill-rule="nonzero" fill-opacity="1" /><path clip-path="url(#clip990)" d="M1259.37 1534.76 Q1259.37 1536.46 1258.24 1537.56 Q1257.14 1538.65 1255.73 1538.65 Q1254.5 1538.65 1253.86 1537.95 Q1253.22 1537.24 1253.22 1536.34 Q1253.22 1535.05 1254.21 1533.98 Q1255.21 1532.92 1256.66 1532.7 Q1255.6 1531.92 1253.89 1531.92 Q1251.09 1531.92 1248.61 1534.08 Q1247.52 1535.08 1246.32 1536.92 Q1245.13 1538.72 1244.91 1539.49 L1242.81 1548.09 Q1242.62 1549.06 1241.43 1553.69 Q1240.27 1558.3 1240.17 1558.49 Q1239.85 1559.4 1239.14 1559.88 Q1238.43 1560.36 1237.72 1560.36 Q1236.92 1560.36 1236.37 1559.88 Q1235.82 1559.4 1235.82 1558.56 Q1235.82 1558.43 1235.92 1557.95 Q1236.02 1557.46 1236.18 1556.79 Q1236.34 1556.11 1236.4 1555.72 L1240.24 1540.49 Q1240.95 1537.72 1241.11 1536.85 Q1241.3 1535.95 1241.3 1534.95 Q1241.3 1533.21 1240.75 1532.57 Q1240.2 1531.92 1239.24 1531.92 Q1237.56 1531.92 1236.47 1533.92 Q1235.37 1535.92 1234.44 1539.78 Q1234.15 1540.84 1233.96 1541.07 Q1233.8 1541.3 1233.31 1541.3 Q1232.51 1541.26 1232.51 1540.62 Q1232.51 1540.46 1232.76 1539.43 Q1233.02 1538.36 1233.51 1536.82 Q1234.02 1535.24 1234.57 1534.24 Q1234.89 1533.57 1235.18 1533.12 Q1235.47 1532.66 1236.05 1531.96 Q1236.63 1531.25 1237.5 1530.86 Q1238.37 1530.47 1239.43 1530.47 Q1241.75 1530.47 1243.39 1531.89 Q1245.07 1533.31 1245.45 1535.53 Q1246.26 1534.37 1247.26 1533.37 Q1248.26 1532.34 1250.09 1531.41 Q1251.93 1530.47 1253.89 1530.47 Q1256.34 1530.47 1257.85 1531.73 Q1259.37 1532.95 1259.37 1534.76 Z" fill="#000000" fill-rule="nonzero" fill-opacity="1" /><path clip-path="url(#clip990)" d="M1269.08 1576.11 L1269.08 1510.15 L1279.03 1510.15 L1279.03 1511.67 L1273.49 1511.67 L1273.49 1574.6 L1279.03 1574.6 L1279.03 1576.11 L1269.08 1576.11 Z" fill="#000000" fill-rule="nonzero" fill-opacity="1" /><path clip-path="url(#clip990)" d="M1332.38 1559.62 L1323.75 1559.43 Q1316.63 1559.43 1314.25 1559.62 L1314.25 1557.59 Q1319.72 1557.59 1319.72 1555.59 Q1319.72 1555.43 1319.53 1554.66 L1316.05 1544.58 L1299.76 1544.58 L1296.7 1553.21 Q1296.57 1553.47 1296.57 1554.21 Q1296.57 1555.59 1297.89 1556.59 Q1299.21 1557.59 1301.53 1557.59 L1301.53 1559.62 L1293.93 1559.43 L1287.23 1559.62 L1287.23 1557.59 Q1290.09 1557.53 1291.93 1556.53 Q1293.77 1555.53 1294.6 1553.15 L1308.26 1513.73 Q1308.52 1512.95 1308.81 1512.7 Q1309.1 1512.41 1309.84 1512.41 Q1310.35 1512.41 1310.64 1512.6 Q1310.93 1512.76 1311.03 1512.99 Q1311.16 1513.18 1311.35 1513.73 L1325.58 1554.95 Q1326.13 1556.59 1327.2 1557.11 Q1328.26 1557.59 1331.22 1557.59 L1332.38 1557.59 L1332.38 1559.62 M1315.31 1542.55 L1307.87 1521.1 L1300.46 1542.55 L1315.31 1542.55 M1313.99 1506.58 Q1313.99 1502.78 1309.84 1502.78 Q1305.68 1502.78 1305.68 1506.58 Q1305.68 1510.41 1309.84 1510.41 Q1313.99 1510.41 1313.99 1506.58 M1316.18 1506.51 Q1316.18 1508.96 1314.35 1510.7 Q1312.51 1512.41 1309.77 1512.41 Q1307.23 1512.41 1305.36 1510.7 Q1303.49 1508.99 1303.49 1506.51 Q1303.49 1504.26 1305.3 1502.52 Q1307.13 1500.78 1309.9 1500.78 Q1312.54 1500.78 1314.35 1502.49 Q1316.18 1504.19 1316.18 1506.51 Z" fill="#000000" fill-rule="nonzero" fill-opacity="1" /><path clip-path="url(#clip990)" d="M1336.22 1574.6 L1341.76 1574.6 L1341.76 1511.67 L1336.22 1511.67 L1336.22 1510.15 L1346.18 1510.15 L1346.18 1576.11 L1336.22 1576.11 L1336.22 1574.6 Z" fill="#000000" fill-rule="nonzero" fill-opacity="1" /><polyline clip-path="url(#clip990)" style="stroke:#000000; stroke-linecap:round; stroke-linejoin:round; stroke-width:4; stroke-opacity:1; fill:none" points="234.125,1420.96 234.125,47.2441 "/>
<polyline clip-path="url(#clip990)" style="stroke:#000000; stroke-linecap:round; stroke-linejoin:round; stroke-width:4; stroke-opacity:1; fill:none" points="234.125,1382.08 253.023,1382.08 "/>
<polyline clip-path="url(#clip990)" style="stroke:#000000; stroke-linecap:round; stroke-linejoin:round; stroke-width:4; stroke-opacity:1; fill:none" points="234.125,1127.48 253.023,1127.48 "/>
<polyline clip-path="url(#clip990)" style="stroke:#000000; stroke-linecap:round; stroke-linejoin:round; stroke-width:4; stroke-opacity:1; fill:none" points="234.125,872.869 253.023,872.869 "/>
<polyline clip-path="url(#clip990)" style="stroke:#000000; stroke-linecap:round; stroke-linejoin:round; stroke-width:4; stroke-opacity:1; fill:none" points="234.125,618.263 253.023,618.263 "/>
<polyline clip-path="url(#clip990)" style="stroke:#000000; stroke-linecap:round; stroke-linejoin:round; stroke-width:4; stroke-opacity:1; fill:none" points="234.125,363.657 253.023,363.657 "/>
<polyline clip-path="url(#clip990)" style="stroke:#000000; stroke-linecap:round; stroke-linejoin:round; stroke-width:4; stroke-opacity:1; fill:none" points="234.125,109.051 253.023,109.051 "/>
<path clip-path="url(#clip990)" d="M186.181 1367.88 Q182.57 1367.88 180.741 1371.44 Q178.936 1374.99 178.936 1382.12 Q178.936 1389.22 180.741 1392.79 Q182.57 1396.33 186.181 1396.33 Q189.815 1396.33 191.621 1392.79 Q193.45 1389.22 193.45 1382.12 Q193.45 1374.99 191.621 1371.44 Q189.815 1367.88 186.181 1367.88 M186.181 1364.18 Q191.991 1364.18 195.047 1368.78 Q198.125 1373.37 198.125 1382.12 Q198.125 1390.84 195.047 1395.45 Q191.991 1400.03 186.181 1400.03 Q180.371 1400.03 177.292 1395.45 Q174.237 1390.84 174.237 1382.12 Q174.237 1373.37 177.292 1368.78 Q180.371 1364.18 186.181 1364.18 Z" fill="#000000" fill-rule="nonzero" fill-opacity="1" /><path clip-path="url(#clip990)" d="M146.066 1110.2 L164.422 1110.2 L164.422 1114.13 L150.348 1114.13 L150.348 1122.6 Q151.366 1122.26 152.385 1122.09 Q153.403 1121.91 154.422 1121.91 Q160.209 1121.91 163.589 1125.08 Q166.968 1128.25 166.968 1133.67 Q166.968 1139.25 163.496 1142.35 Q160.024 1145.43 153.704 1145.43 Q151.528 1145.43 149.26 1145.06 Q147.015 1144.69 144.607 1143.95 L144.607 1139.25 Q146.691 1140.38 148.913 1140.94 Q151.135 1141.49 153.612 1141.49 Q157.616 1141.49 159.954 1139.39 Q162.292 1137.28 162.292 1133.67 Q162.292 1130.06 159.954 1127.95 Q157.616 1125.84 153.612 1125.84 Q151.737 1125.84 149.862 1126.26 Q148.01 1126.68 146.066 1127.56 L146.066 1110.2 Z" fill="#000000" fill-rule="nonzero" fill-opacity="1" /><path clip-path="url(#clip990)" d="M186.181 1113.27 Q182.57 1113.27 180.741 1116.84 Q178.936 1120.38 178.936 1127.51 Q178.936 1134.62 180.741 1138.18 Q182.57 1141.72 186.181 1141.72 Q189.815 1141.72 191.621 1138.18 Q193.45 1134.62 193.45 1127.51 Q193.45 1120.38 191.621 1116.84 Q189.815 1113.27 186.181 1113.27 M186.181 1109.57 Q191.991 1109.57 195.047 1114.18 Q198.125 1118.76 198.125 1127.51 Q198.125 1136.24 195.047 1140.84 Q191.991 1145.43 186.181 1145.43 Q180.371 1145.43 177.292 1140.84 Q174.237 1136.24 174.237 1127.51 Q174.237 1118.76 177.292 1114.18 Q180.371 1109.57 186.181 1109.57 Z" fill="#000000" fill-rule="nonzero" fill-opacity="1" /><path clip-path="url(#clip990)" d="M116.668 886.214 L124.306 886.214 L124.306 859.849 L115.996 861.515 L115.996 857.256 L124.26 855.589 L128.936 855.589 L128.936 886.214 L136.575 886.214 L136.575 890.149 L116.668 890.149 L116.668 886.214 Z" fill="#000000" fill-rule="nonzero" fill-opacity="1" /><path clip-path="url(#clip990)" d="M156.019 858.668 Q152.408 858.668 150.579 862.233 Q148.774 865.775 148.774 872.904 Q148.774 880.011 150.579 883.575 Q152.408 887.117 156.019 887.117 Q159.653 887.117 161.459 883.575 Q163.288 880.011 163.288 872.904 Q163.288 865.775 161.459 862.233 Q159.653 858.668 156.019 858.668 M156.019 854.964 Q161.829 854.964 164.885 859.571 Q167.964 864.154 167.964 872.904 Q167.964 881.631 164.885 886.237 Q161.829 890.821 156.019 890.821 Q150.209 890.821 147.13 886.237 Q144.075 881.631 144.075 872.904 Q144.075 864.154 147.13 859.571 Q150.209 854.964 156.019 854.964 Z" fill="#000000" fill-rule="nonzero" fill-opacity="1" /><path clip-path="url(#clip990)" d="M186.181 858.668 Q182.57 858.668 180.741 862.233 Q178.936 865.775 178.936 872.904 Q178.936 880.011 180.741 883.575 Q182.57 887.117 186.181 887.117 Q189.815 887.117 191.621 883.575 Q193.45 880.011 193.45 872.904 Q193.45 865.775 191.621 862.233 Q189.815 858.668 186.181 858.668 M186.181 854.964 Q191.991 854.964 195.047 859.571 Q198.125 864.154 198.125 872.904 Q198.125 881.631 195.047 886.237 Q191.991 890.821 186.181 890.821 Q180.371 890.821 177.292 886.237 Q174.237 881.631 174.237 872.904 Q174.237 864.154 177.292 859.571 Q180.371 854.964 186.181 854.964 Z" fill="#000000" fill-rule="nonzero" fill-opacity="1" /><path clip-path="url(#clip990)" d="M116.668 631.608 L124.306 631.608 L124.306 605.243 L115.996 606.909 L115.996 602.65 L124.26 600.983 L128.936 600.983 L128.936 631.608 L136.575 631.608 L136.575 635.543 L116.668 635.543 L116.668 631.608 Z" fill="#000000" fill-rule="nonzero" fill-opacity="1" /><path clip-path="url(#clip990)" d="M146.066 600.983 L164.422 600.983 L164.422 604.918 L150.348 604.918 L150.348 613.391 Q151.366 613.043 152.385 612.881 Q153.403 612.696 154.422 612.696 Q160.209 612.696 163.589 615.868 Q166.968 619.039 166.968 624.455 Q166.968 630.034 163.496 633.136 Q160.024 636.215 153.704 636.215 Q151.528 636.215 149.26 635.844 Q147.015 635.474 144.607 634.733 L144.607 630.034 Q146.691 631.168 148.913 631.724 Q151.135 632.279 153.612 632.279 Q157.616 632.279 159.954 630.173 Q162.292 628.067 162.292 624.455 Q162.292 620.844 159.954 618.738 Q157.616 616.631 153.612 616.631 Q151.737 616.631 149.862 617.048 Q148.01 617.465 146.066 618.344 L146.066 600.983 Z" fill="#000000" fill-rule="nonzero" fill-opacity="1" /><path clip-path="url(#clip990)" d="M186.181 604.062 Q182.57 604.062 180.741 607.627 Q178.936 611.168 178.936 618.298 Q178.936 625.404 180.741 628.969 Q182.57 632.511 186.181 632.511 Q189.815 632.511 191.621 628.969 Q193.45 625.404 193.45 618.298 Q193.45 611.168 191.621 607.627 Q189.815 604.062 186.181 604.062 M186.181 600.358 Q191.991 600.358 195.047 604.965 Q198.125 609.548 198.125 618.298 Q198.125 627.025 195.047 631.631 Q191.991 636.215 186.181 636.215 Q180.371 636.215 177.292 631.631 Q174.237 627.025 174.237 618.298 Q174.237 609.548 177.292 604.965 Q180.371 600.358 186.181 600.358 Z" fill="#000000" fill-rule="nonzero" fill-opacity="1" /><path clip-path="url(#clip990)" d="M119.885 377.002 L136.204 377.002 L136.204 380.937 L114.26 380.937 L114.26 377.002 Q116.922 374.247 121.505 369.618 Q126.112 364.965 127.292 363.623 Q129.538 361.099 130.417 359.363 Q131.32 357.604 131.32 355.914 Q131.32 353.16 129.376 351.424 Q127.455 349.687 124.353 349.687 Q122.154 349.687 119.7 350.451 Q117.269 351.215 114.492 352.766 L114.492 348.044 Q117.316 346.91 119.769 346.331 Q122.223 345.752 124.26 345.752 Q129.63 345.752 132.825 348.437 Q136.019 351.123 136.019 355.613 Q136.019 357.743 135.209 359.664 Q134.422 361.562 132.316 364.155 Q131.737 364.826 128.635 368.044 Q125.533 371.238 119.885 377.002 Z" fill="#000000" fill-rule="nonzero" fill-opacity="1" /><path clip-path="url(#clip990)" d="M156.019 349.456 Q152.408 349.456 150.579 353.021 Q148.774 356.562 148.774 363.692 Q148.774 370.798 150.579 374.363 Q152.408 377.905 156.019 377.905 Q159.653 377.905 161.459 374.363 Q163.288 370.798 163.288 363.692 Q163.288 356.562 161.459 353.021 Q159.653 349.456 156.019 349.456 M156.019 345.752 Q161.829 345.752 164.885 350.359 Q167.964 354.942 167.964 363.692 Q167.964 372.419 164.885 377.025 Q161.829 381.609 156.019 381.609 Q150.209 381.609 147.13 377.025 Q144.075 372.419 144.075 363.692 Q144.075 354.942 147.13 350.359 Q150.209 345.752 156.019 345.752 Z" fill="#000000" fill-rule="nonzero" fill-opacity="1" /><path clip-path="url(#clip990)" d="M186.181 349.456 Q182.57 349.456 180.741 353.021 Q178.936 356.562 178.936 363.692 Q178.936 370.798 180.741 374.363 Q182.57 377.905 186.181 377.905 Q189.815 377.905 191.621 374.363 Q193.45 370.798 193.45 363.692 Q193.45 356.562 191.621 353.021 Q189.815 349.456 186.181 349.456 M186.181 345.752 Q191.991 345.752 195.047 350.359 Q198.125 354.942 198.125 363.692 Q198.125 372.419 195.047 377.025 Q191.991 381.609 186.181 381.609 Q180.371 381.609 177.292 377.025 Q174.237 372.419 174.237 363.692 Q174.237 354.942 177.292 350.359 Q180.371 345.752 186.181 345.752 Z" fill="#000000" fill-rule="nonzero" fill-opacity="1" /><path clip-path="url(#clip990)" d="M119.885 122.396 L136.204 122.396 L136.204 126.331 L114.26 126.331 L114.26 122.396 Q116.922 119.641 121.505 115.012 Q126.112 110.359 127.292 109.016 Q129.538 106.493 130.417 104.757 Q131.32 102.998 131.32 101.308 Q131.32 98.5536 129.376 96.8175 Q127.455 95.0814 124.353 95.0814 Q122.154 95.0814 119.7 95.8453 Q117.269 96.6091 114.492 98.1601 L114.492 93.4379 Q117.316 92.3036 119.769 91.7249 Q122.223 91.1462 124.26 91.1462 Q129.63 91.1462 132.825 93.8314 Q136.019 96.5166 136.019 101.007 Q136.019 103.137 135.209 105.058 Q134.422 106.956 132.316 109.549 Q131.737 110.22 128.635 113.438 Q125.533 116.632 119.885 122.396 Z" fill="#000000" fill-rule="nonzero" fill-opacity="1" /><path clip-path="url(#clip990)" d="M146.066 91.7712 L164.422 91.7712 L164.422 95.7064 L150.348 95.7064 L150.348 104.179 Q151.366 103.831 152.385 103.669 Q153.403 103.484 154.422 103.484 Q160.209 103.484 163.589 106.655 Q166.968 109.827 166.968 115.243 Q166.968 120.822 163.496 123.924 Q160.024 127.003 153.704 127.003 Q151.528 127.003 149.26 126.632 Q147.015 126.262 144.607 125.521 L144.607 120.822 Q146.691 121.956 148.913 122.512 Q151.135 123.067 153.612 123.067 Q157.616 123.067 159.954 120.961 Q162.292 118.854 162.292 115.243 Q162.292 111.632 159.954 109.526 Q157.616 107.419 153.612 107.419 Q151.737 107.419 149.862 107.836 Q148.01 108.253 146.066 109.132 L146.066 91.7712 Z" fill="#000000" fill-rule="nonzero" fill-opacity="1" /><path clip-path="url(#clip990)" d="M186.181 94.8499 Q182.57 94.8499 180.741 98.4147 Q178.936 101.956 178.936 109.086 Q178.936 116.192 180.741 119.757 Q182.57 123.299 186.181 123.299 Q189.815 123.299 191.621 119.757 Q193.45 116.192 193.45 109.086 Q193.45 101.956 191.621 98.4147 Q189.815 94.8499 186.181 94.8499 M186.181 91.1462 Q191.991 91.1462 195.047 95.7527 Q198.125 100.336 198.125 109.086 Q198.125 117.813 195.047 122.419 Q191.991 127.003 186.181 127.003 Q180.371 127.003 177.292 122.419 Q174.237 117.813 174.237 109.086 Q174.237 100.336 177.292 95.7527 Q180.371 91.1462 186.181 91.1462 Z" fill="#000000" fill-rule="nonzero" fill-opacity="1" /><path clip-path="url(#clip990)" d="M29.4065 908.459 L34.9447 908.459 Q33.6716 910.942 33.035 913.615 Q32.3984 916.289 32.3984 919.153 Q32.3984 923.514 33.7352 925.71 Q35.072 927.874 37.7456 927.874 Q39.7826 927.874 40.9603 926.315 Q42.1061 924.755 43.1565 920.044 L43.6021 918.039 Q44.9389 911.801 47.3897 909.191 Q49.8086 906.549 54.1691 906.549 Q59.1344 906.549 62.0308 910.496 Q64.9272 914.411 64.9272 921.286 Q64.9272 924.15 64.3543 927.27 Q63.8132 930.357 62.6992 933.794 L56.6518 933.794 Q58.3387 930.548 59.198 927.397 Q60.0256 924.246 60.0256 921.158 Q60.0256 917.021 58.6251 914.793 Q57.1929 912.565 54.6147 912.565 Q52.2276 912.565 50.9545 914.188 Q49.6813 915.779 48.5037 921.222 L48.0262 923.259 Q46.8804 928.702 44.5251 931.121 Q42.138 933.54 38.0002 933.54 Q32.9713 933.54 30.2341 929.975 Q27.4968 926.41 27.4968 919.853 Q27.4968 916.607 27.9743 913.742 Q28.4517 910.878 29.4065 908.459 Z" fill="#000000" fill-rule="nonzero" fill-opacity="1" /><path clip-path="url(#clip990)" d="M18.2347 891.431 L28.3562 891.431 L28.3562 879.368 L32.9077 879.368 L32.9077 891.431 L52.2594 891.431 Q56.6199 891.431 57.8613 890.253 Q59.1026 889.043 59.1026 885.383 L59.1026 879.368 L64.0042 879.368 L64.0042 885.383 Q64.0042 892.163 61.4897 894.741 Q58.9434 897.319 52.2594 897.319 L32.9077 897.319 L32.9077 901.616 L28.3562 901.616 L28.3562 897.319 L18.2347 897.319 L18.2347 891.431 Z" fill="#000000" fill-rule="nonzero" fill-opacity="1" /><path clip-path="url(#clip990)" d="M33.8307 851.008 Q33.2578 851.995 33.0032 853.173 Q32.7167 854.319 32.7167 855.719 Q32.7167 860.684 35.9632 863.358 Q39.1779 866 45.2253 866 L64.0042 866 L64.0042 871.888 L28.3562 871.888 L28.3562 866 L33.8944 866 Q30.6479 864.154 29.0883 861.194 Q27.4968 858.233 27.4968 854 Q27.4968 853.396 27.5923 852.663 Q27.656 851.931 27.8151 851.04 L33.8307 851.008 Z" fill="#000000" fill-rule="nonzero" fill-opacity="1" /><path clip-path="url(#clip990)" d="M46.0847 828.665 Q46.0847 835.763 47.7079 838.5 Q49.3312 841.237 53.2461 841.237 Q56.3653 841.237 58.2114 839.2 Q60.0256 837.131 60.0256 833.598 Q60.0256 828.728 56.5881 825.8 Q53.1188 822.84 47.3897 822.84 L46.0847 822.84 L46.0847 828.665 M43.6657 816.984 L64.0042 816.984 L64.0042 822.84 L58.5933 822.84 Q61.8398 824.845 63.3994 827.837 Q64.9272 830.829 64.9272 835.158 Q64.9272 840.632 61.8716 843.879 Q58.7843 847.093 53.6281 847.093 Q47.6125 847.093 44.5569 843.083 Q41.5014 839.041 41.5014 831.052 L41.5014 822.84 L40.9285 822.84 Q36.8862 822.84 34.6901 825.514 Q32.4621 828.155 32.4621 832.962 Q32.4621 836.017 33.1941 838.914 Q33.9262 841.81 35.3903 844.484 L29.9795 844.484 Q28.7381 841.269 28.1334 838.245 Q27.4968 835.221 27.4968 832.357 Q27.4968 824.623 31.5072 820.803 Q35.5176 816.984 43.6657 816.984 Z" fill="#000000" fill-rule="nonzero" fill-opacity="1" /><path clip-path="url(#clip990)" d="M28.3562 804.921 L28.3562 799.064 L64.0042 799.064 L64.0042 804.921 L28.3562 804.921 M14.479 804.921 L14.479 799.064 L21.895 799.064 L21.895 804.921 L14.479 804.921 Z" fill="#000000" fill-rule="nonzero" fill-opacity="1" /><path clip-path="url(#clip990)" d="M42.4881 757.178 L64.0042 757.178 L64.0042 763.034 L42.679 763.034 Q37.6183 763.034 35.1038 765.008 Q32.5894 766.981 32.5894 770.928 Q32.5894 775.67 35.6131 778.407 Q38.6368 781.145 43.8567 781.145 L64.0042 781.145 L64.0042 787.033 L28.3562 787.033 L28.3562 781.145 L33.8944 781.145 Q30.6797 779.044 29.0883 776.211 Q27.4968 773.347 27.4968 769.623 Q27.4968 763.48 31.3163 760.329 Q35.1038 757.178 42.4881 757.178 Z" fill="#000000" fill-rule="nonzero" fill-opacity="1" /><path clip-path="url(#clip990)" d="M14.479 725.318 L14.479 711.822 L19.0304 711.822 L19.0304 719.461 L68.0464 719.461 L68.0464 711.822 L72.5979 711.822 L72.5979 725.318 L14.479 725.318 Z" fill="#000000" fill-rule="nonzero" fill-opacity="1" /><path clip-path="url(#clip990)" d="M44.7161 668.854 L47.5806 668.854 L47.5806 695.781 Q53.6281 695.399 56.8109 692.152 Q59.9619 688.874 59.9619 683.049 Q59.9619 679.675 59.1344 676.524 Q58.3069 673.342 56.6518 670.222 L62.1899 670.222 Q63.5267 673.373 64.227 676.684 Q64.9272 679.994 64.9272 683.399 Q64.9272 691.929 59.9619 696.926 Q54.9967 701.892 46.5303 701.892 Q37.7774 701.892 32.6531 697.181 Q27.4968 692.439 27.4968 684.418 Q27.4968 677.225 32.1438 673.055 Q36.7589 668.854 44.7161 668.854 M42.9973 674.71 Q38.1912 674.774 35.3266 677.416 Q32.4621 680.025 32.4621 684.354 Q32.4621 689.256 35.2312 692.216 Q38.0002 695.144 43.0292 695.59 L42.9973 674.71 Z" fill="#000000" fill-rule="nonzero" fill-opacity="1" /><path clip-path="url(#clip990)" d="M64.0042 646.733 L16.4842 664.875 L16.4842 658.159 L56.4926 643.104 L16.4842 628.018 L16.4842 621.334 L64.0042 639.444 L64.0042 646.733 Z" fill="#000000" fill-rule="nonzero" fill-opacity="1" /><path clip-path="url(#clip990)" d="M16.4842 604.242 L16.4842 598.831 L70.0516 615.382 L70.0516 620.793 L16.4842 604.242 Z" fill="#000000" fill-rule="nonzero" fill-opacity="1" /><path clip-path="url(#clip990)" d="M12.251 571.713 Q10.2458 571.713 8.84531 573.145 Q7.41303 574.546 7.41303 576.551 Q7.41303 578.588 8.81348 579.988 Q10.1821 581.357 12.251 581.357 Q14.2562 581.357 15.6566 579.957 Q17.0571 578.556 17.0571 576.551 Q17.0571 574.546 15.6566 573.145 Q14.2562 571.713 12.251 571.713 M22.818 576.551 L46.4666 585.208 L46.4666 567.862 L22.818 576.551 M19.5397 581.357 Q18.2347 583.299 16.4205 584.285 Q14.5744 585.272 12.251 585.272 Q8.59068 585.272 6.0444 582.758 Q3.49812 580.211 3.49812 576.551 Q3.49812 572.922 6.07623 570.376 Q8.62251 567.798 12.251 567.798 Q14.479 567.798 16.3568 568.817 Q18.2347 569.803 19.5397 571.713 L64.0042 554.78 L64.0042 561.464 L51.8138 565.793 L51.8138 587.213 L64.0042 591.542 L64.0042 598.322 L19.5397 581.357 Z" fill="#000000" fill-rule="nonzero" fill-opacity="1" /><path clip-path="url(#clip990)" d="M14.479 534.41 L72.5979 534.41 L72.5979 547.905 L68.0464 547.905 L68.0464 540.298 L19.0304 540.298 L19.0304 547.905 L14.479 547.905 L14.479 534.41 Z" fill="#000000" fill-rule="nonzero" fill-opacity="1" /><polyline clip-path="url(#clip992)" style="stroke:#009af9; stroke-linecap:round; stroke-linejoin:round; stroke-width:8; stroke-opacity:1; fill:none" points="234.125,1382.08 259.806,1343.03 285.486,1119.62 311.167,915.727 336.847,730.086 362.527,574.888 388.208,449.664 413.888,353.671 439.568,284.868 465.249,242.198 490.929,220.889 516.61,200.264 542.29,189.484 567.97,188.452 593.651,195.524 619.331,209.399 645.011,229.379 670.692,254.724 696.372,285.033 722.052,320.545 747.733,362.648 773.413,411.586 799.094,468.967 824.774,538.655 850.454,624.726 876.135,729.044 901.815,854.855 927.495,1000.46 953.176,1097.91 978.856,1175.83 1004.54,1245.04 1030.22,1301.99 1055.9,1343.68 1081.58,1366.85 1107.26,1369.55 1132.94,1351.3 1158.62,1315.23 1184.3,1264.51 1209.98,1203.07 1235.66,1139.62 1261.34,1087.57 1287.02,1058.65 1312.7,1062.8 1338.38,1115.21 1364.06,1203.46 1389.74,1185.25 1415.42,1163.26 1441.1,1163.01 1466.78,1141.7 1492.46,1112.65 1518.14,1092.91 1543.82,1082.22 1569.5,1079.83 1595.19,1084.63 1620.87,1095.05 1646.55,1109.3 1672.23,1125.66 1697.91,1142.24 1723.59,1157.5 1749.27,1170.16 1774.95,1179.21 1800.63,1184.52 1826.31,1185.94 1851.99,1184.13 1877.67,1180.67 1903.35,1177.75 1929.03,1176.77 1954.71,1180.33 1980.39,1192.86 2006.07,1217.82 2031.75,1256.71 2057.43,1313.47 2083.11,1375.42 2108.79,1382.08 2134.47,1382.08 2160.15,1382.08 2185.83,1382.08 2211.51,1382.08 2237.19,1382.08 2262.87,1382.08 2288.55,1382.08 2314.24,1382.08 2339.92,1382.08 2365.6,1382.08 2391.28,1382.08 2416.96,1382.08 2442.64,1382.08 2468.32,1382.08 2494,1382.08 2519.68,1382.08 2545.36,1382.08 2571.04,1382.08 2596.72,1382.08 2622.4,1382.08 2648.08,1382.08 2673.76,1382.08 2699.44,1382.08 2725.12,1382.08 2750.8,1382.08 2776.48,1382.08 "/>
<polyline clip-path="url(#clip992)" style="stroke:#e26f46; stroke-linecap:round; stroke-linejoin:round; stroke-width:8; stroke-opacity:1; fill:none" points="234.125,1382.08 259.806,1338.98 285.486,1123.75 311.167,916.489 336.847,714.483 362.527,540.552 388.208,397.438 413.888,286.947 439.568,209.324 465.249,164.984 490.929,148.413 516.61,131.784 542.29,128.503 567.97,138.15 593.651,158.04 619.331,186.147 645.011,221.433 670.692,263.114 696.372,310.925 722.052,365.154 747.733,426.862 773.413,495.553 799.094,571.45 824.774,656.559 850.454,752.617 876.135,859.576 901.815,979.225 927.495,1109.62 953.176,1188.89 978.856,1242.81 1004.54,1282.52 1030.22,1306.88 1055.9,1315.78 1081.58,1309.2 1107.26,1288.18 1132.94,1254.68 1158.62,1212.93 1184.3,1166.51 1209.98,1118.85 1235.66,1076.28 1261.34,1048 1287.02,1041.28 1312.7,1062.16 1338.38,1120.34 1364.06,1203.62 1389.74,1195.91 1415.42,1182.35 1441.1,1183.05 1466.78,1165.11 1492.46,1139.37 1518.14,1119.04 1543.82,1104.1 1569.5,1094.27 1595.19,1089.16 1620.87,1088.1 1646.55,1090.31 1672.23,1095.06 1697.91,1101.46 1723.59,1108.8 1749.27,1116.48 1774.95,1123.97 1800.63,1131.25 1826.31,1138.14 1851.99,1144.92 1877.67,1152.37 1903.35,1161.6 1929.03,1173.16 1954.71,1188.33 1980.39,1209.63 2006.07,1238.95 2031.75,1277.07 2057.43,1326.46 2083.11,1376.79 2108.79,1382.08 2134.47,1382.08 2160.15,1382.08 2185.83,1382.08 2211.51,1382.08 2237.19,1382.08 2262.87,1382.08 2288.55,1382.08 2314.24,1382.08 2339.92,1382.08 2365.6,1382.08 2391.28,1382.08 2416.96,1382.08 2442.64,1382.08 2468.32,1382.08 2494,1382.08 2519.68,1382.08 2545.36,1382.08 2571.04,1382.08 2596.72,1382.08 2622.4,1382.08 2648.08,1382.08 2673.76,1382.08 2699.44,1382.08 2725.12,1382.08 2750.8,1382.08 2776.48,1382.08 "/>
<polyline clip-path="url(#clip992)" style="stroke:#3da44d; stroke-linecap:round; stroke-linejoin:round; stroke-width:8; stroke-opacity:1; fill:none" points="234.125,1382.08 259.806,1336.41 285.486,1122.4 311.167,918.444 336.847,723.359 362.527,551.551 388.208,405.912 413.888,288.656 439.568,201.058 465.249,143.613 490.929,112.292 516.61,90.1474 542.29,86.1229 567.97,99.4397 593.651,127.67 619.331,168.642 645.011,220.683 670.692,282.378 696.372,352.539 722.052,430.321 747.733,515.041 773.413,605.446 799.094,700.427 824.774,799.264 850.454,901.044 876.135,1004.34 901.815,1108.28 927.495,1208.67 953.176,1264.7 978.856,1297.43 1004.54,1315.7 1030.22,1320.2 1055.9,1312.39 1081.58,1294.16 1107.26,1267.97 1132.94,1236.67 1158.62,1203.69 1184.3,1172.18 1209.98,1145 1235.66,1125.42 1261.34,1117.06 1287.02,1122.6 1312.7,1143.97 1338.38,1183.58 1364.06,1230.52 1389.74,1218.91 1415.42,1203.79 1441.1,1196.28 1466.78,1176.86 1492.46,1153.97 1518.14,1135.57 1543.82,1121.43 1569.5,1111.21 1595.19,1104.59 1620.87,1101.15 1646.55,1100.52 1672.23,1102.34 1697.91,1106.3 1723.59,1112.12 1749.27,1119.6 1774.95,1128.59 1800.63,1139.07 1826.31,1150.97 1851.99,1164.37 1877.67,1179.42 1903.35,1196.34 1929.03,1215.22 1954.71,1236.29 1980.39,1260 2006.07,1286.66 2031.75,1316.32 2057.43,1349.37 2083.11,1379.1 2108.79,1382.08 2134.47,1382.08 2160.15,1382.08 2185.83,1382.08 2211.51,1382.08 2237.19,1382.08 2262.87,1382.08 2288.55,1382.08 2314.24,1382.08 2339.92,1382.08 2365.6,1382.08 2391.28,1382.08 2416.96,1382.08 2442.64,1382.08 2468.32,1382.08 2494,1382.08 2519.68,1382.08 2545.36,1382.08 2571.04,1382.08 2596.72,1382.08 2622.4,1382.08 2648.08,1382.08 2673.76,1382.08 2699.44,1382.08 2725.12,1382.08 2750.8,1382.08 2776.48,1382.08 "/>
<polyline clip-path="url(#clip992)" style="stroke:#c271d2; stroke-linecap:round; stroke-linejoin:round; stroke-width:8; stroke-opacity:1; fill:none" points="234.125,1382.08 259.806,1382.08 285.486,1382.08 311.167,1382.08 336.847,1382.08 362.527,1382.08 388.208,1382.08 413.888,1382.08 439.568,1382.08 465.249,1382.08 490.929,1382.08 516.61,1382.08 542.29,1382.08 567.97,1382.08 593.651,1382.08 619.331,1382.08 645.011,1382.08 670.692,1382.08 696.372,1382.08 722.052,1382.08 747.733,1382.08 773.413,1382.08 799.094,1382.08 824.774,1382.08 850.454,1382.08 876.135,1382.08 901.815,1382.08 927.495,1382.08 953.176,1382.08 978.856,1382.08 1004.54,1382.08 1030.22,1382.08 1055.9,1382.08 1081.58,1382.08 1107.26,1382.08 1132.94,1382.08 1158.62,1382.08 1184.3,1382.08 1209.98,1382.08 1235.66,1382.08 1261.34,1382.08 1287.02,1382.08 1312.7,1382.08 1338.38,1382.08 1364.06,1382.08 1389.74,1382.08 1415.42,1382.08 1441.1,1382.08 1466.78,1382.08 1492.46,1382.08 1518.14,1382.08 1543.82,1382.08 1569.5,1382.08 1595.19,1382.08 1620.87,1382.08 1646.55,1382.08 1672.23,1382.08 1697.91,1382.08 1723.59,1382.08 1749.27,1382.08 1774.95,1382.08 1800.63,1382.08 1826.31,1382.08 1851.99,1382.08 1877.67,1382.08 1903.35,1382.08 1929.03,1382.08 1954.71,1382.08 1980.39,1382.08 2006.07,1382.08 2031.75,1382.08 2057.43,1382.08 2083.11,1382.08 2108.79,1382.08 2134.47,1382.08 2160.15,1382.08 2185.83,1382.08 2211.51,1382.08 2237.19,1382.08 2262.87,1382.08 2288.55,1382.08 2314.24,1382.08 2339.92,1382.08 2365.6,1382.08 2391.28,1382.08 2416.96,1382.08 2442.64,1382.08 2468.32,1382.08 2494,1382.08 2519.68,1382.08 2545.36,1382.08 2571.04,1382.08 2596.72,1382.08 2622.4,1382.08 2648.08,1382.08 2673.76,1382.08 2699.44,1382.08 2725.12,1382.08 2750.8,1382.08 2776.48,1382.08 "/>
<path clip-path="url(#clip990)" d="M1784.83 352.235 L2282.13 352.235 L2282.13 93.0346 L1784.83 93.0346  Z" fill="#ffffff" fill-rule="evenodd" fill-opacity="1"/>
<polyline clip-path="url(#clip990)" style="stroke:#000000; stroke-linecap:round; stroke-linejoin:round; stroke-width:4; stroke-opacity:1; fill:none" points="1784.83,352.235 2282.13,352.235 2282.13,93.0346 1784.83,93.0346 1784.83,352.235 "/>
<polyline clip-path="url(#clip990)" style="stroke:#009af9; stroke-linecap:round; stroke-linejoin:round; stroke-width:8; stroke-opacity:1; fill:none" points="1808.37,144.875 1949.62,144.875 "/>
<path clip-path="url(#clip990)" d="M1973.16 127.595 L1977.83 127.595 L1977.83 162.155 L1973.16 162.155 L1973.16 127.595 Z" fill="#000000" fill-rule="nonzero" fill-opacity="1" /><path clip-path="url(#clip990)" d="M2004.01 140.164 L2004.01 126.136 L2008.27 126.136 L2008.27 162.155 L2004.01 162.155 L2004.01 158.266 Q2002.67 160.581 2000.61 161.715 Q1998.57 162.826 1995.7 162.826 Q1991 162.826 1988.04 159.076 Q1985.1 155.326 1985.1 149.215 Q1985.1 143.104 1988.04 139.354 Q1991 135.604 1995.7 135.604 Q1998.57 135.604 2000.61 136.738 Q2002.67 137.849 2004.01 140.164 M1989.5 149.215 Q1989.5 153.914 1991.42 156.599 Q1993.36 159.261 1996.74 159.261 Q2000.12 159.261 2002.07 156.599 Q2004.01 153.914 2004.01 149.215 Q2004.01 144.516 2002.07 141.854 Q2000.12 139.169 1996.74 139.169 Q1993.36 139.169 1991.42 141.854 Q1989.5 144.516 1989.5 149.215 Z" fill="#000000" fill-rule="nonzero" fill-opacity="1" /><polyline clip-path="url(#clip990)" style="stroke:#e26f46; stroke-linecap:round; stroke-linejoin:round; stroke-width:8; stroke-opacity:1; fill:none" points="1808.37,196.715 1949.62,196.715 "/>
<path clip-path="url(#clip990)" d="M1988.99 184.041 L1982.65 201.24 L1995.36 201.24 L1988.99 184.041 M1986.35 179.435 L1991.65 179.435 L2004.82 213.995 L1999.96 213.995 L1996.81 205.129 L1981.23 205.129 L1978.09 213.995 L1973.16 213.995 L1986.35 179.435 Z" fill="#000000" fill-rule="nonzero" fill-opacity="1" /><path clip-path="url(#clip990)" d="M2009.68 177.976 L2013.94 177.976 L2013.94 213.995 L2009.68 213.995 L2009.68 177.976 Z" fill="#000000" fill-rule="nonzero" fill-opacity="1" /><path clip-path="url(#clip990)" d="M2039.92 200.731 Q2039.92 196.101 2037.99 193.555 Q2036.1 191.009 2032.65 191.009 Q2029.22 191.009 2027.3 193.555 Q2025.4 196.101 2025.4 200.731 Q2025.4 205.337 2027.3 207.884 Q2029.22 210.43 2032.65 210.43 Q2036.1 210.43 2037.99 207.884 Q2039.92 205.337 2039.92 200.731 M2044.17 210.777 Q2044.17 217.397 2041.23 220.615 Q2038.29 223.856 2032.23 223.856 Q2029.98 223.856 2027.99 223.508 Q2026 223.184 2024.13 222.49 L2024.13 218.346 Q2026 219.365 2027.83 219.851 Q2029.66 220.337 2031.56 220.337 Q2035.75 220.337 2037.83 218.138 Q2039.92 215.962 2039.92 211.541 L2039.92 209.434 Q2038.6 211.726 2036.54 212.86 Q2034.48 213.995 2031.61 213.995 Q2026.84 213.995 2023.92 210.36 Q2021 206.726 2021 200.731 Q2021 194.712 2023.92 191.078 Q2026.84 187.444 2031.61 187.444 Q2034.48 187.444 2036.54 188.578 Q2038.6 189.712 2039.92 192.004 L2039.92 188.069 L2044.17 188.069 L2044.17 210.777 Z" fill="#000000" fill-rule="nonzero" fill-opacity="1" /><path clip-path="url(#clip990)" d="M2075.12 199.967 L2075.12 202.05 L2055.54 202.05 Q2055.82 206.448 2058.18 208.763 Q2060.56 211.055 2064.8 211.055 Q2067.25 211.055 2069.54 210.453 Q2071.86 209.851 2074.13 208.647 L2074.13 212.675 Q2071.84 213.647 2069.43 214.157 Q2067.02 214.666 2064.54 214.666 Q2058.34 214.666 2054.71 211.055 Q2051.1 207.444 2051.1 201.286 Q2051.1 194.921 2054.52 191.194 Q2057.97 187.444 2063.8 187.444 Q2069.04 187.444 2072.07 190.823 Q2075.12 194.18 2075.12 199.967 M2070.86 198.717 Q2070.82 195.222 2068.9 193.138 Q2067 191.055 2063.85 191.055 Q2060.29 191.055 2058.13 193.069 Q2056 195.083 2055.68 198.74 L2070.86 198.717 Z" fill="#000000" fill-rule="nonzero" fill-opacity="1" /><path clip-path="url(#clip990)" d="M2100.73 201.055 Q2100.73 196.356 2098.78 193.694 Q2096.86 191.009 2093.48 191.009 Q2090.1 191.009 2088.16 193.694 Q2086.23 196.356 2086.23 201.055 Q2086.23 205.754 2088.16 208.439 Q2090.1 211.101 2093.48 211.101 Q2096.86 211.101 2098.78 208.439 Q2100.73 205.754 2100.73 201.055 M2086.23 192.004 Q2087.58 189.689 2089.61 188.578 Q2091.67 187.444 2094.52 187.444 Q2099.24 187.444 2102.18 191.194 Q2105.15 194.944 2105.15 201.055 Q2105.15 207.166 2102.18 210.916 Q2099.24 214.666 2094.52 214.666 Q2091.67 214.666 2089.61 213.555 Q2087.58 212.421 2086.23 210.106 L2086.23 213.995 L2081.95 213.995 L2081.95 177.976 L2086.23 177.976 L2086.23 192.004 Z" fill="#000000" fill-rule="nonzero" fill-opacity="1" /><path clip-path="url(#clip990)" d="M2127.23 192.05 Q2126.51 191.634 2125.66 191.448 Q2124.82 191.24 2123.8 191.24 Q2120.19 191.24 2118.25 193.601 Q2116.33 195.939 2116.33 200.337 L2116.33 213.995 L2112.04 213.995 L2112.04 188.069 L2116.33 188.069 L2116.33 192.097 Q2117.67 189.736 2119.82 188.601 Q2121.97 187.444 2125.05 187.444 Q2125.49 187.444 2126.03 187.513 Q2126.56 187.56 2127.21 187.675 L2127.23 192.05 Z" fill="#000000" fill-rule="nonzero" fill-opacity="1" /><path clip-path="url(#clip990)" d="M2143.48 200.962 Q2138.32 200.962 2136.33 202.143 Q2134.34 203.323 2134.34 206.171 Q2134.34 208.439 2135.82 209.782 Q2137.32 211.101 2139.89 211.101 Q2143.43 211.101 2145.56 208.601 Q2147.72 206.078 2147.72 201.911 L2147.72 200.962 L2143.48 200.962 M2151.97 199.203 L2151.97 213.995 L2147.72 213.995 L2147.72 210.059 Q2146.26 212.421 2144.08 213.555 Q2141.91 214.666 2138.76 214.666 Q2134.78 214.666 2132.41 212.444 Q2130.08 210.198 2130.08 206.448 Q2130.08 202.073 2132.99 199.851 Q2135.93 197.629 2141.74 197.629 L2147.72 197.629 L2147.72 197.212 Q2147.72 194.273 2145.77 192.675 Q2143.85 191.055 2140.35 191.055 Q2138.13 191.055 2136.03 191.587 Q2133.92 192.12 2131.97 193.185 L2131.97 189.249 Q2134.31 188.347 2136.51 187.907 Q2138.71 187.444 2140.79 187.444 Q2146.42 187.444 2149.2 190.361 Q2151.97 193.277 2151.97 199.203 Z" fill="#000000" fill-rule="nonzero" fill-opacity="1" /><path clip-path="url(#clip990)" d="M2160.75 188.069 L2165.01 188.069 L2165.01 213.995 L2160.75 213.995 L2160.75 188.069 M2160.75 177.976 L2165.01 177.976 L2165.01 183.37 L2160.75 183.37 L2160.75 177.976 Z" fill="#000000" fill-rule="nonzero" fill-opacity="1" /><path clip-path="url(#clip990)" d="M2192.58 189.064 L2192.58 193.046 Q2190.77 192.05 2188.94 191.564 Q2187.14 191.055 2185.28 191.055 Q2181.14 191.055 2178.85 193.694 Q2176.56 196.31 2176.56 201.055 Q2176.56 205.8 2178.85 208.439 Q2181.14 211.055 2185.28 211.055 Q2187.14 211.055 2188.94 210.569 Q2190.77 210.059 2192.58 209.064 L2192.58 212.999 Q2190.79 213.833 2188.87 214.249 Q2186.97 214.666 2184.82 214.666 Q2178.97 214.666 2175.52 210.985 Q2172.07 207.305 2172.07 201.055 Q2172.07 194.712 2175.54 191.078 Q2179.03 187.444 2185.1 187.444 Q2187.07 187.444 2188.94 187.861 Q2190.82 188.254 2192.58 189.064 Z" fill="#000000" fill-rule="nonzero" fill-opacity="1" /><path clip-path="url(#clip990)" d="M2210.22 178.023 Q2207.11 183.347 2205.61 188.555 Q2204.1 193.763 2204.1 199.11 Q2204.1 204.458 2205.61 209.712 Q2207.14 214.944 2210.22 220.245 L2206.51 220.245 Q2203.04 214.805 2201.3 209.55 Q2199.59 204.296 2199.59 199.11 Q2199.59 193.948 2201.3 188.717 Q2203.02 183.486 2206.51 178.023 L2210.22 178.023 Z" fill="#000000" fill-rule="nonzero" fill-opacity="1" /><path clip-path="url(#clip990)" d="M2223.11 210.059 L2239.43 210.059 L2239.43 213.995 L2217.48 213.995 L2217.48 210.059 Q2220.15 207.305 2224.73 202.675 Q2229.34 198.022 2230.52 196.68 Q2232.76 194.157 2233.64 192.421 Q2234.54 190.661 2234.54 188.972 Q2234.54 186.217 2232.6 184.481 Q2230.68 182.745 2227.58 182.745 Q2225.38 182.745 2222.92 183.509 Q2220.49 184.273 2217.72 185.823 L2217.72 181.101 Q2220.54 179.967 2222.99 179.388 Q2225.45 178.81 2227.48 178.81 Q2232.85 178.81 2236.05 181.495 Q2239.24 184.18 2239.24 188.671 Q2239.24 190.8 2238.43 192.722 Q2237.65 194.62 2235.54 197.212 Q2234.96 197.884 2231.86 201.101 Q2228.76 204.296 2223.11 210.059 Z" fill="#000000" fill-rule="nonzero" fill-opacity="1" /><path clip-path="url(#clip990)" d="M2247.97 178.023 L2251.67 178.023 Q2255.15 183.486 2256.86 188.717 Q2258.59 193.948 2258.59 199.11 Q2258.59 204.296 2256.86 209.55 Q2255.15 214.805 2251.67 220.245 L2247.97 220.245 Q2251.05 214.944 2252.55 209.712 Q2254.08 204.458 2254.08 199.11 Q2254.08 193.763 2252.55 188.555 Q2251.05 183.347 2247.97 178.023 Z" fill="#000000" fill-rule="nonzero" fill-opacity="1" /><polyline clip-path="url(#clip990)" style="stroke:#3da44d; stroke-linecap:round; stroke-linejoin:round; stroke-width:8; stroke-opacity:1; fill:none" points="1808.37,248.555 1949.62,248.555 "/>
<path clip-path="url(#clip990)" d="M1988.99 235.881 L1982.65 253.08 L1995.36 253.08 L1988.99 235.881 M1986.35 231.275 L1991.65 231.275 L2004.82 265.835 L1999.96 265.835 L1996.81 256.969 L1981.23 256.969 L1978.09 265.835 L1973.16 265.835 L1986.35 231.275 Z" fill="#000000" fill-rule="nonzero" fill-opacity="1" /><path clip-path="url(#clip990)" d="M2009.68 229.816 L2013.94 229.816 L2013.94 265.835 L2009.68 265.835 L2009.68 229.816 Z" fill="#000000" fill-rule="nonzero" fill-opacity="1" /><path clip-path="url(#clip990)" d="M2039.92 252.571 Q2039.92 247.941 2037.99 245.395 Q2036.1 242.849 2032.65 242.849 Q2029.22 242.849 2027.3 245.395 Q2025.4 247.941 2025.4 252.571 Q2025.4 257.177 2027.3 259.724 Q2029.22 262.27 2032.65 262.27 Q2036.1 262.27 2037.99 259.724 Q2039.92 257.177 2039.92 252.571 M2044.17 262.617 Q2044.17 269.237 2041.23 272.455 Q2038.29 275.696 2032.23 275.696 Q2029.98 275.696 2027.99 275.348 Q2026 275.024 2024.13 274.33 L2024.13 270.186 Q2026 271.205 2027.83 271.691 Q2029.66 272.177 2031.56 272.177 Q2035.75 272.177 2037.83 269.978 Q2039.92 267.802 2039.92 263.381 L2039.92 261.274 Q2038.6 263.566 2036.54 264.7 Q2034.48 265.835 2031.61 265.835 Q2026.84 265.835 2023.92 262.2 Q2021 258.566 2021 252.571 Q2021 246.552 2023.92 242.918 Q2026.84 239.284 2031.61 239.284 Q2034.48 239.284 2036.54 240.418 Q2038.6 241.552 2039.92 243.844 L2039.92 239.909 L2044.17 239.909 L2044.17 262.617 Z" fill="#000000" fill-rule="nonzero" fill-opacity="1" /><path clip-path="url(#clip990)" d="M2075.12 251.807 L2075.12 253.89 L2055.54 253.89 Q2055.82 258.288 2058.18 260.603 Q2060.56 262.895 2064.8 262.895 Q2067.25 262.895 2069.54 262.293 Q2071.86 261.691 2074.13 260.487 L2074.13 264.515 Q2071.84 265.487 2069.43 265.997 Q2067.02 266.506 2064.54 266.506 Q2058.34 266.506 2054.71 262.895 Q2051.1 259.284 2051.1 253.126 Q2051.1 246.761 2054.52 243.034 Q2057.97 239.284 2063.8 239.284 Q2069.04 239.284 2072.07 242.663 Q2075.12 246.02 2075.12 251.807 M2070.86 250.557 Q2070.82 247.062 2068.9 244.978 Q2067 242.895 2063.85 242.895 Q2060.29 242.895 2058.13 244.909 Q2056 246.923 2055.68 250.58 L2070.86 250.557 Z" fill="#000000" fill-rule="nonzero" fill-opacity="1" /><path clip-path="url(#clip990)" d="M2100.73 252.895 Q2100.73 248.196 2098.78 245.534 Q2096.86 242.849 2093.48 242.849 Q2090.1 242.849 2088.16 245.534 Q2086.23 248.196 2086.23 252.895 Q2086.23 257.594 2088.16 260.279 Q2090.1 262.941 2093.48 262.941 Q2096.86 262.941 2098.78 260.279 Q2100.73 257.594 2100.73 252.895 M2086.23 243.844 Q2087.58 241.529 2089.61 240.418 Q2091.67 239.284 2094.52 239.284 Q2099.24 239.284 2102.18 243.034 Q2105.15 246.784 2105.15 252.895 Q2105.15 259.006 2102.18 262.756 Q2099.24 266.506 2094.52 266.506 Q2091.67 266.506 2089.61 265.395 Q2087.58 264.261 2086.23 261.946 L2086.23 265.835 L2081.95 265.835 L2081.95 229.816 L2086.23 229.816 L2086.23 243.844 Z" fill="#000000" fill-rule="nonzero" fill-opacity="1" /><path clip-path="url(#clip990)" d="M2127.23 243.89 Q2126.51 243.474 2125.66 243.288 Q2124.82 243.08 2123.8 243.08 Q2120.19 243.08 2118.25 245.441 Q2116.33 247.779 2116.33 252.177 L2116.33 265.835 L2112.04 265.835 L2112.04 239.909 L2116.33 239.909 L2116.33 243.937 Q2117.67 241.576 2119.82 240.441 Q2121.97 239.284 2125.05 239.284 Q2125.49 239.284 2126.03 239.353 Q2126.56 239.4 2127.21 239.515 L2127.23 243.89 Z" fill="#000000" fill-rule="nonzero" fill-opacity="1" /><path clip-path="url(#clip990)" d="M2143.48 252.802 Q2138.32 252.802 2136.33 253.983 Q2134.34 255.163 2134.34 258.011 Q2134.34 260.279 2135.82 261.622 Q2137.32 262.941 2139.89 262.941 Q2143.43 262.941 2145.56 260.441 Q2147.72 257.918 2147.72 253.751 L2147.72 252.802 L2143.48 252.802 M2151.97 251.043 L2151.97 265.835 L2147.72 265.835 L2147.72 261.899 Q2146.26 264.261 2144.08 265.395 Q2141.91 266.506 2138.76 266.506 Q2134.78 266.506 2132.41 264.284 Q2130.08 262.038 2130.08 258.288 Q2130.08 253.913 2132.99 251.691 Q2135.93 249.469 2141.74 249.469 L2147.72 249.469 L2147.72 249.052 Q2147.72 246.113 2145.77 244.515 Q2143.85 242.895 2140.35 242.895 Q2138.13 242.895 2136.03 243.427 Q2133.92 243.96 2131.97 245.025 L2131.97 241.089 Q2134.31 240.187 2136.51 239.747 Q2138.71 239.284 2140.79 239.284 Q2146.42 239.284 2149.2 242.201 Q2151.97 245.117 2151.97 251.043 Z" fill="#000000" fill-rule="nonzero" fill-opacity="1" /><path clip-path="url(#clip990)" d="M2160.75 239.909 L2165.01 239.909 L2165.01 265.835 L2160.75 265.835 L2160.75 239.909 M2160.75 229.816 L2165.01 229.816 L2165.01 235.21 L2160.75 235.21 L2160.75 229.816 Z" fill="#000000" fill-rule="nonzero" fill-opacity="1" /><path clip-path="url(#clip990)" d="M2192.58 240.904 L2192.58 244.886 Q2190.77 243.89 2188.94 243.404 Q2187.14 242.895 2185.28 242.895 Q2181.14 242.895 2178.85 245.534 Q2176.56 248.15 2176.56 252.895 Q2176.56 257.64 2178.85 260.279 Q2181.14 262.895 2185.28 262.895 Q2187.14 262.895 2188.94 262.409 Q2190.77 261.899 2192.58 260.904 L2192.58 264.839 Q2190.79 265.673 2188.87 266.089 Q2186.97 266.506 2184.82 266.506 Q2178.97 266.506 2175.52 262.825 Q2172.07 259.145 2172.07 252.895 Q2172.07 246.552 2175.54 242.918 Q2179.03 239.284 2185.1 239.284 Q2187.07 239.284 2188.94 239.701 Q2190.82 240.094 2192.58 240.904 Z" fill="#000000" fill-rule="nonzero" fill-opacity="1" /><path clip-path="url(#clip990)" d="M2210.22 229.863 Q2207.11 235.187 2205.61 240.395 Q2204.1 245.603 2204.1 250.95 Q2204.1 256.298 2205.61 261.552 Q2207.14 266.784 2210.22 272.085 L2206.51 272.085 Q2203.04 266.645 2201.3 261.39 Q2199.59 256.136 2199.59 250.95 Q2199.59 245.788 2201.3 240.557 Q2203.02 235.326 2206.51 229.863 L2210.22 229.863 Z" fill="#000000" fill-rule="nonzero" fill-opacity="1" /><path clip-path="url(#clip990)" d="M2231.93 235.349 L2220.12 253.798 L2231.93 253.798 L2231.93 235.349 M2230.7 231.275 L2236.58 231.275 L2236.58 253.798 L2241.51 253.798 L2241.51 257.687 L2236.58 257.687 L2236.58 265.835 L2231.93 265.835 L2231.93 257.687 L2216.33 257.687 L2216.33 253.173 L2230.7 231.275 Z" fill="#000000" fill-rule="nonzero" fill-opacity="1" /><path clip-path="url(#clip990)" d="M2247.97 229.863 L2251.67 229.863 Q2255.15 235.326 2256.86 240.557 Q2258.59 245.788 2258.59 250.95 Q2258.59 256.136 2256.86 261.39 Q2255.15 266.645 2251.67 272.085 L2247.97 272.085 Q2251.05 266.784 2252.55 261.552 Q2254.08 256.298 2254.08 250.95 Q2254.08 245.603 2252.55 240.395 Q2251.05 235.187 2247.97 229.863 Z" fill="#000000" fill-rule="nonzero" fill-opacity="1" /><polyline clip-path="url(#clip990)" style="stroke:#c271d2; stroke-linecap:round; stroke-linejoin:round; stroke-width:8; stroke-opacity:1; fill:none" points="1808.37,300.395 1949.62,300.395 "/>
<path clip-path="url(#clip990)" d="M1998.71 312.744 L1998.71 303.462 L1991.07 303.462 L1991.07 299.619 L2003.34 299.619 L2003.34 314.457 Q2000.63 316.378 1997.37 317.374 Q1994.11 318.346 1990.4 318.346 Q1982.3 318.346 1977.72 313.624 Q1973.16 308.878 1973.16 300.429 Q1973.16 291.957 1977.72 287.235 Q1982.3 282.49 1990.4 282.49 Q1993.78 282.49 1996.81 283.323 Q1999.87 284.156 2002.44 285.777 L2002.44 290.753 Q1999.85 288.554 1996.93 287.443 Q1994.01 286.332 1990.8 286.332 Q1984.45 286.332 1981.26 289.874 Q1978.09 293.416 1978.09 300.429 Q1978.09 307.42 1981.26 310.962 Q1984.45 314.503 1990.8 314.503 Q1993.27 314.503 1995.22 314.087 Q1997.16 313.647 1998.71 312.744 Z" fill="#000000" fill-rule="nonzero" fill-opacity="1" /><path clip-path="url(#clip990)" d="M2023.48 304.642 Q2018.32 304.642 2016.33 305.823 Q2014.34 307.003 2014.34 309.851 Q2014.34 312.119 2015.82 313.462 Q2017.32 314.781 2019.89 314.781 Q2023.43 314.781 2025.56 312.281 Q2027.72 309.758 2027.72 305.591 L2027.72 304.642 L2023.48 304.642 M2031.98 302.883 L2031.98 317.675 L2027.72 317.675 L2027.72 313.739 Q2026.26 316.101 2024.08 317.235 Q2021.91 318.346 2018.76 318.346 Q2014.78 318.346 2012.42 316.124 Q2010.08 313.878 2010.08 310.128 Q2010.08 305.753 2012.99 303.531 Q2015.93 301.309 2021.74 301.309 L2027.72 301.309 L2027.72 300.892 Q2027.72 297.953 2025.77 296.355 Q2023.85 294.735 2020.36 294.735 Q2018.13 294.735 2016.03 295.267 Q2013.92 295.8 2011.98 296.865 L2011.98 292.929 Q2014.31 292.027 2016.51 291.587 Q2018.71 291.124 2020.79 291.124 Q2026.42 291.124 2029.2 294.041 Q2031.98 296.957 2031.98 302.883 Z" fill="#000000" fill-rule="nonzero" fill-opacity="1" /><path clip-path="url(#clip990)" d="M2040.31 307.443 L2040.31 291.749 L2044.57 291.749 L2044.57 307.281 Q2044.57 310.962 2046 312.814 Q2047.44 314.642 2050.31 314.642 Q2053.76 314.642 2055.75 312.443 Q2057.76 310.244 2057.76 306.448 L2057.76 291.749 L2062.02 291.749 L2062.02 317.675 L2057.76 317.675 L2057.76 313.693 Q2056.21 316.054 2054.15 317.212 Q2052.11 318.346 2049.41 318.346 Q2044.94 318.346 2042.62 315.568 Q2040.31 312.79 2040.31 307.443 M2051.03 291.124 L2051.03 291.124 Z" fill="#000000" fill-rule="nonzero" fill-opacity="1" /><path clip-path="url(#clip990)" d="M2087.32 292.513 L2087.32 296.54 Q2085.52 295.615 2083.57 295.152 Q2081.63 294.689 2079.54 294.689 Q2076.37 294.689 2074.78 295.661 Q2073.2 296.633 2073.2 298.578 Q2073.2 300.059 2074.34 300.915 Q2075.47 301.749 2078.9 302.513 L2080.35 302.837 Q2084.89 303.809 2086.79 305.591 Q2088.71 307.351 2088.71 310.522 Q2088.71 314.133 2085.84 316.239 Q2082.99 318.346 2077.99 318.346 Q2075.91 318.346 2073.64 317.929 Q2071.4 317.536 2068.9 316.726 L2068.9 312.327 Q2071.26 313.554 2073.55 314.179 Q2075.84 314.781 2078.09 314.781 Q2081.1 314.781 2082.72 313.763 Q2084.34 312.721 2084.34 310.846 Q2084.34 309.11 2083.16 308.184 Q2082 307.258 2078.04 306.402 L2076.56 306.054 Q2072.6 305.221 2070.84 303.508 Q2069.08 301.772 2069.08 298.763 Q2069.08 295.105 2071.67 293.115 Q2074.27 291.124 2079.04 291.124 Q2081.4 291.124 2083.48 291.471 Q2085.56 291.818 2087.32 292.513 Z" fill="#000000" fill-rule="nonzero" fill-opacity="1" /><path clip-path="url(#clip990)" d="M2112.02 292.513 L2112.02 296.54 Q2110.22 295.615 2108.27 295.152 Q2106.33 294.689 2104.24 294.689 Q2101.07 294.689 2099.48 295.661 Q2097.9 296.633 2097.9 298.578 Q2097.9 300.059 2099.04 300.915 Q2100.17 301.749 2103.6 302.513 L2105.05 302.837 Q2109.59 303.809 2111.49 305.591 Q2113.41 307.351 2113.41 310.522 Q2113.41 314.133 2110.54 316.239 Q2107.69 318.346 2102.69 318.346 Q2100.61 318.346 2098.34 317.929 Q2096.1 317.536 2093.6 316.726 L2093.6 312.327 Q2095.96 313.554 2098.25 314.179 Q2100.54 314.781 2102.79 314.781 Q2105.79 314.781 2107.41 313.763 Q2109.04 312.721 2109.04 310.846 Q2109.04 309.11 2107.85 308.184 Q2106.7 307.258 2102.74 306.402 L2101.26 306.054 Q2097.3 305.221 2095.54 303.508 Q2093.78 301.772 2093.78 298.763 Q2093.78 295.105 2096.37 293.115 Q2098.97 291.124 2103.73 291.124 Q2106.1 291.124 2108.18 291.471 Q2110.26 291.818 2112.02 292.513 Z" fill="#000000" fill-rule="nonzero" fill-opacity="1" /><path clip-path="url(#clip990)" d="M2120.19 291.749 L2124.45 291.749 L2124.45 317.675 L2120.19 317.675 L2120.19 291.749 M2120.19 281.656 L2124.45 281.656 L2124.45 287.05 L2120.19 287.05 L2120.19 281.656 Z" fill="#000000" fill-rule="nonzero" fill-opacity="1" /><path clip-path="url(#clip990)" d="M2145.15 304.642 Q2139.98 304.642 2137.99 305.823 Q2136 307.003 2136 309.851 Q2136 312.119 2137.48 313.462 Q2138.99 314.781 2141.56 314.781 Q2145.1 314.781 2147.23 312.281 Q2149.38 309.758 2149.38 305.591 L2149.38 304.642 L2145.15 304.642 M2153.64 302.883 L2153.64 317.675 L2149.38 317.675 L2149.38 313.739 Q2147.92 316.101 2145.75 317.235 Q2143.57 318.346 2140.42 318.346 Q2136.44 318.346 2134.08 316.124 Q2131.74 313.878 2131.74 310.128 Q2131.74 305.753 2134.66 303.531 Q2137.6 301.309 2143.41 301.309 L2149.38 301.309 L2149.38 300.892 Q2149.38 297.953 2147.44 296.355 Q2145.52 294.735 2142.02 294.735 Q2139.8 294.735 2137.69 295.267 Q2135.59 295.8 2133.64 296.865 L2133.64 292.929 Q2135.98 292.027 2138.18 291.587 Q2140.38 291.124 2142.46 291.124 Q2148.09 291.124 2150.86 294.041 Q2153.64 296.957 2153.64 302.883 Z" fill="#000000" fill-rule="nonzero" fill-opacity="1" /><path clip-path="url(#clip990)" d="M2183.97 302.027 L2183.97 317.675 L2179.71 317.675 L2179.71 302.165 Q2179.71 298.485 2178.27 296.656 Q2176.84 294.828 2173.97 294.828 Q2170.52 294.828 2168.53 297.027 Q2166.53 299.226 2166.53 303.022 L2166.53 317.675 L2162.25 317.675 L2162.25 291.749 L2166.53 291.749 L2166.53 295.777 Q2168.06 293.439 2170.12 292.281 Q2172.21 291.124 2174.91 291.124 Q2179.38 291.124 2181.67 293.902 Q2183.97 296.656 2183.97 302.027 Z" fill="#000000" fill-rule="nonzero" fill-opacity="1" /></svg>
